# Created by 3DAce v2.72


g
v -0.124839 0.094536 -0.246093
v -0.124839 0.094534 -0.700788
v -0.124839 -0.299239 -0.473436
v -0.124839 -0.299239 -0.018750
v -0.124839 0.094534 0.208593
v -0.124839 0.488306 -0.018750
v -0.124839 0.488306 -0.473436
v 0.079250 0.094534 -0.700788
v 0.079250 -0.299239 -0.473436
v 0.079250 -0.299239 -0.018750
v 0.079250 0.094534 0.208593
v 0.079250 0.488306 -0.018750
v 0.079250 0.488306 -0.473436
v 0.079250 0.094536 -0.246093
v 0.120751 0.674853 -0.359008
v 0.120751 0.037139 -0.359008
v -0.173617 0.674853 -0.359008
v -0.173617 0.037139 -0.359008
v -0.173617 0.674853 -0.127320
v -0.173617 0.037139 -0.127320
v 0.120751 0.674853 -0.127320
v 0.120751 0.037139 -0.127320
v -0.021243 2.376996 -0.338959
v -0.123714 2.376996 -0.161478
v 0.081215 2.376996 -0.161478
v -0.021243 0.649692 -0.338959
v -0.123714 0.649692 -0.161480
v 0.081215 0.649692 -0.161480
# 28 vertices

vt 0.755950 0.044960
vt 0.764490 0.014700
vt 0.773030 0.044960
vt 0.755950 0.044960
vt 0.764490 0.014700
vt 0.781580 0.014700
vt 0.773030 0.044960
vt 0.764490 0.014700
vt 0.781580 0.014700
vt 0.790120 0.044960
vt 0.773030 0.044960
vt 0.781580 0.014700
vt 0.790120 0.044960
vt 0.781580 0.075210
vt 0.773030 0.044960
vt 0.790120 0.044960
vt 0.781580 0.075210
vt 0.764490 0.075210
vt 0.773030 0.044960
vt 0.781580 0.075210
vt 0.764490 0.075210
vt 0.755950 0.044960
vt 0.773030 0.044960
vt 0.764490 0.075210
vt 0.764490 0.014700
vt 0.755950 0.044960
vt 0.773030 0.044960
vt 0.764490 0.014700
vt 0.781580 0.014700
vt 0.764490 0.014700
vt 0.773030 0.044960
vt 0.781580 0.014700
vt 0.790120 0.044960
vt 0.781580 0.014700
vt 0.773030 0.044960
vt 0.790120 0.044960
vt 0.781580 0.075210
vt 0.790120 0.044960
vt 0.773030 0.044960
vt 0.781580 0.075210
vt 0.764490 0.075210
vt 0.781580 0.075210
vt 0.773030 0.044960
vt 0.764490 0.075210
vt 0.755950 0.044960
vt 0.764490 0.075210
vt 0.773030 0.044960
vt 0.755950 0.044960
vt 0.782680 0.091810
vt 0.761770 0.091810
vt 0.761770 0.111000
vt 0.782680 0.091810
vt 0.782680 0.111000
vt 0.782680 0.091810
vt 0.761770 0.111000
vt 0.782680 0.111000
vt 0.761770 0.091810
vt 0.782680 0.091810
vt 0.782680 0.111000
vt 0.761770 0.091810
vt 0.761770 0.111000
vt 0.761770 0.091810
vt 0.782680 0.111000
vt 0.761770 0.111000
vt 0.782680 0.091810
vt 0.761770 0.091810
vt 0.761770 0.111000
vt 0.782680 0.091810
vt 0.782680 0.111000
vt 0.782680 0.091810
vt 0.761770 0.111000
vt 0.782680 0.111000
vt 0.761770 0.091810
vt 0.782680 0.091810
vt 0.782680 0.111000
vt 0.761770 0.091810
vt 0.761770 0.111000
vt 0.761770 0.091810
vt 0.782680 0.111000
vt 0.761770 0.111000
vt 0.782680 0.091810
vt 0.761770 0.091810
vt 0.761770 0.111000
vt 0.782680 0.091810
vt 0.782680 0.111000
vt 0.782680 0.091810
vt 0.761770 0.111000
vt 0.782680 0.111000
vt 0.761770 0.091810
vt 0.782680 0.091810
vt 0.782680 0.111000
vt 0.761770 0.091810
vt 0.761770 0.111000
vt 0.761770 0.091810
vt 0.782680 0.111000
vt 0.761770 0.111000
vt 0.763830 0.142590
vt 0.773830 0.142590
vt 0.773830 0.177090
vt 0.763830 0.142590
vt 0.763830 0.177090
vt 0.763830 0.142590
vt 0.773830 0.177090
vt 0.763830 0.177090
vt 0.773830 0.142590
vt 0.781270 0.142590
vt 0.781270 0.177090
vt 0.773830 0.142590
vt 0.773830 0.177090
vt 0.773830 0.142590
vt 0.781270 0.177090
vt 0.773830 0.177090
vt 0.773830 0.142590
vt 0.763830 0.142590
vt 0.763830 0.177090
vt 0.773830 0.142590
vt 0.773830 0.177090
vt 0.773830 0.142590
vt 0.763830 0.177090
vt 0.773830 0.177090
vt 0.781270 0.142590
vt 0.773830 0.142590
vt 0.773830 0.177090
vt 0.781270 0.142590
vt 0.781270 0.177090
vt 0.781270 0.142590
vt 0.773830 0.177090
vt 0.781270 0.177090
vt 0.773830 0.193160
vt 0.773830 0.177090
vt 0.781270 0.177090
vt 0.773830 0.193160
vt 0.781270 0.193160
vt 0.773830 0.193160
vt 0.781270 0.177090
vt 0.781270 0.193160
vt 0.781270 0.125320
vt 0.781270 0.142590
vt 0.773830 0.142590
vt 0.781270 0.125320
vt 0.773830 0.125320
vt 0.781270 0.125320
vt 0.773830 0.142590
vt 0.773830 0.125320
vt 0.749950 0.013760
vt 0.742550 0.013760
vt 0.742550 0.179020
vt 0.749950 0.013760
vt 0.749950 0.179020
vt 0.749950 0.013760
vt 0.742550 0.179020
vt 0.749950 0.179020
vt 0.742550 0.013760
vt 0.749950 0.013760
vt 0.749950 0.179020
vt 0.742550 0.013760
vt 0.742550 0.179020
vt 0.742550 0.013760
vt 0.749950 0.179020
vt 0.742550 0.179020
vt 0.749950 0.013760
vt 0.742550 0.013760
vt 0.742550 0.179020
vt 0.749950 0.013760
vt 0.749950 0.179020
vt 0.749950 0.013760
vt 0.742550 0.179020
vt 0.749950 0.179020
# 168 texture vertices

vn -1.000000 0.000000 -0.000000
vn -1.000000 0.000000 -0.000000
vn -1.000000 0.000000 0.000000
vn -1.000000 0.000000 -0.000000
vn -1.000000 0.000000 -0.000000
vn -1.000000 -0.000000 0.000000
vn -1.000000 0.000000 0.000000
vn -1.000000 0.000000 -0.000000
vn -1.000000 -0.000000 0.000000
vn -1.000000 0.000000 0.000000
vn -1.000000 0.000000 0.000000
vn -1.000000 -0.000000 0.000000
vn -1.000000 0.000000 0.000000
vn -1.000000 0.000000 0.000000
vn -1.000000 0.000000 0.000000
vn -1.000000 0.000000 0.000000
vn -1.000000 0.000000 0.000000
vn -1.000000 0.000000 0.000000
vn -1.000000 0.000000 0.000000
vn -1.000000 0.000000 0.000000
vn -1.000000 0.000000 0.000000
vn -1.000000 0.000000 -0.000000
vn -1.000000 0.000000 0.000000
vn -1.000000 0.000000 0.000000
vn 1.000000 0.000000 0.000000
vn 1.000000 0.000000 0.000000
vn 1.000000 0.000000 0.000000
vn 1.000000 0.000000 0.000000
vn 1.000000 0.000000 -0.000000
vn 1.000000 0.000000 0.000000
vn 1.000000 0.000000 0.000000
vn 1.000000 0.000000 -0.000000
vn 1.000000 0.000000 -0.000000
vn 1.000000 0.000000 -0.000000
vn 1.000000 0.000000 0.000000
vn 1.000000 0.000000 -0.000000
vn 1.000000 -0.000000 0.000000
vn 1.000000 0.000000 -0.000000
vn 1.000000 0.000000 0.000000
vn 1.000000 -0.000000 0.000000
vn 1.000000 0.000000 0.000000
vn 1.000000 -0.000000 0.000000
vn 1.000000 0.000000 0.000000
vn 1.000000 0.000000 0.000000
vn 1.000000 0.000000 0.000000
vn 1.000000 0.000000 0.000000
vn 1.000000 0.000000 0.000000
vn 1.000000 0.000000 0.000000
vn 0.000000 -0.500012 -0.866019
vn 0.000000 -0.500012 -0.866019
vn 0.000000 -0.500012 -0.866019
vn 0.000000 -0.500012 -0.866019
vn -0.000000 -0.500012 -0.866019
vn 0.000000 -0.500012 -0.866019
vn 0.000000 -0.500012 -0.866019
vn -0.000000 -0.500012 -0.866019
vn 0.000000 -1.000000 0.000000
vn 0.000000 -1.000000 0.000000
vn 0.000000 -1.000000 0.000000
vn 0.000000 -1.000000 0.000000
vn -0.000000 -1.000000 -0.000000
vn 0.000000 -1.000000 0.000000
vn 0.000000 -1.000000 0.000000
vn -0.000000 -1.000000 -0.000000
vn 0.000000 -0.499997 0.866027
vn 0.000000 -0.499997 0.866027
vn 0.000000 -0.499997 0.866027
vn 0.000000 -0.499997 0.866027
vn 0.000000 -0.499997 0.866027
vn 0.000000 -0.499997 0.866027
vn 0.000000 -0.499997 0.866027
vn 0.000000 -0.499997 0.866027
vn 0.000000 0.499998 0.866027
vn -0.000000 0.499998 0.866027
vn 0.000000 0.499998 0.866027
vn 0.000000 0.499998 0.866027
vn 0.000000 0.499998 0.866027
vn 0.000000 0.499998 0.866027
vn 0.000000 0.499998 0.866027
vn 0.000000 0.499998 0.866027
vn 0.000000 1.000000 0.000000
vn 0.000000 1.000000 0.000000
vn 0.000000 1.000000 0.000000
vn 0.000000 1.000000 0.000000
vn 0.000000 1.000000 -0.000000
vn 0.000000 1.000000 0.000000
vn 0.000000 1.000000 0.000000
vn 0.000000 1.000000 -0.000000
vn 0.000000 0.500013 -0.866018
vn 0.000000 0.500013 -0.866018
vn 0.000000 0.500013 -0.866018
vn 0.000000 0.500013 -0.866018
vn 0.000000 0.500013 -0.866018
vn 0.000000 0.500013 -0.866018
vn 0.000000 0.500013 -0.866018
vn 0.000000 0.500013 -0.866018
vn 0.000000 0.000000 -1.000000
vn 0.000000 0.000000 -1.000000
vn 0.000000 0.000000 -1.000000
vn 0.000000 0.000000 -1.000000
vn 0.000000 0.000000 -1.000000
vn 0.000000 0.000000 -1.000000
vn 0.000000 0.000000 -1.000000
vn 0.000000 0.000000 -1.000000
vn -1.000000 0.000000 -0.000000
vn -1.000000 -0.000000 -0.000000
vn -1.000000 0.000000 -0.000000
vn -1.000000 0.000000 -0.000000
vn -1.000000 0.000000 -0.000000
vn -1.000000 0.000000 -0.000000
vn -1.000000 0.000000 -0.000000
vn -1.000000 0.000000 -0.000000
vn 0.000000 0.000000 1.000000
vn 0.000000 0.000000 1.000000
vn 0.000000 0.000000 1.000000
vn 0.000000 0.000000 1.000000
vn 0.000000 -0.000000 1.000000
vn 0.000000 0.000000 1.000000
vn 0.000000 0.000000 1.000000
vn 0.000000 -0.000000 1.000000
vn 1.000000 0.000000 -0.000000
vn 1.000000 0.000000 -0.000000
vn 1.000000 0.000000 -0.000000
vn 1.000000 0.000000 -0.000000
vn 1.000000 0.000000 -0.000000
vn 1.000000 0.000000 -0.000000
vn 1.000000 0.000000 -0.000000
vn 1.000000 0.000000 -0.000000
vn -0.000000 1.000000 0.000000
vn -0.000000 1.000000 0.000000
vn -0.000000 1.000000 0.000000
vn -0.000000 1.000000 0.000000
vn -0.000000 1.000000 0.000000
vn -0.000000 1.000000 0.000000
vn -0.000000 1.000000 0.000000
vn -0.000000 1.000000 0.000000
vn 0.000000 -1.000000 0.000000
vn 0.000000 -1.000000 0.000000
vn 0.000000 -1.000000 0.000000
vn 0.000000 -1.000000 0.000000
vn 0.000000 -1.000000 0.000000
vn 0.000000 -1.000000 0.000000
vn 0.000000 -1.000000 0.000000
vn 0.000000 -1.000000 0.000000
vn -0.866019 0.000000 -0.500010
vn -0.866018 0.000001 -0.500013
vn -0.866019 0.000000 -0.500010
vn -0.866019 0.000000 -0.500010
vn -0.866021 0.000000 -0.500008
vn -0.866019 0.000000 -0.500010
vn -0.866019 0.000000 -0.500010
vn -0.866021 0.000000 -0.500008
vn 0.000000 -0.000001 1.000000
vn 0.000000 -0.000001 1.000000
vn 0.000000 -0.000001 1.000000
vn 0.000000 -0.000001 1.000000
vn 0.000000 -0.000001 1.000000
vn 0.000000 -0.000001 1.000000
vn 0.000000 -0.000001 1.000000
vn 0.000000 -0.000001 1.000000
vn 0.866047 0.000000 -0.499963
vn 0.866046 0.000000 -0.499965
vn 0.866047 0.000000 -0.499963
vn 0.866047 0.000000 -0.499963
vn 0.866048 0.000001 -0.499961
vn 0.866047 0.000000 -0.499963
vn 0.866047 0.000000 -0.499963
vn 0.866048 0.000001 -0.499961
# 168 vertex normals

g mat1
f 2/1/1 3/2/2 1/3/3
f 3/5/5 4/6/6 1/7/7
f 4/9/9 5/10/10 1/11/11
f 5/13/13 6/14/14 1/15/15
f 6/17/17 7/18/18 1/19/19
f 7/21/21 2/22/22 1/23/23
f 9/25/25 8/26/26 14/27/27
f 10/29/29 9/30/30 14/31/31
f 11/33/33 10/34/34 14/35/35
f 12/37/37 11/38/38 14/39/39
f 13/41/41 12/42/42 14/43/43
f 8/45/45 13/46/46 14/47/47
f 8/49/49 9/50/50 3/51/51
f 2/53/53 8/54/54 3/55/55
f 9/57/57 10/58/58 4/59/59
f 3/61/61 9/62/62 4/63/63
f 10/65/65 11/66/66 5/67/67
f 4/69/69 10/70/70 5/71/71
f 11/73/73 12/74/74 6/75/75
f 5/77/77 11/78/78 6/79/79
f 12/81/81 13/82/82 7/83/83
f 6/85/85 12/86/86 7/87/87
f 13/89/89 8/90/90 2/91/91
f 7/93/93 13/94/94 2/95/95
f 16/97/97 18/98/98 17/99/99
f 15/101/101 16/102/102 17/103/103
f 18/105/105 20/106/106 19/107/107
f 17/109/109 18/110/110 19/111/111
f 20/113/113 22/114/114 21/115/115
f 19/117/117 20/118/118 21/119/119
f 22/121/121 16/122/122 15/123/123
f 21/125/125 22/126/126 15/127/127
f 15/129/129 17/130/130 19/131/131
f 21/133/133 15/134/134 19/135/135
f 22/137/137 20/138/138 18/139/139
f 16/141/141 22/142/142 18/143/143
f 26/145/145 27/146/146 24/147/147
f 23/149/149 26/150/150 24/151/151
f 27/153/153 28/154/154 25/155/155
f 24/157/157 27/158/158 25/159/159
f 28/161/161 26/162/162 23/163/163
f 25/165/165 28/166/166 23/167/167
# 42 elements

