# Created by 3DAce v2.72


g
v 0.044947 1.261675 -5.386230
v 0.044947 1.157298 -5.446486
v 0.044947 1.157298 -5.567007
v 0.044947 1.261675 -5.627272
v 0.044947 1.366053 -5.567009
v 0.044947 1.366053 -5.446486
v -0.044947 1.261675 -5.386230
v -0.044947 1.157298 -5.446486
v -0.044947 1.157298 -5.567007
v -0.044947 1.261675 -5.627272
v -0.044947 1.366053 -5.567009
v -0.044947 1.366053 -5.446486
v -0.017924 1.513154 -4.714503
v 0.017924 1.513154 -4.714503
v 0.017924 1.474144 -5.276043
v 0.017924 1.228509 -5.384553
v -0.017924 1.474144 -5.276043
v -0.017924 1.228509 -5.384553
v -0.056727 1.310580 -5.346476
v -0.056727 1.294171 -5.299722
v 0.056727 1.310580 -5.346476
v 0.056727 1.294171 -5.299722
v 0.056727 1.258412 -5.548045
v 0.056727 1.242003 -5.501286
v -0.056727 1.258412 -5.548045
v -0.056727 1.242003 -5.501286
# 26 vertices

vt 0.147900 0.912560
vt 0.147900 0.883460
vt 0.164200 0.883460
vt 0.147900 0.912560
vt 0.164200 0.912560
vt 0.147900 0.912560
vt 0.164200 0.883460
vt 0.164200 0.912560
vt 0.165940 0.941670
vt 0.165940 0.908060
vt 0.182240 0.908060
vt 0.165940 0.941670
vt 0.182240 0.941670
vt 0.165940 0.941670
vt 0.182240 0.908060
vt 0.182240 0.941670
vt 0.164200 0.822560
vt 0.164200 0.851660
vt 0.147900 0.851660
vt 0.164200 0.822560
vt 0.147900 0.822560
vt 0.164200 0.822560
vt 0.147900 0.851660
vt 0.147900 0.822560
vt 0.164200 0.851660
vt 0.164200 0.880770
vt 0.147900 0.880770
vt 0.164200 0.851660
vt 0.147900 0.851660
vt 0.164200 0.851660
vt 0.147900 0.880770
vt 0.147900 0.851660
vt 0.165940 0.880770
vt 0.165940 0.847160
vt 0.182240 0.847160
vt 0.165940 0.880770
vt 0.182240 0.880770
vt 0.165940 0.880770
vt 0.182240 0.847160
vt 0.182240 0.880770
vt 0.147900 0.941670
vt 0.147900 0.912560
vt 0.164200 0.912560
vt 0.147900 0.941670
vt 0.164200 0.941670
vt 0.147900 0.941670
vt 0.164200 0.912560
vt 0.164200 0.941670
vt 0.089970 0.880280
vt 0.140660 0.909390
vt 0.089970 0.938490
vt 0.089970 0.880280
vt 0.089970 0.880280
vt 0.089970 0.938490
vt 0.073070 0.909390
vt 0.089970 0.880280
vt 0.140660 0.909390
vt 0.123760 0.938490
vt 0.089970 0.938490
vt 0.140660 0.909390
vt 0.089970 0.880280
vt 0.123760 0.880280
vt 0.140660 0.909390
vt 0.089970 0.880280
vt 0.089060 0.813040
vt 0.122860 0.813040
vt 0.122860 0.871250
vt 0.089060 0.813040
vt 0.072160 0.842140
vt 0.089060 0.813040
vt 0.122860 0.871250
vt 0.072160 0.842140
vt 0.122860 0.871250
vt 0.089060 0.871250
vt 0.072160 0.842140
vt 0.122860 0.871250
vt 0.122860 0.813040
vt 0.139760 0.842140
vt 0.122860 0.871250
vt 0.122860 0.813040
vt 0.402590 0.560720
vt 0.465730 0.537880
vt 0.455510 0.557590
vt 0.402590 0.560720
vt 0.442970 0.489990
vt 0.446340 0.489990
vt 0.446340 0.509700
vt 0.442970 0.489990
vt 0.442970 0.509700
vt 0.442970 0.489990
vt 0.446340 0.509700
vt 0.442970 0.509700
vt 0.468870 0.506960
vt 0.472250 0.506960
vt 0.472250 0.560720
vt 0.468870 0.506960
vt 0.468870 0.560720
vt 0.468870 0.506960
vt 0.472250 0.560720
vt 0.468870 0.560720
vt 0.402590 0.508380
vt 0.421590 0.504190
vt 0.425990 0.505510
vt 0.402590 0.508380
vt 0.407000 0.509700
vt 0.402590 0.508380
vt 0.425990 0.505510
vt 0.407000 0.509700
vt 0.439820 0.493520
vt 0.429130 0.493520
vt 0.429130 0.489770
vt 0.439820 0.493520
vt 0.439820 0.489770
vt 0.439820 0.493520
vt 0.429130 0.489770
vt 0.439820 0.489770
vt 0.407000 0.496020
vt 0.425990 0.500200
vt 0.421590 0.501520
vt 0.407000 0.496020
vt 0.402590 0.497330
vt 0.407000 0.496020
vt 0.421590 0.501520
vt 0.402590 0.497330
vt 0.449490 0.493520
vt 0.460180 0.493520
vt 0.460180 0.509700
vt 0.449490 0.493520
vt 0.449490 0.509700
vt 0.449490 0.493520
vt 0.460180 0.509700
vt 0.449490 0.509700
vt 0.429130 0.493520
vt 0.439820 0.493520
vt 0.439820 0.509700
vt 0.429130 0.493520
vt 0.429130 0.509700
vt 0.429130 0.493520
vt 0.439820 0.509700
vt 0.429130 0.509700
vt 0.465730 0.535210
vt 0.412820 0.532080
vt 0.402590 0.512370
vt 0.465730 0.535210
# 144 texture vertices

vn 0.000000 -0.499965 0.866046
vn 0.000000 -0.499965 0.866046
vn 0.000000 -0.499965 0.866046
vn 0.000000 -0.499965 0.866046
vn 0.000000 -0.499965 0.866046
vn 0.000000 -0.499965 0.866046
vn 0.000000 -0.499965 0.866046
vn 0.000000 -0.499965 0.866046
vn 0.000000 -1.000000 0.000000
vn 0.000000 -1.000000 0.000000
vn 0.000000 -1.000000 0.000000
vn 0.000000 -1.000000 0.000000
vn 0.000000 -1.000000 0.000000
vn 0.000000 -1.000000 0.000000
vn 0.000000 -1.000000 0.000000
vn 0.000000 -1.000000 0.000000
vn 0.000000 -0.500018 -0.866015
vn -0.000000 -0.500018 -0.866015
vn 0.000000 -0.500018 -0.866015
vn 0.000000 -0.500018 -0.866015
vn 0.000000 -0.500018 -0.866015
vn 0.000000 -0.500018 -0.866015
vn 0.000000 -0.500018 -0.866015
vn 0.000000 -0.500018 -0.866015
vn 0.000000 0.500000 -0.866025
vn 0.000000 0.500000 -0.866025
vn 0.000000 0.500000 -0.866025
vn 0.000000 0.500000 -0.866025
vn 0.000000 0.500000 -0.866025
vn 0.000000 0.500000 -0.866025
vn 0.000000 0.500000 -0.866025
vn 0.000000 0.500000 -0.866025
vn 0.000000 1.000000 0.000000
vn 0.000000 1.000000 0.000000
vn 0.000000 1.000000 0.000000
vn 0.000000 1.000000 0.000000
vn -0.000000 1.000000 0.000000
vn 0.000000 1.000000 0.000000
vn 0.000000 1.000000 0.000000
vn -0.000000 1.000000 0.000000
vn 0.000000 0.499962 0.866048
vn 0.000000 0.499962 0.866048
vn 0.000000 0.499962 0.866048
vn 0.000000 0.499962 0.866048
vn -0.000000 0.499962 0.866048
vn 0.000000 0.499962 0.866048
vn 0.000000 0.499962 0.866048
vn -0.000000 0.499962 0.866048
vn 1.000000 0.000000 0.000000
vn 1.000000 0.000000 0.000000
vn 1.000000 0.000000 0.000000
vn 1.000000 0.000000 0.000000
vn 1.000000 0.000000 0.000000
vn 1.000000 0.000000 0.000000
vn 1.000000 0.000000 0.000000
vn 1.000000 0.000000 0.000000
vn 1.000000 0.000000 0.000000
vn 1.000000 0.000000 0.000000
vn 1.000000 0.000000 0.000000
vn 1.000000 0.000000 0.000000
vn 1.000000 0.000000 0.000000
vn 1.000000 0.000000 -0.000000
vn 1.000000 0.000000 0.000000
vn 1.000000 0.000000 0.000000
vn -1.000000 0.000000 -0.000000
vn -1.000000 -0.000000 0.000000
vn -1.000000 0.000000 0.000000
vn -1.000000 0.000000 -0.000000
vn -1.000000 0.000000 0.000000
vn -1.000000 0.000000 -0.000000
vn -1.000000 0.000000 0.000000
vn -1.000000 0.000000 0.000000
vn -1.000000 0.000000 0.000000
vn -1.000000 0.000000 0.000000
vn -1.000000 0.000000 0.000000
vn -1.000000 0.000000 0.000000
vn -1.000000 -0.000000 0.000000
vn -1.000000 -0.000000 0.000000
vn -1.000000 0.000000 0.000000
vn -1.000000 -0.000000 0.000000
vn 1.000000 0.000000 -0.000000
vn 1.000000 0.000000 -0.000000
vn 1.000000 0.000000 -0.000000
vn 1.000000 0.000000 -0.000000
vn 0.000000 0.404082 -0.914723
vn 0.000000 0.404082 -0.914723
vn 0.000000 0.404082 -0.914723
vn 0.000000 0.404082 -0.914723
vn 0.000000 0.404082 -0.914723
vn 0.000000 0.404082 -0.914723
vn 0.000000 0.404082 -0.914723
vn 0.000000 0.404082 -0.914723
vn 0.000000 -0.920393 0.390994
vn 0.000000 -0.920393 0.390994
vn 0.000000 -0.920393 0.390994
vn 0.000000 -0.920393 0.390994
vn 0.000000 -0.920393 0.390994
vn 0.000000 -0.920393 0.390994
vn 0.000000 -0.920393 0.390994
vn 0.000000 -0.920393 0.390994
vn 1.000000 0.000000 0.000000
vn 1.000000 0.000000 -0.000000
vn 1.000000 0.000000 0.000000
vn 1.000000 0.000000 0.000000
vn 1.000000 -0.000000 0.000000
vn 1.000000 0.000000 0.000000
vn 1.000000 0.000000 0.000000
vn 1.000000 -0.000000 0.000000
vn 0.000000 -0.989764 -0.142715
vn 0.000000 -0.998262 0.058925
vn 0.000000 -0.943584 -0.331133
vn 0.000000 -0.989764 -0.142715
vn 0.000000 -0.943584 -0.331133
vn 0.000000 -0.989764 -0.142715
vn 0.000000 -0.943584 -0.331133
vn 0.000000 -0.943584 -0.331133
vn -1.000000 0.000000 0.000000
vn -1.000000 -0.000000 0.000000
vn -1.000000 0.000000 0.000000
vn -1.000000 0.000000 0.000000
vn -1.000000 0.000000 -0.000000
vn -1.000000 0.000000 0.000000
vn -1.000000 0.000000 0.000000
vn -1.000000 0.000000 -0.000000
vn 0.000000 0.968103 -0.250554
vn 0.000000 0.968103 -0.250554
vn 0.000000 0.968103 -0.250554
vn 0.000000 0.968103 -0.250554
vn 0.000000 0.968103 -0.250554
vn 0.000000 0.968103 -0.250554
vn 0.000000 0.968103 -0.250554
vn 0.000000 0.968103 -0.250554
vn 0.000000 -0.998262 0.058925
vn 0.000000 -0.989764 -0.142715
vn 0.000000 -0.968101 0.250560
vn 0.000000 -0.998262 0.058925
vn 0.000000 -0.968101 0.250560
vn 0.000000 -0.998262 0.058925
vn 0.000000 -0.968101 0.250560
vn 0.000000 -0.968101 0.250560
vn -1.000000 0.000000 0.000000
vn -1.000000 0.000000 0.000000
vn -1.000000 0.000000 0.000000
vn -1.000000 0.000000 0.000000
# 144 vertex normals

g mat1
f 7/1/1 8/2/2 2/3/3
f 1/5/5 7/6/6 2/7/7
f 8/9/9 9/10/10 3/11/11
f 2/13/13 8/14/14 3/15/15
f 9/17/17 10/18/18 4/19/19
f 3/21/21 9/22/22 4/23/23
f 10/25/25 11/26/26 5/27/27
f 4/29/29 10/30/30 5/31/31
f 11/33/33 12/34/34 6/35/35
f 5/37/37 11/38/38 6/39/39
f 12/41/41 7/42/42 1/43/43
f 6/45/45 12/46/46 1/47/47
f 2/49/49 4/50/50 6/51/51
f 2/53/53 6/54/54 1/55/55
f 4/57/57 5/58/58 6/59/59
f 2/61/61 3/62/62 4/63/63
f 9/65/65 8/66/66 12/67/67
f 10/69/69 9/70/70 12/71/71
f 12/73/73 11/74/74 10/75/75
f 8/77/77 7/78/78 12/79/79
f 14/81/81 16/82/82 15/83/83
f 16/85/85 18/86/86 17/87/87
f 15/89/89 16/90/90 17/91/91
f 18/93/93 16/94/94 14/95/95
f 13/97/97 18/98/98 14/99/99
f 22/101/101 24/102/102 23/103/103
f 21/105/105 22/106/106 23/107/107
f 24/109/109 26/110/110 25/111/111
f 23/113/113 24/114/114 25/115/115
f 26/117/117 20/118/118 19/119/119
f 25/121/121 26/122/122 19/123/123
f 19/125/125 21/126/126 23/127/127
f 25/129/129 19/130/130 23/131/131
f 26/133/133 24/134/134 22/135/135
f 20/137/137 26/138/138 22/139/139
f 13/141/141 17/142/142 18/143/143
# 36 elements

