# Created by 3DAce v2.72


g
v 5.499550 1.626301 1.222591
v 5.504772 1.600404 0.362733
v 5.507036 1.578713 0.749947
v 5.505602 1.584877 1.147513
v 5.404874 1.647946 -0.225667
v 5.488463 1.714109 0.370753
v 5.484219 1.737763 0.761160
v 5.488342 1.706342 1.051156
v 6.256293 1.742379 0.381533
v 6.227050 1.736614 0.738017
v 6.246530 1.741483 0.606487
v 5.784011 1.689267 -0.105972
v 6.121660 1.720236 0.149753
v 6.116475 1.771214 0.516021
v 6.114551 1.783459 0.825550
v 6.123436 1.713571 0.982438
v 5.883157 1.608374 0.822075
v 6.124681 1.683411 0.511992
v 4.406838 1.544989 1.310843
v 4.411791 1.483304 0.236685
v 4.412875 1.469843 0.856543
v 4.408976 1.518385 1.263790
v 4.408076 1.529581 -0.218426
v 4.403132 1.591121 -0.068070
v 4.398153 1.653161 0.546882
v 4.399603 1.635120 1.098999
v 4.406902 1.544185 -0.358830
v 4.411267 1.489858 1.223071
v 4.412518 1.474256 1.129014
v 4.413201 1.465703 0.535767
v 4.399706 1.633872 0.244886
v 4.396961 1.668023 0.767041
v 4.397542 1.660799 0.873701
v 4.404851 1.569758 1.232148
v 4.407151 1.541114 1.303291
v 4.513564 1.554595 1.926953
v 4.513564 1.535272 1.926953
v 4.540473 1.554595 1.926953
v 4.540473 1.535272 1.926953
v 4.540473 1.554595 1.220773
v 4.540473 1.535272 1.220773
v 4.513564 1.554595 1.220773
v 4.513564 1.535272 1.220773
v 4.406902 1.544185 -0.358830
v 4.403132 1.591121 0.089330
v 4.411791 1.483304 0.236685
v 4.411791 1.483304 0.236685
v 4.403132 1.591121 0.089330
v 4.398153 1.653161 0.546882
v 4.398153 1.653161 0.546882
v 4.413201 1.465703 0.535767
v 4.411791 1.483304 0.236685
v 4.413201 1.465703 0.535767
v 4.398153 1.653161 0.546882
v 4.397542 1.660799 0.873701
v 4.397542 1.660799 0.873701
v 4.412875 1.469843 0.856543
v 4.413201 1.465703 0.535767
v 4.412875 1.469843 0.856543
v 4.397542 1.660799 0.873701
v 4.399603 1.635120 1.098999
v 4.399603 1.635120 1.098999
v 4.412518 1.474256 1.129014
v 4.412875 1.469843 0.856543
v 4.412518 1.474256 1.129014
v 4.411267 1.489858 1.223071
v 4.399603 1.635120 1.098999
v 4.399603 1.635120 1.098999
v 4.404851 1.569758 1.232148
v 4.411267 1.489858 1.223071
v 4.411267 1.489858 1.223071
v 4.408976 1.518385 1.263790
v 4.404851 1.569758 1.232148
# 73 vertices

vt 0.868130 0.826120
vt 0.863870 0.833850
vt 0.861260 0.820080
vt 0.868130 0.826120
vt 0.857280 0.802870
vt 0.866330 0.804380
vt 0.861260 0.820080
vt 0.857280 0.802870
vt 0.861260 0.820080
vt 0.866330 0.804380
vt 0.867240 0.813880
vt 0.861260 0.820080
vt 0.863870 0.833850
vt 0.851220 0.845340
vt 0.861260 0.820080
vt 0.863870 0.833850
vt 0.851220 0.845340
vt 0.828600 0.832430
vt 0.861260 0.820080
vt 0.851220 0.845340
vt 0.851220 0.845340
vt 0.833730 0.860990
vt 0.828600 0.832430
vt 0.851220 0.845340
vt 0.824100 0.806020
vt 0.861260 0.820080
vt 0.828600 0.832430
vt 0.824100 0.806020
vt 0.857280 0.802870
vt 0.861260 0.820080
vt 0.824100 0.806020
vt 0.857280 0.802870
vt 0.868130 0.826120
vt 0.861260 0.820080
vt 0.867240 0.813880
vt 0.868130 0.826120
vt 0.822070 0.790360
vt 0.819020 0.781300
vt 0.856540 0.794480
vt 0.822070 0.790360
vt 0.822070 0.790360
vt 0.856540 0.794480
vt 0.857280 0.802870
vt 0.822070 0.790360
vt 0.824100 0.806020
vt 0.822070 0.790360
vt 0.857280 0.802870
vt 0.824100 0.806020
vt 0.866330 0.804380
vt 0.857280 0.802870
vt 0.856540 0.794480
vt 0.866330 0.804380
vt 0.851080 0.720300
vt 0.855430 0.728530
vt 0.851370 0.735080
vt 0.851080 0.720300
vt 0.818220 0.698510
vt 0.838170 0.709620
vt 0.818840 0.727900
vt 0.818220 0.698510
vt 0.818840 0.727900
vt 0.838170 0.709620
vt 0.851370 0.735080
vt 0.818840 0.727900
vt 0.838880 0.752670
vt 0.818840 0.727900
vt 0.851370 0.735080
vt 0.838880 0.752670
vt 0.838880 0.752670
vt 0.819200 0.755200
vt 0.818840 0.727900
vt 0.838880 0.752670
vt 0.819300 0.775070
vt 0.838880 0.752670
vt 0.851530 0.760570
vt 0.819300 0.775070
vt 0.838880 0.752670
vt 0.819300 0.775070
vt 0.819200 0.755200
vt 0.838880 0.752670
vt 0.838170 0.709620
vt 0.851080 0.720300
vt 0.851370 0.735080
vt 0.838170 0.709620
vt 0.857810 0.741740
vt 0.851370 0.735080
vt 0.855430 0.728530
vt 0.857810 0.741740
vt 0.856850 0.748320
vt 0.851370 0.735080
vt 0.857810 0.741740
vt 0.856850 0.748320
vt 0.851530 0.760570
vt 0.838880 0.752670
vt 0.851370 0.735080
vt 0.851530 0.760570
vt 0.856850 0.748320
vt 0.851530 0.760570
vt 0.851370 0.735080
vt 0.856850 0.748320
vt 0.819020 0.778820
vt 0.819300 0.775070
vt 0.851530 0.760570
vt 0.819020 0.778820
vt 0.759000 0.688040
vt 0.818220 0.698510
vt 0.760650 0.700140
vt 0.759000 0.688040
vt 0.751310 0.777840
vt 0.819300 0.775070
vt 0.751310 0.780420
vt 0.751310 0.777840
vt 0.755420 0.772950
vt 0.819300 0.775070
vt 0.751310 0.777840
vt 0.755420 0.772950
vt 0.757140 0.744050
vt 0.819200 0.755200
vt 0.755310 0.759330
vt 0.757140 0.744050
vt 0.767630 0.846840
vt 0.828530 0.832560
vt 0.767490 0.859040
vt 0.767630 0.846840
vt 0.762190 0.815350
vt 0.824030 0.806150
vt 0.764250 0.826400
vt 0.762190 0.815350
vt 0.761260 0.808680
vt 0.824030 0.806150
vt 0.762190 0.815350
vt 0.761260 0.808680
vt 0.756080 0.786150
vt 0.818950 0.781440
vt 0.757060 0.789520
vt 0.756080 0.786150
vt 0.751120 0.786130
vt 0.818350 0.781220
vt 0.755440 0.786320
vt 0.751120 0.786130
vt 0.818220 0.698510
vt 0.818840 0.727900
vt 0.756880 0.722970
vt 0.818220 0.698510
vt 0.760650 0.700140
vt 0.818220 0.698510
vt 0.756880 0.722970
vt 0.760650 0.700140
vt 0.751310 0.780420
vt 0.819300 0.775070
vt 0.819020 0.778820
vt 0.751310 0.780420
vt 0.751230 0.782770
vt 0.751310 0.780420
vt 0.819020 0.778820
vt 0.751230 0.782770
vt 0.755310 0.759330
vt 0.819200 0.755200
vt 0.819300 0.775070
vt 0.755310 0.759330
vt 0.755420 0.772950
vt 0.755310 0.759330
vt 0.819300 0.775070
vt 0.755420 0.772950
vt 0.818840 0.727900
vt 0.819200 0.755200
vt 0.757140 0.744050
vt 0.818840 0.727900
vt 0.756880 0.722970
vt 0.818840 0.727900
vt 0.757140 0.744050
vt 0.756880 0.722970
vt 0.767490 0.859040
vt 0.828530 0.832560
vt 0.833660 0.861120
vt 0.767490 0.859040
vt 0.775390 0.879670
vt 0.767490 0.859040
vt 0.833660 0.861120
vt 0.775390 0.879670
vt 0.764250 0.826400
vt 0.824030 0.806150
vt 0.828530 0.832560
vt 0.764250 0.826400
vt 0.767630 0.846840
vt 0.764250 0.826400
vt 0.828530 0.832560
vt 0.767630 0.846840
vt 0.822000 0.790490
vt 0.824030 0.806150
vt 0.761260 0.808680
vt 0.822000 0.790490
vt 0.759620 0.796520
vt 0.822000 0.790490
vt 0.761260 0.808680
vt 0.759620 0.796520
vt 0.818950 0.781440
vt 0.822000 0.790490
vt 0.759620 0.796520
vt 0.818950 0.781440
vt 0.757060 0.789520
vt 0.818950 0.781440
vt 0.759620 0.796520
vt 0.757060 0.789520
vt 0.050860 0.829950
vt 0.054670 0.829940
vt 0.058160 0.829940
vt 0.050860 0.829950
vt 0.061970 0.829950
vt 0.050860 0.829950
vt 0.058160 0.829940
vt 0.061970 0.829950
vt 0.054670 0.829940
vt 0.054650 0.811150
vt 0.058180 0.811150
vt 0.054670 0.829940
vt 0.058160 0.829940
vt 0.054670 0.829940
vt 0.058180 0.811150
vt 0.058160 0.829940
vt 0.069280 0.811150
vt 0.065470 0.811160
vt 0.061990 0.811160
vt 0.069280 0.811150
vt 0.058180 0.811150
vt 0.069280 0.811150
vt 0.061990 0.811160
vt 0.058180 0.811150
vt 0.065470 0.811160
vt 0.065490 0.829950
vt 0.061970 0.829950
vt 0.065470 0.811160
vt 0.061990 0.811160
vt 0.065470 0.811160
vt 0.061970 0.829950
vt 0.061990 0.811160
vt 0.061970 0.829950
vt 0.058160 0.829940
vt 0.058180 0.811150
vt 0.061970 0.829950
vt 0.061990 0.811160
vt 0.061970 0.829950
vt 0.058180 0.811150
vt 0.061990 0.811160
vt 0.050840 0.811160
vt 0.054650 0.811150
vt 0.054670 0.829940
vt 0.050840 0.811160
vt 0.050860 0.829950
vt 0.050840 0.811160
vt 0.054670 0.829940
vt 0.050860 0.829950
vt 0.878230 0.476350
vt 0.888460 0.486130
vt 0.919260 0.481870
vt 0.878230 0.476350
vt 0.857020 0.491760
vt 0.888460 0.486130
vt 0.878230 0.476350
vt 0.857020 0.491760
vt 0.878230 0.476350
vt 0.857630 0.474750
vt 0.857020 0.491760
vt 0.878230 0.476350
vt 0.834530 0.492450
vt 0.857020 0.491760
vt 0.857630 0.474750
vt 0.834530 0.492450
vt 0.857630 0.474750
vt 0.835560 0.475130
vt 0.834530 0.492450
vt 0.857630 0.474750
vt 0.819000 0.490120
vt 0.834530 0.492450
vt 0.835560 0.475130
vt 0.819000 0.490120
vt 0.835560 0.475130
vt 0.816810 0.475530
vt 0.819000 0.490120
vt 0.835560 0.475130
vt 0.816810 0.475530
vt 0.810350 0.476940
vt 0.819000 0.490120
vt 0.816810 0.475530
vt 0.810350 0.476940
vt 0.809790 0.484190
vt 0.819000 0.490120
vt 0.810350 0.476940
vt 0.810350 0.476940
vt 0.807570 0.479530
vt 0.809790 0.484190
vt 0.810350 0.476940
# 292 texture vertices

vn 0.144062 0.987626 -0.061982
vn 0.042964 0.989621 -0.137129
vn 0.079659 0.995347 -0.054207
vn 0.144062 0.987626 -0.061982
vn 0.170054 0.972619 0.158409
vn 0.377773 0.918601 0.116017
vn 0.079659 0.995347 -0.054207
vn 0.170054 0.972619 0.158409
vn 0.079659 0.995347 -0.054207
vn 0.377773 0.918601 0.116017
vn 0.197403 0.979580 0.038144
vn 0.079659 0.995347 -0.054207
vn 0.042964 0.989621 -0.137129
vn -0.044003 0.992901 -0.110506
vn 0.079659 0.995347 -0.054207
vn 0.042964 0.989621 -0.137129
vn -0.044003 0.992901 -0.110506
vn -0.068939 0.993737 -0.087943
vn 0.079659 0.995347 -0.054207
vn -0.044003 0.992901 -0.110506
vn -0.044003 0.992901 -0.110506
vn -0.076619 0.989841 -0.119767
vn -0.068939 0.993737 -0.087943
vn -0.044003 0.992901 -0.110506
vn -0.068745 0.997603 0.007888
vn 0.079659 0.995347 -0.054207
vn -0.068939 0.993737 -0.087943
vn -0.068745 0.997603 0.007888
vn 0.170054 0.972619 0.158409
vn 0.079659 0.995347 -0.054207
vn -0.068745 0.997603 0.007888
vn 0.170054 0.972619 0.158409
vn 0.144062 0.987626 -0.061982
vn 0.079659 0.995347 -0.054207
vn 0.197403 0.979580 0.038144
vn 0.144062 0.987626 -0.061982
vn -0.029352 0.963179 0.267253
vn -0.041670 0.965402 0.257415
vn 0.217449 0.893719 0.392405
vn -0.029352 0.963179 0.267253
vn -0.029352 0.963179 0.267253
vn 0.217449 0.893719 0.392405
vn 0.170054 0.972619 0.158409
vn -0.029352 0.963179 0.267253
vn -0.068745 0.997603 0.007888
vn -0.029352 0.963179 0.267253
vn 0.170054 0.972619 0.158409
vn -0.068745 0.997603 0.007888
vn 0.377773 0.918601 0.116017
vn 0.170054 0.972619 0.158409
vn 0.217449 0.893719 0.392405
vn 0.377773 0.918601 0.116017
vn 0.246118 -0.964061 -0.100058
vn 0.373575 -0.926650 -0.041973
vn 0.297014 -0.954376 -0.030806
vn 0.246118 -0.964061 -0.100058
vn 0.122614 -0.987193 -0.102059
vn 0.153647 -0.983090 -0.099634
vn 0.126670 -0.988443 -0.083278
vn 0.122614 -0.987193 -0.102059
vn 0.126670 -0.988443 -0.083278
vn 0.153647 -0.983090 -0.099634
vn 0.297014 -0.954376 -0.030806
vn 0.126670 -0.988443 -0.083278
vn 0.191925 -0.981018 0.027724
vn 0.126670 -0.988443 -0.083278
vn 0.297014 -0.954376 -0.030806
vn 0.191925 -0.981018 0.027724
vn 0.191925 -0.981018 0.027724
vn 0.095882 -0.995300 -0.013609
vn 0.126670 -0.988443 -0.083278
vn 0.191925 -0.981018 0.027724
vn 0.147549 -0.955435 0.255681
vn 0.191925 -0.981018 0.027724
vn 0.324065 -0.922127 0.211338
vn 0.147549 -0.955435 0.255681
vn 0.191925 -0.981018 0.027724
vn 0.147549 -0.955435 0.255681
vn 0.095882 -0.995300 -0.013609
vn 0.191925 -0.981018 0.027724
vn 0.153647 -0.983090 -0.099634
vn 0.246118 -0.964061 -0.100058
vn 0.297014 -0.954376 -0.030806
vn 0.153647 -0.983090 -0.099634
vn 0.416792 -0.908759 0.021034
vn 0.297014 -0.954376 -0.030806
vn 0.373575 -0.926650 -0.041973
vn 0.416792 -0.908759 0.021034
vn 0.382226 -0.923014 0.044150
vn 0.297014 -0.954376 -0.030806
vn 0.416792 -0.908759 0.021034
vn 0.382226 -0.923014 0.044150
vn 0.324065 -0.922127 0.211338
vn 0.191925 -0.981018 0.027724
vn 0.297014 -0.954376 -0.030806
vn 0.324065 -0.922127 0.211338
vn 0.382226 -0.923014 0.044150
vn 0.324065 -0.922127 0.211338
vn 0.297014 -0.954376 -0.030806
vn 0.382226 -0.923014 0.044150
vn 0.170151 -0.855756 0.488599
vn 0.147549 -0.955435 0.255681
vn 0.324065 -0.922127 0.211338
vn 0.170151 -0.855756 0.488599
vn 0.116538 -0.987756 -0.103716
vn 0.122614 -0.987193 -0.102059
vn 0.116560 -0.987874 -0.102565
vn 0.116538 -0.987756 -0.103716
vn 0.105982 -0.919406 0.378761
vn 0.147549 -0.955435 0.255681
vn 0.106251 -0.848313 0.518725
vn 0.105982 -0.919406 0.378761
vn 0.098759 -0.990993 0.090435
vn 0.147549 -0.955435 0.255681
vn 0.105982 -0.919406 0.378761
vn 0.098759 -0.990993 0.090435
vn 0.108997 -0.993458 -0.034083
vn 0.095882 -0.995300 -0.013609
vn 0.100392 -0.994835 0.014991
vn 0.108997 -0.993458 -0.034083
vn -0.061637 0.993086 -0.099906
vn -0.068939 0.993737 -0.087943
vn -0.070086 0.988781 -0.131912
vn -0.061637 0.993086 -0.099906
vn -0.064011 0.997949 0.000112
vn -0.068745 0.997603 0.007888
vn -0.065253 0.995802 -0.064186
vn -0.064011 0.997949 0.000112
vn -0.060828 0.993463 0.096596
vn -0.068745 0.997603 0.007888
vn -0.064011 0.997949 0.000112
vn -0.060828 0.993463 0.096596
vn -0.081022 0.995663 -0.045733
vn -0.041670 0.965402 0.257415
vn -0.043533 0.911826 0.408262
vn -0.081022 0.995663 -0.045733
vn -0.102675 0.883277 -0.457471
vn -0.041670 0.965402 0.257415
vn -0.081022 0.995663 -0.045733
vn -0.102675 0.883277 -0.457471
vn 0.122614 -0.987193 -0.102059
vn 0.126670 -0.988443 -0.083278
vn 0.115691 -0.989493 -0.086709
vn 0.122614 -0.987193 -0.102059
vn 0.116560 -0.987874 -0.102565
vn 0.122614 -0.987193 -0.102059
vn 0.115691 -0.989493 -0.086709
vn 0.116560 -0.987874 -0.102565
vn 0.106251 -0.848313 0.518725
vn 0.147549 -0.955435 0.255681
vn 0.170151 -0.855756 0.488599
vn 0.106251 -0.848313 0.518725
vn 0.104096 -0.863730 0.493087
vn 0.106251 -0.848313 0.518725
vn 0.170151 -0.855756 0.488599
vn 0.104096 -0.863730 0.493087
vn 0.100392 -0.994835 0.014991
vn 0.095882 -0.995300 -0.013609
vn 0.147549 -0.955435 0.255681
vn 0.100392 -0.994835 0.014991
vn 0.098759 -0.990993 0.090435
vn 0.100392 -0.994835 0.014991
vn 0.147549 -0.955435 0.255681
vn 0.098759 -0.990993 0.090435
vn 0.126670 -0.988443 -0.083278
vn 0.095882 -0.995300 -0.013609
vn 0.108997 -0.993458 -0.034083
vn 0.126670 -0.988443 -0.083278
vn 0.115691 -0.989493 -0.086709
vn 0.126670 -0.988443 -0.083278
vn 0.108997 -0.993458 -0.034083
vn 0.115691 -0.989493 -0.086709
vn -0.070086 0.988781 -0.131912
vn -0.068939 0.993737 -0.087943
vn -0.076619 0.989841 -0.119767
vn -0.070086 0.988781 -0.131912
vn -0.080958 0.983814 -0.159862
vn -0.070086 0.988781 -0.131912
vn -0.076619 0.989841 -0.119767
vn -0.080958 0.983814 -0.159862
vn -0.065253 0.995802 -0.064186
vn -0.068745 0.997603 0.007888
vn -0.068939 0.993737 -0.087943
vn -0.065253 0.995802 -0.064186
vn -0.061637 0.993086 -0.099906
vn -0.065253 0.995802 -0.064186
vn -0.068939 0.993737 -0.087943
vn -0.061637 0.993086 -0.099906
vn -0.029352 0.963179 0.267253
vn -0.068745 0.997603 0.007888
vn -0.060828 0.993463 0.096596
vn -0.029352 0.963179 0.267253
vn -0.048202 0.942469 0.330801
vn -0.029352 0.963179 0.267253
vn -0.060828 0.993463 0.096596
vn -0.048202 0.942469 0.330801
vn -0.041670 0.965402 0.257415
vn -0.029352 0.963179 0.267253
vn -0.048202 0.942469 0.330801
vn -0.041670 0.965402 0.257415
vn -0.043533 0.911826 0.408262
vn -0.041670 0.965402 0.257415
vn -0.048202 0.942469 0.330801
vn -0.043533 0.911826 0.408262
vn 0.000000 0.000000 1.000000
vn 0.000000 0.000000 1.000000
vn 0.000000 0.000000 1.000000
vn 0.000000 0.000000 1.000000
vn 0.000000 -0.000000 1.000000
vn 0.000000 0.000000 1.000000
vn 0.000000 0.000000 1.000000
vn 0.000000 -0.000000 1.000000
vn 1.000000 0.000000 -0.000000
vn 1.000000 0.000000 -0.000000
vn 1.000000 0.000000 -0.000000
vn 1.000000 0.000000 -0.000000
vn 1.000000 0.000000 -0.000000
vn 1.000000 0.000000 -0.000000
vn 1.000000 0.000000 -0.000000
vn 1.000000 0.000000 -0.000000
vn 0.000000 0.000000 -1.000000
vn 0.000000 0.000000 -1.000000
vn 0.000000 0.000000 -1.000000
vn 0.000000 0.000000 -1.000000
vn 0.000000 0.000000 -1.000000
vn 0.000000 0.000000 -1.000000
vn 0.000000 0.000000 -1.000000
vn 0.000000 0.000000 -1.000000
vn -1.000000 0.000000 -0.000000
vn -1.000000 -0.000000 -0.000000
vn -1.000000 0.000000 -0.000000
vn -1.000000 0.000000 -0.000000
vn -1.000000 0.000000 -0.000000
vn -1.000000 0.000000 -0.000000
vn -1.000000 0.000000 -0.000000
vn -1.000000 0.000000 -0.000000
vn 0.000000 1.000000 0.000000
vn 0.000000 1.000000 -0.000000
vn 0.000000 1.000000 0.000000
vn 0.000000 1.000000 0.000000
vn 0.000000 1.000000 0.000000
vn 0.000000 1.000000 0.000000
vn 0.000000 1.000000 0.000000
vn 0.000000 1.000000 0.000000
vn -0.000000 -1.000000 0.000000
vn -0.000000 -1.000000 -0.000000
vn -0.000000 -1.000000 0.000000
vn -0.000000 -1.000000 0.000000
vn -0.000000 -1.000000 0.000000
vn -0.000000 -1.000000 0.000000
vn -0.000000 -1.000000 0.000000
vn -0.000000 -1.000000 0.000000
vn -0.996791 -0.080054 -0.000001
vn -0.996791 -0.080054 -0.000001
vn -0.996791 -0.080054 -0.000001
vn -0.996791 -0.080054 -0.000001
vn -0.996791 -0.080045 0.000006
vn -0.996791 -0.080045 0.000006
vn -0.996791 -0.080045 0.000006
vn -0.996791 -0.080045 0.000006
vn -0.996794 -0.080016 -0.000010
vn -0.996794 -0.080016 -0.000010
vn -0.996794 -0.080016 -0.000010
vn -0.996794 -0.080016 -0.000010
vn -0.996794 -0.080017 0.000007
vn -0.996794 -0.080017 0.000007
vn -0.996794 -0.080017 0.000007
vn -0.996794 -0.080017 0.000007
vn -0.996792 -0.080041 0.000021
vn -0.996792 -0.080041 0.000021
vn -0.996792 -0.080041 0.000021
vn -0.996792 -0.080041 0.000021
vn -0.996792 -0.080039 -0.000005
vn -0.996792 -0.080039 -0.000005
vn -0.996792 -0.080039 -0.000005
vn -0.996792 -0.080039 -0.000005
vn -0.996792 -0.080030 -0.000010
vn -0.996792 -0.080030 -0.000010
vn -0.996792 -0.080030 -0.000010
vn -0.996792 -0.080030 -0.000010
vn -0.996793 -0.080026 0.000014
vn -0.996793 -0.080026 0.000014
vn -0.996793 -0.080026 0.000014
vn -0.996793 -0.080026 0.000014
vn -0.996792 -0.080040 -0.000003
vn -0.996792 -0.080040 -0.000003
vn -0.996792 -0.080040 -0.000003
vn -0.996792 -0.080040 -0.000003
vn -0.996792 -0.080041 -0.000001
vn -0.996792 -0.080041 -0.000001
vn -0.996792 -0.080041 -0.000001
vn -0.996792 -0.080041 -0.000001
# 292 vertex normals

g mat1
f 9/1/1 13/2/2 14/3/3
f 15/5/5 10/6/6 14/7/7
f 14/9/9 10/10/10 11/11/11
f 13/13/13 12/14/14 14/15/15
f 12/17/17 6/18/18 14/19/19
f 12/21/21 5/22/22 6/23/23
f 7/25/25 14/26/26 6/27/27
f 15/29/29 14/30/30 7/31/31
f 9/33/33 14/34/34 11/35/35
f 8/37/37 1/38/38 16/39/39
f 8/41/41 16/42/42 15/43/43
f 7/45/45 8/46/46 15/47/47
f 10/49/49 15/50/50 16/51/51
f 13/53/53 9/54/54 18/55/55
f 5/57/57 12/58/58 2/59/59
f 2/61/61 12/62/62 18/63/63
f 17/65/65 2/66/66 18/67/67
f 17/69/69 3/70/70 2/71/71
f 4/73/73 17/74/74 16/75/75
f 17/77/77 4/78/78 3/79/79
f 12/81/81 13/82/82 18/83/83
f 11/85/85 18/86/86 9/87/87
f 10/89/89 18/90/90 11/91/91
f 16/93/93 17/94/94 18/95/95
f 10/97/97 16/98/98 18/99/99
f 1/101/101 4/102/102 16/103/103
f 27/105/105 5/106/106 23/107/107
f 28/109/109 4/110/110 22/111/111
f 29/113/113 4/114/114 28/115/115
f 30/117/117 3/118/118 21/119/119
f 31/121/121 6/122/122 24/123/123
f 32/125/125 7/126/126 25/127/127
f 33/129/129 7/130/130 32/131/131
f 35/133/133 1/134/134 34/135/135
f 19/137/137 1/138/138 35/139/139
f 5/141/141 2/142/142 20/143/143
f 23/145/145 5/146/146 20/147/147
f 22/149/149 4/150/150 1/151/151
f 19/153/153 22/154/154 1/155/155
f 21/157/157 3/158/158 4/159/159
f 29/161/161 21/162/162 4/163/163
f 2/165/165 3/166/166 30/167/167
f 20/169/169 2/170/170 30/171/171
f 24/173/173 6/174/174 5/175/175
f 27/177/177 24/178/178 5/179/179
f 25/181/181 7/182/182 6/183/183
f 31/185/185 25/186/186 6/187/187
f 8/189/189 7/190/190 33/191/191
f 26/193/193 8/194/194 33/195/195
f 1/197/197 8/198/198 26/199/199
f 34/201/201 1/202/202 26/203/203
f 37/205/205 39/206/206 38/207/207
f 36/209/209 37/210/210 38/211/211
f 39/213/213 41/214/214 40/215/215
f 38/217/217 39/218/218 40/219/219
f 41/221/221 43/222/222 42/223/223
f 40/225/225 41/226/226 42/227/227
f 43/229/229 37/230/230 36/231/231
f 42/233/233 43/234/234 36/235/235
f 36/237/237 38/238/238 40/239/239
f 42/241/241 36/242/242 40/243/243
f 43/245/245 41/246/246 39/247/247
f 37/249/249 43/250/250 39/251/251
f 46/253/253 45/254/254 44/255/255
f 49/257/257 48/258/258 47/259/259
f 52/261/261 51/262/262 50/263/263
f 55/265/265 54/266/266 53/267/267
f 58/269/269 57/270/270 56/271/271
f 61/273/273 60/274/274 59/275/275
f 64/277/277 63/278/278 62/279/279
f 65/281/281 66/282/282 67/283/283
f 70/285/285 69/286/286 68/287/287
f 71/289/289 72/290/290 73/291/291
# 73 elements

