# Created by 3DAce v2.72


g
v -5.499550 1.626301 1.222591
v -5.504772 1.600404 0.362733
v -5.507036 1.578713 0.749947
v -5.505602 1.584877 1.147513
v -5.404874 1.647946 -0.225667
v -5.488463 1.714109 0.370753
v -5.484219 1.737763 0.761160
v -5.488342 1.706342 1.051156
v -6.256293 1.742379 0.381533
v -6.227050 1.736614 0.738017
v -6.246530 1.741483 0.606487
v -5.784011 1.689267 -0.105972
v -6.121660 1.720236 0.149753
v -6.116475 1.771214 0.516021
v -6.114551 1.783459 0.825550
v -6.123436 1.713571 0.982438
v -5.883157 1.608374 0.822075
v -6.124681 1.683411 0.511992
v -4.406838 1.544989 1.310843
v -4.411791 1.483304 0.236685
v -4.412875 1.469843 0.856543
v -4.408976 1.518385 1.263790
v -4.408076 1.529581 -0.218426
v -4.403132 1.591121 -0.068070
v -4.398153 1.653161 0.546882
v -4.399603 1.635120 1.098999
v -4.406902 1.544185 -0.358830
v -4.411267 1.489858 1.223071
v -4.412518 1.474256 1.129014
v -4.413201 1.465703 0.535767
v -4.399706 1.633872 0.244886
v -4.396961 1.668023 0.767041
v -4.397542 1.660799 0.873701
v -4.404851 1.569758 1.232148
v -4.407151 1.541114 1.303291
v -4.406902 1.544185 -0.358830
v -4.403132 1.591121 0.089330
v -4.411791 1.483304 0.236685
v -4.411791 1.483304 0.236685
v -4.403132 1.591121 0.089330
v -4.398153 1.653161 0.546882
v -4.398153 1.653161 0.546882
v -4.413201 1.465703 0.535767
v -4.411791 1.483304 0.236685
v -4.413201 1.465703 0.535767
v -4.398153 1.653161 0.546882
v -4.397542 1.660799 0.873701
v -4.397542 1.660799 0.873701
v -4.412875 1.469843 0.856543
v -4.413201 1.465703 0.535767
v -4.412875 1.469843 0.856543
v -4.397542 1.660799 0.873701
v -4.399603 1.635120 1.098999
v -4.399603 1.635120 1.098999
v -4.412518 1.474256 1.129014
v -4.412875 1.469843 0.856543
v -4.412518 1.474256 1.129014
v -4.411267 1.489858 1.223071
v -4.399603 1.635120 1.098999
v -4.399603 1.635120 1.098999
v -4.404851 1.569758 1.232148
v -4.411267 1.489858 1.223071
v -4.411267 1.489858 1.223071
v -4.408976 1.518385 1.263790
v -4.404851 1.569758 1.232148
# 65 vertices

vt 0.862180 0.830740
vt 0.866370 0.824360
vt 0.861260 0.820080
vt 0.862180 0.830740
vt 0.866330 0.804380
vt 0.857280 0.802870
vt 0.861260 0.820080
vt 0.866330 0.804380
vt 0.866330 0.804380
vt 0.861260 0.820080
vt 0.867240 0.813880
vt 0.866330 0.804380
vt 0.850870 0.844630
vt 0.862180 0.830740
vt 0.861260 0.820080
vt 0.850870 0.844630
vt 0.828600 0.832430
vt 0.850870 0.844630
vt 0.861260 0.820080
vt 0.828600 0.832430
vt 0.831080 0.861700
vt 0.850870 0.844630
vt 0.828600 0.832430
vt 0.831080 0.861700
vt 0.861260 0.820080
vt 0.824100 0.806020
vt 0.828600 0.832430
vt 0.861260 0.820080
vt 0.861260 0.820080
vt 0.857280 0.802870
vt 0.824100 0.806020
vt 0.861260 0.820080
vt 0.861260 0.820080
vt 0.866370 0.824360
vt 0.867240 0.813880
vt 0.861260 0.820080
vt 0.819370 0.781830
vt 0.822070 0.790360
vt 0.855480 0.796600
vt 0.819370 0.781830
vt 0.855480 0.796600
vt 0.822070 0.790360
vt 0.857280 0.802870
vt 0.855480 0.796600
vt 0.822070 0.790360
vt 0.824100 0.806020
vt 0.857280 0.802870
vt 0.822070 0.790360
vt 0.857280 0.802870
vt 0.866330 0.804380
vt 0.855480 0.796600
vt 0.857280 0.802870
vt 0.854550 0.729590
vt 0.851080 0.720300
vt 0.851370 0.735080
vt 0.854550 0.729590
vt 0.837840 0.710610
vt 0.818220 0.698510
vt 0.818840 0.727900
vt 0.837840 0.710610
vt 0.837840 0.710610
vt 0.818840 0.727900
vt 0.851370 0.735080
vt 0.837840 0.710610
vt 0.818840 0.727900
vt 0.838880 0.752670
vt 0.851370 0.735080
vt 0.818840 0.727900
vt 0.819200 0.755200
vt 0.838880 0.752670
vt 0.818840 0.727900
vt 0.819200 0.755200
vt 0.838880 0.752670
vt 0.819300 0.775070
vt 0.851350 0.758630
vt 0.838880 0.752670
vt 0.819300 0.775070
vt 0.838880 0.752670
vt 0.819200 0.755200
vt 0.819300 0.775070
vt 0.851080 0.720300
vt 0.837840 0.710610
vt 0.851370 0.735080
vt 0.851080 0.720300
vt 0.851370 0.735080
vt 0.856930 0.741410
vt 0.854550 0.729590
vt 0.851370 0.735080
vt 0.851370 0.735080
vt 0.856190 0.746670
vt 0.856930 0.741410
vt 0.851370 0.735080
vt 0.838880 0.752670
vt 0.851350 0.758630
vt 0.851370 0.735080
vt 0.838880 0.752670
vt 0.851350 0.758630
vt 0.856190 0.746670
vt 0.851370 0.735080
vt 0.851350 0.758630
vt 0.819300 0.775070
vt 0.819370 0.776880
vt 0.851350 0.758630
vt 0.819300 0.775070
vt 0.818220 0.698510
vt 0.759000 0.688040
vt 0.760650 0.700140
vt 0.818220 0.698510
vt 0.819300 0.775070
vt 0.751310 0.777840
vt 0.751310 0.780420
vt 0.819300 0.775070
vt 0.819300 0.775070
vt 0.755420 0.772950
vt 0.751310 0.777840
vt 0.819300 0.775070
vt 0.819200 0.755200
vt 0.757140 0.744050
vt 0.755310 0.759330
vt 0.819200 0.755200
vt 0.828530 0.832560
vt 0.767630 0.846840
vt 0.767490 0.859040
vt 0.828530 0.832560
vt 0.824030 0.806150
vt 0.762190 0.815350
vt 0.764250 0.826400
vt 0.824030 0.806150
vt 0.824030 0.806150
vt 0.761260 0.808680
vt 0.762190 0.815350
vt 0.824030 0.806150
vt 0.819300 0.781970
vt 0.756080 0.786150
vt 0.757060 0.789520
vt 0.819300 0.781970
vt 0.818350 0.781220
vt 0.751120 0.786130
vt 0.755440 0.786320
vt 0.818350 0.781220
vt 0.818840 0.727900
vt 0.818220 0.698510
vt 0.756880 0.722970
vt 0.818840 0.727900
vt 0.818220 0.698510
vt 0.760650 0.700140
vt 0.756880 0.722970
vt 0.818220 0.698510
vt 0.819300 0.775070
vt 0.751310 0.780420
vt 0.819370 0.776880
vt 0.819300 0.775070
vt 0.751310 0.780420
vt 0.751230 0.782770
vt 0.819370 0.776880
vt 0.751310 0.780420
vt 0.819200 0.755200
vt 0.755310 0.759330
vt 0.819300 0.775070
vt 0.819200 0.755200
vt 0.755310 0.759330
vt 0.755420 0.772950
vt 0.819300 0.775070
vt 0.755310 0.759330
vt 0.819200 0.755200
vt 0.818840 0.727900
vt 0.757140 0.744050
vt 0.819200 0.755200
vt 0.818840 0.727900
vt 0.756880 0.722970
vt 0.757140 0.744050
vt 0.818840 0.727900
vt 0.828530 0.832560
vt 0.767490 0.859040
vt 0.831010 0.861830
vt 0.828530 0.832560
vt 0.767490 0.859040
vt 0.773100 0.876670
vt 0.831010 0.861830
vt 0.767490 0.859040
vt 0.824030 0.806150
vt 0.764250 0.826400
vt 0.828530 0.832560
vt 0.824030 0.806150
vt 0.764250 0.826400
vt 0.767630 0.846840
vt 0.828530 0.832560
vt 0.764250 0.826400
vt 0.824030 0.806150
vt 0.822000 0.790490
vt 0.761260 0.808680
vt 0.824030 0.806150
vt 0.822000 0.790490
vt 0.759620 0.796520
vt 0.761260 0.808680
vt 0.822000 0.790490
vt 0.822000 0.790490
vt 0.819300 0.781970
vt 0.759620 0.796520
vt 0.822000 0.790490
vt 0.819300 0.781970
vt 0.757060 0.789520
vt 0.759620 0.796520
vt 0.819300 0.781970
vt 0.888460 0.486130
vt 0.878230 0.476350
vt 0.919260 0.481870
vt 0.888460 0.486130
vt 0.888460 0.486130
vt 0.857020 0.491760
vt 0.878230 0.476350
vt 0.888460 0.486130
vt 0.857630 0.474750
vt 0.878230 0.476350
vt 0.857020 0.491760
vt 0.857630 0.474750
vt 0.857020 0.491760
vt 0.834530 0.492450
vt 0.857630 0.474750
vt 0.857020 0.491760
vt 0.835560 0.475130
vt 0.857630 0.474750
vt 0.834530 0.492450
vt 0.835560 0.475130
vt 0.834530 0.492450
vt 0.819000 0.490120
vt 0.835560 0.475130
vt 0.834530 0.492450
vt 0.816810 0.475530
vt 0.835560 0.475130
vt 0.819000 0.490120
vt 0.816810 0.475530
vt 0.810350 0.476940
vt 0.816810 0.475530
vt 0.819000 0.490120
vt 0.810350 0.476940
vt 0.809790 0.484190
vt 0.810350 0.476940
vt 0.819000 0.490120
vt 0.809790 0.484190
vt 0.807570 0.479530
vt 0.810350 0.476940
vt 0.809790 0.484190
vt 0.807570 0.479530
# 244 texture vertices

vn -0.042964 0.989621 -0.137129
vn -0.144062 0.987626 -0.061982
vn -0.079659 0.995347 -0.054207
vn -0.042964 0.989621 -0.137129
vn -0.377773 0.918601 0.116017
vn -0.170054 0.972619 0.158409
vn -0.079659 0.995347 -0.054207
vn -0.377773 0.918601 0.116017
vn -0.377773 0.918601 0.116017
vn -0.079659 0.995347 -0.054207
vn -0.197403 0.979580 0.038144
vn -0.377773 0.918601 0.116017
vn 0.044003 0.992901 -0.110506
vn -0.042964 0.989621 -0.137129
vn -0.079659 0.995347 -0.054207
vn 0.044003 0.992901 -0.110506
vn 0.068939 0.993737 -0.087943
vn 0.044003 0.992901 -0.110506
vn -0.079659 0.995347 -0.054207
vn 0.068939 0.993737 -0.087943
vn 0.076619 0.989841 -0.119767
vn 0.044003 0.992901 -0.110506
vn 0.068939 0.993737 -0.087943
vn 0.076619 0.989841 -0.119767
vn -0.079659 0.995347 -0.054207
vn 0.068745 0.997603 0.007888
vn 0.068939 0.993737 -0.087943
vn -0.079659 0.995347 -0.054207
vn -0.079659 0.995347 -0.054207
vn -0.170054 0.972619 0.158409
vn 0.068745 0.997603 0.007888
vn -0.079659 0.995347 -0.054207
vn -0.079660 0.995347 -0.054207
vn -0.144062 0.987626 -0.061982
vn -0.197403 0.979580 0.038144
vn -0.079660 0.995347 -0.054207
vn 0.041670 0.965402 0.257415
vn 0.029352 0.963179 0.267253
vn -0.217449 0.893719 0.392405
vn 0.041670 0.965402 0.257415
vn -0.217449 0.893719 0.392405
vn 0.029352 0.963179 0.267253
vn -0.170054 0.972619 0.158409
vn -0.217449 0.893719 0.392405
vn 0.029352 0.963179 0.267253
vn 0.068745 0.997603 0.007888
vn -0.170054 0.972619 0.158409
vn 0.029352 0.963179 0.267253
vn -0.170054 0.972619 0.158409
vn -0.377773 0.918601 0.116017
vn -0.217449 0.893719 0.392405
vn -0.170054 0.972619 0.158409
vn -0.373575 -0.926650 -0.041973
vn -0.246118 -0.964061 -0.100058
vn -0.297014 -0.954376 -0.030806
vn -0.373575 -0.926650 -0.041973
vn -0.153647 -0.983090 -0.099634
vn -0.122614 -0.987193 -0.102059
vn -0.126670 -0.988443 -0.083278
vn -0.153647 -0.983090 -0.099634
vn -0.153647 -0.983090 -0.099634
vn -0.126670 -0.988443 -0.083278
vn -0.297014 -0.954376 -0.030806
vn -0.153647 -0.983090 -0.099634
vn -0.126670 -0.988443 -0.083278
vn -0.191925 -0.981018 0.027724
vn -0.297014 -0.954376 -0.030806
vn -0.126670 -0.988443 -0.083278
vn -0.095882 -0.995300 -0.013609
vn -0.191925 -0.981018 0.027724
vn -0.126670 -0.988443 -0.083278
vn -0.095882 -0.995300 -0.013609
vn -0.191925 -0.981018 0.027724
vn -0.147549 -0.955435 0.255681
vn -0.324065 -0.922127 0.211338
vn -0.191925 -0.981018 0.027724
vn -0.147549 -0.955435 0.255681
vn -0.191925 -0.981018 0.027724
vn -0.095882 -0.995300 -0.013609
vn -0.147549 -0.955435 0.255681
vn -0.246118 -0.964061 -0.100058
vn -0.153647 -0.983090 -0.099634
vn -0.297014 -0.954376 -0.030806
vn -0.246118 -0.964061 -0.100058
vn -0.297014 -0.954376 -0.030806
vn -0.416792 -0.908759 0.021034
vn -0.373575 -0.926650 -0.041973
vn -0.297014 -0.954376 -0.030806
vn -0.297014 -0.954376 -0.030806
vn -0.382226 -0.923014 0.044150
vn -0.416792 -0.908759 0.021034
vn -0.297014 -0.954376 -0.030806
vn -0.191925 -0.981018 0.027724
vn -0.324065 -0.922127 0.211338
vn -0.297014 -0.954376 -0.030806
vn -0.191925 -0.981018 0.027724
vn -0.324065 -0.922127 0.211338
vn -0.382226 -0.923014 0.044150
vn -0.297014 -0.954376 -0.030806
vn -0.324065 -0.922127 0.211338
vn -0.147549 -0.955435 0.255681
vn -0.170151 -0.855756 0.488599
vn -0.324065 -0.922127 0.211338
vn -0.147549 -0.955435 0.255681
vn -0.122614 -0.987193 -0.102059
vn -0.116538 -0.987756 -0.103716
vn -0.116560 -0.987874 -0.102565
vn -0.122614 -0.987193 -0.102059
vn -0.147549 -0.955435 0.255681
vn -0.105982 -0.919406 0.378761
vn -0.106251 -0.848313 0.518725
vn -0.147549 -0.955435 0.255681
vn -0.147549 -0.955435 0.255681
vn -0.098759 -0.990993 0.090435
vn -0.105982 -0.919406 0.378761
vn -0.147549 -0.955435 0.255681
vn -0.095882 -0.995300 -0.013609
vn -0.108997 -0.993458 -0.034083
vn -0.100392 -0.994835 0.014991
vn -0.095882 -0.995300 -0.013609
vn 0.068939 0.993737 -0.087943
vn 0.061637 0.993086 -0.099906
vn 0.070086 0.988781 -0.131912
vn 0.068939 0.993737 -0.087943
vn 0.068745 0.997603 0.007888
vn 0.064011 0.997949 0.000112
vn 0.065253 0.995802 -0.064186
vn 0.068745 0.997603 0.007888
vn 0.068745 0.997603 0.007888
vn 0.060828 0.993463 0.096596
vn 0.064011 0.997949 0.000112
vn 0.068745 0.997603 0.007888
vn 0.041670 0.965402 0.257415
vn 0.081022 0.995663 -0.045733
vn 0.043533 0.911826 0.408262
vn 0.041670 0.965402 0.257415
vn 0.041670 0.965402 0.257415
vn 0.102675 0.883277 -0.457471
vn 0.081022 0.995663 -0.045733
vn 0.041670 0.965402 0.257415
vn -0.126670 -0.988443 -0.083278
vn -0.122614 -0.987193 -0.102059
vn -0.115691 -0.989493 -0.086709
vn -0.126670 -0.988443 -0.083278
vn -0.122614 -0.987193 -0.102059
vn -0.116560 -0.987874 -0.102565
vn -0.115691 -0.989493 -0.086709
vn -0.122614 -0.987193 -0.102059
vn -0.147549 -0.955435 0.255681
vn -0.106251 -0.848313 0.518725
vn -0.170151 -0.855756 0.488599
vn -0.147549 -0.955435 0.255681
vn -0.106251 -0.848313 0.518725
vn -0.104096 -0.863730 0.493087
vn -0.170151 -0.855756 0.488599
vn -0.106251 -0.848313 0.518725
vn -0.095882 -0.995300 -0.013609
vn -0.100392 -0.994835 0.014991
vn -0.147549 -0.955435 0.255681
vn -0.095882 -0.995300 -0.013609
vn -0.100392 -0.994835 0.014991
vn -0.098759 -0.990993 0.090435
vn -0.147549 -0.955435 0.255681
vn -0.100392 -0.994835 0.014991
vn -0.095882 -0.995300 -0.013609
vn -0.126670 -0.988443 -0.083278
vn -0.108997 -0.993458 -0.034083
vn -0.095882 -0.995300 -0.013609
vn -0.126670 -0.988443 -0.083278
vn -0.115691 -0.989493 -0.086709
vn -0.108997 -0.993458 -0.034083
vn -0.126670 -0.988443 -0.083278
vn 0.068939 0.993737 -0.087943
vn 0.070086 0.988781 -0.131912
vn 0.076619 0.989841 -0.119767
vn 0.068939 0.993737 -0.087943
vn 0.070086 0.988781 -0.131912
vn 0.080958 0.983814 -0.159862
vn 0.076619 0.989841 -0.119767
vn 0.070086 0.988781 -0.131912
vn 0.068745 0.997603 0.007888
vn 0.065253 0.995802 -0.064186
vn 0.068939 0.993737 -0.087943
vn 0.068745 0.997603 0.007888
vn 0.065253 0.995802 -0.064186
vn 0.061637 0.993086 -0.099906
vn 0.068939 0.993737 -0.087943
vn 0.065253 0.995802 -0.064186
vn 0.068745 0.997603 0.007888
vn 0.029352 0.963179 0.267253
vn 0.060828 0.993463 0.096596
vn 0.068745 0.997603 0.007888
vn 0.029352 0.963179 0.267253
vn 0.048202 0.942469 0.330801
vn 0.060828 0.993463 0.096596
vn 0.029352 0.963179 0.267253
vn 0.029352 0.963179 0.267253
vn 0.041670 0.965402 0.257415
vn 0.048202 0.942469 0.330801
vn 0.029352 0.963179 0.267253
vn 0.041670 0.965402 0.257415
vn 0.043533 0.911826 0.408262
vn 0.048202 0.942469 0.330801
vn 0.041670 0.965402 0.257415
vn 0.996791 -0.080054 -0.000001
vn 0.996791 -0.080054 -0.000001
vn 0.996791 -0.080054 -0.000001
vn 0.996791 -0.080054 -0.000001
vn 0.996791 -0.080045 0.000006
vn 0.996791 -0.080045 0.000006
vn 0.996791 -0.080045 0.000006
vn 0.996791 -0.080045 0.000006
vn 0.996794 -0.080016 -0.000010
vn 0.996794 -0.080016 -0.000010
vn 0.996794 -0.080016 -0.000010
vn 0.996794 -0.080016 -0.000010
vn 0.996794 -0.080017 0.000007
vn 0.996794 -0.080017 0.000007
vn 0.996794 -0.080017 0.000007
vn 0.996794 -0.080017 0.000007
vn 0.996792 -0.080041 0.000021
vn 0.996792 -0.080041 0.000021
vn 0.996792 -0.080041 0.000021
vn 0.996792 -0.080041 0.000021
vn 0.996792 -0.080039 -0.000005
vn 0.996792 -0.080039 -0.000005
vn 0.996792 -0.080039 -0.000005
vn 0.996792 -0.080039 -0.000005
vn 0.996792 -0.080030 -0.000010
vn 0.996792 -0.080030 -0.000010
vn 0.996792 -0.080030 -0.000010
vn 0.996792 -0.080030 -0.000010
vn 0.996793 -0.080026 0.000014
vn 0.996793 -0.080026 0.000014
vn 0.996793 -0.080026 0.000014
vn 0.996793 -0.080026 0.000014
vn 0.996792 -0.080040 -0.000003
vn 0.996792 -0.080040 -0.000003
vn 0.996792 -0.080040 -0.000003
vn 0.996792 -0.080040 -0.000003
vn 0.996792 -0.080041 -0.000001
vn 0.996792 -0.080041 -0.000001
vn 0.996792 -0.080041 -0.000001
vn 0.996792 -0.080041 -0.000001
# 244 vertex normals

g mat1
f 13/1/1 9/2/2 14/3/3
f 10/5/5 15/6/6 14/7/7
f 10/9/9 14/10/10 11/11/11
f 12/13/13 13/14/14 14/15/15
f 6/17/17 12/18/18 14/19/19
f 5/21/21 12/22/22 6/23/23
f 14/25/25 7/26/26 6/27/27
f 14/29/29 15/30/30 7/31/31
f 14/33/33 9/34/34 11/35/35
f 1/37/37 8/38/38 16/39/39
f 16/41/41 8/42/42 15/43/43
f 8/45/45 7/46/46 15/47/47
f 15/49/49 10/50/50 16/51/51
f 9/53/53 13/54/54 18/55/55
f 12/57/57 5/58/58 2/59/59
f 12/61/61 2/62/62 18/63/63
f 2/65/65 17/66/66 18/67/67
f 3/69/69 17/70/70 2/71/71
f 17/73/73 4/74/74 16/75/75
f 4/77/77 17/78/78 3/79/79
f 13/81/81 12/82/82 18/83/83
f 18/85/85 11/86/86 9/87/87
f 18/89/89 10/90/90 11/91/91
f 17/93/93 16/94/94 18/95/95
f 16/97/97 10/98/98 18/99/99
f 4/101/101 1/102/102 16/103/103
f 5/105/105 27/106/106 23/107/107
f 4/109/109 28/110/110 22/111/111
f 4/113/113 29/114/114 28/115/115
f 3/117/117 30/118/118 21/119/119
f 6/121/121 31/122/122 24/123/123
f 7/125/125 32/126/126 25/127/127
f 7/129/129 33/130/130 32/131/131
f 1/133/133 35/134/134 34/135/135
f 1/137/137 19/138/138 35/139/139
f 2/141/141 5/142/142 20/143/143
f 5/145/145 23/146/146 20/147/147
f 4/149/149 22/150/150 1/151/151
f 22/153/153 19/154/154 1/155/155
f 3/157/157 21/158/158 4/159/159
f 21/161/161 29/162/162 4/163/163
f 3/165/165 2/166/166 30/167/167
f 2/169/169 20/170/170 30/171/171
f 6/173/173 24/174/174 5/175/175
f 24/177/177 27/178/178 5/179/179
f 7/181/181 25/182/182 6/183/183
f 25/185/185 31/186/186 6/187/187
f 7/189/189 8/190/190 33/191/191
f 8/193/193 26/194/194 33/195/195
f 8/197/197 1/198/198 26/199/199
f 1/201/201 34/202/202 26/203/203
f 37/205/205 38/206/206 36/207/207
f 40/209/209 41/210/210 39/211/211
f 43/213/213 44/214/214 42/215/215
f 46/217/217 47/218/218 45/219/219
f 49/221/221 50/222/222 48/223/223
f 52/225/225 53/226/226 51/227/227
f 55/229/229 56/230/230 54/231/231
f 58/233/233 57/234/234 59/235/235
f 61/237/237 62/238/238 60/239/239
f 64/241/241 63/242/242 65/243/243
# 61 elements

