# Created by 3DAce v2.72


g
v -5.381194 1.605912 -10.165022
v -5.484709 1.605912 -10.344318
v -5.277682 1.605912 -10.344318
v -5.355163 -0.042740 -10.165022
v -5.458676 -0.042740 -10.344318
v -5.251649 -0.042740 -10.344318
v -5.355163 -0.042740 -10.284555
v -5.804754 0.878679 -9.818235
v -5.803568 0.265070 -9.460994
v -5.802382 -0.348536 -9.818235
v -5.802382 -0.348536 -10.532737
v -5.803568 0.265070 -10.889997
v -5.804754 0.878679 -10.532737
v -5.434130 0.860468 -9.818235
v -5.432946 0.246864 -9.460994
v -5.431754 -0.366749 -9.818235
v -5.431754 -0.366749 -10.532737
v -5.432946 0.246864 -10.889997
v -5.434130 0.860468 -10.532737
v -5.432946 0.246864 -10.175500
v -5.304744 0.878679 -9.818235
v -5.303559 0.265070 -9.460994
v -5.302375 -0.348536 -9.818235
v -5.302375 -0.348536 -10.532737
v -5.303559 0.265070 -10.889997
v -5.304744 0.878679 -10.532737
v -4.934124 0.860468 -9.818235
v -4.932936 0.246864 -9.460994
v -4.931746 -0.366749 -9.818235
v -4.931746 -0.366749 -10.532737
v -4.932936 0.246864 -10.889997
v -4.934124 0.860468 -10.532737
v -4.932936 0.246864 -10.175500
# 33 vertices

vt 0.238170 0.574560
vt 0.252390 0.571340
vt 0.248270 0.570760
vt 0.238170 0.574560
vt 0.250320 0.570760
vt 0.248270 0.570760
vt 0.252370 0.570760
vt 0.250320 0.570760
vt 0.254420 0.570760
vt 0.252370 0.570760
vt 0.248340 0.570760
vt 0.254420 0.570760
vt 0.106670 0.842560
vt 0.125170 0.875120
vt 0.143670 0.842560
vt 0.106670 0.842560
vt 0.106670 0.842560
vt 0.143670 0.842560
vt 0.125170 0.810000
vt 0.106670 0.842560
vt 0.106670 0.842560
vt 0.125170 0.810000
vt 0.088170 0.810000
vt 0.106670 0.842560
vt 0.106670 0.842560
vt 0.088170 0.810000
vt 0.069680 0.842560
vt 0.106670 0.842560
vt 0.106670 0.842560
vt 0.069680 0.842560
vt 0.088170 0.875120
vt 0.106670 0.842560
vt 0.106670 0.842560
vt 0.088170 0.875120
vt 0.125170 0.875120
vt 0.106670 0.842560
vt 0.146630 0.942950
vt 0.163090 0.910380
vt 0.146630 0.910380
vt 0.146630 0.942950
vt 0.146630 0.942950
vt 0.163090 0.942950
vt 0.163090 0.910380
vt 0.146630 0.942950
vt 0.146630 0.910380
vt 0.163090 0.877820
vt 0.146630 0.877820
vt 0.146630 0.910380
vt 0.146630 0.910380
vt 0.163090 0.910380
vt 0.163090 0.877820
vt 0.146630 0.910380
vt 0.166050 0.942950
vt 0.182510 0.909250
vt 0.166050 0.909250
vt 0.166050 0.942950
vt 0.166050 0.942950
vt 0.182510 0.942950
vt 0.182510 0.909250
vt 0.166050 0.942950
vt 0.163090 0.810000
vt 0.146630 0.842560
vt 0.163090 0.842560
vt 0.163090 0.810000
vt 0.163090 0.810000
vt 0.146630 0.810000
vt 0.146630 0.842560
vt 0.163090 0.810000
vt 0.163090 0.842560
vt 0.146630 0.875120
vt 0.163090 0.875120
vt 0.163090 0.842560
vt 0.163090 0.842560
vt 0.146630 0.842560
vt 0.146630 0.875120
vt 0.163090 0.842560
vt 0.166050 0.875120
vt 0.182510 0.841430
vt 0.166050 0.841430
vt 0.166050 0.875120
vt 0.166050 0.875120
vt 0.182510 0.875120
vt 0.182510 0.841430
vt 0.166050 0.875120
vt 0.088170 0.942950
vt 0.143670 0.910380
vt 0.088170 0.877820
vt 0.088170 0.942950
vt 0.088170 0.942950
vt 0.088170 0.877820
vt 0.069680 0.910380
vt 0.088170 0.942950
vt 0.143670 0.910380
vt 0.125170 0.877820
vt 0.088170 0.877820
vt 0.143670 0.910380
vt 0.088170 0.942950
vt 0.126770 0.941690
vt 0.143120 0.910810
vt 0.088170 0.942950
vt 0.106670 0.842560
vt 0.125170 0.875120
vt 0.143670 0.842560
vt 0.106670 0.842560
vt 0.106670 0.842560
vt 0.143670 0.842560
vt 0.125170 0.810000
vt 0.106670 0.842560
vt 0.106670 0.842560
vt 0.125170 0.810000
vt 0.088170 0.810000
vt 0.106670 0.842560
vt 0.106670 0.842560
vt 0.088170 0.810000
vt 0.069680 0.842560
vt 0.106670 0.842560
vt 0.106670 0.842560
vt 0.069680 0.842560
vt 0.088170 0.875120
vt 0.106670 0.842560
vt 0.106670 0.842560
vt 0.088170 0.875120
vt 0.125170 0.875120
vt 0.106670 0.842560
vt 0.146630 0.942950
vt 0.163090 0.910380
vt 0.146630 0.910380
vt 0.146630 0.942950
vt 0.146630 0.942950
vt 0.163090 0.942950
vt 0.163090 0.910380
vt 0.146630 0.942950
vt 0.146630 0.910380
vt 0.163090 0.877820
vt 0.146630 0.877820
vt 0.146630 0.910380
vt 0.146630 0.910380
vt 0.163090 0.910380
vt 0.163090 0.877820
vt 0.146630 0.910380
vt 0.166050 0.942950
vt 0.182510 0.909250
vt 0.166050 0.909250
vt 0.166050 0.942950
vt 0.166050 0.942950
vt 0.182510 0.942950
vt 0.182510 0.909250
vt 0.166050 0.942950
vt 0.163090 0.810000
vt 0.146630 0.842560
vt 0.163090 0.842560
vt 0.163090 0.810000
vt 0.163090 0.810000
vt 0.146630 0.810000
vt 0.146630 0.842560
vt 0.163090 0.810000
vt 0.163090 0.842560
vt 0.146630 0.875120
vt 0.163090 0.875120
vt 0.163090 0.842560
vt 0.163090 0.842560
vt 0.146630 0.842560
vt 0.146630 0.875120
vt 0.163090 0.842560
vt 0.166050 0.875120
vt 0.182510 0.841430
vt 0.166050 0.841430
vt 0.166050 0.875120
vt 0.166050 0.875120
vt 0.182510 0.875120
vt 0.182510 0.841430
vt 0.166050 0.875120
vt 0.088170 0.942950
vt 0.143670 0.910380
vt 0.088170 0.877820
vt 0.088170 0.942950
vt 0.088170 0.942950
vt 0.088170 0.877820
vt 0.069680 0.910380
vt 0.088170 0.942950
vt 0.143670 0.910380
vt 0.125170 0.877820
vt 0.088170 0.877820
vt 0.143670 0.910380
vt 0.088170 0.942950
vt 0.126770 0.941690
vt 0.143120 0.910810
vt 0.088170 0.942950
vt 0.248270 0.687690
vt 0.248270 0.570760
vt 0.252390 0.571340
vt 0.248270 0.687690
vt 0.248270 0.687690
vt 0.252390 0.571340
vt 0.252390 0.688270
vt 0.248270 0.687690
vt 0.252370 0.687690
vt 0.252370 0.570760
vt 0.248270 0.570760
vt 0.252370 0.687690
vt 0.252370 0.687690
vt 0.248270 0.570760
vt 0.248270 0.687690
vt 0.252370 0.687690
vt 0.248340 0.687690
vt 0.248340 0.570760
vt 0.252370 0.570760
vt 0.248340 0.687690
vt 0.248340 0.687690
vt 0.252370 0.570760
vt 0.252370 0.687690
vt 0.248340 0.687690
# 212 texture vertices

vn 0.000000 -1.000000 0.000000
vn 0.000000 -1.000000 0.000000
vn 0.000000 -1.000000 0.000000
vn 0.000000 -1.000000 0.000000
vn 0.000000 -1.000000 0.000000
vn 0.000000 -1.000000 0.000000
vn 0.000000 -1.000000 0.000000
vn 0.000000 -1.000000 0.000000
vn 0.000000 -1.000000 0.000000
vn 0.000000 -1.000000 0.000000
vn 0.000000 -1.000000 0.000000
vn 0.000000 -1.000000 0.000000
vn 0.999998 0.001936 0.000000
vn 0.999998 0.001930 0.000000
vn 0.999998 0.001936 0.000000
vn 0.999998 0.001936 0.000000
vn 0.999998 0.001936 0.000000
vn 0.999998 0.001936 0.000000
vn 0.999998 0.001943 0.000000
vn 0.999998 0.001936 0.000000
vn 0.999998 0.001936 0.000000
vn 0.999998 0.001943 0.000000
vn 0.999998 0.001943 0.000000
vn 0.999998 0.001936 0.000000
vn 0.999998 0.001936 0.000000
vn 0.999998 0.001943 0.000000
vn 0.999998 0.001936 0.000000
vn 0.999998 0.001936 0.000000
vn 0.999998 0.001936 0.000000
vn 0.999998 0.001936 0.000000
vn 0.999998 0.001930 0.000000
vn 0.999998 0.001936 0.000000
vn 0.999998 0.001936 0.000000
vn 0.999998 0.001930 0.000000
vn 0.999998 0.001930 0.000000
vn 0.999998 0.001936 0.000000
vn 0.024713 0.503022 0.863920
vn 0.024713 0.503022 0.863920
vn 0.024710 0.503024 0.863919
vn 0.024713 0.503022 0.863920
vn 0.024713 0.503022 0.863920
vn 0.024716 0.503020 0.863921
vn 0.024713 0.503022 0.863920
vn 0.024713 0.503022 0.863920
vn -0.024714 -0.503020 0.863921
vn -0.024714 -0.503020 0.863921
vn -0.024719 -0.503018 0.863922
vn -0.024714 -0.503020 0.863921
vn -0.024714 -0.503020 0.863921
vn -0.024710 -0.503022 0.863920
vn -0.024714 -0.503020 0.863921
vn -0.024714 -0.503020 0.863921
vn -0.049082 -0.998795 0.000000
vn -0.049082 -0.998795 0.000000
vn -0.049082 -0.998795 0.000000
vn -0.049082 -0.998795 0.000000
vn -0.049082 -0.998795 0.000000
vn -0.049082 -0.998795 0.000000
vn -0.049082 -0.998795 0.000000
vn -0.049082 -0.998795 0.000000
vn -0.024715 -0.503040 -0.863909
vn -0.024715 -0.503040 -0.863909
vn -0.024711 -0.503038 -0.863911
vn -0.024715 -0.503040 -0.863909
vn -0.024715 -0.503040 -0.863909
vn -0.024720 -0.503042 -0.863908
vn -0.024715 -0.503040 -0.863909
vn -0.024715 -0.503040 -0.863909
vn 0.024714 0.503042 -0.863909
vn 0.024714 0.503042 -0.863909
vn 0.024718 0.503044 -0.863908
vn 0.024714 0.503042 -0.863909
vn 0.024714 0.503042 -0.863909
vn 0.024711 0.503041 -0.863910
vn 0.024714 0.503042 -0.863909
vn 0.024714 0.503042 -0.863909
vn 0.049077 0.998795 0.000000
vn 0.049077 0.998795 0.000000
vn 0.049077 0.998795 0.000000
vn 0.049077 0.998795 0.000000
vn 0.049077 0.998795 0.000000
vn 0.049077 0.998795 0.000000
vn 0.049077 0.998795 0.000000
vn 0.049077 0.998795 0.000000
vn -0.999998 -0.001932 -0.000000
vn -0.999998 -0.001932 0.000000
vn -0.999998 -0.001932 -0.000000
vn -0.999998 -0.001932 -0.000000
vn -0.999998 -0.001932 -0.000000
vn -0.999998 -0.001932 -0.000000
vn -0.999998 -0.001932 -0.000001
vn -0.999998 -0.001932 -0.000000
vn -0.999998 -0.001932 0.000000
vn -0.999998 -0.001933 -0.000000
vn -0.999998 -0.001932 -0.000000
vn -0.999998 -0.001932 0.000000
vn -0.999998 -0.001932 -0.000000
vn -0.999998 -0.001932 0.000000
vn -0.999998 -0.001932 0.000000
vn -0.999998 -0.001932 -0.000000
vn 0.999998 0.001938 0.000000
vn 0.999998 0.001936 0.000000
vn 0.999998 0.001938 0.000000
vn 0.999998 0.001938 0.000000
vn 0.999998 0.001938 0.000000
vn 0.999998 0.001938 0.000000
vn 0.999998 0.001940 0.000000
vn 0.999998 0.001938 0.000000
vn 0.999998 0.001938 0.000000
vn 0.999998 0.001940 0.000000
vn 0.999998 0.001940 0.000000
vn 0.999998 0.001938 0.000000
vn 0.999998 0.001938 0.000000
vn 0.999998 0.001940 0.000000
vn 0.999998 0.001938 0.000000
vn 0.999998 0.001938 0.000000
vn 0.999998 0.001938 0.000000
vn 0.999998 0.001938 0.000000
vn 0.999998 0.001936 0.000000
vn 0.999998 0.001938 0.000000
vn 0.999998 0.001938 0.000000
vn 0.999998 0.001936 0.000000
vn 0.999998 0.001936 0.000000
vn 0.999998 0.001938 0.000000
vn 0.024713 0.503022 0.863920
vn 0.024713 0.503022 0.863920
vn 0.024710 0.503024 0.863919
vn 0.024713 0.503022 0.863920
vn 0.024713 0.503022 0.863920
vn 0.024717 0.503020 0.863921
vn 0.024713 0.503022 0.863920
vn 0.024713 0.503022 0.863920
vn -0.024714 -0.503020 0.863921
vn -0.024714 -0.503020 0.863921
vn -0.024719 -0.503018 0.863922
vn -0.024714 -0.503020 0.863921
vn -0.024714 -0.503020 0.863921
vn -0.024710 -0.503022 0.863920
vn -0.024714 -0.503020 0.863921
vn -0.024714 -0.503020 0.863921
vn -0.049082 -0.998795 0.000000
vn -0.049082 -0.998795 0.000000
vn -0.049082 -0.998795 0.000000
vn -0.049082 -0.998795 0.000000
vn -0.049082 -0.998795 0.000000
vn -0.049082 -0.998795 0.000000
vn -0.049082 -0.998795 0.000000
vn -0.049082 -0.998795 0.000000
vn -0.024715 -0.503040 -0.863910
vn -0.024715 -0.503040 -0.863910
vn -0.024711 -0.503038 -0.863911
vn -0.024715 -0.503040 -0.863910
vn -0.024715 -0.503040 -0.863910
vn -0.024720 -0.503042 -0.863908
vn -0.024715 -0.503040 -0.863910
vn -0.024715 -0.503040 -0.863910
vn 0.024714 0.503042 -0.863909
vn 0.024714 0.503042 -0.863909
vn 0.024718 0.503044 -0.863908
vn 0.024714 0.503042 -0.863909
vn 0.024714 0.503042 -0.863909
vn 0.024711 0.503041 -0.863909
vn 0.024714 0.503042 -0.863909
vn 0.024714 0.503042 -0.863909
vn 0.049077 0.998795 0.000000
vn 0.049077 0.998795 0.000000
vn 0.049077 0.998795 0.000000
vn 0.049077 0.998795 0.000000
vn 0.049077 0.998795 0.000000
vn 0.049077 0.998795 0.000000
vn 0.049077 0.998795 0.000000
vn 0.049077 0.998795 0.000000
vn -0.999998 -0.001931 0.000000
vn -0.999998 -0.001931 -0.000000
vn -0.999998 -0.001930 0.000000
vn -0.999998 -0.001931 0.000000
vn -0.999998 -0.001931 0.000000
vn -0.999998 -0.001930 0.000000
vn -0.999998 -0.001931 0.000002
vn -0.999998 -0.001931 0.000000
vn -0.999998 -0.001931 -0.000000
vn -0.999998 -0.001930 -0.000000
vn -0.999998 -0.001930 0.000000
vn -0.999998 -0.001931 -0.000000
vn -0.999998 -0.001931 0.000000
vn -0.999998 -0.001932 0.000000
vn -0.999998 -0.001931 -0.000000
vn -0.999998 -0.001931 0.000000
vn -0.865950 -0.013673 0.499943
vn -0.865952 -0.013674 0.499940
vn -0.865950 -0.013673 0.499943
vn -0.865950 -0.013673 0.499943
vn -0.865950 -0.013673 0.499943
vn -0.865950 -0.013673 0.499943
vn -0.865948 -0.013673 0.499947
vn -0.865950 -0.013673 0.499943
vn 0.000000 0.000000 -1.000000
vn 0.000000 0.000000 -1.000000
vn 0.000000 0.000000 -1.000000
vn 0.000000 0.000000 -1.000000
vn 0.000000 0.000000 -1.000000
vn 0.000000 0.000000 -1.000000
vn 0.000000 0.000000 -1.000000
vn 0.000000 0.000000 -1.000000
vn 0.865953 0.013673 0.499938
vn 0.865951 0.013673 0.499942
vn 0.865953 0.013673 0.499938
vn 0.865953 0.013673 0.499938
vn 0.865953 0.013673 0.499938
vn 0.865953 0.013673 0.499938
vn 0.865955 0.013674 0.499935
vn 0.865953 0.013673 0.499938
# 212 vertex normals

g mat2
f 7/1/1 4/2/2 5/3/3
f 7/5/5 5/6/6 6/7/7
f 7/9/9 6/10/10 4/11/11
f 20/13/13 14/14/14 15/15/15
f 20/17/17 15/18/18 16/19/19
f 20/21/21 16/22/22 17/23/23
f 20/25/25 17/26/26 18/27/27
f 20/29/29 18/30/30 19/31/31
f 20/33/33 19/34/34 14/35/35
f 14/37/37 9/38/38 15/39/39
f 14/41/41 8/42/42 9/43/43
f 15/45/45 10/46/46 16/47/47
f 15/49/49 9/50/50 10/51/51
f 16/53/53 11/54/54 17/55/55
f 16/57/57 10/58/58 11/59/59
f 17/61/61 12/62/62 18/63/63
f 17/65/65 11/66/66 12/67/67
f 18/69/69 13/70/70 19/71/71
f 18/73/73 12/74/74 13/75/75
f 19/77/77 8/78/78 14/79/79
f 19/81/81 13/82/82 8/83/83
f 8/85/85 12/86/86 10/87/87
f 8/89/89 10/90/90 9/91/91
f 12/93/93 11/94/94 10/95/95
f 8/97/97 13/98/98 12/99/99
f 33/101/101 27/102/102 28/103/103
f 33/105/105 28/106/106 29/107/107
f 33/109/109 29/110/110 30/111/111
f 33/113/113 30/114/114 31/115/115
f 33/117/117 31/118/118 32/119/119
f 33/121/121 32/122/122 27/123/123
f 27/125/125 22/126/126 28/127/127
f 27/129/129 21/130/130 22/131/131
f 28/133/133 23/134/134 29/135/135
f 28/137/137 22/138/138 23/139/139
f 29/141/141 24/142/142 30/143/143
f 29/145/145 23/146/146 24/147/147
f 30/149/149 25/150/150 31/151/151
f 30/153/153 24/154/154 25/155/155
f 31/157/157 26/158/158 32/159/159
f 31/161/161 25/162/162 26/163/163
f 32/165/165 21/166/166 27/167/167
f 32/169/169 26/170/170 21/171/171
f 21/173/173 25/174/174 23/175/175
f 21/177/177 23/178/178 22/179/179
f 25/181/181 24/182/182 23/183/183
f 21/185/185 26/186/186 25/187/187
f 2/189/189 5/190/190 4/191/191
f 2/193/193 4/194/194 1/195/195
f 3/197/197 6/198/198 5/199/199
f 3/201/201 5/202/202 2/203/203
f 1/205/205 4/206/206 6/207/207
f 1/209/209 6/210/210 3/211/211
# 53 elements

