# Created by 3DAce v2.72


g
v 0.000000 1.277535 0.603169
v 0.103514 1.277535 0.423873
v -0.103513 1.277535 0.423873
v -0.026031 -0.042740 0.603169
v 0.077481 -0.042740 0.423873
v -0.129546 -0.042740 0.423873
v -0.026031 -0.042740 0.483636
v 0.261556 0.572363 0.845932
v 0.260810 0.137419 1.099156
v 0.260065 -0.297523 0.845932
v 0.260065 -0.297523 0.339473
v 0.260810 0.137419 0.086236
v 0.261556 0.572363 0.339473
v 0.028485 0.559455 0.845932
v 0.027739 0.124514 1.099156
v 0.026989 -0.310433 0.845932
v 0.026989 -0.310433 0.339473
v 0.027739 0.124514 0.086236
v 0.028485 0.559455 0.339473
v 0.027739 0.124514 0.592692
v -0.052881 0.572363 0.845932
v -0.053627 0.137419 1.099156
v -0.054372 -0.297523 0.845932
v -0.054372 -0.297523 0.339473
v -0.053627 0.137419 0.086236
v -0.052881 0.572363 0.339473
v -0.285952 0.559455 0.845932
v -0.286698 0.124514 1.099156
v -0.287448 -0.310433 0.845932
v -0.287448 -0.310433 0.339473
v -0.286698 0.124514 0.086236
v -0.285952 0.559455 0.339473
v -0.286698 0.124514 0.592692
# 33 vertices

vt 0.250990 0.590120
vt 0.255210 0.590580
vt 0.253240 0.589660
vt 0.250990 0.590120
vt 0.255150 0.590120
vt 0.250990 0.590120
vt 0.253070 0.590120
vt 0.255150 0.590120
vt 0.251060 0.589890
vt 0.255150 0.590120
vt 0.253550 0.590580
vt 0.251060 0.589890
vt 0.143670 0.842560
vt 0.125170 0.875120
vt 0.106670 0.842560
vt 0.143670 0.842560
vt 0.125170 0.810000
vt 0.143670 0.842560
vt 0.106670 0.842560
vt 0.125170 0.810000
vt 0.088170 0.810000
vt 0.125170 0.810000
vt 0.106670 0.842560
vt 0.088170 0.810000
vt 0.069680 0.842560
vt 0.088170 0.810000
vt 0.106670 0.842560
vt 0.069680 0.842560
vt 0.088170 0.875120
vt 0.069680 0.842560
vt 0.106670 0.842560
vt 0.088170 0.875120
vt 0.125170 0.875120
vt 0.088170 0.875120
vt 0.106670 0.842560
vt 0.125170 0.875120
vt 0.146630 0.910380
vt 0.163090 0.910380
vt 0.146630 0.942950
vt 0.146630 0.910380
vt 0.163090 0.910380
vt 0.163090 0.942950
vt 0.146630 0.942950
vt 0.163090 0.910380
vt 0.146630 0.877820
vt 0.163090 0.877820
vt 0.146630 0.910380
vt 0.146630 0.877820
vt 0.163090 0.877820
vt 0.163090 0.910380
vt 0.146630 0.910380
vt 0.163090 0.877820
vt 0.166050 0.909250
vt 0.182510 0.909250
vt 0.166050 0.942950
vt 0.166050 0.909250
vt 0.182510 0.909250
vt 0.182510 0.942950
vt 0.166050 0.942950
vt 0.182510 0.909250
vt 0.163090 0.842560
vt 0.146630 0.842560
vt 0.163090 0.810000
vt 0.163090 0.842560
vt 0.146630 0.842560
vt 0.146630 0.810000
vt 0.163090 0.810000
vt 0.146630 0.842560
vt 0.163090 0.875120
vt 0.146630 0.875120
vt 0.163090 0.842560
vt 0.163090 0.875120
vt 0.146630 0.875120
vt 0.146630 0.842560
vt 0.163090 0.842560
vt 0.146630 0.875120
vt 0.166050 0.841430
vt 0.182510 0.841430
vt 0.166050 0.875120
vt 0.166050 0.841430
vt 0.182510 0.841430
vt 0.182510 0.875120
vt 0.166050 0.875120
vt 0.182510 0.841430
vt 0.088170 0.877820
vt 0.143670 0.910380
vt 0.088170 0.942950
vt 0.088170 0.877820
vt 0.069680 0.910380
vt 0.088170 0.877820
vt 0.088170 0.942950
vt 0.069680 0.910380
vt 0.088170 0.877820
vt 0.125170 0.877820
vt 0.143670 0.910380
vt 0.088170 0.877820
vt 0.143120 0.910810
vt 0.126770 0.941690
vt 0.088170 0.942950
vt 0.143120 0.910810
vt 0.143670 0.842560
vt 0.125170 0.875120
vt 0.106670 0.842560
vt 0.143670 0.842560
vt 0.125170 0.810000
vt 0.143670 0.842560
vt 0.106670 0.842560
vt 0.125170 0.810000
vt 0.088170 0.810000
vt 0.125170 0.810000
vt 0.106670 0.842560
vt 0.088170 0.810000
vt 0.069680 0.842560
vt 0.088170 0.810000
vt 0.106670 0.842560
vt 0.069680 0.842560
vt 0.088170 0.875120
vt 0.069680 0.842560
vt 0.106670 0.842560
vt 0.088170 0.875120
vt 0.125170 0.875120
vt 0.088170 0.875120
vt 0.106670 0.842560
vt 0.125170 0.875120
vt 0.146630 0.910380
vt 0.163090 0.910380
vt 0.146630 0.942950
vt 0.146630 0.910380
vt 0.163090 0.910380
vt 0.163090 0.942950
vt 0.146630 0.942950
vt 0.163090 0.910380
vt 0.146630 0.877820
vt 0.163090 0.877820
vt 0.146630 0.910380
vt 0.146630 0.877820
vt 0.163090 0.877820
vt 0.163090 0.910380
vt 0.146630 0.910380
vt 0.163090 0.877820
vt 0.166050 0.909250
vt 0.182510 0.909250
vt 0.166050 0.942950
vt 0.166050 0.909250
vt 0.182510 0.909250
vt 0.182510 0.942950
vt 0.166050 0.942950
vt 0.182510 0.909250
vt 0.163090 0.842560
vt 0.146630 0.842560
vt 0.163090 0.810000
vt 0.163090 0.842560
vt 0.146630 0.842560
vt 0.146630 0.810000
vt 0.163090 0.810000
vt 0.146630 0.842560
vt 0.163090 0.875120
vt 0.146630 0.875120
vt 0.163090 0.842560
vt 0.163090 0.875120
vt 0.146630 0.875120
vt 0.146630 0.842560
vt 0.163090 0.842560
vt 0.146630 0.875120
vt 0.166050 0.841430
vt 0.182510 0.841430
vt 0.166050 0.875120
vt 0.166050 0.841430
vt 0.182510 0.841430
vt 0.182510 0.875120
vt 0.166050 0.875120
vt 0.182510 0.841430
vt 0.088170 0.877820
vt 0.143670 0.910380
vt 0.088170 0.942950
vt 0.088170 0.877820
vt 0.069680 0.910380
vt 0.088170 0.877820
vt 0.088170 0.942950
vt 0.069680 0.910380
vt 0.088170 0.877820
vt 0.125170 0.877820
vt 0.143670 0.910380
vt 0.088170 0.877820
vt 0.143120 0.910810
vt 0.126770 0.941690
vt 0.088170 0.942950
vt 0.143120 0.910810
vt 0.255210 0.590580
vt 0.250990 0.590120
vt 0.250990 0.683580
vt 0.255210 0.590580
vt 0.255210 0.684040
vt 0.255210 0.590580
vt 0.250990 0.683580
vt 0.255210 0.684040
vt 0.250990 0.590120
vt 0.255150 0.590120
vt 0.255150 0.683580
vt 0.250990 0.590120
vt 0.250990 0.683580
vt 0.250990 0.590120
vt 0.255150 0.683580
vt 0.250990 0.683580
vt 0.255150 0.590120
vt 0.251060 0.589890
vt 0.251060 0.683350
vt 0.255150 0.590120
vt 0.255150 0.683580
vt 0.255150 0.590120
vt 0.251060 0.683350
vt 0.255150 0.683580
# 212 texture vertices

vn 0.000000 -1.000000 0.000000
vn 0.000000 -1.000000 0.000000
vn 0.000000 -1.000000 0.000000
vn 0.000000 -1.000000 0.000000
vn -0.000000 -1.000000 0.000000
vn 0.000000 -1.000000 0.000000
vn 0.000000 -1.000000 0.000000
vn -0.000000 -1.000000 0.000000
vn 0.000000 -1.000000 0.000000
vn -0.000000 -1.000000 0.000000
vn 0.000000 -1.000000 0.000000
vn 0.000000 -1.000000 0.000000
vn -0.999999 0.001720 0.000000
vn -0.999999 0.001715 0.000000
vn -0.999999 0.001720 0.000000
vn -0.999999 0.001720 0.000000
vn -0.999999 0.001724 0.000000
vn -0.999999 0.001720 0.000000
vn -0.999999 0.001720 0.000000
vn -0.999999 0.001724 0.000000
vn -0.999999 0.001724 0.000000
vn -0.999999 0.001724 0.000000
vn -0.999999 0.001720 0.000000
vn -0.999999 0.001724 0.000000
vn -0.999999 0.001720 0.000000
vn -0.999999 0.001724 0.000000
vn -0.999999 0.001720 0.000000
vn -0.999999 0.001720 0.000000
vn -0.999999 0.001715 0.000000
vn -0.999999 0.001720 0.000000
vn -0.999999 0.001720 0.000000
vn -0.999999 0.001715 0.000000
vn -0.999999 0.001715 0.000000
vn -0.999999 0.001715 0.000000
vn -0.999999 0.001720 0.000000
vn -0.999999 0.001715 0.000000
vn -0.027850 0.502983 0.863848
vn -0.027853 0.502981 0.863848
vn -0.027853 0.502981 0.863848
vn -0.027850 0.502983 0.863848
vn -0.027853 0.502981 0.863848
vn -0.027856 0.502980 0.863849
vn -0.027853 0.502981 0.863848
vn -0.027853 0.502981 0.863848
vn 0.027860 -0.502977 0.863850
vn 0.027855 -0.502980 0.863849
vn 0.027855 -0.502980 0.863849
vn 0.027860 -0.502977 0.863850
vn 0.027855 -0.502980 0.863849
vn 0.027850 -0.502982 0.863848
vn 0.027855 -0.502980 0.863849
vn 0.027855 -0.502980 0.863849
vn 0.055305 -0.998470 0.000000
vn 0.055305 -0.998470 0.000000
vn 0.055305 -0.998470 0.000000
vn 0.055305 -0.998470 0.000000
vn 0.055305 -0.998470 0.000000
vn 0.055305 -0.998470 0.000000
vn 0.055305 -0.998470 0.000000
vn 0.055305 -0.998470 0.000000
vn 0.027851 -0.502997 -0.863840
vn 0.027856 -0.502999 -0.863838
vn 0.027856 -0.502999 -0.863838
vn 0.027851 -0.502997 -0.863840
vn 0.027856 -0.502999 -0.863838
vn 0.027861 -0.503001 -0.863837
vn 0.027856 -0.502999 -0.863838
vn 0.027856 -0.502999 -0.863838
vn -0.027857 0.503002 -0.863836
vn -0.027854 0.503000 -0.863837
vn -0.027854 0.503000 -0.863837
vn -0.027857 0.503002 -0.863836
vn -0.027854 0.503000 -0.863837
vn -0.027851 0.502999 -0.863838
vn -0.027854 0.503000 -0.863837
vn -0.027854 0.503000 -0.863837
vn -0.055298 0.998470 0.000000
vn -0.055298 0.998470 0.000000
vn -0.055298 0.998470 0.000000
vn -0.055298 0.998470 0.000000
vn -0.055298 0.998470 0.000000
vn -0.055298 0.998470 0.000000
vn -0.055298 0.998470 0.000000
vn -0.055298 0.998470 0.000000
vn 0.999999 -0.001714 0.000000
vn 0.999999 -0.001714 -0.000000
vn 0.999999 -0.001714 0.000000
vn 0.999999 -0.001714 0.000000
vn 0.999999 -0.001714 0.000002
vn 0.999999 -0.001714 0.000000
vn 0.999999 -0.001714 0.000000
vn 0.999999 -0.001714 0.000002
vn 0.999999 -0.001714 0.000000
vn 0.999999 -0.001713 0.000000
vn 0.999999 -0.001714 -0.000000
vn 0.999999 -0.001714 0.000000
vn 0.999999 -0.001714 -0.000000
vn 0.999999 -0.001715 0.000000
vn 0.999999 -0.001714 0.000000
vn 0.999999 -0.001714 -0.000000
vn -0.999999 0.001720 0.000000
vn -0.999999 0.001715 0.000000
vn -0.999999 0.001720 0.000000
vn -0.999999 0.001720 0.000000
vn -0.999999 0.001724 0.000000
vn -0.999999 0.001720 0.000000
vn -0.999999 0.001720 0.000000
vn -0.999999 0.001724 0.000000
vn -0.999999 0.001724 0.000000
vn -0.999999 0.001724 0.000000
vn -0.999999 0.001720 0.000000
vn -0.999999 0.001724 0.000000
vn -0.999999 0.001720 0.000000
vn -0.999999 0.001724 0.000000
vn -0.999999 0.001720 0.000000
vn -0.999999 0.001720 0.000000
vn -0.999999 0.001715 0.000000
vn -0.999999 0.001720 0.000000
vn -0.999999 0.001720 0.000000
vn -0.999999 0.001715 0.000000
vn -0.999999 0.001715 0.000000
vn -0.999999 0.001715 0.000000
vn -0.999999 0.001720 0.000000
vn -0.999999 0.001715 0.000000
vn -0.027850 0.502983 0.863848
vn -0.027853 0.502981 0.863848
vn -0.027853 0.502981 0.863848
vn -0.027850 0.502983 0.863848
vn -0.027853 0.502981 0.863848
vn -0.027856 0.502980 0.863849
vn -0.027853 0.502981 0.863848
vn -0.027853 0.502981 0.863848
vn 0.027860 -0.502977 0.863850
vn 0.027855 -0.502980 0.863849
vn 0.027855 -0.502980 0.863849
vn 0.027860 -0.502977 0.863850
vn 0.027855 -0.502980 0.863849
vn 0.027850 -0.502982 0.863848
vn 0.027855 -0.502980 0.863849
vn 0.027855 -0.502980 0.863849
vn 0.055305 -0.998470 0.000000
vn 0.055305 -0.998470 0.000000
vn 0.055305 -0.998470 0.000000
vn 0.055305 -0.998470 0.000000
vn 0.055305 -0.998470 0.000000
vn 0.055305 -0.998470 0.000000
vn 0.055305 -0.998470 0.000000
vn 0.055305 -0.998470 0.000000
vn 0.027851 -0.502997 -0.863840
vn 0.027856 -0.502999 -0.863838
vn 0.027856 -0.502999 -0.863838
vn 0.027851 -0.502997 -0.863840
vn 0.027856 -0.502999 -0.863838
vn 0.027861 -0.503001 -0.863837
vn 0.027856 -0.502999 -0.863838
vn 0.027856 -0.502999 -0.863838
vn -0.027857 0.503002 -0.863836
vn -0.027854 0.503000 -0.863837
vn -0.027854 0.503000 -0.863837
vn -0.027857 0.503002 -0.863836
vn -0.027854 0.503000 -0.863837
vn -0.027851 0.502999 -0.863838
vn -0.027854 0.503000 -0.863837
vn -0.027854 0.503000 -0.863837
vn -0.055298 0.998470 0.000000
vn -0.055298 0.998470 0.000000
vn -0.055298 0.998470 0.000000
vn -0.055298 0.998470 0.000000
vn -0.055298 0.998470 0.000000
vn -0.055298 0.998470 0.000000
vn -0.055298 0.998470 0.000000
vn -0.055298 0.998470 0.000000
vn 0.999999 -0.001714 0.000000
vn 0.999999 -0.001714 -0.000000
vn 0.999999 -0.001714 0.000000
vn 0.999999 -0.001714 0.000000
vn 0.999999 -0.001714 0.000002
vn 0.999999 -0.001714 0.000000
vn 0.999999 -0.001714 0.000000
vn 0.999999 -0.001714 0.000002
vn 0.999999 -0.001714 0.000000
vn 0.999999 -0.001713 0.000000
vn 0.999999 -0.001714 -0.000000
vn 0.999999 -0.001714 0.000000
vn 0.999999 -0.001714 -0.000000
vn 0.999999 -0.001715 0.000000
vn 0.999999 -0.001714 0.000000
vn 0.999999 -0.001714 -0.000000
vn 0.865907 -0.017073 0.499914
vn 0.865909 -0.017074 0.499911
vn 0.865907 -0.017073 0.499914
vn 0.865907 -0.017073 0.499914
vn 0.865905 -0.017072 0.499918
vn 0.865907 -0.017073 0.499914
vn 0.865907 -0.017073 0.499914
vn 0.865905 -0.017072 0.499918
vn 0.000000 0.000000 -1.000000
vn 0.000000 -0.000000 -1.000000
vn 0.000000 0.000000 -1.000000
vn 0.000000 0.000000 -1.000000
vn 0.000000 0.000000 -1.000000
vn 0.000000 0.000000 -1.000000
vn 0.000000 0.000000 -1.000000
vn 0.000000 0.000000 -1.000000
vn -0.865905 0.017073 0.499918
vn -0.865902 0.017072 0.499921
vn -0.865905 0.017073 0.499918
vn -0.865905 0.017073 0.499918
vn -0.865907 0.017074 0.499914
vn -0.865905 0.017073 0.499918
vn -0.865905 0.017073 0.499918
vn -0.865907 0.017074 0.499914
# 212 vertex normals

g mat2
f 5/1/1 4/2/2 7/3/3
f 6/5/5 5/6/6 7/7/7
f 4/9/9 6/10/10 7/11/11
f 15/13/13 14/14/14 20/15/15
f 16/17/17 15/18/18 20/19/19
f 17/21/21 16/22/22 20/23/23
f 18/25/25 17/26/26 20/27/27
f 19/29/29 18/30/30 20/31/31
f 14/33/33 19/34/34 20/35/35
f 15/37/37 9/38/38 14/39/39
f 9/41/41 8/42/42 14/43/43
f 16/45/45 10/46/46 15/47/47
f 10/49/49 9/50/50 15/51/51
f 17/53/53 11/54/54 16/55/55
f 11/57/57 10/58/58 16/59/59
f 18/61/61 12/62/62 17/63/63
f 12/65/65 11/66/66 17/67/67
f 19/69/69 13/70/70 18/71/71
f 13/73/73 12/74/74 18/75/75
f 14/77/77 8/78/78 19/79/79
f 8/81/81 13/82/82 19/83/83
f 10/85/85 12/86/86 8/87/87
f 9/89/89 10/90/90 8/91/91
f 10/93/93 11/94/94 12/95/95
f 12/97/97 13/98/98 8/99/99
f 28/101/101 27/102/102 33/103/103
f 29/105/105 28/106/106 33/107/107
f 30/109/109 29/110/110 33/111/111
f 31/113/113 30/114/114 33/115/115
f 32/117/117 31/118/118 33/119/119
f 27/121/121 32/122/122 33/123/123
f 28/125/125 22/126/126 27/127/127
f 22/129/129 21/130/130 27/131/131
f 29/133/133 23/134/134 28/135/135
f 23/137/137 22/138/138 28/139/139
f 30/141/141 24/142/142 29/143/143
f 24/145/145 23/146/146 29/147/147
f 31/149/149 25/150/150 30/151/151
f 25/153/153 24/154/154 30/155/155
f 32/157/157 26/158/158 31/159/159
f 26/161/161 25/162/162 31/163/163
f 27/165/165 21/166/166 32/167/167
f 21/169/169 26/170/170 32/171/171
f 23/173/173 25/174/174 21/175/175
f 22/177/177 23/178/178 21/179/179
f 23/181/181 24/182/182 25/183/183
f 25/185/185 26/186/186 21/187/187
f 4/189/189 5/190/190 2/191/191
f 1/193/193 4/194/194 2/195/195
f 5/197/197 6/198/198 3/199/199
f 2/201/201 5/202/202 3/203/203
f 6/205/205 4/206/206 1/207/207
f 3/209/209 6/210/210 1/211/211
# 53 elements

