# Created by 3DAce v2.72


g
v 0.650194 0.300726 -1.438446
v 0.666694 0.300726 -2.044845
v 0.535394 0.877425 -1.438446
v 0.539594 0.936126 -2.044845
v 0.547194 0.300725 -0.192545
v 0.474194 0.300725 0.371757
v 0.367694 0.300725 0.853955
v 0.254894 0.300725 1.213655
v 0.456494 0.756925 -0.192545
v 0.394394 0.702225 0.371757
v 0.297094 0.655625 0.853955
v 0.191194 0.620825 1.213655
# 12 vertices

vt 0.931040 0.064730
vt 0.947010 0.064730
vt 0.947010 0.081450
vt 0.931040 0.064730
vt 0.947010 0.081450
vt 0.931040 0.079900
vt 0.931040 0.064730
vt 0.947010 0.081450
vt 0.898260 0.076730
vt 0.898260 0.064730
vt 0.931040 0.064730
vt 0.898260 0.076730
vt 0.931040 0.064730
vt 0.931040 0.079900
vt 0.898260 0.076730
vt 0.931040 0.064730
vt 0.870720 0.074060
vt 0.870720 0.064730
vt 0.883410 0.064730
vt 0.870720 0.074060
vt 0.883410 0.064730
vt 0.883410 0.075280
vt 0.870720 0.074060
vt 0.883410 0.064730
vt 0.883410 0.064730
vt 0.898260 0.064730
vt 0.898260 0.076730
vt 0.883410 0.064730
vt 0.898260 0.076730
vt 0.883410 0.075280
vt 0.883410 0.064730
vt 0.898260 0.076730
vt 0.861260 0.073140
vt 0.861260 0.064730
vt 0.870720 0.064730
vt 0.861260 0.073140
vt 0.870720 0.064730
vt 0.870720 0.074060
vt 0.861260 0.073140
vt 0.870720 0.064730
vt 0.947010 0.081450
vt 0.947010 0.064730
vt 0.931040 0.064730
vt 0.947010 0.081450
vt 0.931040 0.064730
vt 0.931040 0.079900
vt 0.947010 0.081450
vt 0.931040 0.064730
vt 0.931040 0.064730
vt 0.898260 0.064730
vt 0.898260 0.076730
vt 0.931040 0.064730
vt 0.898260 0.076730
vt 0.931040 0.079900
vt 0.931040 0.064730
vt 0.898260 0.076730
vt 0.883410 0.064730
vt 0.870720 0.064730
vt 0.870720 0.074060
vt 0.883410 0.064730
vt 0.870720 0.074060
vt 0.883410 0.075280
vt 0.883410 0.064730
vt 0.870720 0.074060
vt 0.898260 0.076730
vt 0.898260 0.064730
vt 0.883410 0.064730
vt 0.898260 0.076730
vt 0.883410 0.064730
vt 0.883410 0.075280
vt 0.898260 0.076730
vt 0.883410 0.064730
vt 0.870720 0.064730
vt 0.861260 0.064730
vt 0.861260 0.073140
vt 0.870720 0.064730
vt 0.861260 0.073140
vt 0.870720 0.074060
vt 0.870720 0.064730
vt 0.861260 0.073140
# 80 texture vertices

vn 0.979319 0.195124 0.053495
vn 0.980226 0.196076 0.026672
vn 0.980330 0.195623 0.026178
vn 0.979319 0.195124 0.053495
vn 0.980330 0.195623 0.026178
vn 0.979367 0.194957 0.053226
vn 0.979319 0.195124 0.053495
vn 0.980330 0.195623 0.026178
vn 0.975544 0.194000 0.103337
vn 0.975549 0.193955 0.103371
vn 0.979319 0.195124 0.053495
vn 0.975544 0.194000 0.103337
vn 0.979319 0.195124 0.053495
vn 0.979367 0.194957 0.053226
vn 0.975544 0.194000 0.103337
vn 0.979319 0.195124 0.053495
vn 0.952277 0.189380 0.239384
vn 0.945230 0.188056 0.266786
vn 0.966701 0.192193 0.168970
vn 0.952277 0.189380 0.239384
vn 0.966701 0.192193 0.168970
vn 0.966709 0.192138 0.168990
vn 0.952277 0.189380 0.239384
vn 0.966701 0.192193 0.168970
vn 0.966701 0.192193 0.168970
vn 0.975549 0.193955 0.103371
vn 0.975544 0.194000 0.103337
vn 0.966701 0.192193 0.168970
vn 0.975544 0.194000 0.103337
vn 0.966709 0.192138 0.168990
vn 0.966701 0.192193 0.168970
vn 0.975544 0.194000 0.103337
vn 0.937430 0.186516 0.294003
vn 0.937432 0.186549 0.293974
vn 0.945230 0.188056 0.266786
vn 0.937430 0.186516 0.294003
vn 0.945230 0.188056 0.266786
vn 0.952277 0.189380 0.239384
vn 0.937430 0.186516 0.294003
vn 0.945230 0.188056 0.266786
vn -0.980330 -0.195623 -0.026178
vn -0.980226 -0.196076 -0.026672
vn -0.979319 -0.195124 -0.053495
vn -0.980330 -0.195623 -0.026178
vn -0.979319 -0.195124 -0.053495
vn -0.979367 -0.194957 -0.053226
vn -0.980330 -0.195623 -0.026178
vn -0.979319 -0.195124 -0.053495
vn -0.979319 -0.195124 -0.053495
vn -0.975549 -0.193955 -0.103371
vn -0.975544 -0.194000 -0.103337
vn -0.979319 -0.195124 -0.053495
vn -0.975544 -0.194000 -0.103337
vn -0.979367 -0.194957 -0.053226
vn -0.979319 -0.195124 -0.053495
vn -0.975544 -0.194000 -0.103337
vn -0.966701 -0.192193 -0.168970
vn -0.945230 -0.188056 -0.266786
vn -0.952277 -0.189380 -0.239384
vn -0.966701 -0.192193 -0.168970
vn -0.952277 -0.189380 -0.239384
vn -0.966709 -0.192138 -0.168990
vn -0.966701 -0.192193 -0.168970
vn -0.952277 -0.189380 -0.239384
vn -0.975544 -0.194000 -0.103337
vn -0.975549 -0.193955 -0.103371
vn -0.966701 -0.192193 -0.168970
vn -0.975544 -0.194000 -0.103337
vn -0.966701 -0.192193 -0.168970
vn -0.966709 -0.192138 -0.168990
vn -0.975544 -0.194000 -0.103337
vn -0.966701 -0.192193 -0.168970
vn -0.945230 -0.188056 -0.266786
vn -0.937432 -0.186549 -0.293974
vn -0.937430 -0.186516 -0.294003
vn -0.945230 -0.188056 -0.266786
vn -0.937430 -0.186516 -0.294003
vn -0.952277 -0.189380 -0.239384
vn -0.945230 -0.188056 -0.266786
vn -0.937430 -0.186516 -0.294003
# 80 vertex normals

g mat2
f 1/1/1 2/2/2 4/3/3
f 4/5/5 3/6/6 1/7/7
f 9/9/9 5/10/10 1/11/11
f 1/13/13 3/14/14 9/15/15
f 11/17/17 7/18/18 6/19/19
f 6/21/21 10/22/22 11/23/23
f 6/25/25 5/26/26 9/27/27
f 9/29/29 10/30/30 6/31/31
f 12/33/33 8/34/34 7/35/35
f 7/37/37 11/38/38 12/39/39
f 4/41/41 2/42/42 1/43/43
f 1/45/45 3/46/46 4/47/47
f 1/49/49 5/50/50 9/51/51
f 9/53/53 3/54/54 1/55/55
f 6/57/57 7/58/58 11/59/59
f 11/61/61 10/62/62 6/63/63
f 9/65/65 5/66/66 6/67/67
f 6/69/69 10/70/70 9/71/71
f 7/73/73 8/74/74 12/75/75
f 12/77/77 11/78/78 7/79/79
# 20 elements

