# Created by 3DAce v2.72


g
v 6.105250 1.590672 -10.493244
v 6.080715 1.520775 -11.192445
v 6.200772 1.189920 -9.474545
v 6.074574 0.687740 -9.474845
v 6.058279 0.696917 -10.493244
v 6.033958 0.711190 -11.192445
v 6.109684 1.383152 -11.768744
v 5.998710 0.731540 -11.768544
v 6.033539 1.235665 -12.658046
v 5.913779 0.781035 -12.693344
# 10 vertices

vt 0.181300 0.660870
vt 0.184500 0.678000
vt 0.172550 0.678010
vt 0.181300 0.660870
vt 0.172560 0.660180
vt 0.181300 0.660870
vt 0.172550 0.678010
vt 0.172560 0.660180
vt 0.184500 0.678000
vt 0.186520 0.689110
vt 0.172550 0.689110
vt 0.184500 0.678000
vt 0.172550 0.678010
vt 0.184500 0.678000
vt 0.172550 0.689110
vt 0.172550 0.678010
vt 0.186520 0.689110
vt 0.187920 0.702580
vt 0.172550 0.702580
vt 0.186520 0.689110
vt 0.172550 0.689110
vt 0.186520 0.689110
vt 0.172550 0.702580
vt 0.172550 0.689110
vt 0.172550 0.702580
vt 0.187920 0.702580
vt 0.182150 0.722210
vt 0.172550 0.702580
vt 0.172550 0.722210
vt 0.172550 0.702580
vt 0.182150 0.722210
vt 0.172550 0.722210
vt 0.172550 0.678010
vt 0.184500 0.678000
vt 0.181300 0.660870
vt 0.172550 0.678010
vt 0.172550 0.678010
vt 0.181300 0.660870
vt 0.172560 0.660180
vt 0.172550 0.678010
vt 0.172550 0.689110
vt 0.186520 0.689110
vt 0.184500 0.678000
vt 0.172550 0.689110
vt 0.172550 0.689110
vt 0.184500 0.678000
vt 0.172550 0.678010
vt 0.172550 0.689110
vt 0.172550 0.702580
vt 0.187920 0.702580
vt 0.186520 0.689110
vt 0.172550 0.702580
vt 0.172550 0.702580
vt 0.186520 0.689110
vt 0.172550 0.689110
vt 0.172550 0.702580
vt 0.182150 0.722210
vt 0.187920 0.702580
vt 0.172550 0.702580
vt 0.182150 0.722210
vt 0.182150 0.722210
vt 0.172550 0.702580
vt 0.172550 0.722210
vt 0.182150 0.722210
# 64 texture vertices

vn 0.975122 -0.207052 -0.079165
vn 0.991146 -0.131316 -0.019645
vn 0.978161 -0.193912 -0.074823
vn 0.975122 -0.207052 -0.079165
vn 0.963915 -0.246021 -0.101690
vn 0.975122 -0.207052 -0.079165
vn 0.978161 -0.193912 -0.074823
vn 0.963915 -0.246021 -0.101690
vn 0.991146 -0.131316 -0.019645
vn 0.998434 -0.055932 -0.000614
vn 0.995442 -0.094509 -0.012757
vn 0.991146 -0.131316 -0.019645
vn 0.978161 -0.193912 -0.074823
vn 0.991146 -0.131316 -0.019645
vn 0.995442 -0.094509 -0.012757
vn 0.978161 -0.193912 -0.074823
vn 0.998434 -0.055932 -0.000614
vn 0.996050 -0.052347 -0.071728
vn 0.993566 -0.101898 -0.049436
vn 0.998434 -0.055932 -0.000614
vn 0.995442 -0.094509 -0.012757
vn 0.998434 -0.055932 -0.000614
vn 0.993566 -0.101898 -0.049436
vn 0.995442 -0.094509 -0.012757
vn 0.993566 -0.101898 -0.049436
vn 0.996050 -0.052347 -0.071728
vn 0.986665 -0.148773 -0.066013
vn 0.993566 -0.101898 -0.049436
vn 0.969696 -0.243674 -0.017712
vn 0.993566 -0.101898 -0.049436
vn 0.986665 -0.148773 -0.066013
vn 0.969696 -0.243674 -0.017712
vn -0.978161 0.193912 0.074823
vn -0.991146 0.131316 0.019645
vn -0.975122 0.207052 0.079165
vn -0.978161 0.193912 0.074823
vn -0.978161 0.193912 0.074823
vn -0.975122 0.207052 0.079165
vn -0.963915 0.246021 0.101690
vn -0.978161 0.193912 0.074823
vn -0.995442 0.094509 0.012757
vn -0.998434 0.055932 0.000614
vn -0.991146 0.131316 0.019645
vn -0.995442 0.094509 0.012757
vn -0.995442 0.094509 0.012757
vn -0.991146 0.131316 0.019645
vn -0.978161 0.193912 0.074823
vn -0.995442 0.094509 0.012757
vn -0.993566 0.101898 0.049436
vn -0.996050 0.052347 0.071728
vn -0.998434 0.055932 0.000614
vn -0.993566 0.101898 0.049436
vn -0.993566 0.101898 0.049436
vn -0.998434 0.055932 0.000614
vn -0.995442 0.094509 0.012757
vn -0.993566 0.101898 0.049436
vn -0.986665 0.148773 0.066013
vn -0.996050 0.052347 0.071728
vn -0.993566 0.101898 0.049436
vn -0.986665 0.148773 0.066013
vn -0.986665 0.148773 0.066013
vn -0.993566 0.101898 0.049436
vn -0.969696 0.243674 0.017712
vn -0.986665 0.148773 0.066013
# 64 vertex normals

g mat2
f 9/1/1 7/2/2 8/3/3
f 10/5/5 9/6/6 8/7/7
f 7/9/9 2/10/10 6/11/11
f 8/13/13 7/14/14 6/15/15
f 2/17/17 1/18/18 5/19/19
f 6/21/21 2/22/22 5/23/23
f 5/25/25 1/26/26 3/27/27
f 4/29/29 5/30/30 3/31/31
f 8/33/33 7/34/34 9/35/35
f 8/37/37 9/38/38 10/39/39
f 6/41/41 2/42/42 7/43/43
f 6/45/45 7/46/46 8/47/47
f 5/49/49 1/50/50 2/51/51
f 5/53/53 2/54/54 6/55/55
f 3/57/57 1/58/58 5/59/59
f 3/61/61 5/62/62 4/63/63
# 16 elements

