# Created by 3DAce v2.72


g
v 4.706326 0.807424 -9.474845
v 4.722420 0.816947 -10.493244
v 4.746942 0.830874 -11.192445
v 4.584878 1.510378 -10.492044
v 4.629729 1.437893 -11.192445
v 4.782190 0.851224 -11.768544
v 4.672974 1.380992 -11.768345
v 4.750685 1.324591 -12.653644
v 4.867519 0.900029 -12.693344
v 4.633121 1.094824 -9.479757
# 10 vertices

vt 0.164350 0.660950
vt 0.172560 0.660180
vt 0.172550 0.678010
vt 0.164350 0.660950
vt 0.162660 0.678010
vt 0.164350 0.660950
vt 0.172550 0.678010
vt 0.162660 0.678010
vt 0.172550 0.689110
vt 0.161290 0.689110
vt 0.162660 0.678010
vt 0.172550 0.689110
vt 0.172550 0.678010
vt 0.172550 0.689110
vt 0.162660 0.678010
vt 0.172550 0.678010
vt 0.172550 0.702580
vt 0.159650 0.702600
vt 0.161290 0.689110
vt 0.172550 0.702580
vt 0.172550 0.689110
vt 0.172550 0.702580
vt 0.161290 0.689110
vt 0.172550 0.689110
vt 0.172550 0.702580
vt 0.172550 0.722210
vt 0.165900 0.709680
vt 0.172550 0.702580
vt 0.159650 0.702600
vt 0.172550 0.702580
vt 0.165900 0.709680
vt 0.159650 0.702600
vt 0.172550 0.678010
vt 0.172560 0.660180
vt 0.164350 0.660950
vt 0.172550 0.678010
vt 0.172550 0.678010
vt 0.164350 0.660950
vt 0.162660 0.678010
vt 0.172550 0.678010
vt 0.162660 0.678010
vt 0.161290 0.689110
vt 0.172550 0.689110
vt 0.162660 0.678010
vt 0.162660 0.678010
vt 0.172550 0.689110
vt 0.172550 0.678010
vt 0.162660 0.678010
vt 0.161290 0.689110
vt 0.159650 0.702600
vt 0.172550 0.702580
vt 0.161290 0.689110
vt 0.161290 0.689110
vt 0.172550 0.702580
vt 0.172550 0.689110
vt 0.161290 0.689110
vt 0.165900 0.709680
vt 0.172550 0.722210
vt 0.172550 0.702580
vt 0.165900 0.709680
vt 0.165900 0.709680
vt 0.172550 0.702580
vt 0.159650 0.702600
vt 0.165900 0.709680
# 64 texture vertices

vn -0.969641 -0.228309 -0.087590
vn -0.961516 -0.255042 -0.102176
vn -0.972297 -0.219378 -0.080703
vn -0.969641 -0.228309 -0.087590
vn -0.978177 -0.197373 -0.064914
vn -0.969641 -0.228309 -0.087590
vn -0.972297 -0.219378 -0.080703
vn -0.978177 -0.197373 -0.064914
vn -0.979666 -0.193417 -0.053339
vn -0.980541 -0.191030 -0.045249
vn -0.978177 -0.197373 -0.064914
vn -0.979666 -0.193417 -0.053339
vn -0.972296 -0.219378 -0.080703
vn -0.979666 -0.193417 -0.053339
vn -0.978177 -0.197373 -0.064914
vn -0.972296 -0.219378 -0.080703
vn -0.977919 -0.206380 -0.032894
vn -0.980200 -0.194357 -0.037864
vn -0.980541 -0.191030 -0.045249
vn -0.977919 -0.206380 -0.032894
vn -0.979666 -0.193417 -0.053339
vn -0.977919 -0.206380 -0.032894
vn -0.980541 -0.191030 -0.045249
vn -0.979666 -0.193417 -0.053339
vn -0.977919 -0.206380 -0.032894
vn -0.968835 -0.247078 -0.017621
vn -0.974984 -0.220825 -0.025361
vn -0.977919 -0.206380 -0.032894
vn -0.980200 -0.194357 -0.037864
vn -0.977919 -0.206380 -0.032894
vn -0.974984 -0.220825 -0.025361
vn -0.980200 -0.194357 -0.037864
vn 0.972297 0.219378 0.080703
vn 0.961516 0.255042 0.102176
vn 0.969641 0.228309 0.087590
vn 0.972297 0.219378 0.080703
vn 0.972297 0.219378 0.080703
vn 0.969641 0.228309 0.087590
vn 0.978177 0.197373 0.064914
vn 0.972297 0.219378 0.080703
vn 0.978177 0.197373 0.064914
vn 0.980541 0.191030 0.045249
vn 0.979666 0.193417 0.053339
vn 0.978177 0.197373 0.064914
vn 0.978177 0.197373 0.064914
vn 0.979666 0.193417 0.053339
vn 0.972296 0.219378 0.080703
vn 0.978177 0.197373 0.064914
vn 0.980541 0.191030 0.045249
vn 0.980200 0.194357 0.037864
vn 0.977919 0.206380 0.032894
vn 0.980541 0.191030 0.045249
vn 0.980541 0.191030 0.045249
vn 0.977919 0.206380 0.032894
vn 0.979666 0.193417 0.053339
vn 0.980541 0.191030 0.045249
vn 0.974984 0.220825 0.025361
vn 0.968835 0.247078 0.017621
vn 0.977919 0.206380 0.032894
vn 0.974984 0.220825 0.025361
vn 0.974984 0.220825 0.025361
vn 0.977919 0.206380 0.032894
vn 0.980200 0.194357 0.037864
vn 0.974984 0.220825 0.025361
# 64 vertex normals

g mat2
f 8/1/1 9/2/2 6/3/3
f 7/5/5 8/6/6 6/7/7
f 3/9/9 5/10/10 7/11/11
f 6/13/13 3/14/14 7/15/15
f 2/17/17 4/18/18 5/19/19
f 3/21/21 2/22/22 5/23/23
f 2/25/25 1/26/26 10/27/27
f 4/29/29 2/30/30 10/31/31
f 6/33/33 9/34/34 8/35/35
f 6/37/37 8/38/38 7/39/39
f 7/41/41 5/42/42 3/43/43
f 7/45/45 3/46/46 6/47/47
f 5/49/49 4/50/50 2/51/51
f 5/53/53 2/54/54 3/55/55
f 10/57/57 1/58/58 2/59/59
f 10/61/61 2/62/62 4/63/63
# 16 elements

