# Created by 3DAce v2.72


g
v 5.381194 1.605912 -10.165022
v 5.484709 1.605912 -10.344318
v 5.277682 1.605912 -10.344318
v 5.355163 -0.042740 -10.165022
v 5.458676 -0.042740 -10.344318
v 5.251649 -0.042740 -10.344318
v 5.355163 -0.042740 -10.284555
v 5.804754 0.878679 -9.818235
v 5.803568 0.265070 -9.460994
v 5.802382 -0.348536 -9.818235
v 5.802382 -0.348536 -10.532737
v 5.803568 0.265070 -10.889997
v 5.804754 0.878679 -10.532737
v 5.434130 0.860468 -9.818235
v 5.432946 0.246864 -9.460994
v 5.431754 -0.366749 -9.818235
v 5.431754 -0.366749 -10.532737
v 5.432946 0.246864 -10.889997
v 5.434130 0.860468 -10.532737
v 5.432946 0.246864 -10.175500
v 5.304744 0.878679 -9.818235
v 5.303559 0.265070 -9.460994
v 5.302375 -0.348536 -9.818235
v 5.302375 -0.348536 -10.532737
v 5.303559 0.265070 -10.889997
v 5.304744 0.878679 -10.532737
v 4.934124 0.860468 -9.818235
v 4.932936 0.246864 -9.460994
v 4.931746 -0.366749 -9.818235
v 4.931746 -0.366749 -10.532737
v 4.932936 0.246864 -10.889997
v 4.934124 0.860468 -10.532737
v 4.932936 0.246864 -10.175500
# 33 vertices

vt 0.256370 0.565560
vt 0.252140 0.574000
vt 0.247070 0.565860
vt 0.256370 0.565560
vt 0.247070 0.565860
vt 0.251830 0.565860
vt 0.256600 0.565860
vt 0.247070 0.565860
vt 0.256600 0.565860
vt 0.249840 0.571890
vt 0.247090 0.565860
vt 0.256600 0.565860
vt 0.125170 0.875120
vt 0.106670 0.842560
vt 0.143670 0.842560
vt 0.125170 0.875120
vt 0.143670 0.842560
vt 0.106670 0.842560
vt 0.125170 0.810000
vt 0.143670 0.842560
vt 0.125170 0.810000
vt 0.106670 0.842560
vt 0.088170 0.810000
vt 0.125170 0.810000
vt 0.088170 0.810000
vt 0.106670 0.842560
vt 0.069680 0.842560
vt 0.088170 0.810000
vt 0.069680 0.842560
vt 0.106670 0.842560
vt 0.088170 0.875120
vt 0.069680 0.842560
vt 0.088170 0.875120
vt 0.106670 0.842560
vt 0.125170 0.875120
vt 0.088170 0.875120
vt 0.163090 0.910380
vt 0.146630 0.942950
vt 0.146630 0.910380
vt 0.163090 0.910380
vt 0.163090 0.942950
vt 0.146630 0.942950
vt 0.163090 0.910380
vt 0.163090 0.942950
vt 0.163090 0.877820
vt 0.146630 0.910380
vt 0.146630 0.877820
vt 0.163090 0.877820
vt 0.163090 0.910380
vt 0.146630 0.910380
vt 0.163090 0.877820
vt 0.163090 0.910380
vt 0.182510 0.909250
vt 0.166050 0.942950
vt 0.166050 0.909250
vt 0.182510 0.909250
vt 0.182510 0.942950
vt 0.166050 0.942950
vt 0.182510 0.909250
vt 0.182510 0.942950
vt 0.146630 0.842560
vt 0.163090 0.810000
vt 0.163090 0.842560
vt 0.146630 0.842560
vt 0.146630 0.810000
vt 0.163090 0.810000
vt 0.146630 0.842560
vt 0.146630 0.810000
vt 0.146630 0.875120
vt 0.163090 0.842560
vt 0.163090 0.875120
vt 0.146630 0.875120
vt 0.146630 0.842560
vt 0.163090 0.842560
vt 0.146630 0.875120
vt 0.146630 0.842560
vt 0.182510 0.841430
vt 0.166050 0.875120
vt 0.166050 0.841430
vt 0.182510 0.841430
vt 0.182510 0.875120
vt 0.166050 0.875120
vt 0.182510 0.841430
vt 0.182510 0.875120
vt 0.143670 0.910380
vt 0.088170 0.942950
vt 0.088170 0.877820
vt 0.143670 0.910380
vt 0.088170 0.877820
vt 0.088170 0.942950
vt 0.069680 0.910380
vt 0.088170 0.877820
vt 0.125170 0.877820
vt 0.143670 0.910380
vt 0.088170 0.877820
vt 0.125170 0.877820
vt 0.126770 0.941690
vt 0.088170 0.942950
vt 0.143120 0.910810
vt 0.126770 0.941690
vt 0.125170 0.875120
vt 0.106670 0.842560
vt 0.143670 0.842560
vt 0.125170 0.875120
vt 0.143670 0.842560
vt 0.106670 0.842560
vt 0.125170 0.810000
vt 0.143670 0.842560
vt 0.125170 0.810000
vt 0.106670 0.842560
vt 0.088170 0.810000
vt 0.125170 0.810000
vt 0.088170 0.810000
vt 0.106670 0.842560
vt 0.069680 0.842560
vt 0.088170 0.810000
vt 0.069680 0.842560
vt 0.106670 0.842560
vt 0.088170 0.875120
vt 0.069680 0.842560
vt 0.088170 0.875120
vt 0.106670 0.842560
vt 0.125170 0.875120
vt 0.088170 0.875120
vt 0.163090 0.910380
vt 0.146630 0.942950
vt 0.146630 0.910380
vt 0.163090 0.910380
vt 0.163090 0.942950
vt 0.146630 0.942950
vt 0.163090 0.910380
vt 0.163090 0.942950
vt 0.163090 0.877820
vt 0.146630 0.910380
vt 0.146630 0.877820
vt 0.163090 0.877820
vt 0.163090 0.910380
vt 0.146630 0.910380
vt 0.163090 0.877820
vt 0.163090 0.910380
vt 0.182510 0.909250
vt 0.166050 0.942950
vt 0.166050 0.909250
vt 0.182510 0.909250
vt 0.182510 0.942950
vt 0.166050 0.942950
vt 0.182510 0.909250
vt 0.182510 0.942950
vt 0.146630 0.842560
vt 0.163090 0.810000
vt 0.163090 0.842560
vt 0.146630 0.842560
vt 0.146630 0.810000
vt 0.163090 0.810000
vt 0.146630 0.842560
vt 0.146630 0.810000
vt 0.146630 0.875120
vt 0.163090 0.842560
vt 0.163090 0.875120
vt 0.146630 0.875120
vt 0.146630 0.842560
vt 0.163090 0.842560
vt 0.146630 0.875120
vt 0.146630 0.842560
vt 0.182510 0.841430
vt 0.166050 0.875120
vt 0.166050 0.841430
vt 0.182510 0.841430
vt 0.182510 0.875120
vt 0.166050 0.875120
vt 0.182510 0.841430
vt 0.182510 0.875120
vt 0.143670 0.910380
vt 0.088170 0.942950
vt 0.088170 0.877820
vt 0.143670 0.910380
vt 0.088170 0.877820
vt 0.088170 0.942950
vt 0.069680 0.910380
vt 0.088170 0.877820
vt 0.125170 0.877820
vt 0.143670 0.910380
vt 0.088170 0.877820
vt 0.125170 0.877820
vt 0.126770 0.941690
vt 0.088170 0.942950
vt 0.143120 0.910810
vt 0.126770 0.941690
vt 0.247070 0.565860
vt 0.247070 0.688470
vt 0.256370 0.565560
vt 0.247070 0.565860
vt 0.256370 0.565560
vt 0.247070 0.688470
vt 0.256370 0.688170
vt 0.256370 0.565560
vt 0.256600 0.565860
vt 0.256600 0.688470
vt 0.247070 0.565860
vt 0.256600 0.565860
vt 0.247070 0.565860
vt 0.256600 0.688470
vt 0.247070 0.688470
vt 0.247070 0.565860
vt 0.247090 0.565860
vt 0.247090 0.688470
vt 0.256600 0.565860
vt 0.247090 0.565860
vt 0.256600 0.565860
vt 0.247090 0.688470
vt 0.256600 0.688470
vt 0.256600 0.565860
# 212 texture vertices

vn 0.000000 -1.000000 0.000000
vn 0.000000 -1.000000 0.000000
vn 0.000000 -1.000000 0.000000
vn 0.000000 -1.000000 0.000000
vn 0.000000 -1.000000 0.000000
vn 0.000000 -1.000000 0.000000
vn 0.000000 -1.000000 0.000000
vn 0.000000 -1.000000 0.000000
vn 0.000000 -1.000000 0.000000
vn 0.000000 -1.000000 0.000000
vn 0.000000 -1.000000 0.000000
vn 0.000000 -1.000000 0.000000
vn -0.999998 0.001930 0.000000
vn -0.999998 0.001936 0.000000
vn -0.999998 0.001936 0.000000
vn -0.999998 0.001930 0.000000
vn -0.999998 0.001936 0.000000
vn -0.999998 0.001936 0.000000
vn -0.999998 0.001943 0.000000
vn -0.999998 0.001936 0.000000
vn -0.999998 0.001943 0.000000
vn -0.999998 0.001936 0.000000
vn -0.999998 0.001943 0.000000
vn -0.999998 0.001943 0.000000
vn -0.999998 0.001943 0.000000
vn -0.999998 0.001936 0.000000
vn -0.999998 0.001936 0.000000
vn -0.999998 0.001943 0.000000
vn -0.999998 0.001936 0.000000
vn -0.999998 0.001936 0.000000
vn -0.999998 0.001930 0.000000
vn -0.999998 0.001936 0.000000
vn -0.999998 0.001930 0.000000
vn -0.999998 0.001936 0.000000
vn -0.999998 0.001930 0.000000
vn -0.999998 0.001930 0.000000
vn -0.024713 0.503022 0.863920
vn -0.024713 0.503022 0.863920
vn -0.024710 0.503024 0.863919
vn -0.024713 0.503022 0.863920
vn -0.024716 0.503020 0.863921
vn -0.024713 0.503022 0.863920
vn -0.024713 0.503022 0.863920
vn -0.024716 0.503020 0.863921
vn 0.024714 -0.503020 0.863921
vn 0.024714 -0.503020 0.863921
vn 0.024719 -0.503018 0.863922
vn 0.024714 -0.503020 0.863921
vn 0.024710 -0.503022 0.863920
vn 0.024714 -0.503020 0.863921
vn 0.024714 -0.503020 0.863921
vn 0.024710 -0.503022 0.863920
vn 0.049082 -0.998795 0.000000
vn 0.049082 -0.998795 0.000000
vn 0.049082 -0.998795 0.000000
vn 0.049082 -0.998795 0.000000
vn 0.049082 -0.998795 0.000000
vn 0.049082 -0.998795 0.000000
vn 0.049082 -0.998795 0.000000
vn 0.049082 -0.998795 0.000000
vn 0.024715 -0.503040 -0.863909
vn 0.024715 -0.503040 -0.863909
vn 0.024711 -0.503038 -0.863911
vn 0.024715 -0.503040 -0.863909
vn 0.024720 -0.503042 -0.863908
vn 0.024715 -0.503040 -0.863909
vn 0.024715 -0.503040 -0.863909
vn 0.024720 -0.503042 -0.863908
vn -0.024714 0.503042 -0.863909
vn -0.024714 0.503042 -0.863909
vn -0.024718 0.503044 -0.863908
vn -0.024714 0.503042 -0.863909
vn -0.024711 0.503041 -0.863910
vn -0.024714 0.503042 -0.863909
vn -0.024714 0.503042 -0.863909
vn -0.024711 0.503041 -0.863910
vn -0.049077 0.998795 0.000000
vn -0.049077 0.998795 0.000000
vn -0.049077 0.998795 0.000000
vn -0.049077 0.998795 0.000000
vn -0.049077 0.998795 0.000000
vn -0.049077 0.998795 0.000000
vn -0.049077 0.998795 0.000000
vn -0.049077 0.998795 0.000000
vn 0.999998 -0.001932 0.000000
vn 0.999998 -0.001932 -0.000000
vn 0.999998 -0.001932 -0.000000
vn 0.999998 -0.001932 0.000000
vn 0.999998 -0.001932 -0.000000
vn 0.999998 -0.001932 -0.000000
vn 0.999998 -0.001932 -0.000001
vn 0.999998 -0.001932 -0.000000
vn 0.999998 -0.001933 0.000000
vn 0.999998 -0.001932 0.000000
vn 0.999998 -0.001932 -0.000000
vn 0.999998 -0.001933 0.000000
vn 0.999998 -0.001932 0.000000
vn 0.999998 -0.001932 -0.000000
vn 0.999998 -0.001932 0.000000
vn 0.999998 -0.001932 0.000000
vn -0.999998 0.001936 0.000000
vn -0.999998 0.001938 0.000000
vn -0.999998 0.001938 0.000000
vn -0.999998 0.001936 0.000000
vn -0.999998 0.001938 0.000000
vn -0.999998 0.001938 0.000000
vn -0.999998 0.001940 0.000000
vn -0.999998 0.001938 0.000000
vn -0.999998 0.001940 0.000000
vn -0.999998 0.001938 0.000000
vn -0.999998 0.001940 0.000000
vn -0.999998 0.001940 0.000000
vn -0.999998 0.001940 0.000000
vn -0.999998 0.001938 0.000000
vn -0.999998 0.001938 0.000000
vn -0.999998 0.001940 0.000000
vn -0.999998 0.001938 0.000000
vn -0.999998 0.001938 0.000000
vn -0.999998 0.001936 0.000000
vn -0.999998 0.001938 0.000000
vn -0.999998 0.001936 0.000000
vn -0.999998 0.001938 0.000000
vn -0.999998 0.001936 0.000000
vn -0.999998 0.001936 0.000000
vn -0.024713 0.503022 0.863920
vn -0.024713 0.503022 0.863920
vn -0.024710 0.503024 0.863919
vn -0.024713 0.503022 0.863920
vn -0.024717 0.503020 0.863921
vn -0.024713 0.503022 0.863920
vn -0.024713 0.503022 0.863920
vn -0.024717 0.503020 0.863921
vn 0.024714 -0.503020 0.863921
vn 0.024714 -0.503020 0.863921
vn 0.024719 -0.503018 0.863922
vn 0.024714 -0.503020 0.863921
vn 0.024710 -0.503022 0.863920
vn 0.024714 -0.503020 0.863921
vn 0.024714 -0.503020 0.863921
vn 0.024710 -0.503022 0.863920
vn 0.049082 -0.998795 0.000000
vn 0.049082 -0.998795 0.000000
vn 0.049082 -0.998795 0.000000
vn 0.049082 -0.998795 0.000000
vn 0.049082 -0.998795 0.000000
vn 0.049082 -0.998795 0.000000
vn 0.049082 -0.998795 0.000000
vn 0.049082 -0.998795 0.000000
vn 0.024715 -0.503040 -0.863910
vn 0.024715 -0.503040 -0.863910
vn 0.024711 -0.503038 -0.863911
vn 0.024715 -0.503040 -0.863910
vn 0.024720 -0.503042 -0.863908
vn 0.024715 -0.503040 -0.863910
vn 0.024715 -0.503040 -0.863910
vn 0.024720 -0.503042 -0.863908
vn -0.024714 0.503042 -0.863909
vn -0.024714 0.503042 -0.863909
vn -0.024718 0.503044 -0.863908
vn -0.024714 0.503042 -0.863909
vn -0.024711 0.503041 -0.863909
vn -0.024714 0.503042 -0.863909
vn -0.024714 0.503042 -0.863909
vn -0.024711 0.503041 -0.863909
vn -0.049077 0.998795 0.000000
vn -0.049077 0.998795 0.000000
vn -0.049077 0.998795 0.000000
vn -0.049077 0.998795 0.000000
vn -0.049077 0.998795 0.000000
vn -0.049077 0.998795 0.000000
vn -0.049077 0.998795 0.000000
vn -0.049077 0.998795 0.000000
vn 0.999998 -0.001931 -0.000000
vn 0.999998 -0.001931 0.000000
vn 0.999998 -0.001930 0.000000
vn 0.999998 -0.001931 -0.000000
vn 0.999998 -0.001930 0.000000
vn 0.999998 -0.001931 0.000000
vn 0.999998 -0.001931 0.000002
vn 0.999998 -0.001930 0.000000
vn 0.999998 -0.001930 0.000000
vn 0.999998 -0.001931 -0.000000
vn 0.999998 -0.001930 0.000000
vn 0.999998 -0.001930 0.000000
vn 0.999998 -0.001932 0.000000
vn 0.999998 -0.001931 0.000000
vn 0.999998 -0.001931 -0.000000
vn 0.999998 -0.001932 0.000000
vn 0.865952 -0.013674 0.499940
vn 0.865950 -0.013673 0.499943
vn 0.865950 -0.013673 0.499943
vn 0.865952 -0.013674 0.499940
vn 0.865950 -0.013673 0.499943
vn 0.865950 -0.013673 0.499943
vn 0.865948 -0.013673 0.499947
vn 0.865950 -0.013673 0.499943
vn -0.000000 0.000000 -1.000000
vn -0.000000 0.000000 -1.000000
vn -0.000000 0.000000 -1.000000
vn -0.000000 0.000000 -1.000000
vn -0.000000 0.000000 -1.000000
vn -0.000000 0.000000 -1.000000
vn -0.000000 -0.000000 -1.000000
vn -0.000000 0.000000 -1.000000
vn -0.865951 0.013673 0.499942
vn -0.865953 0.013673 0.499938
vn -0.865953 0.013673 0.499938
vn -0.865951 0.013673 0.499942
vn -0.865953 0.013673 0.499938
vn -0.865953 0.013673 0.499938
vn -0.865955 0.013674 0.499935
vn -0.865953 0.013673 0.499938
# 212 vertex normals

g mat2
f 4/1/1 7/2/2 5/3/3
f 5/5/5 7/6/6 6/7/7
f 6/9/9 7/10/10 4/11/11
f 14/13/13 20/14/14 15/15/15
f 15/17/17 20/18/18 16/19/19
f 16/21/21 20/22/22 17/23/23
f 17/25/25 20/26/26 18/27/27
f 18/29/29 20/30/30 19/31/31
f 19/33/33 20/34/34 14/35/35
f 9/37/37 14/38/38 15/39/39
f 8/41/41 14/42/42 9/43/43
f 10/45/45 15/46/46 16/47/47
f 9/49/49 15/50/50 10/51/51
f 11/53/53 16/54/54 17/55/55
f 10/57/57 16/58/58 11/59/59
f 12/61/61 17/62/62 18/63/63
f 11/65/65 17/66/66 12/67/67
f 13/69/69 18/70/70 19/71/71
f 12/73/73 18/74/74 13/75/75
f 8/77/77 19/78/78 14/79/79
f 13/81/81 19/82/82 8/83/83
f 12/85/85 8/86/86 10/87/87
f 10/89/89 8/90/90 9/91/91
f 11/93/93 12/94/94 10/95/95
f 13/97/97 8/98/98 12/99/99
f 27/101/101 33/102/102 28/103/103
f 28/105/105 33/106/106 29/107/107
f 29/109/109 33/110/110 30/111/111
f 30/113/113 33/114/114 31/115/115
f 31/117/117 33/118/118 32/119/119
f 32/121/121 33/122/122 27/123/123
f 22/125/125 27/126/126 28/127/127
f 21/129/129 27/130/130 22/131/131
f 23/133/133 28/134/134 29/135/135
f 22/137/137 28/138/138 23/139/139
f 24/141/141 29/142/142 30/143/143
f 23/145/145 29/146/146 24/147/147
f 25/149/149 30/150/150 31/151/151
f 24/153/153 30/154/154 25/155/155
f 26/157/157 31/158/158 32/159/159
f 25/161/161 31/162/162 26/163/163
f 21/165/165 32/166/166 27/167/167
f 26/169/169 32/170/170 21/171/171
f 25/173/173 21/174/174 23/175/175
f 23/177/177 21/178/178 22/179/179
f 24/181/181 25/182/182 23/183/183
f 26/185/185 21/186/186 25/187/187
f 5/189/189 2/190/190 4/191/191
f 4/193/193 2/194/194 1/195/195
f 6/197/197 3/198/198 5/199/199
f 5/201/201 3/202/202 2/203/203
f 4/205/205 1/206/206 6/207/207
f 6/209/209 1/210/210 3/211/211
# 53 elements

