# Created by 3DAce v2.72


g
v -3.049541 -0.159570 0.651692
v -3.049541 -0.159570 1.042281
v -3.049541 -0.435757 0.927881
v -3.049541 -0.550158 0.651692
v -3.049541 -0.435757 0.375501
v -3.049541 -0.159570 0.261101
v -3.049541 0.116619 0.375501
v -3.049541 0.231020 0.651692
v -3.049541 0.116619 0.927881
v -2.827259 -0.159570 1.042281
v -2.827259 -0.435757 0.927881
v -2.827259 -0.550158 0.651692
v -2.827259 -0.435757 0.375501
v -2.827259 -0.159570 0.261101
v -2.827259 0.116619 0.375501
v -2.827259 0.231020 0.651692
v -2.827259 0.116619 0.927881
v -2.827259 -0.159570 0.651692
v -2.904377 1.587785 0.473085
v -2.904377 -0.238535 0.768397
v -3.102504 1.587785 0.473085
v -3.102504 -0.238535 0.768397
v -3.102504 1.588875 0.239566
v -3.102504 -0.281298 0.552862
v -2.904377 1.588875 0.239566
v -2.904377 -0.281298 0.552862
v -3.102526 -0.160264 0.651692
v -3.102526 -0.160264 1.042281
v -3.102526 -0.239105 0.950822
v -3.102526 -0.327813 0.651692
v -3.102526 -0.239105 0.352560
v -3.102526 -0.160264 0.261101
v -3.102526 0.116505 0.375501
v -3.102526 0.231470 0.651692
v -3.102526 0.116505 0.927881
# 35 vertices

vt 0.497030 0.724480
vt 0.486780 0.749210
vt 0.521770 0.749210
vt 0.497030 0.724480
vt 0.521770 0.714230
vt 0.497030 0.724480
vt 0.521770 0.749210
vt 0.521770 0.714230
vt 0.546510 0.724480
vt 0.521770 0.714230
vt 0.521770 0.749210
vt 0.546510 0.724480
vt 0.556750 0.749210
vt 0.546510 0.724480
vt 0.521770 0.749210
vt 0.556750 0.749210
vt 0.546510 0.773950
vt 0.556750 0.749210
vt 0.521770 0.749210
vt 0.546510 0.773950
vt 0.521770 0.784200
vt 0.546510 0.773950
vt 0.521770 0.749210
vt 0.521770 0.784200
vt 0.497030 0.773950
vt 0.521770 0.784200
vt 0.521770 0.749210
vt 0.497030 0.773950
vt 0.486780 0.749210
vt 0.497030 0.773950
vt 0.521770 0.749210
vt 0.486780 0.749210
vt 0.486780 0.749210
vt 0.497030 0.724480
vt 0.521770 0.749210
vt 0.486780 0.749210
vt 0.497030 0.724480
vt 0.521770 0.714230
vt 0.521770 0.749210
vt 0.497030 0.724480
vt 0.521770 0.714230
vt 0.546510 0.724480
vt 0.521770 0.749210
vt 0.521770 0.714230
vt 0.546510 0.724480
vt 0.556750 0.749210
vt 0.521770 0.749210
vt 0.546510 0.724480
vt 0.556750 0.749210
vt 0.546510 0.773950
vt 0.521770 0.749210
vt 0.556750 0.749210
vt 0.546510 0.773950
vt 0.521770 0.784200
vt 0.521770 0.749210
vt 0.546510 0.773950
vt 0.521770 0.784200
vt 0.497030 0.773950
vt 0.521770 0.749210
vt 0.521770 0.784200
vt 0.497030 0.773950
vt 0.486780 0.749210
vt 0.521770 0.749210
vt 0.497030 0.773950
vt 0.618190 0.724680
vt 0.613070 0.729090
vt 0.634930 0.729090
vt 0.618190 0.724680
vt 0.634930 0.719710
vt 0.618190 0.724680
vt 0.634930 0.729090
vt 0.634930 0.719710
vt 0.651680 0.724680
vt 0.634930 0.719710
vt 0.634930 0.729090
vt 0.651680 0.724680
vt 0.656800 0.729090
vt 0.651680 0.724680
vt 0.634930 0.729090
vt 0.656800 0.729090
vt 0.650390 0.744580
vt 0.656800 0.729090
vt 0.634930 0.729090
vt 0.650390 0.744580
vt 0.634930 0.751020
vt 0.650390 0.744580
vt 0.634930 0.729090
vt 0.634930 0.751020
vt 0.619470 0.744580
vt 0.634930 0.751020
vt 0.634930 0.729090
vt 0.619470 0.744580
vt 0.613070 0.729090
vt 0.619470 0.744580
vt 0.634930 0.729090
vt 0.613070 0.729090
vt 0.497030 0.724480
vt 0.497030 0.724480
vt 0.486780 0.749210
vt 0.497030 0.724480
vt 0.486780 0.749210
vt 0.497030 0.724480
vt 0.486780 0.749210
vt 0.486780 0.749210
vt 0.521770 0.714230
vt 0.521770 0.714230
vt 0.497030 0.724480
vt 0.521770 0.714230
vt 0.497030 0.724480
vt 0.521770 0.714230
vt 0.497030 0.724480
vt 0.497030 0.724480
vt 0.546510 0.724480
vt 0.546510 0.724480
vt 0.521770 0.714230
vt 0.546510 0.724480
vt 0.521770 0.714230
vt 0.546510 0.724480
vt 0.521770 0.714230
vt 0.521770 0.714230
vt 0.556750 0.749210
vt 0.556750 0.749210
vt 0.546510 0.724480
vt 0.556750 0.749210
vt 0.546510 0.724480
vt 0.556750 0.749210
vt 0.546510 0.724480
vt 0.546510 0.724480
vt 0.546510 0.773950
vt 0.546510 0.773950
vt 0.556750 0.749210
vt 0.546510 0.773950
vt 0.556750 0.749210
vt 0.546510 0.773950
vt 0.556750 0.749210
vt 0.556750 0.749210
vt 0.521770 0.784200
vt 0.521770 0.784200
vt 0.546510 0.773950
vt 0.521770 0.784200
vt 0.546510 0.773950
vt 0.521770 0.784200
vt 0.546510 0.773950
vt 0.546510 0.773950
vt 0.497030 0.773950
vt 0.497030 0.773950
vt 0.521770 0.784200
vt 0.497030 0.773950
vt 0.521770 0.784200
vt 0.497030 0.773950
vt 0.521770 0.784200
vt 0.521770 0.784200
vt 0.486780 0.749210
vt 0.486780 0.749210
vt 0.497030 0.773950
vt 0.486780 0.749210
vt 0.497030 0.773950
vt 0.486780 0.749210
vt 0.497030 0.773950
vt 0.497030 0.773950
vt 0.644930 0.826940
vt 0.628400 0.724710
vt 0.628400 0.724710
vt 0.644930 0.826940
vt 0.644930 0.826940
vt 0.644930 0.826940
vt 0.628400 0.724710
vt 0.644930 0.826940
vt 0.658000 0.827010
vt 0.640460 0.722320
vt 0.628400 0.724710
vt 0.658000 0.827010
vt 0.644930 0.826940
vt 0.658000 0.827010
vt 0.628400 0.724710
vt 0.644930 0.826940
vt 0.658000 0.827010
vt 0.640460 0.722320
vt 0.640460 0.722320
vt 0.658000 0.827010
vt 0.658000 0.827010
vt 0.658000 0.827010
vt 0.640460 0.722320
vt 0.658000 0.827010
vt 0.644930 0.826940
vt 0.628400 0.724710
vt 0.640460 0.722320
vt 0.644930 0.826940
vt 0.658000 0.827010
vt 0.644930 0.826940
vt 0.640460 0.722320
vt 0.658000 0.827010
vt 0.628400 0.724710
vt 0.640460 0.722320
vt 0.640460 0.722320
vt 0.628400 0.724710
vt 0.628400 0.724710
vt 0.628400 0.724710
vt 0.640460 0.722320
vt 0.628400 0.724710
# 200 texture vertices

vn -1.000000 -0.000000 0.000000
vn -1.000000 0.000000 0.000000
vn -1.000000 0.000000 0.000000
vn -1.000000 -0.000000 0.000000
vn -1.000000 -0.000000 0.000000
vn -1.000000 -0.000000 0.000000
vn -1.000000 0.000000 0.000000
vn -1.000000 -0.000000 0.000000
vn -1.000000 0.000000 -0.000000
vn -1.000000 -0.000000 0.000000
vn -1.000000 0.000000 0.000000
vn -1.000000 0.000000 -0.000000
vn -1.000000 0.000000 0.000000
vn -1.000000 0.000000 -0.000000
vn -1.000000 0.000000 0.000000
vn -1.000000 0.000000 0.000000
vn -1.000000 0.000000 0.000000
vn -1.000000 0.000000 0.000000
vn -1.000000 0.000000 0.000000
vn -1.000000 0.000000 0.000000
vn -1.000000 0.000000 0.000000
vn -1.000000 0.000000 0.000000
vn -1.000000 0.000000 0.000000
vn -1.000000 0.000000 0.000000
vn -1.000000 0.000000 0.000000
vn -1.000000 0.000000 0.000000
vn -1.000000 0.000000 0.000000
vn -1.000000 0.000000 0.000000
vn -1.000000 0.000000 0.000000
vn -1.000000 0.000000 0.000000
vn -1.000000 0.000000 0.000000
vn -1.000000 0.000000 0.000000
vn 1.000000 0.000000 0.000000
vn 1.000000 0.000000 -0.000000
vn 1.000000 0.000000 0.000000
vn 1.000000 0.000000 0.000000
vn 1.000000 0.000000 -0.000000
vn 1.000000 0.000000 0.000000
vn 1.000000 0.000000 0.000000
vn 1.000000 0.000000 -0.000000
vn 1.000000 0.000000 0.000000
vn 1.000000 0.000000 0.000000
vn 1.000000 0.000000 0.000000
vn 1.000000 0.000000 0.000000
vn 1.000000 0.000000 0.000000
vn 1.000000 0.000000 0.000000
vn 1.000000 0.000000 0.000000
vn 1.000000 0.000000 0.000000
vn 1.000000 0.000000 0.000000
vn 1.000000 0.000000 0.000000
vn 1.000000 0.000000 0.000000
vn 1.000000 0.000000 0.000000
vn 1.000000 0.000000 0.000000
vn 1.000000 -0.000000 0.000000
vn 1.000000 0.000000 0.000000
vn 1.000000 0.000000 0.000000
vn 1.000000 -0.000000 0.000000
vn 1.000000 -0.000000 0.000000
vn 1.000000 0.000000 0.000000
vn 1.000000 -0.000000 0.000000
vn 1.000000 -0.000000 0.000000
vn 1.000000 0.000000 0.000000
vn 1.000000 0.000000 0.000000
vn 1.000000 -0.000000 0.000000
vn -1.000000 -0.000000 0.000000
vn -1.000000 0.000000 0.000000
vn -1.000000 0.000000 0.000000
vn -1.000000 -0.000000 0.000000
vn -1.000000 -0.000000 0.000000
vn -1.000000 -0.000000 0.000000
vn -1.000000 0.000000 0.000000
vn -1.000000 -0.000000 0.000000
vn -1.000000 0.000000 -0.000000
vn -1.000000 -0.000000 0.000000
vn -1.000000 0.000000 0.000000
vn -1.000000 0.000000 -0.000000
vn -1.000000 0.000000 0.000000
vn -1.000000 0.000000 -0.000000
vn -1.000000 0.000000 0.000000
vn -1.000000 0.000000 0.000000
vn -1.000000 0.000000 0.000000
vn -1.000000 0.000000 0.000000
vn -1.000000 0.000000 0.000000
vn -1.000000 0.000000 0.000000
vn -1.000000 0.000000 0.000000
vn -1.000000 0.000000 0.000000
vn -1.000000 0.000000 0.000000
vn -1.000000 0.000000 0.000000
vn -1.000000 0.000000 0.000000
vn -1.000000 0.000000 0.000000
vn -1.000000 0.000000 0.000000
vn -1.000000 0.000000 0.000000
vn -1.000000 0.000000 0.000000
vn -1.000000 0.000000 0.000000
vn -1.000000 0.000000 0.000000
vn -1.000000 0.000000 0.000000
vn 0.000000 -0.603748 0.797175
vn 0.000000 -0.797175 0.603748
vn 0.000000 -0.136774 0.990602
vn 0.000000 -0.603748 0.797175
vn 0.000000 0.136771 0.990603
vn 0.000000 -0.603748 0.797175
vn 0.000000 -0.136774 0.990602
vn 0.000000 0.136771 0.990603
vn 0.000000 -0.990602 0.136774
vn 0.000000 -0.990603 -0.136772
vn 0.000000 -0.797175 0.603748
vn 0.000000 -0.990602 0.136774
vn 0.000000 -0.603748 0.797176
vn 0.000000 -0.990602 0.136774
vn 0.000000 -0.797175 0.603748
vn 0.000000 -0.603748 0.797176
vn 0.000000 -0.797176 -0.603747
vn 0.000000 -0.603748 -0.797175
vn 0.000000 -0.990603 -0.136772
vn 0.000000 -0.797176 -0.603747
vn 0.000000 -0.990602 0.136774
vn 0.000000 -0.797176 -0.603747
vn 0.000000 -0.990603 -0.136772
vn 0.000000 -0.990602 0.136774
vn 0.000000 -0.136774 -0.990602
vn 0.000000 0.136771 -0.990603
vn 0.000000 -0.603748 -0.797175
vn 0.000000 -0.136774 -0.990602
vn 0.000000 -0.797176 -0.603747
vn 0.000000 -0.136774 -0.990602
vn 0.000000 -0.603748 -0.797175
vn 0.000000 -0.797176 -0.603747
vn 0.000000 0.603747 -0.797176
vn 0.000000 0.797176 -0.603747
vn 0.000000 0.136771 -0.990603
vn 0.000000 0.603747 -0.797176
vn 0.000000 -0.136774 -0.990602
vn 0.000000 0.603747 -0.797176
vn 0.000000 0.136771 -0.990603
vn 0.000000 -0.136774 -0.990602
vn 0.000000 0.990603 -0.136772
vn 0.000000 0.990602 0.136774
vn 0.000000 0.797176 -0.603747
vn 0.000000 0.990603 -0.136772
vn 0.000000 0.603747 -0.797176
vn 0.000000 0.990603 -0.136772
vn 0.000000 0.797176 -0.603747
vn 0.000000 0.603747 -0.797176
vn 0.000000 0.797175 0.603749
vn 0.000000 0.603746 0.797177
vn 0.000000 0.990602 0.136774
vn 0.000000 0.797175 0.603749
vn 0.000000 0.990603 -0.136772
vn 0.000000 0.797175 0.603749
vn 0.000000 0.990602 0.136774
vn 0.000000 0.990603 -0.136772
vn 0.000000 0.136771 0.990603
vn 0.000000 -0.136774 0.990602
vn 0.000000 0.603746 0.797177
vn 0.000000 0.136771 0.990603
vn 0.000000 0.797175 0.603749
vn 0.000000 0.136771 0.990603
vn 0.000000 0.603746 0.797177
vn 0.000000 0.797175 0.603749
vn 0.000000 0.159625 0.987178
vn 0.000000 0.159625 0.987178
vn 0.000000 0.159625 0.987178
vn 0.000000 0.159625 0.987178
vn -0.000000 0.159625 0.987178
vn 0.000000 0.159625 0.987178
vn 0.000000 0.159625 0.987178
vn -0.000000 0.159625 0.987178
vn -1.000000 0.000000 0.000000
vn -1.000000 0.000000 -0.000000
vn -1.000000 0.000000 0.000000
vn -1.000000 0.000000 0.000000
vn -1.000000 0.000000 0.000000
vn -1.000000 0.000000 0.000000
vn -1.000000 0.000000 0.000000
vn -1.000000 0.000000 0.000000
vn 0.000000 -0.165220 -0.986257
vn 0.000000 -0.165220 -0.986257
vn 0.000000 -0.165220 -0.986257
vn 0.000000 -0.165220 -0.986257
vn -0.000000 -0.165220 -0.986257
vn 0.000000 -0.165220 -0.986257
vn 0.000000 -0.165220 -0.986257
vn -0.000000 -0.165220 -0.986257
vn 1.000000 0.000000 0.000000
vn 1.000000 -0.000000 0.000000
vn 1.000000 0.000000 0.000000
vn 1.000000 0.000000 0.000000
vn 1.000000 0.000000 0.000000
vn 1.000000 0.000000 0.000000
vn 1.000000 0.000000 0.000000
vn 1.000000 0.000000 0.000000
vn 0.000000 -0.980881 0.194611
vn 0.000000 -0.980881 0.194611
vn 0.000000 -0.980881 0.194611
vn 0.000000 -0.980881 0.194611
vn 0.000000 -0.980881 0.194611
vn 0.000000 -0.980881 0.194611
vn 0.000000 -0.980881 0.194611
vn 0.000000 -0.980881 0.194611
# 200 vertex normals

g mat1
f 3/1/1 2/2/2 1/3/3
f 4/5/5 3/6/6 1/7/7
f 5/9/9 4/10/10 1/11/11
f 6/13/13 5/14/14 1/15/15
f 7/17/17 6/18/18 1/19/19
f 8/21/21 7/22/22 1/23/23
f 9/25/25 8/26/26 1/27/27
f 2/29/29 9/30/30 1/31/31
f 10/33/33 11/34/34 18/35/35
f 11/37/37 12/38/38 18/39/39
f 12/41/41 13/42/42 18/43/43
f 13/45/45 14/46/46 18/47/47
f 14/49/49 15/50/50 18/51/51
f 15/53/53 16/54/54 18/55/55
f 16/57/57 17/58/58 18/59/59
f 17/61/61 10/62/62 18/63/63
f 29/65/65 28/66/66 27/67/67
f 30/69/69 29/70/70 27/71/71
f 31/73/73 30/74/74 27/75/75
f 32/77/77 31/78/78 27/79/79
f 33/81/81 32/82/82 27/83/83
f 34/85/85 33/86/86 27/87/87
f 35/89/89 34/90/90 27/91/91
f 28/93/93 35/94/94 27/95/95
f 3/97/97 11/98/98 10/99/99
f 2/101/101 3/102/102 10/103/103
f 4/105/105 12/106/106 11/107/107
f 3/109/109 4/110/110 11/111/111
f 5/113/113 13/114/114 12/115/115
f 4/117/117 5/118/118 12/119/119
f 6/121/121 14/122/122 13/123/123
f 5/125/125 6/126/126 13/127/127
f 7/129/129 15/130/130 14/131/131
f 6/133/133 7/134/134 14/135/135
f 8/137/137 16/138/138 15/139/139
f 7/141/141 8/142/142 15/143/143
f 9/145/145 17/146/146 16/147/147
f 8/149/149 9/150/150 16/151/151
f 2/153/153 10/154/154 17/155/155
f 9/157/157 2/158/158 17/159/159
f 21/161/161 22/162/162 20/163/163
f 19/165/165 21/166/166 20/167/167
f 23/169/169 24/170/170 22/171/171
f 21/173/173 23/174/174 22/175/175
f 25/177/177 26/178/178 24/179/179
f 23/181/181 25/182/182 24/183/183
f 19/185/185 20/186/186 26/187/187
f 25/189/189 19/190/190 26/191/191
f 22/193/193 24/194/194 26/195/195
f 20/197/197 22/198/198 26/199/199
# 50 elements

