# Created by 3DAce v2.72


g
v 0.004279 2.118051 4.452329
v -0.201064 2.118051 4.346046
v -0.152562 1.984791 4.346046
v -0.029748 1.913886 4.346046
v 0.109909 1.938512 4.346046
v 0.201064 2.047146 4.346046
v 0.201064 2.188957 4.346046
v 0.109909 2.297593 4.346046
v -0.029748 2.322217 4.346046
v -0.152562 2.251311 4.346046
v -0.384524 2.118051 3.594834
v -0.291765 1.863200 3.594834
v -0.056891 1.727597 3.594834
v 0.210195 1.774691 3.594834
v 0.384524 1.982449 3.594834
v 0.384524 2.253654 3.594834
v 0.210195 2.461412 3.594834
v -0.056891 2.508506 3.594834
v -0.291765 2.372903 3.594834
v -0.328730 2.118051 4.020127
v -0.249430 1.900178 4.020127
v -0.048637 1.784251 4.020127
v 0.179697 1.824512 4.020127
v 0.328730 2.002124 4.020127
v 0.328730 2.233979 4.020127
v 0.179697 2.411593 4.020127
v -0.048637 2.451855 4.020127
v -0.249430 2.335925 4.020127
v -0.002917 2.121544 3.798475
v 1.295657 3.195809 3.686422
v 1.467083 2.898890 3.798475
v -0.003224 2.123726 3.798475
v -1.582851 2.711189 3.686422
v -1.411426 3.008106 3.798475
v -0.001511 2.123346 3.798475
v 0.279540 0.461613 3.686422
v -0.063310 0.461613 3.798475
# 37 vertices

vt 0.410310 0.744230
vt 0.410310 0.732300
vt 0.400790 0.744230
vt 0.410310 0.744230
vt 0.410310 0.732300
vt 0.410310 0.725950
vt 0.400790 0.744230
vt 0.410310 0.732300
vt 0.410310 0.725950
vt 0.410310 0.728150
vt 0.400790 0.744230
vt 0.410310 0.725950
vt 0.410310 0.728150
vt 0.410310 0.737880
vt 0.400790 0.744230
vt 0.410310 0.728150
vt 0.410310 0.737880
vt 0.410310 0.750580
vt 0.400790 0.744230
vt 0.410310 0.737880
vt 0.410310 0.750580
vt 0.410310 0.760310
vt 0.400790 0.744230
vt 0.410310 0.750580
vt 0.410310 0.760310
vt 0.410310 0.762520
vt 0.400790 0.744230
vt 0.410310 0.760310
vt 0.410310 0.762520
vt 0.410310 0.756170
vt 0.400790 0.744230
vt 0.410310 0.762520
vt 0.410310 0.756170
vt 0.410310 0.744230
vt 0.400790 0.744230
vt 0.410310 0.756170
vt 0.956710 0.847390
vt 0.972060 0.820800
vt 0.840400 0.751170
vt 0.956710 0.847390
vt 0.840400 0.751170
vt 0.972060 0.820800
vt 0.956710 0.847390
vt 0.840400 0.751170
vt 0.698890 0.803980
vt 0.714240 0.830580
vt 0.840370 0.751370
vt 0.698890 0.803980
vt 0.840370 0.751370
vt 0.714240 0.830580
vt 0.698890 0.803980
vt 0.840370 0.751370
vt 0.865700 0.602500
vt 0.834990 0.602500
vt 0.840520 0.751330
vt 0.865700 0.602500
vt 0.840520 0.751330
vt 0.834990 0.602500
vt 0.865700 0.602500
vt 0.840520 0.751330
vt 0.439500 0.744230
vt 0.477590 0.744230
vt 0.477590 0.721410
vt 0.439500 0.744230
vt 0.439500 0.724720
vt 0.439500 0.744230
vt 0.477590 0.721410
vt 0.439500 0.724720
vt 0.410310 0.732300
vt 0.410310 0.744230
vt 0.439500 0.744230
vt 0.410310 0.732300
vt 0.439500 0.724720
vt 0.410310 0.732300
vt 0.439500 0.744230
vt 0.439500 0.724720
vt 0.439500 0.724720
vt 0.477590 0.721410
vt 0.477590 0.709260
vt 0.439500 0.724720
vt 0.439500 0.714330
vt 0.439500 0.724720
vt 0.477590 0.709260
vt 0.439500 0.714330
vt 0.410310 0.725950
vt 0.410310 0.732300
vt 0.439500 0.724720
vt 0.410310 0.725950
vt 0.439500 0.714330
vt 0.410310 0.725950
vt 0.439500 0.724720
vt 0.439500 0.714330
vt 0.439500 0.714330
vt 0.477590 0.709260
vt 0.477590 0.713480
vt 0.439500 0.714330
vt 0.439500 0.717940
vt 0.439500 0.714330
vt 0.477590 0.713480
vt 0.439500 0.717940
vt 0.410310 0.728150
vt 0.410310 0.725950
vt 0.439500 0.714330
vt 0.410310 0.728150
vt 0.439500 0.717940
vt 0.410310 0.728150
vt 0.439500 0.714330
vt 0.439500 0.717940
vt 0.439500 0.717940
vt 0.477590 0.713480
vt 0.477590 0.732090
vt 0.439500 0.717940
vt 0.439500 0.733850
vt 0.439500 0.717940
vt 0.477590 0.732090
vt 0.439500 0.733850
vt 0.410310 0.737880
vt 0.410310 0.728150
vt 0.439500 0.717940
vt 0.410310 0.737880
vt 0.439500 0.733850
vt 0.410310 0.737880
vt 0.439500 0.717940
vt 0.439500 0.733850
vt 0.439500 0.733850
vt 0.477590 0.732090
vt 0.477590 0.756380
vt 0.439500 0.733850
vt 0.439500 0.754610
vt 0.439500 0.733850
vt 0.477590 0.756380
vt 0.439500 0.754610
vt 0.410310 0.750580
vt 0.410310 0.737880
vt 0.439500 0.733850
vt 0.410310 0.750580
vt 0.439500 0.754610
vt 0.410310 0.750580
vt 0.439500 0.733850
vt 0.439500 0.754610
vt 0.439500 0.754610
vt 0.477590 0.756380
vt 0.477590 0.774990
vt 0.439500 0.754610
vt 0.439500 0.770520
vt 0.439500 0.754610
vt 0.477590 0.774990
vt 0.439500 0.770520
vt 0.410310 0.760310
vt 0.410310 0.750580
vt 0.439500 0.754610
vt 0.410310 0.760310
vt 0.439500 0.770520
vt 0.410310 0.760310
vt 0.439500 0.754610
vt 0.439500 0.770520
vt 0.439500 0.770520
vt 0.477590 0.774990
vt 0.477590 0.779200
vt 0.439500 0.770520
vt 0.439500 0.774130
vt 0.439500 0.770520
vt 0.477590 0.779200
vt 0.439500 0.774130
vt 0.410310 0.760310
vt 0.439500 0.770520
vt 0.439500 0.774130
vt 0.410310 0.760310
vt 0.410310 0.762520
vt 0.410310 0.760310
vt 0.439500 0.774130
vt 0.410310 0.762520
vt 0.439500 0.774130
vt 0.477590 0.779200
vt 0.477590 0.767060
vt 0.439500 0.774130
vt 0.439500 0.763750
vt 0.439500 0.774130
vt 0.477590 0.767060
vt 0.439500 0.763750
vt 0.410310 0.756170
vt 0.410310 0.762520
vt 0.439500 0.774130
vt 0.410310 0.756170
vt 0.439500 0.763750
vt 0.410310 0.756170
vt 0.439500 0.774130
vt 0.439500 0.763750
vt 0.439500 0.763750
vt 0.477590 0.767060
vt 0.477590 0.744230
vt 0.439500 0.763750
vt 0.439500 0.744230
vt 0.439500 0.763750
vt 0.477590 0.744230
vt 0.439500 0.744230
vt 0.410310 0.744230
vt 0.410310 0.756170
vt 0.439500 0.763750
vt 0.410310 0.744230
vt 0.439500 0.744230
vt 0.410310 0.744230
vt 0.439500 0.763750
vt 0.439500 0.744230
# 204 texture vertices

vn -0.784657 0.070898 0.615863
vn -0.646155 -0.449335 0.616913
vn -0.002127 -0.000001 0.999998
vn -0.784657 0.070898 0.615863
vn -0.646155 -0.449335 0.616913
vn -0.205636 -0.756893 0.620345
vn -0.002127 -0.000001 0.999998
vn -0.646155 -0.449335 0.616913
vn -0.205636 -0.756893 0.620345
vn 0.327606 -0.708975 0.624523
vn -0.002128 -0.000001 0.999998
vn -0.205636 -0.756893 0.620345
vn 0.327606 -0.708975 0.624523
vn 0.704612 -0.331318 0.627496
vn -0.002127 -0.000001 0.999998
vn 0.327606 -0.708975 0.624523
vn 0.704612 -0.331318 0.627496
vn 0.752329 0.199329 0.627908
vn -0.002127 -0.000001 0.999998
vn 0.704612 -0.331318 0.627496
vn 0.752329 0.199329 0.627908
vn 0.404332 0.701163 0.587270
vn -0.002127 -0.000001 0.999998
vn 0.752329 0.199329 0.627908
vn 0.404332 0.701163 0.587270
vn -0.127912 0.722669 0.679255
vn -0.002128 -0.000001 0.999998
vn 0.404332 0.701163 0.587270
vn -0.127912 0.722669 0.679255
vn -0.554689 0.557455 0.617708
vn -0.002127 -0.000001 0.999998
vn -0.127912 0.722669 0.679255
vn -0.554689 0.557455 0.617708
vn -0.784657 0.070898 0.615863
vn -0.002128 -0.000001 0.999998
vn -0.554689 0.557455 0.617708
vn 0.145313 -0.274794 -0.950459
vn 0.145313 -0.274794 -0.950459
vn 0.145313 -0.274794 -0.950459
vn 0.145313 -0.274794 -0.950459
vn -0.145313 0.274794 0.950459
vn -0.145313 0.274794 0.950459
vn -0.145313 0.274794 0.950459
vn -0.145313 0.274794 0.950459
vn 0.165322 0.263243 -0.950459
vn 0.165322 0.263243 -0.950459
vn 0.165322 0.263243 -0.950459
vn 0.165322 0.263243 -0.950459
vn -0.165322 -0.263243 0.950459
vn -0.165322 -0.263243 0.950459
vn -0.165322 -0.263243 0.950459
vn -0.165322 -0.263243 0.950459
vn -0.310636 0.011552 -0.950459
vn -0.310636 0.011552 -0.950459
vn -0.310636 0.011552 -0.950459
vn -0.310636 0.011552 -0.950459
vn 0.310636 -0.011552 0.950459
vn 0.310636 -0.011552 0.950459
vn 0.310636 -0.011552 0.950459
vn 0.310636 -0.011552 0.950459
vn -0.961724 -0.116680 0.247936
vn -0.984407 0.119432 0.129144
vn -0.830819 -0.541205 0.129759
vn -0.961724 -0.116680 0.247936
vn -0.661443 -0.707055 0.250133
vn -0.961724 -0.116680 0.247936
vn -0.830819 -0.541205 0.129759
vn -0.661443 -0.707055 0.250133
vn -0.646155 -0.449335 0.616913
vn -0.784657 0.070898 0.615863
vn -0.961724 -0.116680 0.247936
vn -0.646155 -0.449335 0.616913
vn -0.661443 -0.707055 0.250133
vn -0.646155 -0.449335 0.616913
vn -0.961724 -0.116680 0.247936
vn -0.661443 -0.707055 0.250133
vn -0.661443 -0.707055 0.250133
vn -0.830819 -0.541205 0.129759
vn -0.288501 -0.948347 0.131930
vn -0.661443 -0.707055 0.250133
vn -0.052231 -0.965641 0.254578
vn -0.661443 -0.707055 0.250133
vn -0.288501 -0.948347 0.131930
vn -0.052231 -0.965641 0.254578
vn -0.205636 -0.756893 0.620345
vn -0.646155 -0.449335 0.616912
vn -0.661443 -0.707055 0.250133
vn -0.205636 -0.756893 0.620345
vn -0.052231 -0.965641 0.254578
vn -0.205636 -0.756893 0.620345
vn -0.661443 -0.707055 0.250133
vn -0.052231 -0.965641 0.254578
vn -0.052231 -0.965641 0.254578
vn -0.288501 -0.948347 0.131930
vn 0.388441 -0.911584 0.134643
vn -0.052231 -0.965641 0.254578
vn 0.579977 -0.772305 0.259176
vn -0.052231 -0.965641 0.254578
vn 0.388441 -0.911584 0.134643
vn 0.579977 -0.772305 0.259176
vn 0.327606 -0.708975 0.624523
vn -0.205636 -0.756893 0.620345
vn -0.052231 -0.965641 0.254578
vn 0.327606 -0.708975 0.624523
vn 0.579977 -0.772305 0.259176
vn 0.327606 -0.708975 0.624523
vn -0.052231 -0.965641 0.254578
vn 0.579977 -0.772305 0.259176
vn 0.579977 -0.772305 0.259176
vn 0.388441 -0.911584 0.134643
vn 0.883290 -0.448478 0.136626
vn 0.579977 -0.772305 0.259176
vn 0.940058 -0.218538 0.261785
vn 0.579977 -0.772305 0.259176
vn 0.883290 -0.448478 0.136626
vn 0.940058 -0.218538 0.261785
vn 0.704612 -0.331318 0.627496
vn 0.327606 -0.708975 0.624523
vn 0.579977 -0.772305 0.259176
vn 0.704612 -0.331318 0.627496
vn 0.940058 -0.218538 0.261785
vn 0.704612 -0.331317 0.627496
vn 0.579977 -0.772305 0.259175
vn 0.940058 -0.218538 0.261785
vn 0.940058 -0.218538 0.261785
vn 0.883290 -0.448478 0.136626
vn 0.964863 0.224239 0.136954
vn 0.940058 -0.218538 0.261785
vn 0.860669 0.437060 0.261203
vn 0.940058 -0.218538 0.261785
vn 0.964863 0.224239 0.136954
vn 0.860669 0.437060 0.261203
vn 0.752329 0.199329 0.627908
vn 0.704612 -0.331318 0.627496
vn 0.940058 -0.218538 0.261785
vn 0.752329 0.199329 0.627908
vn 0.860669 0.437060 0.261203
vn 0.752329 0.199329 0.627908
vn 0.940058 -0.218538 0.261785
vn 0.860669 0.437060 0.261203
vn 0.860669 0.437060 0.261203
vn 0.964863 0.224239 0.136954
vn 0.595091 0.792158 0.135469
vn 0.860669 0.437060 0.261203
vn 0.421923 0.875721 0.234722
vn 0.860669 0.437060 0.261203
vn 0.595091 0.792158 0.135469
vn 0.421923 0.875721 0.234722
vn 0.404332 0.701164 0.587270
vn 0.752329 0.199329 0.627908
vn 0.860669 0.437060 0.261203
vn 0.404332 0.701164 0.587270
vn 0.421923 0.875721 0.234722
vn 0.404332 0.701164 0.587270
vn 0.860669 0.437060 0.261203
vn 0.421923 0.875721 0.234722
vn 0.421923 0.875721 0.234722
vn 0.595091 0.792158 0.135469
vn -0.053349 0.989697 0.132869
vn 0.421923 0.875721 0.234722
vn -0.217998 0.937252 0.272094
vn 0.421923 0.875721 0.234722
vn -0.053349 0.989697 0.132869
vn -0.217998 0.937252 0.272094
vn 0.404332 0.701164 0.587270
vn 0.421923 0.875721 0.234722
vn -0.217998 0.937252 0.272094
vn 0.404332 0.701164 0.587270
vn -0.127912 0.722669 0.679255
vn 0.404332 0.701163 0.587270
vn -0.217998 0.937252 0.272094
vn -0.127912 0.722669 0.679255
vn -0.217998 0.937252 0.272094
vn -0.053349 0.989697 0.132869
vn -0.677247 0.724113 0.130372
vn -0.217998 0.937252 0.272094
vn -0.811571 0.528523 0.249028
vn -0.217998 0.937252 0.272094
vn -0.677247 0.724113 0.130372
vn -0.811571 0.528523 0.249028
vn -0.554689 0.557455 0.617708
vn -0.127912 0.722669 0.679255
vn -0.217998 0.937252 0.272094
vn -0.554689 0.557455 0.617708
vn -0.811571 0.528523 0.249028
vn -0.554689 0.557455 0.617708
vn -0.217998 0.937252 0.272094
vn -0.811571 0.528523 0.249028
vn -0.811571 0.528523 0.249028
vn -0.677247 0.724113 0.130372
vn -0.984407 0.119432 0.129144
vn -0.811571 0.528523 0.249028
vn -0.961724 -0.116680 0.247936
vn -0.811571 0.528523 0.249028
vn -0.984407 0.119432 0.129144
vn -0.961724 -0.116680 0.247936
vn -0.784657 0.070898 0.615863
vn -0.554689 0.557455 0.617708
vn -0.811571 0.528523 0.249028
vn -0.784657 0.070898 0.615863
vn -0.961724 -0.116680 0.247936
vn -0.784657 0.070898 0.615863
vn -0.811571 0.528523 0.249028
vn -0.961724 -0.116680 0.247936
# 204 vertex normals

g mat1
f 2/1/1 3/2/2 1/3/3
f 3/5/5 4/6/6 1/7/7
f 4/9/9 5/10/10 1/11/11
f 5/13/13 6/14/14 1/15/15
f 6/17/17 7/18/18 1/19/19
f 7/21/21 8/22/22 1/23/23
f 8/25/25 9/26/26 1/27/27
f 9/29/29 10/30/30 1/31/31
f 10/33/33 2/34/34 1/35/35
f 30/37/37 31/38/38 29/39/39
f 29/41/41 31/42/42 30/43/43
f 33/45/45 34/46/46 32/47/47
f 32/49/49 34/50/50 33/51/51
f 36/53/53 37/54/54 35/55/55
f 35/57/57 37/58/58 36/59/59
f 20/61/61 11/62/62 12/63/63
f 21/65/65 20/66/66 12/67/67
f 3/69/69 2/70/70 20/71/71
f 21/73/73 3/74/74 20/75/75
f 21/77/77 12/78/78 13/79/79
f 22/81/81 21/82/82 13/83/83
f 4/85/85 3/86/86 21/87/87
f 22/89/89 4/90/90 21/91/91
f 22/93/93 13/94/94 14/95/95
f 23/97/97 22/98/98 14/99/99
f 5/101/101 4/102/102 22/103/103
f 23/105/105 5/106/106 22/107/107
f 23/109/109 14/110/110 15/111/111
f 24/113/113 23/114/114 15/115/115
f 6/117/117 5/118/118 23/119/119
f 24/121/121 6/122/122 23/123/123
f 24/125/125 15/126/126 16/127/127
f 25/129/129 24/130/130 16/131/131
f 7/133/133 6/134/134 24/135/135
f 25/137/137 7/138/138 24/139/139
f 25/141/141 16/142/142 17/143/143
f 26/145/145 25/146/146 17/147/147
f 8/149/149 7/150/150 25/151/151
f 26/153/153 8/154/154 25/155/155
f 26/157/157 17/158/158 18/159/159
f 27/161/161 26/162/162 18/163/163
f 8/165/165 26/166/166 27/167/167
f 9/169/169 8/170/170 27/171/171
f 27/173/173 18/174/174 19/175/175
f 28/177/177 27/178/178 19/179/179
f 10/181/181 9/182/182 27/183/183
f 28/185/185 10/186/186 27/187/187
f 28/189/189 19/190/190 11/191/191
f 20/193/193 28/194/194 11/195/195
f 2/197/197 10/198/198 28/199/199
f 20/201/201 2/202/202 28/203/203
# 51 elements

