# Created by 3DAce v2.72


g
v -2.410761 -0.000888 -1.105826
v -2.410761 0.298222 -1.105826
v -2.410761 0.215289 -1.318679
v -2.410761 0.003917 -1.406848
v -2.410761 -0.209083 -1.318679
v -2.410761 -0.299579 -1.105826
v -2.410761 -0.217543 -0.892970
v -2.410761 -0.010404 -0.804805
v -2.410761 0.203495 -0.892970
v -2.329586 0.295684 -1.105826
v -2.329586 0.213940 -1.318679
v -2.329586 0.003312 -1.406848
v -2.329586 -0.209810 -1.318679
v -2.329586 -0.301230 -1.105826
v -2.329586 -0.220382 -0.892970
v -2.329586 -0.013990 -0.804805
v -2.329586 0.200035 -0.892970
v -2.329586 -0.003074 -1.105826
v -2.311398 1.344198 -1.010092
v -2.311398 -0.054913 -1.010092
v -2.311398 1.351062 -1.216547
v -2.311398 -0.048808 -1.216547
v -2.425289 1.353661 -1.216547
v -2.425289 -0.046621 -1.216547
v -2.425289 1.348231 -1.010092
v -2.425289 -0.051286 -1.010092
v -2.311398 0.344307 -1.010092
v -2.311398 0.351615 -1.216547
v -2.425289 0.354454 -1.216547
v -2.425289 0.348581 -1.010092
v -2.266695 -0.058326 -0.961758
v -2.266695 -0.048614 -1.264881
v -2.266695 0.150345 -0.961758
v -2.266695 0.161145 -1.264881
# 34 vertices

vt 0.821650 0.062260
vt 0.813850 0.059030
vt 0.821650 0.051230
vt 0.821650 0.062260
vt 0.813850 0.059030
vt 0.810610 0.051230
vt 0.821650 0.051230
vt 0.813850 0.059030
vt 0.810610 0.051230
vt 0.813850 0.043430
vt 0.821650 0.051230
vt 0.810610 0.051230
vt 0.813850 0.043430
vt 0.821650 0.040190
vt 0.821650 0.051230
vt 0.813850 0.043430
vt 0.821650 0.040190
vt 0.829450 0.043430
vt 0.821650 0.051230
vt 0.821650 0.040190
vt 0.829450 0.043430
vt 0.832680 0.051230
vt 0.821650 0.051230
vt 0.829450 0.043430
vt 0.832680 0.051230
vt 0.829450 0.059030
vt 0.821650 0.051230
vt 0.832680 0.051230
vt 0.829450 0.059030
vt 0.821650 0.062260
vt 0.821650 0.051230
vt 0.829450 0.059030
vt 0.957860 0.262600
vt 0.950060 0.265830
vt 0.950060 0.254800
vt 0.957860 0.262600
vt 0.961090 0.254800
vt 0.957860 0.262600
vt 0.950060 0.254800
vt 0.961090 0.254800
vt 0.957860 0.247000
vt 0.961090 0.254800
vt 0.950060 0.254800
vt 0.957860 0.247000
vt 0.950060 0.243770
vt 0.957860 0.247000
vt 0.950060 0.254800
vt 0.950060 0.243770
vt 0.942260 0.247000
vt 0.950060 0.243770
vt 0.950060 0.254800
vt 0.942260 0.247000
vt 0.939030 0.254800
vt 0.942260 0.247000
vt 0.950060 0.254800
vt 0.939030 0.254800
vt 0.942260 0.262600
vt 0.939030 0.254800
vt 0.950060 0.254800
vt 0.942260 0.262600
vt 0.950060 0.265830
vt 0.942260 0.262600
vt 0.950060 0.254800
vt 0.950060 0.265830
vt 0.865550 0.041490
vt 0.865550 0.049290
vt 0.862580 0.049290
vt 0.865550 0.041490
vt 0.862580 0.041490
vt 0.865550 0.041490
vt 0.862580 0.049290
vt 0.862580 0.041490
vt 0.959470 0.912740
vt 0.959470 0.904940
vt 0.962450 0.904940
vt 0.959470 0.912740
vt 0.962450 0.912740
vt 0.959470 0.912740
vt 0.962450 0.904940
vt 0.962450 0.912740
vt 0.959470 0.904940
vt 0.959470 0.897140
vt 0.962450 0.897140
vt 0.959470 0.904940
vt 0.962450 0.904940
vt 0.959470 0.904940
vt 0.962450 0.897140
vt 0.962450 0.904940
vt 0.065470 0.033090
vt 0.065470 0.040890
vt 0.062500 0.040890
vt 0.065470 0.033090
vt 0.062500 0.033090
vt 0.065470 0.033090
vt 0.062500 0.040890
vt 0.062500 0.033090
vt 0.065470 0.040890
vt 0.065470 0.048690
vt 0.062500 0.048690
vt 0.065470 0.040890
vt 0.062500 0.040890
vt 0.065470 0.040890
vt 0.062500 0.048690
vt 0.062500 0.040890
vt 0.962450 0.860470
vt 0.962450 0.868270
vt 0.959470 0.868270
vt 0.962450 0.860470
vt 0.959470 0.860470
vt 0.962450 0.860470
vt 0.959470 0.868270
vt 0.959470 0.860470
vt 0.962450 0.868270
vt 0.962450 0.876070
vt 0.959470 0.876070
vt 0.962450 0.868270
vt 0.959470 0.868270
vt 0.962450 0.868270
vt 0.959470 0.876070
vt 0.959470 0.868270
vt 0.865550 0.033690
vt 0.865550 0.041490
vt 0.862580 0.041490
vt 0.865550 0.033690
vt 0.862580 0.033690
vt 0.865550 0.033690
vt 0.862580 0.041490
vt 0.862580 0.033690
vt 0.498100 0.016000
vt 0.498100 0.023560
vt 0.493930 0.023560
vt 0.498100 0.016000
vt 0.493930 0.016000
vt 0.498100 0.016000
vt 0.493930 0.023560
vt 0.493930 0.016000
vt 0.970560 0.686600
vt 0.970560 0.679040
vt 0.974740 0.679040
vt 0.970560 0.686600
vt 0.974740 0.686600
vt 0.970560 0.686600
vt 0.974740 0.679040
vt 0.974740 0.686600
vt 0.897690 0.666030
vt 0.890130 0.666030
vt 0.890130 0.632870
vt 0.897690 0.666030
vt 0.897690 0.632870
vt 0.897690 0.666030
vt 0.890130 0.632870
vt 0.897690 0.632870
vt 0.894200 0.956300
vt 0.894200 0.941540
vt 0.898380 0.941540
vt 0.894200 0.956300
vt 0.898380 0.956300
vt 0.894200 0.956300
vt 0.898380 0.941540
vt 0.898380 0.956300
vt 0.898380 0.989460
vt 0.894200 0.989460
vt 0.894200 0.956300
vt 0.898380 0.989460
vt 0.898380 0.956300
vt 0.898380 0.989460
vt 0.894200 0.956300
vt 0.898380 0.956300
vt 0.894200 0.872050
vt 0.894200 0.857280
vt 0.901770 0.857280
vt 0.894200 0.872050
vt 0.901770 0.872050
vt 0.894200 0.872050
vt 0.901770 0.857280
vt 0.901770 0.872050
vt 0.901770 0.905210
vt 0.894200 0.905210
vt 0.894200 0.872050
vt 0.901770 0.905210
vt 0.901770 0.872050
vt 0.901770 0.905210
vt 0.894200 0.872050
vt 0.901770 0.872050
vt 0.873880 0.552050
vt 0.873880 0.537290
vt 0.878050 0.537290
vt 0.873880 0.552050
vt 0.878050 0.552050
vt 0.873880 0.552050
vt 0.878050 0.537290
vt 0.878050 0.552050
vt 0.878050 0.585210
vt 0.873880 0.585210
vt 0.873880 0.552050
vt 0.878050 0.585210
vt 0.878050 0.552050
vt 0.878050 0.585210
vt 0.873880 0.552050
vt 0.878050 0.552050
vt 0.976370 0.408980
vt 0.976370 0.423750
vt 0.974600 0.416720
vt 0.976370 0.408980
vt 0.974600 0.408980
vt 0.976370 0.408980
vt 0.974600 0.416720
vt 0.974600 0.408980
vt 0.974740 0.686600
vt 0.974740 0.679040
vt 0.976370 0.677270
vt 0.974740 0.686600
vt 0.976370 0.688380
vt 0.974740 0.686600
vt 0.976370 0.677270
vt 0.976370 0.688380
vt 0.974580 0.753930
vt 0.974580 0.739160
vt 0.976360 0.739160
vt 0.974580 0.753930
vt 0.976360 0.746900
vt 0.974580 0.753930
vt 0.976360 0.739160
vt 0.976360 0.746900
vt 0.897690 0.632870
vt 0.890130 0.632870
vt 0.888350 0.625850
vt 0.897690 0.632870
vt 0.899460 0.625850
vt 0.897690 0.632870
vt 0.888350 0.625850
vt 0.899460 0.625850
vt 0.888350 0.625850
vt 0.888350 0.618110
vt 0.899460 0.618110
vt 0.888350 0.625850
vt 0.899460 0.625850
vt 0.888350 0.625850
vt 0.899460 0.618110
vt 0.899460 0.625850
# 240 texture vertices

vn -1.000000 0.000000 0.000000
vn -1.000000 0.000000 0.000000
vn -1.000000 0.000000 0.000000
vn -1.000000 0.000000 0.000000
vn -1.000000 0.000000 0.000000
vn -1.000000 0.000000 0.000000
vn -1.000000 0.000000 0.000000
vn -1.000000 0.000000 0.000000
vn -1.000000 0.000000 0.000000
vn -1.000000 0.000000 -0.000000
vn -1.000000 0.000000 0.000000
vn -1.000000 0.000000 0.000000
vn -1.000000 0.000000 -0.000000
vn -1.000000 -0.000000 0.000000
vn -1.000000 0.000000 0.000000
vn -1.000000 0.000000 -0.000000
vn -1.000000 -0.000000 0.000000
vn -1.000000 -0.000000 0.000000
vn -1.000000 0.000000 0.000000
vn -1.000000 -0.000000 0.000000
vn -1.000000 -0.000000 0.000000
vn -1.000000 0.000000 0.000000
vn -1.000000 0.000000 0.000000
vn -1.000000 -0.000000 0.000000
vn -1.000000 0.000000 0.000000
vn -1.000000 0.000000 0.000000
vn -1.000000 0.000000 0.000000
vn -1.000000 0.000000 0.000000
vn -1.000000 0.000000 0.000000
vn -1.000000 0.000000 0.000000
vn -1.000000 0.000000 0.000000
vn -1.000000 0.000000 0.000000
vn 1.000000 0.000000 0.000000
vn 1.000000 -0.000000 0.000000
vn 1.000000 0.000000 0.000000
vn 1.000000 0.000000 0.000000
vn 1.000000 0.000000 0.000000
vn 1.000000 0.000000 0.000000
vn 1.000000 0.000000 0.000000
vn 1.000000 0.000000 0.000000
vn 1.000000 0.000000 0.000000
vn 1.000000 0.000000 0.000000
vn 1.000000 0.000000 0.000000
vn 1.000000 0.000000 0.000000
vn 1.000000 0.000000 0.000000
vn 1.000000 0.000000 0.000000
vn 1.000000 0.000000 0.000000
vn 1.000000 0.000000 0.000000
vn 1.000000 0.000000 -0.000000
vn 1.000000 0.000000 0.000000
vn 1.000000 0.000000 0.000000
vn 1.000000 0.000000 -0.000000
vn 1.000000 0.000000 -0.000000
vn 1.000000 0.000000 -0.000000
vn 1.000000 0.000000 0.000000
vn 1.000000 0.000000 -0.000000
vn 1.000000 -0.000000 0.000000
vn 1.000000 0.000000 -0.000000
vn 1.000000 0.000000 0.000000
vn 1.000000 -0.000000 0.000000
vn 1.000000 -0.000000 0.000000
vn 1.000000 -0.000000 0.000000
vn 1.000000 0.000000 0.000000
vn 1.000000 -0.000000 0.000000
vn 0.026169 0.993420 -0.111502
vn 0.008897 0.611776 -0.790981
vn 0.018310 0.807220 -0.589966
vn 0.026169 0.993420 -0.111502
vn 0.034544 0.986165 0.162126
vn 0.026169 0.993420 -0.111502
vn 0.018310 0.807220 -0.589966
vn 0.034544 0.986165 0.162126
vn 0.008897 0.611776 -0.790981
vn -0.001215 -0.135402 -0.990790
vn 0.002298 0.138975 -0.990293
vn 0.008897 0.611776 -0.790981
vn 0.018310 0.807220 -0.589966
vn 0.008897 0.611776 -0.790981
vn 0.002298 0.138975 -0.990293
vn 0.018310 0.807220 -0.589966
vn -0.001215 -0.135402 -0.990790
vn -0.010827 -0.792363 -0.609954
vn -0.005180 -0.601258 -0.799038
vn -0.001215 -0.135402 -0.990790
vn 0.002298 0.138975 -0.990293
vn -0.001215 -0.135402 -0.990790
vn -0.005180 -0.601258 -0.799038
vn 0.002298 0.138975 -0.990293
vn -0.010827 -0.792363 -0.609954
vn -0.025074 -0.993161 0.114031
vn -0.016365 -0.988249 -0.151975
vn -0.010827 -0.792363 -0.609954
vn -0.005180 -0.601258 -0.799038
vn -0.010827 -0.792363 -0.609954
vn -0.016365 -0.988249 -0.151975
vn -0.005180 -0.601258 -0.799038
vn -0.025074 -0.993161 0.114031
vn -0.022856 -0.616449 0.787063
vn -0.023431 -0.809933 0.586054
vn -0.025074 -0.993161 0.114031
vn -0.016365 -0.988249 -0.151975
vn -0.025074 -0.993161 0.114031
vn -0.023431 -0.809933 0.586054
vn -0.016365 -0.988249 -0.151975
vn -0.022856 -0.616449 0.787063
vn 0.005626 0.132151 0.991214
vn -0.005089 -0.144401 0.989506
vn -0.022856 -0.616449 0.787063
vn -0.023431 -0.809933 0.586054
vn -0.022856 -0.616449 0.787063
vn -0.005089 -0.144401 0.989506
vn -0.023431 -0.809933 0.586054
vn 0.005626 0.132151 0.991214
vn 0.029761 0.784659 0.619213
vn 0.025615 0.596014 0.802566
vn 0.005626 0.132151 0.991214
vn -0.005089 -0.144401 0.989506
vn 0.005626 0.132151 0.991214
vn 0.025615 0.596014 0.802566
vn -0.005089 -0.144401 0.989506
vn 0.029761 0.784659 0.619213
vn 0.026169 0.993420 -0.111502
vn 0.034544 0.986165 0.162126
vn 0.029761 0.784659 0.619213
vn 0.025615 0.596014 0.802566
vn 0.029761 0.784659 0.619213
vn 0.034544 0.986165 0.162126
vn 0.025615 0.596014 0.802566
vn 0.029091 0.999134 0.029748
vn 0.022803 0.999188 0.033220
vn 0.029091 0.999134 0.029748
vn 0.029091 0.999134 0.029748
vn 0.035377 0.999029 0.026276
vn 0.029091 0.999134 0.029748
vn 0.029091 0.999134 0.029748
vn 0.035377 0.999029 0.026276
vn -0.025506 -0.999335 -0.026065
vn -0.019194 -0.999561 -0.022586
vn -0.026207 -0.999286 -0.027226
vn -0.025506 -0.999335 -0.026065
vn -0.033692 -0.998971 -0.030362
vn -0.025506 -0.999335 -0.026065
vn -0.026207 -0.999286 -0.027226
vn -0.033692 -0.998971 -0.030362
vn 1.000000 0.000000 0.000000
vn 1.000000 -0.000000 0.000000
vn 0.997109 0.075932 0.002688
vn 1.000000 0.000000 0.000000
vn 0.988383 0.151887 0.005394
vn 1.000000 0.000000 0.000000
vn 0.997109 0.075932 0.002688
vn 0.988383 0.151887 0.005394
vn -0.155005 0.000000 -0.987914
vn -0.528584 0.000000 -0.848881
vn 0.000000 0.000000 -1.000000
vn -0.155005 0.000000 -0.987914
vn 0.000000 0.000000 -1.000000
vn -0.155005 0.000000 -0.987914
vn 0.000000 0.000000 -1.000000
vn 0.000000 0.000000 -1.000000
vn 0.000000 0.000000 -1.000000
vn 0.000000 0.000000 -1.000000
vn -0.155005 0.000000 -0.987914
vn 0.000000 0.000000 -1.000000
vn 0.000000 0.000000 -1.000000
vn 0.000000 0.000000 -1.000000
vn -0.155005 0.000000 -0.987914
vn 0.000000 0.000000 -1.000000
vn -1.000000 0.000000 0.000000
vn -1.000000 0.000000 0.000000
vn -1.000000 0.000000 0.000000
vn -1.000000 0.000000 0.000000
vn -1.000000 0.000000 0.000000
vn -1.000000 0.000000 0.000000
vn -1.000000 0.000000 0.000000
vn -1.000000 0.000000 0.000000
vn -1.000000 0.000000 0.000000
vn -1.000000 0.000000 0.000000
vn -1.000000 0.000000 0.000000
vn -1.000000 0.000000 0.000000
vn -1.000000 0.000000 0.000000
vn -1.000000 0.000000 0.000000
vn -1.000000 0.000000 0.000000
vn -1.000000 0.000000 0.000000
vn 0.000000 0.000000 1.000000
vn 0.000000 -0.000000 1.000000
vn -0.264293 0.000000 0.964442
vn 0.000000 0.000000 1.000000
vn -0.400628 0.000000 0.916241
vn 0.000000 0.000000 1.000000
vn -0.264293 0.000000 0.964442
vn -0.400628 0.000000 0.916241
vn -0.000000 0.000000 1.000000
vn -0.000000 0.000000 1.000000
vn 0.000000 0.000000 1.000000
vn -0.000000 0.000000 1.000000
vn -0.400628 0.000000 0.916241
vn -0.000000 0.000000 1.000000
vn 0.000000 0.000000 1.000000
vn -0.400628 0.000000 0.916241
vn -0.528584 0.000000 -0.848881
vn -0.155005 0.000000 -0.987914
vn -0.734142 0.000000 -0.678996
vn -0.528584 0.000000 -0.848881
vn -0.734142 0.000000 -0.678996
vn -0.528584 0.000000 -0.848881
vn -0.734142 0.000000 -0.678996
vn -0.734142 0.000000 -0.678996
vn -0.033692 -0.998971 -0.030362
vn -0.026207 -0.999286 -0.027226
vn -0.034630 -0.998926 -0.030772
vn -0.033692 -0.998971 -0.030362
vn -0.041648 -0.998620 -0.031996
vn -0.033692 -0.998971 -0.030362
vn -0.034630 -0.998926 -0.030772
vn -0.041648 -0.998620 -0.031996
vn -0.400628 0.000000 0.916241
vn -0.264293 0.000000 0.964442
vn -0.734143 0.000000 0.678995
vn -0.400628 0.000000 0.916241
vn -0.734143 0.000000 0.678995
vn -0.400628 0.000000 0.916241
vn -0.734143 0.000000 0.678995
vn -0.734143 0.000000 0.678995
vn 0.988383 0.151887 0.005394
vn 0.997109 0.075932 0.002688
vn 0.993473 0.113999 0.004048
vn 0.988383 0.151887 0.005394
vn 0.993471 0.114015 0.004062
vn 0.988383 0.151887 0.005394
vn 0.993473 0.113999 0.004048
vn 0.993471 0.114015 0.004062
vn 0.993473 0.113999 0.004048
vn 1.000000 0.000000 -0.000000
vn 1.000000 0.000000 0.000000
vn 0.993473 0.113999 0.004048
vn 0.993471 0.114015 0.004062
vn 0.993473 0.113999 0.004048
vn 1.000000 0.000000 0.000000
vn 0.993471 0.114015 0.004062
# 240 vertex normals

g mat2
f 2/1/1 3/2/2 1/3/3
f 3/5/5 4/6/6 1/7/7
f 4/9/9 5/10/10 1/11/11
f 5/13/13 6/14/14 1/15/15
f 6/17/17 7/18/18 1/19/19
f 7/21/21 8/22/22 1/23/23
f 8/25/25 9/26/26 1/27/27
f 9/29/29 2/30/30 1/31/31
f 11/33/33 10/34/34 18/35/35
f 12/37/37 11/38/38 18/39/39
f 13/41/41 12/42/42 18/43/43
f 14/45/45 13/46/46 18/47/47
f 15/49/49 14/50/50 18/51/51
f 16/53/53 15/54/54 18/55/55
f 17/57/57 16/58/58 18/59/59
f 10/61/61 17/62/62 18/63/63
f 10/65/65 11/66/66 3/67/67
f 2/69/69 10/70/70 3/71/71
f 11/73/73 12/74/74 4/75/75
f 3/77/77 11/78/78 4/79/79
f 12/81/81 13/82/82 5/83/83
f 4/85/85 12/86/86 5/87/87
f 13/89/89 14/90/90 6/91/91
f 5/93/93 13/94/94 6/95/95
f 14/97/97 15/98/98 7/99/99
f 6/101/101 14/102/102 7/103/103
f 15/105/105 16/106/106 8/107/107
f 7/109/109 15/110/110 8/111/111
f 16/113/113 17/114/114 9/115/115
f 8/117/117 16/118/118 9/119/119
f 17/121/121 10/122/122 2/123/123
f 9/125/125 17/126/126 2/127/127
f 19/129/129 21/130/130 23/131/131
f 25/133/133 19/134/134 23/135/135
f 26/137/137 24/138/138 22/139/139
f 20/141/141 26/142/142 22/143/143
f 21/145/145 19/146/146 27/147/147
f 28/149/149 21/150/150 27/151/151
f 28/153/153 22/154/154 24/155/155
f 29/157/157 28/158/158 24/159/159
f 23/161/161 21/162/162 28/163/163
f 29/165/165 23/166/166 28/167/167
f 29/169/169 24/170/170 26/171/171
f 30/173/173 29/174/174 26/175/175
f 25/177/177 23/178/178 29/179/179
f 30/181/181 25/182/182 29/183/183
f 30/185/185 26/186/186 20/187/187
f 27/189/189 30/190/190 20/191/191
f 19/193/193 25/194/194 30/195/195
f 27/197/197 19/198/198 30/199/199
f 22/201/201 28/202/202 34/203/203
f 32/205/205 22/206/206 34/207/207
f 20/209/209 22/210/210 32/211/211
f 31/213/213 20/214/214 32/215/215
f 27/217/217 20/218/218 31/219/219
f 33/221/221 27/222/222 31/223/223
f 28/225/225 27/226/226 33/227/227
f 34/229/229 28/230/230 33/231/231
f 33/233/233 31/234/234 32/235/235
f 34/237/237 33/238/238 32/239/239
# 60 elements

