# Created by 3DAce v2.72


g
v -0.339415 3.110591 3.670081
v -0.235729 2.021080 3.638338
v 0.001088 1.686599 3.811788
# 3 vertices

vt 0.555400 0.151610
vt 0.549970 0.194410
vt 0.549970 0.136710
vt 0.555400 0.151610
vt 0.873130 0.847500
vt 0.873130 0.905210
vt 0.867710 0.862400
vt 0.873130 0.847500
# 8 texture vertices

vn 0.663963 0.084833 -0.742938
vn 0.663963 0.084833 -0.742938
vn 0.663963 0.084833 -0.742938
vn 0.663963 0.084833 -0.742938
vn -0.663963 -0.084833 0.742938
vn -0.663963 -0.084833 0.742938
vn -0.663963 -0.084833 0.742938
vn -0.663963 -0.084833 0.742938
# 8 vertex normals

g mat2
f 2/1/1 1/2/2 3/3/3
f 3/5/5 1/6/6 2/7/7
# 2 elements

