# Created by 3DAce v2.72


g
v 2.329887 -0.002986 -1.109641
v 2.329887 0.295785 -1.109641
v 2.329887 0.213998 -1.322488
v 2.329887 0.003345 -1.410661
v 2.329887 -0.209772 -1.322488
v 2.329887 -0.301163 -1.109641
v 2.329887 -0.220283 -0.896788
v 2.329887 -0.013876 -0.808617
v 2.329887 0.200155 -0.896788
v 2.411063 0.298304 -1.109641
v 2.411063 0.215336 -1.322488
v 2.411063 0.003936 -1.410661
v 2.411063 -0.209063 -1.322488
v 2.411063 -0.299525 -1.109641
v 2.411063 -0.217460 -0.896788
v 2.411063 -0.010302 -0.808617
v 2.411063 0.203601 -0.896788
v 2.411063 -0.000818 -1.109641
v 2.430163 1.348351 -1.010092
v 2.430163 -0.051181 -1.010092
v 2.430163 1.353732 -1.216547
v 2.430163 -0.046563 -1.216547
v 2.316273 1.351153 -1.216547
v 2.316273 -0.048730 -1.216547
v 2.316273 1.344332 -1.010092
v 2.316273 -0.054788 -1.010092
v 2.430163 0.348706 -1.010092
v 2.430163 0.354532 -1.216547
v 2.316273 0.351713 -1.216547
v 2.316273 0.344448 -1.010092
v 2.271572 -0.048534 -1.264876
v 2.271572 -0.058186 -0.961758
v 2.271572 0.161237 -1.264876
v 2.271572 0.150502 -0.961758
# 34 vertices

vt 0.939380 0.076110
vt 0.931580 0.072880
vt 0.939380 0.065080
vt 0.939380 0.076110
vt 0.931580 0.072880
vt 0.928350 0.065080
vt 0.939380 0.065080
vt 0.931580 0.072880
vt 0.928350 0.065080
vt 0.931580 0.057280
vt 0.939380 0.065080
vt 0.928350 0.065080
vt 0.931580 0.057280
vt 0.939380 0.054050
vt 0.939380 0.065080
vt 0.931580 0.057280
vt 0.939380 0.054050
vt 0.947180 0.057280
vt 0.939380 0.065080
vt 0.939380 0.054050
vt 0.947180 0.057280
vt 0.950410 0.065080
vt 0.939380 0.065080
vt 0.947180 0.057280
vt 0.950410 0.065080
vt 0.947180 0.072880
vt 0.939380 0.065080
vt 0.950410 0.065080
vt 0.947180 0.072880
vt 0.939380 0.076110
vt 0.939380 0.065080
vt 0.947180 0.072880
vt 0.951520 0.728280
vt 0.943720 0.731510
vt 0.943720 0.720480
vt 0.951520 0.728280
vt 0.954750 0.720480
vt 0.951520 0.728280
vt 0.943720 0.720480
vt 0.954750 0.720480
vt 0.951520 0.712680
vt 0.954750 0.720480
vt 0.943720 0.720480
vt 0.951520 0.712680
vt 0.943720 0.709450
vt 0.951520 0.712680
vt 0.943720 0.720480
vt 0.943720 0.709450
vt 0.935920 0.712680
vt 0.943720 0.709450
vt 0.943720 0.720480
vt 0.935920 0.712680
vt 0.932690 0.720480
vt 0.935920 0.712680
vt 0.943720 0.720480
vt 0.932690 0.720480
vt 0.935920 0.728280
vt 0.932690 0.720480
vt 0.943720 0.720480
vt 0.935920 0.728280
vt 0.943720 0.731510
vt 0.935920 0.728280
vt 0.943720 0.720480
vt 0.943720 0.731510
vt 0.974450 0.031640
vt 0.974450 0.039440
vt 0.971480 0.039440
vt 0.974450 0.031640
vt 0.971480 0.031640
vt 0.974450 0.031640
vt 0.971480 0.039440
vt 0.971480 0.031640
vt 0.967220 0.666030
vt 0.967220 0.658230
vt 0.970190 0.658230
vt 0.967220 0.666030
vt 0.970190 0.666030
vt 0.967220 0.666030
vt 0.970190 0.658230
vt 0.970190 0.666030
vt 0.967220 0.658230
vt 0.967220 0.650430
vt 0.970190 0.650430
vt 0.967220 0.658230
vt 0.970190 0.658230
vt 0.967220 0.658230
vt 0.970190 0.650430
vt 0.970190 0.658230
vt 0.977560 0.810830
vt 0.977560 0.818630
vt 0.974580 0.818630
vt 0.977560 0.810830
vt 0.974580 0.810830
vt 0.977560 0.810830
vt 0.974580 0.818630
vt 0.974580 0.810830
vt 0.977560 0.818630
vt 0.977560 0.826430
vt 0.974580 0.826430
vt 0.977560 0.818630
vt 0.974580 0.818630
vt 0.977560 0.818630
vt 0.974580 0.826430
vt 0.974580 0.818630
vt 0.974450 0.060510
vt 0.974450 0.068310
vt 0.971480 0.068310
vt 0.974450 0.060510
vt 0.971480 0.060510
vt 0.974450 0.060510
vt 0.971480 0.068310
vt 0.971480 0.060510
vt 0.974450 0.068310
vt 0.974450 0.076110
vt 0.971480 0.076110
vt 0.974450 0.068310
vt 0.971480 0.068310
vt 0.974450 0.068310
vt 0.971480 0.076110
vt 0.971480 0.068310
vt 0.974450 0.023840
vt 0.974450 0.031640
vt 0.971480 0.031640
vt 0.974450 0.023840
vt 0.971480 0.023840
vt 0.974450 0.023840
vt 0.971480 0.031640
vt 0.971480 0.023840
vt 0.472860 0.016000
vt 0.472860 0.023560
vt 0.468680 0.023560
vt 0.472860 0.016000
vt 0.468680 0.016000
vt 0.472860 0.016000
vt 0.468680 0.023560
vt 0.468680 0.016000
vt 0.750870 0.031780
vt 0.750870 0.024210
vt 0.755050 0.024210
vt 0.750870 0.031780
vt 0.755050 0.031780
vt 0.750870 0.031780
vt 0.755050 0.024210
vt 0.755050 0.031780
vt 0.887060 0.301670
vt 0.887060 0.286910
vt 0.894630 0.286910
vt 0.887060 0.301670
vt 0.894630 0.301670
vt 0.887060 0.301670
vt 0.894630 0.286910
vt 0.894630 0.301670
vt 0.894630 0.334830
vt 0.887060 0.334830
vt 0.887060 0.301670
vt 0.894630 0.334830
vt 0.894630 0.301670
vt 0.894630 0.334830
vt 0.887060 0.301670
vt 0.894630 0.301670
vt 0.873090 0.487400
vt 0.873090 0.472640
vt 0.877260 0.472640
vt 0.873090 0.487400
vt 0.877260 0.487400
vt 0.873090 0.487400
vt 0.877260 0.472640
vt 0.877260 0.487400
vt 0.877260 0.520560
vt 0.873090 0.520560
vt 0.873090 0.487400
vt 0.877260 0.520560
vt 0.877260 0.487400
vt 0.877260 0.520560
vt 0.873090 0.487400
vt 0.877260 0.487400
vt 0.888920 0.415900
vt 0.881360 0.415900
vt 0.881360 0.382740
vt 0.888920 0.415900
vt 0.888920 0.382740
vt 0.888920 0.415900
vt 0.881360 0.382740
vt 0.888920 0.382740
vt 0.888780 0.767340
vt 0.888780 0.752580
vt 0.892960 0.752580
vt 0.888780 0.767340
vt 0.892960 0.767340
vt 0.888780 0.767340
vt 0.892960 0.752580
vt 0.892960 0.767340
vt 0.892960 0.800500
vt 0.888780 0.800500
vt 0.888780 0.767340
vt 0.892960 0.800500
vt 0.892960 0.767340
vt 0.892960 0.800500
vt 0.888780 0.767340
vt 0.892960 0.767340
vt 0.976370 0.444820
vt 0.976370 0.459580
vt 0.974600 0.452550
vt 0.976370 0.444820
vt 0.974600 0.444820
vt 0.976370 0.444820
vt 0.974600 0.452550
vt 0.974600 0.444820
vt 0.750870 0.024210
vt 0.750870 0.031780
vt 0.749240 0.033550
vt 0.750870 0.024210
vt 0.749240 0.022440
vt 0.750870 0.024210
vt 0.749240 0.033550
vt 0.749240 0.022440
vt 0.974580 0.789760
vt 0.974580 0.775000
vt 0.976360 0.775000
vt 0.974580 0.789760
vt 0.976360 0.782730
vt 0.974580 0.789760
vt 0.976360 0.775000
vt 0.976360 0.782730
vt 0.888920 0.382740
vt 0.881360 0.382740
vt 0.879590 0.375710
vt 0.888920 0.382740
vt 0.890690 0.375710
vt 0.888920 0.382740
vt 0.879590 0.375710
vt 0.890690 0.375710
vt 0.879590 0.375710
vt 0.879590 0.367980
vt 0.890690 0.367980
vt 0.879590 0.375710
vt 0.890690 0.375710
vt 0.879590 0.375710
vt 0.890690 0.367980
vt 0.890690 0.375710
# 240 texture vertices

vn -1.000000 0.000000 0.000000
vn -1.000000 0.000000 0.000000
vn -1.000000 0.000000 0.000000
vn -1.000000 0.000000 0.000000
vn -1.000000 0.000000 0.000000
vn -1.000000 0.000000 0.000000
vn -1.000000 0.000000 0.000000
vn -1.000000 0.000000 0.000000
vn -1.000000 0.000000 0.000000
vn -1.000000 0.000000 -0.000000
vn -1.000000 0.000000 0.000000
vn -1.000000 0.000000 0.000000
vn -1.000000 0.000000 -0.000000
vn -1.000000 -0.000000 0.000000
vn -1.000000 0.000000 0.000000
vn -1.000000 0.000000 -0.000000
vn -1.000000 -0.000000 0.000000
vn -1.000000 -0.000000 0.000000
vn -1.000000 0.000000 0.000000
vn -1.000000 -0.000000 0.000000
vn -1.000000 -0.000000 0.000000
vn -1.000000 0.000000 0.000000
vn -1.000000 0.000000 0.000000
vn -1.000000 -0.000000 0.000000
vn -1.000000 0.000000 0.000000
vn -1.000000 0.000000 0.000000
vn -1.000000 0.000000 0.000000
vn -1.000000 0.000000 0.000000
vn -1.000000 0.000000 0.000000
vn -1.000000 0.000000 0.000000
vn -1.000000 0.000000 0.000000
vn -1.000000 0.000000 0.000000
vn 1.000000 0.000000 0.000000
vn 1.000000 -0.000000 0.000000
vn 1.000000 0.000000 0.000000
vn 1.000000 0.000000 0.000000
vn 1.000000 0.000000 0.000000
vn 1.000000 0.000000 0.000000
vn 1.000000 0.000000 0.000000
vn 1.000000 0.000000 0.000000
vn 1.000000 0.000000 0.000000
vn 1.000000 0.000000 0.000000
vn 1.000000 0.000000 0.000000
vn 1.000000 0.000000 0.000000
vn 1.000000 0.000000 0.000000
vn 1.000000 0.000000 0.000000
vn 1.000000 0.000000 0.000000
vn 1.000000 0.000000 0.000000
vn 1.000000 0.000000 -0.000000
vn 1.000000 0.000000 0.000000
vn 1.000000 0.000000 0.000000
vn 1.000000 0.000000 -0.000000
vn 1.000000 0.000000 -0.000000
vn 1.000000 0.000000 -0.000000
vn 1.000000 0.000000 0.000000
vn 1.000000 0.000000 -0.000000
vn 1.000000 -0.000000 0.000000
vn 1.000000 0.000000 -0.000000
vn 1.000000 0.000000 0.000000
vn 1.000000 -0.000000 0.000000
vn 1.000000 -0.000000 0.000000
vn 1.000000 -0.000000 0.000000
vn 1.000000 0.000000 0.000000
vn 1.000000 -0.000000 0.000000
vn -0.025977 0.993284 -0.112751
vn -0.008793 0.610544 -0.791934
vn -0.018177 0.807376 -0.589758
vn -0.025977 0.993284 -0.112751
vn -0.034316 0.985947 0.163494
vn -0.025977 0.993284 -0.112751
vn -0.018177 0.807376 -0.589758
vn -0.034316 0.985947 0.163494
vn -0.008793 0.610544 -0.791934
vn 0.001188 -0.135809 -0.990734
vn -0.002283 0.139010 -0.990288
vn -0.008793 0.610544 -0.791934
vn -0.018177 0.807376 -0.589758
vn -0.008793 0.610544 -0.791934
vn -0.002283 0.139010 -0.990288
vn -0.018177 0.807376 -0.589758
vn 0.001188 -0.135809 -0.990734
vn 0.010678 -0.792454 -0.609838
vn 0.005046 -0.600389 -0.799692
vn 0.001188 -0.135809 -0.990734
vn -0.002283 0.139010 -0.990288
vn 0.001188 -0.135809 -0.990734
vn 0.005046 -0.600389 -0.799692
vn -0.002283 0.139010 -0.990288
vn 0.010678 -0.792454 -0.609838
vn 0.024887 -0.993020 0.115287
vn 0.016191 -0.988040 -0.153345
vn 0.010678 -0.792454 -0.609838
vn 0.005046 -0.600389 -0.799692
vn 0.010678 -0.792454 -0.609838
vn 0.016191 -0.988040 -0.153345
vn 0.005046 -0.600389 -0.799692
vn 0.024887 -0.993020 0.115287
vn 0.022694 -0.615242 0.788011
vn 0.023282 -0.810118 0.585804
vn 0.024887 -0.993020 0.115287
vn 0.016191 -0.988040 -0.153345
vn 0.024887 -0.993020 0.115287
vn 0.023282 -0.810118 0.585804
vn 0.016191 -0.988040 -0.153345
vn 0.022694 -0.615242 0.788011
vn -0.005621 0.132562 0.991159
vn 0.005059 -0.144456 0.989498
vn 0.022694 -0.615242 0.788011
vn 0.023282 -0.810118 0.585804
vn 0.022694 -0.615242 0.788011
vn 0.005059 -0.144456 0.989498
vn 0.023282 -0.810118 0.585804
vn -0.005621 0.132562 0.991159
vn -0.029603 0.784741 0.619117
vn -0.025478 0.595144 0.803215
vn -0.005621 0.132562 0.991159
vn 0.005059 -0.144456 0.989498
vn -0.005621 0.132562 0.991159
vn -0.025478 0.595144 0.803215
vn 0.005059 -0.144456 0.989498
vn -0.029603 0.784741 0.619117
vn -0.025977 0.993284 -0.112751
vn -0.034316 0.985947 0.163494
vn -0.029603 0.784741 0.619117
vn -0.025478 0.595144 0.803215
vn -0.029603 0.784741 0.619117
vn -0.034316 0.985947 0.163494
vn -0.025478 0.595144 0.803215
vn -0.028940 0.999145 0.029525
vn -0.022632 0.999404 0.026048
vn -0.028940 0.999145 0.029525
vn -0.028940 0.999145 0.029525
vn -0.035247 0.998834 0.033000
vn -0.028940 0.999145 0.029525
vn -0.028940 0.999145 0.029525
vn -0.035247 0.998834 0.033000
vn 0.031631 -0.999135 -0.026994
vn 0.031087 -0.999062 -0.030148
vn 0.025332 -0.999345 -0.025839
vn 0.031631 -0.999135 -0.026994
vn 0.031647 -0.999249 -0.022351
vn 0.031631 -0.999135 -0.026994
vn 0.025332 -0.999345 -0.025839
vn 0.031647 -0.999249 -0.022351
vn 1.000000 0.000000 0.000000
vn 1.000000 0.000000 -0.000000
vn 1.000000 0.000000 0.000000
vn 1.000000 0.000000 0.000000
vn 1.000000 0.000000 0.000000
vn 1.000000 0.000000 0.000000
vn 1.000000 0.000000 0.000000
vn 1.000000 0.000000 0.000000
vn 1.000000 0.000000 0.000000
vn 1.000000 -0.000000 0.000000
vn 1.000000 0.000000 0.000000
vn 1.000000 0.000000 0.000000
vn 1.000000 0.000000 0.000000
vn 1.000000 0.000000 0.000000
vn 1.000000 0.000000 0.000000
vn 1.000000 0.000000 0.000000
vn 0.000000 0.000000 -1.000000
vn 0.000000 0.000000 -1.000000
vn 0.264284 0.000000 -0.964445
vn 0.000000 0.000000 -1.000000
vn 0.400615 0.000000 -0.916247
vn 0.000000 0.000000 -1.000000
vn 0.264284 0.000000 -0.964445
vn 0.400615 0.000000 -0.916247
vn -0.000000 0.000000 -1.000000
vn -0.000000 0.000000 -1.000000
vn 0.000000 0.000000 -1.000000
vn -0.000000 0.000000 -1.000000
vn 0.400615 0.000000 -0.916247
vn -0.000000 0.000000 -1.000000
vn 0.000000 0.000000 -1.000000
vn 0.400615 0.000000 -0.916247
vn -1.000000 0.000000 0.000000
vn -1.000000 0.000000 0.000000
vn -0.997108 0.075957 0.002673
vn -1.000000 0.000000 0.000000
vn -0.988383 0.151892 0.005362
vn -1.000000 0.000000 0.000000
vn -0.997108 0.075957 0.002673
vn -0.988383 0.151892 0.005362
vn 0.155009 0.000000 0.987913
vn 0.528600 0.000000 0.848871
vn 0.000000 -0.000000 1.000000
vn 0.155009 0.000000 0.987913
vn 0.000000 0.000000 1.000000
vn 0.155009 0.000000 0.987913
vn 0.000000 -0.000000 1.000000
vn 0.000000 0.000000 1.000000
vn 0.000000 0.000000 1.000000
vn 0.000000 0.000000 1.000000
vn 0.155009 0.000000 0.987913
vn 0.000000 0.000000 1.000000
vn 0.000000 0.000000 1.000000
vn 0.000000 0.000000 1.000000
vn 0.155009 0.000000 0.987913
vn 0.000000 0.000000 1.000000
vn 0.528600 0.000000 0.848871
vn 0.155009 0.000000 0.987913
vn 0.734159 0.000000 0.678977
vn 0.528600 0.000000 0.848871
vn 0.734159 0.000000 0.678977
vn 0.528600 0.000000 0.848871
vn 0.734159 0.000000 0.678977
vn 0.734159 0.000000 0.678977
vn 0.031087 -0.999062 -0.030148
vn 0.031631 -0.999135 -0.026994
vn 0.037121 -0.998843 -0.030558
vn 0.031087 -0.999062 -0.030148
vn 0.030013 -0.999043 -0.031812
vn 0.031087 -0.999062 -0.030148
vn 0.037121 -0.998843 -0.030558
vn 0.030013 -0.999043 -0.031812
vn 0.400615 0.000000 -0.916247
vn 0.264284 0.000000 -0.964445
vn 0.734124 0.000000 -0.679016
vn 0.400615 0.000000 -0.916247
vn 0.734124 0.000000 -0.679016
vn 0.400615 0.000000 -0.916247
vn 0.734124 0.000000 -0.679016
vn 0.734124 0.000000 -0.679016
vn -0.988383 0.151892 0.005362
vn -0.997108 0.075957 0.002673
vn -0.993472 0.114002 0.004025
vn -0.988383 0.151892 0.005362
vn -0.993474 0.113986 0.004037
vn -0.988383 0.151892 0.005362
vn -0.993472 0.114002 0.004025
vn -0.993474 0.113986 0.004037
vn -0.993472 0.114002 0.004025
vn -1.000000 0.000000 0.000000
vn -1.000000 0.000000 0.000000
vn -0.993472 0.114002 0.004025
vn -0.993474 0.113986 0.004037
vn -0.993472 0.114002 0.004025
vn -1.000000 0.000000 0.000000
vn -0.993474 0.113986 0.004037
# 240 vertex normals

g mat2
f 2/1/1 3/2/2 1/3/3
f 3/5/5 4/6/6 1/7/7
f 4/9/9 5/10/10 1/11/11
f 5/13/13 6/14/14 1/15/15
f 6/17/17 7/18/18 1/19/19
f 7/21/21 8/22/22 1/23/23
f 8/25/25 9/26/26 1/27/27
f 9/29/29 2/30/30 1/31/31
f 11/33/33 10/34/34 18/35/35
f 12/37/37 11/38/38 18/39/39
f 13/41/41 12/42/42 18/43/43
f 14/45/45 13/46/46 18/47/47
f 15/49/49 14/50/50 18/51/51
f 16/53/53 15/54/54 18/55/55
f 17/57/57 16/58/58 18/59/59
f 10/61/61 17/62/62 18/63/63
f 10/65/65 11/66/66 3/67/67
f 2/69/69 10/70/70 3/71/71
f 11/73/73 12/74/74 4/75/75
f 3/77/77 11/78/78 4/79/79
f 12/81/81 13/82/82 5/83/83
f 4/85/85 12/86/86 5/87/87
f 13/89/89 14/90/90 6/91/91
f 5/93/93 13/94/94 6/95/95
f 14/97/97 15/98/98 7/99/99
f 6/101/101 14/102/102 7/103/103
f 15/105/105 16/106/106 8/107/107
f 7/109/109 15/110/110 8/111/111
f 16/113/113 17/114/114 9/115/115
f 8/117/117 16/118/118 9/119/119
f 17/121/121 10/122/122 2/123/123
f 9/125/125 17/126/126 2/127/127
f 19/129/129 21/130/130 23/131/131
f 25/133/133 19/134/134 23/135/135
f 26/137/137 24/138/138 22/139/139
f 20/141/141 26/142/142 22/143/143
f 27/145/145 20/146/146 22/147/147
f 28/149/149 27/150/150 22/151/151
f 21/153/153 19/154/154 27/155/155
f 28/157/157 21/158/158 27/159/159
f 28/161/161 22/162/162 24/163/163
f 29/165/165 28/166/166 24/167/167
f 23/169/169 21/170/170 28/171/171
f 29/173/173 23/174/174 28/175/175
f 25/177/177 23/178/178 29/179/179
f 30/181/181 25/182/182 29/183/183
f 30/185/185 26/186/186 20/187/187
f 27/189/189 30/190/190 20/191/191
f 19/193/193 25/194/194 30/195/195
f 27/197/197 19/198/198 30/199/199
f 26/201/201 30/202/202 34/203/203
f 32/205/205 26/206/206 34/207/207
f 24/209/209 26/210/210 32/211/211
f 31/213/213 24/214/214 32/215/215
f 29/217/217 24/218/218 31/219/219
f 33/221/221 29/222/222 31/223/223
f 30/225/225 29/226/226 33/227/227
f 34/229/229 30/230/230 33/231/231
f 33/233/233 31/234/234 32/235/235
f 34/237/237 33/238/238 32/239/239
# 60 elements

