# Created by 3DAce v2.72


g
v -9.880385 2.217766 -8.073296
v -9.880385 2.026599 -8.073296
v -10.352343 2.164972 -9.608038
v -10.352343 1.990936 -9.608038
v -1.711866 2.267072 -8.528860
v -1.711866 2.109605 -8.528860
v -3.165886 2.313277 -5.692728
v -3.165886 2.157279 -5.692728
v -2.117465 2.307444 -8.924279
v -2.117465 2.069229 -8.924279
# 10 vertices

vt 0.033570 0.425520
vt 0.021780 0.440790
vt 0.117630 0.483720
vt 0.033570 0.425520
vt 0.021780 0.440790
vt 0.033570 0.425520
vt 0.117630 0.483720
vt 0.021780 0.440790
vt 0.021340 0.747800
vt 0.067360 0.729510
vt 0.021340 0.747800
vt 0.021340 0.747800
vt 0.067360 0.729510
vt 0.067360 0.729510
vt 0.021340 0.747800
vt 0.067360 0.729510
vt 0.067360 0.729510
vt 0.117630 0.483720
vt 0.067360 0.729510
vt 0.067360 0.729510
vt 0.117630 0.483720
vt 0.117630 0.483720
vt 0.067360 0.729510
vt 0.117630 0.483720
vt 0.033570 0.425520
vt 0.021780 0.440790
vt 0.033570 0.425520
vt 0.033570 0.425520
vt 0.021780 0.440790
vt 0.021780 0.440790
vt 0.033570 0.425520
vt 0.021780 0.440790
vt 0.021340 0.747800
vt 0.021340 0.747800
vt 0.021780 0.440790
vt 0.021340 0.747800
vt 0.021340 0.747800
vt 0.021780 0.440790
vt 0.021780 0.440790
vt 0.021340 0.747800
vt 0.021340 0.747800
vt 0.067360 0.729510
vt 0.021780 0.440790
vt 0.021340 0.747800
vt 0.067360 0.729510
vt 0.117630 0.483720
vt 0.021780 0.440790
vt 0.067360 0.729510
vt 0.021340 0.747800
vt 0.021780 0.440790
vt 0.067360 0.729510
vt 0.021340 0.747800
vt 0.021780 0.440790
vt 0.117630 0.483720
vt 0.067360 0.729510
vt 0.021780 0.440790
# 56 texture vertices

vn 0.076709 0.996786 0.023087
vn 0.016589 0.999854 -0.004169
vn 0.032299 0.999441 0.008675
vn 0.076709 0.996786 0.023087
vn 0.023962 -0.999200 0.032025
vn 0.055305 -0.997450 0.045120
vn 0.032055 -0.998778 0.037614
vn 0.023962 -0.999200 0.032025
vn -0.955827 0.000000 0.293932
vn -0.826374 0.000000 0.563121
vn -0.955827 0.000000 0.293932
vn -0.955827 0.000000 0.293932
vn -0.826374 0.000000 0.563121
vn -0.597625 0.000000 0.801776
vn -0.955827 0.000000 0.293932
vn -0.826374 0.000000 0.563121
vn -0.826374 0.000000 0.563121
vn -0.334161 0.000000 0.942516
vn -0.597625 0.000000 0.801776
vn -0.826374 0.000000 0.563121
vn -0.334161 0.000000 0.942516
vn -0.334161 0.000000 0.942516
vn -0.597625 0.000000 0.801776
vn -0.334161 0.000000 0.942516
vn 0.698064 0.000000 -0.716035
vn 0.414839 0.000000 -0.909895
vn 0.698064 0.000000 -0.716035
vn 0.698064 0.000000 -0.716035
vn 0.414839 0.000000 -0.909895
vn 0.414839 0.000000 -0.909895
vn 0.698064 0.000000 -0.716035
vn 0.414839 0.000000 -0.909895
vn 0.082747 0.000000 -0.996571
vn 0.082747 0.000000 -0.996571
vn 0.414839 0.000000 -0.909895
vn 0.082747 0.000000 -0.996571
vn 0.082747 0.000000 -0.996571
vn 0.414839 0.000000 -0.909895
vn 0.414839 0.000000 -0.909895
vn 0.082747 0.000000 -0.996571
vn -0.014815 0.999445 -0.029824
vn -0.013500 0.999751 -0.017792
vn 0.016589 0.999854 -0.004169
vn -0.014815 0.999445 -0.029824
vn -0.013500 0.999751 -0.017792
vn 0.032299 0.999441 0.008675
vn 0.016589 0.999854 -0.004169
vn -0.013500 0.999751 -0.017792
vn 0.007775 -0.999753 0.020841
vn 0.023962 -0.999200 0.032025
vn 0.008281 -0.999642 0.025463
vn 0.007775 -0.999753 0.020841
vn 0.023962 -0.999200 0.032025
vn 0.032055 -0.998778 0.037614
vn 0.008281 -0.999642 0.025463
vn 0.023962 -0.999200 0.032025
# 56 vertex normals

g mat1
f 5/1/1 9/2/2 7/3/3
f 10/5/5 6/6/6 8/7/7
f 4/9/9 2/10/10 3/11/11
f 2/13/13 1/14/14 3/15/15
f 2/17/17 8/18/18 1/19/19
f 8/21/21 7/22/22 1/23/23
f 6/25/25 10/26/26 5/27/27
f 10/29/29 9/30/30 5/31/31
f 4/33/33 3/34/34 10/35/35
f 3/37/37 9/38/38 10/39/39
f 3/41/41 1/42/42 9/43/43
f 1/45/45 7/46/46 9/47/47
f 4/49/49 10/50/50 2/51/51
f 10/53/53 8/54/54 2/55/55
# 14 elements

