# Created by 3DAce v2.72


g
v 0.533245 2.656101 -2.615050
v 0.518114 3.101840 -1.663756
v 0.185193 3.339919 -1.663756
v -0.185194 3.339919 -1.663756
v -0.518115 3.101840 -1.663756
v -0.533246 2.656101 -2.615050
v 0.000000 3.005965 -2.965361
v 0.492343 2.426962 1.243375
v 0.356426 2.826787 1.246365
v 0.185193 2.923200 1.246365
v -0.185194 2.923200 1.246365
v -0.356427 2.826787 1.246365
v -0.492344 2.426962 1.243375
v 0.509630 2.493783 0.059307
v 0.393814 3.046883 0.059307
v 0.185193 3.284966 0.059307
v -0.185194 3.284966 0.059307
v -0.393815 3.046883 0.059307
v -0.509631 2.493783 0.059307
v -0.356427 2.826787 1.246365
v -0.492344 2.426962 1.243375
v -0.509631 2.493783 0.059307
v -0.509631 2.493783 0.059307
v -0.393815 3.046883 0.059307
v -0.356427 2.826787 1.246365
v -0.356427 2.826787 1.246365
v -0.185194 2.923200 1.246365
v -0.393815 3.046883 0.059307
v -0.393815 3.046883 0.059307
v -0.185194 3.284966 0.059307
v -0.185194 2.923200 1.246365
v -0.509631 2.493783 0.059307
v -0.518115 3.101840 -1.663756
v -0.393815 3.046883 0.059307
v -0.393815 3.046883 0.059307
v -0.518115 3.101840 -1.663756
v -0.185194 3.339919 -1.663756
v -0.185194 3.339919 -1.663756
v -0.393815 3.046883 0.059307
v -0.185194 3.284966 0.059307
v -0.185194 3.284966 0.059307
v -0.185194 3.339919 -1.663756
v 0.185193 3.284966 0.059307
v -0.185194 3.339919 -1.663756
v 0.185193 3.339919 -1.663756
v 0.185193 3.284966 0.059307
v -0.518115 3.101840 -1.663756
v -0.533246 2.656101 -2.615050
v 0.000000 3.005965 -2.965361
v 0.000000 3.005965 -2.965361
v -0.518115 3.101840 -1.663756
v -0.185194 3.339919 -1.663756
v -0.185194 3.339919 -1.663756
v 0.000000 3.005965 -2.965361
v 0.185193 3.339919 -1.663756
v 0.000000 3.005965 -2.965361
v 0.185193 3.339919 -1.663756
v 0.518114 3.101840 -1.663756
v 0.000000 3.005965 -2.965361
v 0.518114 3.101840 -1.663756
v 0.533245 2.656101 -2.615050
v 0.533245 2.656101 -2.615050
v 0.518114 3.101840 -1.663756
v 0.509630 2.493783 0.059307
v 0.509630 2.493783 0.059307
v 0.393814 3.046883 0.059307
v 0.518114 3.101840 -1.663756
v 0.518114 3.101840 -1.663756
v 0.185193 3.339919 -1.663756
v 0.393814 3.046883 0.059307
v 0.393814 3.046883 0.059307
v 0.185193 3.284966 0.059307
v 0.185193 3.339919 -1.663756
v 0.185193 3.284966 0.059307
v 0.185193 2.923200 1.246365
v -0.185194 2.923200 1.246365
v 0.185193 2.923200 1.246365
v 0.185193 3.284966 0.059307
v 0.393814 3.046883 0.059307
v 0.393814 3.046883 0.059307
v 0.356426 2.826787 1.246365
v 0.185193 2.923200 1.246365
v 0.356426 2.826787 1.246365
v 0.393814 3.046883 0.059307
v 0.509630 2.493783 0.059307
v 0.509630 2.493783 0.059307
v 0.492343 2.426962 1.243375
v 0.356426 2.826787 1.246365
v -0.518115 3.101840 -1.663756
v -0.509631 2.493783 0.059307
v -0.533246 2.656101 -2.615050
v -0.185194 3.284966 0.059307
v 0.185193 3.284966 0.059307
v -0.185194 2.923200 1.246365
# 94 vertices

vt 0.213770 0.183880
vt 0.279180 0.153270
vt 0.303190 0.177300
vt 0.213770 0.183880
vt 0.213720 0.198410
vt 0.213770 0.183880
vt 0.303190 0.177300
vt 0.213720 0.198410
vt 0.213720 0.198410
vt 0.213720 0.198410
vt 0.303190 0.177300
vt 0.213720 0.198410
vt 0.213770 0.183880
vt 0.213720 0.198410
vt 0.303190 0.177300
vt 0.213770 0.183880
vt 0.279180 0.153270
vt 0.213770 0.183880
vt 0.303190 0.177300
vt 0.279180 0.153270
vt 0.095450 0.142110
vt 0.279180 0.153270
vt 0.213770 0.183880
vt 0.095450 0.142110
vt 0.095470 0.180080
vt 0.095450 0.142110
vt 0.213770 0.183880
vt 0.095470 0.180080
vt 0.014820 0.164670
vt 0.014980 0.137230
vt 0.095450 0.142110
vt 0.014820 0.164670
vt 0.095470 0.180080
vt 0.014820 0.164670
vt 0.095450 0.142110
vt 0.095470 0.180080
vt 0.095470 0.180080
vt 0.213770 0.183880
vt 0.213720 0.198410
vt 0.095470 0.180080
vt 0.095420 0.194710
vt 0.095470 0.180080
vt 0.213720 0.198410
vt 0.095420 0.194710
vt 0.014930 0.169490
vt 0.014820 0.164670
vt 0.095470 0.180080
vt 0.014930 0.169490
vt 0.095420 0.194710
vt 0.014930 0.169490
vt 0.095470 0.180080
vt 0.095420 0.194710
vt 0.095420 0.194710
vt 0.213720 0.198410
vt 0.213720 0.198410
vt 0.095420 0.194710
vt 0.095420 0.194710
vt 0.095420 0.194710
vt 0.213720 0.198410
vt 0.095420 0.194710
vt 0.014930 0.169490
vt 0.014930 0.169490
vt 0.095420 0.194710
vt 0.014930 0.169490
vt 0.095420 0.194710
vt 0.014930 0.169490
vt 0.095420 0.194710
vt 0.095420 0.194710
vt 0.213720 0.198410
vt 0.213770 0.183880
vt 0.095470 0.180080
vt 0.213720 0.198410
vt 0.095420 0.194710
vt 0.213720 0.198410
vt 0.095470 0.180080
vt 0.095420 0.194710
vt 0.014930 0.169490
vt 0.095420 0.194710
vt 0.095470 0.180080
vt 0.014930 0.169490
vt 0.014820 0.164670
vt 0.014930 0.169490
vt 0.095470 0.180080
vt 0.014820 0.164670
vt 0.213770 0.183880
vt 0.279180 0.153270
vt 0.095450 0.142110
vt 0.213770 0.183880
vt 0.095470 0.180080
vt 0.213770 0.183880
vt 0.095450 0.142110
vt 0.095470 0.180080
vt 0.014820 0.164670
vt 0.095470 0.180080
vt 0.095450 0.142110
vt 0.014820 0.164670
vt 0.014980 0.137230
vt 0.014820 0.164670
vt 0.095450 0.142110
vt 0.014980 0.137230
vt 0.394480 0.576270
vt 0.394680 0.550470
vt 0.473660 0.554930
vt 0.394480 0.576270
vt 0.473660 0.554930
vt 0.473660 0.590960
vt 0.394480 0.576270
vt 0.473660 0.554930
vt 0.473660 0.590960
vt 0.394480 0.582710
vt 0.394480 0.576270
vt 0.473660 0.590960
vt 0.473660 0.590960
vt 0.473660 0.606840
vt 0.394480 0.582710
vt 0.473660 0.590960
vt 0.473660 0.554930
vt 0.588600 0.594620
vt 0.473660 0.590960
vt 0.473660 0.554930
vt 0.473660 0.590960
vt 0.588600 0.594620
vt 0.588600 0.610500
vt 0.473660 0.590960
vt 0.473660 0.606840
vt 0.473660 0.590960
vt 0.588600 0.610500
vt 0.473660 0.606840
vt 0.473660 0.606840
vt 0.588600 0.610500
vt 0.473660 0.606840
vt 0.473660 0.606840
vt 0.588600 0.610500
vt 0.588600 0.610500
vt 0.473660 0.606840
vt 0.588600 0.610500
vt 0.588600 0.594620
vt 0.652060 0.564890
vt 0.678900 0.589670
vt 0.588600 0.594620
vt 0.588600 0.610500
vt 0.588600 0.594620
vt 0.678900 0.589670
vt 0.588600 0.610500
vt 0.588600 0.610500
vt 0.678900 0.589670
vt 0.588600 0.610500
vt 0.588600 0.610500
vt 0.588600 0.594620
vt 0.588600 0.610500
vt 0.678900 0.589670
vt 0.588600 0.594620
vt 0.652060 0.564890
vt 0.588600 0.594620
vt 0.678900 0.589670
vt 0.652060 0.564890
vt 0.473660 0.554930
vt 0.588600 0.594620
vt 0.652060 0.564890
vt 0.473660 0.554930
vt 0.473660 0.554930
vt 0.473660 0.590960
vt 0.588600 0.594620
vt 0.473660 0.554930
vt 0.473660 0.590960
vt 0.588600 0.610500
vt 0.588600 0.594620
vt 0.473660 0.590960
vt 0.473660 0.590960
vt 0.473660 0.606840
vt 0.588600 0.610500
vt 0.473660 0.590960
vt 0.473660 0.606840
vt 0.394480 0.582710
vt 0.394480 0.582710
vt 0.473660 0.606840
vt 0.394480 0.582710
vt 0.473660 0.606840
vt 0.473660 0.590960
vt 0.394480 0.582710
vt 0.473660 0.590960
vt 0.394480 0.576270
vt 0.394480 0.582710
vt 0.473660 0.590960
vt 0.394480 0.576270
vt 0.473660 0.590960
vt 0.473660 0.554930
vt 0.394480 0.576270
vt 0.473660 0.554930
vt 0.394680 0.550470
vt 0.394480 0.576270
vt 0.473660 0.554930
vt 0.588600 0.594620
vt 0.473660 0.554930
vt 0.652060 0.564890
vt 0.588600 0.594620
vt 0.473660 0.606840
vt 0.473660 0.606840
vt 0.394480 0.582710
vt 0.473660 0.606840
# 200 texture vertices

vn 0.829802 0.549699 -0.096226
vn 0.908162 0.384435 -0.165686
vn 0.426153 0.855267 -0.294809
vn 0.829802 0.549699 -0.096226
vn 0.407342 0.909042 -0.087835
vn 0.829802 0.549699 -0.096226
vn 0.426153 0.855267 -0.294809
vn 0.407342 0.909042 -0.087835
vn -0.339842 0.938054 -0.067550
vn 0.407342 0.909042 -0.087835
vn 0.000000 0.938910 -0.344163
vn -0.339842 0.938054 -0.067550
vn -0.829802 0.549699 -0.096226
vn -0.339842 0.938054 -0.067550
vn -0.426152 0.855267 -0.294809
vn -0.829802 0.549699 -0.096226
vn -0.908162 0.384435 -0.165686
vn -0.829802 0.549699 -0.096226
vn -0.426152 0.855267 -0.294809
vn -0.908162 0.384435 -0.165686
vn 0.981199 0.187163 0.047110
vn 0.908162 0.384435 -0.165686
vn 0.829802 0.549699 -0.096226
vn 0.981199 0.187163 0.047110
vn 0.795032 0.597079 0.106866
vn 0.981199 0.187163 0.047110
vn 0.829802 0.549699 -0.096226
vn 0.795032 0.597079 0.106866
vn 0.862600 0.496191 0.098570
vn 0.946379 0.321474 0.031959
vn 0.981199 0.187163 0.047110
vn 0.862600 0.496191 0.098570
vn 0.795032 0.597079 0.106866
vn 0.862600 0.496191 0.098570
vn 0.981199 0.187163 0.047110
vn 0.795032 0.597079 0.106866
vn 0.795032 0.597079 0.106866
vn 0.829802 0.549699 -0.096226
vn 0.407342 0.909042 -0.087835
vn 0.795032 0.597079 0.106866
vn 0.271081 0.949601 0.157393
vn 0.795032 0.597079 0.106866
vn 0.407342 0.909042 -0.087835
vn 0.271081 0.949601 0.157393
vn 0.431943 0.870869 0.234549
vn 0.862600 0.496191 0.098570
vn 0.795032 0.597079 0.106866
vn 0.431943 0.870869 0.234549
vn 0.271081 0.949601 0.157393
vn 0.431943 0.870869 0.234549
vn 0.795032 0.597079 0.106866
vn 0.271081 0.949601 0.157393
vn 0.271081 0.949601 0.157393
vn 0.407342 0.909042 -0.087835
vn -0.339842 0.938054 -0.067550
vn 0.271081 0.949601 0.157393
vn -0.410768 0.899432 0.149302
vn 0.271081 0.949601 0.157393
vn -0.339842 0.938054 -0.067550
vn -0.410768 0.899432 0.149302
vn -0.325286 0.910772 0.254329
vn 0.431943 0.870869 0.234549
vn 0.271081 0.949601 0.157393
vn -0.325286 0.910772 0.254329
vn -0.410768 0.899432 0.149302
vn -0.325286 0.910772 0.254329
vn 0.271081 0.949601 0.157393
vn -0.410768 0.899432 0.149302
vn -0.339842 0.938054 -0.067550
vn -0.829802 0.549699 -0.096226
vn -0.795032 0.597079 0.106866
vn -0.339842 0.938054 -0.067550
vn -0.410768 0.899432 0.149302
vn -0.339842 0.938054 -0.067550
vn -0.795032 0.597079 0.106866
vn -0.410768 0.899432 0.149302
vn -0.325286 0.910772 0.254329
vn -0.410768 0.899432 0.149302
vn -0.795032 0.597079 0.106866
vn -0.325286 0.910772 0.254329
vn -0.862600 0.496191 0.098570
vn -0.325286 0.910772 0.254329
vn -0.795032 0.597079 0.106866
vn -0.862600 0.496191 0.098570
vn -0.829802 0.549699 -0.096226
vn -0.908162 0.384435 -0.165686
vn -0.981199 0.187163 0.047110
vn -0.829802 0.549699 -0.096226
vn -0.795032 0.597079 0.106866
vn -0.829802 0.549699 -0.096226
vn -0.981199 0.187163 0.047110
vn -0.795032 0.597079 0.106866
vn -0.862600 0.496191 0.098570
vn -0.795032 0.597079 0.106866
vn -0.981199 0.187163 0.047110
vn -0.862600 0.496191 0.098570
vn -0.946379 0.321474 0.031959
vn -0.862600 0.496191 0.098570
vn -0.981199 0.187163 0.047110
vn -0.946379 0.321474 0.031959
vn 0.946379 -0.321474 -0.031959
vn 0.946379 -0.321474 -0.031959
vn 0.946379 -0.321474 -0.031959
vn 0.946379 -0.321474 -0.031959
vn 0.976462 -0.204466 -0.068666
vn 0.976462 -0.204466 -0.068666
vn 0.976462 -0.204466 -0.068666
vn 0.976462 -0.204466 -0.068666
vn 0.483115 -0.858031 -0.174306
vn 0.483115 -0.858031 -0.174306
vn 0.483115 -0.858031 -0.174306
vn 0.483115 -0.858031 -0.174306
vn 0.737384 -0.646134 -0.196915
vn 0.737384 -0.646134 -0.196915
vn 0.737384 -0.646134 -0.196915
vn 0.737384 -0.646134 -0.196915
vn 0.975873 -0.204342 -0.076916
vn 0.975873 -0.204342 -0.076916
vn 0.975873 -0.204342 -0.076916
vn 0.975873 -0.204342 -0.076916
vn 0.580352 -0.811542 -0.067750
vn 0.580352 -0.811542 -0.067750
vn 0.580352 -0.811542 -0.067750
vn 0.580352 -0.811542 -0.067750
vn 0.751943 -0.658893 -0.021014
vn 0.751943 -0.658893 -0.021014
vn 0.751943 -0.658893 -0.021014
vn 0.751943 -0.658893 -0.021014
vn 0.000000 -0.999492 -0.031876
vn 0.000000 -0.999492 -0.031876
vn 0.000000 -0.999492 -0.031876
vn 0.000000 -0.999492 -0.031876
vn -0.000000 -0.999492 -0.031876
vn -0.000000 -0.999492 -0.031876
vn -0.000000 -0.999492 -0.031876
vn -0.000000 -0.999492 -0.031876
vn 0.655860 -0.687520 0.311713
vn 0.655860 -0.687520 0.311713
vn 0.655860 -0.687520 0.311713
vn 0.655860 -0.687520 0.311713
vn 0.558452 -0.780918 0.279818
vn 0.558452 -0.780918 0.279818
vn 0.558452 -0.780918 0.279818
vn 0.558452 -0.780918 0.279818
vn 0.000000 -0.968626 0.248521
vn 0.000000 -0.968626 0.248521
vn 0.000000 -0.968626 0.248521
vn 0.000000 -0.968626 0.248521
vn -0.558452 -0.780918 0.279818
vn -0.558452 -0.780918 0.279818
vn -0.558452 -0.780918 0.279818
vn -0.558452 -0.780918 0.279818
vn -0.655861 -0.687519 0.311712
vn -0.655861 -0.687519 0.311712
vn -0.655861 -0.687519 0.311712
vn -0.655861 -0.687519 0.311712
vn -0.999864 -0.013367 -0.009640
vn -0.999864 -0.013367 -0.009640
vn -0.999864 -0.013367 -0.009640
vn -0.999864 -0.013367 -0.009640
vn -0.975873 -0.204342 -0.076916
vn -0.975873 -0.204342 -0.076916
vn -0.975873 -0.204342 -0.076916
vn -0.975873 -0.204342 -0.076916
vn -0.580352 -0.811542 -0.067750
vn -0.580352 -0.811542 -0.067750
vn -0.580352 -0.811542 -0.067750
vn -0.580352 -0.811542 -0.067750
vn -0.751943 -0.658893 -0.021014
vn -0.751943 -0.658893 -0.021014
vn -0.751943 -0.658893 -0.021014
vn -0.751943 -0.658893 -0.021014
vn 0.000000 -0.956564 -0.291521
vn 0.000000 -0.956564 -0.291521
vn 0.000000 -0.956564 -0.291521
vn 0.000000 -0.956564 -0.291521
vn -0.737384 -0.646134 -0.196915
vn -0.737384 -0.646134 -0.196915
vn -0.737384 -0.646134 -0.196915
vn -0.737384 -0.646134 -0.196915
vn -0.483115 -0.858031 -0.174306
vn -0.483115 -0.858031 -0.174306
vn -0.483115 -0.858031 -0.174306
vn -0.483115 -0.858031 -0.174306
vn -0.976462 -0.204466 -0.068666
vn -0.976462 -0.204466 -0.068666
vn -0.976462 -0.204466 -0.068666
vn -0.976462 -0.204466 -0.068666
vn -0.946379 -0.321474 -0.031959
vn -0.946379 -0.321474 -0.031959
vn -0.946379 -0.321474 -0.031959
vn -0.946379 -0.321474 -0.031959
vn 0.999864 -0.013367 -0.009640
vn 0.999864 -0.013367 -0.009640
vn 0.999864 -0.013367 -0.009640
vn 0.999864 -0.013367 -0.009640
vn -0.000000 -0.956564 -0.291521
vn -0.000000 -0.956564 -0.291521
vn -0.000000 -0.956564 -0.291521
vn -0.000000 -0.956564 -0.291521
# 200 vertex normals

g mat1
f 2/1/1 1/2/2 7/3/3
f 3/5/5 2/6/6 7/7/7
f 4/9/9 3/10/10 7/11/11
f 5/13/13 4/14/14 7/15/15
f 6/17/17 5/18/18 7/19/19
f 14/21/21 1/22/22 2/23/23
f 15/25/25 14/26/26 2/27/27
f 9/29/29 8/30/30 14/31/31
f 15/33/33 9/34/34 14/35/35
f 15/37/37 2/38/38 3/39/39
f 16/41/41 15/42/42 3/43/43
f 10/45/45 9/46/46 15/47/47
f 16/49/49 10/50/50 15/51/51
f 16/53/53 3/54/54 4/55/55
f 17/57/57 16/58/58 4/59/59
f 11/61/61 10/62/62 16/63/63
f 17/65/65 11/66/66 16/67/67
f 4/69/69 5/70/70 18/71/71
f 17/73/73 4/74/74 18/75/75
f 11/77/77 17/78/78 18/79/79
f 12/81/81 11/82/82 18/83/83
f 5/85/85 6/86/86 19/87/87
f 18/89/89 5/90/90 19/91/91
f 12/93/93 18/94/94 19/95/95
f 13/97/97 12/98/98 19/99/99
f 20/101/101 21/102/102 22/103/103
f 23/105/105 24/106/106 25/107/107
f 28/109/109 27/110/110 26/111/111
f 29/113/113 30/114/114 31/115/115
f 32/117/117 33/118/118 34/119/119
f 35/121/121 36/122/122 37/123/123
f 40/125/125 39/126/126 38/127/127
f 41/129/129 42/130/130 43/131/131
f 44/133/133 45/134/134 46/135/135
f 47/137/137 48/138/138 49/139/139
f 52/141/141 51/142/142 50/143/143
f 53/145/145 54/146/146 55/147/147
f 58/149/149 57/150/150 56/151/151
f 61/153/153 60/154/154 59/155/155
f 64/157/157 63/158/158 62/159/159
f 65/161/161 66/162/162 67/163/163
f 70/165/165 69/166/166 68/167/167
f 71/169/169 72/170/170 73/171/171
f 74/173/173 75/174/174 76/175/175
f 77/177/177 78/178/178 79/179/179
f 80/181/181 81/182/182 82/183/183
f 83/185/185 84/186/186 85/187/187
f 86/189/189 87/190/190 88/191/191
f 89/193/193 90/194/194 91/195/195
f 92/197/197 93/198/198 94/199/199
# 50 elements

