# Created by Metasequoia

v -0.041821 0.694195 -8.535243
v -0.089784 -0.233946 -9.094908
v 0.080158 0.692147 -8.533068
v 0.121346 -0.237122 -9.090052
v 0.081891 0.749804 -8.636740
v 0.122189 -0.177165 -9.261024
v -0.040088 0.751852 -8.638910
v -0.088941 -0.173989 -9.265875
v -0.109339 -0.071794 -9.223593
v 0.142060 -0.075576 -9.217821
v 0.144054 -0.068532 -9.324767
v -0.107345 -0.064751 -9.330539
v -0.127254 0.038291 -9.241761
v 0.160385 0.033963 -9.235153
v 0.132325 0.029748 -9.321141
v -0.095206 0.034075 -9.327746
v -0.029297 0.113752 -9.144828
v 0.062499 0.111704 -9.142655
v 0.079008 0.169361 -9.246327
v -0.042971 0.171409 -9.248496
# 20 vertices

vt 0.47630 0.36511
vt 0.48323 0.37976
vt 0.47393 0.38376
vt 0.48025 0.39091
vt 0.46794 0.39207
vt 0.46895 0.40195
vt 0.38040 0.39100
vt 0.45696 0.39118
vt 0.38324 0.40132
vt 0.45980 0.40146
# 10 texture vertices

vn -0.02845 -0.72390 0.68932
vn -0.00658 -0.94362 -0.33095
vn -0.02445 -0.72364 0.68975
vn -0.00659 -0.94363 -0.33095
vn 0.99641 -0.06905 0.04890
vn 0.00296 -0.77272 -0.63474
vn 0.02442 0.72393 -0.68944
vn 0.00296 -0.77272 -0.63474
vn -0.01290 0.48097 0.87664
vn -0.01688 0.32263 0.94637
vn 0.99154 -0.07980 -0.10233
vn 0.02251 -0.15324 -0.98793
vn -0.02027 0.15957 0.98698
vn -0.02027 0.15956 0.98698
vn 0.88978 0.44702 -0.09205
vn 0.03005 0.34214 -0.93917
vn -0.03029 -0.76113 0.64789
vn -0.02972 -0.74379 0.66775
vn 0.98095 0.05442 0.18647
vn 0.02443 0.65318 -0.75681
vn -0.00867 0.62099 0.78377
vn -0.00869 0.62097 0.78379
vn 0.98302 -0.18185 -0.02452
vn 0.98406 -0.16930 -0.05452
vn 0.98432 -0.17587 -0.01381
vn 0.01654 -0.33752 -0.94117
vn -0.98408 -0.17285 -0.04135
vn -0.98340 -0.16966 -0.06435
vn -0.98314 -0.17663 -0.04739
vn -0.98714 -0.07665 -0.14028
vn 0.98745 -0.02044 -0.15658
vn 0.02993 0.18677 -0.98195
vn -0.98052 -0.02119 -0.19529
vn -0.88149 0.45654 -0.12061
vn -0.02917 -0.77875 0.62665
vn -0.02616 -0.77583 0.63040
vn 0.99192 0.02598 0.12414
vn 0.99954 -0.03027 -0.00013
vn 0.02442 0.72393 -0.68944
vn 0.02786 0.57209 -0.81972
vn -0.99851 -0.04322 0.03321
vn -0.99983 -0.00254 -0.01813
vn -0.99343 0.04441 0.10548
vn -0.98352 0.06795 0.16752
vn -0.45582 0.86439 -0.21227
vn 0.48620 0.85057 -0.20035
# 46 normal vertices

g $lg3
f 8/2/8 6/2/6 4/1/4
f 2/1/2 8/2/8 4/1/4
f 9/3/9 2/1/22 4/1/21
f 10/3/10 9/3/9 4/1/21
f 10/3/25 4/1/24 6/2/23
f 11/4/11 10/3/25 6/2/23
f 11/4/26 6/2/6 8/2/8
f 12/4/12 11/4/26 8/2/8
f 8/2/29 2/1/28 9/3/27
f 12/4/30 8/2/29 9/3/27
f 13/5/13 9/3/9 10/3/10
f 14/5/14 13/5/13 10/3/10
f 14/5/31 10/3/25 11/4/11
f 15/6/15 14/5/31 11/4/11
f 15/6/32 11/4/26 12/4/12
f 16/6/16 15/6/32 12/4/12
f 12/4/30 9/3/27 13/5/33
f 16/6/34 12/4/30 13/5/33
f 18/8/18 3/7/3 1/7/1
f 17/8/17 18/8/18 1/7/1
f 17/8/17 13/5/36 14/5/35
f 18/8/18 17/8/17 14/5/35
f 5/9/5 3/7/38 18/8/37
f 19/10/19 5/9/5 18/8/37
f 20/10/20 7/9/7 5/9/39
f 19/10/40 20/10/20 5/9/39
f 19/10/40 15/6/32 16/6/16
f 20/10/20 19/10/40 16/6/16
f 17/8/43 1/7/42 7/9/41
f 20/10/44 17/8/43 7/9/41
f 17/8/45 16/6/34 13/5/45
f 20/10/44 16/6/34 17/8/43
f 15/6/15 18/8/46 14/5/46
f 15/6/15 19/10/19 18/8/37
# 34 elements

