# Created by Metasequoia

v 4.992411 1.764063 -6.956674
v 4.958833 1.639593 -6.329609
v 7.148162 1.645144 -6.803636
v 7.109522 1.783780 -5.937363
v 7.095789 1.639324 -4.953174
v 5.878387 1.639203 -4.431633
v 5.909642 1.647419 -6.570256
v 5.930555 1.865556 -5.773862
v 5.897933 1.831421 -5.177078
v 5.919908 1.705015 -6.896744
v 4.910293 1.876303 -4.678721
v 4.890276 1.686440 -4.031889
v 4.911248 1.913692 -5.608828
v 7.148162 1.645144 -6.803636
v 7.109522 1.783780 -5.937363
v 7.095789 1.639324 -4.953174
v 7.354825 1.831743 -6.817826
v 7.357889 1.627806 -6.830165
v 7.129002 1.831755 -6.869252
v 7.050494 1.831755 -3.675283
v 7.090545 1.634945 -3.675283
v 7.307169 1.831755 -3.675283
v 7.302769 1.627789 -3.675283
v 7.492369 1.717111 -6.773437
v 7.492369 1.891088 -6.774696
v 7.612886 1.840131 -6.774696
v 7.662801 1.717111 -6.774696
v 7.612886 1.594091 -6.774696
v 7.492369 1.543135 -6.774696
v 7.371849 1.594091 -6.774696
v 7.321932 1.717111 -6.774696
v 7.371849 1.840131 -6.774696
v 7.492369 1.810845 -3.816955
v 7.570745 1.750251 -3.816955
v 7.541082 1.651510 -3.818932
v 7.438558 1.658109 -3.818027
v 7.413983 1.750251 -3.816955
v 7.492369 1.728136 -3.740402
v 7.492369 1.873007 -4.134584
v 7.600362 1.827348 -4.134467
v 7.645089 1.717111 -4.134423
v 7.600362 1.606875 -4.134467
v 7.492369 1.561215 -4.134584
v 7.384373 1.606875 -4.134697
v 7.384373 1.827348 -4.134697
v 7.492369 1.891088 -4.514456
v 7.612886 1.840131 -4.514329
v 7.662801 1.717111 -4.514272
v 7.612886 1.594091 -4.514329
v 7.492369 1.543135 -4.514456
v 7.371849 1.594091 -4.514580
v 7.371849 1.840131 -4.514580
v 7.371849 1.594091 -6.774696
v 7.321932 1.717111 -6.774696
v 7.371849 1.840131 -6.774696
v 7.384373 1.606875 -4.134697
v 7.339637 1.717111 -4.134748
v 7.384373 1.827348 -4.134697
v 7.371849 1.594091 -4.514580
v 7.321932 1.717111 -4.514634
v 7.371849 1.840131 -4.514580
# 61 vertices

vt 0.37994 0.26753
vt 0.33818 0.29083
vt 0.38122 0.24398
vt 0.41511 0.23205
vt 0.41379 0.25518
vt 0.37826 0.31225
vt 0.40905 0.32515
vt 0.41784 0.30554
vt 0.37832 0.28649
vt 0.37763 0.32256
vt 0.33602 0.31865
vt 0.41301 0.28196
vt 0.33945 0.25962
vt 0.33672 0.32047
vt 0.32888 0.31936
vt 0.32910 0.31865
vt 0.34200 0.22599
vt 0.34012 0.24025
vt 0.33357 0.21658
vt 0.33351 0.22058
vt 0.84448 0.95794
vt 0.84883 0.96133
vt 0.85067 0.95799
vt 0.84444 0.96268
vt 0.84009 0.96126
vt 0.83831 0.95789
vt 0.84015 0.95455
vt 0.84453 0.95319
vt 0.84889 0.95461
vt 0.84285 0.94072
vt 0.84568 0.94074
vt 0.84386 0.93913
vt 0.84045 0.94004
vt 0.84084 0.94203
vt 0.84383 0.94233
vt 0.77738 0.97940
vt 0.77736 0.98200
vt 0.78589 0.98209
vt 0.78592 0.97850
vt 0.86085 0.97548
vt 0.86406 0.96677
vt 0.85957 0.96674
vt 0.85624 0.97544
vt 0.85508 0.96670
vt 0.85101 0.97031
vt 0.84158 0.96771
vt 0.84155 0.97130
vt 0.85098 0.97355
vt 0.84151 0.97489
vt 0.77734 0.98461
vt 0.78586 0.98568
vt 0.86444 0.98203
vt 0.86448 0.97803
vt 0.79722 0.97818
vt 0.79719 0.98219
vt 0.86571 0.89415
vt 0.86070 0.89411
vt 0.86015 0.95629
vt 0.86517 0.95633
vt 0.85568 0.89407
vt 0.85514 0.95624
vt 0.76303 0.96661
vt 0.76299 0.97062
vt 0.83025 0.97121
vt 0.83028 0.96720
vt 0.76296 0.97463
vt 0.83021 0.97521
vt 0.86441 0.98604
vt 0.79716 0.98590
vt 0.82744 0.88799
vt 0.82887 0.87926
vt 0.82481 0.87922
vt 0.82295 0.88795
vt 0.83193 0.88803
vt 0.82255 0.96056
vt 0.82756 0.96061
vt 0.82750 0.89844
vt 0.82249 0.89839
vt 0.83258 0.96065
vt 0.83251 0.89848
# 80 texture vertices

vn -0.04650 -0.98147 -0.18588
vn -0.02494 -0.99784 -0.06072
vn -0.01290 -0.99807 -0.06079
vn 0.09658 0.99532 0.00353
vn -0.00126 -0.99999 -0.00318
vn 0.14677 0.96141 0.23272
vn -0.02470 -0.99348 -0.11127
vn 0.05203 0.99781 -0.04078
vn 0.11343 0.98458 0.13315
vn -0.04301 -0.98365 -0.17488
vn 0.13251 0.97234 0.19236
vn 0.15954 0.94588 0.28258
vn 0.05426 0.99784 -0.03699
vn -0.14568 -0.34145 -0.92854
vn 0.06236 0.98735 0.14579
vn 0.22161 0.06221 -0.97315
vn 0.03947 -0.14517 -0.98862
vn -0.98766 -0.15515 -0.02158
vn -0.97974 -0.19938 -0.01869
vn 0.00000 0.00000 1.00000
vn -0.00000 0.00000 -1.00000
vn -0.00000 -0.00724 -0.99997
vn -0.00522 -0.00512 -0.99997
vn -0.00739 0.00000 -0.99997
vn -0.00522 0.00512 -0.99997
vn -0.00000 0.00724 -0.99997
vn 0.00522 0.00512 -0.99997
vn 0.00739 0.00000 -0.99997
vn 0.00522 -0.00512 -0.99997
vn -0.09025 0.88666 0.45354
vn 0.79770 0.42588 0.42698
vn 0.56186 -0.68930 0.45736
vn -0.59369 -0.66571 0.45207
vn -0.83703 0.29805 0.45886
vn 0.65296 0.20743 0.72844
vn 0.18014 0.97498 0.13024
vn 0.76348 0.63450 0.12043
vn 0.98357 -0.11679 0.13769
vn 0.64631 -0.75369 0.11931
vn -0.01256 -0.98583 0.16730
vn -0.38757 -0.91643 0.09979
vn -0.44310 0.88730 0.12789
vn -0.13953 0.98994 0.02355
vn 0.60937 0.79254 0.02337
vn 0.99071 0.13399 0.02309
vn 0.80132 -0.59778 0.02326
vn 0.06028 -0.99781 0.02713
vn -0.38940 -0.92095 0.01460
vn -0.38936 0.92083 0.02190
vn -0.92662 -0.37599 0.00000
vn -0.99098 0.13403 0.00000
vn -0.92662 0.37599 0.00000
vn -0.92193 -0.37408 0.10053
vn -0.99034 0.02258 0.13678
vn -0.92108 0.37374 0.10924
vn -0.92641 -0.37589 0.02159
vn -0.99071 -0.13400 0.02308
vn -0.92641 0.37591 0.02158
vn 0.05065 0.98939 -0.13619
vn 0.05983 0.98608 -0.15514
vn 0.06999 0.99191 -0.10590
vn -0.04000 -0.99902 0.01917
vn -0.00914 -0.99996 0.00210
vn 0.99034 -0.13710 0.02096
vn 0.99885 -0.04564 0.01442
vn 0.98948 -0.14211 0.02709
vn 0.98291 -0.18247 0.02417
vn 0.99185 -0.12710 0.00877
vn -0.99356 -0.11060 -0.02442
vn 0.99986 -0.00380 0.01632
vn 0.99975 0.01396 0.01747
vn 0.99965 -0.02156 0.01516
vn 0.00003 1.00000 -0.00000
vn 0.00005 1.00000 0.00000
vn 0.00000 1.00000 -0.00000
vn -0.05815 -0.99830 -0.00266
vn -0.03370 -0.99942 -0.00388
vn -0.08257 -0.99658 -0.00145
vn -0.99810 -0.02151 -0.05771
vn -0.99565 -0.08735 -0.03252
vn -0.99787 -0.05705 -0.03167
vn -0.99702 -0.07484 -0.01858
vn -0.99955 0.00353 -0.02990
vn -0.41694 -0.51206 0.75097
vn -0.46490 0.60140 0.64976
vn 0.13956 0.99021 0.00000
vn 0.80154 0.59794 0.00000
vn 0.99098 -0.13403 0.00000
vn 0.60955 -0.79275 0.00000
vn -0.13955 -0.99021 0.00000
vn -0.38942 -0.92106 -0.00000
vn -0.38943 0.92106 0.00000
# 92 normal vertices

g $wing0
f 6/3/6 4/2/4 9/1/9
f 11/5/11 12/4/12 6/3/6
f 9/1/9 11/5/11 6/3/6
f 2/8/2 1/7/1 7/6/7
f 8/9/8 9/1/9 4/2/4
f 7/6/7 1/7/1 10/10/10
f 10/10/10 3/11/3 7/6/7
f 13/12/13 9/1/9 8/9/8
f 9/1/9 13/12/13 11/5/11
f 4/2/4 10/10/59 8/9/8
f 10/10/59 4/2/4 3/11/60
f 10/10/59 13/12/13 8/9/8
f 10/10/59 1/7/61 13/12/13
f 2/8/2 6/3/63 12/4/62
f 6/3/63 2/8/2 7/6/7
f 3/11/3 6/3/63 7/6/7
f 3/11/3 5/13/5 6/3/63
f 16/13/15 15/2/15 6/3/6
f 9/1/66 6/3/65 7/6/64
f 7/6/64 8/9/67 9/1/66
f 8/9/67 7/6/64 10/10/68
f 18/15/17 14/11/14 19/14/17
f 17/16/16 18/15/17 19/14/17
f 14/11/18 21/18/19 20/17/18
f 19/14/69 14/11/18 20/17/18
f 21/18/20 23/20/20 22/19/20
f 20/17/20 21/18/20 22/19/20
f 23/20/70 18/15/71 17/16/70
f 22/19/72 23/20/70 17/16/70
f 17/16/73 19/14/74 20/17/73
f 22/19/75 17/16/73 20/17/73
f 23/20/76 21/18/77 14/11/76
f 18/15/78 23/20/76 14/11/76
f 2/8/81 13/12/80 1/7/79
f 11/5/82 13/12/80 2/8/81
f 2/8/81 12/4/83 11/5/82
f 25/23/22 26/22/23 24/21/21
f 26/22/23 27/24/24 24/21/21
f 27/24/24 28/25/25 24/21/21
f 28/25/25 29/26/26 24/21/21
f 29/26/26 30/27/27 24/21/21
f 30/27/27 31/28/28 24/21/21
f 31/28/28 32/29/29 24/21/21
f 32/29/29 25/23/22 24/21/21
f 34/32/31 33/31/30 38/30/35
f 35/33/32 34/32/31 38/30/35
f 36/34/33 35/33/32 38/30/84
f 37/35/34 36/34/33 38/30/84
f 33/31/30 37/35/34 38/30/85
f 39/38/36 33/37/30 34/36/31
f 40/39/37 39/38/36 34/36/31
f 41/42/38 40/41/37 34/40/31
f 41/42/38 34/40/31 35/43/32
f 42/44/39 41/42/38 35/43/32
f 43/47/40 42/46/39 35/45/32
f 43/47/40 35/45/32 36/48/33
f 44/49/41 43/47/40 36/48/33
f 45/51/42 37/50/34 33/37/30
f 39/38/36 45/51/42 33/37/30
f 47/54/44 26/53/87 25/52/86
f 46/55/43 47/54/44 25/52/86
f 39/38/36 40/39/37 47/54/44
f 46/55/43 39/38/36 47/54/44
f 48/58/45 27/57/88 26/56/87
f 47/59/44 48/58/45 26/56/87
f 40/41/37 41/42/38 48/58/45
f 47/59/44 40/41/37 48/58/45
f 49/61/46 28/60/89 27/57/88
f 48/58/45 49/61/46 27/57/88
f 41/42/38 42/44/39 49/61/46
f 48/58/45 41/42/38 49/61/46
f 50/64/47 29/63/90 28/62/89
f 49/65/46 50/64/47 28/62/89
f 42/46/39 43/47/40 50/64/47
f 49/65/46 42/46/39 50/64/47
f 51/67/48 30/66/91 29/63/90
f 50/64/47 51/67/48 29/63/90
f 44/49/41 51/67/48 50/64/47
f 43/47/40 44/49/41 50/64/47
f 46/55/43 25/52/86 32/68/92
f 52/69/49 46/55/43 32/68/92
f 45/51/42 39/38/36 46/55/43
f 52/69/49 45/51/42 46/55/43
f 36/72/33 37/71/34 57/70/54
f 56/73/53 36/72/33 57/70/54
f 58/74/55 57/70/54 37/71/34
f 60/77/57 54/76/51 53/75/50
f 59/78/56 60/77/57 53/75/50
f 56/73/53 57/70/54 60/77/57
f 59/78/56 56/73/53 60/77/57
f 61/80/58 55/79/52 54/76/51
f 60/77/57 61/80/58 54/76/51
f 57/70/54 58/74/55 61/80/58
f 60/77/57 57/70/54 61/80/58
# 94 elements

