# Created by 3DAce v2.72


g
v 0.000000 2.620642 2.850075
v 0.257865 2.513831 2.850075
v 0.364677 2.255964 2.850075
v 0.257865 1.998097 2.850075
v 0.000000 1.891286 2.850075
v -0.257865 1.998097 2.850075
v -0.364677 2.255964 2.850075
v -0.257865 2.513831 2.850075
v 0.000000 2.501884 3.393293
v 0.173891 2.429855 3.393293
v 0.245917 2.255964 3.393293
v 0.173891 2.082075 3.393293
v 0.000000 2.010047 3.393293
v -0.173891 2.082075 3.393293
v -0.245917 2.255964 3.393293
v -0.173891 2.429855 3.393293
v 0.000000 2.255964 3.632209
v 0.000000 2.584378 3.150805
v 0.232222 2.488187 3.150805
v 0.328414 2.255964 3.150805
v 0.232222 2.023741 3.150805
v 0.000000 1.927549 3.150805
v -0.232222 2.023741 3.150805
v -0.328414 2.255964 3.150805
v -0.232222 2.488187 3.150805
v 0.754752 4.117133 3.015246
v 0.741406 4.028909 3.071408
v 0.854694 3.980279 3.089549
v 0.774627 4.014645 3.000478
v 0.661341 4.063268 2.982335
v 0.218366 2.764706 3.075753
v 0.326871 2.718127 3.035941
v 0.218366 2.764706 2.996124
v 0.109863 2.811286 3.035941
v 0.000000 2.256036 3.035932
v 1.234376 0.671853 3.015246
v 1.164648 0.727523 3.071408
v 1.065888 0.653735 3.089549
v 1.135687 0.705887 3.000478
v 1.234446 0.779680 2.982335
v 0.331337 1.812594 3.075753
v 0.236745 1.741916 3.035941
v 0.331337 1.812594 2.996124
v 0.425927 1.883268 3.035941
v 0.000000 2.256036 3.035932
v -1.989135 1.979127 3.015246
v -1.906054 2.011682 3.071408
v -1.920579 2.134101 3.089549
v -1.910313 2.047579 3.000478
v -1.895788 1.925154 2.982335
v -0.549703 2.190816 3.075753
v -0.563616 2.308071 3.035941
v -0.549703 2.190816 2.996124
v -0.535793 2.073558 3.035941
v 0.000000 2.256036 3.035932
# 55 vertices

vt 0.785130 0.571500
vt 0.785130 0.576460
vt 0.768660 0.559510
vt 0.785130 0.571500
vt 0.785130 0.559510
vt 0.785130 0.571500
vt 0.768660 0.559510
vt 0.785130 0.559510
vt 0.785130 0.547520
vt 0.785130 0.559510
vt 0.768660 0.559510
vt 0.785130 0.547520
vt 0.785130 0.542560
vt 0.785130 0.547520
vt 0.768660 0.559510
vt 0.785130 0.542560
vt 0.785130 0.547520
vt 0.785130 0.542560
vt 0.768660 0.559510
vt 0.785130 0.547520
vt 0.785130 0.559510
vt 0.785130 0.547520
vt 0.768660 0.559510
vt 0.785130 0.559510
vt 0.785130 0.571500
vt 0.785130 0.559510
vt 0.768660 0.559510
vt 0.785130 0.571500
vt 0.785130 0.576460
vt 0.785130 0.571500
vt 0.768660 0.559510
vt 0.785130 0.576460
vt 0.873150 0.640430
vt 0.881650 0.640430
vt 0.871600 0.646380
vt 0.873150 0.640430
vt 0.881650 0.640430
vt 0.875640 0.640430
vt 0.871600 0.646380
vt 0.881650 0.640430
vt 0.875640 0.640430
vt 0.867150 0.640430
vt 0.871600 0.646380
vt 0.875640 0.640430
vt 0.867150 0.640430
vt 0.873150 0.640430
vt 0.871600 0.646380
vt 0.867150 0.640430
vt 0.882540 0.546110
vt 0.874400 0.546110
vt 0.874400 0.507950
vt 0.882540 0.546110
vt 0.874400 0.546110
vt 0.882540 0.546110
vt 0.874400 0.507950
vt 0.874400 0.546110
vt 0.866260 0.546110
vt 0.874400 0.546110
vt 0.874400 0.507950
vt 0.866260 0.546110
vt 0.874400 0.546110
vt 0.866260 0.546110
vt 0.874400 0.507950
vt 0.874400 0.546110
vt 0.873150 0.640430
vt 0.881650 0.640430
vt 0.871600 0.646380
vt 0.873150 0.640430
vt 0.881650 0.640430
vt 0.875640 0.640430
vt 0.871600 0.646380
vt 0.881650 0.640430
vt 0.875640 0.640430
vt 0.867150 0.640430
vt 0.871600 0.646380
vt 0.875640 0.640430
vt 0.867150 0.640430
vt 0.873150 0.640430
vt 0.871600 0.646380
vt 0.867150 0.640430
vt 0.882540 0.546110
vt 0.874400 0.546110
vt 0.874400 0.507950
vt 0.882540 0.546110
vt 0.874400 0.546110
vt 0.882540 0.546110
vt 0.874400 0.507950
vt 0.874400 0.546110
vt 0.866260 0.546110
vt 0.874400 0.546110
vt 0.874400 0.507950
vt 0.866260 0.546110
vt 0.874400 0.546110
vt 0.866260 0.546110
vt 0.874400 0.507950
vt 0.874400 0.546110
vt 0.873150 0.640430
vt 0.881650 0.640430
vt 0.871600 0.646380
vt 0.873150 0.640430
vt 0.881650 0.640430
vt 0.875640 0.640430
vt 0.871600 0.646380
vt 0.881650 0.640430
vt 0.875640 0.640430
vt 0.867150 0.640430
vt 0.871600 0.646380
vt 0.875640 0.640430
vt 0.867150 0.640430
vt 0.873150 0.640430
vt 0.871600 0.646380
vt 0.867150 0.640430
vt 0.882540 0.546110
vt 0.874400 0.546110
vt 0.874400 0.507950
vt 0.882540 0.546110
vt 0.874400 0.546110
vt 0.882540 0.546110
vt 0.874400 0.507950
vt 0.874400 0.546110
vt 0.866260 0.546110
vt 0.874400 0.546110
vt 0.874400 0.507950
vt 0.866260 0.546110
vt 0.874400 0.546110
vt 0.866260 0.546110
vt 0.874400 0.507950
vt 0.874400 0.546110
vt 0.801850 0.582150
vt 0.785130 0.576460
vt 0.785130 0.571500
vt 0.801850 0.582150
vt 0.801850 0.575520
vt 0.801850 0.582150
vt 0.785130 0.571500
vt 0.801850 0.575520
vt 0.822580 0.577290
vt 0.822580 0.584650
vt 0.801850 0.582150
vt 0.822580 0.577290
vt 0.801850 0.575520
vt 0.822580 0.577290
vt 0.801850 0.582150
vt 0.801850 0.575520
vt 0.801850 0.575520
vt 0.785130 0.571500
vt 0.785130 0.559510
vt 0.801850 0.575520
vt 0.801850 0.559510
vt 0.801850 0.575520
vt 0.785130 0.559510
vt 0.801850 0.559510
vt 0.822580 0.559510
vt 0.822580 0.577290
vt 0.801850 0.575520
vt 0.822580 0.559510
vt 0.801850 0.559510
vt 0.822580 0.559510
vt 0.801850 0.575520
vt 0.801850 0.559510
vt 0.801850 0.559510
vt 0.785130 0.559510
vt 0.785130 0.547520
vt 0.801850 0.559510
vt 0.801850 0.543500
vt 0.801850 0.559510
vt 0.785130 0.547520
vt 0.801850 0.543500
vt 0.822580 0.541730
vt 0.822580 0.559510
vt 0.801850 0.559510
vt 0.822580 0.541730
vt 0.801850 0.543500
vt 0.822580 0.541730
vt 0.801850 0.559510
vt 0.801850 0.543500
vt 0.801850 0.543500
vt 0.785130 0.547520
vt 0.785130 0.542560
vt 0.801850 0.543500
vt 0.801850 0.536870
vt 0.801850 0.543500
vt 0.785130 0.542560
vt 0.801850 0.536870
vt 0.822580 0.534370
vt 0.822580 0.541730
vt 0.801850 0.543500
vt 0.822580 0.534370
vt 0.801850 0.536870
vt 0.822580 0.534370
vt 0.801850 0.543500
vt 0.801850 0.536870
vt 0.801850 0.536870
vt 0.785130 0.542560
vt 0.785130 0.547520
vt 0.801850 0.536870
vt 0.801850 0.543500
vt 0.801850 0.536870
vt 0.785130 0.547520
vt 0.801850 0.543500
vt 0.822580 0.541730
vt 0.822580 0.534370
vt 0.801850 0.536870
vt 0.822580 0.541730
vt 0.801850 0.543500
vt 0.822580 0.541730
vt 0.801850 0.536870
vt 0.801850 0.543500
vt 0.801850 0.543500
vt 0.785130 0.547520
vt 0.785130 0.559510
vt 0.801850 0.543500
vt 0.801850 0.559510
vt 0.801850 0.543500
vt 0.785130 0.559510
vt 0.801850 0.559510
vt 0.822580 0.559510
vt 0.822580 0.541730
vt 0.801850 0.543500
vt 0.822580 0.559510
vt 0.801850 0.559510
vt 0.822580 0.559510
vt 0.801850 0.543500
vt 0.801850 0.559510
vt 0.801850 0.559510
vt 0.785130 0.559510
vt 0.785130 0.571500
vt 0.801850 0.559510
vt 0.801850 0.575520
vt 0.801850 0.559510
vt 0.785130 0.571500
vt 0.801850 0.575520
vt 0.822580 0.577290
vt 0.822580 0.559510
vt 0.801850 0.559510
vt 0.822580 0.577290
vt 0.801850 0.575520
vt 0.822580 0.577290
vt 0.801850 0.559510
vt 0.801850 0.575520
vt 0.801850 0.575520
vt 0.785130 0.571500
vt 0.785130 0.576460
vt 0.801850 0.575520
vt 0.801850 0.582150
vt 0.801850 0.575520
vt 0.785130 0.576460
vt 0.801850 0.582150
vt 0.822580 0.584650
vt 0.822580 0.577290
vt 0.801850 0.575520
vt 0.822580 0.584650
vt 0.801850 0.582150
vt 0.822580 0.584650
vt 0.801850 0.575520
vt 0.801850 0.582150
vt 0.874400 0.546110
vt 0.882540 0.546110
vt 0.881650 0.640430
vt 0.874400 0.546110
vt 0.873150 0.640430
vt 0.874400 0.546110
vt 0.881650 0.640430
vt 0.873150 0.640430
vt 0.882540 0.546110
vt 0.874400 0.546110
vt 0.875640 0.640430
vt 0.882540 0.546110
vt 0.881650 0.640430
vt 0.882540 0.546110
vt 0.875640 0.640430
vt 0.881650 0.640430
vt 0.874400 0.546110
vt 0.866260 0.546110
vt 0.867150 0.640430
vt 0.874400 0.546110
vt 0.875640 0.640430
vt 0.874400 0.546110
vt 0.867150 0.640430
vt 0.875640 0.640430
vt 0.866260 0.546110
vt 0.874400 0.546110
vt 0.873150 0.640430
vt 0.866260 0.546110
vt 0.867150 0.640430
vt 0.866260 0.546110
vt 0.873150 0.640430
vt 0.867150 0.640430
vt 0.874400 0.546110
vt 0.882540 0.546110
vt 0.881650 0.640430
vt 0.874400 0.546110
vt 0.873150 0.640430
vt 0.874400 0.546110
vt 0.881650 0.640430
vt 0.873150 0.640430
vt 0.882540 0.546110
vt 0.874400 0.546110
vt 0.875640 0.640430
vt 0.882540 0.546110
vt 0.881650 0.640430
vt 0.882540 0.546110
vt 0.875640 0.640430
vt 0.881650 0.640430
vt 0.874400 0.546110
vt 0.866260 0.546110
vt 0.867150 0.640430
vt 0.874400 0.546110
vt 0.875640 0.640430
vt 0.874400 0.546110
vt 0.867150 0.640430
vt 0.875640 0.640430
vt 0.866260 0.546110
vt 0.874400 0.546110
vt 0.873150 0.640430
vt 0.866260 0.546110
vt 0.867150 0.640430
vt 0.866260 0.546110
vt 0.873150 0.640430
vt 0.867150 0.640430
vt 0.874400 0.546110
vt 0.882540 0.546110
vt 0.881650 0.640430
vt 0.874400 0.546110
vt 0.873150 0.640430
vt 0.874400 0.546110
vt 0.881650 0.640430
vt 0.873150 0.640430
vt 0.882540 0.546110
vt 0.874400 0.546110
vt 0.875640 0.640430
vt 0.882540 0.546110
vt 0.881650 0.640430
vt 0.882540 0.546110
vt 0.875640 0.640430
vt 0.881650 0.640430
vt 0.874400 0.546110
vt 0.866260 0.546110
vt 0.867150 0.640430
vt 0.874400 0.546110
vt 0.875640 0.640430
vt 0.874400 0.546110
vt 0.867150 0.640430
vt 0.875640 0.640430
vt 0.866260 0.546110
vt 0.874400 0.546110
vt 0.873150 0.640430
vt 0.866260 0.546110
vt 0.867150 0.640430
vt 0.866260 0.546110
vt 0.873150 0.640430
vt 0.867150 0.640430
# 352 texture vertices

vn 0.555815 0.667974 0.494853
vn -0.079316 0.865348 0.494855
vn 0.247207 0.596804 0.763357
vn 0.555815 0.667974 0.494853
vn 0.865348 0.079315 0.494855
vn 0.555815 0.667974 0.494853
vn 0.596810 0.247204 0.763353
vn 0.865348 0.079315 0.494855
vn 0.667977 -0.555809 0.494856
vn 0.865348 0.079315 0.494855
vn 0.596809 -0.247207 0.763353
vn 0.667977 -0.555809 0.494856
vn 0.079316 -0.865346 0.494859
vn 0.667977 -0.555809 0.494856
vn 0.247207 -0.596808 0.763354
vn 0.079316 -0.865346 0.494859
vn -0.555812 -0.667974 0.494857
vn 0.079316 -0.865346 0.494859
vn -0.247207 -0.596808 0.763354
vn -0.555812 -0.667974 0.494857
vn -0.865348 -0.079317 0.494856
vn -0.555812 -0.667974 0.494857
vn -0.596809 -0.247207 0.763353
vn -0.865348 -0.079317 0.494856
vn -0.667980 0.555807 0.494855
vn -0.865348 -0.079317 0.494856
vn -0.596810 0.247204 0.763353
vn -0.667980 0.555807 0.494855
vn -0.079316 0.865348 0.494855
vn -0.667980 0.555807 0.494855
vn -0.247207 0.596804 0.763357
vn -0.079316 0.865348 0.494855
vn -0.323118 0.327263 0.887971
vn 0.083738 0.150925 0.984992
vn -0.233697 0.547051 0.803817
vn -0.323118 0.327263 0.887971
vn 0.742113 -0.008115 -0.670225
vn 0.447246 -0.003544 -0.894404
vn 0.526992 0.220468 -0.820776
vn 0.742113 -0.008115 -0.670225
vn 0.447246 -0.003544 -0.894404
vn 0.020260 0.076145 -0.996891
vn 0.526992 0.220468 -0.820776
vn 0.447246 -0.003544 -0.894404
vn -0.591517 0.414504 0.691588
vn -0.323118 0.327263 0.887971
vn -0.233697 0.547051 0.803817
vn -0.591517 0.414504 0.691588
vn 0.273053 -0.172790 0.946354
vn -0.042062 -0.020673 0.998901
vn -0.028306 -0.065931 0.997423
vn 0.273053 -0.172790 0.946354
vn 0.013990 -0.044722 -0.998901
vn 0.420411 -0.193536 -0.886453
vn -0.028297 -0.065910 -0.997424
vn 0.013990 -0.044722 -0.998901
vn -0.313374 0.078971 -0.946340
vn 0.013990 -0.044722 -0.998901
vn -0.028297 -0.065910 -0.997424
vn -0.313374 0.078971 -0.946340
vn -0.042062 -0.020673 0.998901
vn -0.429873 0.171472 0.886458
vn -0.028306 -0.065931 0.997423
vn -0.042062 -0.020673 0.998901
vn 0.444970 0.116173 0.887978
vn 0.088834 -0.147991 0.984991
vn 0.590596 -0.071190 0.803821
vn 0.444970 0.116173 0.887978
vn -0.378100 -0.638631 -0.670217
vn -0.226700 -0.385556 -0.894401
vn -0.072585 -0.566629 -0.820770
vn -0.378100 -0.638631 -0.670217
vn -0.226700 -0.385556 -0.894401
vn 0.055814 -0.055619 -0.996891
vn -0.072585 -0.566629 -0.820770
vn -0.226700 -0.385556 -0.894401
vn 0.654718 0.304974 0.691618
vn 0.444970 0.116173 0.887978
vn 0.590596 -0.071190 0.803821
vn 0.654718 0.304974 0.691618
vn -0.286167 -0.150076 0.946354
vn 0.003130 0.046765 0.998901
vn -0.042943 0.057482 0.997423
vn -0.286167 -0.150076 0.946354
vn -0.045723 0.010248 -0.998902
vn -0.377813 -0.267319 -0.886453
vn -0.042929 0.057463 -0.997424
vn -0.045723 0.010248 -0.998902
vn 0.225082 0.231909 -0.946338
vn -0.045723 0.010248 -0.998902
vn -0.042929 0.057463 -0.997424
vn 0.225082 0.231909 -0.946338
vn 0.003130 0.046765 0.998901
vn 0.363428 0.286540 0.886462
vn -0.042943 0.057482 0.997423
vn 0.003130 0.046765 0.998901
vn -0.121863 -0.443436 0.887983
vn -0.172568 -0.002941 0.984993
vn -0.356917 -0.475876 0.803836
vn -0.121863 -0.443436 0.887983
vn -0.364018 0.646766 -0.670212
vn -0.220550 0.389111 -0.894399
vn -0.454417 0.346181 -0.820770
vn -0.364018 0.646766 -0.670212
vn -0.220550 0.389111 -0.894399
vn -0.076073 -0.020522 -0.996891
vn -0.454417 0.346181 -0.820770
vn -0.220550 0.389111 -0.894399
vn -0.063232 -0.719477 0.691632
vn -0.121863 -0.443436 0.887983
vn -0.356917 -0.475876 0.803836
vn -0.063232 -0.719477 0.691632
vn 0.013114 0.322873 0.946351
vn 0.038934 -0.026088 0.998901
vn 0.071251 0.008457 0.997423
vn 0.013114 0.322873 0.946351
vn 0.031735 0.034480 -0.998901
vn -0.042599 0.460862 -0.886449
vn 0.071228 0.008454 -0.997424
vn 0.031735 0.034480 -0.998901
vn 0.088295 -0.310874 -0.946341
vn 0.031735 0.034480 -0.998901
vn 0.071228 0.008454 -0.997424
vn 0.088295 -0.310874 -0.946341
vn 0.038934 -0.026088 0.998901
vn 0.066435 -0.458000 0.886466
vn 0.071251 0.008457 0.997423
vn 0.038934 -0.026088 0.998901
vn 0.133410 0.966233 0.220442
vn -0.079316 0.865348 0.494855
vn 0.555815 0.667974 0.494853
vn 0.133410 0.966233 0.220442
vn 0.777565 0.588895 0.220443
vn 0.133410 0.966233 0.220442
vn 0.555815 0.667974 0.494853
vn 0.777565 0.588895 0.220443
vn 0.599487 0.791546 0.118613
vn -0.135810 0.983609 0.118612
vn 0.133410 0.966233 0.220442
vn 0.599487 0.791546 0.118613
vn 0.777565 0.588895 0.220443
vn 0.599487 0.791546 0.118613
vn 0.133410 0.966233 0.220442
vn 0.777565 0.588895 0.220443
vn 0.777565 0.588895 0.220443
vn 0.555815 0.667974 0.494853
vn 0.865348 0.079315 0.494855
vn 0.777565 0.588895 0.220443
vn 0.966233 -0.133408 0.220445
vn 0.777565 0.588895 0.220443
vn 0.865348 0.079315 0.494855
vn 0.966233 -0.133408 0.220445
vn 0.983609 0.135811 0.118609
vn 0.599487 0.791546 0.118613
vn 0.777565 0.588895 0.220443
vn 0.983609 0.135811 0.118609
vn 0.966233 -0.133408 0.220445
vn 0.983609 0.135811 0.118609
vn 0.777565 0.588895 0.220443
vn 0.966233 -0.133408 0.220445
vn 0.966233 -0.133408 0.220445
vn 0.865348 0.079315 0.494855
vn 0.667977 -0.555809 0.494856
vn 0.966233 -0.133408 0.220445
vn 0.588896 -0.777564 0.220445
vn 0.966233 -0.133408 0.220445
vn 0.667977 -0.555809 0.494856
vn 0.588896 -0.777564 0.220445
vn 0.791546 -0.599488 0.118612
vn 0.983609 0.135811 0.118609
vn 0.966233 -0.133408 0.220445
vn 0.791546 -0.599488 0.118612
vn 0.588896 -0.777564 0.220445
vn 0.791546 -0.599488 0.118612
vn 0.966233 -0.133408 0.220445
vn 0.588896 -0.777564 0.220445
vn 0.588896 -0.777564 0.220445
vn 0.667977 -0.555809 0.494856
vn 0.079316 -0.865346 0.494859
vn 0.588896 -0.777564 0.220445
vn -0.133409 -0.966232 0.220448
vn 0.588896 -0.777564 0.220445
vn 0.079316 -0.865346 0.494859
vn -0.133409 -0.966232 0.220448
vn 0.135811 -0.983609 0.118610
vn 0.791546 -0.599488 0.118612
vn 0.588896 -0.777564 0.220445
vn 0.135811 -0.983609 0.118610
vn -0.133409 -0.966232 0.220448
vn 0.135811 -0.983609 0.118610
vn 0.588896 -0.777564 0.220445
vn -0.133409 -0.966232 0.220448
vn -0.133409 -0.966232 0.220448
vn 0.079316 -0.865346 0.494859
vn -0.555812 -0.667974 0.494857
vn -0.133409 -0.966232 0.220448
vn -0.777565 -0.588894 0.220445
vn -0.133409 -0.966232 0.220448
vn -0.555812 -0.667974 0.494857
vn -0.777565 -0.588894 0.220445
vn -0.599488 -0.791546 0.118612
vn 0.135811 -0.983609 0.118610
vn -0.133409 -0.966232 0.220448
vn -0.599488 -0.791546 0.118612
vn -0.777565 -0.588894 0.220445
vn -0.599488 -0.791546 0.118612
vn -0.133409 -0.966232 0.220448
vn -0.777565 -0.588894 0.220445
vn -0.777565 -0.588894 0.220445
vn -0.555812 -0.667974 0.494857
vn -0.865348 -0.079317 0.494856
vn -0.777565 -0.588894 0.220445
vn -0.966233 0.133408 0.220445
vn -0.777565 -0.588894 0.220445
vn -0.865348 -0.079317 0.494856
vn -0.966233 0.133408 0.220445
vn -0.983609 -0.135810 0.118609
vn -0.599488 -0.791546 0.118612
vn -0.777565 -0.588894 0.220445
vn -0.983609 -0.135810 0.118609
vn -0.966233 0.133408 0.220445
vn -0.983609 -0.135810 0.118609
vn -0.777565 -0.588894 0.220445
vn -0.966233 0.133408 0.220445
vn -0.966233 0.133408 0.220445
vn -0.865348 -0.079317 0.494856
vn -0.667980 0.555807 0.494855
vn -0.966233 0.133408 0.220445
vn -0.588896 0.777565 0.220442
vn -0.966233 0.133408 0.220445
vn -0.667980 0.555807 0.494855
vn -0.588896 0.777565 0.220442
vn -0.791546 0.599488 0.118612
vn -0.983609 -0.135811 0.118609
vn -0.966233 0.133408 0.220445
vn -0.791546 0.599488 0.118612
vn -0.588896 0.777565 0.220442
vn -0.791546 0.599488 0.118612
vn -0.966233 0.133408 0.220445
vn -0.588896 0.777565 0.220442
vn -0.588896 0.777565 0.220442
vn -0.667980 0.555807 0.494855
vn -0.079316 0.865348 0.494855
vn -0.588896 0.777565 0.220442
vn 0.133410 0.966233 0.220442
vn -0.588896 0.777565 0.220442
vn -0.079316 0.865348 0.494855
vn 0.133410 0.966233 0.220442
vn -0.135810 0.983609 0.118612
vn -0.791546 0.599488 0.118612
vn -0.588896 0.777565 0.220442
vn -0.135810 0.983609 0.118612
vn 0.133410 0.966233 0.220442
vn -0.135810 0.983609 0.118612
vn -0.588896 0.777565 0.220442
vn 0.133410 0.966233 0.220442
vn -0.042062 -0.020673 0.998901
vn 0.273053 -0.172790 0.946354
vn 0.083738 0.150925 0.984992
vn -0.042062 -0.020673 0.998901
vn -0.323118 0.327263 0.887971
vn -0.042062 -0.020673 0.998901
vn 0.083738 0.150925 0.984992
vn -0.323118 0.327263 0.887971
vn 0.420411 -0.193536 -0.886453
vn 0.013990 -0.044722 -0.998901
vn 0.447246 -0.003544 -0.894404
vn 0.420411 -0.193536 -0.886453
vn 0.742113 -0.008115 -0.670225
vn 0.420411 -0.193536 -0.886453
vn 0.447246 -0.003544 -0.894404
vn 0.742113 -0.008115 -0.670225
vn 0.013990 -0.044722 -0.998901
vn -0.313374 0.078971 -0.946340
vn 0.020260 0.076145 -0.996891
vn 0.013990 -0.044722 -0.998901
vn 0.447246 -0.003544 -0.894404
vn 0.013990 -0.044722 -0.998901
vn 0.020260 0.076145 -0.996891
vn 0.447246 -0.003544 -0.894404
vn -0.429873 0.171472 0.886458
vn -0.042062 -0.020673 0.998901
vn -0.323118 0.327263 0.887971
vn -0.429873 0.171472 0.886458
vn -0.591517 0.414504 0.691588
vn -0.429873 0.171472 0.886458
vn -0.323118 0.327263 0.887971
vn -0.591517 0.414504 0.691588
vn 0.003130 0.046765 0.998901
vn -0.286167 -0.150076 0.946354
vn 0.088834 -0.147991 0.984991
vn 0.003130 0.046765 0.998901
vn 0.444970 0.116173 0.887978
vn 0.003130 0.046765 0.998901
vn 0.088834 -0.147991 0.984991
vn 0.444970 0.116173 0.887978
vn -0.377813 -0.267319 -0.886453
vn -0.045723 0.010248 -0.998902
vn -0.226700 -0.385556 -0.894401
vn -0.377813 -0.267319 -0.886453
vn -0.378100 -0.638631 -0.670217
vn -0.377813 -0.267319 -0.886453
vn -0.226700 -0.385556 -0.894401
vn -0.378100 -0.638631 -0.670217
vn -0.045723 0.010248 -0.998902
vn 0.225082 0.231909 -0.946338
vn 0.055814 -0.055619 -0.996891
vn -0.045723 0.010248 -0.998902
vn -0.226700 -0.385556 -0.894401
vn -0.045723 0.010248 -0.998902
vn 0.055814 -0.055619 -0.996891
vn -0.226700 -0.385556 -0.894401
vn 0.363428 0.286540 0.886462
vn 0.003130 0.046765 0.998901
vn 0.444970 0.116173 0.887978
vn 0.363428 0.286540 0.886462
vn 0.654718 0.304974 0.691618
vn 0.363428 0.286540 0.886462
vn 0.444970 0.116173 0.887979
vn 0.654718 0.304974 0.691618
vn 0.038934 -0.026088 0.998901
vn 0.013114 0.322873 0.946351
vn -0.172568 -0.002941 0.984993
vn 0.038934 -0.026088 0.998901
vn -0.121863 -0.443436 0.887983
vn 0.038934 -0.026088 0.998901
vn -0.172568 -0.002941 0.984993
vn -0.121863 -0.443436 0.887983
vn -0.042599 0.460862 -0.886449
vn 0.031735 0.034480 -0.998901
vn -0.220550 0.389111 -0.894399
vn -0.042599 0.460862 -0.886449
vn -0.364018 0.646766 -0.670212
vn -0.042599 0.460862 -0.886449
vn -0.220550 0.389111 -0.894399
vn -0.364018 0.646766 -0.670212
vn 0.031735 0.034480 -0.998901
vn 0.088295 -0.310874 -0.946341
vn -0.076073 -0.020522 -0.996891
vn 0.031735 0.034480 -0.998901
vn -0.220550 0.389111 -0.894399
vn 0.031735 0.034480 -0.998901
vn -0.076073 -0.020522 -0.996891
vn -0.220550 0.389111 -0.894399
vn 0.066435 -0.458000 0.886466
vn 0.038934 -0.026088 0.998901
vn -0.121863 -0.443436 0.887983
vn 0.066435 -0.458000 0.886466
vn -0.063232 -0.719477 0.691632
vn 0.066435 -0.458000 0.886466
vn -0.121863 -0.443436 0.887983
vn -0.063232 -0.719477 0.691632
# 352 vertex normals

g mat1
f 10/1/1 9/2/2 17/3/3
f 11/5/5 10/6/6 17/7/7
f 12/9/9 11/10/10 17/11/11
f 13/13/13 12/14/14 17/15/15
f 14/17/17 13/18/18 17/19/19
f 15/21/21 14/22/22 17/23/23
f 16/25/25 15/26/26 17/27/27
f 9/29/29 16/30/30 17/31/31
f 27/33/33 28/34/34 26/35/35
f 28/37/37 29/38/38 26/39/39
f 29/41/41 30/42/42 26/43/43
f 30/45/45 27/46/46 26/47/47
f 32/49/49 31/50/50 35/51/51
f 33/53/53 32/54/54 35/55/55
f 34/57/57 33/58/58 35/59/59
f 31/61/61 34/62/62 35/63/63
f 37/65/65 38/66/66 36/67/67
f 38/69/69 39/70/70 36/71/71
f 39/73/73 40/74/74 36/75/75
f 40/77/77 37/78/78 36/79/79
f 42/81/81 41/82/82 45/83/83
f 43/85/85 42/86/86 45/87/87
f 44/89/89 43/90/90 45/91/91
f 41/93/93 44/94/94 45/95/95
f 47/97/97 48/98/98 46/99/99
f 48/101/101 49/102/102 46/103/103
f 49/105/105 50/106/106 46/107/107
f 50/109/109 47/110/110 46/111/111
f 52/113/113 51/114/114 55/115/115
f 53/117/117 52/118/118 55/119/119
f 54/121/121 53/122/122 55/123/123
f 51/125/125 54/126/126 55/127/127
f 18/129/129 9/130/130 10/131/131
f 19/133/133 18/134/134 10/135/135
f 2/137/137 1/138/138 18/139/139
f 19/141/141 2/142/142 18/143/143
f 19/145/145 10/146/146 11/147/147
f 20/149/149 19/150/150 11/151/151
f 3/153/153 2/154/154 19/155/155
f 20/157/157 3/158/158 19/159/159
f 20/161/161 11/162/162 12/163/163
f 21/165/165 20/166/166 12/167/167
f 4/169/169 3/170/170 20/171/171
f 21/173/173 4/174/174 20/175/175
f 21/177/177 12/178/178 13/179/179
f 22/181/181 21/182/182 13/183/183
f 5/185/185 4/186/186 21/187/187
f 22/189/189 5/190/190 21/191/191
f 22/193/193 13/194/194 14/195/195
f 23/197/197 22/198/198 14/199/199
f 6/201/201 5/202/202 22/203/203
f 23/205/205 6/206/206 22/207/207
f 23/209/209 14/210/210 15/211/211
f 24/213/213 23/214/214 15/215/215
f 7/217/217 6/218/218 23/219/219
f 24/221/221 7/222/222 23/223/223
f 24/225/225 15/226/226 16/227/227
f 25/229/229 24/230/230 16/231/231
f 8/233/233 7/234/234 24/235/235
f 25/237/237 8/238/238 24/239/239
f 25/241/241 16/242/242 9/243/243
f 18/245/245 25/246/246 9/247/247
f 1/249/249 8/250/250 25/251/251
f 18/253/253 1/254/254 25/255/255
f 31/257/257 32/258/258 28/259/259
f 27/261/261 31/262/262 28/263/263
f 32/265/265 33/266/266 29/267/267
f 28/269/269 32/270/270 29/271/271
f 33/273/273 34/274/274 30/275/275
f 29/277/277 33/278/278 30/279/279
f 34/281/281 31/282/282 27/283/283
f 30/285/285 34/286/286 27/287/287
f 41/289/289 42/290/290 38/291/291
f 37/293/293 41/294/294 38/295/295
f 42/297/297 43/298/298 39/299/299
f 38/301/301 42/302/302 39/303/303
f 43/305/305 44/306/306 40/307/307
f 39/309/309 43/310/310 40/311/311
f 44/313/313 41/314/314 37/315/315
f 40/317/317 44/318/318 37/319/319
f 51/321/321 52/322/322 48/323/323
f 47/325/325 51/326/326 48/327/327
f 52/329/329 53/330/330 49/331/331
f 48/333/333 52/334/334 49/335/335
f 53/337/337 54/338/338 50/339/339
f 49/341/341 53/342/342 50/343/343
f 54/345/345 51/346/346 47/347/347
f 50/349/349 54/350/350 47/351/351
# 88 elements

