# Created by 3DAce v2.72


g
v -0.120913 3.876373 -2.134426
v 0.120915 3.876373 -2.134426
v -0.334756 3.708251 -2.129324
v 0.334756 3.708251 -2.129324
v -0.424477 3.365071 -2.129324
v 0.424477 3.365071 -2.129324
v -0.251186 3.691015 -1.418957
v 0.251186 3.691015 -1.418957
v -0.375670 3.463148 -1.413480
v 0.375670 3.463148 -1.413473
v -0.120914 3.923073 -1.471057
v 0.120914 3.923073 -1.471057
v -0.120914 3.865610 -2.189444
v -0.446670 3.289626 -2.189363
v 0.120914 3.865610 -2.189444
v 0.446670 3.289626 -2.189363
v -0.341210 3.709687 -2.188672
v 0.341210 3.709687 -2.188672
v -0.404037 3.423751 -1.362835
v 0.404037 3.423751 -1.362835
v -0.246368 3.689914 -1.373507
v 0.246368 3.689914 -1.373507
v -0.120914 3.925341 -1.442712
v 0.120914 3.925341 -1.442712
v -0.120913 3.876373 -2.134426
v -0.443138 3.301057 -2.129324
v 0.120915 3.876373 -2.134426
v 0.443138 3.301057 -2.129324
v -0.334756 3.708251 -2.129324
v 0.334756 3.708251 -2.129324
v -0.370089 3.471349 -1.365094
v 0.370089 3.471349 -1.365094
v -0.424477 3.365071 -2.129324
v 0.424477 3.365071 -2.129324
v -0.251186 3.691015 -1.418957
v 0.251186 3.691015 -1.418957
v -0.375670 3.463148 -1.413480
v 0.375670 3.463148 -1.413473
v -0.120914 3.923073 -1.471057
v 0.120914 3.923073 -1.471057
# 40 vertices

vt 0.295040 0.472590
vt 0.247220 0.471400
vt 0.246840 0.458560
vt 0.295040 0.472590
vt 0.295040 0.450190
vt 0.295040 0.472590
vt 0.246840 0.458560
vt 0.295040 0.450190
vt 0.295040 0.472590
vt 0.295040 0.450190
vt 0.246840 0.458560
vt 0.295040 0.472590
vt 0.247220 0.471400
vt 0.295040 0.472590
vt 0.246840 0.458560
vt 0.247220 0.471400
vt 0.295040 0.481230
vt 0.295040 0.481230
vt 0.249240 0.482860
vt 0.295040 0.481230
vt 0.249240 0.482860
vt 0.295040 0.481230
vt 0.249240 0.482860
vt 0.249240 0.482860
vt 0.295040 0.472590
vt 0.295040 0.481230
vt 0.249240 0.482860
vt 0.295040 0.472590
vt 0.247220 0.471400
vt 0.295040 0.472590
vt 0.249240 0.482860
vt 0.247220 0.471400
vt 0.295040 0.472590
vt 0.247220 0.471400
vt 0.249240 0.482860
vt 0.295040 0.472590
vt 0.295040 0.481230
vt 0.295040 0.472590
vt 0.249240 0.482860
vt 0.295040 0.481230
vt 0.108100 0.446850
vt 0.112240 0.446060
vt 0.112190 0.473760
vt 0.108100 0.446850
vt 0.108100 0.473660
vt 0.108100 0.446850
vt 0.112190 0.473760
vt 0.108100 0.473660
vt 0.112190 0.473760
vt 0.112240 0.446060
vt 0.108100 0.446850
vt 0.112190 0.473760
vt 0.108100 0.473660
vt 0.112190 0.473760
vt 0.108100 0.446850
vt 0.108100 0.473660
vt 0.108100 0.483310
vt 0.112190 0.483070
vt 0.112190 0.483070
vt 0.108100 0.483310
vt 0.108100 0.483310
vt 0.108100 0.483310
vt 0.112190 0.483070
vt 0.108100 0.483310
vt 0.108100 0.473660
vt 0.112190 0.473760
vt 0.112190 0.483070
vt 0.108100 0.473660
vt 0.108100 0.483310
vt 0.108100 0.473660
vt 0.112190 0.483070
vt 0.108100 0.483310
vt 0.112190 0.483070
vt 0.112190 0.473760
vt 0.108100 0.473660
vt 0.112190 0.483070
vt 0.108100 0.483310
vt 0.112190 0.483070
vt 0.108100 0.473660
vt 0.108100 0.483310
vt 0.055260 0.456920
vt 0.108100 0.446850
vt 0.108100 0.451270
vt 0.055260 0.456920
vt 0.055410 0.460200
vt 0.055260 0.456920
vt 0.108100 0.451270
vt 0.055410 0.460200
vt 0.055260 0.456920
vt 0.055410 0.460200
vt 0.108100 0.451270
vt 0.055260 0.456920
vt 0.108100 0.446850
vt 0.055260 0.456920
vt 0.108100 0.451270
vt 0.108100 0.446850
vt 0.059130 0.472470
vt 0.055990 0.472400
vt 0.055410 0.460200
vt 0.059130 0.472470
vt 0.058750 0.459630
vt 0.059130 0.472470
vt 0.055410 0.460200
vt 0.058750 0.459630
vt 0.055410 0.460200
vt 0.055990 0.472400
vt 0.059130 0.472470
vt 0.055410 0.460200
vt 0.058750 0.459630
vt 0.055410 0.460200
vt 0.059130 0.472470
vt 0.058750 0.459630
vt 0.061140 0.485820
vt 0.059190 0.485970
vt 0.059190 0.485970
vt 0.061140 0.485820
vt 0.061140 0.485820
vt 0.061140 0.485820
vt 0.059190 0.485970
vt 0.061140 0.485820
vt 0.059190 0.485970
vt 0.055990 0.472400
vt 0.059130 0.472470
vt 0.059190 0.485970
vt 0.061140 0.485820
vt 0.059190 0.485970
vt 0.059130 0.472470
vt 0.061140 0.485820
vt 0.059130 0.472470
vt 0.055990 0.472400
vt 0.059190 0.485970
vt 0.059130 0.472470
vt 0.061140 0.485820
vt 0.059130 0.472470
vt 0.059190 0.485970
vt 0.061140 0.485820
vt 0.112190 0.473760
vt 0.112240 0.446060
vt 0.108100 0.446850
vt 0.112190 0.473760
vt 0.108100 0.473660
vt 0.112190 0.473760
vt 0.108100 0.446850
vt 0.108100 0.473660
vt 0.108100 0.446850
vt 0.112240 0.446060
vt 0.112190 0.473760
vt 0.108100 0.446850
vt 0.108100 0.473660
vt 0.108100 0.446850
vt 0.112190 0.473760
vt 0.108100 0.473660
vt 0.108100 0.483310
vt 0.112190 0.483070
vt 0.112190 0.483070
vt 0.108100 0.483310
vt 0.108100 0.483310
vt 0.108100 0.483310
vt 0.112190 0.483070
vt 0.108100 0.483310
vt 0.112190 0.483070
vt 0.112190 0.473760
vt 0.108100 0.473660
vt 0.112190 0.483070
vt 0.108100 0.483310
vt 0.112190 0.483070
vt 0.108100 0.473660
vt 0.108100 0.483310
vt 0.108100 0.473660
vt 0.112190 0.473760
vt 0.112190 0.483070
vt 0.108100 0.473660
vt 0.108100 0.483310
vt 0.108100 0.473660
vt 0.112190 0.483070
vt 0.108100 0.483310
vt 0.108100 0.451270
vt 0.108100 0.446850
vt 0.055260 0.456920
vt 0.108100 0.451270
vt 0.055410 0.460200
vt 0.108100 0.451270
vt 0.055260 0.456920
vt 0.055410 0.460200
vt 0.108100 0.451270
vt 0.055410 0.460200
vt 0.055260 0.456920
vt 0.108100 0.451270
vt 0.108100 0.446850
vt 0.108100 0.451270
vt 0.055260 0.456920
vt 0.108100 0.446850
vt 0.055410 0.460200
vt 0.055990 0.472400
vt 0.059130 0.472470
vt 0.055410 0.460200
vt 0.058750 0.459630
vt 0.055410 0.460200
vt 0.059130 0.472470
vt 0.058750 0.459630
vt 0.059130 0.472470
vt 0.055990 0.472400
vt 0.055410 0.460200
vt 0.059130 0.472470
vt 0.058750 0.459630
vt 0.059130 0.472470
vt 0.055410 0.460200
vt 0.058750 0.459630
vt 0.061140 0.485820
vt 0.059190 0.485970
vt 0.059190 0.485970
vt 0.061140 0.485820
vt 0.061140 0.485820
vt 0.061140 0.485820
vt 0.059190 0.485970
vt 0.061140 0.485820
vt 0.059130 0.472470
vt 0.055990 0.472400
vt 0.059190 0.485970
vt 0.059130 0.472470
vt 0.061140 0.485820
vt 0.059130 0.472470
vt 0.059190 0.485970
vt 0.061140 0.485820
vt 0.059190 0.485970
vt 0.055990 0.472400
vt 0.059130 0.472470
vt 0.059190 0.485970
vt 0.061140 0.485820
vt 0.059190 0.485970
vt 0.059130 0.472470
vt 0.061140 0.485820
# 232 texture vertices

vn 0.852384 0.520298 0.052265
vn 0.863148 0.492034 0.113482
vn 0.926650 0.368714 0.073283
vn 0.852384 0.520298 0.052265
vn 0.967008 0.252815 0.031294
vn 0.852384 0.520298 0.052265
vn 0.926650 0.368714 0.073283
vn 0.967008 0.252815 0.031294
vn -0.852384 0.520298 0.052264
vn -0.967009 0.252815 0.031294
vn -0.926650 0.368712 0.073283
vn -0.852384 0.520298 0.052264
vn -0.863149 0.492033 0.113482
vn -0.852384 0.520298 0.052264
vn -0.926650 0.368712 0.073283
vn -0.863149 0.492033 0.113482
vn 0.216518 0.973868 -0.068559
vn -0.326927 0.942716 -0.066366
vn -0.216517 0.973869 -0.068559
vn 0.216518 0.973868 -0.068559
vn 0.326930 0.942716 -0.066365
vn 0.216518 0.973868 -0.068559
vn -0.216517 0.973869 -0.068559
vn 0.326930 0.942716 -0.066365
vn 0.852384 0.520298 0.052265
vn 0.216518 0.973868 -0.068559
vn 0.541497 0.840690 -0.004609
vn 0.852384 0.520298 0.052265
vn 0.863148 0.492034 0.113482
vn 0.852384 0.520298 0.052265
vn 0.752077 0.658417 0.029446
vn 0.863148 0.492034 0.113482
vn -0.852384 0.520298 0.052264
vn -0.863149 0.492033 0.113482
vn -0.752076 0.658418 0.029445
vn -0.852384 0.520298 0.052264
vn -0.326927 0.942716 -0.066366
vn -0.852384 0.520298 0.052264
vn -0.409126 0.912189 -0.022984
vn -0.326927 0.942716 -0.066366
vn 0.964700 0.259997 0.041889
vn 0.969849 0.243472 0.010698
vn 0.883528 0.462844 0.071787
vn 0.964700 0.259997 0.041889
vn 0.758758 0.651210 0.014555
vn 0.964700 0.259997 0.041889
vn 0.883528 0.462844 0.071787
vn 0.758758 0.651210 0.014555
vn -0.883528 0.462844 0.071787
vn -0.969849 0.243472 0.010698
vn -0.964700 0.259997 0.041889
vn -0.883528 0.462844 0.071787
vn -0.758757 0.651212 0.014563
vn -0.883528 0.462844 0.071787
vn -0.964700 0.259997 0.041889
vn -0.758757 0.651212 0.014563
vn 0.214644 0.958523 -0.187516
vn 0.417989 0.903791 -0.091912
vn -0.315085 0.941425 -0.120168
vn 0.214644 0.958523 -0.187516
vn -0.324056 0.928440 -0.181621
vn 0.214644 0.958523 -0.187516
vn -0.315085 0.941425 -0.120168
vn -0.324056 0.928440 -0.181621
vn 0.758758 0.651210 0.014555
vn 0.883528 0.462844 0.071787
vn 0.417989 0.903791 -0.091912
vn 0.758758 0.651210 0.014555
vn 0.214644 0.958523 -0.187516
vn 0.758758 0.651210 0.014556
vn 0.417989 0.903791 -0.091912
vn 0.214644 0.958523 -0.187516
vn -0.315085 0.941425 -0.120168
vn -0.883528 0.462844 0.071787
vn -0.758757 0.651212 0.014563
vn -0.315085 0.941425 -0.120168
vn -0.324056 0.928440 -0.181621
vn -0.315085 0.941425 -0.120168
vn -0.758757 0.651212 0.014563
vn -0.324056 0.928440 -0.181621
vn 0.899910 0.435974 -0.009379
vn 0.964700 0.259997 0.041889
vn 0.899910 0.435974 -0.009379
vn 0.899910 0.435974 -0.009379
vn 0.854166 0.518910 0.033669
vn 0.899910 0.435974 -0.009379
vn 0.899910 0.435974 -0.009379
vn 0.854166 0.518910 0.033669
vn -0.899910 0.435974 -0.009379
vn -0.854166 0.518910 0.033668
vn -0.899910 0.435974 -0.009379
vn -0.899910 0.435974 -0.009379
vn -0.964700 0.259997 0.041889
vn -0.899910 0.435974 -0.009379
vn -0.899910 0.435974 -0.009379
vn -0.964700 0.259997 0.041889
vn 0.871832 0.487527 0.047180
vn 0.864338 0.492136 0.103550
vn 0.854166 0.518910 0.033669
vn 0.871832 0.487527 0.047180
vn 0.877208 0.479698 0.019880
vn 0.871832 0.487527 0.047180
vn 0.854166 0.518910 0.033669
vn 0.877208 0.479698 0.019880
vn -0.854166 0.518910 0.033668
vn -0.864338 0.492136 0.103550
vn -0.871832 0.487527 0.047179
vn -0.854166 0.518910 0.033668
vn -0.877209 0.479698 0.019877
vn -0.854166 0.518910 0.033668
vn -0.871832 0.487527 0.047179
vn -0.877209 0.479698 0.019877
vn 0.000000 0.996815 -0.079754
vn 0.000000 0.996815 -0.079754
vn 0.000000 0.996815 -0.079754
vn 0.000000 0.996815 -0.079754
vn 0.000000 0.996815 -0.079754
vn 0.000000 0.996815 -0.079754
vn 0.000000 0.996815 -0.079754
vn 0.000000 0.996815 -0.079754
vn 0.872144 0.488165 0.032569
vn 0.864338 0.492136 0.103550
vn 0.871832 0.487527 0.047180
vn 0.872144 0.488165 0.032569
vn 0.875019 0.482547 -0.038608
vn 0.872144 0.488165 0.032569
vn 0.871832 0.487527 0.047180
vn 0.875019 0.482547 -0.038608
vn -0.871832 0.487527 0.047179
vn -0.864338 0.492136 0.103550
vn -0.872144 0.488165 0.032569
vn -0.871832 0.487527 0.047179
vn -0.875019 0.482547 -0.038608
vn -0.871832 0.487527 0.047179
vn -0.872144 0.488165 0.032569
vn -0.875019 0.482547 -0.038608
vn -0.883528 -0.462844 -0.071787
vn -0.969849 -0.243472 -0.010698
vn -0.964700 -0.259997 -0.041889
vn -0.883528 -0.462844 -0.071787
vn -0.758758 -0.651210 -0.014555
vn -0.883528 -0.462844 -0.071787
vn -0.964700 -0.259997 -0.041889
vn -0.758758 -0.651210 -0.014555
vn 0.964700 -0.259997 -0.041889
vn 0.969849 -0.243472 -0.010698
vn 0.883528 -0.462844 -0.071787
vn 0.964700 -0.259997 -0.041889
vn 0.758757 -0.651212 -0.014563
vn 0.964700 -0.259997 -0.041889
vn 0.883528 -0.462844 -0.071787
vn 0.758757 -0.651212 -0.014563
vn 0.214643 -0.958524 0.187508
vn 0.417988 -0.903792 0.091904
vn -0.315086 -0.941424 0.120174
vn 0.214643 -0.958524 0.187508
vn -0.324057 -0.928438 0.181632
vn 0.214643 -0.958524 0.187508
vn -0.315086 -0.941424 0.120174
vn -0.324057 -0.928438 0.181632
vn -0.315086 -0.941424 0.120173
vn -0.883528 -0.462844 -0.071787
vn -0.758758 -0.651210 -0.014555
vn -0.315086 -0.941424 0.120173
vn -0.324057 -0.928438 0.181632
vn -0.315086 -0.941424 0.120174
vn -0.758758 -0.651210 -0.014555
vn -0.324057 -0.928438 0.181632
vn 0.758757 -0.651212 -0.014563
vn 0.883528 -0.462844 -0.071787
vn 0.417988 -0.903792 0.091904
vn 0.758757 -0.651212 -0.014563
vn 0.214643 -0.958524 0.187508
vn 0.758757 -0.651212 -0.014563
vn 0.417988 -0.903792 0.091904
vn 0.214643 -0.958524 0.187508
vn -0.899910 -0.435974 0.009379
vn -0.964700 -0.259997 -0.041889
vn -0.899910 -0.435974 0.009379
vn -0.899910 -0.435974 0.009379
vn -0.854166 -0.518910 -0.033669
vn -0.899910 -0.435974 0.009379
vn -0.899910 -0.435974 0.009379
vn -0.854166 -0.518910 -0.033669
vn 0.899910 -0.435974 0.009379
vn 0.854166 -0.518910 -0.033668
vn 0.899910 -0.435974 0.009379
vn 0.899910 -0.435974 0.009379
vn 0.964700 -0.259997 -0.041889
vn 0.899910 -0.435974 0.009379
vn 0.899910 -0.435974 0.009379
vn 0.964700 -0.259997 -0.041889
vn -0.854166 -0.518910 -0.033669
vn -0.864338 -0.492136 -0.103550
vn -0.871832 -0.487527 -0.047180
vn -0.854166 -0.518910 -0.033669
vn -0.877208 -0.479698 -0.019880
vn -0.854166 -0.518910 -0.033669
vn -0.871832 -0.487527 -0.047180
vn -0.877208 -0.479698 -0.019880
vn 0.871832 -0.487527 -0.047179
vn 0.864338 -0.492136 -0.103550
vn 0.854166 -0.518910 -0.033668
vn 0.871832 -0.487527 -0.047179
vn 0.877209 -0.479698 -0.019877
vn 0.871832 -0.487527 -0.047179
vn 0.854166 -0.518910 -0.033668
vn 0.877209 -0.479698 -0.019877
vn 0.000000 -0.996815 0.079754
vn 0.000000 -0.996815 0.079754
vn 0.000000 -0.996815 0.079754
vn 0.000000 -0.996815 0.079754
vn 0.000000 -0.996815 0.079754
vn 0.000000 -0.996815 0.079754
vn 0.000000 -0.996815 0.079754
vn 0.000000 -0.996815 0.079754
vn -0.871832 -0.487527 -0.047180
vn -0.864338 -0.492136 -0.103550
vn -0.872144 -0.488165 -0.032569
vn -0.871832 -0.487527 -0.047180
vn -0.875019 -0.482547 0.038608
vn -0.871832 -0.487527 -0.047180
vn -0.872144 -0.488165 -0.032569
vn -0.875019 -0.482547 0.038608
vn 0.872144 -0.488165 -0.032569
vn 0.864338 -0.492136 -0.103550
vn 0.871832 -0.487527 -0.047179
vn 0.872144 -0.488165 -0.032569
vn 0.875019 -0.482547 0.038608
vn 0.872144 -0.488165 -0.032569
vn 0.871832 -0.487527 -0.047179
vn 0.875019 -0.482547 0.038608
# 232 vertex normals

g mat1
f 4/1/1 8/2/2 10/3/3
f 6/5/5 4/6/6 10/7/7
f 3/9/9 5/10/10 9/11/11
f 7/13/13 3/14/14 9/15/15
f 2/17/17 1/18/18 11/19/19
f 12/21/21 2/22/22 11/23/23
f 4/25/25 2/26/26 12/27/27
f 8/29/29 4/30/30 12/31/31
f 3/33/33 7/34/34 11/35/35
f 1/37/37 3/38/38 11/39/39
f 28/41/41 16/42/42 18/43/43
f 30/45/45 28/46/46 18/47/47
f 17/49/49 14/50/50 26/51/51
f 29/53/53 17/54/54 26/55/55
f 27/57/57 15/58/58 13/59/59
f 25/61/61 27/62/62 13/63/63
f 30/65/65 18/66/66 15/67/67
f 27/69/69 30/70/70 15/71/71
f 13/73/73 17/74/74 29/75/75
f 25/77/77 13/78/78 29/79/79
f 20/81/81 28/82/82 34/83/83
f 32/85/85 20/86/86 34/87/87
f 19/89/89 31/90/90 33/91/91
f 26/93/93 19/94/94 33/95/95
f 36/97/97 22/98/98 32/99/99
f 38/101/101 36/102/102 32/103/103
f 31/105/105 21/106/106 35/107/107
f 37/109/109 31/110/110 35/111/111
f 39/113/113 23/114/114 24/115/115
f 40/117/117 39/118/118 24/119/119
f 24/121/121 22/122/122 36/123/123
f 40/125/125 24/126/126 36/127/127
f 35/129/129 21/130/130 23/131/131
f 39/133/133 35/134/134 23/135/135
f 18/137/137 16/138/138 28/139/139
f 30/141/141 18/142/142 28/143/143
f 26/145/145 14/146/146 17/147/147
f 29/149/149 26/150/150 17/151/151
f 25/153/153 13/154/154 15/155/155
f 27/157/157 25/158/158 15/159/159
f 15/161/161 18/162/162 30/163/163
f 27/165/165 15/166/166 30/167/167
f 29/169/169 17/170/170 13/171/171
f 25/173/173 29/174/174 13/175/175
f 34/177/177 28/178/178 20/179/179
f 32/181/181 34/182/182 20/183/183
f 33/185/185 31/186/186 19/187/187
f 26/189/189 33/190/190 19/191/191
f 32/193/193 22/194/194 36/195/195
f 38/197/197 32/198/198 36/199/199
f 35/201/201 21/202/202 31/203/203
f 37/205/205 35/206/206 31/207/207
f 40/209/209 24/210/210 23/211/211
f 39/213/213 40/214/214 23/215/215
f 36/217/217 22/218/218 24/219/219
f 40/221/221 36/222/222 24/223/223
f 23/225/225 21/226/226 35/227/227
f 39/229/229 23/230/230 35/231/231
# 58 elements

