# Created by 3DAce v2.72


g
v 2.273376 0.990869 1.553583
v 2.765734 1.037845 -1.990348
v 2.773380 1.080623 -1.989733
v 2.745170 1.194394 -1.795822
v 2.290386 1.230709 1.558636
v 2.433492 1.463796 0.976384
v 2.359156 1.432369 1.579044
v 2.524460 1.584755 0.982009
v 2.549821 1.555115 0.551584
v 2.557570 1.514866 0.122773
v 2.572051 1.455782 -0.303973
v 2.617590 1.383713 -0.728228
v 2.351275 0.981848 1.568724
v 2.843632 1.028824 -1.975206
v 2.851278 1.071602 -1.974590
v 2.823067 1.185373 -1.780680
v 2.371789 1.220230 1.572114
v 2.433902 1.404741 1.586892
v 2.495271 1.412358 0.982783
v 2.586240 1.533316 0.988407
v 2.611600 1.503676 0.557982
v 2.619350 1.463428 0.129171
v 2.694231 1.362452 -0.719808
# 23 vertices

vt 0.836380 0.115990
vt 0.837790 0.116790
vt 0.836610 0.115840
vt 0.836380 0.115990
vt 0.836610 0.115840
vt 0.837790 0.116790
vt 0.838010 0.116640
vt 0.836610 0.115840
vt 0.837790 0.116790
vt 0.837810 0.117530
vt 0.838010 0.116640
vt 0.837790 0.116790
vt 0.838010 0.116640
vt 0.837810 0.117530
vt 0.838030 0.117370
vt 0.838010 0.116640
vt 0.837810 0.117530
vt 0.837730 0.119480
vt 0.838030 0.117370
vt 0.837810 0.117530
vt 0.838030 0.117370
vt 0.837730 0.119480
vt 0.837950 0.119320
vt 0.838030 0.117370
vt 0.838030 0.117370
vt 0.837950 0.119320
vt 0.838010 0.116640
vt 0.838030 0.117370
vt 0.838010 0.116640
vt 0.837950 0.119320
vt 0.836610 0.115840
vt 0.838010 0.116640
vt 0.836430 0.120100
vt 0.836380 0.115990
vt 0.836670 0.119920
vt 0.836430 0.120100
vt 0.836670 0.119920
vt 0.836380 0.115990
vt 0.836610 0.115840
vt 0.836670 0.119920
vt 0.836630 0.123550
vt 0.836430 0.120100
vt 0.836840 0.123080
vt 0.836630 0.123550
vt 0.836840 0.123080
vt 0.836430 0.120100
vt 0.836670 0.119920
vt 0.836840 0.123080
vt 0.837200 0.124960
vt 0.837170 0.125650
vt 0.837370 0.124080
vt 0.837200 0.124960
vt 0.837370 0.124080
vt 0.837170 0.125650
vt 0.837350 0.124770
vt 0.837370 0.124080
vt 0.837170 0.125650
vt 0.837100 0.126160
vt 0.837350 0.124770
vt 0.837170 0.125650
vt 0.837350 0.124770
vt 0.837100 0.126160
vt 0.837280 0.125280
vt 0.837350 0.124770
vt 0.837100 0.126160
vt 0.836840 0.124090
vt 0.837280 0.125280
vt 0.837100 0.126160
vt 0.837280 0.125280
vt 0.836840 0.124090
vt 0.837020 0.123210
vt 0.837280 0.125280
vt 0.837280 0.125280
vt 0.837020 0.123210
vt 0.837350 0.124770
vt 0.837280 0.125280
vt 0.837350 0.124770
vt 0.837020 0.123210
vt 0.837370 0.124080
vt 0.837350 0.124770
vt 0.837370 0.122720
vt 0.837240 0.123950
vt 0.837590 0.122350
vt 0.837370 0.122720
vt 0.836430 0.120100
vt 0.837790 0.116790
vt 0.836380 0.115990
vt 0.836430 0.120100
vt 0.836630 0.123550
vt 0.837790 0.116790
vt 0.836430 0.120100
vt 0.836630 0.123550
vt 0.836840 0.124090
vt 0.837790 0.116790
vt 0.836630 0.123550
vt 0.836840 0.124090
vt 0.837370 0.122720
vt 0.837790 0.116790
vt 0.837240 0.123950
vt 0.837370 0.122720
vt 0.837810 0.117530
vt 0.837790 0.116790
vt 0.837730 0.119480
vt 0.837810 0.117530
vt 0.836840 0.124090
vt 0.837240 0.123950
vt 0.837790 0.116790
vt 0.836840 0.124090
vt 0.836840 0.124090
vt 0.837200 0.124960
vt 0.837240 0.123950
vt 0.836840 0.124090
vt 0.836840 0.124090
vt 0.837100 0.126160
vt 0.837170 0.125650
vt 0.836840 0.124090
vt 0.837170 0.125650
vt 0.837200 0.124960
vt 0.836840 0.124090
vt 0.837170 0.125650
vt 0.837590 0.122350
vt 0.837730 0.119480
vt 0.837370 0.122720
vt 0.837590 0.122350
vt 0.837590 0.122350
vt 0.837950 0.119320
vt 0.837730 0.119480
vt 0.837590 0.122350
vt 0.837020 0.123210
vt 0.836840 0.123080
vt 0.836670 0.119920
vt 0.837020 0.123210
vt 0.837370 0.124080
vt 0.837240 0.123950
vt 0.837200 0.124960
vt 0.837370 0.124080
vt 0.837370 0.124080
vt 0.837590 0.122350
vt 0.837240 0.123950
vt 0.837370 0.124080
vt 0.836610 0.115840
vt 0.837950 0.119320
vt 0.837590 0.122350
vt 0.836610 0.115840
vt 0.836670 0.119920
vt 0.836610 0.115840
vt 0.837590 0.122350
vt 0.836670 0.119920
vt 0.837370 0.124080
vt 0.837020 0.123210
vt 0.836670 0.119920
vt 0.837370 0.124080
vt 0.837590 0.122350
vt 0.837370 0.124080
vt 0.836670 0.119920
vt 0.837590 0.122350
vt 0.837020 0.123210
vt 0.836840 0.124090
vt 0.836630 0.123550
vt 0.837020 0.123210
vt 0.836840 0.123080
vt 0.837020 0.123210
vt 0.836630 0.123550
vt 0.836840 0.123080
vt 0.837730 0.119480
vt 0.837810 0.117530
vt 0.837790 0.116790
vt 0.837730 0.119480
vt 0.837370 0.122720
vt 0.837730 0.119480
vt 0.837790 0.116790
vt 0.837370 0.122720
# 172 texture vertices

vn -0.109543 -0.993577 -0.028389
vn -0.109543 -0.993577 -0.028389
vn -0.109543 -0.993577 -0.028389
vn -0.109543 -0.993577 -0.028389
vn -0.109543 -0.993577 -0.028389
vn -0.109543 -0.993577 -0.028389
vn -0.109544 -0.993576 -0.028389
vn -0.109543 -0.993577 -0.028389
vn 0.188589 -0.019592 -0.981861
vn 0.188596 -0.019583 -0.981860
vn 0.188596 -0.019583 -0.981860
vn 0.188589 -0.019592 -0.981861
vn 0.188596 -0.019583 -0.981860
vn 0.188596 -0.019583 -0.981860
vn 0.188602 -0.019574 -0.981858
vn 0.188596 -0.019583 -0.981860
vn 0.191888 0.858407 -0.475727
vn 0.204498 0.927298 -0.313527
vn 0.191886 0.858407 -0.475728
vn 0.191888 0.858407 -0.475727
vn 0.191886 0.858407 -0.475728
vn 0.204498 0.927298 -0.313527
vn 0.169525 0.933502 -0.315966
vn 0.191886 0.858407 -0.475728
vn 0.954759 -0.174129 0.241069
vn 0.980174 -0.099795 0.171171
vn 0.975926 -0.107561 0.189734
vn 0.954759 -0.174129 0.241069
vn 0.975926 -0.107561 0.189734
vn 0.980174 -0.099795 0.171171
vn 0.988360 -0.070429 0.134845
vn 0.975926 -0.107561 0.189734
vn -0.152033 -0.029895 0.987923
vn -0.177521 -0.003340 0.984111
vn -0.173753 -0.009899 0.984740
vn -0.152033 -0.029895 0.987923
vn -0.173753 -0.009899 0.984740
vn -0.177521 -0.003340 0.984111
vn -0.190524 0.002436 0.981679
vn -0.173753 -0.009899 0.984740
vn -0.125253 -0.057521 0.990456
vn -0.152033 -0.029895 0.987923
vn -0.145772 -0.040282 0.988498
vn -0.125253 -0.057521 0.990456
vn -0.145772 -0.040282 0.988498
vn -0.152033 -0.029895 0.987923
vn -0.173753 -0.009899 0.984740
vn -0.145772 -0.040282 0.988498
vn 0.642582 0.762839 -0.071871
vn 0.641964 0.765406 -0.045116
vn 0.598615 0.798177 -0.067636
vn 0.642582 0.762839 -0.071871
vn 0.598615 0.798177 -0.067636
vn 0.641964 0.765406 -0.045116
vn 0.641413 0.766605 -0.030114
vn 0.598615 0.798177 -0.067636
vn 0.641964 0.765406 -0.045116
vn 0.640713 0.767632 -0.015110
vn 0.641413 0.766605 -0.030114
vn 0.641964 0.765406 -0.045116
vn 0.641413 0.766605 -0.030114
vn 0.640713 0.767632 -0.015110
vn 0.640709 0.767635 -0.015111
vn 0.641413 0.766605 -0.030114
vn -0.087145 0.019220 0.996010
vn -0.087148 0.019227 0.996010
vn -0.087148 0.019227 0.996010
vn -0.087145 0.019220 0.996010
vn -0.087148 0.019227 0.996010
vn -0.087148 0.019227 0.996010
vn -0.087152 0.019234 0.996009
vn -0.087148 0.019227 0.996010
vn 0.794117 -0.601332 0.088197
vn 0.884009 -0.457346 0.096762
vn 0.781300 -0.618888 0.080914
vn 0.794117 -0.601332 0.088197
vn 0.781300 -0.618888 0.080914
vn 0.884009 -0.457346 0.096762
vn 0.914525 -0.389879 0.107881
vn 0.781300 -0.618888 0.080914
vn 0.278517 0.951105 -0.133522
vn 0.465716 0.879822 -0.094985
vn 0.290712 0.949187 -0.120544
vn 0.278517 0.951105 -0.133522
vn -0.968686 0.204470 -0.140857
vn -0.984378 0.089630 -0.151550
vn -0.987980 0.072941 -0.136293
vn -0.968686 0.204470 -0.140857
vn -0.971436 0.196917 -0.132418
vn -0.984378 0.089630 -0.151550
vn -0.968686 0.204470 -0.140857
vn -0.971436 0.196917 -0.132418
vn -0.924440 0.367534 -0.101634
vn -0.984378 0.089630 -0.151550
vn -0.971436 0.196917 -0.132418
vn -0.924440 0.367534 -0.101634
vn -0.993626 -0.036934 -0.106508
vn -0.984378 0.089630 -0.151550
vn -0.986765 0.126167 -0.101868
vn -0.993626 -0.036934 -0.106508
vn -0.954764 0.174119 -0.241057
vn -0.984378 0.089630 -0.151550
vn -0.971438 0.123881 -0.202390
vn -0.954764 0.174119 -0.241057
vn -0.924440 0.367534 -0.101634
vn -0.986765 0.126167 -0.101868
vn -0.984378 0.089630 -0.151550
vn -0.924440 0.367534 -0.101634
vn -0.924440 0.367534 -0.101634
vn -0.821221 0.564150 -0.085618
vn -0.986765 0.126167 -0.101868
vn -0.924440 0.367534 -0.101634
vn -0.924440 0.367534 -0.101634
vn -0.794122 0.601325 -0.088199
vn -0.781304 0.618884 -0.080914
vn -0.924440 0.367534 -0.101634
vn -0.781304 0.618884 -0.080914
vn -0.821221 0.564150 -0.085618
vn -0.924440 0.367534 -0.101634
vn -0.781304 0.618884 -0.080914
vn 0.290712 0.949187 -0.120544
vn 0.204498 0.927298 -0.313527
vn 0.278517 0.951105 -0.133522
vn 0.290712 0.949187 -0.120544
vn 0.290712 0.949187 -0.120544
vn 0.169525 0.933502 -0.315966
vn 0.204498 0.927298 -0.313527
vn 0.290712 0.949187 -0.120544
vn 0.884009 -0.457346 0.096762
vn 0.941519 -0.324282 0.091556
vn 0.965815 -0.231032 0.117584
vn 0.884009 -0.457346 0.096762
vn 0.598615 0.798177 -0.067636
vn 0.465716 0.879822 -0.094985
vn 0.642582 0.762839 -0.071871
vn 0.598615 0.798177 -0.067636
vn 0.598615 0.798177 -0.067636
vn 0.290712 0.949187 -0.120544
vn 0.465716 0.879822 -0.094985
vn 0.598615 0.798177 -0.067636
vn 0.988360 -0.070429 0.134845
vn 0.980174 -0.099795 0.171171
vn 0.980295 -0.149850 0.128709
vn 0.988360 -0.070429 0.134845
vn 0.965815 -0.231032 0.117584
vn 0.988360 -0.070429 0.134845
vn 0.980295 -0.149850 0.128709
vn 0.965815 -0.231032 0.117584
vn 0.914525 -0.389879 0.107881
vn 0.884009 -0.457346 0.096762
vn 0.965815 -0.231032 0.117584
vn 0.914525 -0.389879 0.107881
vn 0.980295 -0.149850 0.128709
vn 0.914525 -0.389879 0.107881
vn 0.965815 -0.231032 0.117584
vn 0.980295 -0.149850 0.128709
vn 0.492274 0.866446 0.083298
vn 0.628196 0.769117 0.117593
vn 0.492274 0.866446 0.083298
vn 0.492274 0.866446 0.083298
vn 0.342015 0.938540 0.046577
vn 0.492274 0.866446 0.083298
vn 0.492274 0.866446 0.083298
vn 0.342015 0.938540 0.046577
vn -0.971438 0.123881 -0.202390
vn -0.954764 0.174119 -0.241057
vn -0.984378 0.089630 -0.151550
vn -0.971438 0.123881 -0.202390
vn -0.993626 -0.036934 -0.106508
vn -0.971438 0.123881 -0.202390
vn -0.984378 0.089630 -0.151550
vn -0.993626 -0.036934 -0.106508
# 172 vertex normals

g mat1
f 1/1/1 2/2/2 13/3/3
f 13/5/5 2/6/6 14/7/7
f 2/9/9 3/10/10 14/11/11
f 14/13/13 3/14/14 15/15/15
f 3/17/17 4/18/18 15/19/19
f 15/21/21 4/22/22 16/23/23
f 15/25/25 16/26/26 14/27/27
f 14/29/29 16/30/30 13/31/31
f 5/33/33 1/34/34 17/35/35
f 17/37/37 1/38/38 13/39/39
f 7/41/41 5/42/42 18/43/43
f 18/45/45 5/46/46 17/47/47
f 10/49/49 9/50/50 22/51/51
f 22/53/53 9/54/54 21/55/55
f 9/57/57 8/58/58 21/59/59
f 21/61/61 8/62/62 20/63/63
f 8/65/65 6/66/66 20/67/67
f 20/69/69 6/70/70 19/71/71
f 20/73/73 19/74/74 21/75/75
f 21/77/77 19/78/78 22/79/79
f 12/81/81 11/82/82 23/83/83
f 5/85/85 2/86/86 1/87/87
f 7/89/89 2/90/90 5/91/91
f 6/93/93 2/94/94 7/95/95
f 12/97/97 2/98/98 11/99/99
f 3/101/101 2/102/102 4/103/103
f 6/105/105 11/106/106 2/107/107
f 6/109/109 10/110/110 11/111/111
f 6/113/113 8/114/114 9/115/115
f 9/117/117 10/118/118 6/119/119
f 23/121/121 4/122/122 12/123/123
f 23/125/125 16/126/126 4/127/127
f 19/129/129 18/130/130 17/131/131
f 22/133/133 11/134/134 10/135/135
f 22/137/137 23/138/138 11/139/139
f 13/141/141 16/142/142 23/143/143
f 17/145/145 13/146/146 23/147/147
f 22/149/149 19/150/150 17/151/151
f 23/153/153 22/154/154 17/155/155
f 19/157/157 6/158/158 7/159/159
f 18/161/161 19/162/162 7/163/163
f 4/165/165 3/166/166 2/167/167
f 12/169/169 4/170/170 2/171/171
# 43 elements

