# Created by 3DAce v2.72


g
v -3.606624 1.189131 1.553583
v -3.562017 1.425308 1.566815
v -3.206266 1.312984 -1.584653
v -3.114266 1.142155 -1.990348
v -3.257232 1.380476 -1.150911
v -3.284819 1.449806 -0.729615
v -3.520844 1.511655 1.579044
v -3.499474 1.513329 1.405844
v -3.434514 1.581852 0.977122
v -3.337092 1.512180 -0.305791
v -3.365268 1.554549 0.120128
v -3.393627 1.571327 0.547664
v -3.535349 1.189827 1.562701
v -3.134992 1.313680 -1.575535
v -3.042991 1.142851 -1.981230
v -3.186507 1.370424 -1.142822
v -3.214094 1.439753 -0.721526
v -3.498324 1.392064 1.574267
v -3.457153 1.478410 1.586497
v -3.435782 1.480084 1.413295
v -3.363179 1.576333 0.983893
v -3.265757 1.506660 -0.299020
v -3.296727 1.533278 0.126070
v -3.325086 1.550056 0.553607
# 24 vertices

vt 0.832260 0.133930
vt 0.833950 0.111370
vt 0.831250 0.111440
vt 0.832260 0.133930
vt 0.815310 0.106890
vt 0.818790 0.123200
vt 0.816090 0.123270
vt 0.815310 0.106890
vt 0.815310 0.106890
vt 0.816090 0.123270
vt 0.812610 0.106960
vt 0.815310 0.106890
vt 0.833950 0.111370
vt 0.815310 0.106890
vt 0.812610 0.106960
vt 0.833950 0.111370
vt 0.833950 0.111370
vt 0.812610 0.106960
vt 0.831250 0.111440
vt 0.833950 0.111370
vt 0.831250 0.111440
vt 0.812610 0.106960
vt 0.816090 0.123270
vt 0.831250 0.111440
vt 0.820720 0.129650
vt 0.821760 0.136270
vt 0.819090 0.135310
vt 0.820720 0.129650
vt 0.820720 0.129650
vt 0.819090 0.135310
vt 0.818040 0.128690
vt 0.820720 0.129650
vt 0.830700 0.142180
vt 0.832260 0.133930
vt 0.829850 0.130750
vt 0.830700 0.142180
vt 0.830700 0.142180
vt 0.829850 0.130750
vt 0.828290 0.139000
vt 0.830700 0.142180
vt 0.829890 0.142330
vt 0.830700 0.142180
vt 0.828290 0.139000
vt 0.829890 0.142330
vt 0.829890 0.142330
vt 0.828290 0.139000
vt 0.827480 0.139160
vt 0.829890 0.142330
vt 0.829850 0.130750
vt 0.827480 0.139160
vt 0.828290 0.139000
vt 0.829850 0.130750
vt 0.821760 0.136270
vt 0.823740 0.142230
vt 0.821040 0.141700
vt 0.821760 0.136270
vt 0.821760 0.136270
vt 0.821040 0.141700
vt 0.819090 0.135310
vt 0.821760 0.136270
vt 0.824810 0.146270
vt 0.825880 0.147870
vt 0.823290 0.145840
vt 0.824810 0.146270
vt 0.824810 0.146270
vt 0.823290 0.145840
vt 0.822210 0.144240
vt 0.824810 0.146270
vt 0.833950 0.111370
vt 0.818790 0.123200
vt 0.815310 0.106890
vt 0.833950 0.111370
vt 0.833950 0.111370
vt 0.832260 0.133930
vt 0.818790 0.123200
vt 0.833950 0.111370
vt 0.832260 0.133930
vt 0.821760 0.136270
vt 0.820720 0.129650
vt 0.832260 0.133930
vt 0.832260 0.133930
vt 0.823740 0.142230
vt 0.821760 0.136270
vt 0.832260 0.133930
vt 0.832260 0.133930
vt 0.824810 0.146270
vt 0.823740 0.142230
vt 0.832260 0.133930
vt 0.832260 0.133930
vt 0.825880 0.147870
vt 0.824810 0.146270
vt 0.832260 0.133930
vt 0.832260 0.133930
vt 0.827430 0.148880
vt 0.825880 0.147870
vt 0.832260 0.133930
vt 0.832260 0.133930
vt 0.829890 0.142330
vt 0.827430 0.148880
vt 0.832260 0.133930
vt 0.832260 0.133930
vt 0.830700 0.142180
vt 0.829890 0.142330
vt 0.832260 0.133930
vt 0.831250 0.111440
vt 0.829850 0.130750
vt 0.832260 0.133930
vt 0.831250 0.111440
vt 0.824730 0.148350
vt 0.827430 0.148880
vt 0.827480 0.139160
vt 0.824730 0.148350
vt 0.827480 0.139160
vt 0.827430 0.148880
vt 0.829890 0.142330
vt 0.827480 0.139160
vt 0.823740 0.142230
vt 0.822210 0.144240
vt 0.821040 0.141700
vt 0.823740 0.142230
vt 0.824810 0.146270
vt 0.822210 0.144240
vt 0.823740 0.142230
vt 0.824810 0.146270
vt 0.825880 0.147870
vt 0.824730 0.148350
vt 0.823290 0.145840
vt 0.825880 0.147870
vt 0.827430 0.148880
vt 0.824730 0.148350
vt 0.825880 0.147870
vt 0.827430 0.148880
vt 0.818790 0.123200
vt 0.818040 0.128690
vt 0.816090 0.123270
vt 0.818790 0.123200
vt 0.818040 0.128690
vt 0.831250 0.111440
vt 0.816090 0.123270
vt 0.818040 0.128690
vt 0.819090 0.135310
vt 0.831250 0.111440
vt 0.818040 0.128690
vt 0.819090 0.135310
vt 0.821040 0.141700
vt 0.831250 0.111440
vt 0.819090 0.135310
vt 0.821040 0.141700
vt 0.822210 0.144240
vt 0.831250 0.111440
vt 0.821040 0.141700
vt 0.822210 0.144240
vt 0.823290 0.145840
vt 0.831250 0.111440
vt 0.822210 0.144240
vt 0.823290 0.145840
vt 0.824730 0.148350
vt 0.831250 0.111440
vt 0.823290 0.145840
vt 0.824730 0.148350
vt 0.827480 0.139160
vt 0.831250 0.111440
vt 0.824730 0.148350
vt 0.827480 0.139160
vt 0.829850 0.130750
vt 0.831250 0.111440
vt 0.827480 0.139160
vt 0.829850 0.130750
vt 0.820720 0.129650
vt 0.818040 0.128690
vt 0.818790 0.123200
vt 0.820720 0.129650
vt 0.818790 0.123200
vt 0.832260 0.133930
vt 0.820720 0.129650
vt 0.818790 0.123200
# 176 texture vertices

vn -0.136718 -0.043936 0.989635
vn -0.126523 -0.031650 0.991459
vn -0.129653 -0.031998 0.991043
vn -0.136718 -0.043936 0.989635
vn 0.039606 0.924085 -0.380130
vn 0.067605 0.973934 -0.216525
vn 0.028908 0.953885 -0.298778
vn 0.039606 0.924085 -0.380130
vn 0.039606 0.924085 -0.380130
vn 0.028908 0.953885 -0.298778
vn 0.039604 0.924085 -0.380130
vn 0.039606 0.924085 -0.380130
vn 0.007927 -0.999866 0.014355
vn 0.007928 -0.999866 0.014355
vn 0.007927 -0.999866 0.014355
vn 0.007927 -0.999866 0.014355
vn 0.007927 -0.999866 0.014355
vn 0.007927 -0.999866 0.014355
vn 0.007927 -0.999866 0.014355
vn 0.007927 -0.999866 0.014355
vn 0.976583 -0.173890 0.126677
vn 0.969043 0.208729 0.131862
vn 0.988355 0.080289 0.129257
vn 0.976583 -0.173890 0.126677
vn 0.155469 0.977138 -0.145018
vn 0.133316 0.981089 -0.140322
vn 0.155531 0.977035 -0.145647
vn 0.155469 0.977138 -0.145018
vn 0.155469 0.977138 -0.145018
vn 0.155531 0.977035 -0.145647
vn 0.106023 0.984701 -0.138287
vn 0.155469 0.977138 -0.145018
vn -0.150780 -0.067789 0.986240
vn -0.136718 -0.043936 0.989635
vn -0.144806 -0.055984 0.987875
vn -0.150780 -0.067789 0.986240
vn -0.150780 -0.067789 0.986240
vn -0.144806 -0.055984 0.987875
vn -0.150792 -0.067791 0.986238
vn -0.150780 -0.067789 0.986240
vn 0.449468 0.886233 0.112109
vn 0.455784 0.887727 0.064817
vn 0.455782 0.887728 0.064818
vn 0.449468 0.886233 0.112109
vn 0.449468 0.886233 0.112109
vn 0.455782 0.887728 0.064818
vn 0.321072 0.931773 0.169443
vn 0.449468 0.886233 0.112109
vn 0.929448 -0.317876 0.187301
vn 0.939360 -0.304354 0.158022
vn 0.891676 -0.440145 0.105768
vn 0.929448 -0.317876 0.187301
vn 0.133316 0.981089 -0.140322
vn 0.158579 0.983334 -0.088920
vn 0.108838 0.988065 -0.109007
vn 0.133316 0.981089 -0.140322
vn 0.133316 0.981089 -0.140322
vn 0.108838 0.988065 -0.109007
vn 0.155531 0.977035 -0.145647
vn 0.133316 0.981089 -0.140322
vn 0.299095 0.953518 -0.036690
vn 0.226343 0.973793 -0.022271
vn 0.298091 0.954274 -0.022405
vn 0.299095 0.953518 -0.036690
vn 0.299095 0.953518 -0.036690
vn 0.298091 0.954274 -0.022405
vn 0.228496 0.972269 -0.049829
vn 0.299095 0.953518 -0.036690
vn -0.991872 -0.009229 -0.126902
vn -0.992414 -0.019034 -0.121457
vn -0.969045 -0.208723 -0.131863
vn -0.991872 -0.009229 -0.126902
vn -0.991872 -0.009229 -0.126902
vn -0.950320 0.294847 -0.099786
vn -0.992414 -0.019034 -0.121457
vn -0.991872 -0.009229 -0.126902
vn -0.950320 0.294847 -0.099786
vn -0.982782 0.142922 -0.117105
vn -0.984809 0.132166 -0.112624
vn -0.950320 0.294847 -0.099786
vn -0.950320 0.294847 -0.099786
vn -0.979767 0.167253 -0.109924
vn -0.982782 0.142922 -0.117105
vn -0.950320 0.294847 -0.099786
vn -0.950320 0.294847 -0.099786
vn -0.907408 0.411215 -0.086671
vn -0.979767 0.167253 -0.109924
vn -0.950320 0.294847 -0.099786
vn -0.950320 0.294847 -0.099786
vn -0.898767 0.429722 -0.086931
vn -0.907408 0.411215 -0.086671
vn -0.950320 0.294847 -0.099786
vn -0.950320 0.294847 -0.099786
vn -0.888115 0.454026 -0.071499
vn -0.898767 0.429722 -0.086931
vn -0.950320 0.294847 -0.099786
vn -0.950320 0.294847 -0.099786
vn -0.873068 0.481665 -0.075837
vn -0.888115 0.454026 -0.071499
vn -0.950320 0.294847 -0.099786
vn -0.950320 0.294847 -0.099786
vn -0.891672 0.440154 -0.105764
vn -0.873068 0.481665 -0.075837
vn -0.950320 0.294847 -0.099786
vn -0.129653 -0.031998 0.991043
vn -0.144806 -0.055984 0.987875
vn -0.136718 -0.043936 0.989635
vn -0.129653 -0.031998 0.991043
vn 0.145666 0.987498 0.060239
vn 0.193116 0.970860 0.141904
vn 0.321072 0.931773 0.169443
vn 0.145666 0.987498 0.060239
vn 0.321072 0.931773 0.169443
vn 0.193116 0.970860 0.141904
vn 0.449468 0.886233 0.112109
vn 0.321072 0.931773 0.169443
vn 0.158579 0.983334 -0.088920
vn 0.228496 0.972269 -0.049829
vn 0.108838 0.988065 -0.109007
vn 0.158579 0.983334 -0.088920
vn 0.299095 0.953518 -0.036690
vn 0.228496 0.972269 -0.049829
vn 0.158579 0.983334 -0.088920
vn 0.299095 0.953518 -0.036690
vn 0.226343 0.973793 -0.022271
vn 0.145666 0.987498 0.060239
vn 0.298091 0.954274 -0.022405
vn 0.226343 0.973793 -0.022271
vn 0.193116 0.970860 0.141904
vn 0.145666 0.987498 0.060239
vn 0.226343 0.973793 -0.022271
vn 0.193116 0.970860 0.141904
vn 0.067605 0.973934 -0.216525
vn 0.106023 0.984701 -0.138287
vn 0.028908 0.953885 -0.298778
vn 0.067605 0.973934 -0.216525
vn 0.980734 -0.157210 0.115959
vn 0.976583 -0.173890 0.126677
vn 0.988355 0.080289 0.129257
vn 0.980734 -0.157210 0.115959
vn 0.978817 -0.166268 0.119469
vn 0.976583 -0.173890 0.126677
vn 0.980734 -0.157210 0.115959
vn 0.978817 -0.166268 0.119469
vn 0.977030 -0.182234 0.110469
vn 0.976583 -0.173890 0.126677
vn 0.978817 -0.166268 0.119469
vn 0.977030 -0.182234 0.110469
vn 0.945440 -0.315404 0.081633
vn 0.976583 -0.173890 0.126677
vn 0.977030 -0.182234 0.110469
vn 0.945440 -0.315404 0.081633
vn 0.948071 -0.305500 0.088490
vn 0.976583 -0.173890 0.126677
vn 0.945440 -0.315404 0.081633
vn 0.948071 -0.305500 0.088490
vn 0.956070 -0.275371 0.100506
vn 0.976583 -0.173890 0.126677
vn 0.948071 -0.305500 0.088490
vn 0.956070 -0.275371 0.100506
vn 0.939360 -0.304354 0.158022
vn 0.976583 -0.173890 0.126677
vn 0.956070 -0.275371 0.100506
vn 0.939360 -0.304354 0.158022
vn 0.929448 -0.317876 0.187301
vn 0.976583 -0.173890 0.126677
vn 0.939360 -0.304354 0.158022
vn 0.929448 -0.317876 0.187301
vn 0.155469 0.977138 -0.145018
vn 0.106023 0.984701 -0.138287
vn 0.067605 0.973934 -0.216525
vn 0.155469 0.977138 -0.145018
vn -0.992414 -0.019034 -0.121457
vn -0.950320 0.294847 -0.099786
vn -0.984809 0.132166 -0.112624
vn -0.992414 -0.019034 -0.121457
# 176 vertex normals

g mat1
f 2/1/1 1/2/2 13/3/3
f 4/5/5 3/6/6 14/7/7
f 4/9/9 14/10/10 15/11/11
f 1/13/13 4/14/14 15/15/15
f 1/17/17 15/18/18 13/19/19
f 13/21/21 15/22/22 14/23/23
f 5/25/25 6/26/26 17/27/27
f 5/29/29 17/30/30 16/31/31
f 7/33/33 2/34/34 18/35/35
f 7/37/37 18/38/38 19/39/39
f 8/41/41 7/42/42 19/43/43
f 8/45/45 19/46/46 20/47/47
f 18/49/49 20/50/50 19/51/51
f 6/53/53 10/54/54 22/55/55
f 6/57/57 22/58/58 17/59/59
f 11/61/61 12/62/62 24/63/63
f 11/65/65 24/66/66 23/67/67
f 1/69/69 3/70/70 4/71/71
f 1/73/73 2/74/74 3/75/75
f 2/77/77 6/78/78 5/79/79
f 2/81/81 10/82/82 6/83/83
f 2/85/85 11/86/86 10/87/87
f 2/89/89 12/90/90 11/91/91
f 2/93/93 9/94/94 12/95/95
f 2/97/97 8/98/98 9/99/99
f 2/101/101 7/102/102 8/103/103
f 13/105/105 18/106/106 2/107/107
f 21/109/109 9/110/110 20/111/111
f 20/113/113 9/114/114 8/115/115
f 10/117/117 23/118/118 22/119/119
f 11/121/121 23/122/122 10/123/123
f 12/125/125 21/126/126 24/127/127
f 9/129/129 21/130/130 12/131/131
f 3/133/133 16/134/134 14/135/135
f 16/137/137 13/138/138 14/139/139
f 17/141/141 13/142/142 16/143/143
f 22/145/145 13/146/146 17/147/147
f 23/149/149 13/150/150 22/151/151
f 24/153/153 13/154/154 23/155/155
f 21/157/157 13/158/158 24/159/159
f 20/161/161 13/162/162 21/163/163
f 18/165/165 13/166/166 20/167/167
f 5/169/169 16/170/170 3/171/171
f 3/173/173 2/174/174 5/175/175
# 44 elements

