# Created by 3DAce v2.72


g
v 0.331487 0.043205 -5.413765
v 0.331487 0.043205 -5.016243
v 0.331487 -0.301051 -5.215009
v 0.331487 -0.301051 -5.612521
v 0.331487 0.043205 -5.811267
v 0.331487 0.387470 -5.612521
v 0.331487 0.387470 -5.215009
v 0.063677 0.043205 -5.016243
v 0.063677 -0.301051 -5.215009
v 0.063677 -0.301051 -5.612521
v 0.063677 0.043205 -5.811267
v 0.063677 0.387470 -5.612521
v 0.063677 0.387470 -5.215009
v 0.063677 0.043205 -5.413765
v -0.079570 -0.020040 -5.414231
v -0.079570 0.104542 -5.342301
v -0.079570 0.104542 -5.486163
v 0.080617 -0.020040 -5.414241
v 0.080617 0.104550 -5.342301
v 0.080617 0.104550 -5.486163
v -0.000106 1.242848 -5.375468
v 0.047916 1.242848 -5.458654
v -0.048136 1.242848 -5.458654
v -0.000106 0.081450 -5.375468
v 0.047916 0.081450 -5.458654
v -0.048136 0.081450 -5.458654
v -0.331487 0.043205 -5.413765
v -0.331487 0.043205 -5.016243
v -0.331487 -0.301051 -5.215009
v -0.331487 -0.301051 -5.612521
v -0.331487 0.043205 -5.811267
v -0.331487 0.387470 -5.612521
v -0.331487 0.387470 -5.215009
v -0.063677 0.043205 -5.016243
v -0.063677 -0.301051 -5.215009
v -0.063677 -0.301051 -5.612521
v -0.063677 0.043205 -5.811267
v -0.063677 0.387470 -5.612521
v -0.063677 0.387470 -5.215009
v -0.063677 0.043205 -5.413765
# 40 vertices

vt 0.958050 0.951280
vt 0.966590 0.921020
vt 0.975130 0.951280
vt 0.958050 0.951280
vt 0.966590 0.921020
vt 0.983680 0.921020
vt 0.975130 0.951280
vt 0.966590 0.921020
vt 0.983680 0.921020
vt 0.992220 0.951280
vt 0.975130 0.951280
vt 0.983680 0.921020
vt 0.992220 0.951280
vt 0.983680 0.981530
vt 0.975130 0.951280
vt 0.992220 0.951280
vt 0.983680 0.981530
vt 0.966590 0.981530
vt 0.975130 0.951280
vt 0.983680 0.981530
vt 0.966590 0.981530
vt 0.958050 0.951280
vt 0.975130 0.951280
vt 0.966590 0.981530
vt 0.966590 0.921020
vt 0.958050 0.951280
vt 0.975130 0.951280
vt 0.966590 0.921020
vt 0.983680 0.921020
vt 0.966590 0.921020
vt 0.975130 0.951280
vt 0.983680 0.921020
vt 0.992220 0.951280
vt 0.983680 0.921020
vt 0.975130 0.951280
vt 0.992220 0.951280
vt 0.983680 0.981530
vt 0.992220 0.951280
vt 0.975130 0.951280
vt 0.983680 0.981530
vt 0.966590 0.981530
vt 0.983680 0.981530
vt 0.975130 0.951280
vt 0.966590 0.981530
vt 0.958050 0.951280
vt 0.966590 0.981530
vt 0.975130 0.951280
vt 0.958050 0.951280
vt 0.992060 0.884940
vt 0.971150 0.884940
vt 0.971150 0.904130
vt 0.992060 0.884940
vt 0.992060 0.904120
vt 0.992060 0.884940
vt 0.971150 0.904130
vt 0.992060 0.904120
vt 0.971150 0.884940
vt 0.992060 0.884940
vt 0.992060 0.904120
vt 0.971150 0.884940
vt 0.971150 0.904130
vt 0.971150 0.884940
vt 0.992060 0.904120
vt 0.971150 0.904130
vt 0.992060 0.884940
vt 0.971150 0.884940
vt 0.971150 0.904130
vt 0.992060 0.884940
vt 0.992060 0.904120
vt 0.992060 0.884940
vt 0.971150 0.904130
vt 0.992060 0.904120
vt 0.971150 0.884940
vt 0.992060 0.884940
vt 0.992060 0.904120
vt 0.971150 0.884940
vt 0.971150 0.904130
vt 0.971150 0.884940
vt 0.992060 0.904120
vt 0.971150 0.904130
vt 0.992060 0.884940
vt 0.971150 0.884940
vt 0.971150 0.904130
vt 0.992060 0.884940
vt 0.992060 0.904120
vt 0.992060 0.884940
vt 0.971150 0.904130
vt 0.992060 0.904120
vt 0.971150 0.884940
vt 0.992060 0.884940
vt 0.992060 0.904120
vt 0.971150 0.884940
vt 0.971150 0.904130
vt 0.971150 0.884940
vt 0.992060 0.904120
vt 0.971150 0.904130
vt 0.960580 0.745760
vt 0.960580 0.732180
vt 0.953180 0.732180
vt 0.960580 0.745760
vt 0.953180 0.745760
vt 0.960580 0.745760
vt 0.953180 0.732180
vt 0.953180 0.745760
vt 0.960580 0.732180
vt 0.960580 0.745760
vt 0.953180 0.745760
vt 0.960580 0.732180
vt 0.953180 0.732180
vt 0.960580 0.732180
vt 0.953180 0.745760
vt 0.953180 0.732180
vt 0.960580 0.745760
vt 0.960580 0.732180
vt 0.953180 0.732180
vt 0.960580 0.745760
vt 0.953180 0.745760
vt 0.960580 0.745760
vt 0.953180 0.732180
vt 0.953180 0.745760
vt 0.960560 0.732180
vt 0.953180 0.732180
vt 0.953180 0.897430
vt 0.960560 0.732180
vt 0.960560 0.897430
vt 0.960560 0.732180
vt 0.953180 0.897430
vt 0.960560 0.897430
vt 0.953180 0.732180
vt 0.960560 0.732180
vt 0.960560 0.897430
vt 0.953180 0.732180
vt 0.953180 0.897430
vt 0.953180 0.732180
vt 0.960560 0.897430
vt 0.953180 0.897430
vt 0.960560 0.732180
vt 0.953180 0.732180
vt 0.953180 0.897430
vt 0.960560 0.732180
vt 0.960560 0.897430
vt 0.960560 0.732180
vt 0.953180 0.897430
vt 0.960560 0.897430
vt 0.958050 0.951280
vt 0.975130 0.951280
vt 0.966590 0.921020
vt 0.958050 0.951280
vt 0.966590 0.921020
vt 0.975130 0.951280
vt 0.983680 0.921020
vt 0.966590 0.921020
vt 0.983680 0.921020
vt 0.975130 0.951280
vt 0.992220 0.951280
vt 0.983680 0.921020
vt 0.992220 0.951280
vt 0.975130 0.951280
vt 0.983680 0.981530
vt 0.992220 0.951280
vt 0.983680 0.981530
vt 0.975130 0.951280
vt 0.966590 0.981530
vt 0.983680 0.981530
vt 0.966590 0.981530
vt 0.975130 0.951280
vt 0.958050 0.951280
vt 0.966590 0.981530
vt 0.966590 0.921020
vt 0.975130 0.951280
vt 0.958050 0.951280
vt 0.966590 0.921020
vt 0.983680 0.921020
vt 0.975130 0.951280
vt 0.966590 0.921020
vt 0.983680 0.921020
vt 0.992220 0.951280
vt 0.975130 0.951280
vt 0.983680 0.921020
vt 0.992220 0.951280
vt 0.983680 0.981530
vt 0.975130 0.951280
vt 0.992220 0.951280
vt 0.983680 0.981530
vt 0.966590 0.981530
vt 0.975130 0.951280
vt 0.983680 0.981530
vt 0.966590 0.981530
vt 0.958050 0.951280
vt 0.975130 0.951280
vt 0.966590 0.981530
vt 0.958050 0.951280
vt 0.992060 0.884940
vt 0.971150 0.904130
vt 0.971150 0.884940
vt 0.992060 0.884940
vt 0.992060 0.904120
vt 0.971150 0.904130
vt 0.992060 0.884940
vt 0.992060 0.904120
vt 0.971150 0.884940
vt 0.992060 0.904120
vt 0.992060 0.884940
vt 0.971150 0.884940
vt 0.971150 0.904130
vt 0.992060 0.904120
vt 0.971150 0.884940
vt 0.971150 0.904130
vt 0.992060 0.884940
vt 0.971150 0.904130
vt 0.971150 0.884940
vt 0.992060 0.884940
vt 0.992060 0.904120
vt 0.971150 0.904130
vt 0.992060 0.884940
vt 0.992060 0.904120
vt 0.971150 0.884940
vt 0.992060 0.904120
vt 0.992060 0.884940
vt 0.971150 0.884940
vt 0.971150 0.904130
vt 0.992060 0.904120
vt 0.971150 0.884940
vt 0.971150 0.904130
vt 0.992060 0.884940
vt 0.971150 0.904130
vt 0.971150 0.884940
vt 0.992060 0.884940
vt 0.992060 0.904120
vt 0.971150 0.904130
vt 0.992060 0.884940
vt 0.992060 0.904120
vt 0.971150 0.884940
vt 0.992060 0.904120
vt 0.992060 0.884940
vt 0.971150 0.884940
vt 0.971150 0.904130
vt 0.992060 0.904120
vt 0.971150 0.884940
vt 0.971150 0.904130
# 240 texture vertices

vn 1.000000 0.000000 0.000000
vn 1.000000 0.000000 -0.000000
vn 1.000000 0.000000 0.000000
vn 1.000000 0.000000 0.000000
vn 1.000000 0.000000 -0.000000
vn 1.000000 0.000000 0.000000
vn 1.000000 0.000000 0.000000
vn 1.000000 0.000000 -0.000000
vn 1.000000 0.000000 0.000000
vn 1.000000 0.000000 0.000000
vn 1.000000 0.000000 0.000000
vn 1.000000 0.000000 0.000000
vn 1.000000 0.000000 0.000000
vn 1.000000 0.000000 0.000000
vn 1.000000 0.000000 0.000000
vn 1.000000 0.000000 0.000000
vn 1.000000 0.000000 0.000000
vn 1.000000 -0.000000 0.000000
vn 1.000000 0.000000 0.000000
vn 1.000000 0.000000 0.000000
vn 1.000000 -0.000000 0.000000
vn 1.000000 0.000000 0.000000
vn 1.000000 0.000000 0.000000
vn 1.000000 -0.000000 0.000000
vn -1.000000 -0.000000 0.000000
vn -1.000000 0.000000 0.000000
vn -1.000000 0.000000 0.000000
vn -1.000000 -0.000000 0.000000
vn -1.000000 0.000000 -0.000000
vn -1.000000 -0.000000 0.000000
vn -1.000000 0.000000 0.000000
vn -1.000000 0.000000 -0.000000
vn -1.000000 0.000000 0.000000
vn -1.000000 0.000000 -0.000000
vn -1.000000 0.000000 0.000000
vn -1.000000 0.000000 0.000000
vn -1.000000 0.000000 0.000000
vn -1.000000 0.000000 0.000000
vn -1.000000 0.000000 0.000000
vn -1.000000 0.000000 0.000000
vn -1.000000 0.000000 0.000000
vn -1.000000 0.000000 0.000000
vn -1.000000 0.000000 0.000000
vn -1.000000 0.000000 0.000000
vn -1.000000 0.000000 0.000000
vn -1.000000 0.000000 0.000000
vn -1.000000 0.000000 0.000000
vn -1.000000 0.000000 0.000000
vn 0.000000 -0.500019 0.866015
vn 0.000000 -0.500019 0.866015
vn 0.000000 -0.500019 0.866015
vn 0.000000 -0.500019 0.866015
vn 0.000000 -0.500019 0.866015
vn 0.000000 -0.500019 0.866015
vn 0.000000 -0.500019 0.866015
vn 0.000000 -0.500019 0.866015
vn 0.000000 -1.000000 0.000000
vn 0.000000 -1.000000 0.000000
vn 0.000000 -1.000000 0.000000
vn 0.000000 -1.000000 0.000000
vn 0.000000 -1.000000 0.000000
vn 0.000000 -1.000000 0.000000
vn 0.000000 -1.000000 0.000000
vn 0.000000 -1.000000 0.000000
vn 0.000000 -0.499982 -0.866036
vn -0.000000 -0.499982 -0.866036
vn 0.000000 -0.499982 -0.866036
vn 0.000000 -0.499982 -0.866036
vn 0.000000 -0.499982 -0.866036
vn 0.000000 -0.499982 -0.866036
vn 0.000000 -0.499982 -0.866036
vn 0.000000 -0.499982 -0.866036
vn 0.000000 0.499972 -0.866042
vn 0.000000 0.499972 -0.866042
vn 0.000000 0.499972 -0.866042
vn 0.000000 0.499972 -0.866042
vn 0.000000 0.499972 -0.866042
vn 0.000000 0.499972 -0.866042
vn 0.000000 0.499972 -0.866042
vn 0.000000 0.499972 -0.866042
vn 0.000000 1.000000 0.000000
vn 0.000000 1.000000 0.000000
vn 0.000000 1.000000 0.000000
vn 0.000000 1.000000 0.000000
vn -0.000000 1.000000 0.000000
vn 0.000000 1.000000 0.000000
vn 0.000000 1.000000 0.000000
vn -0.000000 1.000000 0.000000
vn 0.000000 0.500009 0.866020
vn 0.000000 0.500009 0.866020
vn 0.000000 0.500009 0.866020
vn 0.000000 0.500009 0.866020
vn -0.000000 0.500009 0.866020
vn 0.000000 0.500009 0.866020
vn 0.000000 0.500009 0.866020
vn -0.000000 0.500009 0.866020
vn 0.000040 -0.500027 0.866010
vn 0.000025 -0.500041 0.866002
vn 0.000040 -0.500027 0.866010
vn 0.000040 -0.500027 0.866010
vn 0.000054 -0.500013 0.866018
vn 0.000040 -0.500027 0.866010
vn 0.000040 -0.500027 0.866010
vn 0.000054 -0.500013 0.866018
vn -0.000050 1.000000 0.000000
vn -0.000050 1.000000 0.000000
vn -0.000050 1.000000 0.000000
vn -0.000050 1.000000 0.000000
vn -0.000050 1.000000 0.000000
vn -0.000050 1.000000 0.000000
vn -0.000050 1.000000 0.000000
vn -0.000050 1.000000 0.000000
vn -0.000015 -0.499985 -0.866034
vn -0.000054 -0.499947 -0.866056
vn -0.000015 -0.499985 -0.866034
vn -0.000015 -0.499985 -0.866034
vn 0.000025 -0.500023 -0.866012
vn -0.000015 -0.499985 -0.866034
vn -0.000015 -0.499985 -0.866034
vn 0.000025 -0.500023 -0.866012
vn 0.866049 0.000000 0.499959
vn 0.866049 0.000000 0.499959
vn 0.866049 0.000000 0.499959
vn 0.866049 0.000000 0.499959
vn 0.866049 -0.000000 0.499959
vn 0.866049 0.000000 0.499959
vn 0.866049 0.000000 0.499959
vn 0.866049 -0.000000 0.499959
vn 0.000000 0.000000 -1.000000
vn 0.000000 0.000000 -1.000000
vn 0.000000 0.000000 -1.000000
vn 0.000000 0.000000 -1.000000
vn 0.000000 0.000000 -1.000000
vn 0.000000 0.000000 -1.000000
vn 0.000000 0.000000 -1.000000
vn 0.000000 0.000000 -1.000000
vn -0.866013 0.000000 0.500021
vn -0.866013 0.000000 0.500021
vn -0.866013 0.000000 0.500021
vn -0.866013 0.000000 0.500021
vn -0.866013 0.000000 0.500021
vn -0.866013 0.000000 0.500021
vn -0.866013 0.000000 0.500021
vn -0.866013 0.000000 0.500021
vn -1.000000 0.000000 0.000000
vn -1.000000 0.000000 0.000000
vn -1.000000 0.000000 0.000000
vn -1.000000 0.000000 0.000000
vn -1.000000 0.000000 0.000000
vn -1.000000 0.000000 0.000000
vn -1.000000 0.000000 0.000000
vn -1.000000 0.000000 0.000000
vn -1.000000 0.000000 0.000000
vn -1.000000 0.000000 0.000000
vn -1.000000 -0.000000 0.000000
vn -1.000000 0.000000 0.000000
vn -1.000000 -0.000000 0.000000
vn -1.000000 0.000000 0.000000
vn -1.000000 0.000000 -0.000000
vn -1.000000 -0.000000 0.000000
vn -1.000000 0.000000 -0.000000
vn -1.000000 0.000000 0.000000
vn -1.000000 0.000000 0.000000
vn -1.000000 0.000000 -0.000000
vn -1.000000 0.000000 0.000000
vn -1.000000 0.000000 0.000000
vn -1.000000 0.000000 0.000000
vn -1.000000 0.000000 0.000000
vn 1.000000 0.000000 0.000000
vn 1.000000 0.000000 0.000000
vn 1.000000 0.000000 0.000000
vn 1.000000 0.000000 0.000000
vn 1.000000 0.000000 0.000000
vn 1.000000 0.000000 0.000000
vn 1.000000 0.000000 0.000000
vn 1.000000 0.000000 0.000000
vn 1.000000 -0.000000 0.000000
vn 1.000000 0.000000 0.000000
vn 1.000000 0.000000 0.000000
vn 1.000000 -0.000000 0.000000
vn 1.000000 0.000000 0.000000
vn 1.000000 0.000000 0.000000
vn 1.000000 -0.000000 0.000000
vn 1.000000 0.000000 0.000000
vn 1.000000 0.000000 -0.000000
vn 1.000000 0.000000 0.000000
vn 1.000000 0.000000 0.000000
vn 1.000000 0.000000 -0.000000
vn 1.000000 0.000000 0.000000
vn 1.000000 0.000000 0.000000
vn 1.000000 0.000000 -0.000000
vn 1.000000 0.000000 0.000000
vn 0.000000 -0.500019 0.866015
vn 0.000000 -0.500019 0.866015
vn 0.000000 -0.500019 0.866015
vn 0.000000 -0.500019 0.866015
vn 0.000000 -0.500019 0.866015
vn 0.000000 -0.500019 0.866015
vn 0.000000 -0.500019 0.866015
vn 0.000000 -0.500019 0.866015
vn 0.000000 -1.000000 0.000000
vn 0.000000 -1.000000 0.000000
vn 0.000000 -1.000000 0.000000
vn 0.000000 -1.000000 0.000000
vn -0.000000 -1.000000 0.000000
vn 0.000000 -1.000000 0.000000
vn 0.000000 -1.000000 0.000000
vn -0.000000 -1.000000 0.000000
vn 0.000000 -0.499982 -0.866036
vn 0.000000 -0.499982 -0.866036
vn -0.000000 -0.499982 -0.866036
vn 0.000000 -0.499982 -0.866036
vn 0.000000 -0.499982 -0.866036
vn 0.000000 -0.499982 -0.866036
vn 0.000000 -0.499982 -0.866036
vn 0.000000 -0.499982 -0.866036
vn 0.000000 0.499972 -0.866042
vn 0.000000 0.499972 -0.866042
vn 0.000000 0.499972 -0.866042
vn 0.000000 0.499972 -0.866042
vn 0.000000 0.499972 -0.866042
vn 0.000000 0.499972 -0.866042
vn 0.000000 0.499972 -0.866042
vn 0.000000 0.499972 -0.866042
vn 0.000000 1.000000 0.000000
vn 0.000000 1.000000 0.000000
vn 0.000000 1.000000 0.000000
vn 0.000000 1.000000 0.000000
vn 0.000000 1.000000 0.000000
vn 0.000000 1.000000 0.000000
vn 0.000000 1.000000 0.000000
vn 0.000000 1.000000 0.000000
vn 0.000000 0.500009 0.866020
vn 0.000000 0.500009 0.866020
vn 0.000000 0.500009 0.866020
vn 0.000000 0.500009 0.866020
vn 0.000000 0.500009 0.866020
vn 0.000000 0.500009 0.866020
vn 0.000000 0.500009 0.866020
vn 0.000000 0.500009 0.866020
# 240 vertex normals

g AV8B
f 2/1/1 3/2/2 1/3/3
f 3/5/5 4/6/6 1/7/7
f 4/9/9 5/10/10 1/11/11
f 5/13/13 6/14/14 1/15/15
f 6/17/17 7/18/18 1/19/19
f 7/21/21 2/22/22 1/23/23
f 9/25/25 8/26/26 14/27/27
f 10/29/29 9/30/30 14/31/31
f 11/33/33 10/34/34 14/35/35
f 12/37/37 11/38/38 14/39/39
f 13/41/41 12/42/42 14/43/43
f 8/45/45 13/46/46 14/47/47
f 8/49/49 9/50/50 3/51/51
f 2/53/53 8/54/54 3/55/55
f 9/57/57 10/58/58 4/59/59
f 3/61/61 9/62/62 4/63/63
f 10/65/65 11/66/66 5/67/67
f 4/69/69 10/70/70 5/71/71
f 11/73/73 12/74/74 6/75/75
f 5/77/77 11/78/78 6/79/79
f 12/81/81 13/82/82 7/83/83
f 6/85/85 12/86/86 7/87/87
f 13/89/89 8/90/90 2/91/91
f 7/93/93 13/94/94 2/95/95
f 18/97/97 19/98/98 16/99/99
f 15/101/101 18/102/102 16/103/103
f 19/105/105 20/106/106 17/107/107
f 16/109/109 19/110/110 17/111/111
f 20/113/113 18/114/114 15/115/115
f 17/117/117 20/118/118 15/119/119
f 24/121/121 25/122/122 22/123/123
f 21/125/125 24/126/126 22/127/127
f 25/129/129 26/130/130 23/131/131
f 22/133/133 25/134/134 23/135/135
f 26/137/137 24/138/138 21/139/139
f 23/141/141 26/142/142 21/143/143
f 28/145/145 27/146/146 29/147/147
f 29/149/149 27/150/150 30/151/151
f 30/153/153 27/154/154 31/155/155
f 31/157/157 27/158/158 32/159/159
f 32/161/161 27/162/162 33/163/163
f 33/165/165 27/166/166 28/167/167
f 35/169/169 40/170/170 34/171/171
f 36/173/173 40/174/174 35/175/175
f 37/177/177 40/178/178 36/179/179
f 38/181/181 40/182/182 37/183/183
f 39/185/185 40/186/186 38/187/187
f 34/189/189 40/190/190 39/191/191
f 34/193/193 29/194/194 35/195/195
f 28/197/197 29/198/198 34/199/199
f 35/201/201 30/202/202 36/203/203
f 29/205/205 30/206/206 35/207/207
f 36/209/209 31/210/210 37/211/211
f 30/213/213 31/214/214 36/215/215
f 37/217/217 32/218/218 38/219/219
f 31/221/221 32/222/222 37/223/223
f 38/225/225 33/226/226 39/227/227
f 32/229/229 33/230/230 38/231/231
f 39/233/233 28/234/234 34/235/235
f 33/237/237 28/238/238 39/239/239
# 60 elements

