# Created by 3DAce v2.72


g
v -0.219453 1.510666 -1.811220
v -0.247031 1.497570 -1.810480
v -0.327151 1.658224 -2.004276
v -0.299575 1.671321 -2.004935
v -0.349773 1.690181 -2.288457
v -0.322124 1.703322 -2.289115
v -0.290293 1.548004 -2.535448
v -0.262691 1.561221 -2.536105
v -0.188908 1.324022 -2.646946
v -0.161376 1.337195 -2.647605
v -0.261603 1.510014 -2.131847
v -0.233999 1.523233 -2.132587
# 12 vertices

vt 0.891760 0.512190
vt 0.891710 0.508880
vt 0.891920 0.508900
vt 0.891760 0.512190
vt 0.891980 0.512210
vt 0.891760 0.512190
vt 0.891920 0.508900
vt 0.891980 0.512210
vt 0.891710 0.517030
vt 0.891760 0.512190
vt 0.891980 0.512210
vt 0.891710 0.517030
vt 0.891930 0.517050
vt 0.891710 0.517030
vt 0.891980 0.512210
vt 0.891930 0.517050
vt 0.891560 0.521210
vt 0.891710 0.517030
vt 0.891930 0.517050
vt 0.891560 0.521210
vt 0.891770 0.521220
vt 0.891560 0.521210
vt 0.891930 0.517050
vt 0.891770 0.521220
vt 0.899220 0.551930
vt 0.899050 0.555870
vt 0.898830 0.555830
vt 0.899220 0.551930
vt 0.899010 0.551880
vt 0.899220 0.551930
vt 0.898830 0.555830
vt 0.899010 0.551880
vt 0.899960 0.517840
vt 0.898540 0.520700
vt 0.897620 0.518100
vt 0.899960 0.517840
vt 0.898540 0.520700
vt 0.896470 0.521300
vt 0.897620 0.518100
vt 0.898540 0.520700
vt 0.896470 0.521300
vt 0.894680 0.518820
vt 0.897620 0.518100
vt 0.896470 0.521300
vt 0.894680 0.518820
vt 0.893880 0.514870
vt 0.897620 0.518100
vt 0.894680 0.518820
vt 0.896730 0.549580
vt 0.896510 0.549600
vt 0.896440 0.544140
vt 0.896730 0.549580
vt 0.896650 0.544120
vt 0.896730 0.549580
vt 0.896440 0.544140
vt 0.896650 0.544120
vt 0.896650 0.544120
vt 0.896440 0.544140
vt 0.896190 0.535410
vt 0.896650 0.544120
vt 0.896400 0.535400
vt 0.896650 0.544120
vt 0.896190 0.535410
vt 0.896400 0.535400
vt 0.516890 0.855130
vt 0.527800 0.849850
vt 0.546050 0.873640
vt 0.516890 0.855130
vt 0.527460 0.871120
vt 0.516890 0.855130
vt 0.546050 0.873640
vt 0.527460 0.871120
vt 0.516890 0.855130
vt 0.518780 0.842850
vt 0.530400 0.831020
vt 0.516890 0.855130
vt 0.527800 0.849850
vt 0.516890 0.855130
vt 0.530400 0.831020
vt 0.527800 0.849850
# 80 texture vertices

vn -0.355944 0.777064 0.519109
vn -0.299863 0.669842 0.679260
vn -0.300663 0.669385 0.679357
vn -0.355944 0.777064 0.519109
vn -0.398673 0.855776 0.329709
vn -0.355944 0.777064 0.519109
vn -0.300663 0.669385 0.679357
vn -0.398673 0.855776 0.329709
vn -0.429149 0.898598 -0.091391
vn -0.355944 0.777064 0.519109
vn -0.398673 0.855776 0.329709
vn -0.429149 0.898598 -0.091391
vn -0.413091 0.850890 -0.324565
vn -0.429149 0.898598 -0.091391
vn -0.398673 0.855776 0.329709
vn -0.413091 0.850890 -0.324565
vn -0.328355 0.653799 -0.681711
vn -0.429149 0.898598 -0.091391
vn -0.413091 0.850890 -0.324565
vn -0.328355 0.653799 -0.681711
vn -0.266521 0.516142 -0.813980
vn -0.328355 0.653799 -0.681711
vn -0.413091 0.850890 -0.324565
vn -0.266521 0.516142 -0.813980
vn -0.196146 0.364389 -0.910356
vn -0.328355 0.653799 -0.681711
vn -0.266521 0.516142 -0.813980
vn -0.196146 0.364389 -0.910356
vn -0.196136 0.364392 -0.910357
vn -0.196146 0.364389 -0.910356
vn -0.266521 0.516142 -0.813980
vn -0.196136 0.364392 -0.910357
vn -0.906217 -0.422089 0.024747
vn -0.906229 -0.422065 0.024714
vn -0.906194 -0.422141 0.024693
vn -0.906217 -0.422089 0.024747
vn -0.906229 -0.422065 0.024714
vn -0.906243 -0.422036 0.024688
vn -0.906194 -0.422141 0.024693
vn -0.906229 -0.422065 0.024714
vn -0.906243 -0.422036 0.024688
vn -0.906159 -0.422217 0.024672
vn -0.906194 -0.422141 0.024693
vn -0.906243 -0.422036 0.024688
vn -0.906159 -0.422217 0.024672
vn -0.906073 -0.422403 0.024649
vn -0.906194 -0.422141 0.024693
vn -0.906159 -0.422217 0.024672
vn 0.428605 -0.901846 -0.054511
vn 0.427138 -0.902553 -0.054317
vn 0.431192 -0.898202 0.085478
vn 0.428605 -0.901846 -0.054511
vn 0.425231 -0.876275 0.226542
vn 0.428605 -0.901846 -0.054511
vn 0.431192 -0.898202 0.085478
vn 0.425231 -0.876275 0.226542
vn 0.425231 -0.876275 0.226542
vn 0.431192 -0.898202 0.085478
vn 0.410160 -0.837772 0.360425
vn 0.425231 -0.876275 0.226542
vn 0.409589 -0.838030 0.360475
vn 0.425231 -0.876275 0.226542
vn 0.410160 -0.837772 0.360425
vn 0.409589 -0.838030 0.360475
vn 0.906160 0.422221 -0.024579
vn 0.906223 0.422085 -0.024584
vn 0.906210 0.422104 -0.024749
vn 0.906160 0.422221 -0.024579
vn 0.906173 0.422176 -0.024839
vn 0.906160 0.422221 -0.024579
vn 0.906210 0.422104 -0.024749
vn 0.906173 0.422176 -0.024839
vn 0.906160 0.422221 -0.024579
vn 0.906019 0.422539 -0.024309
vn 0.906109 0.422339 -0.024409
vn 0.906160 0.422221 -0.024579
vn 0.906223 0.422085 -0.024584
vn 0.906160 0.422221 -0.024579
vn 0.906109 0.422339 -0.024409
vn 0.906223 0.422085 -0.024584
# 80 vertex normals

g mat1
f 3/1/1 2/2/2 1/3/3
f 4/5/5 3/6/6 1/7/7
f 5/9/9 3/10/10 4/11/11
f 6/13/13 5/14/14 4/15/15
f 7/17/17 5/18/18 6/19/19
f 8/21/21 7/22/22 6/23/23
f 9/25/25 7/26/26 8/27/27
f 10/29/29 9/30/30 8/31/31
f 2/33/33 3/34/34 11/35/35
f 3/37/37 5/38/38 11/39/39
f 5/41/41 7/42/42 11/43/43
f 7/45/45 9/46/46 11/47/47
f 1/49/49 2/50/50 11/51/51
f 12/53/53 1/54/54 11/55/55
f 12/57/57 11/58/58 9/59/59
f 10/61/61 12/62/62 9/63/63
f 6/65/65 12/66/66 10/67/67
f 8/69/69 6/70/70 10/71/71
f 6/73/73 4/74/74 1/75/75
f 12/77/77 6/78/78 1/79/79
# 20 elements

