# Created by Metasequoia

v -0.165569 0.483493 0.278551
v -0.165569 -0.342641 0.278551
v -0.065569 0.483493 0.278551
v -0.065569 -0.342641 0.278551
v -0.065569 0.483493 0.178550
v -0.065569 -0.342641 0.178550
v -0.165569 0.483493 0.178550
v -0.165569 -0.342641 0.178550
v 0.164049 0.483493 0.278551
v 0.164049 -0.342641 0.278551
v 0.064049 0.483493 0.278551
v 0.064049 -0.342641 0.278551
v 0.064049 0.483493 0.178550
v 0.064049 -0.342641 0.178550
v 0.164049 0.483493 0.178550
v 0.164049 -0.342641 0.178550
# 16 vertices

vt 0.08057 0.84014
vt 0.08057 0.58332
vt 0.03290 0.58332
vt 0.03290 0.84014
vt 0.08042 0.84014
vt 0.08042 0.58332
vt 0.03274 0.58332
vt 0.03274 0.84014
vt 0.08026 0.84014
vt 0.08026 0.58332
vt 0.03259 0.58332
vt 0.03259 0.84014
vt 0.08060 0.84014
vt 0.08060 0.58332
vt 0.03293 0.58332
vt 0.03293 0.84014
vt 0.21652 0.62289
vt 0.21652 0.56404
vt 0.15765 0.56404
vt 0.15765 0.62289
vt 0.08386 0.58358
vt 0.03576 0.58358
vt 0.03576 0.84131
vt 0.08386 0.84131
vt 0.08421 0.58358
vt 0.03612 0.58358
vt 0.03612 0.84131
vt 0.08421 0.84131
vt 0.08406 0.58358
vt 0.03595 0.58358
vt 0.03595 0.84131
vt 0.08406 0.84131
vt 0.08440 0.58358
vt 0.03631 0.58358
vt 0.03631 0.84131
vt 0.08440 0.84131
vt 0.21652 0.56362
vt 0.15765 0.56362
vt 0.15765 0.62247
vt 0.21652 0.62247
# 40 texture vertices

vn 0.00000 0.00000 1.00000
vn 0.00000 0.00000 1.00000
vn 1.00000 0.00000 0.00000
vn 0.00000 0.00000 -1.00000
vn 0.00000 0.00000 -1.00000
vn -1.00000 0.00000 0.00000
vn 0.00000 -1.00000 0.00000
# 7 normal vertices

f 2/3/2 4/2/1 3/1/2
f 1/4/1 2/3/2 3/1/2
f 4/7/3 6/6/3 5/5/3
f 3/8/3 4/7/3 5/5/3
f 6/11/4 8/10/5 7/9/4
f 5/12/5 6/11/4 7/9/4
f 8/15/6 2/14/6 1/13/6
f 7/16/6 8/15/6 1/13/6
f 8/19/7 6/18/7 4/17/7
f 2/20/7 8/19/7 4/17/7
f 11/23/2 12/22/1 10/21/2
f 9/24/1 11/23/2 10/21/2
f 13/27/6 14/26/6 12/25/6
f 11/28/6 13/27/6 12/25/6
f 15/31/4 16/30/5 14/29/4
f 13/32/5 15/31/4 14/29/4
f 9/35/3 10/34/3 16/33/3
f 15/36/3 9/35/3 16/33/3
f 12/39/7 14/38/7 16/37/7
f 10/40/7 12/39/7 16/37/7
# 20 elements

