# Created by 3DAce v2.72


g
v -0.213800 1.110194 1.009229
v -0.223714 1.164768 1.214942
v -0.261600 1.159650 1.626898
v -0.199653 0.995482 1.749346
v -0.191443 1.122719 1.011074
v -0.225840 1.161804 1.216788
v -0.263218 1.161985 1.628745
v -0.179628 1.008729 1.746694
# 8 vertices

vt 0.900320 0.851570
vt 0.862620 0.892310
vt 0.865010 0.842920
vt 0.900320 0.851570
vt 0.900320 0.851570
vt 0.898070 0.879980
vt 0.862620 0.892310
vt 0.900320 0.851570
vt 0.900320 0.851570
vt 0.865010 0.842920
vt 0.864610 0.842800
vt 0.900320 0.851570
vt 0.899930 0.851440
vt 0.900320 0.851570
vt 0.864610 0.842800
vt 0.899930 0.851440
vt 0.898730 0.908810
vt 0.881230 0.922430
vt 0.881160 0.906130
vt 0.898730 0.908810
vt 0.898650 0.892510
vt 0.898730 0.908810
vt 0.881160 0.906130
vt 0.898650 0.892510
vt 0.609750 1.052660
vt 0.604850 1.056430
vt 0.604900 1.056470
vt 0.609750 1.052660
vt 0.609810 1.052700
vt 0.609750 1.052660
vt 0.604900 1.056470
vt 0.609810 1.052700
vt 0.865010 0.842920
vt 0.862620 0.892310
vt 0.862230 0.892180
vt 0.865010 0.842920
vt 0.864610 0.842800
vt 0.865010 0.842920
vt 0.862230 0.892180
vt 0.864610 0.842800
vt 0.584140 0.527320
vt 0.586170 0.549830
vt 0.593410 0.557580
vt 0.584140 0.527320
vt 0.592960 0.520120
vt 0.584140 0.527320
vt 0.593410 0.557580
vt 0.592960 0.520120
# 48 texture vertices

vn -0.940407 -0.331266 -0.076795
vn -0.990902 -0.116516 -0.067354
vn -0.924292 -0.379461 -0.041146
vn -0.940407 -0.331266 -0.076795
vn -0.940407 -0.331266 -0.076795
vn -0.976426 -0.195161 -0.092223
vn -0.955499 0.254639 -0.148932
vn -0.940407 -0.331266 -0.076795
vn -0.236724 0.521911 0.819494
vn -0.236724 0.521911 0.819494
vn -0.236724 0.521911 0.819494
vn -0.236724 0.521911 0.819494
vn -0.848477 -0.522787 -0.082347
vn -0.940407 -0.331266 -0.076795
vn -0.847867 -0.524119 -0.080129
vn -0.848477 -0.522787 -0.082347
vn -0.976426 -0.195161 -0.092223
vn -0.940407 -0.331266 -0.076795
vn -0.848477 -0.522787 -0.082347
vn -0.976426 -0.195161 -0.092223
vn 0.841423 -0.525754 0.124861
vn 0.841423 -0.525754 0.124861
vn 0.831995 -0.549591 0.075731
vn 0.841423 -0.525754 0.124861
vn 0.702334 -0.711661 0.016307
vn 0.841423 -0.525754 0.124861
vn 0.968569 -0.219855 0.116355
vn 0.702334 -0.711661 0.016307
vn -0.459441 0.855355 -0.239337
vn -0.805381 0.563813 -0.182963
vn -0.459441 0.855355 -0.239337
vn -0.459441 0.855355 -0.239337
vn 0.513338 -0.846656 -0.140208
vn 0.702334 -0.711661 0.016307
vn 0.513338 -0.846656 -0.140208
vn 0.513338 -0.846656 -0.140208
vn 0.533692 -0.834366 -0.137863
vn 0.513338 -0.846656 -0.140208
vn 0.513338 -0.846656 -0.140208
vn 0.533692 -0.834366 -0.137863
vn 0.865897 0.495626 0.067659
vn 0.849268 0.522342 0.076827
vn 0.865897 0.495626 0.067659
vn 0.865897 0.495626 0.067659
vn 0.881595 0.468378 0.058419
vn 0.975669 0.185522 0.116837
vn 0.865897 0.495626 0.067659
vn 0.881595 0.468378 0.058419
# 48 vertex normals

g mat1
f 3/1/1 1/2/2 4/3/3
f 3/5/5 2/6/6 1/7/7
f 3/9/9 4/10/10 8/11/11
f 7/13/13 3/14/14 8/15/15
f 2/17/17 3/18/18 7/19/19
f 6/21/21 2/22/22 7/23/23
f 1/25/25 2/26/26 6/27/27
f 5/29/29 1/30/30 6/31/31
f 4/33/33 1/34/34 5/35/35
f 8/37/37 4/38/38 5/39/39
f 6/41/41 7/42/42 8/43/43
f 5/45/45 6/46/46 8/47/47
# 12 elements

