# Created by 3DAce v2.72


g
v 0.000046 2.195452 3.023904
v 0.210141 2.102783 3.023904
v 0.297165 1.879060 3.023904
v 0.210141 1.655337 3.023904
v 0.000046 1.562666 3.023904
v -0.210047 1.655337 3.023904
v -0.297070 1.879060 3.023904
v -0.210047 2.102783 3.023904
v 0.000046 2.085297 3.524056
v 0.136995 2.024890 3.524056
v 0.193719 1.879060 3.524056
v 0.136995 1.733228 3.524056
v 0.000046 1.672825 3.524056
v -0.136902 1.733228 3.524056
v -0.193628 1.879060 3.524056
v -0.136902 2.024890 3.524056
v 0.000046 1.934702 3.696022
v 0.052299 1.879060 3.696022
v 0.000046 1.823416 3.696022
v -0.052207 1.879060 3.696022
v 0.628899 2.017332 3.477696
v 0.628894 1.853938 3.389954
v 0.288263 1.870722 3.426801
v 0.628868 1.724229 3.209917
v 0.288208 1.745931 3.343741
v 1.638723 1.986223 3.449185
v 1.638726 1.856879 3.381908
v 1.638755 1.755373 3.238432
v 1.808938 1.940497 3.407504
v 1.808964 1.862368 3.366845
v 1.808949 1.879163 3.320777
v 1.808981 1.801038 3.280110
v 1.852253 1.905121 3.375176
v 1.852275 1.836459 3.312442
v 0.058543 1.805459 3.403549
v 0.058453 1.802218 3.306734
v 0.058565 1.835425 3.246919
v 0.058478 1.939351 3.380881
v -0.614381 1.728425 3.477696
v -0.614376 1.891816 3.389954
v -0.273746 1.875034 3.426801
v -0.614349 2.021530 3.209917
v -0.273690 1.999825 3.343741
v -1.624204 1.759533 3.449185
v -1.624207 1.888876 3.381908
v -1.624236 1.990384 3.238432
v -1.794418 1.805261 3.407504
v -1.794445 1.883386 3.366845
v -1.794429 1.866591 3.320777
v -1.794461 1.944719 3.280110
v -1.837736 1.840634 3.375176
v -1.837758 1.909297 3.312442
v -0.044024 1.940298 3.403549
v -0.043935 1.943537 3.306734
v -0.044048 1.910332 3.246919
v -0.043960 1.806406 3.380881
# 56 vertices

vt 0.419490 0.666550
vt 0.424680 0.660740
vt 0.419490 0.654930
vt 0.419490 0.666550
vt 0.419490 0.654930
vt 0.414290 0.660740
vt 0.419490 0.666550
vt 0.419490 0.654930
vt 0.394160 0.661770
vt 0.401580 0.681810
vt 0.414290 0.660740
vt 0.394160 0.661770
vt 0.419490 0.654930
vt 0.419490 0.633440
vt 0.401580 0.641740
vt 0.419490 0.654930
vt 0.424680 0.660740
vt 0.444820 0.661770
vt 0.437400 0.641740
vt 0.424680 0.660740
vt 0.419490 0.666550
vt 0.419490 0.690110
vt 0.437400 0.681810
vt 0.419490 0.666550
vt 0.449040 0.664060
vt 0.444820 0.661770
vt 0.437400 0.681810
vt 0.449040 0.664060
vt 0.437400 0.681810
vt 0.440380 0.687430
vt 0.449040 0.664060
vt 0.437400 0.681810
vt 0.419490 0.690110
vt 0.419500 0.697100
vt 0.440380 0.687430
vt 0.419490 0.690110
vt 0.419490 0.690110
vt 0.440380 0.687430
vt 0.437400 0.681810
vt 0.419490 0.690110
vt 0.419490 0.690110
vt 0.401580 0.681810
vt 0.398610 0.687430
vt 0.419490 0.690110
vt 0.398610 0.687430
vt 0.419500 0.697100
vt 0.419490 0.690110
vt 0.398610 0.687430
vt 0.394160 0.661770
vt 0.389960 0.664060
vt 0.398610 0.687430
vt 0.394160 0.661770
vt 0.398610 0.687430
vt 0.401580 0.681810
vt 0.394160 0.661770
vt 0.398610 0.687430
vt 0.398610 0.640700
vt 0.389960 0.664060
vt 0.394160 0.661770
vt 0.398610 0.640700
vt 0.394160 0.661770
vt 0.401580 0.641740
vt 0.398610 0.640700
vt 0.394160 0.661770
vt 0.419490 0.633440
vt 0.419500 0.631020
vt 0.401580 0.641740
vt 0.419490 0.633440
vt 0.419500 0.631020
vt 0.398610 0.640700
vt 0.401580 0.641740
vt 0.419500 0.631020
vt 0.419500 0.631020
vt 0.437400 0.641740
vt 0.440380 0.640700
vt 0.419500 0.631020
vt 0.437400 0.641740
vt 0.419500 0.631020
vt 0.419490 0.633440
vt 0.437400 0.641740
vt 0.449040 0.664060
vt 0.440380 0.640700
vt 0.437400 0.641740
vt 0.449040 0.664060
vt 0.444820 0.661770
vt 0.449040 0.664060
vt 0.437400 0.641740
vt 0.444820 0.661770
vt 0.389960 0.664060
vt 0.398610 0.640700
vt 0.419500 0.697100
vt 0.389960 0.664060
vt 0.398610 0.687430
vt 0.389960 0.664060
vt 0.419500 0.697100
vt 0.398610 0.687430
vt 0.398610 0.640700
vt 0.440380 0.687430
vt 0.419500 0.697100
vt 0.398610 0.640700
vt 0.398610 0.640700
vt 0.419500 0.631020
vt 0.440380 0.687430
vt 0.398610 0.640700
vt 0.419500 0.631020
vt 0.449040 0.664060
vt 0.440380 0.687430
vt 0.419500 0.631020
vt 0.449040 0.664060
vt 0.419500 0.631020
vt 0.440380 0.640700
vt 0.449040 0.664060
vt 0.419490 0.666550
vt 0.414290 0.660740
vt 0.419490 0.690110
vt 0.419490 0.666550
vt 0.444820 0.661770
vt 0.424680 0.660740
vt 0.419490 0.666550
vt 0.444820 0.661770
vt 0.419490 0.633440
vt 0.419490 0.654930
vt 0.424680 0.660740
vt 0.419490 0.633440
vt 0.394160 0.661770
vt 0.414290 0.660740
vt 0.419490 0.654930
vt 0.394160 0.661770
vt 0.419490 0.654930
vt 0.401580 0.641740
vt 0.394160 0.661770
vt 0.419490 0.654930
vt 0.437400 0.641740
vt 0.419490 0.633440
vt 0.424680 0.660740
vt 0.437400 0.641740
vt 0.437400 0.681810
vt 0.444820 0.661770
vt 0.419490 0.666550
vt 0.437400 0.681810
vt 0.414290 0.660740
vt 0.401580 0.681810
vt 0.419490 0.690110
vt 0.414290 0.660740
vt 0.366280 0.702160
vt 0.360830 0.702390
vt 0.363580 0.688090
vt 0.366280 0.702160
vt 0.363580 0.688090
vt 0.368960 0.688130
vt 0.366280 0.702160
vt 0.363580 0.688090
vt 0.364430 0.642740
vt 0.368520 0.642710
vt 0.368960 0.688130
vt 0.364430 0.642740
vt 0.368960 0.688130
vt 0.363580 0.688090
vt 0.364430 0.642740
vt 0.368960 0.688130
vt 0.364430 0.642740
vt 0.366300 0.635040
vt 0.368780 0.635030
vt 0.364430 0.642740
vt 0.368520 0.642710
vt 0.364430 0.642740
vt 0.368780 0.635030
vt 0.368520 0.642710
vt 0.368520 0.642710
vt 0.373980 0.642560
vt 0.373580 0.688190
vt 0.368520 0.642710
vt 0.373580 0.688190
vt 0.368960 0.688130
vt 0.368520 0.642710
vt 0.373580 0.688190
vt 0.368960 0.688130
vt 0.373580 0.688190
vt 0.366280 0.702160
vt 0.368960 0.688130
vt 0.373980 0.642560
vt 0.368520 0.642710
vt 0.368780 0.635030
vt 0.373980 0.642560
vt 0.368780 0.635030
vt 0.372080 0.635090
vt 0.373980 0.642560
vt 0.368780 0.635030
vt 0.368500 0.713640
vt 0.363750 0.713040
vt 0.360830 0.702390
vt 0.368500 0.713640
vt 0.368500 0.713640
vt 0.360830 0.702390
vt 0.366280 0.702160
vt 0.368500 0.713640
vt 0.345660 0.687930
vt 0.347350 0.642360
vt 0.356920 0.642450
vt 0.345660 0.687930
vt 0.356920 0.642450
vt 0.357820 0.688030
vt 0.345660 0.687930
vt 0.356920 0.642450
vt 0.351860 0.634720
vt 0.355100 0.634750
vt 0.356920 0.642450
vt 0.351860 0.634720
vt 0.351860 0.634720
vt 0.356920 0.642450
vt 0.347350 0.642360
vt 0.351860 0.634720
vt 0.347350 0.642360
vt 0.349310 0.634700
vt 0.351860 0.634720
vt 0.347350 0.642360
vt 0.357820 0.688030
vt 0.352980 0.713730
vt 0.345660 0.687930
vt 0.357820 0.688030
vt 0.352980 0.713730
vt 0.348670 0.713700
vt 0.345660 0.687930
vt 0.352980 0.713730
vt 0.368500 0.713640
vt 0.366280 0.702160
vt 0.373580 0.688190
vt 0.368500 0.713640
vt 0.332890 0.695730
vt 0.327970 0.667680
vt 0.331530 0.648770
vt 0.332890 0.695730
vt 0.327970 0.667680
vt 0.329330 0.648760
vt 0.331530 0.648770
vt 0.327970 0.667680
vt 0.353640 0.632780
vt 0.355100 0.634750
vt 0.351860 0.634720
vt 0.353640 0.632780
vt 0.351860 0.634720
vt 0.350800 0.632750
vt 0.353640 0.632780
vt 0.351860 0.634720
vt 0.349310 0.634700
vt 0.350800 0.632750
vt 0.351860 0.634720
vt 0.349310 0.634700
vt 0.366300 0.635040
vt 0.367690 0.632970
vt 0.368780 0.635030
vt 0.366300 0.635040
vt 0.368780 0.635030
vt 0.370500 0.632960
vt 0.372080 0.635090
vt 0.368780 0.635030
vt 0.367690 0.632970
vt 0.370500 0.632960
vt 0.368780 0.635030
vt 0.367690 0.632970
vt 0.366280 0.702160
vt 0.360830 0.702390
vt 0.363580 0.688090
vt 0.366280 0.702160
vt 0.363580 0.688090
vt 0.368960 0.688130
vt 0.366280 0.702160
vt 0.363580 0.688090
vt 0.364430 0.642740
vt 0.368520 0.642710
vt 0.368960 0.688130
vt 0.364430 0.642740
vt 0.368960 0.688130
vt 0.363580 0.688090
vt 0.364430 0.642740
vt 0.368960 0.688130
vt 0.364430 0.642740
vt 0.366300 0.635040
vt 0.368780 0.635030
vt 0.364430 0.642740
vt 0.368520 0.642710
vt 0.364430 0.642740
vt 0.368780 0.635030
vt 0.368520 0.642710
vt 0.368520 0.642710
vt 0.373980 0.642560
vt 0.373580 0.688190
vt 0.368520 0.642710
vt 0.373580 0.688190
vt 0.368960 0.688130
vt 0.368520 0.642710
vt 0.373580 0.688190
vt 0.368960 0.688130
vt 0.373580 0.688190
vt 0.366280 0.702160
vt 0.368960 0.688130
vt 0.373980 0.642560
vt 0.368520 0.642710
vt 0.368780 0.635030
vt 0.373980 0.642560
vt 0.368780 0.635030
vt 0.372080 0.635090
vt 0.373980 0.642560
vt 0.368780 0.635030
vt 0.368500 0.713640
vt 0.363750 0.713040
vt 0.360830 0.702390
vt 0.368500 0.713640
vt 0.368500 0.713640
vt 0.360830 0.702390
vt 0.366280 0.702160
vt 0.368500 0.713640
vt 0.345660 0.687930
vt 0.347350 0.642360
vt 0.356920 0.642450
vt 0.345660 0.687930
vt 0.356920 0.642450
vt 0.357820 0.688030
vt 0.345660 0.687930
vt 0.356920 0.642450
vt 0.351860 0.634720
vt 0.355100 0.634750
vt 0.356920 0.642450
vt 0.351860 0.634720
vt 0.351860 0.634720
vt 0.356920 0.642450
vt 0.347350 0.642360
vt 0.351860 0.634720
vt 0.347350 0.642360
vt 0.349310 0.634700
vt 0.351860 0.634720
vt 0.347350 0.642360
vt 0.357820 0.688030
vt 0.352980 0.713730
vt 0.345660 0.687930
vt 0.357820 0.688030
vt 0.352980 0.713730
vt 0.348670 0.713700
vt 0.345660 0.687930
vt 0.352980 0.713730
vt 0.368500 0.713640
vt 0.366280 0.702160
vt 0.373580 0.688190
vt 0.368500 0.713640
vt 0.332890 0.695730
vt 0.327970 0.667680
vt 0.331530 0.648770
vt 0.332890 0.695730
vt 0.327970 0.667680
vt 0.329330 0.648760
vt 0.331530 0.648770
vt 0.327970 0.667680
vt 0.353640 0.632780
vt 0.355100 0.634750
vt 0.351860 0.634720
vt 0.353640 0.632780
vt 0.351860 0.634720
vt 0.350800 0.632750
vt 0.353640 0.632780
vt 0.351860 0.634720
vt 0.349310 0.634700
vt 0.350800 0.632750
vt 0.351860 0.634720
vt 0.349310 0.634700
vt 0.366300 0.635040
vt 0.367690 0.632970
vt 0.368780 0.635030
vt 0.366300 0.635040
vt 0.368780 0.635030
vt 0.370500 0.632960
vt 0.372080 0.635090
vt 0.368780 0.635030
vt 0.367690 0.632970
vt 0.370500 0.632960
vt 0.368780 0.635030
vt 0.367690 0.632970
# 376 texture vertices

vn 0.201643 -0.435708 0.877211
vn 0.549499 0.227343 0.803969
vn -0.201646 0.435709 0.877210
vn 0.201643 -0.435708 0.877211
vn -0.201646 0.435709 0.877210
vn -0.549500 -0.227342 0.803969
vn 0.201643 -0.435708 0.877211
vn -0.201646 0.435709 0.877210
vn -0.908630 0.089886 0.407814
vn -0.644854 -0.605275 0.466696
vn -0.549500 -0.227342 0.803969
vn -0.908630 0.089886 0.407814
vn -0.201646 0.435709 0.877210
vn 0.136033 0.851281 0.506770
vn -0.594462 0.688152 0.416007
vn -0.201646 0.435709 0.877210
vn 0.549499 0.227343 0.803969
vn 0.864432 -0.125877 0.486737
vn 0.671561 0.634489 0.382661
vn 0.549499 0.227343 0.803969
vn 0.201643 -0.435708 0.877211
vn -0.097220 -0.899366 0.426249
vn 0.709495 -0.569811 0.414646
vn 0.201643 -0.435708 0.877211
vn 0.979274 0.000001 0.202541
vn 0.864432 -0.125877 0.486737
vn 0.709495 -0.569811 0.414646
vn 0.979274 0.000001 0.202541
vn 0.709495 -0.569811 0.414646
vn 0.608063 -0.766091 0.208237
vn 0.979274 0.000001 0.202541
vn 0.709495 -0.569811 0.414646
vn 0.004812 -0.919870 0.392193
vn -0.000002 -0.976593 0.215096
vn 0.608063 -0.766091 0.208237
vn 0.004812 -0.919870 0.392193
vn 0.004812 -0.919870 0.392193
vn 0.608063 -0.766091 0.208237
vn 0.709495 -0.569811 0.414646
vn 0.004812 -0.919870 0.392193
vn -0.097220 -0.899366 0.426249
vn -0.644854 -0.605275 0.466696
vn -0.706973 -0.675767 0.208634
vn -0.097220 -0.899366 0.426249
vn -0.706973 -0.675767 0.208634
vn -0.000002 -0.976593 0.215096
vn -0.097220 -0.899366 0.426249
vn -0.706973 -0.675767 0.208634
vn -0.927550 -0.004119 0.373677
vn -0.979275 0.000000 0.202535
vn -0.706973 -0.675767 0.208634
vn -0.927550 -0.004119 0.373677
vn -0.706973 -0.675767 0.208634
vn -0.644854 -0.605275 0.466696
vn -0.927550 -0.004119 0.373677
vn -0.706973 -0.675767 0.208634
vn -0.793197 0.573320 0.205289
vn -0.979275 0.000000 0.202535
vn -0.908630 0.089886 0.407814
vn -0.793197 0.573320 0.205289
vn -0.908630 0.089886 0.407814
vn -0.594462 0.688152 0.416007
vn -0.793197 0.573320 0.205289
vn -0.908630 0.089886 0.407814
vn -0.007207 0.878686 0.477346
vn -0.000002 0.976594 0.215090
vn -0.594462 0.688152 0.416007
vn -0.007207 0.878686 0.477346
vn -0.000002 0.976594 0.215090
vn -0.793197 0.573320 0.205289
vn -0.594462 0.688152 0.416007
vn -0.000002 0.976594 0.215090
vn -0.000002 0.976594 0.215090
vn 0.671561 0.634489 0.382661
vn 0.706973 0.675767 0.208636
vn -0.000002 0.976594 0.215090
vn 0.671561 0.634489 0.382661
vn -0.000002 0.976594 0.215090
vn 0.136033 0.851281 0.506770
vn 0.671561 0.634489 0.382661
vn 0.979274 0.000001 0.202541
vn 0.706973 0.675767 0.208636
vn 0.671561 0.634489 0.382661
vn 0.979274 0.000001 0.202541
vn 0.889658 0.006179 0.456585
vn 0.979274 0.000001 0.202541
vn 0.671561 0.634489 0.382661
vn 0.889658 0.006179 0.456585
vn -0.000000 0.000000 -1.000000
vn 0.000000 0.000000 -1.000000
vn 0.000000 0.000000 -1.000000
vn -0.000000 0.000000 -1.000000
vn -0.000000 -0.000000 -1.000000
vn -0.000000 0.000000 -1.000000
vn 0.000000 0.000000 -1.000000
vn -0.000000 -0.000000 -1.000000
vn 0.000000 0.000000 -1.000000
vn 0.000000 0.000000 -1.000000
vn 0.000000 0.000000 -1.000000
vn 0.000000 0.000000 -1.000000
vn 0.000000 0.000000 -1.000000
vn 0.000000 0.000000 -1.000000
vn 0.000000 0.000000 -1.000000
vn 0.000000 0.000000 -1.000000
vn 0.000000 0.000000 -1.000000
vn 0.000000 0.000000 -1.000000
vn 0.000000 0.000000 -1.000000
vn 0.000000 0.000000 -1.000000
vn 0.000000 0.000000 -1.000000
vn 0.000000 0.000000 -1.000000
vn -0.000000 -0.000000 -1.000000
vn 0.000000 0.000000 -1.000000
vn -0.090931 -0.381291 0.919972
vn -0.458163 -0.423854 0.781303
vn -0.303569 -0.818721 0.487382
vn -0.090931 -0.381291 0.919972
vn 0.803292 -0.249662 0.540732
vn 0.537125 -0.117819 0.835233
vn 0.365529 -0.353014 0.861261
vn 0.803292 -0.249662 0.540732
vn 0.273091 0.783204 0.558582
vn 0.090920 0.381287 0.919975
vn 0.458162 0.423852 0.781305
vn 0.273091 0.783204 0.558582
vn -0.837571 0.275782 0.471613
vn -0.537122 0.117823 0.835235
vn -0.365529 0.353017 0.861259
vn -0.837571 0.275782 0.471613
vn -0.365529 0.353017 0.861259
vn -0.594462 0.688152 0.416007
vn -0.908630 0.089886 0.407814
vn -0.365529 0.353017 0.861259
vn 0.671561 0.634489 0.382661
vn 0.136033 0.851281 0.506770
vn 0.458162 0.423852 0.781305
vn 0.671561 0.634489 0.382661
vn 0.709495 -0.569811 0.414646
vn 0.864432 -0.125877 0.486737
vn 0.365529 -0.353014 0.861260
vn 0.709495 -0.569811 0.414646
vn -0.458163 -0.423854 0.781303
vn -0.644854 -0.605275 0.466696
vn -0.097220 -0.899366 0.426249
vn -0.458163 -0.423854 0.781303
vn -0.025005 -0.490683 0.870979
vn 0.093519 -0.332531 0.938444
vn 0.106245 -0.734154 0.670619
vn -0.025005 -0.490683 0.870979
vn 0.032036 -0.885486 0.463560
vn 0.024403 -0.694229 0.719341
vn -0.025005 -0.490683 0.870979
vn 0.032036 -0.885486 0.463560
vn 0.042559 -0.814404 0.578736
vn 0.040371 -0.621721 0.782198
vn 0.024403 -0.694229 0.719341
vn 0.042559 -0.814404 0.578736
vn 0.024403 -0.694229 0.719341
vn 0.032036 -0.885486 0.463560
vn 0.042559 -0.814404 0.578736
vn 0.024403 -0.694229 0.719341
vn 0.042559 -0.814404 0.578736
vn 0.154408 -0.806695 0.570440
vn 0.193467 -0.647667 0.736952
vn 0.042559 -0.814404 0.578736
vn 0.040371 -0.621721 0.782198
vn 0.042559 -0.814404 0.578736
vn 0.193467 -0.647667 0.736952
vn 0.040371 -0.621721 0.782198
vn 0.040371 -0.621721 0.782198
vn 0.065588 -0.460509 0.885228
vn -0.021953 -0.345965 0.937991
vn 0.040371 -0.621721 0.782198
vn -0.021953 -0.345965 0.937991
vn 0.024403 -0.694229 0.719341
vn 0.040371 -0.621721 0.782198
vn -0.021953 -0.345965 0.937991
vn 0.024403 -0.694229 0.719341
vn -0.021953 -0.345965 0.937991
vn -0.025005 -0.490683 0.870979
vn 0.024403 -0.694229 0.719341
vn 0.065588 -0.460509 0.885228
vn 0.040371 -0.621721 0.782197
vn 0.193467 -0.647667 0.736952
vn 0.065588 -0.460509 0.885228
vn 0.193467 -0.647667 0.736952
vn 0.184292 -0.453680 0.871901
vn 0.065588 -0.460509 0.885228
vn 0.193467 -0.647667 0.736952
vn -0.074262 -0.108687 0.991298
vn 0.287396 0.160016 0.944351
vn 0.093519 -0.332531 0.938444
vn -0.074262 -0.108687 0.991298
vn -0.074262 -0.108687 0.991298
vn 0.093519 -0.332531 0.938444
vn -0.025005 -0.490683 0.870979
vn -0.074262 -0.108687 0.991298
vn 0.019894 0.705145 -0.708784
vn -0.018255 0.725293 -0.688198
vn -0.009854 0.625153 -0.780440
vn 0.019894 0.705145 -0.708784
vn -0.009854 0.625153 -0.780440
vn 0.041718 0.673904 -0.737640
vn 0.019894 0.705145 -0.708784
vn -0.009854 0.625153 -0.780440
vn 0.173862 0.653471 -0.736714
vn 0.184073 0.453898 -0.871834
vn -0.009854 0.625153 -0.780440
vn 0.173862 0.653471 -0.736714
vn 0.173862 0.653471 -0.736714
vn -0.009854 0.625153 -0.780440
vn -0.018255 0.725293 -0.688198
vn 0.173862 0.653471 -0.736714
vn -0.018255 0.725293 -0.688198
vn 0.154107 0.806714 -0.570494
vn 0.173862 0.653471 -0.736714
vn -0.018255 0.725293 -0.688198
vn 0.041718 0.673904 -0.737640
vn 0.039852 0.734494 -0.677444
vn 0.019894 0.705145 -0.708784
vn 0.041718 0.673904 -0.737640
vn 0.039852 0.734494 -0.677444
vn -0.003979 0.790107 -0.612957
vn 0.019894 0.705145 -0.708784
vn 0.039852 0.734494 -0.677444
vn -0.074262 -0.108687 0.991298
vn -0.025005 -0.490683 0.870979
vn -0.021953 -0.345965 0.937991
vn -0.074262 -0.108687 0.991298
vn -0.063549 -0.951078 0.302344
vn -0.168248 -0.890065 -0.423647
vn -0.168248 -0.890065 -0.423647
vn -0.063549 -0.951078 0.302344
vn -0.168248 -0.890065 -0.423647
vn -0.134715 -0.866227 -0.481148
vn -0.168248 -0.890065 -0.423647
vn -0.168248 -0.890065 -0.423647
vn 0.373193 0.527580 -0.763142
vn 0.184073 0.453898 -0.871834
vn 0.173862 0.653471 -0.736714
vn 0.373193 0.527580 -0.763142
vn 0.173862 0.653471 -0.736714
vn 0.350990 0.705278 -0.615945
vn 0.373193 0.527580 -0.763142
vn 0.173862 0.653471 -0.736714
vn 0.154107 0.806714 -0.570494
vn 0.350990 0.705278 -0.615945
vn 0.173862 0.653471 -0.736714
vn 0.154107 0.806714 -0.570494
vn 0.154408 -0.806695 0.570440
vn 0.351801 -0.704988 0.615815
vn 0.193467 -0.647667 0.736952
vn 0.154408 -0.806695 0.570440
vn 0.193467 -0.647667 0.736952
vn 0.373832 -0.527213 0.763083
vn 0.184292 -0.453680 0.871901
vn 0.193467 -0.647667 0.736952
vn 0.351801 -0.704988 0.615815
vn 0.373832 -0.527213 0.763083
vn 0.193467 -0.647667 0.736952
vn 0.351801 -0.704988 0.615815
vn 0.025003 0.490682 0.870980
vn -0.093517 0.332532 0.938444
vn -0.106246 0.734146 0.670628
vn 0.025003 0.490682 0.870980
vn -0.032036 0.885480 0.463571
vn -0.024405 0.694224 0.719345
vn 0.025003 0.490682 0.870980
vn -0.032036 0.885480 0.463571
vn -0.042558 0.814395 0.578748
vn -0.040372 0.621721 0.782198
vn -0.024405 0.694224 0.719345
vn -0.042558 0.814395 0.578748
vn -0.024405 0.694224 0.719345
vn -0.032036 0.885480 0.463571
vn -0.042558 0.814395 0.578748
vn -0.024405 0.694224 0.719345
vn -0.042558 0.814395 0.578748
vn -0.154394 0.806685 0.570458
vn -0.193455 0.647667 0.736955
vn -0.042558 0.814395 0.578748
vn -0.040372 0.621721 0.782198
vn -0.042558 0.814395 0.578748
vn -0.193455 0.647667 0.736955
vn -0.040372 0.621721 0.782198
vn -0.040372 0.621721 0.782198
vn -0.065586 0.460517 0.885225
vn 0.021952 0.345969 0.937989
vn -0.040372 0.621721 0.782198
vn 0.021952 0.345969 0.937989
vn -0.024405 0.694224 0.719345
vn -0.040372 0.621721 0.782198
vn 0.021952 0.345969 0.937989
vn -0.024405 0.694224 0.719345
vn 0.021952 0.345969 0.937989
vn 0.025003 0.490682 0.870980
vn -0.024405 0.694224 0.719345
vn -0.065586 0.460517 0.885225
vn -0.040372 0.621721 0.782198
vn -0.193455 0.647667 0.736955
vn -0.065586 0.460517 0.885225
vn -0.193455 0.647667 0.736955
vn -0.184283 0.453697 0.871894
vn -0.065586 0.460517 0.885225
vn -0.193455 0.647667 0.736955
vn 0.074262 0.108688 0.991298
vn -0.287394 -0.160014 0.944352
vn -0.093517 0.332532 0.938444
vn 0.074262 0.108688 0.991298
vn 0.074262 0.108688 0.991298
vn -0.093517 0.332532 0.938444
vn 0.025003 0.490682 0.870980
vn 0.074262 0.108688 0.991298
vn -0.019894 -0.705144 -0.708785
vn 0.018252 -0.725299 -0.688192
vn 0.009856 -0.625148 -0.780444
vn -0.019894 -0.705144 -0.708785
vn 0.009856 -0.625148 -0.780444
vn -0.041718 -0.673901 -0.737642
vn -0.019894 -0.705144 -0.708785
vn 0.009856 -0.625148 -0.780444
vn -0.173855 -0.653474 -0.736713
vn -0.184070 -0.453885 -0.871841
vn 0.009856 -0.625148 -0.780444
vn -0.173855 -0.653474 -0.736713
vn -0.173855 -0.653474 -0.736713
vn 0.009856 -0.625148 -0.780444
vn 0.018252 -0.725299 -0.688192
vn -0.173855 -0.653474 -0.736713
vn 0.018252 -0.725299 -0.688192
vn -0.154098 -0.806732 -0.570472
vn -0.173855 -0.653474 -0.736713
vn 0.018252 -0.725299 -0.688192
vn -0.041718 -0.673901 -0.737642
vn -0.039853 -0.734492 -0.677446
vn -0.019894 -0.705144 -0.708785
vn -0.041718 -0.673901 -0.737642
vn -0.039853 -0.734492 -0.677446
vn 0.003979 -0.790106 -0.612957
vn -0.019894 -0.705144 -0.708785
vn -0.039853 -0.734492 -0.677446
vn 0.074262 0.108688 0.991298
vn 0.025003 0.490682 0.870980
vn 0.021952 0.345969 0.937989
vn 0.074262 0.108688 0.991298
vn 0.063548 0.951073 0.302360
vn 0.168255 0.890072 -0.423630
vn 0.168255 0.890072 -0.423630
vn 0.063548 0.951073 0.302360
vn 0.168255 0.890072 -0.423630
vn 0.134723 0.866237 -0.481128
vn 0.168255 0.890072 -0.423630
vn 0.168255 0.890072 -0.423630
vn -0.373183 -0.527574 -0.763151
vn -0.184070 -0.453885 -0.871841
vn -0.173855 -0.653474 -0.736713
vn -0.373183 -0.527574 -0.763151
vn -0.173855 -0.653474 -0.736713
vn -0.350969 -0.705291 -0.615942
vn -0.373183 -0.527574 -0.763151
vn -0.173855 -0.653474 -0.736713
vn -0.154098 -0.806732 -0.570472
vn -0.350969 -0.705291 -0.615942
vn -0.173855 -0.653474 -0.736713
vn -0.154098 -0.806732 -0.570472
vn -0.154394 0.806685 0.570458
vn -0.351773 0.704987 0.615832
vn -0.193455 0.647667 0.736955
vn -0.154394 0.806685 0.570458
vn -0.193455 0.647667 0.736955
vn -0.373811 0.527223 0.763086
vn -0.184283 0.453697 0.871894
vn -0.193455 0.647667 0.736955
vn -0.351773 0.704987 0.615832
vn -0.373811 0.527223 0.763086
vn -0.193455 0.647667 0.736955
vn -0.351773 0.704987 0.615832
# 376 vertex normals

g mat1
f 19/1/1 18/2/2 17/3/3
f 17/5/5 20/6/6 19/7/7
f 15/9/9 14/10/10 20/11/11
f 17/13/13 9/14/14 16/15/15
f 18/17/17 11/18/18 10/19/19
f 19/21/21 13/22/22 12/23/23
f 3/25/25 11/26/26 12/27/27
f 12/29/29 4/30/30 3/31/31
f 13/33/33 5/34/34 4/35/35
f 13/37/37 4/38/38 12/39/39
f 13/41/41 14/42/42 6/43/43
f 6/45/45 5/46/46 13/47/47
f 15/49/49 7/50/50 6/51/51
f 6/53/53 14/54/54 15/55/55
f 8/57/57 7/58/58 15/59/59
f 15/61/61 16/62/62 8/63/63
f 9/65/65 1/66/66 16/67/67
f 1/69/69 8/70/70 16/71/71
f 1/73/73 10/74/74 2/75/75
f 10/77/77 1/78/78 9/79/79
f 3/81/81 2/82/82 10/83/83
f 11/85/85 3/86/86 10/87/87
f 7/89/89 8/90/90 5/91/91
f 6/93/93 7/94/94 5/95/95
f 8/97/97 4/98/98 5/99/99
f 8/101/101 1/102/102 4/103/103
f 1/105/105 3/106/106 4/107/107
f 3/109/109 1/110/110 2/111/111
f 19/113/113 20/114/114 13/115/115
f 11/117/117 18/118/118 19/119/119
f 9/121/121 17/122/122 18/123/123
f 15/125/125 20/126/126 17/127/127
f 17/129/129 16/130/130 15/131/131
f 10/133/133 9/134/134 18/135/135
f 12/137/137 11/138/138 19/139/139
f 20/141/141 14/142/142 13/143/143
f 23/145/145 25/146/146 24/147/147
f 24/149/149 22/150/150 23/151/151
f 28/153/153 27/154/154 22/155/155
f 22/157/157 24/158/158 28/159/159
f 28/161/161 32/162/162 30/163/163
f 27/165/165 28/166/166 30/167/167
f 27/169/169 26/170/170 21/171/171
f 21/173/173 22/174/174 27/175/175
f 22/177/177 21/178/178 23/179/179
f 26/181/181 27/182/182 30/183/183
f 30/185/185 29/186/186 26/187/187
f 38/189/189 35/190/190 25/191/191
f 38/193/193 25/194/194 23/195/195
f 21/197/197 26/198/198 28/199/199
f 28/201/201 24/202/202 21/203/203
f 31/205/205 32/206/206 28/207/207
f 31/209/209 28/210/210 26/211/211
f 26/213/213 29/214/214 31/215/215
f 24/217/217 37/218/218 21/219/219
f 37/221/221 38/222/222 21/223/223
f 38/225/225 23/226/226 21/227/227
f 24/229/229 25/230/230 37/231/231
f 25/233/233 36/234/234 37/235/235
f 34/237/237 32/238/238 31/239/239
f 31/241/241 33/242/242 34/243/243
f 29/245/245 33/246/246 31/247/247
f 32/249/249 34/250/250 30/251/251
f 30/253/253 33/254/254 29/255/255
f 34/257/257 33/258/258 30/259/259
f 41/261/261 43/262/262 42/263/263
f 42/265/265 40/266/266 41/267/267
f 46/269/269 45/270/270 40/271/271
f 40/273/273 42/274/274 46/275/275
f 46/277/277 50/278/278 48/279/279
f 45/281/281 46/282/282 48/283/283
f 45/285/285 44/286/286 39/287/287
f 39/289/289 40/290/290 45/291/291
f 40/293/293 39/294/294 41/295/295
f 44/297/297 45/298/298 48/299/299
f 48/301/301 47/302/302 44/303/303
f 56/305/305 53/306/306 43/307/307
f 56/309/309 43/310/310 41/311/311
f 39/313/313 44/314/314 46/315/315
f 46/317/317 42/318/318 39/319/319
f 49/321/321 50/322/322 46/323/323
f 49/325/325 46/326/326 44/327/327
f 44/329/329 47/330/330 49/331/331
f 42/333/333 55/334/334 39/335/335
f 55/337/337 56/338/338 39/339/339
f 56/341/341 41/342/342 39/343/343
f 42/345/345 43/346/346 55/347/347
f 43/349/349 54/350/350 55/351/351
f 52/353/353 50/354/354 49/355/355
f 49/357/357 51/358/358 52/359/359
f 47/361/361 51/362/362 49/363/363
f 50/365/365 52/366/366 48/367/367
f 48/369/369 51/370/370 47/371/371
f 52/373/373 51/374/374 48/375/375
# 94 elements

