# Created by Metasequoia

v 0.000000 3.482397 4.858933
v 0.136051 3.438191 4.858933
v 0.220135 3.322459 4.858933
v 0.220135 3.179407 4.858933
v 0.136051 3.063675 4.858933
v 0.000000 3.019470 4.858933
v -0.136051 3.063675 4.858933
v -0.220135 3.179407 4.858933
v -0.220135 3.322459 4.858933
v -0.136051 3.438191 4.858933
v 0.000000 3.250933 5.126282
v 0.000000 3.595541 4.501151
v 0.202556 3.529727 4.501151
v 0.327742 3.357423 4.501151
v 0.327742 3.144444 4.501151
v 0.202556 2.972139 4.501151
v 0.000000 2.906324 4.501151
v -0.202556 2.972139 4.501151
v -0.327742 3.144444 4.501151
v -0.327742 3.357423 4.501151
v -0.202556 3.529727 4.501151
v 1.445659 1.884579 4.634200
v 1.369276 1.808196 4.733027
v 1.375776 1.814697 4.742220
v 0.061392 3.324859 4.594597
v -0.070997 3.192469 4.772630
v -0.064498 3.198969 4.781824
v 1.299944 1.845407 4.755742
v 1.306444 1.851907 4.764934
v 1.410910 1.951452 4.611485
v 1.443125 1.805762 4.682530
v 1.449628 1.812263 4.691721
v 1.219100 1.902367 4.772630
v 1.225601 1.908867 4.781824
v 1.351490 2.034757 4.594597
v -1.445658 4.629637 4.634200
v -1.375777 4.699519 4.742220
v -1.369277 4.706020 4.733027
v -0.061387 3.189357 4.594597
v 0.064502 3.315247 4.781824
v 0.071002 3.321747 4.772630
v -1.306443 4.662309 4.764934
v -1.299944 4.668809 4.755742
v -1.410910 4.562764 4.611485
v -1.449627 4.701953 4.691721
v -1.443125 4.708454 4.682530
v -1.225600 4.605349 4.781824
v -1.219100 4.611849 4.772630
v -1.351489 4.479459 4.594597
# 49 vertices

vt 0.03018 0.06057
vt 0.04266 0.06057
vt 0.04266 0.05422
vt 0.02995 0.06041
vt 0.04243 0.06916
vt 0.04243 0.06376
vt 0.04243 0.05708
vt 0.03016 0.06054
vt 0.04264 0.07083
vt 0.04264 0.06689
vt 0.04264 0.06054
vt 0.04264 0.05419
vt 0.03022 0.06073
vt 0.04271 0.06947
vt 0.04271 0.06407
vt 0.04271 0.05738
vt 0.04271 0.05198
vt 0.04266 0.06693
vt 0.22600 0.08563
vt 0.22669 0.08726
vt 0.22716 0.08679
vt 0.22140 0.08516
vt 0.22140 0.08427
vt 0.22522 0.08648
vt 0.22974 0.08938
vt 0.22927 0.08985
vt 0.23221 0.09232
vt 0.12386 0.08262
vt 0.21645 0.08351
vt 0.12386 0.08351
vt 0.21645 0.08262
vt 0.01803 0.09066
vt 0.02079 0.09360
vt 0.02079 0.08807
vt 0.02465 0.08691
vt 0.02447 0.09476
vt 0.02963 0.09562
vt 0.02963 0.08605
vt 0.12294 0.08605
vt 0.12294 0.09562
vt 0.22779 0.10209
vt 0.22503 0.09951
vt 0.22503 0.10503
vt 0.22118 0.09835
vt 0.22136 0.10619
vt 0.21619 0.10706
vt 0.21619 0.09748
vt 0.12288 0.09748
vt 0.12288 0.10706
vt 0.01672 0.10566
vt 0.01603 0.10403
vt 0.01556 0.10450
vt 0.02173 0.10733
vt 0.02173 0.10826
vt 0.01776 0.10596
vt 0.01298 0.10192
vt 0.01345 0.10145
vt 0.01051 0.09898
vt 0.02687 0.10996
vt 0.12304 0.10904
vt 0.12304 0.10996
vt 0.02687 0.10904
vt 0.12287 0.09744
vt 0.02956 0.09744
vt 0.12287 0.10702
vt 0.02956 0.10702
vt 0.02439 0.09831
vt 0.02457 0.10616
vt 0.02072 0.10499
vt 0.02072 0.09947
vt 0.01796 0.10241
vt 0.12294 0.08602
vt 0.12294 0.09560
vt 0.21626 0.08602
vt 0.21626 0.09560
vt 0.22142 0.08689
vt 0.22124 0.09474
vt 0.22509 0.09357
vt 0.22509 0.08805
vt 0.22785 0.09099
vt 0.05938 0.06057
vt 0.05938 0.05111
vt 0.05915 0.07344
vt 0.05915 0.06539
vt 0.05915 0.05545
vt 0.04243 0.05167
vt 0.05915 0.04739
vt 0.05936 0.07000
vt 0.05936 0.06054
vt 0.05936 0.05108
vt 0.05942 0.07375
vt 0.05942 0.06569
vt 0.05942 0.05575
vt 0.05942 0.04770
vt 0.05938 0.07003
vt 0.07384 0.07685
vt 0.08379 0.07685
vt 0.06579 0.07101
vt 0.09184 0.07101
vt 0.09491 0.06155
vt 0.06272 0.06155
vt 0.09184 0.05209
vt 0.06579 0.05209
vt 0.08379 0.04625
vt 0.07384 0.04625
# 105 texture vertices

vn -0.06268 0.88968 0.45226
vn 0.47224 0.75661 0.45226
vn 0.82677 0.33453 0.45226
vn 0.86551 -0.21532 0.45226
vn 0.57365 -0.68293 0.45226
vn 0.06268 -0.88968 0.45226
vn -0.47224 -0.75661 0.45226
vn -0.82677 -0.33453 0.45226
vn -0.86551 0.21532 0.45226
vn -0.57365 0.68293 0.45226
vn 0.64934 0.21098 0.73065
vn 0.10272 0.94842 0.29993
vn 0.64057 0.70691 0.29993
vn 0.93374 0.19538 0.29993
vn 0.87026 -0.39077 0.29993
vn 0.47436 -0.82766 0.29993
vn -0.10272 -0.94842 0.29993
vn -0.64057 -0.70691 0.29993
vn -0.93374 -0.19538 0.29993
vn -0.87025 0.39077 0.29993
vn -0.47436 0.82766 0.29993
vn 0.86588 -0.28144 -0.41358
vn 0.04157 -0.82938 0.55713
vn 0.04157 -0.82939 0.55713
vn -0.48726 -0.48726 -0.72468
vn -0.50006 -0.50006 0.70702
vn -0.50004 -0.50004 0.70705
vn -0.25077 -0.69793 0.67083
vn -0.25076 -0.69792 0.67084
vn -0.47698 -0.49180 -0.72844
vn 0.26291 -0.86557 0.42622
vn 0.26292 -0.86557 0.42622
vn -0.44197 -0.55491 0.70479
vn -0.38065 -0.60654 0.69800
vn -0.48635 -0.48674 -0.72564
vn -0.86591 0.28141 -0.41354
vn -0.04157 0.82939 0.55712
vn -0.04157 0.82939 0.55713
vn -0.51242 -0.51242 0.68909
vn 0.50004 0.50004 0.70705
vn 0.50004 0.50004 0.70705
vn 0.27321 0.68376 0.67663
vn 0.22816 0.71160 0.66451
vn -0.51706 -0.51530 0.68346
vn -0.26292 0.86557 0.42622
vn -0.26292 0.86557 0.42622
vn 0.44197 0.55492 0.70478
vn 0.38066 0.60656 0.69798
vn -0.51382 -0.51102 0.68909
vn -0.40131 -0.55236 0.73065
vn -0.44438 0.61163 0.65455
vn -0.51797 -0.43499 -0.73654
vn -0.49466 -0.46451 -0.73453
vn -0.50439 -0.44949 -0.73725
vn -0.48410 -0.48263 -0.72988
vn -0.48944 -0.48508 -0.72467
vn -0.48726 -0.48726 -0.72468
vn 0.47931 0.56230 0.67386
vn 0.49387 0.54875 0.67451
vn 0.50432 0.53446 0.67825
vn 0.51537 0.51682 0.68358
vn 0.52250 0.50766 0.68504
vn 0.51330 0.51290 0.68808
vn 0.51024 0.51459 0.68909
vn 0.51242 0.51242 0.68909
vn 0.51242 0.51242 0.68909
vn -0.51242 -0.51242 0.68909
vn -0.51298 -0.51375 0.68768
vn -0.50788 -0.52261 0.68479
vn -0.50722 -0.53178 0.67819
vn -0.50787 -0.53534 0.67489
vn -0.47932 -0.56230 0.67385
vn 0.48726 0.48726 -0.72468
vn 0.48726 0.48726 -0.72468
vn 0.48586 0.48866 -0.72467
vn 0.48665 0.48588 -0.72601
vn 0.48240 0.48415 -0.72999
vn 0.49159 0.47684 -0.72867
vn 0.49184 0.46726 -0.73469
vn 0.49096 0.46347 -0.73767
vn 0.51798 0.43499 -0.73653
vn 0.00000 0.00000 -1.00000
# 82 normal vertices

f 2/3/2 1/2/1 11/1/11
f 3/6/3 2/5/2 11/4/11
f 4/7/4 3/6/3 11/4/11
f 5/10/5 4/9/4 11/8/11
f 6/11/6 5/10/5 11/8/50
f 7/12/7 6/11/6 11/8/50
f 8/15/8 7/14/7 11/13/50
f 9/16/9 8/15/8 11/13/50
f 10/17/10 9/16/9 11/13/51
f 1/2/1 10/18/10 11/1/51
f 23/21/23 24/20/24 28/19/28
f 24/24/24 29/23/29 28/22/28
f 23/21/23 31/25/31 24/20/24
f 31/25/31 32/26/32 24/20/24
f 32/26/22 31/25/22 22/27/22
f 26/30/26 33/29/33 27/28/27
f 33/29/33 34/31/34 27/28/27
f 29/23/29 34/31/34 28/22/28
f 34/31/34 33/29/33 28/22/28
f 23/34/54 22/33/53 31/32/52
f 28/35/55 22/33/53 23/34/54
f 28/35/55 30/36/30 22/33/53
f 28/35/55 35/37/35 30/36/30
f 33/38/56 35/37/35 28/35/55
f 26/39/57 35/37/35 33/38/56
f 25/40/25 35/37/35 26/39/57
f 22/43/60 24/42/59 32/41/58
f 22/43/60 29/44/61 24/42/59
f 30/45/62 29/44/61 22/43/60
f 35/46/63 29/44/61 30/45/62
f 35/46/63 34/47/64 29/44/61
f 35/46/63 27/48/65 34/47/64
f 25/49/66 27/48/65 35/46/63
f 38/52/38 37/51/37 43/50/43
f 37/55/37 42/54/42 43/53/43
f 45/57/45 37/51/37 46/56/46
f 37/51/37 38/52/38 46/56/46
f 36/58/36 45/57/36 46/56/36
f 40/61/40 41/60/41 47/59/47
f 41/60/41 48/62/48 47/59/47
f 43/53/43 42/54/42 48/62/48
f 42/54/42 47/59/47 48/62/48
f 40/65/67 49/64/49 39/63/39
f 47/66/68 49/64/49 40/65/67
f 47/66/68 44/67/44 49/64/49
f 42/68/69 44/67/44 47/66/68
f 37/69/70 44/67/44 42/68/69
f 37/69/70 36/70/71 44/67/44
f 45/71/72 36/70/71 37/69/70
f 49/74/75 41/73/74 39/72/73
f 49/74/75 48/75/76 41/73/74
f 44/76/77 48/75/76 49/74/75
f 44/76/77 43/77/78 48/75/76
f 44/76/77 38/78/79 43/77/78
f 36/79/80 38/78/79 44/76/77
f 46/80/81 38/78/79 36/79/80
f 12/81/12 1/2/1 2/3/2
f 13/82/13 12/81/12 2/3/2
f 13/83/13 2/5/2 3/6/3
f 14/84/14 13/83/13 3/6/3
f 14/84/14 3/6/3 4/7/4
f 15/85/15 14/84/14 4/7/4
f 15/85/15 4/7/4 5/86/5
f 16/87/16 15/85/15 5/86/5
f 16/88/16 5/10/5 6/11/6
f 17/89/17 16/88/16 6/11/6
f 17/89/17 6/11/6 7/12/7
f 18/90/18 17/89/17 7/12/7
f 18/91/18 7/14/7 8/15/8
f 19/92/19 18/91/18 8/15/8
f 19/92/19 8/15/8 9/16/9
f 20/93/20 19/92/19 9/16/9
f 20/93/20 9/16/9 10/17/10
f 21/94/21 20/93/20 10/17/10
f 21/95/21 10/18/10 1/2/1
f 12/81/12 21/95/21 1/2/1
f 21/98/82 19/97/82 20/96/82
f 21/98/82 18/99/82 19/97/82
f 21/98/82 17/100/82 18/99/82
f 12/101/82 17/100/82 21/98/82
f 12/101/82 16/102/82 17/100/82
f 13/103/82 16/102/82 12/101/82
f 13/103/82 15/104/82 16/102/82
f 13/103/82 14/105/82 15/104/82
# 84 elements

