# Created by Metasequoia

v 0.000000 3.250609 4.169276
v 0.000000 3.613212 4.169276
v 0.213132 3.543961 4.169276
v 0.344855 3.362659 4.169276
v 0.344855 3.138560 4.169276
v 0.213131 2.957258 4.169276
v 0.000000 2.888007 4.169276
v -0.213132 2.957258 4.169276
v -0.344855 3.138560 4.169276
v -0.344855 3.362659 4.169276
v -0.213131 3.543961 4.169276
v 0.000000 3.594861 4.501849
v 0.202346 3.529115 4.501849
v 0.327402 3.356989 4.501849
v 0.327402 3.144230 4.501849
v 0.202346 2.972104 4.501849
v 0.000000 2.906358 4.501849
v -0.202346 2.972104 4.501849
v -0.327402 3.144230 4.501849
v -0.327402 3.356989 4.501849
v -0.202345 3.529115 4.501849
v 1.375103 4.697894 4.386765
v 1.444986 4.628012 4.278744
v 1.368604 4.704394 4.377572
v -0.065171 3.313622 4.426367
v 0.060719 3.187732 4.239141
v -0.071670 3.320122 4.417173
v 1.407777 4.558678 4.256030
v 1.308232 4.663145 4.409479
v 1.301732 4.669645 4.400287
v 1.450671 4.698611 4.333838
v 1.444171 4.705111 4.324645
v 1.350817 4.477834 4.239141
v 1.224928 4.603724 4.426367
v 1.218427 4.610224 4.417173
v -1.373201 1.809823 4.382169
v -1.443082 1.879704 4.274146
v -1.449583 1.886204 4.283340
v 0.067079 3.194093 4.421770
v -0.058811 3.319983 4.234544
v -0.065310 3.326483 4.243737
v -1.405871 1.949038 4.251433
v -1.412372 1.955538 4.260625
v -1.306326 1.844571 4.404883
v -1.445515 1.805855 4.324645
v -1.452018 1.812355 4.333838
v -1.348912 2.029881 4.234544
v -1.355412 2.036381 4.243737
v -1.223022 1.903992 4.421770
# 49 vertices

vt 0.16313 0.05437
vt 0.15377 0.06725
vt 0.16313 0.07029
vt 0.14799 0.05929
vt 0.14799 0.04945
vt 0.15377 0.04150
vt 0.16313 0.03846
vt 0.17248 0.04150
vt 0.17827 0.04945
vt 0.17827 0.05929
vt 0.17248 0.06725
vt 0.21614 0.01187
vt 0.21639 0.01125
vt 0.21486 0.01065
vt 0.21059 0.01054
vt 0.21416 0.01159
vt 0.21438 0.01117
vt 0.22320 0.01429
vt 0.21994 0.01265
vt 0.21969 0.01327
vt 0.11607 0.01026
vt 0.11607 0.01073
vt 0.20908 0.01073
vt 0.20908 0.01026
vt 0.21914 0.01316
vt 0.21422 0.01159
vt 0.22060 0.02831
vt 0.21785 0.02550
vt 0.21785 0.03101
vt 0.21401 0.02434
vt 0.21419 0.03217
vt 0.20904 0.03303
vt 0.20904 0.02348
vt 0.11604 0.02348
vt 0.11604 0.03303
vt 0.22061 0.01771
vt 0.21786 0.01501
vt 0.21786 0.02052
vt 0.21402 0.02168
vt 0.21420 0.01385
vt 0.20905 0.01299
vt 0.20905 0.02254
vt 0.11604 0.02254
vt 0.11604 0.01299
vt 0.01871 0.03518
vt 0.01713 0.03476
vt 0.01696 0.03540
vt 0.01879 0.03512
vt 0.02295 0.03538
vt 0.01900 0.03470
vt 0.01361 0.03382
vt 0.01344 0.03446
vt 0.00984 0.03315
vt 0.02301 0.03537
vt 0.11601 0.03537
vt 0.11601 0.03490
vt 0.02301 0.03490
vt 0.01396 0.03367
vt 0.01804 0.03451
vt 0.11602 0.02257
vt 0.11602 0.01302
vt 0.02301 0.02257
vt 0.02301 0.01302
vt 0.01786 0.02171
vt 0.01804 0.01389
vt 0.01420 0.01504
vt 0.01420 0.02055
vt 0.01145 0.01762
vt 0.11604 0.02349
vt 0.02304 0.02349
vt 0.11604 0.03304
vt 0.02304 0.03304
vt 0.01789 0.02435
vt 0.01807 0.03218
vt 0.01423 0.03102
vt 0.01423 0.02551
vt 0.01148 0.02845
vt 0.20190 0.04808
vt 0.18592 0.04860
vt 0.18592 0.05833
vt 0.20190 0.05833
vt 0.20172 0.06000
vt 0.18573 0.05973
vt 0.18573 0.06800
vt 0.20172 0.06871
vt 0.20172 0.04923
vt 0.18573 0.04949
vt 0.20172 0.04050
vt 0.18573 0.04122
vt 0.18577 0.05810
vt 0.20176 0.05810
vt 0.20176 0.04838
vt 0.18577 0.04786
vt 0.18577 0.06836
vt 0.20176 0.06784
vt 0.18571 0.04898
vt 0.20170 0.04926
vt 0.20170 0.04098
vt 0.18571 0.04027
vt 0.18571 0.05975
vt 0.20170 0.05948
vt 0.18571 0.06848
vt 0.20170 0.06776
vt 0.18592 0.06805
vt 0.20190 0.06857
vt 0.14881 0.04971
vt 0.14881 0.05905
vt 0.15431 0.04215
vt 0.15431 0.06660
vt 0.16318 0.03927
vt 0.16318 0.06949
vt 0.17207 0.06660
vt 0.17207 0.04215
vt 0.17756 0.05905
vt 0.17756 0.04971
# 115 texture vertices

vn 0.00000 0.00000 -1.00000
vn 0.10752 0.99269 0.05477
vn 0.67047 0.73991 0.05477
vn 0.97733 0.20451 0.05478
vn 0.91088 -0.40901 0.05477
vn 0.49651 -0.86630 0.05477
vn -0.10752 -0.99269 0.05478
vn -0.67047 -0.73991 0.05477
vn -0.97733 -0.20450 0.05478
vn -0.91088 0.40901 0.05477
vn -0.49651 0.86630 0.05477
vn 0.13572 0.85166 0.50621
vn 0.86561 0.26287 -0.42617
vn -0.01872 0.81008 0.58602
vn -0.50005 0.50005 0.70704
vn 0.51242 -0.51242 0.68910
vn -0.50007 0.50006 0.70701
vn 0.51683 -0.51536 0.68358
vn -0.22070 0.71598 0.66232
vn -0.27286 0.68397 0.67656
vn 0.51460 -0.51024 0.68909
vn -0.38481 0.60323 0.69860
vn -0.44394 0.55315 0.70494
vn -0.28130 -0.86603 0.41336
vn -0.82937 -0.04158 -0.55715
vn -0.82941 -0.04154 -0.55710
vn 0.51242 -0.51242 -0.68910
vn -0.50003 0.50003 -0.70706
vn -0.50002 0.50002 -0.70708
vn -0.68372 0.27317 -0.67669
vn -0.71157 0.22815 -0.66454
vn 0.51530 -0.51706 -0.68345
vn -0.86551 -0.26299 -0.42630
vn -0.86555 -0.26294 -0.42625
vn -0.55490 0.44194 -0.70482
vn -0.60652 0.38063 -0.69804
vn 0.51101 -0.51382 -0.68909
vn 0.28133 0.86600 0.41341
vn 0.28133 0.86600 0.41340
vn 0.47724 -0.56420 0.67374
vn 0.50653 -0.53664 0.67486
vn 0.50615 -0.53268 0.67828
vn 0.50767 -0.52249 0.68504
vn 0.51290 -0.51329 0.68808
vn 0.51242 -0.51242 0.68910
vn -0.51989 0.43293 -0.73641
vn -0.49289 0.46634 -0.73457
vn -0.49227 0.46213 -0.73763
vn -0.48263 0.48409 -0.72988
vn -0.49180 0.47698 -0.72844
vn -0.48673 0.48635 -0.72564
vn -0.48507 0.48944 -0.72468
vn -0.48726 0.48726 -0.72468
vn -0.48726 0.48726 -0.72468
vn 0.51242 -0.51242 -0.68910
vn 0.51375 -0.51298 -0.68768
vn 0.52262 -0.50787 -0.68479
vn 0.53179 -0.50722 -0.67818
vn 0.53535 -0.50788 -0.67488
vn 0.56232 -0.47931 -0.67384
vn -0.48726 0.48726 0.72468
vn -0.48866 0.48586 0.72467
vn -0.48726 0.48726 0.72468
vn -0.48587 0.48665 0.72601
vn -0.48414 0.48241 0.72999
vn -0.47684 0.49159 0.72867
vn -0.46726 0.49184 0.73468
vn -0.46347 0.49097 0.73766
vn -0.43500 0.51798 0.73653
vn 0.49651 0.86630 0.05477
vn -0.10752 0.99269 0.05477
vn 0.91088 0.40901 0.05477
vn 0.97733 -0.20451 0.05478
vn 0.67047 -0.73991 0.05477
vn 0.10752 -0.99269 0.05478
vn -0.49651 -0.86630 0.05477
vn -0.91088 -0.40901 0.05478
vn -0.97733 0.20451 0.05478
vn -0.67047 0.73991 0.05477
vn 0.00000 0.00000 1.00000
# 80 normal vertices

f 2/3/1 3/2/1 1/1/1
f 3/2/1 4/4/1 1/1/1
f 4/4/1 5/5/1 1/1/1
f 5/5/1 6/6/1 1/1/1
f 6/6/1 7/7/1 1/1/1
f 7/7/1 8/8/1 1/1/1
f 8/8/1 9/9/1 1/1/1
f 9/9/1 10/10/1 1/1/1
f 10/10/1 11/11/1 1/1/1
f 11/11/1 2/3/1 1/1/1
f 29/14/19 22/13/12 24/12/14
f 30/17/20 29/16/19 24/15/14
f 32/20/13 31/19/13 23/18/13
f 32/20/38 24/12/14 22/13/12
f 31/19/39 32/20/38 22/13/12
f 35/23/23 27/22/17 25/21/15
f 34/24/22 35/23/23 25/21/15
f 34/25/22 29/16/19 30/17/20
f 35/23/23 34/24/22 30/26/20
f 22/29/42 23/28/41 31/27/40
f 22/29/42 28/30/18 23/28/41
f 29/31/43 28/30/18 22/29/42
f 34/32/44 28/30/18 29/31/43
f 34/32/44 33/33/21 28/30/18
f 34/32/44 26/34/16 33/33/21
f 34/32/44 25/35/45 26/34/16
f 23/38/48 24/37/47 32/36/46
f 28/39/49 24/37/47 23/38/48
f 28/39/49 30/40/50 24/37/47
f 28/39/49 35/41/51 30/40/50
f 33/42/52 35/41/51 28/39/49
f 26/43/53 35/41/51 33/42/52
f 26/43/53 27/44/54 35/41/51
f 37/47/25 38/46/26 43/45/31
f 42/50/30 37/49/25 43/48/31
f 37/47/25 45/52/33 46/51/34
f 38/46/26 37/47/25 46/51/34
f 45/52/24 36/53/24 46/51/24
f 41/56/29 40/55/28 47/54/35
f 48/57/36 41/56/29 47/54/35
f 42/50/30 43/48/31 48/58/36
f 47/54/35 42/59/30 48/57/36
f 49/62/37 40/61/55 39/60/27
f 49/62/37 47/63/56 40/61/55
f 44/64/32 47/63/56 49/62/37
f 44/64/32 42/65/57 47/63/56
f 44/64/32 37/66/58 42/65/57
f 36/67/59 37/66/58 44/64/32
f 36/67/59 45/68/60 37/66/58
f 41/71/63 49/70/62 39/69/61
f 48/72/64 49/70/62 41/71/63
f 48/72/64 44/73/65 49/70/62
f 43/74/66 44/73/65 48/72/64
f 38/75/67 44/73/65 43/74/66
f 38/75/67 36/76/68 44/73/65
f 38/75/67 46/77/69 36/76/68
f 12/80/2 13/79/3 3/78/70
f 2/81/71 12/80/2 3/78/70
f 13/84/3 14/83/4 4/82/72
f 3/85/70 13/84/3 4/82/72
f 14/83/4 15/87/5 5/86/73
f 4/82/72 14/83/4 5/86/73
f 15/87/5 16/89/6 6/88/74
f 5/86/73 15/87/5 6/88/74
f 16/92/6 17/91/7 7/90/75
f 6/93/74 16/92/6 7/90/75
f 17/91/7 18/95/8 8/94/76
f 7/90/75 17/91/7 8/94/76
f 18/98/8 19/97/9 9/96/77
f 8/99/76 18/98/8 9/96/77
f 19/97/9 20/101/10 10/100/78
f 9/96/77 19/97/9 10/100/78
f 20/101/10 21/103/11 11/102/79
f 10/100/78 20/101/10 11/102/79
f 21/104/11 12/80/2 2/81/71
f 11/105/79 21/104/11 2/81/71
f 18/108/80 20/107/80 19/106/80
f 18/108/80 21/109/80 20/107/80
f 17/110/80 21/109/80 18/108/80
f 17/110/80 12/111/80 21/109/80
f 17/110/80 13/112/80 12/111/80
f 16/113/80 13/112/80 17/110/80
f 16/113/80 14/114/80 13/112/80
f 16/113/80 15/115/80 14/114/80
# 84 elements

