# Created by Metasequoia

v 0.012645 2.692221 3.504800
v 0.012645 2.916253 3.504800
v 0.174043 2.849403 3.504800
v 0.240895 2.688003 3.504800
v 0.174043 2.526605 3.504800
v 0.012645 2.459753 3.504800
v -0.148754 2.526605 3.504800
v -0.215606 2.688003 3.504800
v -0.148754 2.849403 3.504800
v 0.012645 2.815986 3.760767
v 0.103141 2.778501 3.760767
v 0.140628 2.688003 3.760767
v 0.103141 2.597507 3.760767
v 0.012645 2.560021 3.760767
v -0.077852 2.597507 3.760767
v -0.115339 2.688003 3.760767
v -0.077852 2.778501 3.760767
v 0.012645 2.688003 3.925265
v 1.445005 2.740368 3.579954
v 1.445005 2.634976 3.699754
v 1.169725 2.617138 3.718224
v 1.165768 2.758205 3.561482
v 1.524129 2.689329 3.638611
v 1.322176 2.620039 3.715220
v 1.319701 2.755313 3.564479
v 0.012138 2.758205 3.561482
v 0.012138 2.617138 3.718224
v 1.445005 2.624319 3.689464
v 1.169725 2.606480 3.707932
v 1.524129 2.683528 3.633010
v 1.322176 2.609383 3.704928
v 0.012138 2.606480 3.707932
v -1.419716 2.632372 3.584670
v -1.419716 2.750315 3.692137
v -1.144436 2.768473 3.710291
v -1.140480 2.614214 3.566514
v -1.498840 2.690127 3.636726
v -1.296887 2.765520 3.707339
v -1.294414 2.617159 3.569458
v 0.013150 2.614214 3.566514
v 0.013150 2.768473 3.710291
v -1.419716 2.739837 3.702614
v -1.144436 2.757996 3.720770
v -1.498840 2.684428 3.642425
v -1.296887 2.755042 3.717815
v 0.013150 2.757996 3.720770
# 46 vertices

vt 0.07204 0.09376
vt 0.05899 0.10677
vt 0.07204 0.11216
vt 0.05358 0.09376
vt 0.05899 0.08075
vt 0.07204 0.07536
vt 0.08510 0.08075
vt 0.09051 0.09376
vt 0.08510 0.10677
vt 0.07176 0.15049
vt 0.07176 0.13722
vt 0.06446 0.13722
vt 0.01641 0.09382
vt 0.02901 0.10084
vt 0.02901 0.09382
vt 0.02901 0.08680
vt 0.07228 0.03359
vt 0.06462 0.04752
vt 0.07228 0.04752
vt 0.07993 0.04752
vt 0.13129 0.09313
vt 0.11771 0.08560
vt 0.11771 0.09313
vt 0.11771 0.10067
vt 0.07906 0.13722
vt 0.05874 0.11657
vt 0.07176 0.11657
vt 0.04862 0.09382
vt 0.04862 0.10634
vt 0.04862 0.08130
vt 0.07228 0.06918
vt 0.05861 0.06918
vt 0.08593 0.06918
vt 0.09660 0.09313
vt 0.09660 0.07969
vt 0.09660 0.10657
vt 0.08478 0.11657
vt 0.22221 0.03531
vt 0.22221 0.04626
vt 0.22221 0.04573
vt 0.10211 0.04040
vt 0.10211 0.04069
vt 0.10840 0.03661
vt 0.10840 0.04495
vt 0.11815 0.04605
vt 0.11835 0.03552
vt 0.13026 0.04626
vt 0.13058 0.03531
vt 0.22185 0.04799
vt 0.22185 0.04724
vt 0.12991 0.04724
vt 0.12991 0.04799
vt 0.11780 0.04709
vt 0.11780 0.04784
vt 0.10804 0.04632
vt 0.10804 0.04707
vt 0.10176 0.04359
vt 0.10176 0.04400
vt 0.10176 0.02712
vt 0.10804 0.03092
vt 0.10804 0.02310
vt 0.11780 0.02201
vt 0.11799 0.03201
vt 0.12991 0.02180
vt 0.13022 0.03222
vt 0.22185 0.02180
vt 0.22185 0.03222
vt 0.22519 0.04643
vt 0.22519 0.03548
vt 0.22519 0.03600
vt 0.34529 0.04105
vt 0.33900 0.04513
vt 0.34529 0.04133
vt 0.34423 0.02702
vt 0.33794 0.02323
vt 0.33794 0.03105
vt 0.32819 0.03214
vt 0.32799 0.02214
vt 0.31608 0.03235
vt 0.31576 0.02193
vt 0.22413 0.03235
vt 0.22413 0.02193
vt 0.22481 0.02084
vt 0.31676 0.02009
vt 0.22481 0.02009
vt 0.31676 0.02084
vt 0.32886 0.02024
vt 0.32886 0.02099
vt 0.33862 0.02100
vt 0.33862 0.02176
vt 0.34491 0.02408
vt 0.34491 0.02449
vt 0.33900 0.03678
vt 0.32925 0.03569
vt 0.32905 0.04622
vt 0.31714 0.03548
vt 0.31682 0.04643
# 97 texture vertices

vn 0.00000 0.00000 -1.00000
vn 0.07710 0.87990 0.46886
vn 0.67670 0.56766 0.46887
vn 0.87990 -0.07711 0.46887
vn 0.56766 -0.67671 0.46886
vn -0.07710 -0.87990 0.46886
vn -0.67670 -0.56767 0.46886
vn -0.87990 0.07710 0.46887
vn -0.56766 0.67671 0.46887
vn 0.68903 0.28541 0.66616
vn 0.70042 0.49576 -0.51345
vn -0.00674 0.75080 0.66050
vn -0.00002 0.74362 0.66861
vn 0.00031 0.74330 0.66896
vn -0.00095 0.74647 0.66542
vn 0.00208 0.74395 0.66823
vn -1.00000 0.00000 0.00000
vn 0.56081 -0.57508 0.59563
vn 0.01826 -0.69457 0.71919
vn 0.12437 -0.68930 0.71372
vn -0.70042 -0.50464 -0.50473
vn 0.00671 0.67350 -0.73916
vn 0.00002 0.68146 -0.73185
vn -0.00032 0.68181 -0.73153
vn 0.00094 0.67834 -0.73475
vn -0.00208 0.68109 -0.73219
vn 1.00000 0.00000 0.00000
vn -0.56081 0.58541 0.58547
vn -0.01826 0.70701 0.70697
vn -0.12438 0.70159 0.70165
vn -0.28541 -0.68904 0.66616
vn -0.55809 0.55809 0.61406
vn 0.56285 0.74319 0.36176
vn -0.12751 0.92351 0.36176
vn 0.92351 0.12751 0.36176
vn 0.74318 -0.56286 0.36177
vn 0.12751 -0.92351 0.36176
vn -0.56286 -0.74318 0.36177
vn -0.92351 -0.12752 0.36176
vn -0.74318 0.56286 0.36176
vn -0.00534 0.75080 0.66050
vn -0.00239 0.74865 0.66296
vn 0.00000 0.74329 0.66896
vn 0.00000 -0.69466 0.71934
vn 0.00000 -0.69466 0.71934
vn 0.00913 -0.69463 0.71931
vn 0.07591 -0.69271 0.71721
vn 0.37053 -0.64520 0.66815
vn 0.71851 -0.48310 0.50036
vn 0.71851 -0.48311 0.50035
vn -0.00534 -0.68631 -0.72729
vn -0.00239 -0.68868 -0.72506
vn -0.00672 -0.68631 -0.72728
vn -0.00094 -0.69106 -0.72279
vn 0.00209 -0.69377 -0.72019
vn -0.00001 -0.69414 -0.71984
vn 0.00032 -0.69448 -0.71951
vn 0.00000 -0.69449 -0.71951
vn 0.00531 0.67351 -0.73916
vn 0.00238 0.67592 -0.73697
vn 0.00000 0.68182 -0.73152
vn 0.00000 0.68182 -0.73152
vn 0.00000 0.70715 0.70707
vn -0.00913 0.70712 0.70704
vn -0.07591 0.70506 0.70507
vn -0.37053 0.65675 0.65680
vn -0.71851 0.49177 0.49184
vn -0.71851 0.49176 0.49184
vn 0.00530 -0.73917 0.67350
vn 0.00673 -0.73916 0.67349
vn 0.00239 -0.73697 0.67592
vn 0.00095 -0.73474 0.67834
vn -0.00209 -0.73218 0.68111
vn 0.00001 -0.73184 0.68148
vn -0.00032 -0.73151 0.68183
vn 0.00000 -0.73151 0.68184
vn 0.00000 -0.73151 0.68184
# 77 normal vertices

f 2/3/1 3/2/1 1/1/1
f 3/2/1 4/4/1 1/1/1
f 4/4/1 5/5/1 1/1/1
f 5/5/1 6/6/1 1/1/1
f 6/6/1 7/7/1 1/1/1
f 7/7/1 8/8/1 1/1/1
f 8/8/1 9/9/1 1/1/1
f 9/9/1 2/3/1 1/1/1
f 11/12/3 10/11/2 18/10/10
f 12/15/4 11/14/3 18/13/10
f 13/16/5 12/15/4 18/13/10
f 14/19/6 13/18/5 18/17/31
f 15/20/7 14/19/6 18/17/31
f 16/23/8 15/22/7 18/21/31
f 17/24/9 16/23/8 18/21/32
f 10/11/2 17/25/9 18/10/32
f 10/11/2 11/12/3 3/26/33
f 2/27/34 10/11/2 3/26/33
f 11/14/3 12/15/4 4/28/35
f 3/29/33 11/14/3 4/28/35
f 12/15/4 13/16/5 5/30/36
f 4/28/35 12/15/4 5/30/36
f 13/18/5 14/19/6 6/31/37
f 5/32/36 13/18/5 6/31/37
f 14/19/6 15/20/7 7/33/38
f 6/31/37 14/19/6 7/33/38
f 15/22/7 16/23/8 8/34/39
f 7/35/38 15/22/7 8/34/39
f 16/23/8 17/24/9 9/36/40
f 8/34/39 16/23/8 9/36/40
f 17/25/9 10/11/2 2/27/34
f 9/37/40 17/25/9 2/27/34
f 32/40/17 27/39/17 26/38/17
f 19/43/11 23/42/11 30/41/11
f 19/43/42 20/44/12 23/42/41
f 19/43/42 24/45/15 20/44/12
f 25/46/16 24/45/15 19/43/42
f 25/46/16 21/47/13 24/45/15
f 22/48/14 21/47/13 25/46/16
f 22/48/14 27/39/43 21/47/13
f 22/48/14 26/38/43 27/39/43
f 21/51/46 27/50/45 32/49/44
f 29/52/19 21/51/46 32/49/44
f 24/53/47 21/51/46 29/52/19
f 31/54/20 24/53/47 29/52/19
f 20/55/48 24/53/47 31/54/20
f 28/56/18 20/55/48 31/54/20
f 23/57/49 20/55/48 28/56/18
f 30/58/50 23/57/49 28/56/18
f 28/61/53 19/60/52 30/59/51
f 31/62/54 19/60/52 28/61/53
f 31/62/54 25/63/55 19/60/52
f 29/64/56 25/63/55 31/62/54
f 29/64/56 22/65/57 25/63/55
f 32/66/58 22/65/57 29/64/56
f 32/66/58 26/67/58 22/65/57
f 41/70/27 46/69/27 40/68/27
f 37/73/21 33/72/21 44/71/21
f 34/76/22 33/75/60 37/74/59
f 38/77/25 33/75/60 34/76/22
f 38/77/25 39/78/26 33/75/60
f 35/79/23 39/78/26 38/77/25
f 35/79/23 36/80/24 39/78/26
f 41/81/61 36/80/24 35/79/23
f 40/82/62 36/80/24 41/81/61
f 41/85/63 35/84/64 46/83/63
f 35/84/64 43/86/29 46/83/63
f 35/84/64 38/87/65 43/86/29
f 38/87/65 45/88/30 43/86/29
f 38/87/65 34/89/66 45/88/30
f 34/89/66 42/90/28 45/88/30
f 34/89/66 37/91/67 42/90/28
f 37/91/67 44/92/68 42/90/28
f 33/72/71 42/93/70 44/71/69
f 33/72/71 45/94/72 42/93/70
f 39/95/73 45/94/72 33/72/71
f 39/95/73 43/96/74 45/94/72
f 36/97/75 43/96/74 39/95/73
f 36/97/75 46/69/76 43/96/74
f 40/68/77 46/69/76 36/97/75
# 80 elements

