# Created by 3DAce v2.72


g
v -1.281332 1.307794 -6.252766
v -1.306929 1.342648 -6.252073
v -1.429936 1.120641 -6.257765
v -1.469901 1.131878 -6.258225
v -1.437666 0.991100 -6.262292
v -1.478434 0.986544 -6.263597
v -1.433979 0.843171 -5.875967
v -1.394283 0.855357 -5.874240
v -1.266302 1.239735 -5.364110
v -1.294070 1.272772 -5.361525
v -1.391660 1.052885 -5.381310
v -1.431827 1.063056 -5.379145
v -1.428647 0.910735 -5.003845
v -1.387956 0.915928 -5.005491
v -1.336048 0.768906 -5.026265
v -1.375715 0.756391 -5.024980
# 16 vertices

vt 0.000000 1.000000
vt 0.000000 1.000000
vt 0.000000 1.000000
vt 0.000000 1.000000
vt 0.000000 1.000000
vt 0.000000 1.000000
vt 0.000000 1.000000
vt 0.000000 1.000000
vt 0.000000 1.000000
vt 0.000000 1.000000
vt 0.000000 1.000000
vt 0.000000 1.000000
vt 0.000000 1.000000
vt 0.000000 1.000000
vt 0.000000 1.000000
vt 0.000000 1.000000
vt 0.000000 1.000000
vt 0.000000 1.000000
vt 0.000000 1.000000
vt 0.000000 1.000000
vt 0.000000 1.000000
vt 0.000000 1.000000
vt 0.000000 1.000000
vt 0.000000 1.000000
vt 0.000000 1.000000
vt 0.000000 1.000000
vt 0.000000 1.000000
vt 0.000000 1.000000
vt 0.000000 1.000000
vt 0.000000 1.000000
vt 0.000000 1.000000
vt 0.000000 1.000000
vt 0.000000 1.000000
vt 0.000000 1.000000
vt 0.000000 1.000000
vt 0.000000 1.000000
vt 0.000000 1.000000
vt 0.000000 1.000000
vt 0.000000 1.000000
vt 0.000000 1.000000
vt 0.000000 1.000000
vt 0.000000 1.000000
vt 0.000000 1.000000
vt 0.000000 1.000000
vt 0.000000 1.000000
vt 0.000000 1.000000
vt 0.000000 1.000000
vt 0.000000 1.000000
vt 0.000000 1.000000
vt 0.000000 1.000000
vt 0.000000 1.000000
vt 0.000000 1.000000
vt 0.000000 1.000000
vt 0.000000 1.000000
vt 0.000000 1.000000
vt 0.000000 1.000000
vt 0.000000 1.000000
vt 0.000000 1.000000
vt 0.000000 1.000000
vt 0.000000 1.000000
vt 0.000000 1.000000
vt 0.000000 1.000000
vt 0.000000 1.000000
vt 0.000000 1.000000
vt 0.000000 1.000000
vt 0.000000 1.000000
vt 0.000000 1.000000
vt 0.000000 1.000000
vt 0.000000 1.000000
vt 0.000000 1.000000
vt 0.000000 1.000000
vt 0.000000 1.000000
vt 0.000000 1.000000
vt 0.000000 1.000000
vt 0.000000 1.000000
vt 0.000000 1.000000
vt 0.000000 1.000000
vt 0.000000 1.000000
vt 0.000000 1.000000
vt 0.000000 1.000000
vt 0.000000 1.000000
vt 0.000000 1.000000
vt 0.000000 1.000000
vt 0.000000 1.000000
vt 0.000000 1.000000
vt 0.000000 1.000000
vt 0.000000 1.000000
vt 0.000000 1.000000
vt 0.000000 1.000000
vt 0.000000 1.000000
vt 0.000000 1.000000
vt 0.000000 1.000000
vt 0.000000 1.000000
vt 0.000000 1.000000
vt 0.000000 1.000000
vt 0.000000 1.000000
vt 0.000000 1.000000
vt 0.000000 1.000000
vt 0.000000 1.000000
vt 0.000000 1.000000
vt 0.000000 1.000000
vt 0.000000 1.000000
vt 0.000000 1.000000
vt 0.000000 1.000000
vt 0.000000 1.000000
vt 0.000000 1.000000
vt 0.000000 1.000000
vt 0.000000 1.000000
vt 0.000000 1.000000
vt 0.000000 1.000000
vt 0.000000 1.000000
vt 0.000000 1.000000
# 112 texture vertices

vn 0.786520 0.616546 0.035469
vn 0.766402 0.641342 0.036156
vn 0.786520 0.616546 0.035469
vn 0.786520 0.616546 0.035469
vn 0.786520 0.616546 0.035469
vn 0.805835 0.591120 0.034746
vn 0.786520 0.616546 0.035469
vn 0.786520 0.616546 0.035469
vn 0.247084 0.898589 0.362612
vn 0.071992 0.931063 0.357685
vn 0.071992 0.931063 0.357685
vn 0.247084 0.898589 0.362612
vn 0.071992 0.931063 0.357685
vn -0.105384 0.933989 0.341406
vn 0.071992 0.931063 0.357685
vn 0.071992 0.931063 0.357685
vn 0.024505 0.034471 -0.999105
vn 0.028027 0.035274 -0.998985
vn 0.021739 0.028533 -0.999356
vn 0.024505 0.034471 -0.999105
vn 0.021739 0.028533 -0.999356
vn 0.013883 0.024495 -0.999604
vn 0.024505 0.034471 -0.999105
vn 0.021739 0.028533 -0.999356
vn 0.251455 -0.938633 -0.236088
vn 0.294652 -0.926901 -0.232454
vn 0.295733 -0.948085 -0.116948
vn 0.251455 -0.938633 -0.236088
vn 0.295733 -0.948085 -0.116948
vn 0.295371 -0.948202 -0.116917
vn 0.251455 -0.938633 -0.236088
vn 0.295733 -0.948085 -0.116948
vn 0.061833 -0.116349 0.991282
vn 0.068631 -0.115781 0.990901
vn 0.061833 -0.116349 0.991282
vn 0.061833 -0.116349 0.991282
vn 0.055033 -0.116912 0.991616
vn 0.061833 -0.116349 0.991282
vn 0.061833 -0.116349 0.991282
vn 0.055033 -0.116912 0.991616
vn 0.294652 -0.926901 -0.232454
vn 0.251455 -0.938633 -0.236088
vn 0.202891 -0.913806 -0.351844
vn 0.294652 -0.926901 -0.232454
vn 0.251455 -0.938633 -0.236088
vn 0.115029 -0.927311 -0.356177
vn 0.202891 -0.913806 -0.351844
vn 0.251455 -0.938633 -0.236088
vn -0.988230 -0.148346 0.037352
vn -0.997723 -0.055713 0.038008
vn -0.961867 0.266660 0.060871
vn -0.988230 -0.148346 0.037352
vn -0.997723 -0.055713 0.038008
vn -0.899450 0.432233 0.064533
vn -0.961867 0.266660 0.060871
vn -0.997723 -0.055713 0.038008
vn -0.984206 -0.169796 0.050070
vn -0.967906 -0.249003 0.034000
vn -0.988230 -0.148346 0.037352
vn -0.984206 -0.169796 0.050070
vn -0.967906 -0.249003 0.034000
vn -0.997723 -0.055713 0.038008
vn -0.988230 -0.148346 0.037352
vn -0.967906 -0.249003 0.034000
vn 0.993972 0.102806 -0.038098
vn 0.995103 0.092886 -0.033803
vn 0.959566 -0.274711 -0.061369
vn 0.993972 0.102806 -0.038098
vn 0.894498 -0.442252 -0.065476
vn 0.993972 0.102806 -0.038098
vn 0.959566 -0.274711 -0.061369
vn 0.894498 -0.442252 -0.065476
vn 0.941168 0.336576 -0.030321
vn 0.956799 0.289478 -0.027151
vn 0.993972 0.102806 -0.038098
vn 0.941168 0.336576 -0.030321
vn 0.993972 0.102806 -0.038098
vn 0.956799 0.289478 -0.027151
vn 0.995103 0.092886 -0.033803
vn 0.993972 0.102806 -0.038098
vn -0.813834 0.577059 0.068385
vn -0.961867 0.266660 0.060871
vn -0.899450 0.432233 0.064533
vn -0.813834 0.577059 0.068385
vn -0.836659 0.544972 0.054842
vn -0.813834 0.577059 0.068385
vn -0.899450 0.432233 0.064533
vn -0.836659 0.544972 0.054842
vn 0.009364 -0.093731 0.995553
vn -0.009089 -0.085607 0.996288
vn 0.009364 -0.093731 0.995553
vn 0.009364 -0.093731 0.995553
vn 0.027813 -0.101817 0.994414
vn 0.009364 -0.093731 0.995553
vn 0.009364 -0.093731 0.995553
vn 0.027813 -0.101817 0.994414
vn 0.807290 -0.586080 -0.069229
vn 0.831496 -0.552661 -0.056390
vn 0.894498 -0.442252 -0.065476
vn 0.807290 -0.586080 -0.069229
vn 0.959566 -0.274711 -0.061369
vn 0.807290 -0.586080 -0.069229
vn 0.894498 -0.442252 -0.065476
vn 0.959566 -0.274711 -0.061369
vn 0.010332 0.019908 -0.999748
vn 0.004459 0.023161 -0.999722
vn 0.013883 0.024495 -0.999604
vn 0.010332 0.019908 -0.999748
vn 0.021739 0.028533 -0.999356
vn 0.010332 0.019908 -0.999748
vn 0.013883 0.024495 -0.999604
vn 0.021739 0.028533 -0.999356
# 112 vertex normals

g mat2
f 10/1/1 9/2/2 1/3/3
f 1/5/5 2/6/6 10/7/7
f 12/9/9 13/10/10 11/11/11
f 13/13/13 14/14/14 11/15/15
f 5/17/17 6/18/18 4/19/19
f 4/21/21 3/22/22 5/23/23
f 7/25/25 8/26/26 15/27/27
f 15/29/29 16/30/30 7/31/31
f 16/33/33 15/34/34 14/35/35
f 13/37/37 16/38/38 14/39/39
f 8/41/41 7/42/42 5/43/43
f 7/45/45 6/46/46 5/47/47
f 6/49/49 13/50/50 4/51/51
f 13/53/53 12/54/54 4/55/55
f 7/57/57 16/58/58 6/59/59
f 16/61/61 13/62/62 6/63/63
f 14/65/65 5/66/66 3/67/67
f 11/69/69 14/70/70 3/71/71
f 15/73/73 8/74/74 14/75/75
f 14/77/77 8/78/78 5/79/79
f 2/81/81 4/82/82 12/83/83
f 10/85/85 2/86/86 12/87/87
f 11/89/89 9/90/90 10/91/91
f 12/93/93 11/94/94 10/95/95
f 1/97/97 9/98/98 11/99/99
f 3/101/101 1/102/102 11/103/103
f 2/105/105 1/106/106 3/107/107
f 4/109/109 2/110/110 3/111/111
# 28 elements

