# Created by 3DAce v2.72


g
v -1.930827 1.694226 -5.859243
v -2.052278 1.668536 -5.861027
v -1.937811 1.736902 -5.858550
v -2.068317 1.707134 -5.860620
v -1.890814 1.730318 -7.757015
v -1.897730 1.773045 -7.756324
v -1.990452 1.721905 -7.757411
v -2.006469 1.760465 -7.757108
v -2.148200 1.594936 -5.864242
v -2.178708 1.623092 -5.864703
v -2.086036 1.693691 -7.757545
v -2.055546 1.665564 -7.757158
v -2.213898 1.483024 -5.868769
v -2.252291 1.497472 -5.870074
v -2.145472 1.579063 -7.757961
v -2.107128 1.564681 -7.756624
v -2.277771 1.349544 -5.875967
v -2.124238 1.436885 -7.756163
v -2.165098 1.443989 -7.757927
v -2.236870 1.342380 -5.874240
# 20 vertices

vt 0.000000 1.000000
vt 0.000000 1.000000
vt 0.000000 1.000000
vt 0.000000 1.000000
vt 0.000000 1.000000
vt 0.000000 1.000000
vt 0.000000 1.000000
vt 0.000000 1.000000
vt 0.000000 1.000000
vt 0.000000 1.000000
vt 0.000000 1.000000
vt 0.000000 1.000000
vt 0.000000 1.000000
vt 0.000000 1.000000
vt 0.000000 1.000000
vt 0.000000 1.000000
vt 0.000000 1.000000
vt 0.000000 1.000000
vt 0.000000 1.000000
vt 0.000000 1.000000
vt 0.000000 1.000000
vt 0.000000 1.000000
vt 0.000000 1.000000
vt 0.000000 1.000000
vt 0.000000 1.000000
vt 0.000000 1.000000
vt 0.000000 1.000000
vt 0.000000 1.000000
vt 0.000000 1.000000
vt 0.000000 1.000000
vt 0.000000 1.000000
vt 0.000000 1.000000
vt 0.000000 1.000000
vt 0.000000 1.000000
vt 0.000000 1.000000
vt 0.000000 1.000000
vt 0.000000 1.000000
vt 0.000000 1.000000
vt 0.000000 1.000000
vt 0.000000 1.000000
vt 0.000000 1.000000
vt 0.000000 1.000000
vt 0.000000 1.000000
vt 0.000000 1.000000
vt 0.000000 1.000000
vt 0.000000 1.000000
vt 0.000000 1.000000
vt 0.000000 1.000000
vt 0.000000 1.000000
vt 0.000000 1.000000
vt 0.000000 1.000000
vt 0.000000 1.000000
vt 0.000000 1.000000
vt 0.000000 1.000000
vt 0.000000 1.000000
vt 0.000000 1.000000
vt 0.000000 1.000000
vt 0.000000 1.000000
vt 0.000000 1.000000
vt 0.000000 1.000000
vt 0.000000 1.000000
vt 0.000000 1.000000
vt 0.000000 1.000000
vt 0.000000 1.000000
vt 0.000000 1.000000
vt 0.000000 1.000000
vt 0.000000 1.000000
vt 0.000000 1.000000
vt 0.000000 1.000000
vt 0.000000 1.000000
vt 0.000000 1.000000
vt 0.000000 1.000000
vt 0.000000 1.000000
vt 0.000000 1.000000
vt 0.000000 1.000000
vt 0.000000 1.000000
vt 0.000000 1.000000
vt 0.000000 1.000000
vt 0.000000 1.000000
vt 0.000000 1.000000
vt 0.000000 1.000000
vt 0.000000 1.000000
vt 0.000000 1.000000
vt 0.000000 1.000000
vt 0.000000 1.000000
vt 0.000000 1.000000
vt 0.000000 1.000000
vt 0.000000 1.000000
vt 0.000000 1.000000
vt 0.000000 1.000000
vt 0.000000 1.000000
vt 0.000000 1.000000
vt 0.000000 1.000000
vt 0.000000 1.000000
vt 0.000000 1.000000
vt 0.000000 1.000000
vt 0.000000 1.000000
vt 0.000000 1.000000
vt 0.000000 1.000000
vt 0.000000 1.000000
vt 0.000000 1.000000
vt 0.000000 1.000000
vt 0.000000 1.000000
vt 0.000000 1.000000
vt 0.000000 1.000000
vt 0.000000 1.000000
vt 0.000000 1.000000
vt 0.000000 1.000000
vt 0.000000 1.000000
vt 0.000000 1.000000
vt 0.000000 1.000000
vt 0.000000 1.000000
vt 0.000000 1.000000
vt 0.000000 1.000000
vt 0.000000 1.000000
vt 0.000000 1.000000
vt 0.000000 1.000000
vt 0.000000 1.000000
vt 0.000000 1.000000
vt 0.000000 1.000000
vt 0.000000 1.000000
vt 0.000000 1.000000
vt 0.000000 1.000000
vt 0.000000 1.000000
vt 0.000000 1.000000
vt 0.000000 1.000000
vt 0.000000 1.000000
vt 0.000000 1.000000
vt 0.000000 1.000000
vt 0.000000 1.000000
vt 0.000000 1.000000
vt 0.000000 1.000000
vt 0.000000 1.000000
vt 0.000000 1.000000
vt 0.000000 1.000000
vt 0.000000 1.000000
vt 0.000000 1.000000
vt 0.000000 1.000000
vt 0.000000 1.000000
vt 0.000000 1.000000
vt 0.000000 1.000000
vt 0.000000 1.000000
vt 0.000000 1.000000
vt 0.000000 1.000000
# 144 texture vertices

vn -0.017578 -0.016055 0.999717
vn -0.010876 -0.018022 0.999778
vn -0.011586 -0.016834 0.999791
vn -0.017578 -0.016055 0.999717
vn -0.017578 -0.016055 0.999717
vn -0.011586 -0.016834 0.999791
vn -0.017143 -0.017658 0.999697
vn -0.017578 -0.016055 0.999717
vn 0.986793 0.160218 0.023873
vn 0.986793 0.160218 0.023873
vn 0.986653 0.161077 0.023866
vn 0.986793 0.160218 0.023873
vn 0.986793 0.160218 0.023873
vn 0.986793 0.160218 0.023873
vn 0.986932 0.159359 0.023879
vn 0.986793 0.160218 0.023873
vn 0.004294 0.013462 -0.999900
vn 0.002571 0.016585 -0.999859
vn 0.002981 0.006289 -0.999976
vn 0.004294 0.013462 -0.999900
vn 0.002604 0.008922 -0.999957
vn 0.004294 0.013462 -0.999900
vn 0.002981 0.006289 -0.999976
vn 0.002604 0.008922 -0.999957
vn -0.029571 -0.015673 0.999440
vn -0.017578 -0.016055 0.999717
vn -0.030532 -0.017430 0.999382
vn -0.029571 -0.015673 0.999440
vn -0.030532 -0.017430 0.999382
vn -0.017578 -0.016055 0.999717
vn -0.017143 -0.017658 0.999697
vn -0.030532 -0.017430 0.999382
vn 0.004730 -0.001256 -0.999988
vn 0.002981 0.006289 -0.999976
vn 0.014192 -0.010222 -0.999847
vn 0.004730 -0.001256 -0.999988
vn 0.002604 0.008922 -0.999957
vn 0.002981 0.006289 -0.999976
vn 0.004730 -0.001256 -0.999988
vn 0.002604 0.008922 -0.999957
vn -0.042127 -0.025524 0.998786
vn -0.029571 -0.015673 0.999440
vn -0.030532 -0.017430 0.999382
vn -0.042127 -0.025524 0.998786
vn -0.042127 -0.025524 0.998786
vn -0.030532 -0.017430 0.999382
vn -0.043464 -0.025281 0.998735
vn -0.042127 -0.025524 0.998786
vn 0.023798 -0.008811 -0.999678
vn 0.014192 -0.010222 -0.999847
vn 0.034029 -0.011200 -0.999358
vn 0.023798 -0.008811 -0.999678
vn 0.004730 -0.001256 -0.999988
vn 0.014192 -0.010222 -0.999847
vn 0.023798 -0.008811 -0.999678
vn 0.004730 -0.001256 -0.999988
vn -0.169138 -0.983794 -0.059512
vn -0.169138 -0.983794 -0.059512
vn -0.168495 -0.983907 -0.059464
vn -0.169138 -0.983794 -0.059512
vn -0.169138 -0.983794 -0.059512
vn -0.169138 -0.983794 -0.059512
vn -0.169781 -0.983680 -0.059559
vn -0.169138 -0.983794 -0.059512
vn -0.047588 -0.031066 0.998384
vn -0.042127 -0.025524 0.998786
vn -0.046759 -0.031464 0.998411
vn -0.047588 -0.031066 0.998384
vn -0.046759 -0.031464 0.998411
vn -0.042127 -0.025524 0.998786
vn -0.043464 -0.025281 0.998735
vn -0.046759 -0.031464 0.998411
vn 0.037254 -0.007104 -0.999281
vn 0.034029 -0.011200 -0.999358
vn 0.041546 -0.009167 -0.999095
vn 0.037254 -0.007104 -0.999281
vn 0.023798 -0.008811 -0.999678
vn 0.034029 -0.011200 -0.999358
vn 0.037254 -0.007104 -0.999281
vn 0.023798 -0.008811 -0.999678
vn -0.115026 0.993226 0.016487
vn -0.337565 0.941215 0.012811
vn -0.169088 0.985430 0.018345
vn -0.115026 0.993226 0.016487
vn -0.337565 0.941215 0.012811
vn -0.501743 0.864988 0.007075
vn -0.169088 0.985430 0.018345
vn -0.337565 0.941215 0.012811
vn -0.726212 0.687415 -0.008733
vn -0.800589 0.598941 -0.018072
vn -0.501743 0.864988 0.007075
vn -0.726212 0.687415 -0.008733
vn -0.337565 0.941215 0.012811
vn -0.726212 0.687415 -0.008733
vn -0.501743 0.864988 0.007075
vn -0.337565 0.941215 0.012811
vn -0.926179 0.375475 -0.034811
vn -0.959612 0.278024 -0.042972
vn -0.800589 0.598941 -0.018072
vn -0.926179 0.375475 -0.034811
vn -0.926179 0.375475 -0.034811
vn -0.800589 0.598941 -0.018072
vn -0.726212 0.687415 -0.008733
vn -0.926179 0.375475 -0.034811
vn -0.986243 0.157554 -0.050014
vn -0.983903 0.171477 -0.050301
vn -0.959612 0.278024 -0.042972
vn -0.986243 0.157554 -0.050014
vn -0.986243 0.157554 -0.050014
vn -0.959612 0.278024 -0.042972
vn -0.926179 0.375475 -0.034811
vn -0.986243 0.157554 -0.050014
vn 0.327285 -0.944835 -0.013110
vn 0.145975 -0.989106 -0.019008
vn 0.502828 -0.864358 -0.007017
vn 0.327285 -0.944835 -0.013110
vn 0.084191 -0.996302 -0.017173
vn 0.145975 -0.989106 -0.019008
vn 0.327285 -0.944835 -0.013110
vn 0.084191 -0.996302 -0.017173
vn 0.731919 -0.681331 0.009125
vn 0.502828 -0.864358 -0.007017
vn 0.802324 -0.596610 0.018216
vn 0.731919 -0.681331 0.009125
vn 0.327285 -0.944835 -0.013110
vn 0.502828 -0.864358 -0.007017
vn 0.731919 -0.681331 0.009125
vn 0.327285 -0.944835 -0.013110
vn 0.928189 -0.370451 0.035094
vn 0.802324 -0.596610 0.018216
vn 0.961367 -0.271838 0.043328
vn 0.928189 -0.370451 0.035094
vn 0.928189 -0.370451 0.035094
vn 0.731919 -0.681331 0.009125
vn 0.802324 -0.596610 0.018216
vn 0.928189 -0.370451 0.035094
vn 0.987748 -0.147653 0.050532
vn 0.961367 -0.271838 0.043328
vn 0.985332 -0.162914 0.050790
vn 0.987748 -0.147653 0.050532
vn 0.987748 -0.147653 0.050532
vn 0.928189 -0.370451 0.035094
vn 0.961367 -0.271838 0.043328
vn 0.987748 -0.147653 0.050532
# 144 vertex normals

g mat2
f 2/1/1 1/2/2 3/3/3
f 2/5/5 3/6/6 4/7/7
f 5/9/9 3/10/10 1/11/11
f 3/13/13 5/14/14 6/15/15
f 6/17/17 5/18/18 7/19/19
f 8/21/21 6/22/22 7/23/23
f 9/25/25 2/26/26 10/27/27
f 10/29/29 2/30/30 4/31/31
f 11/33/33 7/34/34 12/35/35
f 8/37/37 7/38/38 11/39/39
f 13/41/41 9/42/42 10/43/43
f 13/45/45 10/46/46 14/47/47
f 15/49/49 12/50/50 16/51/51
f 11/53/53 12/54/54 15/55/55
f 18/57/57 17/58/58 19/59/59
f 17/61/61 18/62/62 20/63/63
f 20/65/65 13/66/66 17/67/67
f 17/69/69 13/70/70 14/71/71
f 19/73/73 16/74/74 18/75/75
f 15/77/77 16/78/78 19/79/79
f 6/81/81 8/82/82 3/83/83
f 8/85/85 4/86/86 3/87/87
f 11/89/89 10/90/90 4/91/91
f 8/93/93 11/94/94 4/95/95
f 15/97/97 14/98/98 10/99/99
f 15/101/101 10/102/102 11/103/103
f 19/105/105 17/106/106 14/107/107
f 19/109/109 14/110/110 15/111/111
f 7/113/113 1/114/114 2/115/115
f 5/117/117 1/118/118 7/119/119
f 12/121/121 2/122/122 9/123/123
f 7/125/125 2/126/126 12/127/127
f 16/129/129 9/130/130 13/131/131
f 16/133/133 12/134/134 9/135/135
f 18/137/137 13/138/138 20/139/139
f 18/141/141 16/142/142 13/143/143
# 36 elements

