# Created by 3DAce v2.72


g
v 0.107137 0.294503 -2.286158
v 0.110950 0.014713 -2.428953
v 0.113364 -0.256560 -2.272183
v 0.111964 -0.248040 -1.972610
v 0.108151 0.031759 -1.829815
v 0.105738 0.303034 -1.986594
v 0.237257 0.299445 -2.284488
v 0.241070 0.019654 -2.427292
v 0.243483 -0.251623 -2.270512
v 0.242084 -0.243099 -1.970941
v 0.238272 0.036701 -1.828147
v 0.235858 0.307974 -1.984927
v 0.156468 0.267573 -2.150291
v 0.155657 0.320545 -2.238114
v -0.096971 0.263575 -2.152224
v -0.097785 0.316545 -2.240045
v -0.088732 -0.073711 -2.012904
v -0.089544 -0.020740 -2.100727
v 0.164707 -0.069712 -2.010967
v 0.163895 -0.016736 -2.098793
v -0.011002 2.066686 -2.310163
v -0.009628 2.063007 -2.219847
v 0.067529 2.066576 -2.266331
v 0.066155 2.070246 -2.356650
v -0.012379 2.070363 -2.400479
v -0.089536 2.066803 -2.353992
v -0.088162 2.063126 -2.263675
v 0.022464 0.156218 -2.046587
v 0.099620 0.159776 -2.093075
v 0.098247 0.163456 -2.183392
v 0.019713 0.163567 -2.227225
v -0.057444 0.160006 -2.180735
v -0.056070 0.156336 -2.090418
v 0.021087 0.159895 -2.136903
v -0.192457 0.294503 -2.286158
v -0.188644 0.014713 -2.428953
v -0.186231 -0.256560 -2.272183
v -0.187631 -0.248040 -1.972610
v -0.191443 0.031759 -1.829815
v -0.193857 0.303034 -1.986594
v -0.062338 0.299445 -2.284488
v -0.058525 0.019654 -2.427292
v -0.056112 -0.251623 -2.270512
v -0.057511 -0.243099 -1.970941
v -0.061323 0.036701 -1.828147
v -0.063737 0.307974 -1.984927
# 46 vertices

vt 0.147900 0.912560
vt 0.147900 0.883460
vt 0.164200 0.883460
vt 0.147900 0.912560
vt 0.164200 0.912560
vt 0.147900 0.912560
vt 0.164200 0.883460
vt 0.164200 0.912560
vt 0.165940 0.941670
vt 0.165940 0.908060
vt 0.182240 0.908060
vt 0.165940 0.941670
vt 0.182240 0.941670
vt 0.165940 0.941670
vt 0.182240 0.908060
vt 0.182240 0.941670
vt 0.164200 0.822560
vt 0.164200 0.851660
vt 0.147900 0.851660
vt 0.164200 0.822560
vt 0.147900 0.822560
vt 0.164200 0.822560
vt 0.147900 0.851660
vt 0.147900 0.822560
vt 0.164200 0.851660
vt 0.164200 0.880770
vt 0.147900 0.880770
vt 0.164200 0.851660
vt 0.147900 0.851660
vt 0.164200 0.851660
vt 0.147900 0.880770
vt 0.147900 0.851660
vt 0.165940 0.880770
vt 0.165940 0.847160
vt 0.182240 0.847160
vt 0.165940 0.880770
vt 0.182240 0.880770
vt 0.165940 0.880770
vt 0.182240 0.847160
vt 0.182240 0.880770
vt 0.147900 0.941670
vt 0.147900 0.912560
vt 0.164200 0.912560
vt 0.147900 0.941670
vt 0.164200 0.941670
vt 0.147900 0.941670
vt 0.164200 0.912560
vt 0.164200 0.941670
vt 0.089970 0.880280
vt 0.140660 0.909390
vt 0.089970 0.938490
vt 0.089970 0.880280
vt 0.089970 0.880280
vt 0.089970 0.938490
vt 0.073070 0.909390
vt 0.089970 0.880280
vt 0.140660 0.909390
vt 0.123760 0.938490
vt 0.089970 0.938490
vt 0.140660 0.909390
vt 0.089970 0.880280
vt 0.123760 0.880280
vt 0.140660 0.909390
vt 0.089970 0.880280
vt 0.089060 0.813040
vt 0.122860 0.813040
vt 0.122860 0.871250
vt 0.089060 0.813040
vt 0.072160 0.842140
vt 0.089060 0.813040
vt 0.122860 0.871250
vt 0.072160 0.842140
vt 0.122860 0.871250
vt 0.089060 0.871250
vt 0.072160 0.842140
vt 0.122860 0.871250
vt 0.122860 0.813040
vt 0.139760 0.842140
vt 0.122860 0.871250
vt 0.122860 0.813040
vt 0.221560 0.793740
vt 0.222220 0.785360
vt 0.222650 0.784040
vt 0.221560 0.793740
vt 0.221980 0.792420
vt 0.221560 0.793740
vt 0.222650 0.784040
vt 0.221980 0.792420
vt 0.208830 0.778930
vt 0.210070 0.778970
vt 0.210080 0.780580
vt 0.208830 0.778930
vt 0.208830 0.780550
vt 0.208830 0.778930
vt 0.210080 0.780580
vt 0.208830 0.780550
vt 0.216110 0.783150
vt 0.216770 0.791520
vt 0.216350 0.790210
vt 0.216110 0.783150
vt 0.215690 0.781830
vt 0.216110 0.783150
vt 0.216350 0.790210
vt 0.215690 0.781830
vt 0.223590 0.824230
vt 0.222350 0.824140
vt 0.222390 0.815760
vt 0.223590 0.824230
vt 0.223630 0.815860
vt 0.223590 0.824230
vt 0.222390 0.815760
vt 0.223630 0.815860
vt 0.223440 0.801740
vt 0.224680 0.801640
vt 0.224720 0.810020
vt 0.223440 0.801740
vt 0.223480 0.810120
vt 0.223440 0.801740
vt 0.224720 0.810020
vt 0.223480 0.810120
vt 0.221820 0.807940
vt 0.222080 0.808510
vt 0.221820 0.809030
vt 0.221820 0.807940
vt 0.222080 0.808510
vt 0.222070 0.809590
vt 0.221820 0.809030
vt 0.222080 0.808510
vt 0.222070 0.809590
vt 0.221810 0.810120
vt 0.221820 0.809030
vt 0.222070 0.809590
vt 0.221810 0.810120
vt 0.221560 0.809550
vt 0.221820 0.809030
vt 0.221810 0.810120
vt 0.221560 0.809550
vt 0.221560 0.808460
vt 0.221820 0.809030
vt 0.221560 0.809550
vt 0.221560 0.808460
vt 0.221820 0.807940
vt 0.221820 0.809030
vt 0.221560 0.808460
vt 0.209560 0.796390
vt 0.209310 0.796960
vt 0.209300 0.795870
vt 0.209560 0.796390
vt 0.209560 0.795310
vt 0.209560 0.796390
vt 0.209300 0.795870
vt 0.209560 0.795310
vt 0.209300 0.794780
vt 0.209560 0.795310
vt 0.209300 0.795870
vt 0.209300 0.794780
vt 0.209040 0.795350
vt 0.209300 0.794780
vt 0.209300 0.795870
vt 0.209040 0.795350
vt 0.209050 0.796440
vt 0.209040 0.795350
vt 0.209300 0.795870
vt 0.209050 0.796440
vt 0.209310 0.796960
vt 0.209050 0.796440
vt 0.209300 0.795870
vt 0.209310 0.796960
vt 0.223590 0.824230
vt 0.216770 0.791520
vt 0.221560 0.793740
vt 0.223590 0.824230
vt 0.223590 0.824230
vt 0.221560 0.793740
vt 0.222350 0.824140
vt 0.223590 0.824230
vt 0.214280 0.806550
vt 0.214540 0.806390
vt 0.214330 0.837320
vt 0.214280 0.806550
vt 0.214070 0.837490
vt 0.214280 0.806550
vt 0.214330 0.837320
vt 0.214070 0.837490
vt 0.222290 0.798140
vt 0.222290 0.799230
vt 0.222070 0.809590
vt 0.222290 0.798140
vt 0.222080 0.808510
vt 0.222290 0.798140
vt 0.222070 0.809590
vt 0.222080 0.808510
vt 0.211930 0.806190
vt 0.212190 0.805980
vt 0.212400 0.836920
vt 0.211930 0.806190
vt 0.212140 0.837120
vt 0.211930 0.806190
vt 0.212400 0.836920
vt 0.212140 0.837120
vt 0.212190 0.805980
vt 0.212450 0.806150
vt 0.212660 0.837080
vt 0.212190 0.805980
vt 0.212400 0.836920
vt 0.212190 0.805980
vt 0.212660 0.837080
vt 0.212400 0.836920
vt 0.209040 0.795350
vt 0.209050 0.796440
vt 0.208830 0.786070
vt 0.209040 0.795350
vt 0.208830 0.784990
vt 0.209040 0.795350
vt 0.208830 0.786070
vt 0.208830 0.784990
vt 0.214020 0.806350
vt 0.214280 0.806550
vt 0.214070 0.837490
vt 0.214020 0.806350
vt 0.213810 0.837290
vt 0.214020 0.806350
vt 0.214070 0.837490
vt 0.213810 0.837290
vt 0.147900 0.912560
vt 0.147900 0.883460
vt 0.164200 0.883460
vt 0.147900 0.912560
vt 0.164200 0.912560
vt 0.147900 0.912560
vt 0.164200 0.883460
vt 0.164200 0.912560
vt 0.165940 0.941670
vt 0.165940 0.908060
vt 0.182240 0.908060
vt 0.165940 0.941670
vt 0.182240 0.941670
vt 0.165940 0.941670
vt 0.182240 0.908060
vt 0.182240 0.941670
vt 0.164200 0.822560
vt 0.164200 0.851660
vt 0.147900 0.851660
vt 0.164200 0.822560
vt 0.147900 0.822560
vt 0.164200 0.822560
vt 0.147900 0.851660
vt 0.147900 0.822560
vt 0.164200 0.851660
vt 0.164200 0.880770
vt 0.147900 0.880770
vt 0.164200 0.851660
vt 0.147900 0.851660
vt 0.164200 0.851660
vt 0.147900 0.880770
vt 0.147900 0.851660
vt 0.165940 0.880770
vt 0.165940 0.847160
vt 0.182240 0.847160
vt 0.165940 0.880770
vt 0.182240 0.880770
vt 0.165940 0.880770
vt 0.182240 0.847160
vt 0.182240 0.880770
vt 0.147900 0.941670
vt 0.147900 0.912560
vt 0.164200 0.912560
vt 0.147900 0.941670
vt 0.164200 0.941670
vt 0.147900 0.941670
vt 0.164200 0.912560
vt 0.164200 0.941670
vt 0.089970 0.880280
vt 0.140660 0.909390
vt 0.089970 0.938490
vt 0.089970 0.880280
vt 0.089970 0.880280
vt 0.089970 0.938490
vt 0.073070 0.909390
vt 0.089970 0.880280
vt 0.140660 0.909390
vt 0.123760 0.938490
vt 0.089970 0.938490
vt 0.140660 0.909390
vt 0.089970 0.880280
vt 0.123760 0.880280
vt 0.140660 0.909390
vt 0.089970 0.880280
vt 0.089060 0.813040
vt 0.122860 0.813040
vt 0.122860 0.871250
vt 0.089060 0.813040
vt 0.072160 0.842140
vt 0.089060 0.813040
vt 0.122860 0.871250
vt 0.072160 0.842140
vt 0.122860 0.871250
vt 0.089060 0.871250
vt 0.072160 0.842140
vt 0.122860 0.871250
vt 0.122860 0.813040
vt 0.139760 0.842140
vt 0.122860 0.871250
vt 0.122860 0.813040
# 304 texture vertices

vn -0.005860 0.454524 -0.890715
vn 0.020246 -0.203607 -0.978843
vn 0.006837 0.152742 -0.988243
vn -0.005860 0.454524 -0.890715
vn -0.005832 0.454513 -0.890721
vn -0.005860 0.454524 -0.890715
vn 0.006837 0.152742 -0.988243
vn -0.005832 0.454513 -0.890721
vn 0.020246 -0.203607 -0.978843
vn 0.030085 -0.499951 -0.865531
vn 0.030059 -0.499943 -0.865537
vn 0.020246 -0.203607 -0.978843
vn 0.006837 0.152742 -0.988243
vn 0.020246 -0.203607 -0.978843
vn 0.030059 -0.499943 -0.865537
vn 0.006837 0.152742 -0.988243
vn 0.037548 -0.998886 0.028591
vn 0.037563 -0.998885 0.028598
vn 0.037548 -0.998886 0.028591
vn 0.037548 -0.998886 0.028591
vn 0.037533 -0.998887 0.028584
vn 0.037548 -0.998886 0.028591
vn 0.037548 -0.998886 0.028591
vn 0.037533 -0.998887 0.028584
vn 0.005838 -0.454500 0.890728
vn -0.020276 0.203628 0.978838
vn -0.006872 -0.152717 0.988246
vn 0.005838 -0.454500 0.890728
vn 0.005833 -0.454502 0.890727
vn 0.005838 -0.454500 0.890728
vn -0.006872 -0.152717 0.988246
vn 0.005833 -0.454502 0.890727
vn -0.020276 0.203628 0.978838
vn -0.030068 0.499958 0.865528
vn -0.030076 0.499954 0.865529
vn -0.020276 0.203628 0.978838
vn -0.006872 -0.152717 0.988246
vn -0.020276 0.203628 0.978838
vn -0.030076 0.499954 0.865529
vn -0.006872 -0.152717 0.988246
vn -0.037563 0.998884 -0.028618
vn -0.037571 0.998884 -0.028615
vn -0.037563 0.998884 -0.028618
vn -0.037563 0.998884 -0.028618
vn -0.037556 0.998885 -0.028622
vn -0.037563 0.998884 -0.028618
vn -0.037563 0.998884 -0.028618
vn -0.037556 0.998885 -0.028622
vn -0.999925 -0.011409 -0.004347
vn -0.999925 -0.011409 -0.004348
vn -0.999925 -0.011408 -0.004347
vn -0.999925 -0.011409 -0.004347
vn -0.999925 -0.011409 -0.004347
vn -0.999925 -0.011408 -0.004347
vn -0.999925 -0.011410 -0.004345
vn -0.999925 -0.011409 -0.004347
vn -0.999925 -0.011409 -0.004348
vn -0.999925 -0.011407 -0.004348
vn -0.999925 -0.011408 -0.004347
vn -0.999925 -0.011409 -0.004348
vn -0.999925 -0.011409 -0.004347
vn -0.999925 -0.011411 -0.004348
vn -0.999925 -0.011409 -0.004348
vn -0.999925 -0.011409 -0.004347
vn 0.999925 0.011407 0.004346
vn 0.999925 0.011408 0.004346
vn 0.999925 0.011408 0.004345
vn 0.999925 0.011407 0.004346
vn 0.999925 0.011407 0.004343
vn 0.999925 0.011407 0.004346
vn 0.999925 0.011408 0.004345
vn 0.999925 0.011407 0.004343
vn 0.999925 0.011408 0.004345
vn 0.999925 0.011407 0.004342
vn 0.999925 0.011407 0.004343
vn 0.999925 0.011408 0.004345
vn 0.999925 0.011408 0.004346
vn 0.999925 0.011409 0.004345
vn 0.999925 0.011408 0.004345
vn 0.999925 0.011408 0.004346
vn -0.999597 -0.027433 -0.007293
vn -0.999597 -0.027443 -0.007310
vn -0.999597 -0.027433 -0.007293
vn -0.999597 -0.027433 -0.007293
vn -0.999597 -0.027423 -0.007275
vn -0.999597 -0.027433 -0.007293
vn -0.999597 -0.027433 -0.007293
vn -0.999597 -0.027423 -0.007275
vn 0.016746 -0.730380 -0.682835
vn 0.015213 -0.564805 -0.825084
vn 0.017461 -0.856089 -0.516533
vn 0.016746 -0.730380 -0.682835
vn 0.017456 -0.856096 -0.516522
vn 0.016746 -0.730380 -0.682835
vn 0.017461 -0.856089 -0.516533
vn 0.017456 -0.856096 -0.516522
vn 0.999597 0.027437 0.007313
vn 0.999597 0.027438 0.007319
vn 0.999597 0.027437 0.007313
vn 0.999597 0.027437 0.007313
vn 0.999597 0.027436 0.007307
vn 0.999597 0.027437 0.007313
vn 0.999597 0.027437 0.007313
vn 0.999597 0.027436 0.007307
vn -0.016067 0.651492 0.758485
vn -0.016062 0.651491 0.758486
vn -0.013075 0.381474 0.924287
vn -0.016067 0.651492 0.758485
vn -0.013083 0.381479 0.924285
vn -0.016067 0.651492 0.758485
vn -0.013075 0.381474 0.924287
vn -0.013083 0.381479 0.924285
vn 0.015213 -0.564805 -0.825084
vn 0.016746 -0.730380 -0.682835
vn 0.013071 -0.381471 -0.924288
vn 0.015213 -0.564805 -0.825084
vn 0.013064 -0.381476 -0.924286
vn 0.015213 -0.564805 -0.825084
vn 0.013071 -0.381471 -0.924288
vn 0.013064 -0.381476 -0.924286
vn -0.021434 0.998929 0.041015
vn -0.021465 0.998930 0.040967
vn -0.021413 0.998930 0.040989
vn -0.021434 0.998929 0.041015
vn -0.021465 0.998930 0.040967
vn -0.021414 0.998931 0.040958
vn -0.021413 0.998930 0.040989
vn -0.021465 0.998930 0.040967
vn -0.021414 0.998931 0.040958
vn -0.021391 0.998930 0.040997
vn -0.021413 0.998930 0.040989
vn -0.021414 0.998931 0.040958
vn -0.021391 0.998930 0.040997
vn -0.021390 0.998930 0.040995
vn -0.021413 0.998930 0.040989
vn -0.021391 0.998930 0.040997
vn -0.021390 0.998930 0.040995
vn -0.021382 0.998930 0.041003
vn -0.021413 0.998930 0.040989
vn -0.021390 0.998930 0.040995
vn -0.021382 0.998930 0.041003
vn -0.021434 0.998929 0.041015
vn -0.021413 0.998930 0.040989
vn -0.021382 0.998930 0.041003
vn 0.021374 -0.998930 -0.041011
vn 0.021372 -0.998931 -0.040995
vn 0.021404 -0.998931 -0.040968
vn 0.021374 -0.998930 -0.041011
vn 0.021410 -0.998930 -0.040982
vn 0.021374 -0.998930 -0.041011
vn 0.021404 -0.998931 -0.040968
vn 0.021410 -0.998930 -0.040982
vn 0.021437 -0.998932 -0.040937
vn 0.021410 -0.998930 -0.040982
vn 0.021404 -0.998931 -0.040968
vn 0.021437 -0.998932 -0.040937
vn 0.021432 -0.998932 -0.040927
vn 0.021437 -0.998932 -0.040937
vn 0.021404 -0.998931 -0.040968
vn 0.021432 -0.998932 -0.040927
vn 0.021402 -0.998932 -0.040956
vn 0.021432 -0.998932 -0.040927
vn 0.021404 -0.998931 -0.040968
vn 0.021402 -0.998932 -0.040956
vn 0.021372 -0.998931 -0.040995
vn 0.021402 -0.998932 -0.040956
vn 0.021404 -0.998931 -0.040968
vn 0.021372 -0.998931 -0.040995
vn -0.016067 0.651492 0.758485
vn -0.017447 0.856092 0.516529
vn -0.017446 0.856094 0.516525
vn -0.016067 0.651492 0.758485
vn -0.016067 0.651492 0.758485
vn -0.017446 0.856094 0.516525
vn -0.016062 0.651491 0.758486
vn -0.016067 0.651492 0.758485
vn 0.511209 0.086302 0.855112
vn 0.511232 0.086300 0.855099
vn 0.511209 0.086302 0.855112
vn 0.511209 0.086302 0.855112
vn 0.511187 0.086304 0.855125
vn 0.511209 0.086302 0.855112
vn 0.511209 0.086302 0.855112
vn 0.511187 0.086304 0.855125
vn 0.999774 0.015502 -0.014573
vn 0.999774 0.015503 -0.014567
vn 0.999774 0.015502 -0.014573
vn 0.999774 0.015502 -0.014573
vn 0.999774 0.015501 -0.014579
vn 0.999774 0.015502 -0.014573
vn 0.999774 0.015502 -0.014573
vn 0.999774 0.015501 -0.014579
vn 0.486042 -0.070965 -0.871049
vn 0.486062 -0.070963 -0.871039
vn 0.486042 -0.070965 -0.871049
vn 0.486042 -0.070965 -0.871049
vn 0.486023 -0.070968 -0.871060
vn 0.486042 -0.070965 -0.871049
vn 0.486042 -0.070965 -0.871049
vn 0.486023 -0.070968 -0.871060
vn -0.511231 -0.086300 -0.855100
vn -0.511244 -0.086301 -0.855092
vn -0.511231 -0.086300 -0.855100
vn -0.511231 -0.086300 -0.855100
vn -0.511218 -0.086300 -0.855107
vn -0.511231 -0.086300 -0.855100
vn -0.511231 -0.086300 -0.855100
vn -0.511218 -0.086300 -0.855107
vn -0.999774 -0.015502 0.014579
vn -0.999774 -0.015502 0.014580
vn -0.999774 -0.015502 0.014579
vn -0.999774 -0.015502 0.014579
vn -0.999774 -0.015502 0.014579
vn -0.999774 -0.015502 0.014579
vn -0.999774 -0.015502 0.014579
vn -0.999774 -0.015502 0.014579
vn -0.486026 0.070968 0.871058
vn -0.486039 0.070968 0.871051
vn -0.486026 0.070968 0.871058
vn -0.486026 0.070968 0.871058
vn -0.486014 0.070968 0.871065
vn -0.486026 0.070968 0.871058
vn -0.486026 0.070968 0.871058
vn -0.486014 0.070968 0.871065
vn -0.005861 0.454524 -0.890715
vn 0.020246 -0.203607 -0.978843
vn 0.006837 0.152742 -0.988243
vn -0.005861 0.454524 -0.890715
vn -0.005832 0.454513 -0.890721
vn -0.005861 0.454524 -0.890715
vn 0.006837 0.152742 -0.988243
vn -0.005832 0.454513 -0.890721
vn 0.020246 -0.203607 -0.978843
vn 0.030085 -0.499951 -0.865531
vn 0.030059 -0.499943 -0.865537
vn 0.020246 -0.203607 -0.978843
vn 0.006837 0.152742 -0.988243
vn 0.020246 -0.203607 -0.978843
vn 0.030059 -0.499943 -0.865537
vn 0.006837 0.152742 -0.988243
vn 0.037548 -0.998886 0.028591
vn 0.037563 -0.998885 0.028598
vn 0.037548 -0.998886 0.028591
vn 0.037548 -0.998886 0.028591
vn 0.037533 -0.998887 0.028584
vn 0.037548 -0.998886 0.028591
vn 0.037548 -0.998886 0.028591
vn 0.037533 -0.998887 0.028584
vn 0.005838 -0.454500 0.890728
vn -0.020276 0.203628 0.978838
vn -0.006872 -0.152717 0.988246
vn 0.005838 -0.454500 0.890728
vn 0.005833 -0.454502 0.890727
vn 0.005838 -0.454500 0.890728
vn -0.006872 -0.152717 0.988246
vn 0.005833 -0.454502 0.890727
vn -0.020276 0.203628 0.978838
vn -0.030068 0.499958 0.865528
vn -0.030076 0.499954 0.865529
vn -0.020276 0.203628 0.978838
vn -0.006872 -0.152717 0.988246
vn -0.020276 0.203628 0.978838
vn -0.030076 0.499954 0.865529
vn -0.006872 -0.152717 0.988246
vn -0.037563 0.998884 -0.028619
vn -0.037571 0.998884 -0.028615
vn -0.037563 0.998884 -0.028619
vn -0.037563 0.998884 -0.028619
vn -0.037556 0.998885 -0.028622
vn -0.037563 0.998884 -0.028619
vn -0.037563 0.998884 -0.028619
vn -0.037556 0.998885 -0.028622
vn -0.999925 -0.011408 -0.004348
vn -0.999925 -0.011407 -0.004346
vn -0.999925 -0.011408 -0.004346
vn -0.999925 -0.011408 -0.004348
vn -0.999925 -0.011408 -0.004348
vn -0.999925 -0.011408 -0.004346
vn -0.999925 -0.011408 -0.004348
vn -0.999925 -0.011408 -0.004348
vn -0.999925 -0.011407 -0.004346
vn -0.999925 -0.011407 -0.004342
vn -0.999925 -0.011408 -0.004346
vn -0.999925 -0.011407 -0.004346
vn -0.999925 -0.011408 -0.004348
vn -0.999925 -0.011407 -0.004349
vn -0.999925 -0.011407 -0.004346
vn -0.999925 -0.011408 -0.004348
vn 0.999925 0.011407 0.004346
vn 0.999925 0.011408 0.004346
vn 0.999925 0.011408 0.004345
vn 0.999925 0.011407 0.004346
vn 0.999925 0.011407 0.004343
vn 0.999925 0.011407 0.004346
vn 0.999925 0.011408 0.004345
vn 0.999925 0.011407 0.004343
vn 0.999925 0.011408 0.004345
vn 0.999925 0.011407 0.004342
vn 0.999925 0.011407 0.004343
vn 0.999925 0.011408 0.004345
vn 0.999925 0.011408 0.004346
vn 0.999925 0.011409 0.004345
vn 0.999925 0.011408 0.004345
vn 0.999925 0.011408 0.004346
# 304 vertex normals

g mat2
f 7/1/1 8/2/2 2/3/3
f 1/5/5 7/6/6 2/7/7
f 8/9/9 9/10/10 3/11/11
f 2/13/13 8/14/14 3/15/15
f 9/17/17 10/18/18 4/19/19
f 3/21/21 9/22/22 4/23/23
f 10/25/25 11/26/26 5/27/27
f 4/29/29 10/30/30 5/31/31
f 11/33/33 12/34/34 6/35/35
f 5/37/37 11/38/38 6/39/39
f 12/41/41 7/42/42 1/43/43
f 6/45/45 12/46/46 1/47/47
f 2/49/49 4/50/50 6/51/51
f 2/53/53 6/54/54 1/55/55
f 4/57/57 5/58/58 6/59/59
f 2/61/61 3/62/62 4/63/63
f 9/65/65 8/66/66 12/67/67
f 10/69/69 9/70/70 12/71/71
f 12/73/73 11/74/74 10/75/75
f 8/77/77 7/78/78 12/79/79
f 16/81/81 18/82/82 17/83/83
f 15/85/85 16/86/86 17/87/87
f 18/89/89 20/90/90 19/91/91
f 17/93/93 18/94/94 19/95/95
f 20/97/97 14/98/98 13/99/99
f 19/101/101 20/102/102 13/103/103
f 13/105/105 15/106/106 17/107/107
f 19/109/109 13/110/110 17/111/111
f 20/113/113 18/114/114 16/115/115
f 14/117/117 20/118/118 16/119/119
f 22/121/121 23/122/122 21/123/123
f 23/125/125 24/126/126 21/127/127
f 24/129/129 25/130/130 21/131/131
f 25/133/133 26/134/134 21/135/135
f 26/137/137 27/138/138 21/139/139
f 27/141/141 22/142/142 21/143/143
f 29/145/145 28/146/146 34/147/147
f 30/149/149 29/150/150 34/151/151
f 31/153/153 30/154/154 34/155/155
f 32/157/157 31/158/158 34/159/159
f 33/161/161 32/162/162 34/163/163
f 28/165/165 33/166/166 34/167/167
f 13/169/169 14/170/170 16/171/171
f 13/173/173 16/174/174 15/175/175
f 28/177/177 29/178/178 23/179/179
f 22/181/181 28/182/182 23/183/183
f 29/185/185 30/186/186 24/187/187
f 23/189/189 29/190/190 24/191/191
f 30/193/193 31/194/194 25/195/195
f 24/197/197 30/198/198 25/199/199
f 31/201/201 32/202/202 26/203/203
f 25/205/205 31/206/206 26/207/207
f 32/209/209 33/210/210 27/211/211
f 26/213/213 32/214/214 27/215/215
f 33/217/217 28/218/218 22/219/219
f 27/221/221 33/222/222 22/223/223
f 41/225/225 42/226/226 36/227/227
f 35/229/229 41/230/230 36/231/231
f 42/233/233 43/234/234 37/235/235
f 36/237/237 42/238/238 37/239/239
f 43/241/241 44/242/242 38/243/243
f 37/245/245 43/246/246 38/247/247
f 44/249/249 45/250/250 39/251/251
f 38/253/253 44/254/254 39/255/255
f 45/257/257 46/258/258 40/259/259
f 39/261/261 45/262/262 40/263/263
f 46/265/265 41/266/266 35/267/267
f 40/269/269 46/270/270 35/271/271
f 36/273/273 38/274/274 40/275/275
f 36/277/277 40/278/278 35/279/279
f 38/281/281 39/282/282 40/283/283
f 36/285/285 37/286/286 38/287/287
f 43/289/289 42/290/290 46/291/291
f 44/293/293 43/294/294 46/295/295
f 46/297/297 45/298/298 44/299/299
f 42/301/301 41/302/302 46/303/303
# 76 elements

