# Created by 3DAce v2.72


g
v -0.119837 1.509555 -0.263844
v -0.171542 1.511069 -0.264656
v -0.136773 1.520846 -2.400121
v -0.202070 1.529744 -2.397833
v -0.080947 1.781418 -0.263524
v -0.111470 1.775654 -0.265149
v -0.147021 1.770611 -2.399751
v -0.104446 1.774616 -2.399620
v -0.119837 1.509555 -0.263844
v -0.171542 1.511069 -0.264656
v -0.136773 1.520846 -2.400121
v -0.202070 1.529744 -2.397833
v -0.080947 1.781418 -0.263524
v -0.111470 1.775654 -0.265149
v -0.147021 1.770611 -2.399751
v -0.104446 1.774616 -2.399620
# 16 vertices

vt 0.000000 1.000000
vt 0.000000 1.000000
vt 0.000000 1.000000
vt 0.000000 1.000000
vt 0.000000 1.000000
vt 0.000000 1.000000
vt 0.000000 1.000000
vt 0.000000 1.000000
vt 0.000000 1.000000
vt 0.000000 1.000000
vt 0.000000 1.000000
vt 0.000000 1.000000
vt 0.000000 1.000000
vt 0.000000 1.000000
vt 0.000000 1.000000
vt 0.000000 1.000000
vt 0.000000 1.000000
vt 0.000000 1.000000
vt 0.000000 1.000000
vt 0.000000 1.000000
vt 0.000000 1.000000
vt 0.000000 1.000000
vt 0.000000 1.000000
vt 0.000000 1.000000
vt 0.000000 1.000000
vt 0.000000 1.000000
vt 0.000000 1.000000
vt 0.000000 1.000000
vt 0.000000 1.000000
vt 0.000000 1.000000
vt 0.000000 1.000000
vt 0.000000 1.000000
vt 0.000000 1.000000
vt 0.000000 1.000000
vt 0.000000 1.000000
vt 0.000000 1.000000
vt 0.000000 1.000000
vt 0.000000 1.000000
vt 0.000000 1.000000
vt 0.000000 1.000000
vt 0.000000 1.000000
vt 0.000000 1.000000
vt 0.000000 1.000000
vt 0.000000 1.000000
vt 0.000000 1.000000
vt 0.000000 1.000000
vt 0.000000 1.000000
vt 0.000000 1.000000
vt 0.000000 1.000000
vt 0.000000 1.000000
vt 0.000000 1.000000
vt 0.000000 1.000000
vt 0.000000 1.000000
vt 0.000000 1.000000
vt 0.000000 1.000000
vt 0.000000 1.000000
vt 0.000000 1.000000
vt 0.000000 1.000000
vt 0.000000 1.000000
vt 0.000000 1.000000
vt 0.000000 1.000000
vt 0.000000 1.000000
vt 0.000000 1.000000
vt 0.000000 1.000000
vt 0.000000 1.000000
vt 0.000000 1.000000
vt 0.000000 1.000000
vt 0.000000 1.000000
vt 0.000000 1.000000
vt 0.000000 1.000000
vt 0.000000 1.000000
vt 0.000000 1.000000
vt 0.000000 1.000000
vt 0.000000 1.000000
vt 0.000000 1.000000
vt 0.000000 1.000000
vt 0.000000 1.000000
vt 0.000000 1.000000
vt 0.000000 1.000000
vt 0.000000 1.000000
vt 0.000000 1.000000
vt 0.000000 1.000000
vt 0.000000 1.000000
vt 0.000000 1.000000
vt 0.000000 1.000000
vt 0.000000 1.000000
vt 0.000000 1.000000
vt 0.000000 1.000000
vt 0.000000 1.000000
vt 0.000000 1.000000
vt 0.000000 1.000000
vt 0.000000 1.000000
vt 0.000000 1.000000
vt 0.000000 1.000000
vt 0.000000 1.000000
vt 0.000000 1.000000
vt 0.000000 1.000000
vt 0.000000 1.000000
vt 0.000000 1.000000
vt 0.000000 1.000000
vt 0.000000 1.000000
vt 0.000000 1.000000
vt 0.000000 1.000000
vt 0.000000 1.000000
# 104 texture vertices

vn -0.139776 0.990183 -0.000686
vn -0.139776 0.990183 -0.000686
vn -0.185601 0.982625 0.000770
vn -0.139776 0.990183 -0.000686
vn -0.139776 0.990183 -0.000686
vn -0.033396 0.997590 0.060815
vn -0.139776 0.990183 -0.000686
vn -0.139776 0.990183 -0.000686
vn -0.015129 -0.001266 -0.999885
vn -0.015129 -0.001266 -0.999885
vn 0.003907 -0.008856 -0.999953
vn -0.015129 -0.001266 -0.999885
vn -0.015129 -0.001266 -0.999885
vn -0.034159 0.006324 -0.999397
vn -0.015129 -0.001266 -0.999885
vn -0.015129 -0.001266 -0.999885
vn -0.974884 0.222150 0.015808
vn -0.974713 0.222893 0.015900
vn -0.974884 0.222150 0.015808
vn -0.974884 0.222150 0.015808
vn -0.975055 0.221408 0.015716
vn -0.974884 0.222150 0.015808
vn -0.974884 0.222150 0.015808
vn -0.975055 0.221408 0.015716
vn 0.990940 -0.133971 -0.009485
vn 0.991950 -0.126345 -0.008532
vn 0.990940 -0.133971 -0.009485
vn 0.990940 -0.133971 -0.009485
vn -0.033396 0.997590 0.060815
vn 0.027110 0.991998 0.123307
vn 0.027110 0.991998 0.123307
vn -0.033396 0.997590 0.060815
vn 0.989871 -0.141589 -0.010439
vn 0.990940 -0.133971 -0.009485
vn 0.990940 -0.133971 -0.009485
vn 0.989871 -0.141589 -0.010439
vn -0.035792 0.007810 0.999329
vn -0.055898 0.014551 0.998330
vn -0.035792 0.007810 0.999329
vn -0.035792 0.007810 0.999329
vn -0.035792 0.007810 0.999329
vn -0.015671 0.001065 0.999877
vn -0.035792 0.007810 0.999329
vn -0.035792 0.007810 0.999329
vn -0.082336 -0.996587 -0.005903
vn -0.029189 -0.999561 -0.005052
vn -0.082336 -0.996587 -0.005903
vn -0.082336 -0.996587 -0.005903
vn -0.082336 -0.996587 -0.005903
vn -0.135251 -0.990788 -0.006738
vn -0.082336 -0.996587 -0.005903
vn -0.082336 -0.996587 -0.005903
vn -0.139776 0.990183 -0.000686
vn -0.139776 0.990183 -0.000686
vn -0.185601 0.982625 0.000770
vn -0.139776 0.990183 -0.000686
vn -0.139776 0.990183 -0.000686
vn -0.033396 0.997590 0.060815
vn -0.139776 0.990183 -0.000686
vn -0.139776 0.990183 -0.000686
vn -0.015129 -0.001266 -0.999885
vn -0.015129 -0.001266 -0.999885
vn 0.003907 -0.008856 -0.999953
vn -0.015129 -0.001266 -0.999885
vn -0.015129 -0.001266 -0.999885
vn -0.034159 0.006324 -0.999397
vn -0.015129 -0.001266 -0.999885
vn -0.015129 -0.001266 -0.999885
vn -0.974884 0.222150 0.015808
vn -0.974713 0.222893 0.015900
vn -0.974884 0.222150 0.015808
vn -0.974884 0.222150 0.015808
vn -0.975055 0.221408 0.015716
vn -0.974884 0.222150 0.015808
vn -0.974884 0.222150 0.015808
vn -0.975055 0.221408 0.015716
vn 0.990940 -0.133971 -0.009485
vn 0.991950 -0.126345 -0.008532
vn 0.990940 -0.133971 -0.009485
vn 0.990940 -0.133971 -0.009485
vn -0.033396 0.997590 0.060815
vn 0.027110 0.991998 0.123307
vn 0.027110 0.991998 0.123307
vn -0.033396 0.997590 0.060815
vn 0.989871 -0.141589 -0.010439
vn 0.990940 -0.133971 -0.009485
vn 0.990940 -0.133971 -0.009485
vn 0.989871 -0.141589 -0.010439
vn -0.035792 0.007810 0.999329
vn -0.055898 0.014551 0.998330
vn -0.035792 0.007810 0.999329
vn -0.035792 0.007810 0.999329
vn -0.035792 0.007810 0.999329
vn -0.015671 0.001065 0.999877
vn -0.035792 0.007810 0.999329
vn -0.035792 0.007810 0.999329
vn -0.082336 -0.996587 -0.005903
vn -0.029189 -0.999561 -0.005052
vn -0.082336 -0.996587 -0.005903
vn -0.082336 -0.996587 -0.005903
vn -0.082336 -0.996587 -0.005903
vn -0.135251 -0.990788 -0.006738
vn -0.082336 -0.996587 -0.005903
vn -0.082336 -0.996587 -0.005903
# 104 vertex normals

g mat2
f 5/1/1 7/2/2 6/3/3
f 5/5/5 8/6/6 7/7/7
f 8/9/9 4/10/10 7/11/11
f 8/13/13 3/14/14 4/15/15
f 7/17/17 4/18/18 2/19/19
f 6/21/21 7/22/22 2/23/23
f 1/25/25 3/26/26 8/27/27
f 8/29/29 2/30/30 1/31/31
f 5/33/33 1/34/34 8/35/35
f 5/37/37 6/38/38 2/39/39
f 2/41/41 1/42/42 5/43/43
f 3/45/45 1/46/46 2/47/47
f 2/49/49 4/50/50 3/51/51
f 13/53/53 15/54/54 14/55/55
f 13/57/57 16/58/58 15/59/59
f 16/61/61 12/62/62 15/63/63
f 16/65/65 11/66/66 12/67/67
f 15/69/69 12/70/70 10/71/71
f 14/73/73 15/74/74 10/75/75
f 9/77/77 11/78/78 16/79/79
f 16/81/81 10/82/82 9/83/83
f 13/85/85 9/86/86 16/87/87
f 13/89/89 14/90/90 10/91/91
f 10/93/93 9/94/94 13/95/95
f 11/97/97 9/98/98 10/99/99
f 10/101/101 12/102/102 11/103/103
# 26 elements

