# Created by Metasequoia

v 0.055176 1.248297 -3.361032
v 1.819932 -0.175848 -3.361032
v 0.211583 1.343904 -3.361032
v 1.821634 -0.011861 -3.361032
v 0.211583 1.343904 -3.499965
v 1.821634 -0.011861 -3.499965
v 0.055176 1.248297 -3.499965
v 1.819932 -0.175848 -3.499965
v 2.085047 -0.084522 -3.413151
v 2.085047 -0.084522 -3.159081
v 2.085047 -0.298659 -3.286116
v 2.085047 -0.298659 -3.540187
v 2.085047 -0.084522 -3.667223
v 2.085047 0.129611 -3.540187
v 2.085047 0.129611 -3.286116
v 1.830430 -0.084522 -3.159081
v 1.830430 -0.298658 -3.286116
v 1.830430 -0.298658 -3.540187
v 1.830430 -0.084522 -3.667223
v 1.830430 0.129611 -3.540187
v 1.830430 0.129611 -3.286116
v 1.830430 -0.084522 -3.413151
# 22 vertices

vt 0.24888 0.50645
vt 0.25126 0.31580
vt 0.26592 0.50645
vt 0.27131 0.31580
vt 0.03923 0.34829
vt 0.05207 0.32034
vt 0.06838 0.34711
vt 0.08322 0.32034
vt 0.09880 0.34660
vt 0.08517 0.37410
vt 0.05454 0.37410
# 11 texture vertices

vn 0.00000 0.00000 1.00000
vn 0.64412 0.76493 0.00000
vn 0.00000 0.00000 -1.00000
vn 1.00000 0.00000 0.00000
vn -1.00000 0.00000 0.00000
vn -0.62801 -0.77821 0.00000
vn -0.00000 -0.76143 0.64824
vn -0.00000 -0.94602 0.32412
vn -0.00000 -0.51022 0.86005
vn 0.00000 -0.51022 0.86005
vn -0.00000 -0.94602 -0.32412
vn -0.00000 -0.76143 -0.64824
vn -0.00000 -0.51022 -0.86004
vn 0.00000 -0.51022 -0.86004
vn 0.00000 0.76144 -0.64824
vn 0.00000 0.94602 -0.32412
vn 0.00000 0.51023 -0.86004
vn 0.00000 0.51023 -0.86004
vn 0.00000 0.94602 0.32412
vn 0.00000 0.76144 0.64824
vn 0.00000 0.51022 0.86004
vn -0.52155 0.85322 0.00000
# 22 normal vertices

f 2/2/1 4/2/1 3/1/1
f 1/1/1 2/2/1 3/1/1
f 4/2/2 6/4/2 5/3/2
f 3/1/2 4/2/2 5/3/2
f 6/4/3 8/4/3 7/3/3
f 5/3/3 6/4/3 7/3/3
f 8/4/6 2/2/6 1/1/6
f 7/3/6 8/4/6 1/1/6
f 10/7/4 11/6/4 9/5/4
f 11/7/4 12/8/4 9/6/4
f 12/7/4 13/9/4 9/8/4
f 13/7/4 14/10/4 9/9/4
f 14/7/4 15/11/4 9/10/4
f 15/7/4 10/5/4 9/11/4
f 17/7/5 16/5/5 22/6/5
f 18/7/5 17/6/5 22/8/5
f 19/7/5 18/8/5 22/9/5
f 20/7/5 19/9/5 22/10/5
f 21/7/5 20/10/5 22/11/5
f 16/7/5 21/11/5 22/5/5
f 16/6/9 17/6/8 11/5/7
f 10/6/10 16/5/9 11/5/7
f 17/8/8 18/8/12 12/6/11
f 11/8/7 17/6/8 12/6/11
f 18/9/12 19/9/14 13/8/13
f 12/9/11 18/8/12 13/8/13
f 19/10/17 20/10/16 14/9/15
f 13/10/18 19/9/17 14/9/15
f 20/11/16 21/11/20 15/10/19
f 14/11/15 20/10/16 15/10/19
f 21/5/20 16/5/21 10/11/21
f 15/5/19 21/11/20 10/11/21
f 7/3/22 1/1/22 3/1/22
f 3/1/22 5/3/22 7/3/22
# 34 elements

