# Created by Metasequoia

v -0.156987 2.187010 -8.177300
v -0.059955 1.492318 -8.177300
v 0.155071 2.187010 -8.177300
v 0.058038 1.492318 -8.177300
v 0.001162 2.866745 -8.177299
v 0.000113 1.492318 -8.150234
v 0.000113 1.492318 -8.204365
v -0.133108 2.558412 -8.177300
v 0.135147 2.555687 -8.177300
v 0.001172 2.557048 -8.204365
v 0.002044 2.555098 -8.151215
# 11 vertices

vt 0.97068 0.87428
vt 0.96587 0.87430
vt 0.96590 0.87426
vt 0.96092 0.87428
vt 0.96596 0.96229
vt 0.96598 0.98792
vt 0.95487 0.96243
vt 0.97705 0.96220
vt 0.95290 0.93172
vt 0.97870 0.93172
vt 0.96606 0.96218
# 11 texture vertices

vn -0.25649 -0.01474 0.96644
vn 0.00000 -1.00000 0.00000
vn 0.26347 -0.01614 0.96453
vn 0.00107 0.08706 -0.99620
vn -0.19687 0.04906 -0.97920
vn 0.19826 0.04806 -0.97897
vn 0.00111 0.03297 -0.99946
vn 0.00208 0.03192 0.99949
vn 0.00457 -0.03022 0.99953
vn -0.41014 -0.05729 0.91022
vn 0.42259 -0.05903 0.90440
vn 0.00428 -0.03071 -0.99952
vn 0.42258 -0.05903 -0.90440
vn 0.26649 -0.01629 -0.96370
vn -0.26067 -0.01491 -0.96531
vn -0.41013 -0.05729 -0.91023
vn 0.00222 0.08341 0.99651
vn -0.18819 0.04682 0.98102
vn 0.19191 0.04643 0.98031
# 19 normal vertices

f 6/3/2 7/2/2 4/1/2
f 7/2/2 6/3/2 2/4/2
f 8/7/5 5/6/4 10/5/7
f 10/5/7 5/6/4 9/8/6
f 2/4/10 6/3/9 1/9/1
f 4/1/11 3/10/3 6/3/9
f 3/10/14 4/1/13 7/2/12
f 7/2/12 2/4/16 1/9/15
f 8/7/18 11/11/8 5/6/17
f 11/11/8 9/8/19 5/6/17
f 11/11/8 8/7/18 1/9/1
f 11/11/8 1/9/1 6/3/9
f 6/3/9 3/10/3 11/11/8
f 3/10/3 9/8/19 11/11/8
f 10/5/7 9/8/6 3/10/14
f 8/7/5 10/5/7 1/9/15
f 10/5/7 3/10/14 7/2/12
f 7/2/12 1/9/15 10/5/7
# 18 elements

