# Created by 3DAce v2.72


g
v -0.000060 0.951775 1.221906
v 0.039010 0.951775 1.154227
v -0.039140 0.951775 1.154227
v -0.000060 0.006905 1.221906
v 0.039010 0.006905 1.154227
v -0.039140 0.006905 1.154227
v -0.064710 -0.075666 1.190376
v -0.064710 0.025685 1.248897
v -0.064710 0.025685 1.131857
v 0.065610 -0.075666 1.190376
v 0.065610 0.025695 1.248897
v 0.065610 0.025695 1.131857
v 0.269710 -0.024215 1.190746
v 0.269710 -0.024215 1.514156
v 0.269710 -0.304285 1.352457
v 0.269710 -0.304285 1.029047
v 0.269710 -0.024215 0.867367
v 0.269710 0.255865 1.029047
v 0.269710 0.255865 1.352457
v 0.051830 -0.024215 1.514156
v 0.051830 -0.304285 1.352457
v 0.051830 -0.304285 1.029047
v 0.051830 -0.024215 0.867367
v 0.051830 0.255865 1.029047
v 0.051830 0.255865 1.352457
v 0.051830 -0.024215 1.190746
v -0.269710 -0.024215 1.190746
v -0.269710 -0.024215 1.514156
v -0.269710 -0.304285 1.352457
v -0.269710 -0.304285 1.029047
v -0.269710 -0.024215 0.867367
v -0.269710 0.255865 1.029047
v -0.269710 0.255865 1.352457
v -0.051830 -0.024215 1.514156
v -0.051830 -0.304285 1.352457
v -0.051830 -0.304285 1.029047
v -0.051830 -0.024215 0.867367
v -0.051830 0.255865 1.029047
v -0.051830 0.255865 1.352457
v -0.051830 -0.024215 1.190746
# 40 vertices

vt 0.007820 0.054700
vt 0.007820 0.061510
vt 0.096670 0.061510
vt 0.007820 0.054700
vt 0.096670 0.054700
vt 0.007820 0.054700
vt 0.096670 0.061510
vt 0.096670 0.054700
vt 0.007820 0.061510
vt 0.007820 0.054700
vt 0.096670 0.054700
vt 0.007820 0.061510
vt 0.096670 0.061510
vt 0.007820 0.061510
vt 0.096670 0.054700
vt 0.096670 0.061510
vt 0.007820 0.054700
vt 0.007820 0.061510
vt 0.096670 0.061510
vt 0.007820 0.054700
vt 0.096670 0.054700
vt 0.007820 0.054700
vt 0.096670 0.061510
vt 0.096670 0.054700
vt 0.062500 0.039030
vt 0.062500 0.031280
vt 0.054770 0.031280
vt 0.062500 0.039030
vt 0.054770 0.039030
vt 0.062500 0.039030
vt 0.054770 0.031280
vt 0.054770 0.039030
vt 0.062500 0.031280
vt 0.062500 0.039030
vt 0.054770 0.039030
vt 0.062500 0.031280
vt 0.054770 0.031280
vt 0.062500 0.031280
vt 0.054770 0.039030
vt 0.054770 0.031280
vt 0.062500 0.039030
vt 0.062500 0.031280
vt 0.054770 0.031280
vt 0.062500 0.039030
vt 0.054770 0.039030
vt 0.062500 0.039030
vt 0.054770 0.031280
vt 0.054770 0.039030
vt 0.004920 0.025880
vt 0.015890 0.006880
vt 0.026860 0.025880
vt 0.004920 0.025880
vt 0.015890 0.006880
vt 0.037830 0.006880
vt 0.026860 0.025880
vt 0.015890 0.006880
vt 0.037830 0.006880
vt 0.048790 0.025880
vt 0.026860 0.025880
vt 0.037830 0.006880
vt 0.048790 0.025880
vt 0.037830 0.044870
vt 0.026860 0.025880
vt 0.048790 0.025880
vt 0.037830 0.044870
vt 0.015890 0.044870
vt 0.026860 0.025880
vt 0.037830 0.044870
vt 0.015890 0.044870
vt 0.004920 0.025880
vt 0.026860 0.025880
vt 0.015890 0.044870
vt 0.015890 0.006880
vt 0.004920 0.025880
vt 0.026860 0.025880
vt 0.015890 0.006880
vt 0.037830 0.006880
vt 0.015890 0.006880
vt 0.026860 0.025880
vt 0.037830 0.006880
vt 0.048790 0.025880
vt 0.037830 0.006880
vt 0.026860 0.025880
vt 0.048790 0.025880
vt 0.037830 0.044870
vt 0.048790 0.025880
vt 0.026860 0.025880
vt 0.037830 0.044870
vt 0.015890 0.044870
vt 0.037830 0.044870
vt 0.026860 0.025880
vt 0.015890 0.044870
vt 0.004920 0.025880
vt 0.015890 0.044870
vt 0.026860 0.025880
vt 0.004920 0.025880
vt 0.078110 0.022450
vt 0.054690 0.022450
vt 0.054690 0.006840
vt 0.078110 0.022450
vt 0.078110 0.006840
vt 0.078110 0.022450
vt 0.054690 0.006840
vt 0.078110 0.006840
vt 0.054690 0.022450
vt 0.078110 0.022450
vt 0.078110 0.006840
vt 0.054690 0.022450
vt 0.054690 0.006840
vt 0.054690 0.022450
vt 0.078110 0.006840
vt 0.054690 0.006840
vt 0.078110 0.022450
vt 0.054690 0.022450
vt 0.054690 0.006840
vt 0.078110 0.022450
vt 0.078110 0.006840
vt 0.078110 0.022450
vt 0.054690 0.006840
vt 0.078110 0.006840
vt 0.054690 0.022450
vt 0.078110 0.022450
vt 0.078110 0.006840
vt 0.054690 0.022450
vt 0.054690 0.006840
vt 0.054690 0.022450
vt 0.078110 0.006840
vt 0.054690 0.006840
vt 0.078110 0.022450
vt 0.054690 0.022450
vt 0.054690 0.006840
vt 0.078110 0.022450
vt 0.078110 0.006840
vt 0.078110 0.022450
vt 0.054690 0.006840
vt 0.078110 0.006840
vt 0.054690 0.022450
vt 0.078110 0.022450
vt 0.078110 0.006840
vt 0.054690 0.022450
vt 0.054690 0.006840
vt 0.054690 0.022450
vt 0.078110 0.006840
vt 0.054690 0.006840
vt 0.004920 0.025880
vt 0.026860 0.025880
vt 0.015890 0.006880
vt 0.004920 0.025880
vt 0.015890 0.006880
vt 0.026860 0.025880
vt 0.037830 0.006880
vt 0.015890 0.006880
vt 0.037830 0.006880
vt 0.026860 0.025880
vt 0.048790 0.025880
vt 0.037830 0.006880
vt 0.048790 0.025880
vt 0.026860 0.025880
vt 0.037830 0.044870
vt 0.048790 0.025880
vt 0.037830 0.044870
vt 0.026860 0.025880
vt 0.015890 0.044870
vt 0.037830 0.044870
vt 0.015890 0.044870
vt 0.026860 0.025880
vt 0.004920 0.025880
vt 0.015890 0.044870
vt 0.015890 0.006880
vt 0.026860 0.025880
vt 0.004920 0.025880
vt 0.015890 0.006880
vt 0.037830 0.006880
vt 0.026860 0.025880
vt 0.015890 0.006880
vt 0.037830 0.006880
vt 0.048790 0.025880
vt 0.026860 0.025880
vt 0.037830 0.006880
vt 0.048790 0.025880
vt 0.037830 0.044870
vt 0.026860 0.025880
vt 0.048790 0.025880
vt 0.037830 0.044870
vt 0.015890 0.044870
vt 0.026860 0.025880
vt 0.037830 0.044870
vt 0.015890 0.044870
vt 0.004920 0.025880
vt 0.026860 0.025880
vt 0.015890 0.044870
vt 0.004920 0.025880
vt 0.078110 0.022450
vt 0.054690 0.006840
vt 0.054690 0.022450
vt 0.078110 0.022450
vt 0.078110 0.006840
vt 0.054690 0.006840
vt 0.078110 0.022450
vt 0.078110 0.006840
vt 0.054690 0.022450
vt 0.078110 0.006840
vt 0.078110 0.022450
vt 0.054690 0.022450
vt 0.054690 0.006840
vt 0.078110 0.006840
vt 0.054690 0.022450
vt 0.054690 0.006840
vt 0.078110 0.022450
vt 0.054690 0.006840
vt 0.054690 0.022450
vt 0.078110 0.022450
vt 0.078110 0.006840
vt 0.054690 0.006840
vt 0.078110 0.022450
vt 0.078110 0.006840
vt 0.054690 0.022450
vt 0.078110 0.006840
vt 0.078110 0.022450
vt 0.054690 0.022450
vt 0.054690 0.006840
vt 0.078110 0.006840
vt 0.054690 0.022450
vt 0.054690 0.006840
vt 0.078110 0.022450
vt 0.054690 0.006840
vt 0.054690 0.022450
vt 0.078110 0.022450
vt 0.078110 0.006840
vt 0.054690 0.006840
vt 0.078110 0.022450
vt 0.078110 0.006840
vt 0.054690 0.022450
vt 0.078110 0.006840
vt 0.078110 0.022450
vt 0.054690 0.022450
vt 0.054690 0.006840
vt 0.078110 0.006840
vt 0.054690 0.022450
vt 0.054690 0.006840
# 240 texture vertices

vn 0.866050 0.000000 0.499957
vn 0.866050 0.000000 0.499957
vn 0.866050 0.000000 0.499957
vn 0.866050 0.000000 0.499957
vn 0.866050 -0.000000 0.499957
vn 0.866050 0.000000 0.499957
vn 0.866050 0.000000 0.499957
vn 0.866050 -0.000000 0.499957
vn 0.000000 0.000000 -1.000000
vn 0.000000 0.000000 -1.000000
vn 0.000000 0.000000 -1.000000
vn 0.000000 0.000000 -1.000000
vn 0.000000 0.000000 -1.000000
vn 0.000000 0.000000 -1.000000
vn 0.000000 0.000000 -1.000000
vn 0.000000 0.000000 -1.000000
vn -0.865995 0.000000 0.500053
vn -0.865995 0.000000 0.500053
vn -0.865995 0.000000 0.500053
vn -0.865995 0.000000 0.500053
vn -0.865995 0.000000 0.500053
vn -0.865995 0.000000 0.500053
vn -0.865995 0.000000 0.500053
vn -0.865995 0.000000 0.500053
vn 0.000019 -0.500020 0.866014
vn 0.000038 -0.500002 0.866025
vn 0.000019 -0.500020 0.866014
vn 0.000019 -0.500020 0.866014
vn 0.000000 -0.500039 0.866003
vn 0.000019 -0.500020 0.866014
vn 0.000019 -0.500020 0.866014
vn 0.000000 -0.500039 0.866003
vn -0.000077 1.000000 0.000000
vn -0.000077 1.000000 0.000000
vn -0.000077 1.000000 0.000000
vn -0.000077 1.000000 0.000000
vn -0.000077 1.000000 0.000000
vn -0.000077 1.000000 0.000000
vn -0.000077 1.000000 0.000000
vn -0.000077 1.000000 0.000000
vn 0.000019 -0.500007 -0.866021
vn 0.000000 -0.499989 -0.866032
vn 0.000019 -0.500007 -0.866021
vn 0.000019 -0.500007 -0.866021
vn 0.000038 -0.500026 -0.866011
vn 0.000019 -0.500007 -0.866021
vn 0.000019 -0.500007 -0.866021
vn 0.000038 -0.500026 -0.866011
vn 1.000000 0.000000 0.000000
vn 1.000000 0.000000 -0.000000
vn 1.000000 0.000000 0.000000
vn 1.000000 0.000000 0.000000
vn 1.000000 0.000000 -0.000000
vn 1.000000 0.000000 0.000000
vn 1.000000 0.000000 0.000000
vn 1.000000 0.000000 -0.000000
vn 1.000000 0.000000 0.000000
vn 1.000000 0.000000 0.000000
vn 1.000000 0.000000 0.000000
vn 1.000000 0.000000 0.000000
vn 1.000000 0.000000 0.000000
vn 1.000000 0.000000 0.000000
vn 1.000000 0.000000 0.000000
vn 1.000000 0.000000 0.000000
vn 1.000000 0.000000 0.000000
vn 1.000000 -0.000000 0.000000
vn 1.000000 0.000000 0.000000
vn 1.000000 0.000000 0.000000
vn 1.000000 -0.000000 0.000000
vn 1.000000 0.000000 0.000000
vn 1.000000 0.000000 0.000000
vn 1.000000 -0.000000 0.000000
vn -1.000000 -0.000000 0.000000
vn -1.000000 0.000000 0.000000
vn -1.000000 0.000000 0.000000
vn -1.000000 -0.000000 0.000000
vn -1.000000 0.000000 -0.000000
vn -1.000000 -0.000000 0.000000
vn -1.000000 0.000000 0.000000
vn -1.000000 0.000000 -0.000000
vn -1.000000 0.000000 0.000000
vn -1.000000 0.000000 -0.000000
vn -1.000000 0.000000 0.000000
vn -1.000000 0.000000 0.000000
vn -1.000000 0.000000 0.000000
vn -1.000000 0.000000 0.000000
vn -1.000000 0.000000 0.000000
vn -1.000000 0.000000 0.000000
vn -1.000000 0.000000 0.000000
vn -1.000000 0.000000 0.000000
vn -1.000000 0.000000 0.000000
vn -1.000000 0.000000 0.000000
vn -1.000000 0.000000 0.000000
vn -1.000000 0.000000 0.000000
vn -1.000000 0.000000 0.000000
vn -1.000000 0.000000 0.000000
vn 0.000000 -0.500001 0.866025
vn 0.000000 -0.500001 0.866025
vn 0.000000 -0.500001 0.866025
vn 0.000000 -0.500001 0.866025
vn 0.000000 -0.500001 0.866025
vn 0.000000 -0.500001 0.866025
vn 0.000000 -0.500001 0.866025
vn 0.000000 -0.500001 0.866025
vn 0.000000 -1.000000 0.000000
vn 0.000000 -1.000000 0.000000
vn 0.000000 -1.000000 0.000000
vn 0.000000 -1.000000 0.000000
vn 0.000000 -1.000000 0.000000
vn 0.000000 -1.000000 0.000000
vn 0.000000 -1.000000 0.000000
vn 0.000000 -1.000000 0.000000
vn 0.000000 -0.499957 -0.866050
vn -0.000000 -0.499957 -0.866050
vn 0.000000 -0.499957 -0.866050
vn 0.000000 -0.499957 -0.866050
vn 0.000000 -0.499957 -0.866050
vn 0.000000 -0.499957 -0.866050
vn 0.000000 -0.499957 -0.866050
vn 0.000000 -0.499957 -0.866050
vn 0.000000 0.499944 -0.866058
vn 0.000000 0.499944 -0.866058
vn 0.000000 0.499944 -0.866058
vn 0.000000 0.499944 -0.866058
vn 0.000000 0.499944 -0.866058
vn 0.000000 0.499944 -0.866058
vn 0.000000 0.499944 -0.866058
vn 0.000000 0.499944 -0.866058
vn 0.000000 1.000000 0.000000
vn 0.000000 1.000000 0.000000
vn 0.000000 1.000000 0.000000
vn 0.000000 1.000000 0.000000
vn -0.000000 1.000000 0.000000
vn 0.000000 1.000000 0.000000
vn 0.000000 1.000000 0.000000
vn -0.000000 1.000000 0.000000
vn 0.000000 0.499988 0.866032
vn 0.000000 0.499988 0.866032
vn 0.000000 0.499988 0.866032
vn 0.000000 0.499988 0.866032
vn -0.000000 0.499988 0.866032
vn 0.000000 0.499988 0.866032
vn 0.000000 0.499988 0.866032
vn -0.000000 0.499988 0.866032
vn -1.000000 0.000000 0.000000
vn -1.000000 0.000000 0.000000
vn -1.000000 0.000000 0.000000
vn -1.000000 0.000000 0.000000
vn -1.000000 0.000000 0.000000
vn -1.000000 0.000000 0.000000
vn -1.000000 0.000000 0.000000
vn -1.000000 0.000000 0.000000
vn -1.000000 0.000000 0.000000
vn -1.000000 0.000000 0.000000
vn -1.000000 -0.000000 0.000000
vn -1.000000 0.000000 0.000000
vn -1.000000 -0.000000 0.000000
vn -1.000000 0.000000 0.000000
vn -1.000000 0.000000 -0.000000
vn -1.000000 -0.000000 0.000000
vn -1.000000 0.000000 -0.000000
vn -1.000000 0.000000 0.000000
vn -1.000000 0.000000 0.000000
vn -1.000000 0.000000 -0.000000
vn -1.000000 0.000000 0.000000
vn -1.000000 0.000000 0.000000
vn -1.000000 0.000000 0.000000
vn -1.000000 0.000000 0.000000
vn 1.000000 0.000000 0.000000
vn 1.000000 0.000000 0.000000
vn 1.000000 0.000000 0.000000
vn 1.000000 0.000000 0.000000
vn 1.000000 0.000000 0.000000
vn 1.000000 0.000000 0.000000
vn 1.000000 0.000000 0.000000
vn 1.000000 0.000000 0.000000
vn 1.000000 -0.000000 0.000000
vn 1.000000 0.000000 0.000000
vn 1.000000 0.000000 0.000000
vn 1.000000 -0.000000 0.000000
vn 1.000000 0.000000 0.000000
vn 1.000000 0.000000 0.000000
vn 1.000000 -0.000000 0.000000
vn 1.000000 0.000000 0.000000
vn 1.000000 0.000000 -0.000000
vn 1.000000 0.000000 0.000000
vn 1.000000 0.000000 0.000000
vn 1.000000 0.000000 -0.000000
vn 1.000000 0.000000 0.000000
vn 1.000000 0.000000 0.000000
vn 1.000000 0.000000 -0.000000
vn 1.000000 0.000000 0.000000
vn 0.000000 -0.500001 0.866025
vn 0.000000 -0.500001 0.866025
vn 0.000000 -0.500001 0.866025
vn 0.000000 -0.500001 0.866025
vn 0.000000 -0.500001 0.866025
vn 0.000000 -0.500001 0.866025
vn 0.000000 -0.500001 0.866025
vn 0.000000 -0.500001 0.866025
vn 0.000000 -1.000000 0.000000
vn 0.000000 -1.000000 0.000000
vn 0.000000 -1.000000 0.000000
vn 0.000000 -1.000000 0.000000
vn -0.000000 -1.000000 0.000000
vn 0.000000 -1.000000 0.000000
vn 0.000000 -1.000000 0.000000
vn -0.000000 -1.000000 0.000000
vn 0.000000 -0.499957 -0.866050
vn 0.000000 -0.499957 -0.866050
vn -0.000000 -0.499957 -0.866050
vn 0.000000 -0.499957 -0.866050
vn 0.000000 -0.499957 -0.866050
vn 0.000000 -0.499957 -0.866050
vn 0.000000 -0.499957 -0.866050
vn 0.000000 -0.499957 -0.866050
vn 0.000000 0.499944 -0.866058
vn 0.000000 0.499944 -0.866058
vn 0.000000 0.499944 -0.866058
vn 0.000000 0.499944 -0.866058
vn 0.000000 0.499944 -0.866058
vn 0.000000 0.499944 -0.866058
vn 0.000000 0.499944 -0.866058
vn 0.000000 0.499944 -0.866058
vn 0.000000 1.000000 0.000000
vn 0.000000 1.000000 0.000000
vn 0.000000 1.000000 0.000000
vn 0.000000 1.000000 0.000000
vn 0.000000 1.000000 0.000000
vn 0.000000 1.000000 0.000000
vn 0.000000 1.000000 0.000000
vn 0.000000 1.000000 0.000000
vn 0.000000 0.499988 0.866032
vn 0.000000 0.499988 0.866032
vn 0.000000 0.499988 0.866032
vn 0.000000 0.499988 0.866032
vn 0.000000 0.499988 0.866032
vn 0.000000 0.499988 0.866032
vn 0.000000 0.499988 0.866032
vn 0.000000 0.499988 0.866032
# 240 vertex normals

g V22
f 4/1/1 5/2/2 2/3/3
f 1/5/5 4/6/6 2/7/7
f 5/9/9 6/10/10 3/11/11
f 2/13/13 5/14/14 3/15/15
f 6/17/17 4/18/18 1/19/19
f 3/21/21 6/22/22 1/23/23
f 10/25/25 11/26/26 8/27/27
f 7/29/29 10/30/30 8/31/31
f 11/33/33 12/34/34 9/35/35
f 8/37/37 11/38/38 9/39/39
f 12/41/41 10/42/42 7/43/43
f 9/45/45 12/46/46 7/47/47
f 14/49/49 15/50/50 13/51/51
f 15/53/53 16/54/54 13/55/55
f 16/57/57 17/58/58 13/59/59
f 17/61/61 18/62/62 13/63/63
f 18/65/65 19/66/66 13/67/67
f 19/69/69 14/70/70 13/71/71
f 21/73/73 20/74/74 26/75/75
f 22/77/77 21/78/78 26/79/79
f 23/81/81 22/82/82 26/83/83
f 24/85/85 23/86/86 26/87/87
f 25/89/89 24/90/90 26/91/91
f 20/93/93 25/94/94 26/95/95
f 20/97/97 21/98/98 15/99/99
f 14/101/101 20/102/102 15/103/103
f 21/105/105 22/106/106 16/107/107
f 15/109/109 21/110/110 16/111/111
f 22/113/113 23/114/114 17/115/115
f 16/117/117 22/118/118 17/119/119
f 23/121/121 24/122/122 18/123/123
f 17/125/125 23/126/126 18/127/127
f 24/129/129 25/130/130 19/131/131
f 18/133/133 24/134/134 19/135/135
f 25/137/137 20/138/138 14/139/139
f 19/141/141 25/142/142 14/143/143
f 28/145/145 27/146/146 29/147/147
f 29/149/149 27/150/150 30/151/151
f 30/153/153 27/154/154 31/155/155
f 31/157/157 27/158/158 32/159/159
f 32/161/161 27/162/162 33/163/163
f 33/165/165 27/166/166 28/167/167
f 35/169/169 40/170/170 34/171/171
f 36/173/173 40/174/174 35/175/175
f 37/177/177 40/178/178 36/179/179
f 38/181/181 40/182/182 37/183/183
f 39/185/185 40/186/186 38/187/187
f 34/189/189 40/190/190 39/191/191
f 34/193/193 29/194/194 35/195/195
f 28/197/197 29/198/198 34/199/199
f 35/201/201 30/202/202 36/203/203
f 29/205/205 30/206/206 35/207/207
f 36/209/209 31/210/210 37/211/211
f 30/213/213 31/214/214 36/215/215
f 37/217/217 32/218/218 38/219/219
f 31/221/221 32/222/222 37/223/223
f 38/225/225 33/226/226 39/227/227
f 32/229/229 33/230/230 38/231/231
f 39/233/233 28/234/234 34/235/235
f 33/237/237 28/238/238 39/239/239
# 60 elements

