# Created by 3DAce v2.72


g
v 0.894000 1.125185 -11.126943
v -0.894000 1.125185 -11.126943
v -0.894000 0.321185 -9.112653
v 0.894000 0.321185 -9.112653
v 0.894000 0.321185 -9.112653
v 0.894000 1.125185 -11.126943
v -0.894000 1.125185 -11.126943
v -0.894000 0.321185 -9.112653
v 0.894000 0.432335 -9.068283
v 0.894000 1.234675 -11.078803
v -0.894000 1.234675 -11.078803
v -0.894000 0.432335 -9.068283
# 12 vertices

vt 0.614250 0.562510
vt 0.614250 0.624010
vt 0.563480 0.624010
vt 0.614250 0.562510
vt 0.563480 0.624010
vt 0.563480 0.562510
vt 0.614250 0.562510
vt 0.563480 0.624010
vt 0.481410 0.225590
vt 0.481410 0.228500
vt 0.438480 0.225590
vt 0.481410 0.225590
vt 0.481410 0.228500
vt 0.438480 0.228500
vt 0.438480 0.225590
vt 0.481410 0.228500
vt 0.438480 0.225590
vt 0.438480 0.228500
vt 0.481410 0.228500
vt 0.438480 0.225590
vt 0.481410 0.225590
vt 0.438480 0.225590
vt 0.481410 0.228500
vt 0.481410 0.225590
vt 0.481410 0.173910
vt 0.484370 0.173910
vt 0.484370 0.225590
vt 0.481410 0.173910
vt 0.481410 0.225590
vt 0.481410 0.173910
vt 0.484370 0.225590
vt 0.481410 0.225590
vt 0.481410 0.225590
vt 0.484370 0.225590
vt 0.484370 0.173910
vt 0.481410 0.225590
vt 0.481410 0.173910
vt 0.481410 0.225590
vt 0.484370 0.173910
vt 0.481410 0.173910
vt 0.481410 0.173910
vt 0.481410 0.225590
vt 0.438480 0.225590
vt 0.481410 0.173910
vt 0.438480 0.173910
vt 0.481410 0.173910
vt 0.438480 0.225590
vt 0.438480 0.173910
# 48 texture vertices

vn 0.000000 -0.928749 -0.370708
vn -0.000000 -0.928749 -0.370708
vn 0.000000 -0.928749 -0.370708
vn 0.000000 -0.928749 -0.370708
vn 0.000000 -0.928749 -0.370708
vn 0.000000 -0.928749 -0.370708
vn 0.000000 -0.928749 -0.370708
vn 0.000000 -0.928749 -0.370708
vn 0.000000 0.402487 -0.915426
vn 0.000000 0.402487 -0.915426
vn 0.000000 0.402487 -0.915426
vn 0.000000 0.402487 -0.915426
vn 0.000000 0.402487 -0.915426
vn 0.000000 0.402487 -0.915426
vn 0.000000 0.402487 -0.915426
vn 0.000000 0.402487 -0.915426
vn 0.000000 -0.370740 0.928737
vn 0.000000 -0.370740 0.928737
vn 0.000000 -0.370740 0.928737
vn 0.000000 -0.370740 0.928737
vn 0.000000 -0.370740 0.928737
vn 0.000000 -0.370740 0.928737
vn 0.000000 -0.370740 0.928737
vn 0.000000 -0.370740 0.928737
vn 1.000000 0.000000 -0.000000
vn 1.000000 0.000000 -0.000000
vn 1.000000 0.000000 -0.000000
vn 1.000000 0.000000 -0.000000
vn 1.000000 -0.000000 -0.000000
vn 1.000000 0.000000 -0.000000
vn 1.000000 0.000000 -0.000000
vn 1.000000 -0.000000 -0.000000
vn -1.000000 0.000000 0.000000
vn -1.000000 0.000000 0.000000
vn -1.000000 0.000000 0.000000
vn -1.000000 0.000000 0.000000
vn -1.000000 0.000000 0.000000
vn -1.000000 0.000000 0.000000
vn -1.000000 0.000000 0.000000
vn -1.000000 0.000000 0.000000
vn 0.000000 0.928774 0.370647
vn -0.000000 0.928774 0.370647
vn 0.000000 0.928774 0.370647
vn 0.000000 0.928774 0.370647
vn 0.000000 0.928774 0.370647
vn 0.000000 0.928774 0.370647
vn 0.000000 0.928774 0.370647
vn 0.000000 0.928774 0.370647
# 48 vertex normals

g V22
f 3/1/1 2/2/2 1/3/3
f 1/5/5 4/6/6 3/7/7
f 10/9/9 6/10/10 11/11/11
f 6/13/13 7/14/14 11/15/15
f 12/17/17 8/18/18 5/19/19
f 9/21/21 12/22/22 5/23/23
f 9/25/25 5/26/26 6/27/27
f 10/29/29 9/30/30 6/31/31
f 11/33/33 7/34/34 8/35/35
f 12/37/37 11/38/38 8/39/39
f 9/41/41 10/42/42 11/43/43
f 12/45/45 9/46/46 11/47/47
# 12 elements

