# Created by Metasequoia

v -7.602670 4.291743 -0.763511
v -7.512050 4.072964 -0.854493
v -7.693290 4.072964 -0.854493
v -7.821450 4.201123 -0.854493
v -7.821440 4.382353 -0.854493
v -7.693290 4.510513 -0.854493
v -7.512050 4.510513 -0.854493
v -7.383900 4.382363 -0.854493
v -7.383900 4.201123 -0.854493
v -7.420410 3.851734 -1.081824
v -7.784930 3.851734 -1.081824
v -8.042681 4.109484 -1.081824
v -8.042681 4.473995 -1.081823
v -7.784930 4.731754 -1.081824
v -7.420410 4.731754 -1.081824
v -7.162660 4.473995 -1.081823
v -7.162660 4.109484 -1.081824
v -7.373850 3.739323 -1.487515
v -7.831490 3.739323 -1.487515
v -8.155079 4.062923 -1.487514
v -8.155079 4.520552 -1.487514
v -7.831490 4.844154 -1.487515
v -7.373860 4.844154 -1.487515
v -7.050260 4.520552 -1.487514
v -7.050260 4.062923 -1.487514
v -7.365870 3.720063 -2.037375
v -7.839470 3.720063 -2.037375
v -8.174350 4.054944 -2.037375
v -8.174350 4.528533 -2.037375
v -7.839470 4.863423 -2.037375
v -7.365880 4.863423 -2.037375
v -7.030990 4.528533 -2.037375
v -7.030990 4.054944 -2.037375
v -7.365870 3.720063 -2.037375
v -7.839470 3.720063 -2.037375
v -8.174350 4.054944 -2.037375
v -8.174350 4.528533 -2.037375
v -7.839470 4.863423 -2.037375
v -7.365880 4.863423 -2.037375
v -7.030990 4.528533 -2.037375
v -7.030990 4.054944 -2.037375
v -8.174350 4.054943 -3.430315
v -8.174350 4.528532 -3.430315
v -7.839470 4.863424 -3.430315
v -7.365880 4.863424 -3.430315
v -7.031121 4.528532 -3.430315
v -7.031121 4.054943 -3.430315
v -7.839470 4.636033 -5.341314
v -7.365880 4.636033 -5.341314
v -8.174350 4.301153 -5.341315
v -7.031121 4.301153 -5.341315
v -8.174350 3.827553 -5.341315
v -7.031121 3.827553 -5.341315
v -7.212870 3.077644 -6.847314
v -7.828930 3.077644 -6.847314
v -7.828930 4.267644 -6.847314
v -7.212870 4.267644 -6.847314
v -7.102920 3.077643 -5.940594
v -7.973080 3.077643 -5.940594
v -7.973080 4.267644 -5.940596
v -7.102920 4.267644 -5.940596
v -7.365870 3.720064 -2.626315
v -7.839470 3.720064 -2.626315
v -8.174350 4.054942 -2.626315
v -8.174350 4.528532 -2.626315
v -7.839470 4.863424 -2.626315
v -7.365880 4.863424 -2.626315
v -7.031121 4.528532 -2.626315
v -7.031121 4.054942 -2.626315
v -7.031121 3.135914 -2.626315
v -7.031121 3.141672 -3.430315
v -8.115900 3.135914 -2.626315
v -8.091990 3.141672 -3.430315
v -7.282900 2.866643 -2.626315
v -7.282900 2.872404 -3.430315
v -7.919900 2.866643 -2.626315
v -7.919900 2.872404 -3.430315
v -7.031121 3.092993 -5.341314
v -8.001580 3.092993 -5.341314
v -7.268900 2.923723 -5.341315
v -7.837500 2.923723 -5.341315
# 81 vertices

vt 0.09724 0.58055
vt 0.09128 0.58055
vt 0.09432 0.58835
vt 0.10071 0.57009
vt 0.08870 0.57009
vt 0.10221 0.55622
vt 0.08713 0.55622
vt 0.10253 0.53809
vt 0.08693 0.53809
vt 0.09750 0.47845
vt 0.09961 0.51172
vt 0.08749 0.49960
vt 0.05823 0.51172
vt 0.05823 0.47845
vt 0.07034 0.49960
vt 0.06734 0.46870
vt 0.09041 0.46870
vt 0.12003 0.47736
vt 0.12003 0.44770
vt 0.14341 0.47736
vt 0.14341 0.44770
vt 0.11952 0.37721
vt 0.14038 0.37721
vt 0.11343 0.35511
vt 0.14536 0.35511
vt 0.11746 0.32167
vt 0.14007 0.32167
vt 0.15625 0.47736
vt 0.15537 0.44770
vt 0.16919 0.47736
vt 0.16940 0.44770
vt 0.20358 0.47736
vt 0.20358 0.44770
vt 0.22105 0.47736
vt 0.22105 0.44770
vt 0.23340 0.47736
vt 0.23340 0.44770
vt 0.24025 0.44770
vt 0.25781 0.47736
vt 0.24025 0.47736
vt 0.25781 0.44770
vt 0.26465 0.44770
vt 0.27674 0.47736
vt 0.26465 0.47736
vt 0.27674 0.44770
vt 0.29422 0.47736
vt 0.29422 0.44770
vt 0.32812 0.47736
vt 0.32791 0.44770
vt 0.10638 0.47736
vt 0.10638 0.44770
vt 0.27674 0.49902
vt 0.26465 0.49902
vt 0.29422 0.49902
vt 0.10644 0.49009
vt 0.12304 0.51170
vt 0.10643 0.51170
vt 0.12304 0.49009
vt 0.13964 0.51170
vt 0.13964 0.49009
vt 0.15623 0.51170
vt 0.15623 0.49009
vt 0.22105 0.49902
vt 0.20358 0.49902
vt 0.23340 0.49902
vt 0.25781 0.49902
vt 0.24025 0.49902
vt 0.21266 0.37721
vt 0.22501 0.37721
vt 0.21142 0.35511
vt 0.23530 0.35511
vt 0.26756 0.35511
vt 0.24025 0.37721
vt 0.25781 0.37721
vt 0.28637 0.35511
vt 0.28513 0.37721
vt 0.27278 0.37721
vt 0.15205 0.37721
vt 0.16704 0.35511
vt 0.19519 0.37721
vt 0.16761 0.37721
vt 0.33027 0.35511
vt 0.30260 0.37721
vt 0.32970 0.37721
vt 0.10638 0.37721
vt 0.28637 0.32167
vt 0.33027 0.32167
vt 0.26348 0.32167
vt 0.24064 0.32167
vt 0.26348 0.27657
vt 0.24064 0.27657
vt 0.16704 0.32167
vt 0.21142 0.32167
# 93 texture vertices

vn 0.00000 0.00001 1.00000
vn 0.26878 -0.49898 0.82388
vn -0.16278 -0.54289 0.82388
vn -0.49899 -0.26876 0.82388
vn -0.54289 0.16279 0.82387
vn -0.26878 0.49897 0.82388
vn 0.16278 0.54288 0.82388
vn 0.49898 0.26877 0.82388
vn 0.54289 -0.16278 0.82388
vn 0.34094 -0.77806 0.52762
vn -0.30908 -0.79125 0.52763
vn -0.77806 -0.34093 0.52762
vn -0.79125 0.30908 0.52762
vn -0.34095 0.77805 0.52763
vn 0.30909 0.79125 0.52762
vn 0.77806 0.34094 0.52762
vn 0.79125 -0.30908 0.52762
vn 0.37978 -0.91038 0.16427
vn -0.37520 -0.91227 0.16427
vn -0.91038 -0.37977 0.16426
vn -0.91228 0.37519 0.16426
vn -0.37978 0.91038 0.16427
vn 0.37520 0.91227 0.16426
vn 0.91038 0.37977 0.16426
vn 0.91228 -0.37519 0.16427
vn 0.25255 -0.96686 0.03753
vn -0.50510 -0.86224 0.03754
vn -0.96686 -0.25255 0.03755
vn -0.86225 0.50508 0.03755
vn -0.25255 0.96685 0.03755
vn 0.50509 0.86225 0.03755
vn 0.96686 0.25255 0.03755
vn 0.86225 -0.50509 0.03754
vn 0.50551 -0.86282 -0.00006
vn -0.25273 -0.96754 -0.00000
vn -0.86286 -0.50545 0.00000
vn -0.96754 0.25272 -0.00000
vn -0.50546 0.86285 0.00000
vn 0.25272 0.96754 0.00000
vn 0.86289 0.50539 -0.00014
vn 0.96754 -0.25272 -0.00021
vn -0.99955 -0.02997 0.00178
vn -0.88910 0.45736 -0.01810
vn -0.32703 0.94295 -0.06243
vn 0.50518 0.86150 -0.05113
vn 0.96753 0.25233 -0.01499
vn 1.00000 0.00000 0.00000
vn -0.30326 0.89329 -0.33176
vn 0.30749 0.92777 -0.21142
vn -0.91497 0.37964 -0.13674
vn 0.88582 0.45552 -0.08847
vn -0.98848 -0.09269 -0.11967
vn 0.99822 -0.00000 -0.05958
vn 0.00000 -1.00000 -0.00000
vn 0.00000 -1.00000 -0.00000
vn 0.00000 0.00000 -1.00000
vn 0.99273 -0.00000 -0.12038
vn 0.15107 -0.97821 -0.14242
vn -0.19178 -0.97888 -0.07081
vn -0.24871 0.92460 -0.28856
vn 0.15218 0.95520 -0.25383
vn 0.00000 0.00000 1.00000
vn 0.00000 0.00000 1.00000
vn -0.92388 0.38268 0.00000
vn -0.38269 0.92388 0.00000
vn 0.38274 0.92385 -0.00003
vn 0.92392 0.38259 -0.00011
vn 0.85743 -0.51459 -0.00036
vn -0.94284 -0.33245 -0.02304
vn 0.31730 -0.94824 -0.01283
vn -0.47113 -0.88164 -0.02735
vn 0.93047 -0.36488 -0.03289
vn -0.87696 -0.47967 -0.02935
vn 0.33635 -0.93975 -0.06111
vn -0.42118 -0.89999 -0.11238
vn 0.52536 -0.85086 -0.00610
vn -0.29813 -0.95450 -0.00684
vn -0.91190 -0.40984 -0.02178
vn -0.98879 -0.14923 -0.00522
vn 0.96755 -0.25270 -0.00007
vn 0.97011 -0.24266 -0.00174
vn 0.25278 -0.96752 -0.00000
vn -0.50545 -0.86286 -0.00000
vn -0.98169 -0.07722 -0.17411
vn -0.97114 -0.00000 -0.23852
vn 0.99281 -0.00000 -0.11967
vn 0.99284 -0.00000 -0.11943
vn 0.99273 0.00000 -0.12038
vn 0.00000 1.00000 0.00000
vn -0.98760 -0.00000 -0.15701
vn -0.98760 -0.00000 -0.15701
# 91 normal vertices

f 1/3/1 3/2/3 2/1/2
f 1/3/1 4/1/4 3/2/3
f 1/3/1 5/2/5 4/1/4
f 1/3/1 6/1/6 5/2/5
f 1/3/1 7/2/7 6/1/6
f 1/3/1 8/1/8 7/2/7
f 1/3/1 9/2/9 8/1/8
f 1/3/1 2/1/2 9/2/9
f 3/2/3 11/5/11 10/4/10
f 3/2/3 10/4/10 2/1/2
f 4/1/4 12/4/12 11/5/11
f 4/1/4 11/5/11 3/2/3
f 5/2/5 13/5/13 12/4/12
f 5/2/5 12/4/12 4/1/4
f 6/1/6 14/4/14 13/5/13
f 6/1/6 13/5/13 5/2/5
f 7/2/7 15/5/15 14/4/14
f 7/2/7 14/4/14 6/1/6
f 8/1/8 16/4/16 15/5/15
f 8/1/8 15/5/15 7/2/7
f 9/2/9 17/5/17 16/4/16
f 9/2/9 16/4/16 8/1/8
f 2/1/2 10/4/10 17/5/17
f 2/1/2 17/5/17 9/2/9
f 11/5/11 19/7/19 18/6/18
f 11/5/11 18/6/18 10/4/10
f 12/4/12 20/6/20 19/7/19
f 12/4/12 19/7/19 11/5/11
f 13/5/13 21/7/21 20/6/20
f 13/5/13 20/6/20 12/4/12
f 14/4/14 22/6/22 21/7/21
f 14/4/14 21/7/21 13/5/13
f 15/5/15 23/7/23 22/6/22
f 15/5/15 22/6/22 14/4/14
f 16/4/16 24/6/24 23/7/23
f 16/4/16 23/7/23 15/5/15
f 17/5/17 25/7/25 24/6/24
f 17/5/17 24/6/24 16/4/16
f 10/4/10 18/6/18 25/7/25
f 10/4/10 25/7/25 17/5/17
f 19/7/19 27/9/27 26/8/26
f 19/7/19 26/8/26 18/6/18
f 20/6/20 28/8/28 27/9/27
f 20/6/20 27/9/27 19/7/19
f 21/7/21 29/9/29 28/8/28
f 21/7/21 28/8/28 20/6/20
f 22/6/22 30/8/30 29/9/29
f 22/6/22 29/9/29 21/7/21
f 23/7/23 31/9/31 30/8/30
f 23/7/23 30/8/30 22/6/22
f 24/6/24 32/8/32 31/9/31
f 24/6/24 31/9/31 23/7/23
f 25/7/25 33/9/33 32/8/32
f 25/7/25 32/8/32 24/6/24
f 18/6/18 26/8/26 33/9/33
f 18/6/18 33/9/33 25/7/25
f 63/12/62 64/11/63 72/10/62
f 62/15/62 70/14/62 69/13/63
f 62/15/62 74/16/62 70/14/62
f 72/10/62 76/17/62 63/12/62
f 76/17/62 74/16/62 63/12/62
f 74/16/62 62/15/62 63/12/62
f 76/20/77 75/19/70 74/18/76
f 76/20/77 77/21/71 75/19/70
f 77/21/71 80/22/74 75/19/70
f 77/21/71 81/23/75 80/22/74
f 81/23/75 58/24/58 80/22/74
f 81/23/75 59/25/59 58/24/58
f 58/24/58 59/25/59 54/26/54
f 59/25/59 55/27/55 54/26/54
f 72/28/78 77/21/71 76/20/77
f 72/28/78 73/29/69 77/21/71
f 64/32/79 73/31/69 72/30/78
f 64/32/79 42/33/42 73/31/69
f 64/32/79 65/34/64 42/33/42
f 65/34/64 43/35/43 42/33/42
f 43/35/43 65/34/64 66/36/65
f 66/36/65 44/37/44 43/35/43
f 66/40/65 67/39/66 44/38/44
f 67/39/66 45/41/45 44/38/44
f 67/44/66 68/43/67 45/42/45
f 68/43/67 46/45/46 45/42/45
f 68/43/67 69/46/80 46/45/46
f 69/46/80 47/47/47 46/45/46
f 70/48/81 47/47/47 69/46/80
f 70/48/81 71/49/68 47/47/47
f 74/18/76 71/51/68 70/50/81
f 74/18/76 75/19/70 71/51/68
f 67/44/66 40/52/40 68/43/67
f 67/44/66 39/53/39 40/52/40
f 40/52/40 41/54/41 68/43/67
f 41/54/41 69/46/80 68/43/67
f 41/57/41 34/56/34 69/55/80
f 34/56/34 62/58/82 69/55/80
f 34/56/34 35/59/35 62/58/82
f 35/59/35 63/60/83 62/58/82
f 35/59/35 36/61/36 63/60/83
f 36/61/36 64/62/79 63/60/83
f 36/64/36 37/63/37 64/32/79
f 37/63/37 65/34/64 64/32/79
f 37/63/37 38/65/38 65/34/64
f 38/65/38 66/36/65 65/34/64
f 38/67/38 39/66/39 66/40/65
f 39/66/39 67/39/66 66/40/65
f 44/37/44 50/68/50 43/35/43
f 44/37/44 48/69/48 50/68/50
f 48/69/48 60/70/60 50/68/50
f 48/73/48 61/72/61 60/71/60
f 48/73/48 49/74/49 61/72/61
f 49/77/49 51/76/51 61/75/61
f 48/73/48 44/38/44 49/74/49
f 44/38/44 45/41/45 49/74/49
f 45/42/45 51/76/51 49/77/49
f 45/42/45 46/45/46 51/76/51
f 81/23/75 79/78/73 59/25/59
f 79/81/73 52/80/52 59/79/84
f 52/80/52 60/70/85 59/79/84
f 52/80/52 50/68/50 60/70/85
f 61/75/87 53/83/53 58/82/86
f 61/75/87 51/76/51 53/83/53
f 53/83/53 78/84/72 58/82/86
f 58/24/58 78/85/72 80/22/74
f 58/82/86 57/86/57 61/75/87
f 58/82/86 54/87/88 57/86/57
f 54/90/56 56/89/56 57/88/56
f 54/90/56 55/91/56 56/89/56
f 60/71/60 61/72/61 56/89/89
f 61/72/61 57/88/89 56/89/89
f 51/76/51 46/45/46 53/83/53
f 46/45/46 47/47/47 53/83/53
f 47/47/47 78/84/72 53/83/53
f 47/47/47 71/49/68 78/84/72
f 71/51/68 80/22/74 78/85/72
f 71/51/68 75/19/70 80/22/74
f 59/79/84 60/70/85 55/92/90
f 60/70/85 56/93/91 55/92/90
f 73/29/69 81/23/75 77/21/71
f 81/23/75 73/29/69 79/78/73
f 73/31/69 52/80/52 79/81/73
f 73/31/69 42/33/42 52/80/52
f 42/33/42 50/68/50 52/80/52
f 42/33/42 43/35/43 50/68/50
# 142 elements

