# Created by 3DAce v2.72


g
v -0.500000 2.600000 2.750000
v 0.000000 2.800000 4.000000
v -0.500000 3.000000 2.750000
v 0.200000 3.300000 2.750000
v -0.200000 3.300000 2.750000
v -0.200000 2.300000 2.750000
v 0.200000 2.300000 2.750000
v 0.500000 3.000000 2.750000
v 0.500000 2.600000 2.750000
v -0.028692 2.790211 3.500000
v -1.421031 3.478609 3.550000
v -1.296031 3.695115 3.450000
v -0.003692 2.833512 3.400000
v -1.569236 3.621910 3.580000
v -1.494236 3.751814 3.530000
v -0.003692 2.833512 3.450000
v -0.028692 2.790211 3.550000
v -1.421031 3.478609 3.600000
v -1.296031 3.695115 3.500000
v -1.494236 3.751814 3.530000
v -1.569236 3.621910 3.580000
v 0.001308 2.832469 3.500000
v 1.293647 3.694071 3.550000
v 1.418647 3.477566 3.450000
v 0.026308 2.789168 3.400000
v 1.491852 3.750771 3.580000
v 1.566852 3.620866 3.530000
v 0.026308 2.789168 3.450000
v 0.001308 2.832469 3.550000
v 1.293647 3.694071 3.600000
v 1.418647 3.477566 3.500000
v 1.566852 3.620866 3.530000
v 1.491852 3.750771 3.580000
v 0.020000 2.787863 3.500000
v 0.120000 1.237863 3.550000
v -0.130000 1.237863 3.450000
v -0.030000 2.787863 3.400000
v 0.070000 1.037863 3.580000
v -0.080000 1.037863 3.530000
v -0.030000 2.787863 3.450000
v 0.020000 2.787863 3.550000
v 0.120000 1.237863 3.600000
v -0.130000 1.237863 3.500000
v -0.080000 1.037863 3.530000
v 0.070000 1.037863 3.580000
# 45 vertices

vt 0.769350 0.902110
vt 0.719000 0.910170
vt 0.719000 0.894060
vt 0.769350 0.902110
vt 0.917990 0.534990
vt 0.926050 0.585340
vt 0.909940 0.585340
vt 0.917990 0.534990
vt 0.908560 0.505740
vt 0.900500 0.455390
vt 0.916610 0.455390
vt 0.908560 0.505740
vt 0.176430 0.083340
vt 0.176430 0.099450
vt 0.126080 0.091400
vt 0.176430 0.083340
vt 0.719000 0.922260
vt 0.719000 0.910170
vt 0.769350 0.902110
vt 0.719000 0.922260
vt 0.126080 0.091400
vt 0.176430 0.099450
vt 0.176430 0.111540
vt 0.126080 0.091400
vt 0.176430 0.071260
vt 0.176430 0.083340
vt 0.126080 0.091400
vt 0.176430 0.071260
vt 0.719000 0.894060
vt 0.719000 0.881970
vt 0.769350 0.902110
vt 0.719000 0.894060
vt 0.593460 0.982710
vt 0.599430 0.981500
vt 0.599430 0.983520
vt 0.593460 0.982710
vt 0.781070 0.882780
vt 0.789050 0.883990
vt 0.789050 0.886000
vt 0.781070 0.882780
vt 0.695670 0.375570
vt 0.751750 0.403300
vt 0.746720 0.412020
vt 0.695670 0.375570
vt 0.694660 0.377310
vt 0.695670 0.375570
vt 0.746720 0.412020
vt 0.694660 0.377310
vt 0.751750 0.403300
vt 0.757720 0.409070
vt 0.754700 0.414300
vt 0.751750 0.403300
vt 0.746720 0.412020
vt 0.751750 0.403300
vt 0.754700 0.414300
vt 0.746720 0.412020
vt 0.238600 0.161150
vt 0.233560 0.152430
vt 0.289650 0.124700
vt 0.238600 0.161150
vt 0.841110 0.886000
vt 0.789050 0.883990
vt 0.840100 0.881970
vt 0.841110 0.886000
vt 0.230610 0.163430
vt 0.227590 0.158200
vt 0.233560 0.152430
vt 0.230610 0.163430
vt 0.238600 0.161150
vt 0.230610 0.163430
vt 0.233560 0.152430
vt 0.238600 0.161150
vt 0.599430 0.983520
vt 0.599430 0.981500
vt 0.655520 0.979490
vt 0.599430 0.983520
vt 0.655520 0.981500
vt 0.599430 0.983520
vt 0.655520 0.979490
vt 0.655520 0.981500
vt 0.789050 0.886000
vt 0.789050 0.883990
vt 0.841110 0.886000
vt 0.789050 0.886000
vt 0.841110 0.888020
vt 0.789050 0.886000
vt 0.841110 0.886000
vt 0.841110 0.888020
vt 0.689250 0.518630
vt 0.681260 0.519840
vt 0.681260 0.517830
vt 0.689250 0.518630
vt 0.671290 0.716420
vt 0.665320 0.715210
vt 0.665320 0.713190
vt 0.671290 0.716420
vt 0.073540 0.136510
vt 0.021480 0.171220
vt 0.016440 0.162500
vt 0.073540 0.136510
vt 0.072530 0.134770
vt 0.073540 0.136510
vt 0.016440 0.162500
vt 0.072530 0.134770
vt 0.021480 0.171220
vt 0.013490 0.173500
vt 0.010470 0.168270
vt 0.021480 0.171220
vt 0.016440 0.162500
vt 0.021480 0.171220
vt 0.010470 0.168270
vt 0.016440 0.162500
vt 0.183180 0.158470
vt 0.178140 0.167190
vt 0.126080 0.132490
vt 0.183180 0.158470
vt 0.609230 0.713190
vt 0.665320 0.715210
vt 0.608220 0.717220
vt 0.609230 0.713190
vt 0.189150 0.164240
vt 0.186120 0.169480
vt 0.178140 0.167190
vt 0.189150 0.164240
vt 0.183180 0.158470
vt 0.189150 0.164240
vt 0.178140 0.167190
vt 0.183180 0.158470
vt 0.681260 0.517830
vt 0.681260 0.519840
vt 0.629200 0.521850
vt 0.681260 0.517830
vt 0.629200 0.519840
vt 0.681260 0.517830
vt 0.629200 0.521850
vt 0.629200 0.519840
vt 0.665320 0.713190
vt 0.665320 0.715210
vt 0.609230 0.713190
vt 0.665320 0.713190
vt 0.609230 0.711180
vt 0.665320 0.713190
vt 0.609230 0.713190
vt 0.609230 0.711180
vt 0.811080 0.343810
vt 0.812280 0.351860
vt 0.810270 0.351860
vt 0.811080 0.343810
vt 0.466610 0.163750
vt 0.465410 0.171800
vt 0.463390 0.171800
vt 0.466610 0.163750
vt 0.837260 0.505740
vt 0.833230 0.443300
vt 0.843300 0.443300
vt 0.837260 0.505740
vt 0.839270 0.505740
vt 0.837260 0.505740
vt 0.843300 0.443300
vt 0.839270 0.505740
vt 0.833230 0.443300
vt 0.835250 0.435250
vt 0.841290 0.435250
vt 0.833230 0.443300
vt 0.843300 0.443300
vt 0.833230 0.443300
vt 0.841290 0.435250
vt 0.843300 0.443300
vt 0.833230 0.351860
vt 0.843300 0.351860
vt 0.839270 0.414300
vt 0.833230 0.351860
vt 0.463390 0.234240
vt 0.465410 0.171800
vt 0.467420 0.234240
vt 0.463390 0.234240
vt 0.835250 0.343810
vt 0.841290 0.343810
vt 0.843300 0.351860
vt 0.835250 0.343810
vt 0.833230 0.351860
vt 0.835250 0.343810
vt 0.843300 0.351860
vt 0.833230 0.351860
vt 0.810270 0.351860
vt 0.812280 0.351860
vt 0.814300 0.414300
vt 0.810270 0.351860
vt 0.812280 0.414300
vt 0.810270 0.351860
vt 0.814300 0.414300
vt 0.812280 0.414300
vt 0.463390 0.171800
vt 0.465410 0.171800
vt 0.463390 0.234240
vt 0.463390 0.171800
vt 0.461380 0.234240
vt 0.463390 0.171800
vt 0.463390 0.234240
vt 0.461380 0.234240
# 200 texture vertices

vn -0.896647 0.000000 0.442746
vn -0.848399 0.351703 0.395632
vn -0.848399 -0.351703 0.395632
vn -0.896647 0.000000 0.442746
vn 0.000000 0.896647 0.442746
vn 0.351703 0.848399 0.395632
vn -0.351703 0.848399 0.395632
vn 0.000000 0.896647 0.442746
vn 0.000000 -0.896647 0.442746
vn -0.351703 -0.848399 0.395632
vn 0.351703 -0.848399 0.395632
vn 0.000000 -0.896647 0.442746
vn 0.848399 -0.351703 0.395632
vn 0.848399 0.351703 0.395632
vn 0.896647 0.000000 0.442746
vn 0.848399 -0.351703 0.395632
vn -0.351703 0.848399 0.395632
vn -0.848399 0.351703 0.395632
vn -0.633634 0.633634 0.443866
vn -0.351703 0.848399 0.395632
vn 0.633634 0.633634 0.443866
vn 0.848399 0.351703 0.395632
vn 0.351703 0.848399 0.395632
vn 0.633634 0.633634 0.443866
vn 0.351703 -0.848399 0.395632
vn 0.848399 -0.351703 0.395632
vn 0.633634 -0.633634 0.443866
vn 0.351703 -0.848399 0.395632
vn -0.848399 -0.351703 0.395632
vn -0.351703 -0.848399 0.395632
vn -0.633634 -0.633634 0.443866
vn -0.848399 -0.351703 0.395632
vn -0.695114 -0.718900 -0.000000
vn -0.576039 -0.817422 0.000000
vn -0.532828 -0.846224 0.000000
vn -0.695114 -0.718900 -0.000000
vn 0.275031 0.961435 -0.000000
vn 0.461944 0.873439 0.153987
vn 0.466438 0.884554 0.000000
vn 0.275031 0.961435 -0.000000
vn -0.374200 -0.564719 -0.735572
vn -0.316761 -0.219399 -0.922782
vn -0.395188 -0.438041 -0.807432
vn -0.374200 -0.564719 -0.735572
vn -0.508361 -0.736618 -0.446053
vn -0.448218 -0.805072 -0.388535
vn -0.395188 -0.438041 -0.807432
vn -0.508361 -0.736618 -0.446053
vn -0.316761 -0.219399 -0.922782
vn -0.341549 -0.159325 -0.926261
vn -0.376696 -0.167628 -0.911044
vn -0.316761 -0.219399 -0.922782
vn -0.395188 -0.438041 -0.807432
vn -0.316761 -0.219399 -0.922782
vn -0.376696 -0.167628 -0.911044
vn -0.395188 -0.438041 -0.807432
vn 0.327284 0.478896 0.814582
vn 0.187114 0.299703 0.935503
vn 0.374200 0.564719 0.735573
vn 0.327284 0.478896 0.814582
vn 0.552322 0.819604 0.152284
vn 0.410390 0.736002 0.538406
vn 0.374200 0.564719 0.735573
vn 0.552322 0.819604 0.152284
vn 0.185199 0.290182 0.938880
vn 0.144403 0.281732 0.948565
vn 0.187114 0.299703 0.935503
vn 0.185199 0.290182 0.938880
vn 0.327284 0.478896 0.814582
vn 0.185199 0.290182 0.938880
vn 0.187114 0.299703 0.935503
vn 0.327284 0.478896 0.814582
vn -0.532828 -0.846224 0.000000
vn -0.576039 -0.817422 0.000000
vn -0.477212 -0.865435 -0.152614
vn -0.532828 -0.846224 0.000000
vn -0.443206 -0.896420 0.000000
vn -0.532828 -0.846224 0.000000
vn -0.477212 -0.865435 -0.152614
vn -0.443206 -0.896420 0.000000
vn 0.466438 0.884554 0.000000
vn 0.461944 0.873439 0.153987
vn 0.552322 0.819604 0.152284
vn 0.466438 0.884554 0.000000
vn 0.554720 0.832037 0.000000
vn 0.466438 0.884554 0.000000
vn 0.552322 0.819604 0.152284
vn 0.554720 0.832037 0.000000
vn -0.275034 0.961435 0.000000
vn -0.419891 0.907574 0.000000
vn -0.466439 0.884553 0.000000
vn -0.275034 0.961435 0.000000
vn 0.695111 -0.718903 0.000000
vn 0.525449 -0.836775 0.153986
vn 0.532827 -0.846224 0.000000
vn 0.695111 -0.718903 0.000000
vn -0.301962 0.606427 -0.735571
vn -0.031625 0.384023 -0.922782
vn -0.181761 0.561265 -0.807431
vn -0.301962 0.606427 -0.735571
vn -0.383750 0.808563 -0.446050
vn -0.473105 0.790705 -0.388534
vn -0.181761 0.561265 -0.807431
vn -0.383750 0.808563 -0.446050
vn -0.031625 0.384023 -0.922782
vn 0.032794 0.375449 -0.926263
vn 0.043177 0.410042 -0.911044
vn -0.031625 0.384023 -0.922782
vn -0.181761 0.561265 -0.807431
vn -0.031625 0.384023 -0.922782
vn 0.043177 0.410042 -0.911044
vn -0.181761 0.561265 -0.807431
vn 0.251095 -0.522886 0.814581
vn 0.165994 -0.311896 0.935503
vn 0.301962 -0.606427 0.735571
vn 0.251095 -0.522886 0.814581
vn 0.433637 -0.888126 0.152283
vn 0.432202 -0.723410 0.538405
vn 0.301962 -0.606427 0.735571
vn 0.433637 -0.888126 0.152283
vn 0.158705 -0.305477 0.938880
vn 0.171786 -0.265920 0.948565
vn 0.165994 -0.311896 0.935503
vn 0.158705 -0.305477 0.938880
vn 0.251095 -0.522886 0.814581
vn 0.158705 -0.305477 0.938880
vn 0.165994 -0.311896 0.935503
vn 0.251095 -0.522886 0.814581
vn -0.466439 0.884553 0.000000
vn -0.419891 0.907574 0.000000
vn -0.510884 0.845995 -0.152613
vn -0.466439 0.884553 0.000000
vn -0.554719 0.832038 0.000000
vn -0.466439 0.884553 0.000000
vn -0.510884 0.845995 -0.152613
vn -0.554719 0.832038 0.000000
vn 0.532827 -0.846224 0.000000
vn 0.525449 -0.836775 0.153986
vn 0.433637 -0.888126 0.152283
vn 0.532827 -0.846224 0.000000
vn 0.443206 -0.896420 0.000000
vn 0.532827 -0.846224 0.000000
vn 0.433637 -0.888126 0.152283
vn 0.443206 -0.896420 0.000000
vn 0.970143 -0.242536 0.000000
vn 0.995928 -0.090153 0.000000
vn 0.999265 -0.038330 0.000000
vn 0.970143 -0.242536 0.000000
vn -0.970143 -0.242536 0.000000
vn -0.987392 -0.036666 0.153987
vn -0.999265 -0.038330 0.000000
vn -0.970143 -0.242536 0.000000
vn 0.676160 -0.041707 -0.735573
vn 0.348386 -0.164624 -0.922782
vn 0.576948 -0.123222 -0.807432
vn 0.676160 -0.041707 -0.735573
vn 0.892110 -0.071944 -0.446054
vn 0.921322 0.014368 -0.388535
vn 0.576948 -0.123222 -0.807432
vn 0.892110 -0.071944 -0.446054
vn 0.348386 -0.164624 -0.922782
vn 0.308754 -0.216128 -0.926261
vn 0.333519 -0.242414 -0.911044
vn 0.348386 -0.164624 -0.922782
vn 0.576948 -0.123222 -0.807432
vn 0.348386 -0.164624 -0.922782
vn 0.333519 -0.242414 -0.911044
vn 0.576948 -0.123222 -0.807432
vn -0.578378 0.043988 0.814582
vn -0.353107 0.012194 0.935504
vn -0.676160 0.041707 0.735573
vn -0.578378 0.043988 0.814582
vn -0.985958 0.068523 0.152284
vn -0.842591 -0.012594 0.538407
vn -0.676160 0.041707 0.735573
vn -0.985958 0.068523 0.152284
vn -0.343904 0.015296 0.938880
vn -0.316188 -0.015809 0.948565
vn -0.353107 0.012194 0.935504
vn -0.343904 0.015296 0.938880
vn -0.578378 0.043988 0.814582
vn -0.343904 0.015296 0.938880
vn -0.353107 0.012194 0.935504
vn -0.578378 0.043988 0.814582
vn 0.999265 -0.038330 0.000000
vn 0.995928 -0.090153 0.000000
vn 0.988095 0.019441 -0.152614
vn 0.999265 -0.038330 0.000000
vn 0.997925 0.064382 0.000000
vn 0.999265 -0.038330 0.000000
vn 0.988095 0.019441 -0.152614
vn 0.997925 0.064382 0.000000
vn -0.999265 -0.038330 0.000000
vn -0.987392 -0.036666 0.153987
vn -0.985958 0.068523 0.152284
vn -0.999265 -0.038330 0.000000
vn -0.997925 0.064382 0.000000
vn -0.999265 -0.038330 0.000000
vn -0.985958 0.068523 0.152284
vn -0.997925 0.064382 0.000000
# 200 vertex normals

g mat1
f 2/1/1 3/2/2 1/3/3
f 2/5/5 4/6/6 5/7/7
f 2/9/9 6/10/10 7/11/11
f 9/13/13 8/14/14 2/15/15
f 5/17/17 3/18/18 2/19/19
f 2/21/21 8/22/22 4/23/23
f 7/25/25 9/26/26 2/27/27
f 1/29/29 6/30/30 2/31/31
f 14/33/33 11/34/34 18/35/35
f 15/37/37 19/38/38 12/39/39
f 10/41/41 11/42/42 12/43/43
f 13/45/45 10/46/46 12/47/47
f 11/49/49 14/50/50 15/51/51
f 12/53/53 11/54/54 15/55/55
f 19/57/57 18/58/58 17/59/59
f 16/61/61 19/62/62 17/63/63
f 20/65/65 21/66/66 18/67/67
f 19/69/69 20/70/70 18/71/71
f 18/73/73 11/74/74 10/75/75
f 17/77/77 18/78/78 10/79/79
f 12/81/81 19/82/82 16/83/83
f 13/85/85 12/86/86 16/87/87
f 26/89/89 23/90/90 30/91/91
f 27/93/93 31/94/94 24/95/95
f 22/97/97 23/98/98 24/99/99
f 25/101/101 22/102/102 24/103/103
f 23/105/105 26/106/106 27/107/107
f 24/109/109 23/110/110 27/111/111
f 31/113/113 30/114/114 29/115/115
f 28/117/117 31/118/118 29/119/119
f 32/121/121 33/122/122 30/123/123
f 31/125/125 32/126/126 30/127/127
f 30/129/129 23/130/130 22/131/131
f 29/133/133 30/134/134 22/135/135
f 24/137/137 31/138/138 28/139/139
f 25/141/141 24/142/142 28/143/143
f 38/145/145 35/146/146 42/147/147
f 39/149/149 43/150/150 36/151/151
f 34/153/153 35/154/154 36/155/155
f 37/157/157 34/158/158 36/159/159
f 35/161/161 38/162/162 39/163/163
f 36/165/165 35/166/166 39/167/167
f 43/169/169 42/170/170 41/171/171
f 40/173/173 43/174/174 41/175/175
f 44/177/177 45/178/178 42/179/179
f 43/181/181 44/182/182 42/183/183
f 42/185/185 35/186/186 34/187/187
f 41/189/189 42/190/190 34/191/191
f 36/193/193 43/194/194 40/195/195
f 37/197/197 36/198/198 40/199/199
# 50 elements

