# Created by 3DAce v2.72


g
v -0.115578 0.277006 1.811572
v -0.106895 -0.015630 1.662222
v -0.101399 -0.299357 1.826189
v -0.104587 -0.290446 2.139516
v -0.113269 0.002199 2.288867
v -0.118765 0.285928 2.124889
v 0.180730 0.282174 1.813319
v 0.189412 -0.010462 1.663960
v 0.194908 -0.294193 1.827937
v 0.191722 -0.285278 2.141261
v 0.183040 0.007368 2.290611
v 0.177543 0.291095 2.126634
v 0.214963 0.447071 1.835711
v 0.213766 0.533433 1.706126
v -0.158998 0.440553 1.832859
v -0.160199 0.526912 1.703275
v -0.146840 -0.109332 2.038434
v -0.148039 -0.022972 1.908846
v 0.227121 -0.102813 2.041292
v 0.225922 -0.016444 1.911699
v -0.011002 2.238562 1.050051
v -0.009628 2.262523 1.137209
v 0.067529 2.251787 1.091840
v 0.066155 2.227817 1.004684
v -0.012379 2.214600 0.962894
v -0.089536 2.225346 1.008263
v -0.088162 2.249308 1.095420
v 0.022464 0.232143 1.967220
v 0.099620 0.221396 1.921851
v 0.098247 0.197436 1.834693
v 0.019713 0.184212 1.792902
v -0.057444 0.194957 1.838273
v -0.056070 0.218927 1.925429
v 0.021087 0.208181 1.880063
# 34 vertices

vt 0.147900 0.912560
vt 0.147900 0.883460
vt 0.164200 0.883460
vt 0.147900 0.912560
vt 0.164200 0.912560
vt 0.147900 0.912560
vt 0.164200 0.883460
vt 0.164200 0.912560
vt 0.165940 0.941670
vt 0.165940 0.908060
vt 0.182240 0.908060
vt 0.165940 0.941670
vt 0.182240 0.941670
vt 0.165940 0.941670
vt 0.182240 0.908060
vt 0.182240 0.941670
vt 0.164200 0.822560
vt 0.164200 0.851660
vt 0.147900 0.851660
vt 0.164200 0.822560
vt 0.147900 0.822560
vt 0.164200 0.822560
vt 0.147900 0.851660
vt 0.147900 0.822560
vt 0.164200 0.851660
vt 0.164200 0.880770
vt 0.147900 0.880770
vt 0.164200 0.851660
vt 0.147900 0.851660
vt 0.164200 0.851660
vt 0.147900 0.880770
vt 0.147900 0.851660
vt 0.165940 0.880770
vt 0.165940 0.847160
vt 0.182240 0.847160
vt 0.165940 0.880770
vt 0.182240 0.880770
vt 0.165940 0.880770
vt 0.182240 0.847160
vt 0.182240 0.880770
vt 0.147900 0.941670
vt 0.147900 0.912560
vt 0.164200 0.912560
vt 0.147900 0.941670
vt 0.164200 0.941670
vt 0.147900 0.941670
vt 0.164200 0.912560
vt 0.164200 0.941670
vt 0.089970 0.880280
vt 0.140660 0.909390
vt 0.089970 0.938490
vt 0.089970 0.880280
vt 0.089970 0.880280
vt 0.089970 0.938490
vt 0.073070 0.909390
vt 0.089970 0.880280
vt 0.140660 0.909390
vt 0.123760 0.938490
vt 0.089970 0.938490
vt 0.140660 0.909390
vt 0.089970 0.880280
vt 0.123760 0.880280
vt 0.140660 0.909390
vt 0.089970 0.880280
vt 0.089060 0.813040
vt 0.122860 0.813040
vt 0.122860 0.871250
vt 0.089060 0.813040
vt 0.072160 0.842140
vt 0.089060 0.813040
vt 0.122860 0.871250
vt 0.072160 0.842140
vt 0.122860 0.871250
vt 0.089060 0.871250
vt 0.072160 0.842140
vt 0.122860 0.871250
vt 0.122860 0.813040
vt 0.139760 0.842140
vt 0.122860 0.871250
vt 0.122860 0.813040
vt 0.222110 0.770230
vt 0.222770 0.761850
vt 0.223200 0.760530
vt 0.222110 0.770230
vt 0.222530 0.768910
vt 0.222110 0.770230
vt 0.223200 0.760530
vt 0.222530 0.768910
vt 0.209380 0.755420
vt 0.210620 0.755460
vt 0.210630 0.757070
vt 0.209380 0.755420
vt 0.209380 0.757040
vt 0.209380 0.755420
vt 0.210630 0.757070
vt 0.209380 0.757040
vt 0.216660 0.759640
vt 0.217320 0.768010
vt 0.216900 0.766700
vt 0.216660 0.759640
vt 0.216240 0.758320
vt 0.216660 0.759640
vt 0.216900 0.766700
vt 0.216240 0.758320
vt 0.224140 0.800720
vt 0.222900 0.800630
vt 0.222940 0.792250
vt 0.224140 0.800720
vt 0.224180 0.792350
vt 0.224140 0.800720
vt 0.222940 0.792250
vt 0.224180 0.792350
vt 0.223990 0.778230
vt 0.225230 0.778130
vt 0.225270 0.786510
vt 0.223990 0.778230
vt 0.224030 0.786610
vt 0.223990 0.778230
vt 0.225270 0.786510
vt 0.224030 0.786610
vt 0.222370 0.784430
vt 0.222630 0.785000
vt 0.222370 0.785520
vt 0.222370 0.784430
vt 0.222630 0.785000
vt 0.222620 0.786080
vt 0.222370 0.785520
vt 0.222630 0.785000
vt 0.222620 0.786080
vt 0.222360 0.786610
vt 0.222370 0.785520
vt 0.222620 0.786080
vt 0.222360 0.786610
vt 0.222110 0.786040
vt 0.222370 0.785520
vt 0.222360 0.786610
vt 0.222110 0.786040
vt 0.222110 0.784950
vt 0.222370 0.785520
vt 0.222110 0.786040
vt 0.222110 0.784950
vt 0.222370 0.784430
vt 0.222370 0.785520
vt 0.222110 0.784950
vt 0.210110 0.772880
vt 0.209860 0.773450
vt 0.209850 0.772360
vt 0.210110 0.772880
vt 0.210110 0.771800
vt 0.210110 0.772880
vt 0.209850 0.772360
vt 0.210110 0.771800
vt 0.209850 0.771270
vt 0.210110 0.771800
vt 0.209850 0.772360
vt 0.209850 0.771270
vt 0.209590 0.771840
vt 0.209850 0.771270
vt 0.209850 0.772360
vt 0.209590 0.771840
vt 0.209600 0.772930
vt 0.209590 0.771840
vt 0.209850 0.772360
vt 0.209600 0.772930
vt 0.209860 0.773450
vt 0.209600 0.772930
vt 0.209850 0.772360
vt 0.209860 0.773450
vt 0.224140 0.800720
vt 0.217320 0.768010
vt 0.222110 0.770230
vt 0.224140 0.800720
vt 0.224140 0.800720
vt 0.222110 0.770230
vt 0.222900 0.800630
vt 0.224140 0.800720
vt 0.214830 0.783040
vt 0.215090 0.782880
vt 0.214880 0.813810
vt 0.214830 0.783040
vt 0.214620 0.813980
vt 0.214830 0.783040
vt 0.214880 0.813810
vt 0.214620 0.813980
vt 0.222840 0.774630
vt 0.222840 0.775720
vt 0.222620 0.786080
vt 0.222840 0.774630
vt 0.222630 0.785000
vt 0.222840 0.774630
vt 0.222620 0.786080
vt 0.222630 0.785000
vt 0.212480 0.782680
vt 0.212740 0.782470
vt 0.212950 0.813410
vt 0.212480 0.782680
vt 0.212690 0.813610
vt 0.212480 0.782680
vt 0.212950 0.813410
vt 0.212690 0.813610
vt 0.212740 0.782470
vt 0.213000 0.782640
vt 0.213210 0.813570
vt 0.212740 0.782470
vt 0.212950 0.813410
vt 0.212740 0.782470
vt 0.213210 0.813570
vt 0.212950 0.813410
vt 0.209590 0.771840
vt 0.209600 0.772930
vt 0.209380 0.762560
vt 0.209590 0.771840
vt 0.209380 0.761480
vt 0.209590 0.771840
vt 0.209380 0.762560
vt 0.209380 0.761480
vt 0.214570 0.782840
vt 0.214830 0.783040
vt 0.214620 0.813980
vt 0.214570 0.782840
vt 0.214360 0.813780
vt 0.214570 0.782840
vt 0.214620 0.813980
vt 0.214360 0.813780
# 224 texture vertices

vn -0.002689 0.454527 -0.890729
vn 0.009304 -0.203719 -0.978985
vn 0.003144 0.152663 -0.988273
vn -0.002689 0.454527 -0.890729
vn -0.002676 0.454517 -0.890734
vn -0.002689 0.454527 -0.890729
vn 0.003144 0.152663 -0.988273
vn -0.002676 0.454517 -0.890734
vn 0.009304 -0.203719 -0.978985
vn 0.013824 -0.500129 -0.865841
vn 0.013813 -0.500120 -0.865846
vn 0.009304 -0.203719 -0.978985
vn 0.003144 0.152663 -0.988273
vn 0.009304 -0.203719 -0.978985
vn 0.013813 -0.500120 -0.865846
vn 0.003144 0.152663 -0.988273
vn 0.017256 -0.999442 0.028606
vn 0.017263 -0.999442 0.028613
vn 0.017256 -0.999442 0.028606
vn 0.017256 -0.999442 0.028606
vn 0.017249 -0.999442 0.028600
vn 0.017256 -0.999442 0.028606
vn 0.017256 -0.999442 0.028606
vn 0.017249 -0.999442 0.028600
vn 0.002684 -0.454506 0.890740
vn -0.009316 0.203740 0.978981
vn -0.003156 -0.152640 0.988277
vn 0.002684 -0.454506 0.890740
vn 0.002682 -0.454508 0.890739
vn 0.002684 -0.454506 0.890740
vn -0.003156 -0.152640 0.988277
vn 0.002682 -0.454508 0.890739
vn -0.009316 0.203740 0.978981
vn -0.013820 0.500134 0.865838
vn -0.013821 0.500134 0.865838
vn -0.009316 0.203740 0.978981
vn -0.003156 -0.152640 0.988277
vn -0.009316 0.203740 0.978981
vn -0.013821 0.500134 0.865838
vn -0.003156 -0.152640 0.988277
vn -0.017261 0.999441 -0.028634
vn -0.017263 0.999441 -0.028633
vn -0.017261 0.999441 -0.028634
vn -0.017261 0.999441 -0.028634
vn -0.017260 0.999441 -0.028636
vn -0.017261 0.999441 -0.028634
vn -0.017261 0.999441 -0.028634
vn -0.017260 0.999441 -0.028636
vn -0.999647 -0.024832 -0.009463
vn -0.999647 -0.024831 -0.009462
vn -0.999647 -0.024831 -0.009461
vn -0.999647 -0.024832 -0.009463
vn -0.999647 -0.024832 -0.009463
vn -0.999647 -0.024831 -0.009461
vn -0.999647 -0.024833 -0.009461
vn -0.999647 -0.024832 -0.009463
vn -0.999647 -0.024831 -0.009462
vn -0.999647 -0.024830 -0.009458
vn -0.999647 -0.024831 -0.009461
vn -0.999647 -0.024831 -0.009462
vn -0.999647 -0.024832 -0.009463
vn -0.999647 -0.024834 -0.009465
vn -0.999647 -0.024831 -0.009462
vn -0.999647 -0.024832 -0.009463
vn 0.999647 0.024831 0.009459
vn 0.999647 0.024830 0.009461
vn 0.999647 0.024831 0.009459
vn 0.999647 0.024831 0.009459
vn 0.999647 0.024832 0.009456
vn 0.999647 0.024831 0.009459
vn 0.999647 0.024831 0.009459
vn 0.999647 0.024832 0.009456
vn 0.999647 0.024831 0.009459
vn 0.999647 0.024832 0.009455
vn 0.999647 0.024832 0.009456
vn 0.999647 0.024831 0.009459
vn 0.999647 0.024830 0.009461
vn 0.999647 0.024829 0.009461
vn 0.999647 0.024831 0.009459
vn 0.999647 0.024830 0.009461
vn -0.999665 -0.024830 -0.007290
vn -0.999665 -0.024836 -0.007302
vn -0.999665 -0.024830 -0.007290
vn -0.999665 -0.024830 -0.007290
vn -0.999665 -0.024824 -0.007278
vn -0.999665 -0.024830 -0.007290
vn -0.999665 -0.024830 -0.007290
vn -0.999665 -0.024824 -0.007278
vn 0.017676 -0.701370 -0.712578
vn 0.015760 -0.533480 -0.845666
vn 0.018747 -0.831911 -0.554593
vn 0.017676 -0.701370 -0.712578
vn 0.018741 -0.831919 -0.554580
vn 0.017676 -0.701370 -0.712578
vn 0.018747 -0.831911 -0.554593
vn 0.018741 -0.831919 -0.554580
vn 0.999665 0.024834 0.007309
vn 0.999665 0.024835 0.007317
vn 0.999665 0.024834 0.007309
vn 0.999665 0.024834 0.007309
vn 0.999665 0.024832 0.007301
vn 0.999665 0.024834 0.007309
vn 0.999665 0.024834 0.007309
vn 0.999665 0.024832 0.007301
vn -0.016806 0.621004 0.783627
vn -0.016800 0.621005 0.783627
vn -0.013250 0.349897 0.936695
vn -0.016806 0.621004 0.783627
vn -0.013258 0.349901 0.936693
vn -0.016806 0.621004 0.783627
vn -0.013250 0.349897 0.936695
vn -0.013258 0.349901 0.936693
vn 0.015760 -0.533480 -0.845666
vn 0.017676 -0.701370 -0.712578
vn 0.013248 -0.349890 -0.936697
vn 0.015760 -0.533480 -0.845666
vn 0.013242 -0.349894 -0.936696
vn 0.015760 -0.533480 -0.845666
vn 0.013248 -0.349890 -0.936697
vn 0.013242 -0.349894 -0.936696
vn -0.021438 0.964091 -0.264706
vn -0.021472 0.964077 -0.264754
vn -0.021412 0.964086 -0.264727
vn -0.021438 0.964091 -0.264706
vn -0.021472 0.964077 -0.264754
vn -0.021415 0.964077 -0.264760
vn -0.021412 0.964086 -0.264727
vn -0.021472 0.964077 -0.264754
vn -0.021415 0.964077 -0.264760
vn -0.021385 0.964089 -0.264716
vn -0.021412 0.964086 -0.264727
vn -0.021415 0.964077 -0.264760
vn -0.021385 0.964089 -0.264716
vn -0.021382 0.964089 -0.264716
vn -0.021412 0.964086 -0.264727
vn -0.021385 0.964089 -0.264716
vn -0.021382 0.964089 -0.264716
vn -0.021379 0.964091 -0.264712
vn -0.021412 0.964086 -0.264727
vn -0.021382 0.964089 -0.264716
vn -0.021379 0.964091 -0.264712
vn -0.021438 0.964091 -0.264706
vn -0.021412 0.964086 -0.264727
vn -0.021379 0.964091 -0.264712
vn 0.021378 -0.964092 0.264707
vn 0.021372 -0.964089 0.264719
vn 0.021406 -0.964080 0.264749
vn 0.021378 -0.964092 0.264707
vn 0.021411 -0.964083 0.264737
vn 0.021378 -0.964092 0.264707
vn 0.021406 -0.964080 0.264749
vn 0.021411 -0.964083 0.264737
vn 0.021439 -0.964071 0.264779
vn 0.021411 -0.964083 0.264737
vn 0.021406 -0.964080 0.264749
vn 0.021439 -0.964071 0.264779
vn 0.021434 -0.964068 0.264791
vn 0.021439 -0.964071 0.264779
vn 0.021406 -0.964080 0.264749
vn 0.021434 -0.964068 0.264791
vn 0.021400 -0.964077 0.264761
vn 0.021434 -0.964068 0.264791
vn 0.021406 -0.964080 0.264749
vn 0.021400 -0.964077 0.264761
vn 0.021372 -0.964089 0.264719
vn 0.021400 -0.964077 0.264761
vn 0.021406 -0.964080 0.264749
vn 0.021372 -0.964089 0.264719
vn -0.016806 0.621004 0.783627
vn -0.018734 0.831908 0.554598
vn -0.018732 0.831911 0.554593
vn -0.016806 0.621004 0.783627
vn -0.016806 0.621004 0.783627
vn -0.018732 0.831911 0.554593
vn -0.016800 0.621005 0.783627
vn -0.016806 0.621004 0.783627
vn 0.512049 0.331949 0.792222
vn 0.512069 0.331944 0.792211
vn 0.512049 0.331949 0.792222
vn 0.512049 0.331949 0.792222
vn 0.512030 0.331954 0.792232
vn 0.512049 0.331949 0.792222
vn 0.512049 0.331949 0.792222
vn 0.512030 0.331954 0.792232
vn 0.999801 0.008416 -0.018070
vn 0.999801 0.008418 -0.018064
vn 0.999801 0.008416 -0.018070
vn 0.999801 0.008416 -0.018070
vn 0.999801 0.008413 -0.018076
vn 0.999801 0.008416 -0.018070
vn 0.999801 0.008416 -0.018070
vn 0.999801 0.008413 -0.018076
vn 0.486351 -0.324032 -0.811459
vn 0.486366 -0.324028 -0.811452
vn 0.486351 -0.324032 -0.811459
vn 0.486351 -0.324032 -0.811459
vn 0.486336 -0.324036 -0.811467
vn 0.486351 -0.324032 -0.811459
vn 0.486351 -0.324032 -0.811459
vn 0.486336 -0.324036 -0.811467
vn -0.512067 -0.331945 -0.792212
vn -0.512073 -0.331944 -0.792209
vn -0.512067 -0.331945 -0.792212
vn -0.512067 -0.331945 -0.792212
vn -0.512062 -0.331946 -0.792215
vn -0.512067 -0.331945 -0.792212
vn -0.512067 -0.331945 -0.792212
vn -0.512062 -0.331946 -0.792215
vn -0.999801 -0.008414 0.018075
vn -0.999801 -0.008414 0.018076
vn -0.999801 -0.008414 0.018075
vn -0.999801 -0.008414 0.018075
vn -0.999801 -0.008414 0.018075
vn -0.999801 -0.008414 0.018075
vn -0.999801 -0.008414 0.018075
vn -0.999801 -0.008414 0.018075
vn -0.486332 0.324037 0.811468
vn -0.486342 0.324036 0.811463
vn -0.486332 0.324037 0.811468
vn -0.486332 0.324037 0.811468
vn -0.486322 0.324039 0.811474
vn -0.486332 0.324037 0.811468
vn -0.486332 0.324037 0.811468
vn -0.486322 0.324039 0.811474
# 224 vertex normals

g mat1
f 7/1/1 8/2/2 2/3/3
f 1/5/5 7/6/6 2/7/7
f 8/9/9 9/10/10 3/11/11
f 2/13/13 8/14/14 3/15/15
f 9/17/17 10/18/18 4/19/19
f 3/21/21 9/22/22 4/23/23
f 10/25/25 11/26/26 5/27/27
f 4/29/29 10/30/30 5/31/31
f 11/33/33 12/34/34 6/35/35
f 5/37/37 11/38/38 6/39/39
f 12/41/41 7/42/42 1/43/43
f 6/45/45 12/46/46 1/47/47
f 2/49/49 4/50/50 6/51/51
f 2/53/53 6/54/54 1/55/55
f 4/57/57 5/58/58 6/59/59
f 2/61/61 3/62/62 4/63/63
f 9/65/65 8/66/66 12/67/67
f 10/69/69 9/70/70 12/71/71
f 12/73/73 11/74/74 10/75/75
f 8/77/77 7/78/78 12/79/79
f 16/81/81 18/82/82 17/83/83
f 15/85/85 16/86/86 17/87/87
f 18/89/89 20/90/90 19/91/91
f 17/93/93 18/94/94 19/95/95
f 20/97/97 14/98/98 13/99/99
f 19/101/101 20/102/102 13/103/103
f 13/105/105 15/106/106 17/107/107
f 19/109/109 13/110/110 17/111/111
f 20/113/113 18/114/114 16/115/115
f 14/117/117 20/118/118 16/119/119
f 22/121/121 23/122/122 21/123/123
f 23/125/125 24/126/126 21/127/127
f 24/129/129 25/130/130 21/131/131
f 25/133/133 26/134/134 21/135/135
f 26/137/137 27/138/138 21/139/139
f 27/141/141 22/142/142 21/143/143
f 29/145/145 28/146/146 34/147/147
f 30/149/149 29/150/150 34/151/151
f 31/153/153 30/154/154 34/155/155
f 32/157/157 31/158/158 34/159/159
f 33/161/161 32/162/162 34/163/163
f 28/165/165 33/166/166 34/167/167
f 13/169/169 14/170/170 16/171/171
f 13/173/173 16/174/174 15/175/175
f 28/177/177 29/178/178 23/179/179
f 22/181/181 28/182/182 23/183/183
f 29/185/185 30/186/186 24/187/187
f 23/189/189 29/190/190 24/191/191
f 30/193/193 31/194/194 25/195/195
f 24/197/197 30/198/198 25/199/199
f 31/201/201 32/202/202 26/203/203
f 25/205/205 31/206/206 26/207/207
f 32/209/209 33/210/210 27/211/211
f 26/213/213 32/214/214 27/215/215
f 33/217/217 28/218/218 22/219/219
f 27/221/221 33/222/222 22/223/223
# 56 elements

