# Created by 3DAce v2.72


g
v 2.841566 1.611662 -2.399714
v 2.782426 1.680916 -2.741179
v 2.683782 1.833357 -2.700674
v 2.695244 1.837922 -2.333562
v 2.669295 1.827071 -2.331239
v 2.814829 1.600964 -2.398636
v 2.655153 1.822171 -2.702249
v 2.755602 1.670229 -2.740099
# 8 vertices

vt 0.624000 0.876920
vt 0.635900 0.875050
vt 0.624110 0.860750
vt 0.624000 0.876920
vt 0.635900 0.875050
vt 0.632090 0.859690
vt 0.624110 0.860750
vt 0.635900 0.875050
vt 0.898790 0.534930
vt 0.898610 0.535220
vt 0.899860 0.538610
vt 0.898790 0.534930
vt 0.898610 0.535220
vt 0.899690 0.538900
vt 0.899860 0.538610
vt 0.898610 0.535220
vt 0.898780 0.543300
vt 0.898610 0.543340
vt 0.898880 0.549600
vt 0.898780 0.543300
vt 0.898610 0.543340
vt 0.898690 0.549570
vt 0.898880 0.549600
vt 0.898610 0.543340
vt 0.876350 0.503370
vt 0.876540 0.503670
vt 0.877090 0.500910
vt 0.876350 0.503370
vt 0.876540 0.503670
vt 0.877270 0.501200
vt 0.877090 0.500910
vt 0.876540 0.503670
vt 0.883020 0.503540
vt 0.883290 0.501070
vt 0.880310 0.503680
vt 0.883020 0.503540
vt 0.883290 0.501070
vt 0.880800 0.500000
vt 0.880310 0.503680
vt 0.883290 0.501070
vt 0.892160 0.498680
vt 0.891990 0.498660
vt 0.891730 0.504480
vt 0.892160 0.498680
vt 0.891990 0.498660
vt 0.891560 0.504470
vt 0.891730 0.504480
vt 0.891990 0.498660
# 48 texture vertices

vn 0.835040 0.549184 -0.033242
vn 0.834940 0.549346 -0.033070
vn 0.834940 0.549346 -0.033070
vn 0.835040 0.549184 -0.033242
vn 0.834940 0.549346 -0.033070
vn 0.834841 0.549508 -0.032899
vn 0.834940 0.549346 -0.033070
vn 0.834940 0.549346 -0.033070
vn 0.123092 -0.209888 0.969946
vn 0.142475 -0.194560 0.970488
vn 0.142475 -0.194560 0.970488
vn 0.123092 -0.209888 0.969946
vn 0.142475 -0.194560 0.970488
vn 0.161770 -0.179112 0.970438
vn 0.142475 -0.194560 0.970488
vn 0.142475 -0.194560 0.970488
vn -0.385599 0.922663 0.002512
vn -0.374781 0.927113 0.001146
vn -0.374781 0.927113 0.001146
vn -0.385599 0.922663 0.002512
vn -0.374781 0.927113 0.001146
vn -0.363912 0.931433 -0.000221
vn -0.374781 0.927113 0.001146
vn -0.374781 0.927113 0.001146
vn -0.032778 0.221132 -0.974693
vn -0.073152 0.203742 -0.976288
vn -0.073152 0.203742 -0.976288
vn -0.032778 0.221132 -0.974693
vn -0.073152 0.203742 -0.976288
vn -0.113385 0.185958 -0.975994
vn -0.073152 0.203742 -0.976288
vn -0.073152 0.203742 -0.976288
vn -0.829059 -0.557801 0.038969
vn -0.832436 -0.552925 0.036386
vn -0.832436 -0.552925 0.036386
vn -0.829059 -0.557801 0.038969
vn -0.832436 -0.552925 0.036386
vn -0.835779 -0.548025 0.033801
vn -0.832436 -0.552925 0.036386
vn -0.832436 -0.552925 0.036386
vn 0.350412 -0.904202 -0.244194
vn 0.351073 -0.903944 -0.244197
vn 0.351073 -0.903944 -0.244197
vn 0.350412 -0.904202 -0.244194
vn 0.351073 -0.903944 -0.244197
vn 0.351734 -0.903687 -0.244199
vn 0.351073 -0.903944 -0.244197
vn 0.351073 -0.903944 -0.244197
# 48 vertex normals

g mat1
f 2/1/1 3/2/2 1/3/3
f 3/5/5 4/6/6 1/7/7
f 6/9/9 1/10/10 5/11/11
f 1/13/13 4/14/14 5/15/15
f 5/17/17 4/18/18 7/19/19
f 4/21/21 3/22/22 7/23/23
f 7/25/25 3/26/26 8/27/27
f 3/29/29 2/30/30 8/31/31
f 7/33/33 8/34/34 5/35/35
f 8/37/37 6/38/38 5/39/39
f 8/41/41 2/42/42 6/43/43
f 2/45/45 1/46/46 6/47/47
# 12 elements

