# Created by Metasequoia

v 1.672962 2.044316 -5.398015
v 1.672962 -0.039167 -5.398015
v 1.786040 2.044316 -5.398015
v 1.786040 -0.039167 -5.398015
v 1.786040 2.044316 -5.511094
v 1.786040 -0.039167 -5.511094
v 1.672962 2.044316 -5.511094
v 1.672962 -0.039167 -5.511094
v 1.954440 0.073747 -5.453364
v 1.954440 0.073747 -5.110708
v 1.954440 -0.223003 -5.282036
v 1.954440 -0.223003 -5.624691
v 1.954440 0.073747 -5.796023
v 1.954440 0.370496 -5.624691
v 1.954440 0.370496 -5.282036
v 1.905648 0.073747 -5.025044
v 1.905648 -0.297190 -5.239207
v 1.905648 -0.297190 -5.667524
v 1.905648 0.073747 -5.881685
v 1.905648 0.444684 -5.667524
v 1.905648 0.444684 -5.239207
v 1.779293 0.073747 -5.025044
v 1.779293 -0.297190 -5.239207
v 1.779293 -0.297190 -5.667524
v 1.779293 0.073747 -5.881685
v 1.779293 0.444684 -5.667524
v 1.779293 0.444684 -5.239207
v 1.730502 0.073747 -5.110708
v 1.730502 -0.223002 -5.282036
v 1.730502 -0.223002 -5.624691
v 1.730502 0.073747 -5.796023
v 1.730502 0.370496 -5.624691
v 1.730502 0.370496 -5.282036
v 1.730502 0.073747 -5.453364
# 34 vertices

vt 0.08325 0.98829
vt 0.08325 0.83988
vt 0.09196 0.98829
vt 0.09196 0.83988
vt 0.39884 0.83751
vt 0.37445 0.79527
vt 0.35006 0.83751
vt 0.42323 0.79527
vt 0.44762 0.83751
vt 0.42323 0.87975
vt 0.37445 0.87975
vt 0.37163 0.79168
vt 0.33787 0.83751
vt 0.42933 0.78470
vt 0.45981 0.83751
vt 0.42933 0.89031
vt 0.36835 0.89031
# 17 texture vertices

vn 0.00000 0.00000 1.00000
vn 1.00000 0.00000 0.00000
vn 0.00000 0.00000 -1.00000
vn 0.95170 0.05802 0.30150
vn 0.95170 -0.23209 0.20100
vn 0.95170 -0.29011 -0.10050
vn 0.95170 -0.05802 -0.30150
vn 0.95170 0.23209 -0.20100
vn 0.95170 0.29011 0.10050
vn 0.86502 -0.09482 0.49270
vn 0.86502 -0.47410 0.16423
vn 0.86502 -0.37928 -0.32846
vn 0.86502 0.09482 -0.49270
vn 0.86502 0.47409 -0.16423
vn 0.86502 0.37928 0.32847
vn -0.61167 -0.17699 0.77106
vn -0.71927 -0.45885 0.52163
vn -0.76492 -0.60618 -0.21783
vn -0.66329 -0.19847 -0.72156
vn -0.71928 0.45885 -0.52163
vn -0.71928 0.68117 0.13656
vn -0.95170 -0.05802 0.30149
vn -0.95170 -0.29011 0.10050
vn -0.96800 -0.21734 -0.12548
vn -0.94199 0.00000 -0.33565
vn -0.95170 0.29011 -0.10050
vn -0.95170 0.23209 0.20099
vn -1.00000 0.00000 0.00000
vn 0.00000 1.00000 0.00000
vn 0.00000 -1.00000 0.00000
vn 0.00000 -0.50000 0.86602
vn 0.00000 -0.50000 0.86602
vn 0.00000 -0.50000 -0.86602
vn 0.00000 0.50000 -0.86602
vn 0.00000 0.50000 0.86602
vn 0.00000 0.50000 0.86602
# 36 normal vertices

f 2/2/1 4/2/1 3/1/1
f 1/1/1 2/2/1 3/1/1
f 4/2/2 6/4/2 5/3/2
f 3/1/2 4/2/2 5/3/2
f 6/4/3 8/4/3 7/3/3
f 5/3/3 6/4/3 7/3/3
f 8/4/28 2/2/28 1/1/28
f 7/3/28 8/4/28 1/1/28
f 1/1/29 3/1/29 5/3/29
f 7/3/29 1/1/29 5/3/29
f 8/4/30 6/4/30 4/2/30
f 2/2/30 8/4/30 4/2/30
f 10/7/4 11/6/5 9/5/2
f 11/6/5 12/8/6 9/5/2
f 12/8/6 13/9/7 9/5/2
f 13/9/7 14/10/8 9/5/2
f 14/10/8 15/11/9 9/5/2
f 15/11/9 10/7/4 9/5/2
f 34/5/28 29/6/23 28/7/22
f 34/5/28 30/8/24 29/6/23
f 34/5/28 31/9/25 30/8/24
f 34/5/28 32/10/26 31/9/25
f 34/5/28 33/11/27 32/10/26
f 34/5/28 28/7/22 33/11/27
f 16/13/10 17/12/11 11/6/5
f 10/7/4 16/13/10 11/6/5
f 17/12/11 18/14/12 12/8/6
f 11/6/5 17/12/11 12/8/6
f 18/14/12 19/15/13 13/9/7
f 12/8/6 18/14/12 13/9/7
f 19/15/13 20/16/14 14/10/8
f 13/9/7 19/15/13 14/10/8
f 20/16/14 21/17/15 15/11/9
f 14/10/8 20/16/14 15/11/9
f 21/17/15 16/13/10 10/7/4
f 15/11/9 21/17/15 10/7/4
f 22/13/16 23/12/17 17/12/31
f 16/13/32 22/13/16 17/12/31
f 23/12/30 24/14/18 18/14/30
f 17/12/30 23/12/30 18/14/30
f 24/14/33 25/15/19 19/15/33
f 18/14/33 24/14/33 19/15/33
f 25/15/34 26/16/20 20/16/34
f 19/15/34 25/15/34 20/16/34
f 26/16/29 27/17/21 21/17/29
f 20/16/29 26/16/29 21/17/29
f 27/17/35 22/13/36 16/13/35
f 21/17/36 27/17/35 16/13/35
f 28/7/22 29/6/23 23/12/17
f 22/13/16 28/7/22 23/12/17
f 29/6/23 30/8/24 24/14/18
f 23/12/17 29/6/23 24/14/18
f 31/9/25 25/15/19 24/14/18
f 30/8/24 31/9/25 24/14/18
f 31/9/25 32/10/26 26/16/20
f 25/15/19 31/9/25 26/16/20
f 32/10/26 33/11/27 27/17/21
f 26/16/20 32/10/26 27/17/21
f 33/11/27 28/7/22 22/13/16
f 27/17/21 33/11/27 22/13/16
# 60 elements

