# Created by Metasequoia

v 6.816426 1.597213 -7.415214
v 6.816426 1.621561 -8.823185
v 6.816426 1.660201 -9.218693
v 6.816426 1.697430 -8.790975
v 6.816426 1.687412 -7.383007
v 6.816426 1.621859 -7.107955
v 6.816426 1.621859 -7.107955
v 2.856871 1.862411 -7.563903
v 2.856871 1.951024 -7.946522
v 2.856871 2.001370 -7.614703
v 2.856871 2.230054 -4.019187
v 2.856871 2.010299 -3.945374
v 2.856871 2.131422 -3.466209
v 6.869851 1.691686 -6.031021
v 6.869851 1.555011 -6.031021
v 6.917927 1.691686 -9.211362
v 6.917927 1.555011 -9.211362
v 6.818604 1.691686 -9.211362
v 6.818604 1.555011 -9.211362
v 6.818604 1.555011 -6.254026
v 6.818604 1.691686 -6.254026
v 6.917927 1.555011 -6.254026
v 6.917927 1.691686 -6.254026
v 6.829178 1.555011 -6.124744
v 6.907353 1.555011 -6.124744
v 6.829178 1.691686 -6.124744
v 6.907353 1.691686 -6.124744
v 5.822161 1.730815 -6.398584
v 5.822161 1.505096 -6.330706
v 5.917598 1.730815 -6.398584
v 5.917598 1.505096 -6.330706
v 5.917598 1.687621 -8.300983
v 5.917598 1.505096 -8.300983
v 5.822161 1.687621 -8.300983
v 5.822161 1.505096 -8.300983
v 4.068008 1.909778 -5.535012
v 4.068008 1.610013 -5.427664
v 4.163446 1.909778 -5.535012
v 4.163446 1.610013 -5.427664
v 4.163446 1.792538 -7.148942
v 4.163446 1.610013 -7.148942
v 4.068008 1.792538 -7.148942
v 4.068008 1.610013 -7.148942
v 5.870109 1.392360 -5.319721
v 5.870109 1.275639 -5.403910
v 5.971193 1.333998 -5.403910
v 5.971193 1.450720 -5.403910
v 5.870109 1.509077 -5.403910
v 5.769026 1.450720 -5.403910
v 5.769026 1.333998 -5.403910
v 5.870109 1.221840 -5.587011
v 6.017782 1.307099 -5.587015
v 6.017782 1.477616 -5.587011
v 5.870109 1.562876 -5.587011
v 5.722437 1.477616 -5.587011
v 5.722437 1.307099 -5.587015
v 5.870109 1.221840 -8.580354
v 6.017782 1.307099 -8.580354
v 6.017782 1.477616 -8.580354
v 5.870109 1.562876 -8.580354
v 5.722437 1.477616 -8.580354
v 5.722437 1.307099 -8.580354
v 5.986285 1.478603 -5.924318
v 5.986285 1.478603 -6.144790
v 6.031227 1.557057 -5.980836
v 6.031227 1.557057 -6.175971
v 5.956941 1.505004 -5.924318
v 5.956941 1.505004 -6.144790
v 5.753933 1.478603 -5.924318
v 5.753933 1.478603 -6.144790
v 5.708994 1.557057 -5.980836
v 5.708994 1.557057 -6.175971
v 5.783278 1.505004 -5.924318
v 5.783278 1.505004 -6.144790
v 5.986285 1.306114 -5.924318
v 5.986285 1.306114 -6.144790
v 6.031227 1.227659 -5.980836
v 6.031227 1.227659 -6.175971
v 5.956941 1.279713 -5.924318
v 5.956941 1.279713 -6.144790
v 5.753933 1.306114 -5.924318
v 5.753933 1.306114 -6.144790
v 5.708994 1.227659 -5.980836
v 5.708994 1.227659 -6.175971
v 5.783278 1.279713 -5.924318
v 5.783278 1.279713 -6.144790
v 5.986285 1.478603 -6.493571
v 5.986285 1.478603 -6.532819
v 5.971989 1.491757 -6.126527
v 6.078501 1.614285 -6.493571
v 6.078501 1.614285 -6.532819
v 5.956941 1.505004 -6.493571
v 5.956941 1.505004 -6.532819
v 5.753933 1.478603 -6.493571
v 5.753933 1.478603 -6.532819
v 5.768229 1.491757 -6.126527
v 5.661719 1.614285 -6.493571
v 5.661719 1.614285 -6.532819
v 5.783278 1.505004 -6.493571
v 5.783278 1.505004 -6.532819
v 5.986285 1.306114 -6.493571
v 5.986285 1.306114 -6.532819
v 5.971989 1.292960 -6.126527
v 6.078501 1.170432 -6.493571
v 6.078501 1.170432 -6.532819
v 5.956941 1.279713 -6.493571
v 5.956941 1.279713 -6.532819
v 5.753933 1.306114 -6.493571
v 5.753933 1.306114 -6.532819
v 5.768229 1.292960 -6.126527
v 5.661719 1.170432 -6.493571
v 5.661719 1.170432 -6.532819
v 5.783278 1.279713 -6.493571
v 5.783278 1.279713 -6.532819
v 5.985573 1.478890 -7.944046
v 5.985573 1.478890 -8.515618
v 6.078884 1.616392 -8.001509
v 6.078884 1.616392 -8.504215
v 5.958899 1.499927 -7.944046
v 5.958899 1.499927 -8.515618
v 5.755233 1.478890 -7.944046
v 5.755233 1.478890 -8.515618
v 5.661920 1.616392 -8.001509
v 5.661920 1.616392 -8.504215
v 5.781906 1.499927 -7.944046
v 5.781906 1.499927 -8.515618
v 5.985573 1.305368 -7.944046
v 5.985573 1.305368 -8.515618
v 6.078884 1.167866 -8.001509
v 6.078884 1.167866 -8.504215
v 5.958899 1.284331 -7.944046
v 5.958899 1.284331 -8.515618
v 5.755233 1.305368 -7.944046
v 5.755233 1.305368 -8.515618
v 5.661920 1.167866 -8.001509
v 5.661920 1.167866 -8.504215
v 5.781906 1.284331 -7.944046
v 5.781906 1.284331 -8.515618
# 138 vertices

vt 0.25593 0.80238
vt 0.12827 0.92495
vt 0.25593 0.81814
vt 0.12850 0.93504
vt 0.25864 0.93697
vt 0.12954 0.98127
vt 0.12984 0.99426
vt 0.25892 0.94954
vt 0.39444 0.93105
vt 0.26424 0.82043
vt 0.26424 0.93866
vt 0.39444 0.97734
vt 0.26424 0.80224
vt 0.39349 0.93073
vt 0.39349 0.92169
vt 0.26329 0.80192
vt 0.26424 0.94958
vt 0.39444 0.99142
vt 0.26232 0.94931
vt 0.26329 0.93834
vt 0.26329 0.82011
vt 0.25890 0.80221
vt 0.20717 0.99195
vt 0.20343 0.99195
vt 0.20717 0.98650
vt 0.20343 0.98650
vt 0.33041 0.99195
vt 0.33041 0.98650
vt 0.21233 0.99195
vt 0.21233 0.98650
vt 0.22335 0.97889
vt 0.22064 0.96988
vt 0.29931 0.97717
vt 0.29931 0.96988
vt 0.22564 0.98078
vt 0.22135 0.96881
vt 0.29008 0.97610
vt 0.29008 0.96881
vt 0.00289 0.38284
vt 0.00655 0.38030
vt 0.00655 0.37776
vt 0.00677 0.38500
vt 0.00738 0.38721
vt 0.03880 0.38659
vt 0.04016 0.39001
vt 0.03880 0.38774
vt 0.02920 0.38659
vt 0.02920 0.38774
vt 0.03166 0.39001
vt 0.03880 0.37794
vt 0.04016 0.37567
vt 0.03880 0.37909
vt 0.03166 0.37567
vt 0.02920 0.37794
vt 0.02920 0.37909
vt 0.05569 0.38659
vt 0.05573 0.39132
vt 0.05569 0.38774
vt 0.03801 0.38717
vt 0.05402 0.39132
vt 0.05398 0.38659
vt 0.05398 0.38774
vt 0.05569 0.37794
vt 0.05569 0.37318
vt 0.05569 0.37909
vt 0.05398 0.37909
vt 0.05398 0.37318
vt 0.03801 0.37851
vt 0.05398 0.37794
vt 0.14482 0.38655
vt 0.14482 0.39026
vt 0.14482 0.37913
vt 0.14482 0.37542
vt 0.01452 0.37913
vt 0.01452 0.37542
vt 0.01455 0.38623
vt 0.01455 0.39007
# 77 texture vertices

vn -0.05618 -0.99782 0.03450
vn -0.07870 -0.99526 -0.05709
vn -0.11711 -0.98007 -0.16046
vn 0.06472 0.99711 -0.03980
vn 0.19129 0.97792 0.08420
vn -0.03391 -0.99623 0.07991
vn 0.10013 -0.96463 0.24384
vn -0.09254 -0.99291 -0.07457
vn -0.14257 -0.96426 -0.22332
vn 0.05917 0.99555 -0.07332
vn 0.18001 0.98221 0.05345
vn -0.00070 -0.99249 0.12231
vn 0.00000 1.00000 0.00000
vn 0.00000 -1.00000 0.00000
vn -0.00000 -0.00000 -1.00000
vn -0.99852 0.00000 0.05438
vn -0.99963 0.00000 0.02719
vn 0.00000 0.28798 0.95764
vn 0.00000 0.28798 0.95764
vn 1.00000 0.00000 0.00000
vn 1.00000 0.00000 0.00000
vn 0.00000 0.33714 0.94145
vn 0.00000 0.00000 -1.00000
vn -0.00000 0.00001 1.00000
vn -0.11246 -0.84156 0.52833
vn 0.67259 -0.51817 0.52833
vn 0.78504 0.32340 0.52832
vn 0.11245 0.84157 0.52832
vn -0.67258 0.51817 0.52832
vn -0.78504 -0.32340 0.52832
vn -0.00299 -0.98970 0.14312
vn 0.85561 -0.49744 0.14311
vn 0.85860 0.49227 0.14311
vn 0.00299 0.98970 0.14311
vn -0.85562 0.49743 0.14311
vn -0.85860 -0.49226 0.14311
vn 0.36033 0.40050 0.84247
vn -0.22252 -0.24733 -0.94303
vn -0.36032 0.40052 0.84247
vn 0.22252 -0.24734 -0.94303
vn 0.36033 -0.40050 0.84247
vn -0.22252 0.24733 -0.94303
vn -0.36032 -0.40051 0.84247
vn 0.22252 0.24734 -0.94303
vn 0.82678 -0.56192 0.02615
vn 0.82593 -0.56134 0.05229
vn 0.82694 -0.56203 0.01743
vn -0.66844 0.74355 0.01806
vn -0.82694 -0.56202 0.01743
vn -0.82594 -0.56134 0.05229
vn -0.82678 -0.56191 0.02615
vn 0.66830 0.74340 0.02710
vn 0.82694 0.56203 0.01743
vn 0.82593 0.56134 0.05229
vn 0.82678 0.56192 0.02615
vn -0.66830 -0.74340 0.02709
vn -0.82678 0.56191 0.02615
vn -0.82594 0.56134 0.05229
vn -0.82694 0.56202 0.01743
vn 0.66844 -0.74355 0.01806
vn 0.20284 0.25720 0.94483
vn 0.04250 0.05389 -0.99764
vn -0.20285 0.25719 0.94483
vn -0.04250 0.05389 -0.99764
vn 0.20284 -0.25720 0.94483
vn 0.04250 -0.05389 -0.99764
vn -0.20285 -0.25719 0.94483
vn -0.04250 -0.05389 -0.99764
vn 0.29712 0.93484 0.19439
vn 0.32056 0.92142 0.21960
vn 0.02441 0.98839 -0.14997
vn 0.03755 0.99226 -0.11835
vn -1.00000 0.00000 0.00000
vn -1.00000 0.00000 0.00000
vn 0.99963 0.00000 0.02719
vn 0.99852 0.00000 0.05439
vn -0.97001 0.00000 0.24307
vn 0.98367 0.00000 0.17996
vn 0.96070 0.00000 0.27759
vn 0.92843 0.00000 0.37150
vn 0.92843 0.00000 0.37150
vn -0.91734 0.00000 0.39810
vn -0.91734 0.00000 0.39810
vn -0.66757 0.74258 0.05417
vn -0.66830 0.74340 0.02709
vn 0.66844 0.74355 0.01806
vn 0.66757 0.74258 0.05417
vn -0.66844 -0.74355 0.01806
vn -0.66757 -0.74258 0.05417
vn 0.66757 -0.74258 0.05417
vn 0.66830 -0.74340 0.02710
vn 0.50001 0.86602 0.00000
vn 0.50000 0.86602 0.00000
vn -0.50001 0.86602 0.00000
vn -0.50001 0.86602 0.00000
vn -0.50000 -0.86602 0.00000
vn 0.50000 -0.86603 0.00000
vn 0.50000 -0.86603 0.00000
vn 0.86771 -0.49707 0.00000
vn 0.86771 -0.49707 0.00000
vn 0.86771 -0.49707 0.00000
vn -0.57385 0.81896 0.00000
vn -0.57385 0.81896 0.00000
vn -0.57385 0.81896 0.00000
vn -0.86773 -0.49704 0.00000
vn -0.86773 -0.49704 -0.00000
vn -0.86773 -0.49704 0.00000
vn 0.57386 0.81895 0.00000
vn 0.57386 0.81895 0.00000
vn 0.86772 0.49706 0.00000
vn -0.57386 -0.81895 0.00000
vn -0.57386 -0.81895 -0.00000
vn -0.57386 -0.81895 0.00000
vn -0.86773 0.49704 0.00000
vn -0.86773 0.49704 0.00000
vn -0.86773 0.49704 0.00000
vn 0.57387 -0.81895 0.00000
vn 0.57387 -0.81895 0.00000
vn 0.57387 -0.81895 0.00000
vn 0.82706 -0.56211 0.00000
vn 0.82706 -0.56211 0.00000
vn -0.66855 0.74367 0.00000
vn -0.66855 0.74367 0.00000
vn -0.82707 -0.56210 0.00000
vn 0.66855 0.74367 0.00000
vn 0.66855 0.74367 0.00000
vn 0.82706 0.56211 0.00000
vn -0.66855 -0.74367 0.00000
vn -0.66855 -0.74367 0.00000
vn -0.82707 0.56210 0.00000
vn 0.66855 -0.74367 0.00000
vn 0.66855 -0.74367 0.00000
vn 0.82746 -0.56153 0.00000
vn 0.82746 -0.56153 0.00000
vn 0.82746 -0.56153 0.00000
vn -0.69650 0.71755 0.00000
vn -0.69650 0.71755 0.00000
vn -0.69650 0.71755 0.00000
vn -0.82745 -0.56153 0.00000
vn -0.82745 -0.56153 -0.00000
vn -0.82745 -0.56153 0.00000
vn 0.69650 0.71756 0.00000
vn 0.69650 0.71756 0.00000
vn 0.82746 0.56153 0.00000
vn 0.82746 0.56153 0.00000
vn -0.69650 -0.71755 0.00000
vn -0.69650 -0.71755 -0.00000
vn -0.69650 -0.71755 0.00000
vn -0.82745 0.56153 0.00000
vn -0.82745 0.56153 0.00000
vn -0.82745 0.56153 0.00000
vn 0.69650 -0.71756 0.00000
vn 0.69650 -0.71756 0.00000
vn 0.69650 -0.71756 0.00000
# 154 normal vertices

f 12/3/12 7/2/7 13/1/7
f 12/3/12 8/5/8 1/4/1
f 1/4/1 8/5/8 2/6/2
f 1/4/1 6/2/6 12/3/12
f 8/5/8 3/7/3 2/6/2
f 8/5/8 9/8/9 3/7/3
f 10/11/10 11/10/11 5/9/5
f 5/9/5 4/12/4 10/11/10
f 5/9/5 11/10/11 13/13/69
f 13/16/69 6/15/70 5/14/5
f 3/18/72 9/17/71 10/11/10
f 10/11/10 4/12/4 3/18/72
f 8/5/74 10/20/74 9/19/73
f 11/21/74 10/20/74 8/5/74
f 12/3/74 13/22/74 11/21/74
f 12/3/74 11/21/74 8/5/74
f 14/24/13 27/23/13 26/23/13
f 15/26/14 24/25/14 25/25/14
f 17/28/15 19/28/15 18/27/15
f 16/27/15 17/28/15 18/27/15
f 21/29/17 18/27/73 19/28/74
f 20/30/16 21/29/17 19/28/74
f 19/28/14 17/28/14 22/30/14
f 20/30/14 19/28/14 22/30/14
f 23/29/13 16/27/13 18/27/13
f 21/29/13 23/29/13 18/27/13
f 17/28/20 16/27/21 23/29/75
f 22/30/76 17/28/20 23/29/75
f 20/30/14 22/30/14 25/25/14
f 24/25/14 20/30/14 25/25/14
f 26/23/77 21/29/17 20/30/16
f 24/25/77 26/23/77 20/30/16
f 22/30/76 23/29/75 27/23/78
f 25/25/79 22/30/76 27/23/78
f 27/23/13 23/29/13 21/29/13
f 26/23/13 27/23/13 21/29/13
f 25/25/79 27/23/78 14/24/80
f 15/26/81 25/25/79 14/24/80
f 26/23/77 24/25/77 15/26/82
f 14/24/83 26/23/77 15/26/82
f 29/32/19 31/32/18 30/31/19
f 28/31/18 29/32/19 30/31/19
f 31/32/20 33/34/21 32/33/20
f 30/31/20 31/32/20 32/33/20
f 33/34/15 35/34/15 34/33/15
f 32/33/15 33/34/15 34/33/15
f 35/34/74 29/32/74 28/31/74
f 34/33/74 35/34/74 28/31/74
f 37/36/22 39/36/22 38/35/22
f 36/35/22 37/36/22 38/35/22
f 39/36/20 41/38/20 40/37/20
f 38/35/20 39/36/20 40/37/20
f 41/38/15 43/38/23 42/37/15
f 40/37/23 41/38/15 42/37/15
f 43/38/74 37/36/74 36/35/74
f 42/37/74 43/38/74 36/35/74
f 43/38/14 41/38/14 39/36/14
f 37/36/14 43/38/14 39/36/14
f 45/41/25 46/40/26 44/39/24
f 46/40/26 47/42/27 44/39/24
f 47/42/27 48/43/28 44/39/24
f 48/43/28 49/42/29 44/39/24
f 49/42/29 50/40/30 44/39/24
f 50/40/30 45/41/25 44/39/24
f 68/46/38 66/45/38 64/44/38
f 65/49/37 67/48/37 63/47/37
f 70/44/40 72/45/40 74/46/40
f 69/47/39 73/48/39 71/49/39
f 76/52/42 78/51/42 80/50/42
f 75/55/41 79/54/41 77/53/41
f 86/50/44 84/51/44 82/52/44
f 83/53/43 85/54/43 81/55/43
f 93/58/15 91/57/15 88/56/15
f 87/61/45 90/60/47 89/59/46
f 90/60/85 92/62/48 89/59/84
f 95/56/15 98/57/15 100/58/15
f 96/59/50 97/60/51 94/61/49
f 96/59/87 99/62/52 97/60/86
f 102/65/15 105/64/15 107/63/15
f 103/68/54 104/67/55 101/66/53
f 103/68/89 106/69/56 104/67/88
f 114/63/15 112/64/15 109/65/15
f 108/66/57 111/67/59 110/68/58
f 111/67/91 113/69/60 110/68/90
f 61/70/15 60/71/15 59/70/15
f 61/70/15 59/70/15 58/72/15
f 58/72/15 57/73/15 62/72/15
f 62/72/15 61/70/15 58/72/15
f 51/75/31 52/74/32 46/40/26
f 45/41/25 51/75/31 46/40/26
f 52/74/32 53/76/33 47/42/27
f 46/40/26 52/74/32 47/42/27
f 53/76/33 54/77/34 48/43/28
f 47/42/27 53/76/33 48/43/28
f 54/77/34 55/76/35 49/42/29
f 48/43/28 54/77/34 49/42/29
f 55/76/35 56/74/36 50/40/30
f 49/42/29 55/76/35 50/40/30
f 56/74/36 51/75/31 45/41/25
f 50/40/30 56/74/36 45/41/25
f 54/77/34 53/76/33 59/70/92
f 60/71/93 54/77/34 59/70/92
f 60/71/95 61/70/94 55/76/35
f 54/77/34 60/71/95 55/76/35
f 53/76/33 52/74/32 58/72/20
f 59/70/20 53/76/33 58/72/20
f 62/72/96 57/73/96 51/75/31
f 56/74/36 62/72/96 51/75/31
f 57/73/98 58/72/97 52/74/32
f 51/75/31 57/73/98 52/74/32
f 61/70/74 62/72/74 56/74/36
f 55/76/35 61/70/74 56/74/36
f 64/44/99 66/45/100 65/49/99
f 63/47/101 64/44/99 65/49/99
f 66/45/102 68/46/103 67/48/102
f 65/49/104 66/45/102 67/48/102
f 69/47/105 71/49/106 72/45/105
f 70/44/107 69/47/105 72/45/105
f 71/49/108 73/48/109 74/46/108
f 72/45/108 71/49/108 74/46/108
f 75/55/110 77/53/110 78/51/110
f 76/52/110 75/55/110 78/51/110
f 77/53/111 79/54/112 80/50/111
f 78/51/113 77/53/111 80/50/111
f 82/52/114 84/51/115 83/53/114
f 81/55/116 82/52/114 83/53/114
f 84/51/117 86/50/118 85/54/117
f 83/53/119 84/51/117 85/54/117
f 88/56/121 91/57/120 90/60/47
f 87/61/45 88/56/121 90/60/47
f 91/57/123 93/58/122 92/62/48
f 90/60/85 91/57/123 92/62/48
f 94/61/49 97/60/51 98/57/124
f 95/56/124 94/61/49 98/57/124
f 97/60/86 99/62/52 100/58/125
f 98/57/126 97/60/86 100/58/125
f 101/66/53 104/67/55 105/64/127
f 102/65/127 101/66/53 105/64/127
f 104/67/88 106/69/56 107/63/128
f 105/64/129 104/67/88 107/63/128
f 109/65/130 112/64/130 111/67/59
f 108/66/57 109/65/130 111/67/59
f 112/64/132 114/63/131 113/69/60
f 111/67/91 112/64/132 113/69/60
f 120/46/62 118/45/62 116/44/62
f 117/49/61 119/48/61 115/47/61
f 116/44/133 118/45/134 117/49/133
f 115/47/135 116/44/133 117/49/133
f 118/45/136 120/46/137 119/48/136
f 117/49/138 118/45/136 119/48/136
f 122/44/64 124/45/64 126/46/64
f 121/47/63 125/48/63 123/49/63
f 123/49/139 124/45/140 122/44/139
f 123/49/139 122/44/139 121/47/141
f 125/48/142 126/46/142 124/45/142
f 125/48/142 124/45/142 123/49/143
f 128/44/66 130/45/66 132/46/66
f 127/47/65 131/48/65 129/49/65
f 129/49/144 130/45/145 128/44/144
f 129/49/144 128/44/144 127/47/145
f 131/48/146 132/46/147 130/45/146
f 131/48/146 130/45/146 129/49/148
f 138/46/68 136/45/68 134/44/68
f 135/49/67 137/48/67 133/47/67
f 134/44/149 136/45/150 135/49/149
f 133/47/151 134/44/149 135/49/149
f 136/45/152 138/46/153 137/48/152
f 135/49/154 136/45/152 137/48/152
# 168 elements

