# Created by Metasequoia

v 0.605664 2.801011 1.846810
v 0.544611 3.304720 1.846810
v 0.314432 3.582319 1.846810
v 0.000000 3.702371 1.846810
v -0.314432 3.582319 1.846810
v -0.544611 3.304720 1.846810
v -0.628862 2.779919 1.846810
v 0.488015 2.933441 0.702520
v 0.422633 3.321456 0.702520
v 0.244008 3.592703 0.702520
v 0.000000 3.696671 0.702520
v -0.244008 3.592703 0.702520
v -0.422633 3.321456 0.702520
v -0.488015 2.933443 0.702520
v 0.354415 3.050641 0.285055
v 0.306932 3.313122 0.285058
v 0.177207 3.531040 0.285055
v 0.000000 3.610803 0.285055
v -0.177207 3.531040 0.285055
v -0.306932 3.313122 0.285058
v -0.354415 3.050641 0.285055
v 0.605664 2.801011 1.846810
v 0.544611 3.304720 1.846810
v 0.314432 3.582319 1.846810
v 0.000000 3.702371 1.846810
v -0.314432 3.582319 1.846810
v -0.544611 3.304720 1.846810
v -0.628862 2.779919 1.846810
v 0.594307 2.782784 2.065717
v 0.513731 3.210434 2.251391
v 0.299713 3.481805 2.369213
v 0.000000 3.586962 2.414870
v -0.299713 3.481805 2.369213
v -0.513731 3.210434 2.251391
v -0.610089 2.769204 2.059821
v 0.261460 3.133350 0.055268
v 0.226430 3.326988 0.055269
v 0.130729 3.487750 0.055268
v 0.000000 3.546593 0.055268
v -0.130729 3.487750 0.055268
v -0.226430 3.326988 0.055268
v -0.261460 3.133350 0.055268
v 0.605664 2.801011 1.846810
v 0.544611 3.304720 1.846810
v 0.314432 3.582319 1.846810
v 0.000000 3.702371 1.846810
v -0.314432 3.582319 1.846810
v -0.544611 3.304720 1.846810
v -0.628862 2.779919 1.846810
v 0.488015 2.933441 0.702520
v 0.422633 3.321456 0.702520
v 0.244008 3.592703 0.702520
v 0.000000 3.696671 0.702520
v -0.244008 3.592703 0.702520
v -0.422633 3.321456 0.702520
v -0.488015 2.933443 0.702520
v 0.354415 3.050641 0.285055
v 0.306932 3.313122 0.285058
v 0.177207 3.531040 0.285055
v 0.000000 3.610803 0.285055
v -0.177207 3.531040 0.285055
v -0.306932 3.313122 0.285058
v -0.354415 3.050641 0.285055
v 0.594307 2.782784 2.065717
v 0.513731 3.210434 2.251391
v 0.299713 3.481805 2.369213
v 0.000000 3.586962 2.414870
v -0.299713 3.481805 2.369213
v -0.513731 3.210434 2.251391
v -0.610089 2.769204 2.059821
v 0.261460 3.133350 0.055268
v 0.226430 3.326988 0.055269
v 0.130729 3.487750 0.055268
v 0.000000 3.546593 0.055268
v -0.130729 3.487750 0.055268
v -0.226430 3.326988 0.055268
v -0.261460 3.133350 0.055268
# 77 vertices

vt 0.90896 0.92748
vt 0.88480 0.92749
vt 0.87966 0.87306
vt 0.91012 0.87305
vt 0.87206 0.92750
vt 0.87190 0.87307
vt 0.86651 0.92751
vt 0.86619 0.87308
vt 0.91113 0.87274
vt 0.91022 0.94734
vt 0.89294 0.94735
vt 0.87440 0.94736
vt 0.87061 0.94736
vt 0.97959 0.84575
vt 0.95588 0.86281
vt 0.95569 0.84478
vt 0.98661 0.85562
vt 0.95541 0.83989
vt 0.96650 0.83982
vt 0.96611 0.83957
vt 0.95540 0.83978
vt 0.95595 0.86962
vt 0.98952 0.86213
vt 0.91007 0.95827
vt 0.88411 0.95828
vt 0.87647 0.95828
vt 0.87367 0.95829
vt 0.93817 0.87306
vt 0.94930 0.92749
vt 0.97648 0.92748
vt 0.97764 0.87305
vt 0.93830 0.87307
vt 0.93785 0.92750
vt 0.93259 0.87308
vt 0.93290 0.92751
vt 0.97864 0.87304
vt 0.95819 0.94735
vt 0.97652 0.94734
vt 0.94080 0.94736
vt 0.93700 0.94736
vt 0.95569 0.80094
vt 0.95588 0.80456
vt 0.97989 0.80550
vt 0.98661 0.79736
vt 0.96771 0.78017
vt 0.95541 0.78085
vt 0.96720 0.78100
vt 0.95540 0.77998
vt 0.95595 0.81136
vt 0.98952 0.80387
vt 0.95051 0.95828
vt 0.97653 0.95827
vt 0.94286 0.95828
vt 0.94007 0.95829
# 54 texture vertices

vn -0.98890 -0.11986 0.08780
vn -0.94383 -0.31779 0.09049
vn -0.67787 -0.73375 0.04581
vn -0.00000 -0.99995 0.00974
vn 0.67787 -0.73375 0.04581
vn 0.93924 -0.33002 0.09438
vn 0.98243 -0.15772 0.09976
vn -0.97733 -0.14904 0.15039
vn -0.90915 -0.38077 0.16871
vn -0.63552 -0.76215 0.12347
vn -0.00000 -0.99018 0.13977
vn 0.63552 -0.76215 0.12347
vn 0.90915 -0.38077 0.16871
vn 0.97471 -0.16163 0.15432
vn -0.94505 -0.16703 0.28104
vn -0.89810 -0.34553 0.27208
vn -0.64336 -0.72804 0.23675
vn -0.08652 -0.96658 0.24134
vn 0.56480 -0.79165 0.23301
vn 0.87842 -0.39969 0.26197
vn 0.94225 -0.16750 0.29002
vn -0.99086 -0.12010 -0.06141
vn -0.91811 -0.37432 -0.13024
vn -0.57463 -0.80052 -0.17022
vn -0.12376 -0.97245 -0.19757
vn 0.50190 -0.84661 -0.17704
vn 0.87437 -0.46060 -0.15272
vn 0.98083 -0.16517 -0.10335
vn -0.98797 -0.12950 -0.08448
vn -0.92157 -0.35660 -0.15344
vn -0.59062 -0.78573 -0.18382
vn 0.12376 -0.97245 -0.19757
vn 0.66326 -0.72649 -0.17971
vn 0.94374 -0.30164 -0.13551
vn 0.98035 -0.17281 -0.09509
vn -0.93335 -0.16885 0.31679
vn -0.87585 -0.39071 0.28326
vn -0.56328 -0.78377 0.26159
vn 0.14302 -0.95321 0.26636
vn 0.71295 -0.64864 0.26640
vn 0.91092 -0.28093 0.30217
vn 0.93335 -0.16885 0.31679
vn 0.99265 0.12032 -0.01323
vn 0.93518 0.35235 0.03581
vn 0.64123 0.76624 0.04116
vn 0.05398 0.99528 0.08060
vn -0.59651 0.79981 0.06688
vn -0.91622 0.39957 0.02972
vn -0.98590 0.16344 0.03581
vn 0.97733 0.14904 -0.15039
vn 0.90915 0.38077 -0.16871
vn 0.63552 0.76215 -0.12347
vn -0.00000 0.99018 -0.13977
vn -0.63552 0.76215 -0.12347
vn -0.90915 0.38077 -0.16871
vn -0.97471 0.16163 -0.15432
vn 0.94225 0.16750 -0.29002
vn 0.87842 0.39969 -0.26197
vn 0.56480 0.79165 -0.23301
vn -0.08652 0.96658 -0.24134
vn -0.64336 0.72804 -0.23675
vn -0.89810 0.34553 -0.27208
vn -0.94505 0.16703 -0.28104
vn 0.98797 0.12950 0.08448
vn 0.92157 0.35660 0.15344
vn 0.59062 0.78573 0.18382
vn -0.12376 0.97245 0.19757
vn -0.66326 0.72649 0.17971
vn -0.94374 0.30164 0.13551
vn -0.98035 0.17281 0.09509
vn 0.93335 0.16885 -0.31679
vn 0.91092 0.28093 -0.30217
vn 0.71295 0.64864 -0.26640
vn 0.14302 0.95321 -0.26636
vn -0.56328 0.78377 -0.26159
vn -0.87585 0.39071 -0.28326
vn -0.93335 0.16885 -0.31679
# 77 normal vertices

f 2/3/2 9/2/9 8/1/8
f 1/4/1 2/3/2 8/1/8
f 3/6/3 10/5/10 9/2/9
f 2/3/2 3/6/3 9/2/9
f 4/8/4 11/7/11 10/5/10
f 3/6/3 4/8/4 10/5/10
f 4/8/4 5/6/5 12/5/12
f 11/7/11 4/8/4 12/5/12
f 5/6/5 6/3/6 13/2/13
f 12/5/12 5/6/5 13/2/13
f 6/3/6 7/9/7 14/1/14
f 13/2/13 6/3/6 14/1/14
f 9/2/9 16/11/16 15/10/15
f 8/1/8 9/2/9 15/10/15
f 10/5/10 17/12/17 16/11/16
f 9/2/9 10/5/10 16/11/16
f 11/7/11 18/13/18 17/12/17
f 10/5/10 11/7/11 17/12/17
f 11/7/11 12/5/12 19/12/19
f 18/13/18 11/7/11 19/12/19
f 12/5/12 13/2/13 20/11/20
f 19/12/19 12/5/12 20/11/20
f 13/2/13 14/1/14 21/10/21
f 20/11/20 13/2/13 21/10/21
f 30/16/30 31/15/31 23/14/23
f 23/14/23 31/15/31 24/17/24
f 23/14/23 22/19/22 29/18/29
f 29/18/29 30/16/30 23/14/23
f 28/20/28 27/14/27 34/16/34
f 34/16/34 35/21/35 28/20/28
f 27/14/27 33/15/33 34/16/34
f 27/14/27 26/17/26 33/15/33
f 26/17/26 32/22/32 33/15/33
f 26/17/26 25/23/25 32/22/32
f 32/22/32 25/23/25 31/15/31
f 25/23/25 24/17/24 31/15/31
f 36/24/36 15/10/15 16/11/16
f 37/25/37 36/24/36 16/11/16
f 37/25/37 16/11/16 17/12/17
f 38/26/38 37/25/37 17/12/17
f 38/26/38 17/12/17 18/13/18
f 39/27/39 38/26/38 18/13/18
f 39/27/39 18/13/18 19/12/19
f 40/26/40 39/27/39 19/12/19
f 40/26/40 19/12/19 20/11/20
f 41/25/41 40/26/40 20/11/20
f 41/25/41 20/11/20 21/10/21
f 42/24/42 41/25/41 21/10/21
f 50/30/50 51/29/51 44/28/44
f 43/31/43 50/30/50 44/28/44
f 51/29/51 52/33/52 45/32/45
f 44/28/44 51/29/51 45/32/45
f 52/33/52 53/35/53 46/34/46
f 45/32/45 52/33/52 46/34/46
f 54/33/54 47/32/47 46/34/46
f 53/35/53 54/33/54 46/34/46
f 55/29/55 48/28/48 47/32/47
f 54/33/54 55/29/55 47/32/47
f 56/30/56 49/36/49 48/28/48
f 55/29/55 56/30/56 48/28/48
f 57/38/57 58/37/58 51/29/51
f 50/30/50 57/38/57 51/29/51
f 58/37/58 59/39/59 52/33/52
f 51/29/51 58/37/58 52/33/52
f 59/39/59 60/40/60 53/35/53
f 52/33/52 59/39/59 53/35/53
f 61/39/61 54/33/54 53/35/53
f 60/40/60 61/39/61 53/35/53
f 62/37/62 55/29/55 54/33/54
f 61/39/61 62/37/62 54/33/54
f 63/38/63 56/30/56 55/29/55
f 62/37/62 63/38/63 55/29/55
f 44/43/44 66/42/66 65/41/65
f 45/44/45 66/42/66 44/43/44
f 64/46/64 43/45/43 44/43/44
f 44/43/44 65/41/65 64/46/64
f 69/41/69 48/43/48 49/47/49
f 49/47/49 70/48/70 69/41/69
f 69/41/69 68/42/68 48/43/48
f 68/42/68 47/44/47 48/43/48
f 68/42/68 67/49/67 47/44/47
f 67/49/67 46/50/46 47/44/47
f 66/42/66 46/50/46 67/49/67
f 66/42/66 45/44/45 46/50/46
f 72/51/72 58/37/58 57/38/57
f 71/52/71 72/51/72 57/38/57
f 73/53/73 59/39/59 58/37/58
f 72/51/72 73/53/73 58/37/58
f 74/54/74 60/40/60 59/39/59
f 73/53/73 74/54/74 59/39/59
f 75/53/75 61/39/61 60/40/60
f 74/54/74 75/53/75 60/40/60
f 76/51/76 62/37/62 61/39/61
f 75/53/75 76/51/76 61/39/61
f 77/52/77 63/38/63 62/37/62
f 76/51/76 77/52/77 62/37/62
# 96 elements

