# Created by Metasequoia

v -1.672962 2.044316 -5.398015
v -1.672962 -0.039167 -5.398015
v -1.786040 2.044316 -5.398015
v -1.786040 -0.039167 -5.398015
v -1.786040 2.044316 -5.511094
v -1.786040 -0.039167 -5.511094
v -1.672962 2.044316 -5.511094
v -1.672962 -0.039167 -5.511094
v -1.954440 0.073747 -5.453364
v -1.954440 0.073747 -5.110708
v -1.954440 -0.223003 -5.282036
v -1.954440 -0.223003 -5.624691
v -1.954440 0.073747 -5.796023
v -1.954440 0.370496 -5.624691
v -1.954440 0.370496 -5.282036
v -1.905648 0.073747 -5.025044
v -1.905648 -0.297190 -5.239207
v -1.905648 -0.297190 -5.667524
v -1.905648 0.073747 -5.881685
v -1.905648 0.444684 -5.667524
v -1.905648 0.444684 -5.239207
v -1.779293 0.073747 -5.025044
v -1.779293 -0.297190 -5.239207
v -1.779293 -0.297190 -5.667524
v -1.779293 0.073747 -5.881685
v -1.779293 0.444684 -5.667524
v -1.779293 0.444684 -5.239207
v -1.730502 0.073747 -5.110708
v -1.730502 -0.223002 -5.282036
v -1.730502 -0.223002 -5.624691
v -1.730502 0.073747 -5.796023
v -1.730502 0.370496 -5.624691
v -1.730502 0.370496 -5.282036
v -1.730502 0.073747 -5.453364
# 34 vertices

vt 0.08325 0.83988
vt 0.08325 0.98829
vt 0.09196 0.83988
vt 0.09196 0.98829
vt 0.35006 0.83751
vt 0.37445 0.79527
vt 0.39884 0.83751
vt 0.42323 0.79527
vt 0.44762 0.83751
vt 0.42323 0.87975
vt 0.37445 0.87975
vt 0.37163 0.79168
vt 0.33787 0.83751
vt 0.42933 0.78470
vt 0.45981 0.83751
vt 0.42933 0.89031
vt 0.36835 0.89031
# 17 texture vertices

vn 0.00000 0.00000 1.00000
vn -1.00000 0.00000 0.00000
vn 0.00000 0.00000 -1.00000
vn -0.94198 -0.00000 0.33566
vn -0.95170 -0.29011 0.10050
vn -0.95170 -0.23209 -0.20100
vn -0.95170 0.05802 -0.30150
vn -0.95170 0.29011 -0.10050
vn -0.96800 0.21734 0.12549
vn -0.86894 0.00000 0.49492
vn -0.86502 -0.37928 0.32847
vn -0.86502 -0.47410 -0.16423
vn -0.86502 -0.09482 -0.49270
vn -0.86502 0.37928 -0.32846
vn -0.86894 0.42862 0.24746
vn 0.71927 -0.22233 0.65819
vn 0.61167 -0.57927 0.53881
vn 0.61167 -0.75625 -0.23226
vn 0.61167 -0.17699 -0.77106
vn 0.61167 0.57926 -0.53880
vn 0.61167 0.75625 0.23226
vn 0.95170 0.05802 0.30149
vn 0.95170 -0.23209 0.20099
vn 0.95170 -0.29011 -0.10050
vn 0.95170 -0.05802 -0.30149
vn 0.95170 0.23209 -0.20099
vn 0.95170 0.29011 0.10050
vn 1.00000 0.00000 0.00000
vn 0.00000 1.00000 0.00000
vn 0.00000 -1.00000 0.00000
vn 0.00000 -0.50000 0.86602
vn 0.00000 -0.50000 0.86602
vn 0.00000 -0.50000 -0.86602
vn 0.00000 0.50000 -0.86602
vn 0.00000 0.50000 0.86602
vn 0.00000 0.50000 0.86602
# 36 normal vertices

f 3/2/1 4/1/1 2/1/1
f 3/2/1 2/1/1 1/2/1
f 5/4/2 6/3/2 4/1/2
f 5/4/2 4/1/2 3/2/2
f 7/4/3 8/3/3 6/3/3
f 7/4/3 6/3/3 5/4/3
f 1/2/28 2/1/28 8/3/28
f 1/2/28 8/3/28 7/4/28
f 5/4/29 3/2/29 1/2/29
f 5/4/29 1/2/29 7/4/29
f 4/1/30 6/3/30 8/3/30
f 4/1/30 8/3/30 2/1/30
f 9/7/2 11/6/5 10/5/4
f 9/7/2 12/8/6 11/6/5
f 9/7/2 13/9/7 12/8/6
f 9/7/2 14/10/8 13/9/7
f 9/7/2 15/11/9 14/10/8
f 9/7/2 10/5/4 15/11/9
f 28/5/22 29/6/23 34/7/28
f 29/6/23 30/8/24 34/7/28
f 30/8/24 31/9/25 34/7/28
f 31/9/25 32/10/26 34/7/28
f 32/10/26 33/11/27 34/7/28
f 33/11/27 28/5/22 34/7/28
f 10/5/4 11/6/5 17/12/11
f 16/13/10 10/5/4 17/12/11
f 11/6/5 12/8/6 18/14/12
f 17/12/11 11/6/5 18/14/12
f 12/8/6 13/9/7 19/15/13
f 18/14/12 12/8/6 19/15/13
f 13/9/7 14/10/8 20/16/14
f 19/15/13 13/9/7 20/16/14
f 14/10/8 15/11/9 21/17/15
f 20/16/14 14/10/8 21/17/15
f 10/5/4 16/13/10 21/17/15
f 15/11/9 10/5/4 21/17/15
f 16/13/32 17/12/31 23/12/17
f 22/13/16 16/13/32 23/12/17
f 17/12/30 18/14/30 24/14/18
f 23/12/30 17/12/30 24/14/18
f 18/14/33 19/15/33 25/15/19
f 24/14/33 18/14/33 25/15/19
f 19/15/34 20/16/34 26/16/20
f 25/15/34 19/15/34 26/16/20
f 20/16/29 21/17/29 27/17/21
f 26/16/29 20/16/29 27/17/21
f 21/17/35 16/13/36 22/13/35
f 27/17/36 21/17/35 22/13/35
f 22/13/16 23/12/17 29/6/23
f 28/5/22 22/13/16 29/6/23
f 23/12/17 24/14/18 30/8/24
f 29/6/23 23/12/17 30/8/24
f 24/14/18 25/15/19 31/9/25
f 30/8/24 24/14/18 31/9/25
f 25/15/19 26/16/20 32/10/26
f 31/9/25 25/15/19 32/10/26
f 26/16/20 27/17/21 33/11/27
f 32/10/26 26/16/20 33/11/27
f 27/17/21 22/13/16 28/5/22
f 33/11/27 27/17/21 28/5/22
# 60 elements

