# Created by Metasequoia

v -0.031076 1.633234 -0.813767
v -0.031076 1.063275 -0.003042
v 0.031076 1.633234 -0.813767
v 0.031076 1.063275 -0.003042
v 0.031076 1.580526 -0.846704
v 0.031076 1.010568 -0.035976
v -0.031076 1.580526 -0.846704
v -0.031076 1.010568 -0.035976
# 8 vertices

vt 0.07684 0.97861
vt 0.01441 0.93960
vt 0.07938 0.97455
vt 0.01695 0.93554
# 4 texture vertices

vn 0.00000 0.81807 0.57512
vn 1.00000 0.00000 0.00000
vn 0.00000 -0.81807 -0.57512
vn -0.00000 -0.81807 -0.57512
vn -1.00000 0.00000 0.00000
# 5 normal vertices

f 2/2/1 4/2/1 3/1/1
f 1/1/1 2/2/1 3/1/1
f 4/2/2 6/4/2 5/3/2
f 3/1/2 4/2/2 5/3/2
f 6/4/3 8/4/4 7/3/3
f 5/3/4 6/4/3 7/3/3
f 8/4/5 2/2/5 1/1/5
f 7/3/5 8/4/5 1/1/5
# 8 elements

