# Created by Metasequoia

v 4.517342 1.772617 -11.497358
v 4.279066 1.686158 -11.588163
v 4.079724 1.686158 -11.849675
v 4.032362 1.772617 -12.137395
v 4.279066 1.859075 -11.588163
v 4.079725 1.859075 -11.849672
v 2.836645 1.772617 -9.674764
v 2.836645 1.859075 -10.042411
v 2.836645 1.859075 -11.532643
v 2.836645 1.772617 -12.002947
v 2.836645 1.686158 -11.532646
v 2.836645 1.686158 -10.042413
# 12 vertices

vt 0.46567 0.72256
vt 0.47327 0.71676
vt 0.47591 0.70984
vt 0.45731 0.72394
vt 0.47591 0.81281
vt 0.47327 0.80589
vt 0.46567 0.80010
vt 0.45731 0.79873
vt 0.51818 0.75896
vt 0.51818 0.76248
vt 0.52886 0.76072
vt 0.47488 0.76248
vt 0.47488 0.75896
vt 0.46122 0.76072
vt 0.51818 0.76398
vt 0.52886 0.76398
vt 0.47488 0.76398
vt 0.46122 0.76398
vt 0.47488 0.75868
vt 0.51818 0.75868
vt 0.52886 0.75868
vt 0.46122 0.75868
# 22 texture vertices

vn 0.35335 -0.93410 -0.05108
vn 0.23796 -0.97073 -0.03259
vn 0.13473 -0.97197 -0.19268
vn 0.20372 -0.92787 -0.31236
vn 0.17737 0.98384 -0.02429
vn 0.16172 0.95935 -0.23129
vn -1.00000 0.00000 0.00000
vn 0.35334 0.93410 -0.05108
vn 0.20371 0.92787 -0.31235
vn 0.16626 0.97394 0.15425
vn 0.24094 0.94477 0.22218
vn -0.01541 0.99805 -0.06044
vn -0.03899 0.97192 -0.23205
vn -0.02313 -0.99561 -0.09071
vn 0.12490 -0.98538 0.11588
vn 0.24094 -0.94477 0.22218
vn -0.03899 -0.97192 -0.23205
# 17 normal vertices

f 1/3/1 2/2/2 3/1/3
f 3/1/3 4/4/4 1/3/1
f 6/7/6 5/6/5 1/5/8
f 6/7/6 1/5/8 4/8/9
f 7/11/7 8/10/7 12/9/7
f 12/9/7 8/10/7 9/12/7
f 11/13/7 12/9/7 9/12/7
f 11/13/7 9/12/7 10/14/7
f 1/5/8 5/6/5 8/15/10
f 7/16/11 1/5/8 8/15/10
f 5/6/5 6/7/6 9/17/12
f 8/15/10 5/6/5 9/17/12
f 6/7/6 4/8/9 10/18/13
f 9/17/12 6/7/6 10/18/13
f 12/20/15 11/19/14 3/1/3
f 2/2/2 12/20/15 3/1/3
f 12/20/15 2/2/2 1/3/1
f 7/21/16 12/20/15 1/3/1
f 3/1/3 11/19/14 10/22/17
f 4/4/4 3/1/3 10/22/17
# 20 elements

