# Created by Metasequoia

v -0.056539 1.708850 0.067588
v -0.056539 -0.039167 0.067588
v 0.056539 1.708850 0.067588
v 0.056539 -0.039167 0.067588
v 0.056539 1.708850 -0.045492
v 0.056539 -0.039167 -0.045492
v -0.056539 1.708850 -0.045492
v -0.056539 -0.039167 -0.045492
v 0.169822 -0.061541 0.016715
v 0.169822 -0.061541 0.236541
v 0.169822 -0.251917 0.126629
v 0.169822 -0.251917 -0.093197
v 0.169822 -0.061541 -0.203109
v 0.169822 0.128834 -0.093197
v 0.169822 0.128834 0.126629
v 0.138521 -0.061541 0.291500
v 0.138521 -0.299510 0.154105
v 0.138521 -0.299510 -0.120674
v 0.138521 -0.061541 -0.258069
v 0.138521 0.176428 -0.120674
v 0.138521 0.176428 0.154105
v 0.057459 -0.061541 0.291500
v 0.057459 -0.299510 0.154105
v 0.057459 -0.299510 -0.120674
v 0.057459 -0.061541 -0.258069
v 0.057459 0.176428 -0.120674
v 0.057459 0.176428 0.154105
v 0.026158 -0.061541 0.236541
v 0.026158 -0.251916 0.126629
v 0.026158 -0.251916 -0.093197
v 0.026158 -0.061541 -0.203109
v 0.026158 0.128834 -0.093197
v 0.026158 0.128834 0.126629
v 0.026158 -0.061541 0.016715
v -0.169822 -0.061541 0.016715
v -0.169822 -0.061541 0.236541
v -0.169822 -0.251917 0.126629
v -0.169822 -0.251917 -0.093197
v -0.169822 -0.061541 -0.203109
v -0.169822 0.128834 -0.093197
v -0.169822 0.128834 0.126629
v -0.138521 -0.061541 0.291500
v -0.138521 -0.299510 0.154105
v -0.138521 -0.299510 -0.120674
v -0.138521 -0.061541 -0.258069
v -0.138521 0.176428 -0.120674
v -0.138521 0.176428 0.154105
v -0.057459 -0.061541 0.291500
v -0.057459 -0.299510 0.154105
v -0.057459 -0.299510 -0.120674
v -0.057459 -0.061541 -0.258069
v -0.057459 0.176428 -0.120674
v -0.057459 0.176428 0.154105
v -0.026158 -0.061541 0.236541
v -0.026158 -0.251916 0.126629
v -0.026158 -0.251916 -0.093197
v -0.026158 -0.061541 -0.203109
v -0.026158 0.128834 -0.093197
v -0.026158 0.128834 0.126629
v -0.026158 -0.061541 0.016715
# 60 vertices

vt 0.00897 0.98932
vt 0.00897 0.86161
vt 0.01768 0.98932
vt 0.01768 0.86161
vt 0.39884 0.83751
vt 0.37445 0.79527
vt 0.35006 0.83751
vt 0.42323 0.79527
vt 0.44762 0.83751
vt 0.42323 0.87975
vt 0.37445 0.87975
vt 0.37163 0.79168
vt 0.33787 0.83751
vt 0.42933 0.78470
vt 0.45981 0.83751
vt 0.42933 0.89031
vt 0.36835 0.89031
# 17 texture vertices

vn 0.00000 0.00000 1.00000
vn 1.00000 0.00000 0.00000
vn 0.00000 0.00000 -1.00000
vn 0.95170 0.05802 0.30148
vn 0.95170 -0.23209 0.20099
vn 0.95170 -0.29011 -0.10050
vn 0.95171 -0.05802 -0.30148
vn 0.95170 0.23208 -0.20099
vn 0.95170 0.29011 0.10050
vn 0.86503 -0.09482 0.49268
vn 0.86502 -0.47409 0.16423
vn 0.86503 -0.37927 -0.32845
vn 0.86504 0.09482 -0.49267
vn 0.86503 0.47409 -0.16423
vn 0.86503 0.37927 0.32846
vn -0.61168 -0.17699 0.77105
vn -0.71928 -0.45885 0.52163
vn -0.71928 -0.68117 -0.13656
vn -0.71929 -0.22233 -0.65818
vn -0.71928 0.45885 -0.52163
vn -0.71928 0.68117 0.13656
vn -0.95170 -0.05802 0.30148
vn -0.95170 -0.29011 0.10050
vn -0.95170 -0.23208 -0.20099
vn -0.95171 0.05802 -0.30148
vn -0.95170 0.29011 -0.10050
vn -0.95170 0.23208 0.20099
vn -1.00000 0.00000 0.00000
vn -0.95170 -0.05802 0.30148
vn -0.95170 -0.29011 0.10050
vn -0.95170 -0.23209 -0.20099
vn -0.95171 0.05802 -0.30148
vn -0.86503 0.09482 0.49268
vn -0.86502 -0.37927 0.32846
vn -0.86502 -0.47409 -0.16423
vn -0.86503 -0.09482 -0.49267
vn -0.86503 0.37927 -0.32845
vn -0.86503 0.47409 0.16423
vn 0.71928 -0.22233 0.65818
vn 0.61167 -0.57927 0.53880
vn 0.61167 -0.75625 -0.23225
vn 0.61168 -0.17699 -0.77105
vn 0.61167 0.57927 -0.53880
vn 0.61167 0.75625 0.23225
vn 0.95170 0.05802 0.30148
vn 0.95170 -0.23208 0.20099
vn 0.95170 -0.29011 -0.10050
vn 0.95171 -0.05802 -0.30148
vn 0.00000 1.00000 0.00000
vn 0.00000 1.00000 0.00000
vn 0.00000 -1.00000 0.00000
vn 0.00000 -1.00000 0.00000
vn 0.00000 -0.50001 0.86602
vn 0.00000 -0.50001 -0.86602
vn 0.00000 0.50001 -0.86602
vn 0.00000 0.50001 0.86602
# 56 normal vertices

f 2/2/1 4/2/1 3/1/1
f 1/1/1 2/2/1 3/1/1
f 4/2/2 6/4/2 5/3/2
f 3/1/2 4/2/2 5/3/2
f 6/4/3 8/4/3 7/3/3
f 5/3/3 6/4/3 7/3/3
f 8/4/28 2/2/28 1/1/28
f 7/3/28 8/4/28 1/1/28
f 1/1/49 3/1/50 5/3/49
f 7/3/50 1/1/49 5/3/49
f 8/4/51 6/4/52 4/2/51
f 2/2/52 8/4/51 4/2/51
f 10/7/4 11/6/5 9/5/2
f 11/6/5 12/8/6 9/5/2
f 12/8/6 13/9/7 9/5/2
f 13/9/7 14/10/8 9/5/2
f 14/10/8 15/11/9 9/5/2
f 15/11/9 10/7/4 9/5/2
f 34/5/28 29/6/23 28/7/22
f 34/5/28 30/8/24 29/6/23
f 34/5/28 31/9/25 30/8/24
f 34/5/28 32/10/26 31/9/25
f 34/5/28 33/11/27 32/10/26
f 34/5/28 28/7/22 33/11/27
f 35/5/28 37/6/30 36/7/29
f 35/5/28 38/8/31 37/6/30
f 35/5/28 39/9/32 38/8/31
f 35/5/28 40/10/26 39/9/32
f 35/5/28 41/11/27 40/10/26
f 35/5/28 36/7/29 41/11/27
f 54/7/45 55/6/46 60/5/2
f 55/6/46 56/8/47 60/5/2
f 56/8/47 57/9/48 60/5/2
f 57/9/48 58/10/8 60/5/2
f 58/10/8 59/11/9 60/5/2
f 59/11/9 54/7/45 60/5/2
f 16/13/10 17/12/11 11/6/5
f 10/7/4 16/13/10 11/6/5
f 17/12/11 18/14/12 12/8/6
f 11/6/5 17/12/11 12/8/6
f 18/14/12 19/15/13 13/9/7
f 12/8/6 18/14/12 13/9/7
f 19/15/13 20/16/14 14/10/8
f 13/9/7 19/15/13 14/10/8
f 20/16/14 21/17/15 15/11/9
f 14/10/8 20/16/14 15/11/9
f 21/17/15 16/13/10 10/7/4
f 15/11/9 21/17/15 10/7/4
f 22/13/16 23/12/17 17/12/53
f 16/13/53 22/13/16 17/12/53
f 23/12/51 24/14/18 18/14/51
f 17/12/51 23/12/51 18/14/51
f 24/14/54 25/15/19 19/15/54
f 18/14/54 24/14/54 19/15/54
f 25/15/55 26/16/20 20/16/55
f 19/15/55 25/15/55 20/16/55
f 26/16/49 27/17/21 21/17/49
f 20/16/49 26/16/49 21/17/49
f 27/17/56 22/13/56 16/13/56
f 21/17/56 27/17/56 16/13/56
f 28/7/22 29/6/23 23/12/17
f 22/13/16 28/7/22 23/12/17
f 29/6/23 30/8/24 24/14/18
f 23/12/17 29/6/23 24/14/18
f 30/8/24 31/9/25 25/15/19
f 24/14/18 30/8/24 25/15/19
f 31/9/25 32/10/26 26/16/20
f 25/15/19 31/9/25 26/16/20
f 32/10/26 33/11/27 27/17/21
f 26/16/20 32/10/26 27/17/21
f 33/11/27 28/7/22 22/13/16
f 27/17/21 33/11/27 22/13/16
f 36/7/29 37/6/30 43/12/34
f 42/13/33 36/7/29 43/12/34
f 37/6/30 38/8/31 44/14/35
f 43/12/34 37/6/30 44/14/35
f 38/8/31 39/9/32 45/15/36
f 44/14/35 38/8/31 45/15/36
f 39/9/32 40/10/26 46/16/37
f 45/15/36 39/9/32 46/16/37
f 40/10/26 41/11/27 47/17/38
f 46/16/37 40/10/26 47/17/38
f 41/11/27 36/7/29 42/13/33
f 47/17/38 41/11/27 42/13/33
f 42/13/53 43/12/53 49/12/40
f 48/13/39 42/13/53 49/12/40
f 43/12/51 44/14/51 50/14/41
f 49/12/51 43/12/51 50/14/41
f 44/14/54 45/15/54 51/15/42
f 50/14/54 44/14/54 51/15/42
f 45/15/55 46/16/55 52/16/43
f 51/15/55 45/15/55 52/16/43
f 46/16/49 47/17/49 53/17/44
f 52/16/49 46/16/49 53/17/44
f 47/17/56 42/13/56 48/13/56
f 53/17/56 47/17/56 48/13/56
f 48/13/39 49/12/40 55/6/46
f 54/7/45 48/13/39 55/6/46
f 49/12/40 50/14/41 56/8/47
f 55/6/46 49/12/40 56/8/47
f 50/14/41 51/15/42 57/9/48
f 56/8/47 50/14/41 57/9/48
f 51/15/42 52/16/43 58/10/8
f 57/9/48 51/15/42 58/10/8
f 52/16/43 53/17/44 59/11/9
f 58/10/8 52/16/43 59/11/9
f 53/17/44 48/13/39 54/7/45
f 59/11/9 53/17/44 54/7/45
# 108 elements

