# Created by 3DAce v2.72


g
v 1.478814 0.274700 -1.110923
v 1.478814 0.274700 -0.688245
v 1.478814 -0.037197 -0.812047
v 1.478814 -0.166394 -1.110923
v 1.478814 -0.037197 -1.409805
v 1.478814 0.274700 -1.533598
v 1.478814 0.586606 -1.409805
v 1.478814 0.715802 -1.110923
v 1.478814 0.586606 -0.812047
v 0.965536 0.274700 -0.688245
v 0.965536 -0.037197 -0.812047
v 0.965536 -0.166394 -1.110923
v 0.965536 -0.037197 -1.409805
v 0.965536 0.274700 -1.533598
v 0.965536 0.586606 -1.409805
v 0.965536 0.715802 -1.110923
v 0.965536 0.586606 -0.812047
v 0.965536 0.274700 -1.110923
v -1.478318 0.274700 -1.110923
v -1.478318 0.274700 -0.688245
v -1.478318 -0.037197 -0.812047
v -1.478318 -0.166394 -1.110923
v -1.478318 -0.037197 -1.409805
v -1.478318 0.274700 -1.533598
v -1.478318 0.586606 -1.409805
v -1.478318 0.715802 -1.110923
v -1.478318 0.586606 -0.812047
v -0.965040 0.274700 -0.688245
v -0.965040 -0.037197 -0.812047
v -0.965040 -0.166394 -1.110923
v -0.965040 -0.037197 -1.409805
v -0.965040 0.274700 -1.533598
v -0.965040 0.586606 -1.409805
v -0.965040 0.715802 -1.110923
v -0.965040 0.586606 -0.812047
v -0.965040 0.274700 -1.110923
# 36 vertices

vt 0.750400 0.780620
vt 0.698070 0.780620
vt 0.713400 0.702770
vt 0.750400 0.780620
vt 0.750400 0.780620
vt 0.713400 0.702770
vt 0.750400 0.670520
vt 0.750400 0.780620
vt 0.750400 0.780620
vt 0.750400 0.670520
vt 0.787410 0.702770
vt 0.750400 0.780620
vt 0.750400 0.780620
vt 0.787410 0.702770
vt 0.802740 0.780620
vt 0.750400 0.780620
vt 0.750400 0.780620
vt 0.802740 0.780620
vt 0.787410 0.858480
vt 0.750400 0.780620
vt 0.750400 0.780620
vt 0.787410 0.858480
vt 0.750400 0.890730
vt 0.750400 0.780620
vt 0.750400 0.780620
vt 0.750400 0.890730
vt 0.713400 0.858480
vt 0.750400 0.780620
vt 0.750400 0.780620
vt 0.713400 0.858480
vt 0.698070 0.780620
vt 0.750400 0.780620
vt 0.750400 0.780620
vt 0.713400 0.702770
vt 0.698070 0.780620
vt 0.750400 0.780620
vt 0.750400 0.780620
vt 0.750400 0.670520
vt 0.713400 0.702770
vt 0.750400 0.780620
vt 0.750400 0.780620
vt 0.787410 0.702770
vt 0.750400 0.670520
vt 0.750400 0.780620
vt 0.750400 0.780620
vt 0.802740 0.780620
vt 0.787410 0.702770
vt 0.750400 0.780620
vt 0.750400 0.780620
vt 0.787410 0.858480
vt 0.802740 0.780620
vt 0.750400 0.780620
vt 0.750400 0.780620
vt 0.750400 0.890730
vt 0.787410 0.858480
vt 0.750400 0.780620
vt 0.750400 0.780620
vt 0.713400 0.858480
vt 0.750400 0.890730
vt 0.750400 0.780620
vt 0.750400 0.780620
vt 0.698070 0.780620
vt 0.713400 0.858480
vt 0.750400 0.780620
vt 0.698070 0.780620
vt 0.713400 0.702770
vt 0.713400 0.702770
vt 0.698070 0.780620
vt 0.698070 0.780620
vt 0.713400 0.702770
vt 0.698070 0.780620
vt 0.698070 0.780620
vt 0.713400 0.702770
vt 0.750400 0.670520
vt 0.750400 0.670520
vt 0.713400 0.702770
vt 0.713400 0.702770
vt 0.750400 0.670520
vt 0.713400 0.702770
vt 0.713400 0.702770
vt 0.750400 0.670520
vt 0.787410 0.702770
vt 0.787410 0.702770
vt 0.750400 0.670520
vt 0.750400 0.670520
vt 0.787410 0.702770
vt 0.750400 0.670520
vt 0.750400 0.670520
vt 0.787410 0.702770
vt 0.802740 0.780620
vt 0.802740 0.780620
vt 0.787410 0.702770
vt 0.787410 0.702770
vt 0.802740 0.780620
vt 0.787410 0.702770
vt 0.787410 0.702770
vt 0.802740 0.780620
vt 0.787410 0.858480
vt 0.787410 0.858480
vt 0.802740 0.780620
vt 0.802740 0.780620
vt 0.787410 0.858480
vt 0.802740 0.780620
vt 0.802740 0.780620
vt 0.787410 0.858480
vt 0.750400 0.890730
vt 0.750400 0.890730
vt 0.787410 0.858480
vt 0.787410 0.858480
vt 0.750400 0.890730
vt 0.787410 0.858480
vt 0.787410 0.858480
vt 0.750400 0.890730
vt 0.713400 0.858480
vt 0.713400 0.858480
vt 0.750400 0.890730
vt 0.750400 0.890730
vt 0.713400 0.858480
vt 0.750400 0.890730
vt 0.750400 0.890730
vt 0.713400 0.858480
vt 0.698070 0.780620
vt 0.698070 0.780620
vt 0.713400 0.858480
vt 0.713400 0.858480
vt 0.698070 0.780620
vt 0.713400 0.858480
vt 0.713400 0.858480
vt 0.698070 0.780620
vt 0.750400 0.780620
vt 0.713400 0.702770
vt 0.698070 0.780620
vt 0.713400 0.702770
vt 0.750400 0.780620
vt 0.750400 0.670520
vt 0.713400 0.702770
vt 0.750400 0.670520
vt 0.750400 0.780620
vt 0.787410 0.702770
vt 0.750400 0.670520
vt 0.787410 0.702770
vt 0.750400 0.780620
vt 0.802740 0.780620
vt 0.787410 0.702770
vt 0.802740 0.780620
vt 0.750400 0.780620
vt 0.787410 0.858480
vt 0.802740 0.780620
vt 0.787410 0.858480
vt 0.750400 0.780620
vt 0.750400 0.890730
vt 0.787410 0.858480
vt 0.750400 0.890730
vt 0.750400 0.780620
vt 0.713400 0.858480
vt 0.750400 0.890730
vt 0.713400 0.858480
vt 0.750400 0.780620
vt 0.698070 0.780620
vt 0.713400 0.858480
vt 0.713400 0.702770
vt 0.750400 0.780620
vt 0.698070 0.780620
vt 0.713400 0.702770
vt 0.750400 0.670520
vt 0.750400 0.780620
vt 0.713400 0.702770
vt 0.750400 0.670520
vt 0.787410 0.702770
vt 0.750400 0.780620
vt 0.750400 0.670520
vt 0.787410 0.702770
vt 0.802740 0.780620
vt 0.750400 0.780620
vt 0.787410 0.702770
vt 0.802740 0.780620
vt 0.787410 0.858480
vt 0.750400 0.780620
vt 0.802740 0.780620
vt 0.787410 0.858480
vt 0.750400 0.890730
vt 0.750400 0.780620
vt 0.787410 0.858480
vt 0.750400 0.890730
vt 0.713400 0.858480
vt 0.750400 0.780620
vt 0.750400 0.890730
vt 0.713400 0.858480
vt 0.698070 0.780620
vt 0.750400 0.780620
vt 0.713400 0.858480
vt 0.698070 0.780620
vt 0.713400 0.702770
vt 0.698070 0.780620
vt 0.713400 0.702770
vt 0.713400 0.702770
vt 0.713400 0.702770
vt 0.698070 0.780620
vt 0.698070 0.780620
vt 0.713400 0.702770
vt 0.750400 0.670520
vt 0.713400 0.702770
vt 0.750400 0.670520
vt 0.750400 0.670520
vt 0.750400 0.670520
vt 0.713400 0.702770
vt 0.713400 0.702770
vt 0.750400 0.670520
vt 0.787410 0.702770
vt 0.750400 0.670520
vt 0.787410 0.702770
vt 0.787410 0.702770
vt 0.787410 0.702770
vt 0.750400 0.670520
vt 0.750400 0.670520
vt 0.787410 0.702770
vt 0.802740 0.780620
vt 0.787410 0.702770
vt 0.802740 0.780620
vt 0.802740 0.780620
vt 0.802740 0.780620
vt 0.787410 0.702770
vt 0.787410 0.702770
vt 0.802740 0.780620
vt 0.787410 0.858480
vt 0.802740 0.780620
vt 0.787410 0.858480
vt 0.787410 0.858480
vt 0.787410 0.858480
vt 0.802740 0.780620
vt 0.802740 0.780620
vt 0.787410 0.858480
vt 0.750400 0.890730
vt 0.787410 0.858480
vt 0.750400 0.890730
vt 0.750400 0.890730
vt 0.750400 0.890730
vt 0.787410 0.858480
vt 0.787410 0.858480
vt 0.750400 0.890730
vt 0.713400 0.858480
vt 0.750400 0.890730
vt 0.713400 0.858480
vt 0.713400 0.858480
vt 0.713400 0.858480
vt 0.750400 0.890730
vt 0.750400 0.890730
vt 0.713400 0.858480
vt 0.698070 0.780620
vt 0.713400 0.858480
vt 0.698070 0.780620
vt 0.698070 0.780620
vt 0.698070 0.780620
vt 0.713400 0.858480
vt 0.713400 0.858480
vt 0.698070 0.780620
# 256 texture vertices

vn 1.000000 0.000000 0.000000
vn 1.000000 0.000000 0.000000
vn 1.000000 -0.000000 0.000000
vn 1.000000 0.000000 0.000000
vn 1.000000 0.000000 0.000000
vn 1.000000 -0.000000 0.000000
vn 1.000000 0.000000 0.000000
vn 1.000000 0.000000 0.000000
vn 1.000000 0.000000 0.000000
vn 1.000000 0.000000 0.000000
vn 1.000000 0.000000 -0.000000
vn 1.000000 0.000000 0.000000
vn 1.000000 0.000000 0.000000
vn 1.000000 0.000000 -0.000000
vn 1.000000 0.000000 -0.000000
vn 1.000000 0.000000 0.000000
vn 1.000000 0.000000 0.000000
vn 1.000000 0.000000 -0.000000
vn 1.000000 0.000000 0.000000
vn 1.000000 0.000000 0.000000
vn 1.000000 0.000000 0.000000
vn 1.000000 0.000000 0.000000
vn 1.000000 0.000000 0.000000
vn 1.000000 0.000000 0.000000
vn 1.000000 0.000000 0.000000
vn 1.000000 0.000000 0.000000
vn 1.000000 0.000000 0.000000
vn 1.000000 0.000000 0.000000
vn 1.000000 0.000000 0.000000
vn 1.000000 0.000000 0.000000
vn 1.000000 0.000000 0.000000
vn 1.000000 0.000000 0.000000
vn -1.000000 0.000000 0.000000
vn -1.000000 0.000000 -0.000000
vn -1.000000 0.000000 -0.000000
vn -1.000000 0.000000 0.000000
vn -1.000000 0.000000 0.000000
vn -1.000000 0.000000 0.000000
vn -1.000000 0.000000 -0.000000
vn -1.000000 0.000000 0.000000
vn -1.000000 0.000000 0.000000
vn -1.000000 0.000000 0.000000
vn -1.000000 0.000000 0.000000
vn -1.000000 0.000000 0.000000
vn -1.000000 0.000000 0.000000
vn -1.000000 0.000000 0.000000
vn -1.000000 0.000000 0.000000
vn -1.000000 0.000000 0.000000
vn -1.000000 0.000000 0.000000
vn -1.000000 0.000000 0.000000
vn -1.000000 0.000000 0.000000
vn -1.000000 0.000000 0.000000
vn -1.000000 0.000000 0.000000
vn -1.000000 0.000000 0.000000
vn -1.000000 0.000000 0.000000
vn -1.000000 0.000000 0.000000
vn -1.000000 0.000000 0.000000
vn -1.000000 -0.000000 0.000000
vn -1.000000 0.000000 0.000000
vn -1.000000 0.000000 0.000000
vn -1.000000 0.000000 0.000000
vn -1.000000 0.000000 -0.000000
vn -1.000000 -0.000000 0.000000
vn -1.000000 0.000000 0.000000
vn 0.000000 -0.131171 0.991360
vn 0.000000 -0.787924 0.615772
vn 0.000000 -0.591733 0.806134
vn 0.000000 -0.131171 0.991360
vn 0.000000 -0.131171 0.991360
vn 0.000000 -0.591733 0.806134
vn 0.000000 0.131161 0.991361
vn 0.000000 -0.131171 0.991360
vn 0.000000 -0.787924 0.615772
vn 0.000000 -0.989778 -0.142614
vn 0.000000 -0.989777 0.142621
vn 0.000000 -0.787924 0.615772
vn 0.000000 -0.787924 0.615772
vn 0.000000 -0.989777 0.142621
vn 0.000000 -0.591733 0.806134
vn 0.000000 -0.787924 0.615772
vn 0.000000 -0.989778 -0.142614
vn 0.000000 -0.591721 -0.806143
vn 0.000000 -0.787923 -0.615774
vn 0.000000 -0.989778 -0.142614
vn 0.000000 -0.989778 -0.142614
vn 0.000000 -0.787923 -0.615774
vn 0.000000 -0.989777 0.142621
vn 0.000000 -0.989778 -0.142614
vn 0.000000 -0.591721 -0.806143
vn 0.000000 0.131152 -0.991362
vn 0.000000 -0.131161 -0.991361
vn 0.000000 -0.591721 -0.806143
vn 0.000000 -0.591721 -0.806143
vn 0.000000 -0.131161 -0.991361
vn 0.000000 -0.787923 -0.615774
vn 0.000000 -0.591721 -0.806143
vn 0.000000 0.131152 -0.991362
vn 0.000000 0.787922 -0.615775
vn 0.000000 0.591716 -0.806146
vn 0.000000 0.131152 -0.991362
vn 0.000000 0.131152 -0.991362
vn 0.000000 0.591716 -0.806146
vn 0.000000 -0.131161 -0.991361
vn 0.000000 0.131152 -0.991362
vn 0.000000 0.787922 -0.615775
vn 0.000000 0.989777 0.142620
vn 0.000000 0.989779 -0.142613
vn 0.000000 0.787922 -0.615775
vn 0.000000 0.787922 -0.615775
vn 0.000000 0.989779 -0.142613
vn 0.000000 0.591716 -0.806146
vn 0.000000 0.787922 -0.615775
vn 0.000000 0.989777 0.142620
vn 0.000000 0.591728 0.806138
vn 0.000000 0.787924 0.615773
vn 0.000000 0.989777 0.142620
vn 0.000000 0.989777 0.142620
vn 0.000000 0.787924 0.615773
vn 0.000000 0.989779 -0.142613
vn 0.000000 0.989777 0.142620
vn 0.000000 0.591728 0.806138
vn 0.000000 -0.131171 0.991360
vn 0.000000 0.131161 0.991361
vn 0.000000 0.591728 0.806138
vn 0.000000 0.591728 0.806138
vn 0.000000 0.131161 0.991361
vn 0.000000 0.787924 0.615773
vn 0.000000 0.591728 0.806138
vn -1.000000 0.000000 0.000000
vn -1.000000 0.000000 0.000000
vn -1.000000 0.000000 0.000000
vn -1.000000 0.000000 0.000000
vn -1.000000 0.000000 0.000000
vn -1.000000 0.000000 0.000000
vn -1.000000 0.000000 0.000000
vn -1.000000 0.000000 0.000000
vn -1.000000 0.000000 0.000000
vn -1.000000 0.000000 0.000000
vn -1.000000 0.000000 0.000000
vn -1.000000 0.000000 0.000000
vn -1.000000 0.000000 0.000000
vn -1.000000 0.000000 0.000000
vn -1.000000 -0.000000 0.000000
vn -1.000000 0.000000 0.000000
vn -1.000000 -0.000000 0.000000
vn -1.000000 0.000000 0.000000
vn -1.000000 -0.000000 -0.000000
vn -1.000000 -0.000000 0.000000
vn -1.000000 -0.000000 -0.000000
vn -1.000000 0.000000 0.000000
vn -1.000000 0.000000 -0.000000
vn -1.000000 -0.000000 -0.000000
vn -1.000000 0.000000 -0.000000
vn -1.000000 0.000000 0.000000
vn -1.000000 0.000000 0.000000
vn -1.000000 0.000000 -0.000000
vn -1.000000 0.000000 0.000000
vn -1.000000 0.000000 0.000000
vn -1.000000 0.000000 0.000000
vn -1.000000 0.000000 0.000000
vn 1.000000 0.000000 0.000000
vn 1.000000 0.000000 0.000000
vn 1.000000 0.000000 0.000000
vn 1.000000 0.000000 0.000000
vn 1.000000 0.000000 0.000000
vn 1.000000 0.000000 0.000000
vn 1.000000 0.000000 0.000000
vn 1.000000 0.000000 0.000000
vn 1.000000 -0.000000 0.000000
vn 1.000000 0.000000 0.000000
vn 1.000000 0.000000 0.000000
vn 1.000000 -0.000000 0.000000
vn 1.000000 -0.000000 0.000000
vn 1.000000 0.000000 0.000000
vn 1.000000 -0.000000 0.000000
vn 1.000000 -0.000000 0.000000
vn 1.000000 0.000000 0.000000
vn 1.000000 0.000000 0.000000
vn 1.000000 -0.000000 0.000000
vn 1.000000 0.000000 0.000000
vn 1.000000 0.000000 -0.000000
vn 1.000000 0.000000 0.000000
vn 1.000000 0.000000 0.000000
vn 1.000000 0.000000 -0.000000
vn 1.000000 0.000000 -0.000000
vn 1.000000 0.000000 0.000000
vn 1.000000 0.000000 -0.000000
vn 1.000000 0.000000 -0.000000
vn 1.000000 0.000000 0.000000
vn 1.000000 0.000000 0.000000
vn 1.000000 0.000000 -0.000000
vn 1.000000 0.000000 0.000000
vn 0.000000 -0.787924 0.615772
vn 0.000000 -0.131171 0.991360
vn 0.000000 -0.591733 0.806134
vn 0.000000 -0.787924 0.615772
vn 0.000000 -0.591733 0.806134
vn 0.000000 -0.131171 0.991360
vn 0.000000 0.131161 0.991361
vn 0.000000 -0.591733 0.806134
vn 0.000000 -0.989778 -0.142614
vn 0.000000 -0.787924 0.615772
vn 0.000000 -0.989777 0.142621
vn 0.000000 -0.989778 -0.142614
vn 0.000000 -0.989777 0.142621
vn 0.000000 -0.787924 0.615772
vn 0.000000 -0.591733 0.806134
vn 0.000000 -0.989777 0.142621
vn 0.000000 -0.591721 -0.806143
vn 0.000000 -0.989778 -0.142614
vn 0.000000 -0.787923 -0.615774
vn 0.000000 -0.591721 -0.806143
vn 0.000000 -0.787923 -0.615774
vn 0.000000 -0.989778 -0.142614
vn 0.000000 -0.989777 0.142621
vn 0.000000 -0.787923 -0.615774
vn 0.000000 0.131151 -0.991362
vn 0.000000 -0.591721 -0.806143
vn 0.000000 -0.131161 -0.991361
vn 0.000000 0.131151 -0.991362
vn 0.000000 -0.131161 -0.991361
vn 0.000000 -0.591721 -0.806143
vn 0.000000 -0.787923 -0.615774
vn 0.000000 -0.131161 -0.991361
vn 0.000000 0.787922 -0.615775
vn 0.000000 0.131151 -0.991362
vn 0.000000 0.591716 -0.806146
vn 0.000000 0.787922 -0.615775
vn 0.000000 0.591716 -0.806146
vn 0.000000 0.131151 -0.991362
vn 0.000000 -0.131161 -0.991361
vn 0.000000 0.591716 -0.806146
vn 0.000000 0.989777 0.142620
vn 0.000000 0.787922 -0.615775
vn 0.000000 0.989779 -0.142613
vn 0.000000 0.989777 0.142620
vn 0.000000 0.989779 -0.142613
vn 0.000000 0.787922 -0.615775
vn 0.000000 0.591716 -0.806146
vn 0.000000 0.989779 -0.142613
vn 0.000000 0.591728 0.806138
vn 0.000000 0.989777 0.142620
vn 0.000000 0.787924 0.615773
vn 0.000000 0.591728 0.806138
vn 0.000000 0.787924 0.615773
vn 0.000000 0.989777 0.142620
vn 0.000000 0.989779 -0.142613
vn 0.000000 0.787924 0.615773
vn 0.000000 -0.131171 0.991360
vn 0.000000 0.591728 0.806138
vn 0.000000 0.131161 0.991361
vn 0.000000 -0.131171 0.991360
vn 0.000000 0.131161 0.991361
vn 0.000000 0.591728 0.806138
vn 0.000000 0.787924 0.615773
vn 0.000000 0.131161 0.991361
# 256 vertex normals

g mat2
f 1/1/1 2/2/2 3/3/3
f 1/5/5 3/6/6 4/7/7
f 1/9/9 4/10/10 5/11/11
f 1/13/13 5/14/14 6/15/15
f 1/17/17 6/18/18 7/19/19
f 1/21/21 7/22/22 8/23/23
f 1/25/25 8/26/26 9/27/27
f 1/29/29 9/30/30 2/31/31
f 18/33/33 11/34/34 10/35/35
f 18/37/37 12/38/38 11/39/39
f 18/41/41 13/42/42 12/43/43
f 18/45/45 14/46/46 13/47/47
f 18/49/49 15/50/50 14/51/51
f 18/53/53 16/54/54 15/55/55
f 18/57/57 17/58/58 16/59/59
f 18/61/61 10/62/62 17/63/63
f 10/65/65 11/66/66 3/67/67
f 10/69/69 3/70/70 2/71/71
f 11/73/73 12/74/74 4/75/75
f 11/77/77 4/78/78 3/79/79
f 12/81/81 13/82/82 5/83/83
f 12/85/85 5/86/86 4/87/87
f 13/89/89 14/90/90 6/91/91
f 13/93/93 6/94/94 5/95/95
f 14/97/97 15/98/98 7/99/99
f 14/101/101 7/102/102 6/103/103
f 15/105/105 16/106/106 8/107/107
f 15/109/109 8/110/110 7/111/111
f 16/113/113 17/114/114 9/115/115
f 16/117/117 9/118/118 8/119/119
f 17/121/121 10/122/122 2/123/123
f 17/125/125 2/126/126 9/127/127
f 20/129/129 19/130/130 21/131/131
f 21/133/133 19/134/134 22/135/135
f 22/137/137 19/138/138 23/139/139
f 23/141/141 19/142/142 24/143/143
f 24/145/145 19/146/146 25/147/147
f 25/149/149 19/150/150 26/151/151
f 26/153/153 19/154/154 27/155/155
f 27/157/157 19/158/158 20/159/159
f 29/161/161 36/162/162 28/163/163
f 30/165/165 36/166/166 29/167/167
f 31/169/169 36/170/170 30/171/171
f 32/173/173 36/174/174 31/175/175
f 33/177/177 36/178/178 32/179/179
f 34/181/181 36/182/182 33/183/183
f 35/185/185 36/186/186 34/187/187
f 28/189/189 36/190/190 35/191/191
f 29/193/193 28/194/194 21/195/195
f 21/197/197 28/198/198 20/199/199
f 30/201/201 29/202/202 22/203/203
f 22/205/205 29/206/206 21/207/207
f 31/209/209 30/210/210 23/211/211
f 23/213/213 30/214/214 22/215/215
f 32/217/217 31/218/218 24/219/219
f 24/221/221 31/222/222 23/223/223
f 33/225/225 32/226/226 25/227/227
f 25/229/229 32/230/230 24/231/231
f 34/233/233 33/234/234 26/235/235
f 26/237/237 33/238/238 25/239/239
f 35/241/241 34/242/242 27/243/243
f 27/245/245 34/246/246 26/247/247
f 28/249/249 35/250/250 20/251/251
f 20/253/253 35/254/254 27/255/255
# 64 elements

