# Created by 3DAce v2.72


g
v 1.478814 -0.166394 1.810324
v 0.965536 -0.166394 1.810324
v 0.965536 -0.037197 2.109200
v 1.478814 -0.037197 2.109200
v 1.478814 0.274700 1.810324
v 1.478814 0.274700 2.233000
v 1.478814 -0.037197 1.511442
v 1.478814 0.274700 1.387640
v 1.478814 0.586606 1.511442
v 1.478814 0.715802 1.810324
v 1.478814 0.586606 2.109200
v 0.965536 0.274700 2.233000
v 0.965536 -0.037197 1.511442
v 0.965536 0.274700 1.387640
v 0.965536 0.586606 1.511442
v 0.965536 0.715802 1.810324
v 0.965536 0.586606 2.109200
v 0.965536 0.274700 1.810324
v -1.478318 -0.166394 1.810324
v -0.965040 -0.166394 1.810324
v -0.965040 -0.037197 2.109200
v -1.478318 -0.037197 2.109200
v -1.478318 0.274700 1.810324
v -1.478318 0.274700 2.233000
v -1.478318 -0.037197 1.511442
v -1.478318 0.274700 1.387640
v -1.478318 0.586606 1.511442
v -1.478318 0.715802 1.810324
v -1.478318 0.586606 2.109200
v -0.965040 0.274700 2.233000
v -0.965040 -0.037197 1.511442
v -0.965040 0.274700 1.387640
v -0.965040 0.586606 1.511442
v -0.965040 0.715802 1.810324
v -0.965040 0.586606 2.109200
v -0.965040 0.274700 1.810324
# 36 vertices

vt 0.751650 0.780620
vt 0.699310 0.780620
vt 0.714640 0.702770
vt 0.751650 0.780620
vt 0.751650 0.780620
vt 0.714640 0.702770
vt 0.751650 0.670520
vt 0.751650 0.780620
vt 0.751650 0.780620
vt 0.751650 0.670520
vt 0.788660 0.702770
vt 0.751650 0.780620
vt 0.751650 0.780620
vt 0.788660 0.702770
vt 0.803990 0.780620
vt 0.751650 0.780620
vt 0.751650 0.780620
vt 0.803990 0.780620
vt 0.788660 0.858480
vt 0.751650 0.780620
vt 0.751650 0.780620
vt 0.788660 0.858480
vt 0.751650 0.890730
vt 0.751650 0.780620
vt 0.751650 0.780620
vt 0.751650 0.890730
vt 0.714640 0.858480
vt 0.751650 0.780620
vt 0.751650 0.780620
vt 0.714640 0.858480
vt 0.699310 0.780620
vt 0.751650 0.780620
vt 0.751650 0.780620
vt 0.714640 0.702770
vt 0.699310 0.780620
vt 0.751650 0.780620
vt 0.751650 0.780620
vt 0.751650 0.670520
vt 0.714640 0.702770
vt 0.751650 0.780620
vt 0.751650 0.780620
vt 0.788660 0.702770
vt 0.751650 0.670520
vt 0.751650 0.780620
vt 0.751650 0.780620
vt 0.803990 0.780620
vt 0.788660 0.702770
vt 0.751650 0.780620
vt 0.751650 0.780620
vt 0.788660 0.858480
vt 0.803990 0.780620
vt 0.751650 0.780620
vt 0.751650 0.780620
vt 0.751650 0.890730
vt 0.788660 0.858480
vt 0.751650 0.780620
vt 0.751650 0.780620
vt 0.714640 0.858480
vt 0.751650 0.890730
vt 0.751650 0.780620
vt 0.751650 0.780620
vt 0.699310 0.780620
vt 0.714640 0.858480
vt 0.751650 0.780620
vt 0.699310 0.780620
vt 0.714640 0.702770
vt 0.714640 0.702770
vt 0.699310 0.780620
vt 0.699310 0.780620
vt 0.714640 0.702770
vt 0.699310 0.780620
vt 0.699310 0.780620
vt 0.714640 0.702770
vt 0.751650 0.670520
vt 0.751650 0.670520
vt 0.714640 0.702770
vt 0.714640 0.702770
vt 0.751650 0.670520
vt 0.714640 0.702770
vt 0.714640 0.702770
vt 0.751650 0.670520
vt 0.788660 0.702770
vt 0.788660 0.702770
vt 0.751650 0.670520
vt 0.751650 0.670520
vt 0.788660 0.702770
vt 0.751650 0.670520
vt 0.751650 0.670520
vt 0.788660 0.702770
vt 0.803990 0.780620
vt 0.803990 0.780620
vt 0.788660 0.702770
vt 0.788660 0.702770
vt 0.803990 0.780620
vt 0.788660 0.702770
vt 0.788660 0.702770
vt 0.803990 0.780620
vt 0.788660 0.858480
vt 0.788660 0.858480
vt 0.803990 0.780620
vt 0.803990 0.780620
vt 0.788660 0.858480
vt 0.803990 0.780620
vt 0.803990 0.780620
vt 0.788660 0.858480
vt 0.751650 0.890730
vt 0.751650 0.890730
vt 0.788660 0.858480
vt 0.788660 0.858480
vt 0.751650 0.890730
vt 0.788660 0.858480
vt 0.788660 0.858480
vt 0.751650 0.890730
vt 0.714640 0.858480
vt 0.714640 0.858480
vt 0.751650 0.890730
vt 0.751650 0.890730
vt 0.714640 0.858480
vt 0.751650 0.890730
vt 0.751650 0.890730
vt 0.714640 0.858480
vt 0.699310 0.780620
vt 0.699310 0.780620
vt 0.714640 0.858480
vt 0.714640 0.858480
vt 0.699310 0.780620
vt 0.714640 0.858480
vt 0.714640 0.858480
vt 0.699310 0.780620
vt 0.751650 0.780620
vt 0.714640 0.702770
vt 0.699310 0.780620
vt 0.714640 0.702770
vt 0.751650 0.780620
vt 0.751650 0.670520
vt 0.714640 0.702770
vt 0.751650 0.670520
vt 0.751650 0.780620
vt 0.788660 0.702770
vt 0.751650 0.670520
vt 0.788660 0.702770
vt 0.751650 0.780620
vt 0.803990 0.780620
vt 0.788660 0.702770
vt 0.803990 0.780620
vt 0.751650 0.780620
vt 0.788660 0.858480
vt 0.803990 0.780620
vt 0.788660 0.858480
vt 0.751650 0.780620
vt 0.751650 0.890730
vt 0.788660 0.858480
vt 0.751650 0.890730
vt 0.751650 0.780620
vt 0.714640 0.858480
vt 0.751650 0.890730
vt 0.714640 0.858480
vt 0.751650 0.780620
vt 0.699310 0.780620
vt 0.714640 0.858480
vt 0.714640 0.702770
vt 0.751650 0.780620
vt 0.699310 0.780620
vt 0.714640 0.702770
vt 0.751650 0.670520
vt 0.751650 0.780620
vt 0.714640 0.702770
vt 0.751650 0.670520
vt 0.788660 0.702770
vt 0.751650 0.780620
vt 0.751650 0.670520
vt 0.788660 0.702770
vt 0.803990 0.780620
vt 0.751650 0.780620
vt 0.788660 0.702770
vt 0.803990 0.780620
vt 0.788660 0.858480
vt 0.751650 0.780620
vt 0.803990 0.780620
vt 0.788660 0.858480
vt 0.751650 0.890730
vt 0.751650 0.780620
vt 0.788660 0.858480
vt 0.751650 0.890730
vt 0.714640 0.858480
vt 0.751650 0.780620
vt 0.751650 0.890730
vt 0.714640 0.858480
vt 0.699310 0.780620
vt 0.751650 0.780620
vt 0.714640 0.858480
vt 0.699310 0.780620
vt 0.714640 0.702770
vt 0.699310 0.780620
vt 0.714640 0.702770
vt 0.714640 0.702770
vt 0.714640 0.702770
vt 0.699310 0.780620
vt 0.699310 0.780620
vt 0.714640 0.702770
vt 0.751650 0.670520
vt 0.714640 0.702770
vt 0.751650 0.670520
vt 0.751650 0.670520
vt 0.751650 0.670520
vt 0.714640 0.702770
vt 0.714640 0.702770
vt 0.751650 0.670520
vt 0.788660 0.702770
vt 0.751650 0.670520
vt 0.788660 0.702770
vt 0.788660 0.702770
vt 0.788660 0.702770
vt 0.751650 0.670520
vt 0.751650 0.670520
vt 0.788660 0.702770
vt 0.803990 0.780620
vt 0.788660 0.702770
vt 0.803990 0.780620
vt 0.803990 0.780620
vt 0.803990 0.780620
vt 0.788660 0.702770
vt 0.788660 0.702770
vt 0.803990 0.780620
vt 0.788660 0.858480
vt 0.803990 0.780620
vt 0.788660 0.858480
vt 0.788660 0.858480
vt 0.788660 0.858480
vt 0.803990 0.780620
vt 0.803990 0.780620
vt 0.788660 0.858480
vt 0.751650 0.890730
vt 0.788660 0.858480
vt 0.751650 0.890730
vt 0.751650 0.890730
vt 0.751650 0.890730
vt 0.788660 0.858480
vt 0.788660 0.858480
vt 0.751650 0.890730
vt 0.714640 0.858480
vt 0.751650 0.890730
vt 0.714640 0.858480
vt 0.714640 0.858480
vt 0.714640 0.858480
vt 0.751650 0.890730
vt 0.751650 0.890730
vt 0.714640 0.858480
vt 0.699310 0.780620
vt 0.714640 0.858480
vt 0.699310 0.780620
vt 0.699310 0.780620
vt 0.699310 0.780620
vt 0.714640 0.858480
vt 0.714640 0.858480
vt 0.699310 0.780620
# 256 texture vertices

vn 1.000000 0.000000 0.000000
vn 1.000000 0.000000 0.000000
vn 1.000000 -0.000000 0.000000
vn 1.000000 0.000000 0.000000
vn 1.000000 0.000000 0.000000
vn 1.000000 -0.000000 0.000000
vn 1.000000 0.000000 0.000000
vn 1.000000 0.000000 0.000000
vn 1.000000 0.000000 0.000000
vn 1.000000 0.000000 0.000000
vn 1.000000 0.000000 -0.000000
vn 1.000000 0.000000 0.000000
vn 1.000000 0.000000 0.000000
vn 1.000000 0.000000 -0.000000
vn 1.000000 0.000000 -0.000000
vn 1.000000 0.000000 0.000000
vn 1.000000 0.000000 0.000000
vn 1.000000 0.000000 -0.000000
vn 1.000000 0.000000 0.000000
vn 1.000000 0.000000 0.000000
vn 1.000000 0.000000 0.000000
vn 1.000000 0.000000 0.000000
vn 1.000000 0.000000 0.000000
vn 1.000000 0.000000 0.000000
vn 1.000000 0.000000 0.000000
vn 1.000000 0.000000 0.000000
vn 1.000000 0.000000 0.000000
vn 1.000000 0.000000 0.000000
vn 1.000000 0.000000 0.000000
vn 1.000000 0.000000 0.000000
vn 1.000000 0.000000 0.000000
vn 1.000000 0.000000 0.000000
vn -1.000000 0.000000 0.000000
vn -1.000000 0.000000 -0.000000
vn -1.000000 0.000000 -0.000000
vn -1.000000 0.000000 0.000000
vn -1.000000 0.000000 0.000000
vn -1.000000 0.000000 0.000000
vn -1.000000 0.000000 -0.000000
vn -1.000000 0.000000 0.000000
vn -1.000000 0.000000 0.000000
vn -1.000000 0.000000 0.000000
vn -1.000000 0.000000 0.000000
vn -1.000000 0.000000 0.000000
vn -1.000000 0.000000 0.000000
vn -1.000000 0.000000 0.000000
vn -1.000000 0.000000 0.000000
vn -1.000000 0.000000 0.000000
vn -1.000000 0.000000 0.000000
vn -1.000000 0.000000 0.000000
vn -1.000000 0.000000 0.000000
vn -1.000000 0.000000 0.000000
vn -1.000000 0.000000 0.000000
vn -1.000000 0.000000 0.000000
vn -1.000000 0.000000 0.000000
vn -1.000000 0.000000 0.000000
vn -1.000000 0.000000 0.000000
vn -1.000000 -0.000000 0.000000
vn -1.000000 0.000000 0.000000
vn -1.000000 0.000000 0.000000
vn -1.000000 0.000000 0.000000
vn -1.000000 0.000000 -0.000000
vn -1.000000 -0.000000 0.000000
vn -1.000000 0.000000 0.000000
vn 0.000000 -0.131169 0.991360
vn 0.000000 -0.787923 0.615773
vn 0.000000 -0.591730 0.806136
vn 0.000000 -0.131169 0.991360
vn 0.000000 -0.131169 0.991360
vn 0.000000 -0.591730 0.806136
vn 0.000000 0.131159 0.991361
vn 0.000000 -0.131169 0.991360
vn 0.000000 -0.787923 0.615773
vn 0.000000 -0.989778 -0.142614
vn 0.000000 -0.989777 0.142621
vn 0.000000 -0.787923 0.615773
vn 0.000000 -0.787923 0.615773
vn 0.000000 -0.989777 0.142621
vn 0.000000 -0.591730 0.806136
vn 0.000000 -0.787923 0.615773
vn 0.000000 -0.989778 -0.142614
vn 0.000000 -0.591735 -0.806133
vn 0.000000 -0.787928 -0.615768
vn 0.000000 -0.989778 -0.142614
vn 0.000000 -0.989778 -0.142614
vn 0.000000 -0.787928 -0.615768
vn 0.000000 -0.989777 0.142621
vn 0.000000 -0.989778 -0.142614
vn 0.000000 -0.591735 -0.806133
vn 0.000000 0.131161 -0.991361
vn 0.000000 -0.131171 -0.991360
vn 0.000000 -0.591735 -0.806133
vn 0.000000 -0.591735 -0.806133
vn 0.000000 -0.131171 -0.991360
vn 0.000000 -0.787928 -0.615768
vn 0.000000 -0.591735 -0.806133
vn 0.000000 0.131161 -0.991361
vn 0.000000 0.787927 -0.615769
vn 0.000000 0.591730 -0.806136
vn 0.000000 0.131161 -0.991361
vn 0.000000 0.131161 -0.991361
vn 0.000000 0.591730 -0.806136
vn 0.000000 -0.131171 -0.991360
vn 0.000000 0.131161 -0.991361
vn 0.000000 0.787927 -0.615769
vn 0.000000 0.989778 0.142620
vn 0.000000 0.989779 -0.142613
vn 0.000000 0.787927 -0.615769
vn 0.000000 0.787927 -0.615769
vn 0.000000 0.989779 -0.142613
vn 0.000000 0.591730 -0.806136
vn 0.000000 0.787927 -0.615769
vn 0.000000 0.989778 0.142620
vn 0.000000 0.591725 0.806140
vn 0.000000 0.787923 0.615774
vn 0.000000 0.989778 0.142620
vn 0.000000 0.989778 0.142620
vn 0.000000 0.787923 0.615774
vn 0.000000 0.989779 -0.142613
vn 0.000000 0.989778 0.142620
vn 0.000000 0.591725 0.806140
vn 0.000000 -0.131169 0.991360
vn 0.000000 0.131159 0.991361
vn 0.000000 0.591725 0.806140
vn 0.000000 0.591725 0.806140
vn 0.000000 0.131159 0.991361
vn 0.000000 0.787923 0.615774
vn 0.000000 0.591725 0.806140
vn -1.000000 0.000000 0.000000
vn -1.000000 0.000000 0.000000
vn -1.000000 0.000000 0.000000
vn -1.000000 0.000000 0.000000
vn -1.000000 0.000000 0.000000
vn -1.000000 0.000000 0.000000
vn -1.000000 0.000000 0.000000
vn -1.000000 0.000000 0.000000
vn -1.000000 0.000000 0.000000
vn -1.000000 0.000000 0.000000
vn -1.000000 0.000000 0.000000
vn -1.000000 0.000000 0.000000
vn -1.000000 0.000000 0.000000
vn -1.000000 0.000000 0.000000
vn -1.000000 -0.000000 0.000000
vn -1.000000 0.000000 0.000000
vn -1.000000 -0.000000 0.000000
vn -1.000000 0.000000 0.000000
vn -1.000000 -0.000000 -0.000000
vn -1.000000 -0.000000 0.000000
vn -1.000000 -0.000000 -0.000000
vn -1.000000 0.000000 0.000000
vn -1.000000 0.000000 -0.000000
vn -1.000000 -0.000000 -0.000000
vn -1.000000 0.000000 -0.000000
vn -1.000000 0.000000 0.000000
vn -1.000000 0.000000 0.000000
vn -1.000000 0.000000 -0.000000
vn -1.000000 0.000000 0.000000
vn -1.000000 0.000000 0.000000
vn -1.000000 0.000000 0.000000
vn -1.000000 0.000000 0.000000
vn 1.000000 0.000000 0.000000
vn 1.000000 0.000000 0.000000
vn 1.000000 0.000000 0.000000
vn 1.000000 0.000000 0.000000
vn 1.000000 0.000000 0.000000
vn 1.000000 0.000000 0.000000
vn 1.000000 0.000000 0.000000
vn 1.000000 0.000000 0.000000
vn 1.000000 -0.000000 0.000000
vn 1.000000 0.000000 0.000000
vn 1.000000 0.000000 0.000000
vn 1.000000 -0.000000 0.000000
vn 1.000000 -0.000000 0.000000
vn 1.000000 0.000000 0.000000
vn 1.000000 -0.000000 0.000000
vn 1.000000 -0.000000 0.000000
vn 1.000000 0.000000 0.000000
vn 1.000000 0.000000 0.000000
vn 1.000000 -0.000000 0.000000
vn 1.000000 0.000000 0.000000
vn 1.000000 0.000000 -0.000000
vn 1.000000 0.000000 0.000000
vn 1.000000 0.000000 0.000000
vn 1.000000 0.000000 -0.000000
vn 1.000000 0.000000 -0.000000
vn 1.000000 0.000000 0.000000
vn 1.000000 0.000000 -0.000000
vn 1.000000 0.000000 -0.000000
vn 1.000000 0.000000 0.000000
vn 1.000000 0.000000 0.000000
vn 1.000000 0.000000 -0.000000
vn 1.000000 0.000000 0.000000
vn 0.000000 -0.787923 0.615773
vn 0.000000 -0.131169 0.991360
vn 0.000000 -0.591730 0.806136
vn 0.000000 -0.787923 0.615773
vn 0.000000 -0.591730 0.806136
vn 0.000000 -0.131169 0.991360
vn 0.000000 0.131159 0.991361
vn 0.000000 -0.591730 0.806136
vn 0.000000 -0.989778 -0.142614
vn 0.000000 -0.787923 0.615773
vn 0.000000 -0.989777 0.142621
vn 0.000000 -0.989778 -0.142614
vn 0.000000 -0.989777 0.142621
vn 0.000000 -0.787923 0.615773
vn 0.000000 -0.591730 0.806136
vn 0.000000 -0.989777 0.142621
vn 0.000000 -0.591735 -0.806133
vn 0.000000 -0.989778 -0.142614
vn 0.000000 -0.787928 -0.615768
vn 0.000000 -0.591735 -0.806133
vn 0.000000 -0.787928 -0.615768
vn 0.000000 -0.989778 -0.142614
vn 0.000000 -0.989777 0.142621
vn 0.000000 -0.787928 -0.615768
vn 0.000000 0.131161 -0.991361
vn 0.000000 -0.591735 -0.806133
vn 0.000000 -0.131171 -0.991360
vn 0.000000 0.131161 -0.991361
vn 0.000000 -0.131171 -0.991360
vn 0.000000 -0.591735 -0.806133
vn 0.000000 -0.787928 -0.615768
vn 0.000000 -0.131171 -0.991360
vn 0.000000 0.787927 -0.615769
vn 0.000000 0.131161 -0.991361
vn 0.000000 0.591730 -0.806136
vn 0.000000 0.787927 -0.615769
vn 0.000000 0.591730 -0.806136
vn 0.000000 0.131161 -0.991361
vn 0.000000 -0.131171 -0.991360
vn 0.000000 0.591730 -0.806136
vn 0.000000 0.989777 0.142620
vn 0.000000 0.787927 -0.615769
vn 0.000000 0.989779 -0.142613
vn 0.000000 0.989777 0.142620
vn 0.000000 0.989779 -0.142613
vn 0.000000 0.787927 -0.615769
vn 0.000000 0.591730 -0.806136
vn 0.000000 0.989779 -0.142613
vn 0.000000 0.591725 0.806140
vn 0.000000 0.989777 0.142620
vn 0.000000 0.787923 0.615774
vn 0.000000 0.591725 0.806140
vn 0.000000 0.787923 0.615774
vn 0.000000 0.989777 0.142620
vn 0.000000 0.989779 -0.142613
vn 0.000000 0.787923 0.615774
vn 0.000000 -0.131169 0.991360
vn 0.000000 0.591725 0.806140
vn 0.000000 0.131159 0.991361
vn 0.000000 -0.131169 0.991360
vn 0.000000 0.131159 0.991361
vn 0.000000 0.591725 0.806140
vn 0.000000 0.787923 0.615774
vn 0.000000 0.131159 0.991361
# 256 vertex normals

g mat2
f 5/1/1 6/2/2 4/3/3
f 5/5/5 4/6/6 1/7/7
f 5/9/9 1/10/10 7/11/11
f 5/13/13 7/14/14 8/15/15
f 5/17/17 8/18/18 9/19/19
f 5/21/21 9/22/22 10/23/23
f 5/25/25 10/26/26 11/27/27
f 5/29/29 11/30/30 6/31/31
f 18/33/33 3/34/34 12/35/35
f 18/37/37 2/38/38 3/39/39
f 18/41/41 13/42/42 2/43/43
f 18/45/45 14/46/46 13/47/47
f 18/49/49 15/50/50 14/51/51
f 18/53/53 16/54/54 15/55/55
f 18/57/57 17/58/58 16/59/59
f 18/61/61 12/62/62 17/63/63
f 12/65/65 3/66/66 4/67/67
f 12/69/69 4/70/70 6/71/71
f 3/73/73 2/74/74 1/75/75
f 3/77/77 1/78/78 4/79/79
f 2/81/81 13/82/82 7/83/83
f 2/85/85 7/86/86 1/87/87
f 13/89/89 14/90/90 8/91/91
f 13/93/93 8/94/94 7/95/95
f 14/97/97 15/98/98 9/99/99
f 14/101/101 9/102/102 8/103/103
f 15/105/105 16/106/106 10/107/107
f 15/109/109 10/110/110 9/111/111
f 16/113/113 17/114/114 11/115/115
f 16/117/117 11/118/118 10/119/119
f 17/121/121 12/122/122 6/123/123
f 17/125/125 6/126/126 11/127/127
f 24/129/129 23/130/130 22/131/131
f 22/133/133 23/134/134 19/135/135
f 19/137/137 23/138/138 25/139/139
f 25/141/141 23/142/142 26/143/143
f 26/145/145 23/146/146 27/147/147
f 27/149/149 23/150/150 28/151/151
f 28/153/153 23/154/154 29/155/155
f 29/157/157 23/158/158 24/159/159
f 21/161/161 36/162/162 30/163/163
f 20/165/165 36/166/166 21/167/167
f 31/169/169 36/170/170 20/171/171
f 32/173/173 36/174/174 31/175/175
f 33/177/177 36/178/178 32/179/179
f 34/181/181 36/182/182 33/183/183
f 35/185/185 36/186/186 34/187/187
f 30/189/189 36/190/190 35/191/191
f 21/193/193 30/194/194 22/195/195
f 22/197/197 30/198/198 24/199/199
f 20/201/201 21/202/202 19/203/203
f 19/205/205 21/206/206 22/207/207
f 31/209/209 20/210/210 25/211/211
f 25/213/213 20/214/214 19/215/215
f 32/217/217 31/218/218 26/219/219
f 26/221/221 31/222/222 25/223/223
f 33/225/225 32/226/226 27/227/227
f 27/229/229 32/230/230 26/231/231
f 34/233/233 33/234/234 28/235/235
f 28/237/237 33/238/238 27/239/239
f 35/241/241 34/242/242 29/243/243
f 29/245/245 34/246/246 28/247/247
f 30/249/249 35/250/250 24/251/251
f 24/253/253 35/254/254 29/255/255
# 64 elements

