# Created by Metasequoia

v 3.914400 7.629038 -2.623986
v 3.923600 5.791437 -2.528488
v 3.968600 7.629038 -2.726389
v 3.923000 5.791437 -2.811581
v 3.878400 7.373137 -2.553786
v 3.974400 7.373137 -2.805385
v 3.888600 5.791437 -2.669987
v 3.905800 6.825939 -2.538488
v 3.891400 6.825939 -2.678586
v 3.943300 6.825939 -2.809282
v 3.883900 7.541937 -2.586887
v 3.982000 7.541937 -2.772485
v 3.965700 7.541937 -2.602888
v 3.980100 7.373137 -2.586887
v 3.959600 7.629038 -2.632687
v 3.998800 6.825939 -2.594484
v 3.917200 7.629038 -2.655187
v 4.010900 5.791437 -2.599289
v 3.889100 7.541937 -2.643683
v 3.893800 5.791437 -2.599289
v 3.876100 7.373137 -2.626789
v 3.886800 6.825939 -2.610187
v 4.012900 7.541937 -2.696584
v 4.025500 7.373137 -2.713683
v 3.985600 7.629038 -2.684484
v 4.014900 6.825939 -2.730285
v 3.945500 7.629038 -2.705788
v 4.007800 5.791437 -2.740788
v 3.940300 7.541937 -2.735187
v 3.927000 7.373137 -2.751486
v 3.931200 7.629038 -2.614987
v 3.914400 7.541937 -2.570685
v 3.919700 7.373137 -2.537985
v 3.950400 6.825939 -2.532184
v 3.970200 5.791437 -2.528488
v 3.983400 7.629038 -2.718586
v 4.008800 7.541937 -2.758288
v 4.010700 7.373137 -2.791484
v 3.982400 6.825939 -2.803784
v 3.963900 5.791437 -2.811581
# 40 vertices

vt 0.96051 0.11745
vt 0.95689 0.11236
vt 0.95948 0.11745
vt 0.95877 0.11236
vt 0.95497 0.10249
vt 0.95783 0.10249
vt 0.95463 0.07048
vt 0.95828 0.07048
vt 0.95442 0.00997
vt 0.95856 0.00997
vt 0.96425 0.11236
vt 0.96354 0.11745
vt 0.96554 0.11745
vt 0.96786 0.11236
vt 0.96525 0.10249
vt 0.96980 0.10249
vt 0.96622 0.07048
vt 0.97052 0.07048
vt 0.96684 0.00997
vt 0.97098 0.00997
vt 0.96000 0.11745
vt 0.95783 0.11236
vt 0.96116 0.11236
vt 0.96183 0.11745
vt 0.95590 0.10249
vt 0.96017 0.10249
vt 0.96269 0.00997
vt 0.96320 0.07048
vt 0.95920 0.07048
vt 0.95500 0.07048
vt 0.96651 0.11236
vt 0.96869 0.11236
vt 0.96599 0.11745
vt 0.96479 0.11745
vt 0.96746 0.10249
vt 0.97061 0.10249
vt 0.97084 0.07048
# 37 texture vertices

vn -0.95134 0.29583 -0.08624
vn -0.61026 -0.00284 0.79219
vn -0.63946 0.28009 -0.71599
vn 0.00000 0.00222 -1.00000
vn -0.87156 0.03971 0.48868
vn -0.29322 0.06174 -0.95405
vn -0.99701 -0.00106 -0.07724
vn -0.76466 -0.00953 0.64436
vn -0.97462 0.00187 -0.22385
vn -0.12847 0.01462 -0.99161
vn -0.98959 0.13519 -0.04928
vn -0.68356 0.18879 -0.70506
vn 0.73881 0.19939 0.64374
vn 0.82448 0.06339 0.56233
vn 0.64767 0.28749 0.70560
vn 0.91942 0.01015 0.39316
vn -0.90298 0.24457 -0.35328
vn 0.97908 0.00420 0.20343
vn -0.94593 0.17408 -0.27371
vn -0.97043 -0.00737 0.24127
vn -0.98400 0.01755 -0.17730
vn -0.99658 -0.01497 0.08121
vn 0.96676 0.18309 0.17846
vn 0.99783 0.02671 0.06021
vn 0.92645 0.25081 0.28067
vn 0.99095 -0.01232 -0.13367
vn -0.75621 0.24934 -0.60496
vn 0.94534 -0.00685 -0.32603
vn -0.76393 0.20700 -0.61120
vn -0.82565 0.08344 -0.55798
vn 0.04904 0.44528 0.89405
vn -0.01798 0.34176 0.93961
vn 0.17372 0.09861 0.97985
vn 0.36074 0.01734 0.93251
vn 0.61716 0.01069 0.78677
vn 0.85312 0.40125 -0.33344
vn 0.80018 0.29662 -0.52128
vn 0.75476 0.06313 -0.65296
vn 0.61495 -0.00834 -0.78852
vn 0.36570 -0.00149 -0.93073
vn -0.44213 0.33431 0.83232
vn -0.41415 0.47510 0.77638
vn -0.35230 0.16732 0.92081
vn -0.13995 0.00264 0.99015
vn 0.00000 0.00357 0.99999
vn 0.41122 0.47477 -0.77813
vn 0.41397 0.27524 -0.86768
vn 0.35280 0.16368 -0.92127
vn 0.00000 1.00000 0.00000
vn 0.00000 1.00000 0.00000
vn -0.92814 0.01345 -0.37199
vn -0.95285 0.00989 -0.30329
# 52 normal vertices

f 31/3/31 32/2/32 15/1/15
f 32/2/32 13/4/13 15/1/15
f 33/5/33 13/4/13 32/2/32
f 14/6/14 13/4/13 33/5/33
f 14/6/14 33/5/33 34/7/34
f 16/8/16 14/6/14 34/7/34
f 16/8/16 34/7/34 35/9/35
f 35/9/35 18/10/18 16/8/16
f 36/13/36 25/12/25 23/11/23
f 24/15/24 37/14/37 23/11/23
f 26/17/26 38/16/38 24/15/24
f 28/19/28 39/18/39 26/17/26
f 28/19/28 40/20/40 39/18/39
f 38/16/38 26/17/26 39/18/39
f 37/14/37 24/15/24 38/16/38
f 36/13/36 23/11/23 37/14/37
f 19/23/19 11/22/11 1/21/1
f 17/24/17 19/23/19 1/21/1
f 21/26/21 5/25/5 11/22/11
f 19/23/19 21/26/21 11/22/11
f 22/29/22 9/28/9 7/27/7
f 20/10/20 22/29/22 7/27/7
f 8/30/8 22/29/22 20/10/20
f 2/9/2 8/30/8 20/10/20
f 22/29/22 8/30/8 5/25/5
f 21/26/21 22/29/22 5/25/5
f 9/28/9 22/29/22 21/26/21
f 3/33/3 12/32/12 29/31/29
f 27/34/27 3/33/3 29/31/29
f 12/32/12 6/36/6 30/35/30
f 29/31/29 12/32/12 30/35/30
f 6/36/6 10/37/10 30/35/30
f 1/21/42 11/22/41 32/2/32
f 31/3/31 1/21/42 32/2/32
f 5/25/43 33/5/33 32/2/32
f 11/22/41 5/25/5 32/2/32
f 8/30/44 34/7/34 33/5/33
f 5/25/5 8/30/8 33/5/33
f 2/9/45 35/9/35 34/7/34
f 8/30/8 2/9/2 34/7/34
f 37/14/37 12/32/47 3/33/46
f 36/13/36 37/14/37 3/33/46
f 38/16/38 6/36/48 12/32/47
f 37/14/37 38/16/38 12/32/47
f 39/18/39 10/37/10 6/36/6
f 38/16/38 39/18/39 6/36/6
f 40/20/40 4/20/4 10/37/10
f 39/18/39 40/20/40 10/37/10
f 27/34/49 17/24/49 15/1/49
f 15/1/49 25/12/49 27/34/49
f 36/13/49 3/33/49 27/34/49
f 36/13/49 27/34/49 25/12/49
f 15/1/49 17/24/49 1/21/49
f 1/21/49 31/3/50 15/1/49
f 29/31/29 17/24/17 27/34/27
f 19/23/19 17/24/17 29/31/29
f 30/35/30 21/26/21 19/23/19
f 30/35/30 19/23/19 29/31/29
f 10/37/51 21/26/21 30/35/30
f 9/28/9 21/26/21 10/37/51
f 9/28/9 10/37/51 4/20/52
f 4/20/52 7/27/7 9/28/9
f 13/4/13 25/12/25 15/1/15
f 13/4/13 23/11/23 25/12/25
f 14/6/14 23/11/23 13/4/13
f 24/15/24 23/11/23 14/6/14
f 24/15/24 14/6/14 16/8/16
f 26/17/26 24/15/24 16/8/16
f 26/17/26 16/8/16 18/10/18
f 18/10/18 28/19/28 26/17/26
# 70 elements

