# Created by Metasequoia

v 1.475100 0.202331 -9.460000
v 1.475100 0.695232 -9.744600
v 1.475100 0.202331 -10.029200
v 1.475100 -0.290568 -9.744600
v 1.475100 -0.290568 -9.175399
v 1.475100 0.202331 -8.890800
v 1.475100 0.695232 -9.175399
v 1.759700 0.695232 -9.744600
v 1.759700 0.202331 -10.029200
v 1.759700 -0.290568 -9.744600
v 1.759700 -0.290568 -9.175399
v 1.759700 0.202331 -8.890800
v 1.759700 0.695232 -9.175399
v 1.759700 0.202331 -9.460000
v 1.746300 0.700732 -9.523099
v 2.007300 2.396232 -9.523099
v 1.693400 0.708331 -9.828700
v 1.687500 0.548633 -9.828700
v 1.923700 2.396232 -9.828700
v 1.699100 0.707732 -9.173900
v 1.928500 2.396232 -9.173900
v 1.698300 0.566432 -9.173900
v 1.452000 2.688200 -9.531500
v 1.452000 2.688200 -9.372700
v 1.610700 2.688200 -9.531500
v 1.610700 2.688200 -9.372700
v 1.415700 0.064231 -9.531500
v 1.415700 0.064231 -9.372700
v 1.495100 0.064231 -9.531500
v 1.495100 0.064231 -9.372700
v 1.414100 0.818531 -9.531500
v 1.414100 0.818531 -9.372700
v 1.572800 0.818531 -9.531500
v 1.572800 0.818531 -9.372700
v 1.493500 0.818531 -9.531500
v 1.493500 0.818531 -9.372700
v 1.129238 0.202331 -9.460000
v 1.129238 0.695232 -9.744600
v 1.129238 0.202331 -10.029200
v 1.129238 -0.290568 -9.744600
v 1.129238 -0.290568 -9.175399
v 1.129238 0.202331 -8.890800
v 1.129238 0.695232 -9.175399
v 1.413839 0.695232 -9.744600
v 1.413839 0.202331 -10.029200
v 1.413839 -0.290568 -9.744600
v 1.413839 -0.290568 -9.175399
v 1.413839 0.202331 -8.890800
v 1.413839 0.695232 -9.175399
v 1.413839 0.202331 -9.460000
v -1.475100 0.202331 -9.460000
v -1.475100 0.695232 -9.744600
v -1.475100 0.202331 -10.029200
v -1.475100 -0.290568 -9.744600
v -1.475100 -0.290568 -9.175399
v -1.475100 0.202331 -8.890800
v -1.475100 0.695232 -9.175399
v -1.759700 0.695232 -9.744600
v -1.759700 0.202331 -10.029200
v -1.759700 -0.290568 -9.744600
v -1.759700 -0.290568 -9.175399
v -1.759700 0.202331 -8.890800
v -1.759700 0.695232 -9.175399
v -1.759700 0.202331 -9.460000
v -1.746300 0.700732 -9.523099
v -2.007300 2.396232 -9.523099
v -1.693400 0.708331 -9.828700
v -1.687500 0.548633 -9.828700
v -1.923700 2.396232 -9.828700
v -1.699100 0.707732 -9.173900
v -1.928500 2.396232 -9.173900
v -1.698300 0.566432 -9.173900
v -1.452000 2.688200 -9.531500
v -1.452000 2.688200 -9.372700
v -1.610700 2.688200 -9.531500
v -1.610700 2.688200 -9.372700
v -1.415700 0.064231 -9.531500
v -1.415700 0.064231 -9.372700
v -1.495100 0.064231 -9.531500
v -1.495100 0.064231 -9.372700
v -1.414100 0.818531 -9.531500
v -1.414100 0.818531 -9.372700
v -1.572800 0.818531 -9.531500
v -1.572800 0.818531 -9.372700
v -1.493500 0.818531 -9.531500
v -1.493500 0.818531 -9.372700
v -1.129238 0.202331 -9.460000
v -1.129238 0.695232 -9.744600
v -1.129238 0.202331 -10.029200
v -1.129238 -0.290568 -9.744600
v -1.129238 -0.290568 -9.175399
v -1.129238 0.202331 -8.890800
v -1.129238 0.695232 -9.175399
v -1.413839 0.695232 -9.744600
v -1.413839 0.202331 -10.029200
v -1.413839 -0.290568 -9.744600
v -1.413839 -0.290568 -9.175399
v -1.413839 0.202331 -8.890800
v -1.413839 0.695232 -9.175399
v -1.413839 0.202331 -9.460000
# 100 vertices

vt 0.53930 0.69190
vt 0.55206 0.71401
vt 0.56483 0.69190
vt 0.52653 0.71401
vt 0.51377 0.69190
vt 0.52653 0.66979
vt 0.55206 0.66979
vt 0.53930 0.63492
vt 0.56483 0.63492
vt 0.55206 0.61281
vt 0.52653 0.61281
vt 0.51377 0.63492
vt 0.52653 0.65703
vt 0.55206 0.65703
vt 0.11463 0.93337
vt 0.11510 0.91459
vt 0.12344 0.93341
vt 0.12335 0.89312
vt 0.11467 0.89312
vt 0.57759 0.71401
vt 0.59035 0.70664
vt 0.57759 0.68453
vt 0.52653 0.72677
vt 0.55206 0.72677
vt 0.50100 0.68453
vt 0.48824 0.70664
vt 0.50100 0.71401
vt 0.51377 0.66242
vt 0.56483 0.66242
vt 0.01229 0.93082
vt 0.01089 0.91459
vt 0.01089 0.89312
vt 0.02097 0.95349
vt 0.02097 0.93956
vt 0.01401 0.93956
vt 0.01401 0.95349
vt 0.24414 0.98133
vt 0.24414 0.96740
vt 0.08742 0.96740
vt 0.08742 0.98133
vt 0.24384 0.95349
vt 0.24384 0.93956
vt 0.08713 0.93956
vt 0.08713 0.95349
vt 0.02096 0.96045
vt 0.08711 0.96045
vt 0.02096 0.97438
vt 0.02097 0.98134
vt 0.08713 0.98134
vt 0.08711 0.97438
vt 0.24384 0.99524
vt 0.25776 0.99553
vt 0.25806 0.98162
vt 0.08713 0.99524
vt 0.14960 0.91301
vt 0.14265 0.91301
vt 0.14265 0.92694
vt 0.14960 0.92694
vt 0.12366 0.93325
vt 0.12305 0.89356
# 60 texture vertices

vn -1.00000 0.00000 0.00000
vn 1.00000 0.00000 0.00000
vn -0.99452 0.10263 0.01996
vn -0.98811 0.15211 0.02231
vn -0.98143 0.08487 0.17200
vn -0.98454 0.03637 0.17133
vn -0.96609 0.14017 0.21686
vn -0.98840 0.06964 -0.13499
vn -0.97410 0.14107 -0.17669
vn -0.99096 0.00561 -0.13406
vn -0.99979 0.02027 0.00000
vn 0.99979 -0.02027 0.00000
vn 0.00000 -1.00000 0.00000
vn -0.99999 0.00534 0.00000
vn -0.99992 0.01280 0.00000
vn 0.00000 0.00000 -1.00000
vn 0.00000 0.00000 1.00000
vn 0.99452 0.10263 0.01996
vn 0.98811 0.15211 0.02231
vn 0.98143 0.08487 0.17200
vn 0.98454 0.03637 0.17133
vn 0.96609 0.14017 0.21686
vn 0.98840 0.06964 -0.13499
vn 0.97410 0.14107 -0.17669
vn 0.99096 0.00561 -0.13406
vn 0.99979 0.02027 0.00000
vn -0.99979 -0.02027 -0.00000
vn 0.99999 0.00534 0.00000
vn 0.99992 0.01280 0.00000
vn 0.00000 0.50003 -0.86601
vn 0.00000 0.50003 -0.86601
vn 0.00000 -0.50003 -0.86601
vn 0.00000 -0.50003 0.86601
vn 0.00000 -0.50003 0.86601
vn 0.00000 0.50003 0.86601
vn 0.00000 1.00000 0.00000
vn -1.00000 -0.00212 0.00000
vn 1.00000 0.00212 0.00000
vn 0.99452 -0.10263 -0.01996
vn 0.98811 -0.15211 -0.02231
vn 0.96609 -0.14017 -0.21686
vn 0.98143 -0.08487 -0.17200
vn 0.98454 -0.03637 -0.17133
vn 0.97410 -0.14107 0.17669
vn 0.98840 -0.06964 0.13499
vn 0.99096 -0.00561 0.13406
vn 0.00000 0.50003 -0.86601
vn 0.00000 -0.50003 -0.86601
vn -0.00000 -0.50003 -0.86601
vn 1.00000 -0.00212 0.00000
vn -1.00000 0.00212 0.00000
vn -0.96609 -0.14017 -0.21686
vn -0.98811 -0.15211 -0.02231
vn -0.99452 -0.10263 -0.01996
vn -0.98454 -0.03637 -0.17133
vn -0.98143 -0.08487 -0.17200
vn -0.97410 -0.14107 0.17669
vn -0.98840 -0.06964 0.13499
vn -0.99096 -0.00561 0.13406
# 59 normal vertices

f 2/3/1 3/2/1 1/1/1
f 3/2/1 4/4/1 1/1/1
f 4/4/1 5/5/1 1/1/1
f 5/5/1 6/6/1 1/1/1
f 6/6/1 7/7/1 1/1/1
f 7/7/1 2/3/1 1/1/1
f 9/10/2 8/9/2 14/8/2
f 10/11/2 9/10/2 14/8/2
f 11/12/2 10/11/2 14/8/2
f 12/13/2 11/12/2 14/8/2
f 13/14/2 12/13/2 14/8/2
f 8/9/2 13/14/2 14/8/2
f 18/17/6 15/16/3 17/15/5
f 20/19/8 15/16/3 22/18/10
f 8/22/30 9/21/31 3/20/30
f 2/3/31 8/22/30 3/20/30
f 9/24/32 10/23/32 4/4/32
f 3/2/32 9/24/32 4/4/32
f 10/26/13 11/25/13 5/5/13
f 4/27/13 10/26/13 5/5/13
f 11/25/33 12/28/34 6/6/33
f 5/5/34 11/25/33 6/6/33
f 12/13/35 13/14/35 7/7/35
f 6/6/35 12/13/35 7/7/35
f 13/29/36 8/22/36 2/3/36
f 7/7/36 13/29/36 2/3/36
f 15/16/3 16/31/4 19/30/7
f 15/16/3 19/30/7 17/15/5
f 21/32/9 16/31/4 15/16/3
f 21/32/9 15/16/3 20/19/8
f 30/35/13 28/34/13 27/33/13
f 29/36/13 30/35/13 27/33/13
f 33/39/12 25/38/12 26/37/12
f 34/40/12 33/39/12 26/37/12
f 32/43/15 24/42/11 23/41/11
f 31/44/14 32/43/15 23/41/11
f 31/44/14 27/33/37 28/34/37
f 32/43/15 31/44/14 28/34/37
f 35/46/16 29/45/16 27/33/16
f 31/44/16 35/46/16 27/33/16
f 32/49/17 28/48/17 30/47/17
f 36/50/17 32/49/17 30/47/17
f 23/52/36 24/51/36 26/37/36
f 25/53/36 23/52/36 26/37/36
f 33/39/16 31/44/16 23/41/16
f 25/38/16 33/39/16 23/41/16
f 32/54/17 34/40/17 26/37/17
f 24/51/17 32/54/17 26/37/17
f 33/57/13 34/56/13 36/55/13
f 35/58/13 33/57/13 36/55/13
f 35/46/38 36/50/38 30/47/38
f 29/45/38 35/46/38 30/47/38
f 19/30/41 16/31/40 15/16/39
f 15/16/39 18/59/43 17/15/42
f 19/30/41 15/16/39 17/15/42
f 16/31/40 21/32/44 15/16/39
f 21/32/44 20/19/45 15/16/39
f 15/16/39 20/19/45 22/60/46
f 38/3/1 39/2/1 37/1/1
f 39/2/1 40/4/1 37/1/1
f 40/4/1 41/5/1 37/1/1
f 41/5/1 42/6/1 37/1/1
f 42/6/1 43/7/1 37/1/1
f 43/7/1 38/3/1 37/1/1
f 45/10/2 44/9/2 50/8/2
f 46/11/2 45/10/2 50/8/2
f 47/12/2 46/11/2 50/8/2
f 48/13/2 47/12/2 50/8/2
f 49/14/2 48/13/2 50/8/2
f 44/9/2 49/14/2 50/8/2
f 44/22/47 45/21/47 39/20/47
f 38/3/47 44/22/47 39/20/47
f 45/24/48 46/23/49 40/4/48
f 39/2/49 45/24/48 40/4/48
f 46/26/13 47/25/13 41/5/13
f 40/27/13 46/26/13 41/5/13
f 47/25/33 48/28/34 42/6/33
f 41/5/34 47/25/33 42/6/33
f 48/13/35 49/14/35 43/7/35
f 42/6/35 48/13/35 43/7/35
f 49/29/36 44/22/36 38/3/36
f 43/7/36 49/29/36 38/3/36
f 51/1/2 53/2/2 52/3/2
f 51/1/2 54/4/2 53/2/2
f 51/1/2 55/5/2 54/4/2
f 51/1/2 56/6/2 55/5/2
f 51/1/2 57/7/2 56/6/2
f 51/1/2 52/3/2 57/7/2
f 64/8/1 58/9/1 59/10/1
f 64/8/1 59/10/1 60/11/1
f 64/8/1 60/11/1 61/12/1
f 64/8/1 61/12/1 62/13/1
f 64/8/1 62/13/1 63/14/1
f 64/8/1 63/14/1 58/9/1
f 67/15/20 65/16/18 68/17/21
f 72/18/25 65/16/18 70/19/23
f 53/20/30 59/21/31 58/22/30
f 53/20/30 58/22/30 52/3/31
f 54/4/32 60/23/32 59/24/32
f 54/4/32 59/24/32 53/2/32
f 55/5/13 61/25/13 60/26/13
f 55/5/13 60/26/13 54/27/13
f 56/6/33 62/28/34 61/25/33
f 56/6/33 61/25/33 55/5/34
f 57/7/35 63/14/35 62/13/35
f 57/7/35 62/13/35 56/6/35
f 52/3/36 58/22/36 63/29/36
f 52/3/36 63/29/36 57/7/36
f 69/30/22 66/31/19 65/16/18
f 67/15/20 69/30/22 65/16/18
f 65/16/18 66/31/19 71/32/24
f 70/19/23 65/16/18 71/32/24
f 77/33/13 78/34/13 80/35/13
f 77/33/13 80/35/13 79/36/13
f 76/37/27 75/38/27 83/39/27
f 76/37/27 83/39/27 84/40/27
f 73/41/26 74/42/26 82/43/29
f 73/41/26 82/43/29 81/44/28
f 78/34/50 77/33/50 81/44/28
f 78/34/50 81/44/28 82/43/29
f 77/33/16 79/45/16 85/46/16
f 77/33/16 85/46/16 81/44/16
f 80/47/17 78/48/17 82/49/17
f 80/47/17 82/49/17 86/50/17
f 76/37/36 74/51/36 73/52/36
f 76/37/36 73/52/36 75/53/36
f 73/41/16 81/44/16 83/39/16
f 73/41/16 83/39/16 75/38/16
f 76/37/17 84/40/17 82/54/17
f 76/37/17 82/54/17 74/51/17
f 86/55/13 84/56/13 83/57/13
f 86/55/13 83/57/13 85/58/13
f 80/47/51 86/50/51 85/46/51
f 80/47/51 85/46/51 79/45/51
f 65/16/54 66/31/53 69/30/52
f 67/15/56 68/59/55 65/16/54
f 67/15/56 65/16/54 69/30/52
f 65/16/54 71/32/57 66/31/53
f 65/16/54 70/19/58 71/32/57
f 72/60/59 70/19/58 65/16/54
f 87/1/2 89/2/2 88/3/2
f 87/1/2 90/4/2 89/2/2
f 87/1/2 91/5/2 90/4/2
f 87/1/2 92/6/2 91/5/2
f 87/1/2 93/7/2 92/6/2
f 87/1/2 88/3/2 93/7/2
f 100/8/1 94/9/1 95/10/1
f 100/8/1 95/10/1 96/11/1
f 100/8/1 96/11/1 97/12/1
f 100/8/1 97/12/1 98/13/1
f 100/8/1 98/13/1 99/14/1
f 100/8/1 99/14/1 94/9/1
f 89/20/47 95/21/47 94/22/47
f 89/20/47 94/22/47 88/3/47
f 90/4/48 96/23/49 95/24/48
f 90/4/48 95/24/48 89/2/49
f 91/5/13 97/25/13 96/26/13
f 91/5/13 96/26/13 90/27/13
f 92/6/33 98/28/34 97/25/33
f 92/6/33 97/25/33 91/5/34
f 93/7/35 99/14/35 98/13/35
f 93/7/35 98/13/35 92/6/35
f 88/3/36 94/22/36 99/29/36
f 88/3/36 99/29/36 93/7/36
# 164 elements

