# Created by 3DAce v2.72


g
v -2.444862 0.192564 -0.041882
v -2.110345 0.192564 1.206461
v -1.196518 0.192564 2.120287
v 0.051747 0.192564 2.454767
v 1.300090 0.192564 2.120287
v 2.213917 0.192564 1.206461
v 2.548352 0.192564 -0.041882
v 2.213917 0.192564 -1.290148
v 1.300090 0.192564 -2.203972
v 0.051747 0.192564 -2.538485
v -1.196518 0.192564 -2.203972
v -2.110345 0.192564 -1.290148
v -2.444862 -0.047231 -0.041882
v -2.110345 -0.047231 1.206461
v -1.196518 -0.047231 2.120287
v 0.051747 -0.047231 2.454767
v 1.300090 -0.047231 2.120287
v 2.213917 -0.047231 1.206461
v 2.548352 -0.047231 -0.041882
v 2.213917 -0.047231 -1.290148
v 1.300090 -0.047231 -2.203972
v 0.051747 -0.047231 -2.538485
v -1.196518 -0.047231 -2.203972
v -2.110345 -0.047231 -1.290148
# 24 vertices

vt 0.559570 0.751590
vt 0.559570 0.871440
vt 0.618890 0.871440
vt 0.559570 0.751590
vt 0.618890 0.751590
vt 0.559570 0.751590
vt 0.618890 0.871440
vt 0.618890 0.751590
vt 0.559570 0.871440
vt 0.559570 0.959190
vt 0.618890 0.959190
vt 0.559570 0.871440
vt 0.618890 0.871440
vt 0.559570 0.871440
vt 0.618890 0.959190
vt 0.618890 0.871440
vt 0.559570 0.959190
vt 0.559570 0.991300
vt 0.618890 0.991300
vt 0.559570 0.959190
vt 0.618890 0.959190
vt 0.559570 0.959190
vt 0.618890 0.991300
vt 0.618890 0.959190
vt 0.559570 0.991300
vt 0.559570 0.959190
vt 0.618890 0.959190
vt 0.559570 0.991300
vt 0.618890 0.991300
vt 0.559570 0.991300
vt 0.618890 0.959190
vt 0.618890 0.991300
vt 0.559570 0.959190
vt 0.559570 0.871440
vt 0.618890 0.871440
vt 0.559570 0.959190
vt 0.618890 0.959190
vt 0.559570 0.959190
vt 0.618890 0.871440
vt 0.618890 0.959190
vt 0.559570 0.871440
vt 0.559570 0.751590
vt 0.618890 0.751590
vt 0.559570 0.871440
vt 0.618890 0.871440
vt 0.559570 0.871440
vt 0.618890 0.751590
vt 0.618890 0.871440
vt 0.559570 0.751590
vt 0.559570 0.631730
vt 0.618890 0.631730
vt 0.559570 0.751590
vt 0.618890 0.751590
vt 0.559570 0.751590
vt 0.618890 0.631730
vt 0.618890 0.751590
vt 0.559570 0.631730
vt 0.559570 0.543990
vt 0.618890 0.543990
vt 0.559570 0.631730
vt 0.618890 0.631730
vt 0.559570 0.631730
vt 0.618890 0.543990
vt 0.618890 0.631730
vt 0.559570 0.543990
vt 0.559570 0.511880
vt 0.618890 0.511880
vt 0.559570 0.543990
vt 0.618890 0.543990
vt 0.559570 0.543990
vt 0.618890 0.511880
vt 0.618890 0.543990
vt 0.559570 0.511880
vt 0.559570 0.543990
vt 0.618890 0.543990
vt 0.559570 0.511880
vt 0.618890 0.511880
vt 0.559570 0.511880
vt 0.618890 0.543990
vt 0.618890 0.511880
vt 0.559570 0.543990
vt 0.559570 0.631730
vt 0.618890 0.631730
vt 0.559570 0.543990
vt 0.618890 0.543990
vt 0.559570 0.543990
vt 0.618890 0.631730
vt 0.618890 0.543990
vt 0.559570 0.631730
vt 0.559570 0.751590
vt 0.618890 0.751590
vt 0.559570 0.631730
vt 0.618890 0.631730
vt 0.559570 0.631730
vt 0.618890 0.751590
vt 0.618890 0.631730
vt 0.882610 0.893760
vt 0.807690 0.913840
vt 0.732790 0.893760
vt 0.882610 0.893760
vt 0.677950 0.838920
vt 0.882610 0.893760
vt 0.732790 0.893760
vt 0.677950 0.838920
vt 0.657880 0.764020
vt 0.937440 0.838920
vt 0.882610 0.893760
vt 0.657880 0.764020
vt 0.677950 0.838920
vt 0.657880 0.764020
vt 0.882610 0.893760
vt 0.677950 0.838920
vt 0.677950 0.689100
vt 0.957510 0.764020
vt 0.937440 0.838920
vt 0.677950 0.689100
vt 0.657880 0.764020
vt 0.677950 0.689100
vt 0.937440 0.838920
vt 0.657880 0.764020
vt 0.677950 0.689100
vt 0.732790 0.634270
vt 0.937440 0.689100
vt 0.677950 0.689100
vt 0.957510 0.764020
vt 0.677950 0.689100
vt 0.937440 0.689100
vt 0.957510 0.764020
vt 0.732790 0.634270
vt 0.807690 0.614200
vt 0.882610 0.634270
vt 0.732790 0.634270
vt 0.937440 0.689100
vt 0.732790 0.634270
vt 0.882610 0.634270
vt 0.937440 0.689100
vt 0.732790 0.893760
vt 0.807690 0.913840
vt 0.882610 0.893760
vt 0.732790 0.893760
vt 0.882610 0.893760
vt 0.677950 0.838920
vt 0.732790 0.893760
vt 0.882610 0.893760
vt 0.882610 0.893760
vt 0.657880 0.764020
vt 0.677950 0.838920
vt 0.882610 0.893760
vt 0.882610 0.893760
vt 0.937440 0.838920
vt 0.657880 0.764020
vt 0.882610 0.893760
vt 0.937440 0.838920
vt 0.677950 0.689100
vt 0.657880 0.764020
vt 0.937440 0.838920
vt 0.937440 0.838920
vt 0.957510 0.764020
vt 0.677950 0.689100
vt 0.937440 0.838920
vt 0.937440 0.689100
vt 0.732790 0.634270
vt 0.677950 0.689100
vt 0.937440 0.689100
vt 0.677950 0.689100
vt 0.957510 0.764020
vt 0.937440 0.689100
vt 0.677950 0.689100
vt 0.937440 0.689100
vt 0.882610 0.634270
vt 0.732790 0.634270
vt 0.937440 0.689100
vt 0.882610 0.634270
vt 0.807690 0.614200
vt 0.732790 0.634270
vt 0.882610 0.634270
# 176 texture vertices

vn -0.996035 0.000000 0.088964
vn -0.818107 0.000000 0.575066
vn -0.907067 0.000000 0.420985
vn -0.996035 0.000000 0.088964
vn -0.996033 0.000000 -0.088979
vn -0.996035 0.000000 0.088964
vn -0.907067 0.000000 0.420985
vn -0.996033 0.000000 -0.088979
vn -0.818107 0.000000 0.575066
vn -0.420978 0.000000 0.907071
vn -0.575063 0.000000 0.818110
vn -0.818107 0.000000 0.575066
vn -0.907067 0.000000 0.420985
vn -0.818107 0.000000 0.575066
vn -0.575063 0.000000 0.818110
vn -0.907067 0.000000 0.420985
vn -0.420978 0.000000 0.907071
vn 0.088954 0.000000 0.996036
vn -0.088970 0.000000 0.996034
vn -0.420978 0.000000 0.907071
vn -0.575063 0.000000 0.818110
vn -0.420978 0.000000 0.907071
vn -0.088970 0.000000 0.996034
vn -0.575063 0.000000 0.818110
vn 0.088954 0.000000 0.996036
vn 0.575058 0.000000 0.818112
vn 0.420968 0.000000 0.907076
vn 0.088954 0.000000 0.996036
vn -0.088970 0.000000 0.996034
vn 0.088954 0.000000 0.996036
vn 0.420968 0.000000 0.907076
vn -0.088970 0.000000 0.996034
vn 0.575058 0.000000 0.818112
vn 0.907085 0.000000 0.420948
vn 0.818118 0.000000 0.575050
vn 0.575058 0.000000 0.818112
vn 0.420968 0.000000 0.907076
vn 0.575058 0.000000 0.818112
vn 0.818118 0.000000 0.575050
vn 0.420968 0.000000 0.907076
vn 0.907085 0.000000 0.420948
vn 0.996035 0.000000 -0.088958
vn 0.996037 0.000000 0.088942
vn 0.907085 0.000000 0.420948
vn 0.818118 0.000000 0.575050
vn 0.907085 0.000000 0.420948
vn 0.996037 0.000000 0.088942
vn 0.818118 0.000000 0.575050
vn 0.996035 0.000000 -0.088958
vn 0.818115 0.000000 -0.575055
vn 0.907080 0.000000 -0.420958
vn 0.996035 0.000000 -0.088958
vn 0.996037 0.000000 0.088942
vn 0.996035 0.000000 -0.088958
vn 0.907080 0.000000 -0.420958
vn 0.996037 0.000000 0.088942
vn 0.818115 0.000000 -0.575055
vn 0.420983 0.000000 -0.907069
vn 0.575064 0.000000 -0.818108
vn 0.818115 0.000000 -0.575055
vn 0.907080 0.000000 -0.420958
vn 0.818115 0.000000 -0.575055
vn 0.575064 0.000000 -0.818108
vn 0.907080 0.000000 -0.420958
vn 0.420983 0.000000 -0.907069
vn -0.088978 0.000000 -0.996034
vn 0.088963 0.000000 -0.996035
vn 0.420983 0.000000 -0.907069
vn 0.575064 0.000000 -0.818108
vn 0.420983 0.000000 -0.907069
vn 0.088963 0.000000 -0.996035
vn 0.575064 0.000000 -0.818108
vn -0.088978 0.000000 -0.996034
vn -0.575068 0.000000 -0.818105
vn -0.420992 0.000000 -0.907064
vn -0.088978 0.000000 -0.996034
vn 0.088963 0.000000 -0.996035
vn -0.088978 0.000000 -0.996034
vn -0.420992 0.000000 -0.907064
vn 0.088963 0.000000 -0.996035
vn -0.575068 0.000000 -0.818105
vn -0.907063 0.000000 -0.420995
vn -0.818104 0.000000 -0.575071
vn -0.575068 0.000000 -0.818105
vn -0.420992 0.000000 -0.907064
vn -0.575068 0.000000 -0.818105
vn -0.818104 0.000000 -0.575071
vn -0.420992 0.000000 -0.907064
vn -0.907063 0.000000 -0.420995
vn -0.996035 0.000000 0.088964
vn -0.996033 0.000000 -0.088979
vn -0.907063 0.000000 -0.420995
vn -0.818104 0.000000 -0.575071
vn -0.907063 0.000000 -0.420995
vn -0.996033 0.000000 -0.088979
vn -0.818104 0.000000 -0.575071
vn 0.000000 1.000000 0.000000
vn -0.000000 1.000000 0.000000
vn 0.000000 1.000000 0.000000
vn 0.000000 1.000000 0.000000
vn 0.000000 1.000000 0.000000
vn 0.000000 1.000000 0.000000
vn 0.000000 1.000000 0.000000
vn 0.000000 1.000000 0.000000
vn 0.000000 1.000000 0.000000
vn 0.000000 1.000000 0.000000
vn 0.000000 1.000000 0.000000
vn 0.000000 1.000000 0.000000
vn 0.000000 1.000000 0.000000
vn 0.000000 1.000000 0.000000
vn 0.000000 1.000000 0.000000
vn 0.000000 1.000000 0.000000
vn 0.000000 1.000000 0.000000
vn 0.000000 1.000000 0.000000
vn 0.000000 1.000000 0.000000
vn 0.000000 1.000000 0.000000
vn 0.000000 1.000000 0.000000
vn 0.000000 1.000000 0.000000
vn 0.000000 1.000000 0.000000
vn 0.000000 1.000000 0.000000
vn 0.000000 1.000000 0.000000
vn 0.000000 1.000000 0.000000
vn 0.000000 1.000000 0.000000
vn 0.000000 1.000000 0.000000
vn 0.000000 1.000000 0.000000
vn 0.000000 1.000000 0.000000
vn 0.000000 1.000000 0.000000
vn 0.000000 1.000000 0.000000
vn 0.000000 1.000000 0.000000
vn 0.000000 1.000000 0.000000
vn 0.000000 1.000000 0.000000
vn 0.000000 1.000000 0.000000
vn 0.000000 1.000000 0.000000
vn 0.000000 1.000000 0.000000
vn 0.000000 1.000000 0.000000
vn 0.000000 1.000000 0.000000
vn 0.000000 -1.000000 0.000000
vn -0.000000 -1.000000 0.000000
vn 0.000000 -1.000000 0.000000
vn 0.000000 -1.000000 0.000000
vn 0.000000 -1.000000 0.000000
vn 0.000000 -1.000000 0.000000
vn 0.000000 -1.000000 0.000000
vn 0.000000 -1.000000 0.000000
vn 0.000000 -1.000000 0.000000
vn 0.000000 -1.000000 0.000000
vn 0.000000 -1.000000 0.000000
vn 0.000000 -1.000000 0.000000
vn 0.000000 -1.000000 0.000000
vn 0.000000 -1.000000 0.000000
vn 0.000000 -1.000000 0.000000
vn 0.000000 -1.000000 0.000000
vn 0.000000 -1.000000 0.000000
vn 0.000000 -1.000000 0.000000
vn 0.000000 -1.000000 0.000000
vn 0.000000 -1.000000 0.000000
vn 0.000000 -1.000000 0.000000
vn 0.000000 -1.000000 -0.000000
vn 0.000000 -1.000000 0.000000
vn 0.000000 -1.000000 0.000000
vn 0.000000 -1.000000 0.000000
vn 0.000000 -1.000000 0.000000
vn 0.000000 -1.000000 0.000000
vn 0.000000 -1.000000 0.000000
vn 0.000000 -1.000000 0.000000
vn 0.000000 -1.000000 -0.000000
vn 0.000000 -1.000000 0.000000
vn 0.000000 -1.000000 0.000000
vn 0.000000 -1.000000 0.000000
vn 0.000000 -1.000000 0.000000
vn 0.000000 -1.000000 0.000000
vn 0.000000 -1.000000 0.000000
vn 0.000000 -1.000000 0.000000
vn 0.000000 -1.000000 0.000000
vn 0.000000 -1.000000 0.000000
vn 0.000000 -1.000000 0.000000
# 176 vertex normals

g mat1
f 13/1/1 14/2/2 2/3/3
f 1/5/5 13/6/6 2/7/7
f 14/9/9 15/10/10 3/11/11
f 2/13/13 14/14/14 3/15/15
f 15/17/17 16/18/18 4/19/19
f 3/21/21 15/22/22 4/23/23
f 16/25/25 17/26/26 5/27/27
f 4/29/29 16/30/30 5/31/31
f 17/33/33 18/34/34 6/35/35
f 5/37/37 17/38/38 6/39/39
f 18/41/41 19/42/42 7/43/43
f 6/45/45 18/46/46 7/47/47
f 19/49/49 20/50/50 8/51/51
f 7/53/53 19/54/54 8/55/55
f 20/57/57 21/58/58 9/59/59
f 8/61/61 20/62/62 9/63/63
f 21/65/65 22/66/66 10/67/67
f 9/69/69 21/70/70 10/71/71
f 22/73/73 23/74/74 11/75/75
f 10/77/77 22/78/78 11/79/79
f 23/81/81 24/82/82 12/83/83
f 11/85/85 23/86/86 12/87/87
f 24/89/89 13/90/90 1/91/91
f 12/93/93 24/94/94 1/95/95
f 9/97/97 10/98/98 11/99/99
f 12/101/101 9/102/102 11/103/103
f 1/105/105 8/106/106 9/107/107
f 12/109/109 1/110/110 9/111/111
f 2/113/113 7/114/114 8/115/115
f 1/117/117 2/118/118 8/119/119
f 2/121/121 3/122/122 6/123/123
f 7/125/125 2/126/126 6/127/127
f 3/129/129 4/130/130 5/131/131
f 6/133/133 3/134/134 5/135/135
f 23/137/137 22/138/138 21/139/139
f 21/141/141 24/142/142 23/143/143
f 21/145/145 13/146/146 24/147/147
f 21/149/149 20/150/150 13/151/151
f 20/153/153 14/154/154 13/155/155
f 20/157/157 19/158/158 14/159/159
f 18/161/161 15/162/162 14/163/163
f 14/165/165 19/166/166 18/167/167
f 18/169/169 17/170/170 15/171/171
f 17/173/173 16/174/174 15/175/175
# 44 elements

