# Created by Metasequoia

v -4.449207 -0.380747 0.886257
v -4.449207 -0.306884 -3.640897
v -1.194065 -0.190016 -6.060558
v -1.194065 -0.324026 2.413341
v 1.641984 -0.315647 2.413341
v -1.194065 -0.190016 -6.060558
v 1.641984 -0.171644 -6.060558
v 2.006559 -0.249741 0.341109
v 4.421059 -0.047241 -4.107569
v 4.449123 -0.277762 0.348009
v 2.006559 2.121542 -0.889422
v 2.718905 1.687506 -0.224103
v 2.718905 0.822270 0.220769
v 2.718905 -0.249741 0.341109
v 3.185830 1.687506 -0.224103
v 3.185830 0.822270 0.220769
v 3.185830 2.109309 -0.889422
v 3.185830 -0.263196 0.341109
v 2.523263 1.687506 -0.224103
v 2.523263 0.822270 0.220769
v 2.523263 -0.249741 0.342541
v 2.006559 1.932079 -0.415555
v 2.523263 1.932079 -0.415555
v 2.718905 1.932079 -0.415555
v 3.185830 1.932079 -0.415555
v 3.185830 0.464129 0.273553
v 2.718905 0.464129 0.273553
v 2.523263 0.464129 0.273553
v 2.006559 0.464129 0.273553
v 2.006559 1.835571 -0.471089
v 2.523263 1.835571 -0.471089
v 2.718905 1.835571 -0.471089
v 3.185830 1.835571 -0.471089
v 3.185830 0.505907 0.157742
v 2.718905 0.505907 0.157742
v 2.523263 0.505907 0.157742
v 2.006559 0.505907 0.157742
v 1.684567 2.850692 -1.995761
v 1.641984 2.529081 -0.020291
v 1.641984 2.561335 -5.138394
v 1.641984 2.781865 -3.276198
v -1.194065 2.850692 -1.995761
v -1.194065 2.529081 -0.020291
v -1.194065 1.606954 1.378621
v -1.194065 0.226835 2.089486
v -1.194065 2.561335 -5.138394
v -1.194065 2.781865 -3.276198
v -4.449207 1.791676 -1.327098
v -4.449207 1.664098 -0.480021
v -4.449207 1.184348 0.237997
v -4.449207 0.466245 0.717790
v -4.449207 1.534277 -2.998563
v -4.449207 1.710152 -2.487152
v 3.666383 2.228675 -2.201264
v 3.721454 2.093521 -1.349785
v 3.823380 1.822492 -0.624022
v 4.168021 0.657612 0.084260
v 3.725941 2.102028 -3.980839
v 3.666086 2.228675 -2.792509
v 1.997035 2.243829 -1.785006
v 2.006559 1.687506 -0.224103
v 2.006559 0.822270 0.220769
v 1.641984 1.606954 1.378621
v 1.641984 0.226835 2.089486
v 1.641984 -0.190016 -6.060558
v -1.194065 -0.324015 2.413341
v -0.001503 1.606954 1.378621
v -0.001503 0.226835 2.089486
v -0.001503 2.529081 -0.020291
v -0.001503 -0.319329 2.413341
v 0.016444 2.850692 -1.995761
v 0.382459 1.606954 1.378621
v 0.382459 0.226835 2.089486
v 0.382459 2.529081 -0.020291
v 0.382459 -0.319329 2.413341
v 0.406120 2.850692 -1.995761
v 1.074825 1.606954 1.378621
v 1.074825 0.226835 2.089486
v 1.074825 2.529081 -0.020291
v 1.074825 -0.319329 2.413341
v 1.108941 2.850692 -1.995761
v -0.725574 1.606954 1.378621
v -0.725574 0.226835 2.089486
v -0.725574 2.529081 -0.020291
v -0.725574 -0.322598 2.413341
v -0.718547 2.850692 -1.995761
v -0.001503 1.510658 1.271404
v -0.001503 0.158602 1.957039
v -0.001503 2.393374 -0.073287
v 0.016444 2.703600 -2.019718
v 0.382459 1.510658 1.271404
v 0.382459 0.158602 1.957039
v 0.382459 2.393374 -0.073287
v 0.406120 2.703600 -2.019718
v 1.074825 1.510658 1.271404
v 1.074825 0.158602 1.957039
v 1.074825 2.393374 -0.073287
v 1.108941 2.703600 -2.019718
v -0.725574 1.510658 1.271404
v -0.725574 0.158602 1.957039
v -0.725574 2.393374 -0.073287
v -0.718547 2.703600 -2.019718
v -0.001503 1.510953 1.271404
v -0.001503 0.158898 1.957039
v -0.001503 2.393672 -0.073287
v 0.016444 2.703896 -2.019718
v 0.382459 1.510953 1.271404
v 0.382459 0.158898 1.957039
v 0.382459 2.393672 -0.073287
v 0.406120 2.703896 -2.019718
v 1.074825 1.510953 1.271404
v 1.074825 0.158898 1.957039
v 1.074825 2.393672 -0.073287
v 1.108941 2.703896 -2.019718
v -0.725574 1.510953 1.271404
v -0.725574 0.158898 1.957039
v -0.725574 2.393672 -0.073287
v -0.718547 2.703896 -2.019718
# 118 vertices

vt 0.95792 0.35925
vt 0.86368 0.35925
vt 0.81331 0.42701
vt 0.06281 0.59429
vt 0.00182 0.63963
vt 0.00182 0.72445
vt 0.81331 0.43386
vt 0.98971 0.43386
vt 0.95792 0.36610
vt 0.00232 0.72832
vt 0.06331 0.75693
vt 0.06331 0.59816
vt 0.06519 0.75789
vt 0.12025 0.75789
vt 0.06711 0.59911
vt 0.81331 0.43863
vt 0.98971 0.49767
vt 0.98971 0.43863
vt 0.81331 0.44342
vt 0.81331 0.50245
vt 0.98971 0.50245
vt 0.12076 0.75602
vt 0.12076 0.59724
vt 0.06762 0.59724
vt 0.12380 0.75602
vt 0.13063 0.71719
vt 0.12380 0.59724
vt 0.81447 0.50829
vt 0.94774 0.51588
vt 0.99087 0.50829
vt 0.81331 0.51684
vt 0.85397 0.57469
vt 0.94672 0.57528
vt 0.18330 0.71775
vt 0.18277 0.63427
vt 0.13070 0.59768
vt 0.94634 0.57139
vt 0.94619 0.52055
vt 0.81293 0.51296
vt 0.12788 0.59955
vt 0.13471 0.71950
vt 0.18047 0.71963
vt 0.02102 0.30233
vt 0.01581 0.30468
vt 0.05180 0.37130
vt 0.04731 0.37460
vt 0.14535 0.39093
vt 0.14332 0.39613
vt 0.21901 0.40845
vt 0.21993 0.40282
vt 0.90040 0.73741
vt 0.87988 0.75505
vt 0.88199 0.78767
vt 0.90445 0.92082
vt 0.87710 0.92082
vt 0.87710 0.93871
vt 0.90445 0.93871
vt 0.90445 0.91332
vt 0.87710 0.91332
vt 0.91817 0.92082
vt 0.91817 0.91332
vt 0.90445 0.89353
vt 0.87710 0.89353
vt 0.68616 0.38875
vt 0.67404 0.38875
vt 0.67404 0.43763
vt 0.68616 0.43763
vt 0.59678 0.43536
vt 0.60891 0.43536
vt 0.60891 0.38127
vt 0.59678 0.38127
vt 0.33723 0.42323
vt 0.21251 0.44084
vt 0.21251 0.47330
vt 0.33723 0.49892
vt 0.33723 0.36963
vt 0.21251 0.41333
vt 0.33724 0.36963
vt 0.33724 0.31675
vt 0.21251 0.32592
vt 0.21251 0.35343
vt 0.33724 0.29564
vt 0.21251 0.29347
vt 0.33723 0.54798
vt 0.21251 0.51775
vt 0.21251 0.53735
vt 0.33723 0.61934
vt 0.76453 0.95100
vt 0.86924 0.95100
vt 0.85165 0.87115
vt 0.76929 0.84451
vt 0.87936 0.85859
vt 0.95921 0.90294
vt 0.95921 0.83159
vt 0.88166 0.81306
vt 0.95758 0.78253
vt 0.88165 0.79040
vt 0.45863 0.48131
vt 0.48188 0.47323
vt 0.48657 0.43891
vt 0.47095 0.40561
vt 0.94595 0.77172
vt 0.94559 0.73741
vt 0.87597 0.72724
vt 0.90040 0.71925
vt 0.95132 0.93871
vt 0.91817 0.93871
vt 0.91186 0.97634
vt 0.95650 0.96314
vt 0.87602 0.98712
vt 0.92579 0.71925
vt 0.91829 0.71925
vt 0.42400 0.32290
vt 0.42400 0.31783
vt 0.39747 0.31783
vt 0.39747 0.32290
vt 0.09383 0.35711
vt 0.39877 0.49295
vt 0.39877 0.49859
vt 0.42570 0.49859
vt 0.42570 0.49295
vt 0.38295 0.32232
vt 0.38295 0.31725
vt 0.35521 0.31725
vt 0.35521 0.32232
vt 0.50320 0.41342
vt 0.49383 0.42076
vt 0.53635 0.39638
vt 0.50628 0.35201
vt 0.55917 0.32477
vt 0.57743 0.39176
vt 0.57995 0.31236
vt 0.55007 0.39435
vt 0.39764 0.36963
vt 0.39764 0.31675
vt 0.38293 0.31675
vt 0.38293 0.36963
vt 0.38293 0.42323
vt 0.39764 0.42323
vt 0.39764 0.29582
vt 0.38293 0.29582
vt 0.38362 0.49892
vt 0.39855 0.49892
vt 0.42417 0.36963
vt 0.44590 0.36963
vt 0.44590 0.31675
vt 0.42417 0.31675
vt 0.42417 0.42323
vt 0.44590 0.42323
vt 0.44590 0.29596
vt 0.42417 0.29582
vt 0.42548 0.49892
vt 0.44753 0.49892
vt 0.44590 0.54798
vt 0.35519 0.36963
vt 0.35519 0.31675
vt 0.35519 0.42323
vt 0.35519 0.29582
vt 0.33724 0.29582
vt 0.35546 0.49892
vt 0.42400 0.32288
vt 0.42400 0.31780
vt 0.39747 0.31780
vt 0.39747 0.32288
vt 0.09781 0.41231
vt 0.09531 0.41723
vt 0.38295 0.32234
vt 0.38295 0.31727
vt 0.35521 0.31727
vt 0.35521 0.32234
vt 0.11697 0.43545
vt 0.06192 0.40774
vt 0.05843 0.41210
vt 0.11583 0.44086
vt 0.38370 0.49215
vt 0.35553 0.49215
vt 0.35553 0.49778
vt 0.38370 0.49778
vt 0.01434 0.34910
vt 0.00991 0.35271
vt 0.80067 0.66772
vt 0.76483 0.65761
vt 0.77366 0.82833
vt 0.85602 0.82348
vt 0.85569 0.72266
vt 0.84531 0.69485
vt 0.86087 0.77794
vt 0.86087 0.75529
vt 0.19920 0.75402
vt 0.32393 0.71467
vt 0.32393 0.64412
vt 0.19920 0.64935
vt 0.94561 0.77445
vt 0.96069 0.93871
vt 0.94559 0.71925
vt 0.16694 0.61219
vt 0.19939 0.61864
vt 0.19656 0.44518
vt 0.12601 0.46979
vt 0.11927 0.48939
vt 0.11615 0.53384
vt 0.12104 0.56629
vt 0.13942 0.59380
vt 0.44590 0.61934
vt 0.33723 0.72476
vt 0.44590 0.72476
vt 0.57514 0.63705
vt 0.46972 0.60172
vt 0.65556 0.62283
vt 0.65767 0.59020
vt 0.63714 0.57256
vt 0.71592 0.29293
vt 0.66704 0.29293
vt 0.66704 0.36766
vt 0.71592 0.36766
vt 0.64656 0.29293
vt 0.64656 0.36766
vt 0.64656 0.40515
vt 0.66704 0.40515
vt 0.59246 0.29293
vt 0.59246 0.36766
vt 0.90909 0.93213
vt 0.92698 0.93213
vt 0.92698 0.92769
vt 0.90909 0.92769
vt 0.90715 0.90427
vt 0.92695 0.90427
vt 0.92695 0.89983
vt 0.90715 0.89983
vt 0.75391 0.55115
vt 0.70872 0.55115
vt 0.75391 0.55484
vt 0.56484 0.72260
vt 0.53820 0.64025
vt 0.45835 0.72737
vt 0.89788 0.62318
vt 0.91641 0.70074
vt 0.94341 0.62089
vt 0.86735 0.69911
vt 0.87523 0.62317
vt 0.59159 0.60688
vt 0.59196 0.57256
vt 0.66157 0.56239
vt 0.63714 0.55441
vt 0.81874 0.38791
vt 0.71592 0.40515
vt 0.71592 0.49573
vt 0.78266 0.50987
vt 0.84817 0.28999
vt 0.63726 0.57265
vt 0.61937 0.55450
vt 0.61188 0.55450
vt 0.61175 0.55441
vt 0.57371 0.72266
vt 0.74444 0.73149
vt 0.73433 0.69565
vt 0.57857 0.64030
vt 0.70719 0.65101
vt 0.67938 0.64063
vt 0.62410 0.63545
vt 0.64676 0.63545
vt 0.85928 0.68713
vt 0.71592 0.52134
vt 0.61925 0.55441
vt 0.59196 0.55441
vt 0.45835 0.62265
vt 0.98777 0.70074
vt 0.62856 0.37306
vt 0.61958 0.38231
vt 0.64003 0.40919
vt 0.63638 0.50415
vt 0.63108 0.54282
vt 0.62143 0.53628
vt 0.76347 0.55097
vt 0.79061 0.53344
vt 0.79403 0.52329
vt 0.79806 0.52400
vt 0.70981 0.38196
vt 0.70067 0.37288
vt 0.68984 0.40919
vt 0.70111 0.54265
vt 0.71065 0.53595
vt 0.69376 0.51097
vt 0.97050 0.92067
vt 0.97050 0.91317
vt 0.91956 0.92067
vt 0.91956 0.91317
vt 0.70872 0.55484
vt 0.66354 0.55484
vt 0.66354 0.55115
vt 0.04479 0.31944
vt 0.07203 0.37232
vt 0.07614 0.36863
vt 0.04987 0.31683
vt 0.06248 0.30792
vt 0.08972 0.36080
vt 0.06756 0.30530
vt 0.15344 0.42986
vt 0.15465 0.42428
vt 0.17525 0.43800
vt 0.17497 0.43230
vt 0.12563 0.40765
vt 0.12766 0.40245
vt 0.20133 0.41998
vt 0.20225 0.41434
vt 0.64745 0.54348
vt 0.66850 0.54324
vt 0.64713 0.50415
vt 0.66824 0.50500
vt 0.64743 0.50374
vt 0.66824 0.50410
vt 0.66854 0.50202
vt 0.32501 0.23724
vt 0.32501 0.21357
vt 0.27071 0.23724
vt 0.27071 0.21357
vt 0.21640 0.21357
vt 0.21640 0.23724
vt 0.27071 0.20045
vt 0.21640 0.17569
vt 0.21640 0.20045
vt 0.27071 0.17569
vt 0.32501 0.20045
vt 0.32501 0.17569
vt 0.37931 0.20045
vt 0.37931 0.17569
vt 0.37931 0.23724
vt 0.37931 0.21357
# 328 texture vertices

vn -0.02430 0.99958 0.01606
vn -0.02376 0.99958 0.01631
vn -0.01836 0.99970 0.01637
vn -0.01389 0.99978 0.01581
vn 0.03112 -0.99938 -0.01659
vn 0.00295 -0.99987 -0.01581
vn -0.04005 0.99890 0.02439
vn 0.03626 -0.99924 -0.01426
vn -0.08110 0.99535 0.05201
vn -0.03488 0.99889 0.03182
vn 0.87142 0.47792 0.11052
vn 1.00000 0.00000 0.00000
vn 0.00000 -0.14581 -0.98931
vn -0.00333 -0.09487 -0.99548
vn -0.29839 -0.53246 -0.79212
vn -0.18049 -0.30011 -0.93667
vn -0.09605 -0.95977 -0.26384
vn -0.04318 -0.13796 -0.98950
vn -1.00000 0.00000 0.00000
vn -0.00151 -0.09553 -0.99543
vn 0.97079 0.20092 0.13114
vn -0.00322 -0.93246 -0.36125
vn -0.00000 -0.93663 -0.35031
vn -0.21128 -0.84169 -0.49692
vn -0.11070 -0.10955 -0.98780
vn -0.00068 -0.10671 -0.99429
vn -0.00146 -0.11568 -0.99329
vn 0.00138 -0.09520 -0.99546
vn 0.00000 -0.49875 0.86674
vn -1.00000 0.00000 0.00000
vn 1.00000 0.00000 0.00000
vn 0.00000 0.94066 0.33934
vn 0.00000 0.94066 0.33934
vn -0.28819 -0.95709 0.03047
vn 0.87679 0.44756 0.17585
vn -0.51246 -0.27454 0.81364
vn -0.27741 -0.95679 0.08718
vn -0.15638 0.98634 0.05176
vn -0.16594 0.90739 0.38615
vn -0.19832 0.63442 0.74712
vn -0.18342 0.42744 0.88524
vn -0.36833 0.66340 -0.65133
vn -0.11884 0.98753 -0.10329
vn -0.29187 0.95331 0.07751
vn -0.28627 0.89373 0.34540
vn -0.31059 0.71749 0.62350
vn -0.34918 0.38355 0.85497
vn -0.48280 0.76150 -0.43245
vn -0.33844 0.93035 -0.14108
vn -0.38828 -0.88195 -0.26721
vn -0.64441 -0.75414 -0.12653
vn -0.32337 -0.76772 -0.55321
vn -0.18018 -0.31110 -0.93314
vn -0.89416 -0.33644 0.29546
vn -0.59447 -0.80347 0.03218
vn 0.98275 0.18212 -0.03213
vn 0.98341 0.09873 0.15218
vn 0.99740 0.02395 0.06799
vn 0.95189 0.19846 0.23351
vn 0.97738 0.06744 0.20046
vn 0.00000 0.31779 -0.94816
vn -0.00077 0.50730 0.86177
vn 0.00000 0.66822 0.74396
vn 0.00000 0.88897 -0.45797
vn 0.00000 0.90336 0.42889
vn -0.00057 0.50948 0.86048
vn 0.00000 0.99855 0.05382
vn 0.00000 0.88897 -0.45797
vn 0.99999 -0.00147 0.00375
vn 0.00000 0.51004 0.86015
vn 0.99993 -0.00316 0.01155
vn 0.00000 0.66822 0.74396
vn 0.00000 0.88897 -0.45797
vn -0.99998 0.00211 -0.00541
vn -0.00111 0.51089 0.85965
vn -0.99985 0.00456 -0.01666
vn 0.00000 0.95506 0.29640
vn -0.00191 0.50779 0.86148
vn 0.00000 0.99984 0.01787
vn -0.99998 0.00160 -0.00584
vn 0.00000 -0.16075 0.98700
vn 0.99997 -0.00211 0.00770
vn 0.99993 -0.00193 0.01185
vn -0.99993 0.00304 -0.01111
vn -0.99985 0.00278 -0.01708
vn 1.00000 -0.00063 0.00229
vn 0.00000 0.72989 0.68357
vn 0.00000 0.45228 0.89188
vn 0.00000 0.95591 0.29366
vn 0.00000 0.98754 0.15739
vn 0.00000 0.45228 0.89188
vn 0.00000 0.95591 0.29366
vn 0.00000 0.59805 0.80146
vn 0.00000 0.45228 0.89188
vn 0.00000 0.90437 0.42675
vn 0.00000 0.98754 0.15739
vn 0.00000 0.59805 0.80146
vn 0.00000 0.90437 0.42675
vn 0.00000 0.98754 0.15739
vn 0.01836 -0.99970 -0.01637
vn 0.02376 -0.99958 -0.01631
vn 0.02430 -0.99958 -0.01606
vn 0.01389 -0.99978 -0.01581
vn -0.00295 0.99987 0.01581
vn -0.02665 0.96774 0.25054
vn 0.04005 -0.99890 -0.02439
vn -0.03626 0.99924 0.01426
vn 0.03488 -0.99889 -0.03182
vn 0.08110 -0.99535 -0.05201
vn 0.00276 -0.09421 -0.99555
vn -0.38192 0.46839 0.79671
vn -0.38082 0.32875 0.86424
vn -0.53314 -0.25050 0.80809
vn -0.92760 -0.30740 0.21230
vn -0.27773 -0.95540 0.10038
vn -0.27337 -0.95523 0.11312
vn 0.44596 0.88140 0.15576
vn -0.10059 -0.90224 -0.41934
vn -0.00669 -0.95658 -0.29138
vn 0.00214 -0.27079 -0.96263
vn 0.00000 -0.16075 0.98700
vn 0.00000 -0.16075 0.98699
vn 0.99636 0.02953 0.08002
vn 0.97888 0.10480 0.17555
vn 0.99087 0.01620 0.13382
vn 0.00000 0.49717 0.86765
vn 0.00000 0.48419 0.87497
vn 0.00000 1.00000 -0.00009
vn -0.00083 0.48484 0.87461
vn 0.00000 0.95506 0.29640
vn 0.00000 0.90336 0.42889
vn 0.00000 0.99984 0.01787
vn 0.12007 0.98970 -0.07794
vn -0.00077 0.49820 0.86706
vn 0.00000 -0.88897 0.45797
vn 0.00000 -0.88897 0.45797
vn 0.00000 -0.88897 0.45797
vn -1.00000 0.00111 -0.00285
vn -0.99996 0.00146 -0.00899
vn -0.99996 0.00240 -0.00876
vn -0.95597 -0.29345 0.00286
vn -0.95695 -0.29012 -0.00898
vn -0.95954 -0.28105 0.01739
vn -0.96420 -0.26255 0.03737
vn -0.97533 0.07144 -0.20889
vn -0.58227 0.25836 -0.77085
vn -0.22312 -0.42033 -0.87951
vn -0.00000 -0.92853 -0.37125
vn 0.17645 0.31337 -0.93309
vn 0.00000 0.31779 -0.94816
vn 0.09190 0.98886 -0.11711
vn 0.99755 -0.01110 -0.06906
vn 0.96656 0.24389 -0.07925
vn 0.38828 0.88195 0.26721
vn 0.64441 0.75414 0.12653
vn 0.09605 0.95977 0.26384
vn 0.04318 0.13796 0.98950
vn 0.00333 0.09487 0.99548
vn 0.00068 0.10671 0.99429
vn 0.11070 0.10955 0.98780
vn 0.00151 0.09553 0.99543
vn 0.00146 0.11568 0.99329
vn 0.00000 0.35772 0.93383
vn 0.00000 0.25265 0.96756
vn -0.00276 0.09421 0.99555
vn -0.00138 0.09520 0.99546
vn 0.00000 -0.94066 -0.33934
vn 0.00000 -0.64150 -0.76712
vn 0.00000 -0.94066 -0.33934
vn 0.00000 -0.82482 -0.56540
vn 0.90753 0.30367 -0.29012
vn 0.81042 0.48089 -0.33462
vn 0.53314 0.25050 -0.80809
vn 0.59447 0.80347 -0.03218
vn 0.28205 0.95539 -0.08762
vn 0.10059 0.90224 0.41934
vn 0.00669 0.95658 0.29138
vn 0.32337 0.76772 0.55321
vn 0.21128 0.84169 0.49692
vn 0.18018 0.31110 0.93314
vn 0.18049 0.30011 0.93667
vn 0.29839 0.53246 0.79212
vn -0.00214 0.27079 0.96263
vn 0.00000 0.80669 0.59097
vn 0.00248 0.87691 0.48066
vn 0.95695 0.29012 0.00898
vn 0.95703 0.28995 -0.00501
vn 0.96420 0.26255 -0.03737
vn 0.95954 0.28105 -0.01739
vn 0.00000 0.92853 0.37125
vn 0.00000 -0.42753 -0.90400
vn 0.00000 -0.42753 -0.90400
vn 0.00000 0.49875 -0.86674
vn 1.00000 -0.00044 0.00111
vn 0.99999 -0.00094 0.00343
vn 0.99999 -0.00057 0.00352
vn 0.00000 0.56560 0.82468
vn 0.00000 0.51235 0.85878
# 198 normal vertices

f 3/3/3 2/2/2 1/1/1
f 1/6/102 2/5/101 3/4/100
f 1/9/1 4/8/4 3/7/3
f 3/12/100 4/11/103 1/10/102
f 6/15/6 5/14/5 4/13/103
f 4/18/4 5/17/105 6/16/104
f 5/21/105 7/20/7 3/19/3
f 3/24/100 7/23/106 5/22/5
f 7/27/106 8/26/8 5/25/5
f 5/30/105 8/29/107 7/28/7
f 10/33/10 9/32/9 7/31/7
f 7/36/106 9/35/109 10/34/108
f 7/39/7 8/38/107 10/37/10
f 10/42/108 8/41/8 7/40/106
f 97/45/84 81/44/76 98/43/85
f 81/44/76 97/45/84 79/46/74
f 76/49/71 74/48/69 93/47/82
f 94/50/83 76/49/71 93/47/82
f 54/53/50 55/52/51 17/51/17
f 18/56/18 14/55/14 27/54/26
f 18/56/18 27/54/26 26/57/25
f 14/55/14 21/59/20 28/58/27
f 14/55/14 28/58/27 27/54/26
f 28/58/27 20/61/13 13/60/13
f 28/58/27 13/60/13 27/54/26
f 21/59/20 8/63/110 29/62/28
f 21/59/20 29/62/28 28/58/27
f 27/66/32 26/65/32 34/64/32
f 35/67/32 27/66/32 34/64/32
f 29/70/33 28/69/33 36/68/33
f 37/71/33 29/70/33 36/68/33
f 48/74/44 49/73/45 43/72/39
f 48/74/44 43/72/39 42/75/38
f 50/77/46 44/76/40 43/72/39
f 50/77/46 43/72/39 49/73/45
f 51/80/47 45/79/41 44/78/40
f 51/80/47 44/78/40 50/81/46
f 1/83/112 4/82/111 45/79/41
f 1/83/112 45/79/41 51/80/47
f 52/86/48 53/85/49 47/84/43
f 52/86/48 47/84/43 46/87/42
f 53/85/49 48/74/44 42/75/38
f 53/85/49 42/75/38 47/84/43
f 58/90/54 40/89/36 7/88/113
f 9/91/114 58/90/54 7/88/113
f 41/94/37 40/93/116 58/92/115
f 59/95/55 41/94/37 58/92/115
f 38/96/34 41/94/37 59/95/55
f 54/97/50 38/96/34 59/95/55
f 11/100/11 60/99/56 38/98/117
f 11/100/11 38/98/117 39/101/35
f 60/102/118 54/53/50 17/51/17
f 11/103/119 60/102/118 17/51/17
f 17/51/17 55/52/51 56/104/52
f 25/105/24 17/51/17 56/104/52
f 57/108/53 16/107/16 15/106/15
f 56/109/52 57/108/53 15/106/15
f 57/108/53 10/110/120 18/56/18
f 26/57/25 57/108/53 18/56/18
f 17/51/17 24/112/23 23/111/22
f 11/103/119 17/51/17 23/111/22
f 73/115/68 78/114/73 96/113/68
f 92/116/73 73/115/68 96/113/68
f 93/47/82 74/48/69 91/117/12
f 81/120/121 76/119/122 94/118/121
f 98/121/122 81/120/121 94/118/121
f 83/124/64 68/123/64 88/122/64
f 100/125/64 83/124/64 88/122/64
f 62/128/58 22/127/21 61/126/57
f 22/127/21 11/100/11 39/101/35
f 22/127/21 39/101/35 63/129/59
f 62/128/58 61/126/57 63/129/59
f 62/128/58 63/129/59 64/130/60
f 64/130/60 5/132/124 8/131/123
f 64/130/60 8/131/123 29/133/125
f 68/136/127 73/135/126 72/134/63
f 68/136/127 72/134/63 67/137/63
f 69/138/65 67/137/63 72/134/63
f 69/138/65 72/134/63 74/139/77
f 70/141/66 75/140/70 73/135/126
f 70/141/66 73/135/126 68/136/127
f 71/142/67 69/138/65 74/139/77
f 71/142/67 74/139/77 76/143/128
f 64/146/129 63/145/72 77/144/72
f 64/146/129 77/144/72 78/147/126
f 39/149/131 79/148/130 77/144/72
f 39/149/131 77/144/72 63/145/72
f 80/151/75 5/150/105 64/146/129
f 80/151/75 64/146/129 78/147/126
f 75/140/70 80/151/75 78/147/126
f 75/140/70 78/147/126 73/135/126
f 38/153/117 81/152/132 79/148/130
f 38/153/117 79/148/130 39/149/131
f 41/154/133 81/152/132 38/153/117
f 45/79/41 83/156/134 82/155/72
f 45/79/41 82/155/72 44/78/40
f 43/72/39 44/76/40 82/155/72
f 43/72/39 82/155/72 84/157/77
f 70/141/66 68/136/127 83/156/134
f 70/141/66 83/156/134 85/158/78
f 66/159/62 85/158/78 83/156/134
f 66/159/62 83/156/134 45/79/41
f 42/75/38 43/72/39 84/157/77
f 42/75/38 84/157/77 86/160/79
f 47/84/43 42/75/38 86/160/79
f 92/163/135 96/162/136 78/161/135
f 73/164/136 92/163/135 78/161/135
f 79/46/74 97/45/84 95/165/19
f 79/46/74 95/165/19 77/166/19
f 100/169/137 88/168/137 68/167/137
f 83/170/137 100/169/137 68/167/137
f 69/173/138 89/172/80 87/171/19
f 69/173/138 87/171/19 67/174/19
f 86/177/81 102/176/81 90/175/81
f 86/177/81 90/175/81 71/178/81
f 71/180/140 90/179/139 89/172/80
f 71/180/140 89/172/80 69/173/138
f 9/183/114 10/182/142 57/181/141
f 58/184/54 9/183/114 57/181/141
f 57/181/141 56/186/144 55/185/143
f 58/184/54 57/181/141 55/185/143
f 59/187/55 58/184/54 55/185/51
f 54/188/50 59/187/55 55/185/51
f 2/191/145 52/190/48 46/189/42
f 2/191/145 46/189/42 6/192/146
f 54/97/50 60/193/118 38/96/147
f 56/109/52 15/106/15 25/194/24
f 57/108/53 26/57/25 16/107/16
f 25/105/24 24/112/23 17/51/17
f 23/111/22 22/195/148 11/103/119
f 63/129/59 61/126/57 22/127/21
f 64/130/60 29/133/125 62/128/58
f 2/198/145 1/197/19 51/196/19
f 53/200/19 52/199/19 2/198/145
f 2/198/145 48/201/19 53/200/19
f 2/198/145 50/203/19 49/202/19
f 49/202/19 48/201/19 2/198/145
f 2/198/145 51/196/19 50/203/19
f 3/205/150 46/87/42 40/204/149
f 40/204/149 65/206/61 3/205/150
f 47/84/43 41/154/133 40/204/151
f 40/204/151 46/87/42 47/84/43
f 86/160/79 71/142/67 47/84/43
f 47/84/43 76/143/128 41/154/133
f 41/154/133 76/143/128 81/152/132
f 47/84/43 71/142/67 76/143/128
f 60/99/56 22/127/21 62/128/58
f 65/207/152 60/99/56 62/128/58
f 62/128/58 8/131/123 65/207/152
f 65/207/152 40/208/153 60/99/56
f 40/208/153 38/98/117 60/99/56
f 17/211/156 55/210/155 54/209/154
f 27/214/159 14/213/158 18/212/157
f 26/215/160 27/214/159 18/212/157
f 28/217/162 21/216/161 14/213/158
f 27/214/159 28/217/162 14/213/158
f 13/219/164 20/218/163 28/217/162
f 27/214/159 13/219/164 28/217/162
f 29/221/166 8/220/165 21/216/161
f 28/217/162 29/221/166 21/216/161
f 34/224/167 26/223/167 27/222/167
f 34/224/167 27/222/167 35/225/168
f 36/228/170 28/227/169 29/226/169
f 36/228/170 29/226/169 37/229/169
f 25/232/29 30/231/29 33/230/29
f 7/235/173 58/234/172 9/233/171
f 58/238/175 41/237/133 59/236/174
f 59/236/174 41/237/133 38/239/117
f 59/236/174 38/239/117 54/240/154
f 17/211/156 54/209/154 60/241/176
f 17/211/156 60/241/176 11/242/177
f 56/243/178 55/210/155 17/211/156
f 56/243/178 17/211/156 25/244/179
f 15/247/182 16/246/181 57/245/180
f 15/247/182 57/245/180 56/248/178
f 18/212/157 10/249/183 57/245/180
f 18/212/157 57/245/180 26/215/160
f 23/252/185 24/251/184 17/250/156
f 23/253/185 17/211/156 11/242/177
f 57/256/187 10/255/186 9/254/171
f 57/256/187 9/254/171 58/257/172
f 55/259/189 56/258/188 57/256/187
f 55/259/189 57/256/187 58/257/172
f 55/259/155 58/257/172 59/260/174
f 55/259/155 59/260/174 54/261/154
f 38/239/117 60/262/176 54/240/154
f 25/263/179 15/247/182 56/248/178
f 16/246/181 26/215/160 57/245/180
f 17/211/156 24/264/184 25/244/179
f 11/242/177 22/265/190 23/253/185
f 7/235/173 40/266/149 58/234/172
f 58/238/172 40/267/151 41/237/133
f 20/270/19 36/269/19 28/268/19
f 19/271/19 36/269/19 20/270/19
f 36/269/19 19/271/19 23/272/19
f 31/273/30 36/269/19 23/272/19
f 25/232/19 33/230/19 15/274/19
f 15/274/19 33/230/19 16/275/19
f 16/275/19 33/230/19 34/276/19
f 34/276/19 26/277/19 16/275/19
f 13/280/12 27/279/12 35/278/12
f 13/280/12 35/278/12 24/281/12
f 35/278/12 32/282/31 24/281/12
f 24/281/12 12/283/12 13/280/12
f 35/286/168 31/285/192 32/284/191
f 35/286/168 36/287/170 31/285/192
f 25/232/29 22/288/29 30/231/29
f 25/289/193 30/231/193 22/288/193
f 25/289/193 33/290/193 30/231/193
f 62/128/58 29/133/125 8/131/123
f 99/293/12 82/292/12 83/291/12
f 83/291/12 100/294/12 99/293/12
f 91/117/12 72/296/12 73/295/12
f 73/295/12 92/297/12 91/117/12
f 74/48/69 72/296/12 91/117/12
f 77/166/19 95/165/19 78/298/19
f 95/165/19 96/299/19 78/298/19
f 67/174/19 87/171/19 68/300/19
f 87/171/19 88/301/19 68/300/19
f 82/292/12 99/293/12 84/302/194
f 99/293/12 101/303/86 84/302/194
f 84/302/194 101/303/86 86/304/195
f 101/303/86 102/305/196 86/304/195
f 58/184/54 9/183/114 57/181/141
f 19/308/197 24/307/184 23/306/185
f 12/309/198 24/307/184 19/308/197
f 12/311/198 19/310/197 20/218/163
f 20/218/163 13/219/164 12/312/198
f 113/315/95 107/314/87 111/313/93
f 113/315/95 109/316/92 107/314/87
f 114/318/96 110/317/90 109/316/92
f 109/316/92 113/315/95 114/318/96
f 106/321/90 118/320/99 105/319/89
f 118/320/99 117/322/98 105/319/89
f 103/323/87 105/319/89 117/322/98
f 117/322/98 115/324/97 103/323/87
f 116/326/88 104/325/88 115/324/97
f 108/328/91 112/327/94 111/313/93
f 108/328/91 111/313/93 107/314/87
f 115/324/97 104/325/88 103/323/87
# 240 elements

