# Created by Metasequoia

v -1.023673 0.045544 0.100219
v -0.886393 0.045544 0.612679
v -0.511183 0.045544 0.987829
v 0.001277 0.045544 1.125139
v 0.513767 0.045544 0.987829
v 0.888887 0.045544 0.612679
v 1.026227 0.045544 0.100189
v 0.888917 0.045544 -0.412241
v 0.513767 0.045544 -0.787391
v 0.001247 0.045544 -0.924701
v -0.511183 0.045544 -0.787391
v -0.886333 0.045544 -0.412271
v -1.023673 -0.299773 0.100219
v -0.886393 -0.299773 0.612679
v -0.511183 -0.299773 0.987829
v 0.001277 -0.299773 1.125139
v 0.513767 -0.299773 0.987829
v 0.888887 -0.299773 0.612679
v 1.026227 -0.299773 0.100189
v 0.888917 -0.299773 -0.412241
v 0.513767 -0.299773 -0.787391
v 0.001247 -0.299773 -0.924701
v -0.511183 -0.299773 -0.787391
v -0.886333 -0.299773 -0.412271
# 24 vertices

vt 0.43873 0.19665
vt 0.43873 0.17440
vt 0.39310 0.17440
vt 0.39310 0.19665
vt 0.22504 0.28986
vt 0.22504 0.26762
vt 0.19163 0.26762
vt 0.19163 0.28986
vt 0.27068 0.28986
vt 0.27068 0.26762
vt 0.31631 0.28986
vt 0.31631 0.26762
vt 0.04639 0.19665
vt 0.04639 0.17440
vt 0.01298 0.17440
vt 0.01298 0.19665
vt 0.09203 0.19665
vt 0.09203 0.17440
vt 0.13766 0.19665
vt 0.13766 0.17440
vt 0.17107 0.19665
vt 0.17107 0.17440
vt 0.23727 0.24325
vt 0.23727 0.22101
vt 0.19162 0.22101
vt 0.19162 0.24325
vt 0.28290 0.24325
vt 0.28290 0.22101
vt 0.31631 0.24325
vt 0.31631 0.22101
vt 0.34746 0.17440
vt 0.34746 0.19665
vt 0.01298 0.38839
vt 0.02521 0.43312
vt 0.05862 0.46586
vt 0.02521 0.34366
vt 0.10425 0.47785
vt 0.05862 0.31092
vt 0.14989 0.46586
vt 0.10426 0.29893
vt 0.18330 0.43312
vt 0.14989 0.31092
vt 0.19553 0.38839
vt 0.18330 0.34366
# 44 texture vertices

vn -0.99603 0.00000 -0.08900
vn -0.90708 0.00000 0.42096
vn -0.57502 0.00000 0.81814
vn -0.08896 0.00000 0.99603
vn 0.42097 0.00000 0.90707
vn 0.81812 0.00000 0.57505
vn 0.99603 0.00000 0.08898
vn 0.90707 0.00000 -0.42098
vn 0.57505 0.00000 -0.81812
vn 0.08894 0.00000 -0.99604
vn -0.42097 0.00000 -0.90708
vn -0.81809 0.00000 -0.57509
vn -0.99604 0.00000 0.08891
vn -0.81809 0.00000 0.57509
vn -0.42095 0.00000 0.90709
vn 0.08895 0.00000 0.99604
vn 0.57508 0.00000 0.81810
vn 0.90707 0.00000 0.42098
vn 0.99604 0.00000 -0.08896
vn 0.81811 0.00000 -0.57506
vn 0.42095 0.00000 -0.90708
vn -0.08898 0.00000 -0.99603
vn -0.57504 0.00000 -0.81812
vn -0.90706 0.00000 -0.42101
vn 0.00000 1.00000 0.00000
vn 0.00000 1.00000 0.00000
# 26 normal vertices

f 13/3/13 14/2/14 2/1/2
f 1/4/1 13/3/13 2/1/2
f 14/7/14 15/6/15 3/5/3
f 2/8/2 14/7/14 3/5/3
f 15/6/15 16/10/16 4/9/4
f 3/5/3 15/6/15 4/9/4
f 16/10/16 17/12/17 5/11/5
f 4/9/4 16/10/16 5/11/5
f 17/15/17 18/14/18 6/13/6
f 5/16/5 17/15/17 6/13/6
f 18/14/18 19/18/19 7/17/7
f 6/13/6 18/14/18 7/17/7
f 19/18/19 20/20/20 8/19/8
f 7/17/7 19/18/19 8/19/8
f 20/20/20 21/22/21 9/21/9
f 8/19/8 20/20/20 9/21/9
f 21/25/21 22/24/22 10/23/10
f 9/26/9 21/25/21 10/23/10
f 22/24/22 23/28/23 11/27/11
f 10/23/10 22/24/22 11/27/11
f 23/28/23 24/30/24 12/29/12
f 11/27/11 23/28/23 12/29/12
f 24/31/24 13/3/13 1/4/1
f 12/32/12 24/31/24 1/4/1
f 11/35/25 12/34/26 1/33/25
f 2/36/25 11/35/25 1/33/25
f 3/38/25 10/37/25 11/35/25
f 2/36/25 3/38/25 11/35/25
f 4/40/25 9/39/25 10/37/25
f 3/38/25 4/40/25 10/37/25
f 8/41/25 9/39/25 4/40/25
f 5/42/25 8/41/25 4/40/25
f 6/44/25 7/43/25 8/41/25
f 5/42/25 6/44/25 8/41/25
# 34 elements

