# Created by 3DAce v2.72


g
v 0.000000 0.042228 0.000000
v 0.000000 0.042228 3.011946
v 2.608422 0.042228 1.505973
v 2.608422 0.042228 -1.505973
v -0.000000 0.042228 -3.011946
v -2.608422 0.042228 -1.505973
v -2.608422 0.042228 1.505973
v 0.000000 -0.324690 3.011946
v 2.608422 -0.324690 1.505973
v 2.608422 -0.324690 -1.505973
v -0.000000 -0.324690 -3.011946
v -2.608422 -0.324690 -1.505973
v -2.608422 -0.324690 1.505973
v 0.000000 -0.324690 0.000000
# 14 vertices

vt 0.000000 1.000000
vt 0.166670 1.000000
vt 0.083330 1.000000
vt 0.000000 1.000000
vt 0.166670 1.000000
vt 0.333330 1.000000
vt 0.250000 1.000000
vt 0.166670 1.000000
vt 0.333330 1.000000
vt 0.500000 1.000000
vt 0.416670 1.000000
vt 0.333330 1.000000
vt 0.500000 1.000000
vt 0.666670 1.000000
vt 0.583330 1.000000
vt 0.500000 1.000000
vt 0.666670 1.000000
vt 0.833330 1.000000
vt 0.750000 1.000000
vt 0.666670 1.000000
vt 0.833330 1.000000
vt 1.000000 1.000000
vt 0.916670 1.000000
vt 0.833330 1.000000
vt 0.166670 0.000000
vt 0.000000 0.000000
vt 0.083330 0.000000
vt 0.166670 0.000000
vt 0.333330 0.000000
vt 0.166670 0.000000
vt 0.250000 0.000000
vt 0.333330 0.000000
vt 0.500000 0.000000
vt 0.333330 0.000000
vt 0.416670 0.000000
vt 0.500000 0.000000
vt 0.666670 0.000000
vt 0.500000 0.000000
vt 0.583330 0.000000
vt 0.666670 0.000000
vt 0.833330 0.000000
vt 0.666670 0.000000
vt 0.750000 0.000000
vt 0.833330 0.000000
vt 1.000000 0.000000
vt 0.833330 0.000000
vt 0.916670 0.000000
vt 1.000000 0.000000
vt 0.000000 0.000000
vt 0.166670 0.000000
vt 0.166670 1.000000
vt 0.000000 0.000000
vt 0.000000 1.000000
vt 0.000000 0.000000
vt 0.166670 1.000000
vt 0.000000 1.000000
vt 0.166670 0.000000
vt 0.333330 0.000000
vt 0.333330 1.000000
vt 0.166670 0.000000
vt 0.166670 1.000000
vt 0.166670 0.000000
vt 0.333330 1.000000
vt 0.166670 1.000000
vt 0.333330 0.000000
vt 0.500000 0.000000
vt 0.500000 1.000000
vt 0.333330 0.000000
vt 0.333330 1.000000
vt 0.333330 0.000000
vt 0.500000 1.000000
vt 0.333330 1.000000
vt 0.500000 0.000000
vt 0.666670 0.000000
vt 0.666670 1.000000
vt 0.500000 0.000000
vt 0.500000 1.000000
vt 0.500000 0.000000
vt 0.666670 1.000000
vt 0.500000 1.000000
vt 0.666670 0.000000
vt 0.833330 0.000000
vt 0.833330 1.000000
vt 0.666670 0.000000
vt 0.666670 1.000000
vt 0.666670 0.000000
vt 0.833330 1.000000
vt 0.666670 1.000000
vt 0.833330 0.000000
vt 1.000000 0.000000
vt 1.000000 1.000000
vt 0.833330 0.000000
vt 0.833330 1.000000
vt 0.833330 0.000000
vt 1.000000 1.000000
vt 0.833330 1.000000
# 96 texture vertices

vn 0.000000 1.000000 -0.000000
vn 0.000000 1.000000 0.000000
vn 0.000000 1.000000 0.000000
vn 0.000000 1.000000 -0.000000
vn 0.000000 1.000000 0.000000
vn -0.000000 1.000000 0.000000
vn 0.000000 1.000000 0.000000
vn 0.000000 1.000000 0.000000
vn -0.000000 1.000000 0.000000
vn 0.000000 1.000000 0.000000
vn 0.000000 1.000000 0.000000
vn -0.000000 1.000000 0.000000
vn 0.000000 1.000000 0.000000
vn 0.000000 1.000000 0.000000
vn 0.000000 1.000000 0.000000
vn 0.000000 1.000000 0.000000
vn 0.000000 1.000000 0.000000
vn 0.000000 1.000000 0.000000
vn 0.000000 1.000000 0.000000
vn 0.000000 1.000000 0.000000
vn 0.000000 1.000000 0.000000
vn 0.000000 1.000000 -0.000000
vn 0.000000 1.000000 0.000000
vn 0.000000 1.000000 0.000000
vn 0.000000 -1.000000 0.000000
vn 0.000000 -1.000000 0.000000
vn 0.000000 -1.000000 0.000000
vn 0.000000 -1.000000 0.000000
vn 0.000000 -1.000000 0.000000
vn 0.000000 -1.000000 0.000000
vn 0.000000 -1.000000 0.000000
vn 0.000000 -1.000000 0.000000
vn 0.000000 -1.000000 0.000000
vn 0.000000 -1.000000 0.000000
vn 0.000000 -1.000000 0.000000
vn 0.000000 -1.000000 0.000000
vn -0.000000 -1.000000 0.000000
vn 0.000000 -1.000000 0.000000
vn 0.000000 -1.000000 0.000000
vn -0.000000 -1.000000 0.000000
vn 0.000000 -1.000000 0.000000
vn -0.000000 -1.000000 0.000000
vn 0.000000 -1.000000 0.000000
vn 0.000000 -1.000000 0.000000
vn 0.000000 -1.000000 0.000000
vn 0.000000 -1.000000 0.000000
vn 0.000000 -1.000000 0.000000
vn 0.000000 -1.000000 0.000000
vn 0.500000 0.000000 0.866025
vn 0.500000 0.000000 0.866025
vn 0.500000 0.000000 0.866025
vn 0.500000 0.000000 0.866025
vn 0.500000 -0.000000 0.866025
vn 0.500000 0.000000 0.866025
vn 0.500000 0.000000 0.866025
vn 0.500000 -0.000000 0.866025
vn 1.000000 0.000000 -0.000000
vn 1.000000 0.000000 -0.000000
vn 1.000000 0.000000 -0.000000
vn 1.000000 0.000000 -0.000000
vn 1.000000 0.000000 -0.000000
vn 1.000000 0.000000 -0.000000
vn 1.000000 0.000000 -0.000000
vn 1.000000 0.000000 -0.000000
vn 0.500000 0.000000 -0.866025
vn 0.500000 0.000000 -0.866025
vn 0.500000 0.000000 -0.866025
vn 0.500000 0.000000 -0.866025
vn 0.500000 0.000000 -0.866025
vn 0.500000 0.000000 -0.866025
vn 0.500000 0.000000 -0.866025
vn 0.500000 0.000000 -0.866025
vn -0.500000 0.000000 -0.866025
vn -0.500000 -0.000000 -0.866025
vn -0.500000 0.000000 -0.866025
vn -0.500000 0.000000 -0.866025
vn -0.500000 0.000000 -0.866025
vn -0.500000 0.000000 -0.866025
vn -0.500000 0.000000 -0.866025
vn -0.500000 0.000000 -0.866025
vn -1.000000 0.000000 -0.000000
vn -1.000000 -0.000000 -0.000000
vn -1.000000 0.000000 -0.000000
vn -1.000000 0.000000 -0.000000
vn -1.000000 0.000000 -0.000000
vn -1.000000 0.000000 -0.000000
vn -1.000000 0.000000 -0.000000
vn -1.000000 0.000000 -0.000000
vn -0.500000 0.000000 0.866025
vn -0.500000 0.000000 0.866025
vn -0.500000 0.000000 0.866025
vn -0.500000 0.000000 0.866025
vn -0.500000 0.000000 0.866025
vn -0.500000 0.000000 0.866025
vn -0.500000 0.000000 0.866025
vn -0.500000 0.000000 0.866025
# 96 vertex normals

g mat1
f 2/1/1 3/2/2 1/3/3
f 3/5/5 4/6/6 1/7/7
f 4/9/9 5/10/10 1/11/11
f 5/13/13 6/14/14 1/15/15
f 6/17/17 7/18/18 1/19/19
f 7/21/21 2/22/22 1/23/23
f 9/25/25 8/26/26 14/27/27
f 10/29/29 9/30/30 14/31/31
f 11/33/33 10/34/34 14/35/35
f 12/37/37 11/38/38 14/39/39
f 13/41/41 12/42/42 14/43/43
f 8/45/45 13/46/46 14/47/47
f 8/49/49 9/50/50 3/51/51
f 2/53/53 8/54/54 3/55/55
f 9/57/57 10/58/58 4/59/59
f 3/61/61 9/62/62 4/63/63
f 10/65/65 11/66/66 5/67/67
f 4/69/69 10/70/70 5/71/71
f 11/73/73 12/74/74 6/75/75
f 5/77/77 11/78/78 6/79/79
f 12/81/81 13/82/82 7/83/83
f 6/85/85 12/86/86 7/87/87
f 13/89/89 8/90/90 2/91/91
f 7/93/93 13/94/94 2/95/95
# 24 elements

