# Created by 3DAce v2.72


g
v -0.718406 0.842297 0.226141
v -0.718406 0.513512 0.226141
v -0.519746 0.184697 0.226141
v -0.277271 0.034352 0.226142
v -0.718406 0.842297 -0.370604
v -0.718406 0.513512 -0.370604
v -0.519746 0.184697 -0.370604
v -0.277270 0.034352 -0.370603
v 0.583520 0.842297 -0.370603
v 0.583520 0.513512 -0.370603
v 0.384860 0.184697 -0.370603
v 0.142385 0.034352 -0.370603
v 0.583520 0.842297 0.226142
v 0.583520 0.513512 0.226142
v 0.384860 0.184697 0.226142
v 0.142384 0.034352 0.226142
# 16 vertices

vt 0.310770 0.333930
vt 0.310770 0.269750
vt 0.495920 0.269750
vt 0.310770 0.333930
vt 0.495920 0.333930
vt 0.310770 0.333930
vt 0.495920 0.269750
vt 0.495920 0.333930
vt 0.310770 0.269750
vt 0.310770 0.205570
vt 0.495920 0.205570
vt 0.310770 0.269750
vt 0.495920 0.269750
vt 0.310770 0.269750
vt 0.495920 0.205570
vt 0.495920 0.269750
vt 0.730870 0.405380
vt 0.730870 0.358050
vt 0.916010 0.358050
vt 0.730870 0.405380
vt 0.916010 0.405380
vt 0.730870 0.405380
vt 0.916010 0.358050
vt 0.916010 0.405380
vt 0.310770 0.669690
vt 0.310770 0.605510
vt 0.714710 0.605510
vt 0.310770 0.669690
vt 0.714710 0.669690
vt 0.310770 0.669690
vt 0.714710 0.605510
vt 0.714710 0.669690
vt 0.310770 0.605510
vt 0.372410 0.541320
vt 0.653070 0.541320
vt 0.310770 0.605510
vt 0.714710 0.605510
vt 0.310770 0.605510
vt 0.653070 0.541320
vt 0.714710 0.605510
vt 0.372410 0.541320
vt 0.447640 0.511970
vt 0.577840 0.511970
vt 0.372410 0.541320
vt 0.653070 0.541320
vt 0.372410 0.541320
vt 0.577840 0.511970
vt 0.653070 0.541320
vt 0.512080 0.333930
vt 0.512080 0.269750
vt 0.697220 0.269750
vt 0.512080 0.333930
vt 0.697220 0.333930
vt 0.512080 0.333930
vt 0.697220 0.269750
vt 0.697220 0.333930
vt 0.512080 0.269750
vt 0.512080 0.205570
vt 0.697220 0.205570
vt 0.512080 0.269750
vt 0.697220 0.269750
vt 0.512080 0.269750
vt 0.697220 0.205570
vt 0.697220 0.269750
vt 0.916010 0.228800
vt 0.916010 0.276130
vt 0.730870 0.276130
vt 0.916010 0.228800
vt 0.730870 0.228800
vt 0.916010 0.228800
vt 0.730870 0.276130
vt 0.730870 0.228800
vt 0.310770 0.501810
vt 0.310770 0.437630
vt 0.714710 0.437630
vt 0.310770 0.501810
vt 0.714710 0.501810
vt 0.310770 0.501810
vt 0.714710 0.437630
vt 0.714710 0.501810
vt 0.310770 0.437630
vt 0.372410 0.373440
vt 0.653070 0.373440
vt 0.310770 0.437630
vt 0.714710 0.437630
vt 0.310770 0.437630
vt 0.653070 0.373440
vt 0.714710 0.437630
vt 0.372410 0.373440
vt 0.447640 0.344100
vt 0.577840 0.344100
vt 0.372410 0.373440
vt 0.653070 0.373440
vt 0.372410 0.373440
vt 0.577840 0.344100
vt 0.653070 0.373440
vt 0.730870 0.669690
vt 0.730870 0.415550
vt 0.916010 0.415550
vt 0.730870 0.669690
vt 0.916010 0.669690
vt 0.730870 0.669690
vt 0.916010 0.415550
vt 0.916010 0.669690
vt 0.730870 0.358050
vt 0.730870 0.276130
vt 0.916010 0.276130
vt 0.730870 0.358050
vt 0.916010 0.358050
vt 0.730870 0.358050
vt 0.916010 0.276130
vt 0.916010 0.358050
# 112 texture vertices

vn -1.000000 0.000000 0.000000
vn -0.934355 -0.356343 0.000000
vn -0.983999 -0.178172 0.000000
vn -1.000000 0.000000 0.000000
vn -1.000000 0.000000 0.000000
vn -1.000000 0.000000 0.000000
vn -0.983999 -0.178172 0.000000
vn -1.000000 0.000000 0.000000
vn -0.934355 -0.356343 0.000000
vn -0.652691 -0.757624 -0.000000
vn -0.765110 -0.643900 0.000000
vn -0.934355 -0.356343 0.000000
vn -0.983999 -0.178172 0.000000
vn -0.934355 -0.356343 0.000000
vn -0.765110 -0.643900 0.000000
vn -0.983999 -0.178172 0.000000
vn -0.652691 -0.757624 -0.000000
vn -0.181825 -0.983331 -0.000000
vn -0.363651 -0.931535 -0.000000
vn -0.652691 -0.757624 -0.000000
vn -0.765110 -0.643900 0.000000
vn -0.652691 -0.757624 -0.000000
vn -0.363651 -0.931535 -0.000000
vn -0.765110 -0.643900 0.000000
vn 0.000001 0.000000 -1.000000
vn 0.000001 -0.000000 -1.000000
vn 0.000001 0.000000 -1.000000
vn 0.000001 0.000000 -1.000000
vn 0.000001 0.000000 -1.000000
vn 0.000001 0.000000 -1.000000
vn 0.000001 0.000000 -1.000000
vn 0.000001 0.000000 -1.000000
vn 0.000001 -0.000000 -1.000000
vn 0.000001 -0.000002 -1.000000
vn 0.000001 -0.000002 -1.000000
vn 0.000001 -0.000000 -1.000000
vn 0.000001 0.000000 -1.000000
vn 0.000001 -0.000000 -1.000000
vn 0.000001 -0.000002 -1.000000
vn 0.000001 0.000000 -1.000000
vn 0.000001 -0.000002 -1.000000
vn 0.000000 0.000000 -1.000000
vn 0.000001 -0.000002 -1.000000
vn 0.000001 -0.000002 -1.000000
vn 0.000001 -0.000002 -1.000000
vn 0.000001 -0.000002 -1.000000
vn 0.000001 -0.000002 -1.000000
vn 0.000001 -0.000002 -1.000000
vn 1.000000 0.000000 0.000000
vn 0.934355 -0.356343 0.000000
vn 0.983999 -0.178172 0.000000
vn 1.000000 0.000000 0.000000
vn 1.000000 -0.000000 0.000000
vn 1.000000 0.000000 0.000000
vn 0.983999 -0.178172 0.000000
vn 1.000000 -0.000000 0.000000
vn 0.934355 -0.356343 0.000000
vn 0.652691 -0.757624 0.000000
vn 0.765110 -0.643900 0.000000
vn 0.934355 -0.356343 0.000000
vn 0.983999 -0.178172 0.000000
vn 0.934355 -0.356343 0.000000
vn 0.765110 -0.643900 0.000000
vn 0.983999 -0.178172 0.000000
vn 0.652691 -0.757624 0.000000
vn 0.181825 -0.983331 0.000000
vn 0.363651 -0.931535 0.000000
vn 0.652691 -0.757624 0.000000
vn 0.765110 -0.643900 0.000000
vn 0.652691 -0.757624 0.000000
vn 0.363651 -0.931535 0.000000
vn 0.765110 -0.643900 0.000000
vn -0.000001 0.000000 1.000000
vn -0.000001 -0.000000 1.000000
vn -0.000001 0.000000 1.000000
vn -0.000001 0.000000 1.000000
vn -0.000001 0.000000 1.000000
vn -0.000001 0.000000 1.000000
vn -0.000001 0.000000 1.000000
vn -0.000001 0.000000 1.000000
vn -0.000001 -0.000000 1.000000
vn -0.000001 0.000003 1.000000
vn -0.000001 0.000001 1.000000
vn -0.000001 -0.000000 1.000000
vn -0.000001 0.000000 1.000000
vn -0.000001 -0.000000 1.000000
vn -0.000001 0.000001 1.000000
vn -0.000001 0.000000 1.000000
vn -0.000001 0.000003 1.000000
vn 0.000000 0.000007 1.000000
vn -0.000001 0.000004 1.000000
vn -0.000001 0.000003 1.000000
vn -0.000001 0.000001 1.000000
vn -0.000001 0.000003 1.000000
vn -0.000001 0.000004 1.000000
vn -0.000001 0.000001 1.000000
vn -0.000000 1.000000 0.000000
vn -0.000000 1.000000 0.000000
vn -0.000000 1.000000 0.000000
vn -0.000000 1.000000 0.000000
vn -0.000000 1.000000 0.000000
vn -0.000000 1.000000 0.000000
vn -0.000000 1.000000 0.000000
vn -0.000000 1.000000 0.000000
vn -0.181825 -0.983331 -0.000000
vn 0.363651 -0.931535 0.000000
vn 0.181825 -0.983331 0.000000
vn -0.181825 -0.983331 -0.000000
vn -0.363651 -0.931535 -0.000000
vn -0.181825 -0.983331 -0.000000
vn 0.181825 -0.983331 0.000000
vn -0.363651 -0.931535 -0.000000
# 112 vertex normals

g mat1
f 5/1/1 6/2/2 2/3/3
f 1/5/5 5/6/6 2/7/7
f 6/9/9 7/10/10 3/11/11
f 2/13/13 6/14/14 3/15/15
f 7/17/17 8/18/18 4/19/19
f 3/21/21 7/22/22 4/23/23
f 9/25/25 10/26/26 6/27/27
f 5/29/29 9/30/30 6/31/31
f 10/33/33 11/34/34 7/35/35
f 6/37/37 10/38/38 7/39/39
f 11/41/41 12/42/42 8/43/43
f 7/45/45 11/46/46 8/47/47
f 13/49/49 14/50/50 10/51/51
f 9/53/53 13/54/54 10/55/55
f 14/57/57 15/58/58 11/59/59
f 10/61/61 14/62/62 11/63/63
f 15/65/65 16/66/66 12/67/67
f 11/69/69 15/70/70 12/71/71
f 1/73/73 2/74/74 14/75/75
f 13/77/77 1/78/78 14/79/79
f 2/81/81 3/82/82 15/83/83
f 14/85/85 2/86/86 15/87/87
f 3/89/89 4/90/90 16/91/91
f 15/93/93 3/94/94 16/95/95
f 9/97/97 5/98/98 1/99/99
f 13/101/101 9/102/102 1/103/103
f 8/105/105 12/106/106 16/107/107
f 4/109/109 8/110/110 16/111/111
# 28 elements

