# Created by 3DAce v2.72


g
v 0.000000 1.769991 2.793418
v -0.022975 1.747017 2.793418
v 0.022975 1.747018 2.793418
v 0.000000 1.724043 2.793418
v 0.022975 1.747018 0.803623
v 0.000000 1.724043 0.803623
v 0.000000 1.769991 0.803623
v -0.022975 1.747017 0.803623
v 0.000000 1.769991 2.793418
v -0.022975 1.747017 2.793418
v 0.022975 1.747018 2.793418
v 0.000000 1.724043 2.793418
v 0.000000 1.628087 2.793418
v -0.022975 1.605113 2.793418
v 0.022975 1.605114 2.793418
v 0.000000 1.582139 2.793418
v 0.022975 1.605114 0.803623
v 0.000000 1.582139 0.803623
v 0.000000 1.628087 0.803623
v -0.022975 1.605113 0.803623
v 0.000000 1.628087 2.793418
v -0.022975 1.605113 2.793418
v 0.022975 1.605114 2.793418
v 0.000000 1.582139 2.793418
v 0.081343 1.723028 2.793418
v 0.049959 1.731438 2.793418
v 0.072935 1.691644 2.793418
v 0.041550 1.700054 2.793418
v 0.072935 1.691644 0.803623
v 0.041550 1.700054 0.803623
v 0.081343 1.723028 0.803623
v 0.049959 1.731438 0.803623
v 0.081343 1.723028 2.793418
v 0.049959 1.731438 2.793418
v 0.072935 1.691644 2.793418
v 0.041550 1.700054 2.793418
v -0.041550 1.652076 2.793418
v -0.072934 1.660486 2.793418
v -0.049958 1.620692 2.793418
v -0.081342 1.629102 2.793418
v -0.049958 1.620692 0.803623
v -0.081342 1.629102 0.803623
v -0.041550 1.652076 0.803623
v -0.072934 1.660486 0.803623
v -0.041550 1.652076 2.793418
v -0.072934 1.660486 2.793418
v -0.049958 1.620692 2.793418
v -0.081342 1.629102 2.793418
v 0.081342 1.629102 2.793418
v 0.072934 1.660486 2.793418
v 0.049960 1.620691 2.793418
v 0.041550 1.652076 2.793418
v 0.049960 1.620691 0.803623
v 0.041550 1.652076 0.803623
v 0.081342 1.629102 0.803623
v 0.072934 1.660486 0.803623
v 0.081342 1.629102 2.793418
v 0.072934 1.660486 2.793418
v 0.049960 1.620691 2.793418
v 0.041550 1.652076 2.793418
v -0.041550 1.700054 2.793418
v -0.049959 1.731438 2.793418
v -0.072933 1.691644 2.793418
v -0.081343 1.723028 2.793418
v -0.072933 1.691644 0.803623
v -0.081343 1.723028 0.803623
v -0.041550 1.700054 0.803623
v -0.049959 1.731438 0.803623
v -0.041550 1.700054 2.793418
v -0.049959 1.731438 2.793418
v -0.072933 1.691644 2.793418
v -0.081343 1.723028 2.793418
v -0.110368 1.612711 2.730743
v 0.000000 1.548990 2.730743
v 0.000000 1.803875 2.730743
v -0.110368 1.740153 2.730743
v -0.110368 1.612711 2.161272
v 0.000000 1.548990 2.161272
v 0.000000 1.803875 2.161272
v -0.110368 1.740153 2.161272
v 0.000000 1.676432 2.730743
v -0.110368 1.612711 2.730743
v 0.000000 1.548990 2.730743
v 0.000000 1.803875 2.730743
v -0.110368 1.740153 2.730743
v -0.110368 1.612711 2.161272
v 0.000000 1.548990 2.161272
v 0.000000 1.803875 2.161272
v -0.110368 1.740153 2.161272
v 0.000000 1.676432 2.161272
v 0.110368 1.612711 2.730743
v -0.000000 1.548990 2.730743
v -0.000000 1.803875 2.730743
v 0.110368 1.740153 2.730743
v 0.110368 1.612711 2.161272
v -0.000000 1.548990 2.161272
v -0.000000 1.803875 2.161272
v 0.110368 1.740153 2.161272
v -0.000000 1.676432 2.730743
v 0.110368 1.612711 2.730743
v -0.000000 1.548990 2.730743
v -0.000000 1.803875 2.730743
v 0.110368 1.740153 2.730743
v 0.110368 1.612711 2.161272
v -0.000000 1.548990 2.161272
v -0.000000 1.803875 2.161272
v 0.110368 1.740153 2.161272
v -0.000000 1.676432 2.161272
# 108 vertices

vt 0.617600 0.016770
vt 0.617600 0.482210
vt 0.622970 0.482210
vt 0.617600 0.016770
vt 0.622970 0.016770
vt 0.617600 0.016770
vt 0.622970 0.482210
vt 0.622970 0.016770
vt 0.612230 0.482210
vt 0.612230 0.016770
vt 0.617600 0.016770
vt 0.612230 0.482210
vt 0.617600 0.482210
vt 0.612230 0.482210
vt 0.617600 0.016770
vt 0.617600 0.482210
vt 0.617600 0.016770
vt 0.622970 0.016770
vt 0.622970 0.482210
vt 0.617600 0.016770
vt 0.617600 0.482210
vt 0.617600 0.016770
vt 0.622970 0.482210
vt 0.617600 0.482210
vt 0.612230 0.482210
vt 0.617600 0.482210
vt 0.617600 0.016770
vt 0.612230 0.482210
vt 0.612230 0.016770
vt 0.612230 0.482210
vt 0.617600 0.016770
vt 0.612230 0.016770
vt 0.486630 0.365880
vt 0.530170 0.322340
vt 0.573710 0.365880
vt 0.486630 0.365880
vt 0.530170 0.409420
vt 0.486630 0.365880
vt 0.573710 0.365880
vt 0.530170 0.409420
vt 0.617600 0.016770
vt 0.617600 0.482210
vt 0.622970 0.482210
vt 0.617600 0.016770
vt 0.622970 0.016770
vt 0.617600 0.016770
vt 0.622970 0.482210
vt 0.622970 0.016770
vt 0.612230 0.482210
vt 0.612230 0.016770
vt 0.617600 0.016770
vt 0.612230 0.482210
vt 0.617600 0.482210
vt 0.612230 0.482210
vt 0.617600 0.016770
vt 0.617600 0.482210
vt 0.617600 0.016770
vt 0.622970 0.016770
vt 0.622970 0.482210
vt 0.617600 0.016770
vt 0.617600 0.482210
vt 0.617600 0.016770
vt 0.622970 0.482210
vt 0.617600 0.482210
vt 0.612230 0.482210
vt 0.617600 0.482210
vt 0.617600 0.016770
vt 0.612230 0.482210
vt 0.612230 0.016770
vt 0.612230 0.482210
vt 0.617600 0.016770
vt 0.612230 0.016770
vt 0.486630 0.365880
vt 0.530170 0.322340
vt 0.573710 0.365880
vt 0.486630 0.365880
vt 0.530170 0.409420
vt 0.486630 0.365880
vt 0.573710 0.365880
vt 0.530170 0.409420
vt 0.617600 0.016770
vt 0.617600 0.482210
vt 0.622970 0.482210
vt 0.617600 0.016770
vt 0.622970 0.016770
vt 0.617600 0.016770
vt 0.622970 0.482210
vt 0.622970 0.016770
vt 0.612230 0.482210
vt 0.612230 0.016770
vt 0.617600 0.016770
vt 0.612230 0.482210
vt 0.617600 0.482210
vt 0.612230 0.482210
vt 0.617600 0.016770
vt 0.617600 0.482210
vt 0.617600 0.016770
vt 0.622970 0.016770
vt 0.622970 0.482210
vt 0.617600 0.016770
vt 0.617600 0.482210
vt 0.617600 0.016770
vt 0.622970 0.482210
vt 0.617600 0.482210
vt 0.612230 0.482210
vt 0.617600 0.482210
vt 0.617600 0.016770
vt 0.612230 0.482210
vt 0.612230 0.016770
vt 0.612230 0.482210
vt 0.617600 0.016770
vt 0.612230 0.016770
vt 0.486630 0.365880
vt 0.530170 0.322340
vt 0.573710 0.365880
vt 0.486630 0.365880
vt 0.530170 0.409420
vt 0.486630 0.365880
vt 0.573710 0.365880
vt 0.530170 0.409420
vt 0.617600 0.016770
vt 0.617600 0.482210
vt 0.622970 0.482210
vt 0.617600 0.016770
vt 0.622970 0.016770
vt 0.617600 0.016770
vt 0.622970 0.482210
vt 0.622970 0.016770
vt 0.612230 0.482210
vt 0.612230 0.016770
vt 0.617600 0.016770
vt 0.612230 0.482210
vt 0.617600 0.482210
vt 0.612230 0.482210
vt 0.617600 0.016770
vt 0.617600 0.482210
vt 0.617600 0.016770
vt 0.622970 0.016770
vt 0.622970 0.482210
vt 0.617600 0.016770
vt 0.617600 0.482210
vt 0.617600 0.016770
vt 0.622970 0.482210
vt 0.617600 0.482210
vt 0.612230 0.482210
vt 0.617600 0.482210
vt 0.617600 0.016770
vt 0.612230 0.482210
vt 0.612230 0.016770
vt 0.612230 0.482210
vt 0.617600 0.016770
vt 0.612230 0.016770
vt 0.486630 0.365880
vt 0.530170 0.322340
vt 0.573710 0.365880
vt 0.486630 0.365880
vt 0.530170 0.409420
vt 0.486630 0.365880
vt 0.573710 0.365880
vt 0.530170 0.409420
vt 0.617600 0.016770
vt 0.617600 0.482210
vt 0.622970 0.482210
vt 0.617600 0.016770
vt 0.622970 0.016770
vt 0.617600 0.016770
vt 0.622970 0.482210
vt 0.622970 0.016770
vt 0.612230 0.482210
vt 0.612230 0.016770
vt 0.617600 0.016770
vt 0.612230 0.482210
vt 0.617600 0.482210
vt 0.612230 0.482210
vt 0.617600 0.016770
vt 0.617600 0.482210
vt 0.617600 0.016770
vt 0.622970 0.016770
vt 0.622970 0.482210
vt 0.617600 0.016770
vt 0.617600 0.482210
vt 0.617600 0.016770
vt 0.622970 0.482210
vt 0.617600 0.482210
vt 0.612230 0.482210
vt 0.617600 0.482210
vt 0.617600 0.016770
vt 0.612230 0.482210
vt 0.612230 0.016770
vt 0.612230 0.482210
vt 0.617600 0.016770
vt 0.612230 0.016770
vt 0.486630 0.365880
vt 0.530170 0.322340
vt 0.573710 0.365880
vt 0.486630 0.365880
vt 0.530170 0.409420
vt 0.486630 0.365880
vt 0.573710 0.365880
vt 0.530170 0.409420
vt 0.617600 0.016770
vt 0.617600 0.482210
vt 0.622970 0.482210
vt 0.617600 0.016770
vt 0.622970 0.016770
vt 0.617600 0.016770
vt 0.622970 0.482210
vt 0.622970 0.016770
vt 0.612230 0.482210
vt 0.612230 0.016770
vt 0.617600 0.016770
vt 0.612230 0.482210
vt 0.617600 0.482210
vt 0.612230 0.482210
vt 0.617600 0.016770
vt 0.617600 0.482210
vt 0.617600 0.016770
vt 0.622970 0.016770
vt 0.622970 0.482210
vt 0.617600 0.016770
vt 0.617600 0.482210
vt 0.617600 0.016770
vt 0.622970 0.482210
vt 0.617600 0.482210
vt 0.612230 0.482210
vt 0.617600 0.482210
vt 0.617600 0.016770
vt 0.612230 0.482210
vt 0.612230 0.016770
vt 0.612230 0.482210
vt 0.617600 0.016770
vt 0.612230 0.016770
vt 0.486630 0.365880
vt 0.530170 0.322340
vt 0.573710 0.365880
vt 0.486630 0.365880
vt 0.530170 0.409420
vt 0.486630 0.365880
vt 0.573710 0.365880
vt 0.530170 0.409420
vt 0.271700 0.846630
vt 0.252340 0.814160
vt 0.291060 0.814160
vt 0.271700 0.846630
vt 0.329790 0.814160
vt 0.310430 0.846630
vt 0.291060 0.814160
vt 0.329790 0.814160
vt 0.310430 0.846630
vt 0.271700 0.846630
vt 0.291060 0.814160
vt 0.310430 0.846630
vt 0.252270 0.814220
vt 0.271640 0.846690
vt 0.291000 0.814220
vt 0.252270 0.814220
vt 0.310360 0.846690
vt 0.329730 0.814220
vt 0.291000 0.814220
vt 0.310360 0.846690
vt 0.271640 0.846690
vt 0.310360 0.846690
vt 0.291000 0.814220
vt 0.271640 0.846690
vt 0.268580 0.983800
vt 0.295930 0.983800
vt 0.295930 0.861000
vt 0.268580 0.983800
vt 0.268580 0.861000
vt 0.268580 0.983800
vt 0.295930 0.861000
vt 0.268580 0.861000
vt 0.268710 0.983800
vt 0.296060 0.983800
vt 0.296060 0.861000
vt 0.268710 0.983800
vt 0.268710 0.861000
vt 0.268710 0.983800
vt 0.296060 0.861000
vt 0.268710 0.861000
vt 0.296060 0.983800
vt 0.268580 0.983800
vt 0.268580 0.861000
vt 0.296060 0.983800
vt 0.296060 0.861000
vt 0.296060 0.983800
vt 0.268580 0.861000
vt 0.296060 0.861000
vt 0.271700 0.846630
vt 0.291060 0.814160
vt 0.252340 0.814160
vt 0.271700 0.846630
vt 0.329790 0.814160
vt 0.291060 0.814160
vt 0.310430 0.846630
vt 0.329790 0.814160
vt 0.310430 0.846630
vt 0.291060 0.814160
vt 0.271700 0.846630
vt 0.310430 0.846630
vt 0.252270 0.814220
vt 0.291000 0.814220
vt 0.271640 0.846690
vt 0.252270 0.814220
vt 0.310360 0.846690
vt 0.291000 0.814220
vt 0.329730 0.814220
vt 0.310360 0.846690
vt 0.271640 0.846690
vt 0.291000 0.814220
vt 0.310360 0.846690
vt 0.271640 0.846690
vt 0.268580 0.983800
vt 0.295930 0.861000
vt 0.295930 0.983800
vt 0.268580 0.983800
vt 0.268580 0.861000
vt 0.295930 0.861000
vt 0.268580 0.983800
vt 0.268580 0.861000
vt 0.268710 0.983800
vt 0.296060 0.861000
vt 0.296060 0.983800
vt 0.268710 0.983800
vt 0.268710 0.861000
vt 0.296060 0.861000
vt 0.268710 0.983800
vt 0.268710 0.861000
vt 0.296060 0.983800
vt 0.268580 0.861000
vt 0.268580 0.983800
vt 0.296060 0.983800
vt 0.296060 0.861000
vt 0.268580 0.861000
vt 0.296060 0.983800
vt 0.296060 0.861000
# 336 texture vertices

vn 0.707108 -0.707105 0.000000
vn 0.707108 -0.707105 0.000000
vn 0.707108 -0.707105 0.000000
vn 0.707108 -0.707105 0.000000
vn 0.707108 -0.707105 0.000000
vn 0.707108 -0.707105 0.000000
vn 0.707108 -0.707105 0.000000
vn 0.707108 -0.707105 0.000000
vn -0.707090 0.707124 0.000000
vn -0.707090 0.707124 0.000000
vn -0.707090 0.707124 0.000000
vn -0.707090 0.707124 0.000000
vn -0.707090 0.707124 0.000000
vn -0.707090 0.707124 0.000000
vn -0.707090 0.707124 0.000000
vn -0.707090 0.707124 0.000000
vn 0.707075 0.707138 0.000000
vn 0.707075 0.707138 -0.000000
vn 0.707075 0.707138 0.000000
vn 0.707075 0.707138 0.000000
vn 0.707075 0.707138 0.000000
vn 0.707075 0.707138 0.000000
vn 0.707075 0.707138 0.000000
vn 0.707075 0.707138 0.000000
vn -0.707094 -0.707120 0.000000
vn -0.707094 -0.707120 -0.000000
vn -0.707094 -0.707120 0.000000
vn -0.707094 -0.707120 0.000000
vn -0.707094 -0.707120 0.000000
vn -0.707094 -0.707120 0.000000
vn -0.707094 -0.707120 0.000000
vn -0.707094 -0.707120 0.000000
vn 0.000000 0.000000 1.000000
vn 0.000000 0.000000 1.000000
vn 0.000000 0.000000 1.000000
vn 0.000000 0.000000 1.000000
vn 0.000000 -0.000000 1.000000
vn 0.000000 0.000000 1.000000
vn 0.000000 0.000000 1.000000
vn 0.000000 -0.000000 1.000000
vn 0.707108 -0.707105 0.000000
vn 0.707108 -0.707105 0.000000
vn 0.707108 -0.707105 0.000000
vn 0.707108 -0.707105 0.000000
vn 0.707108 -0.707105 0.000000
vn 0.707108 -0.707105 0.000000
vn 0.707108 -0.707105 0.000000
vn 0.707108 -0.707105 0.000000
vn -0.707090 0.707124 0.000000
vn -0.707090 0.707124 0.000000
vn -0.707090 0.707124 0.000000
vn -0.707090 0.707124 0.000000
vn -0.707090 0.707124 0.000000
vn -0.707090 0.707124 0.000000
vn -0.707090 0.707124 0.000000
vn -0.707090 0.707124 0.000000
vn 0.707075 0.707138 0.000000
vn 0.707075 0.707138 -0.000000
vn 0.707075 0.707138 0.000000
vn 0.707075 0.707138 0.000000
vn 0.707075 0.707138 0.000000
vn 0.707075 0.707138 0.000000
vn 0.707075 0.707138 0.000000
vn 0.707075 0.707138 0.000000
vn -0.707094 -0.707120 0.000000
vn -0.707094 -0.707120 -0.000000
vn -0.707094 -0.707120 0.000000
vn -0.707094 -0.707120 0.000000
vn -0.707094 -0.707120 0.000000
vn -0.707094 -0.707120 0.000000
vn -0.707094 -0.707120 0.000000
vn -0.707094 -0.707120 0.000000
vn 0.000000 0.000000 1.000000
vn 0.000000 0.000000 1.000000
vn 0.000000 0.000000 1.000000
vn 0.000000 0.000000 1.000000
vn 0.000000 -0.000000 1.000000
vn 0.000000 0.000000 1.000000
vn 0.000000 0.000000 1.000000
vn 0.000000 -0.000000 1.000000
vn -0.258830 -0.965923 0.000000
vn -0.258830 -0.965923 0.000000
vn -0.258830 -0.965923 0.000000
vn -0.258830 -0.965923 0.000000
vn -0.258830 -0.965923 0.000000
vn -0.258830 -0.965923 0.000000
vn -0.258830 -0.965923 0.000000
vn -0.258830 -0.965923 0.000000
vn 0.258838 0.965921 0.000000
vn 0.258838 0.965921 0.000000
vn 0.258838 0.965921 0.000000
vn 0.258838 0.965921 0.000000
vn 0.258838 0.965921 0.000000
vn 0.258838 0.965921 0.000000
vn 0.258838 0.965921 0.000000
vn 0.258838 0.965921 0.000000
vn 0.965936 -0.258781 0.000000
vn 0.965936 -0.258781 0.000000
vn 0.965936 -0.258781 0.000000
vn 0.965936 -0.258781 0.000000
vn 0.965936 -0.258781 0.000000
vn 0.965936 -0.258781 0.000000
vn 0.965936 -0.258781 0.000000
vn 0.965936 -0.258781 0.000000
vn -0.965928 0.258810 0.000000
vn -0.965928 0.258810 0.000000
vn -0.965928 0.258810 0.000000
vn -0.965928 0.258810 0.000000
vn -0.965928 0.258810 0.000000
vn -0.965928 0.258810 0.000000
vn -0.965928 0.258810 0.000000
vn -0.965928 0.258810 0.000000
vn 0.000000 -0.000000 1.000000
vn 0.000000 -0.000000 1.000000
vn 0.000000 -0.000000 1.000000
vn 0.000000 -0.000000 1.000000
vn -0.000000 -0.000000 1.000000
vn 0.000000 -0.000000 1.000000
vn 0.000000 -0.000000 1.000000
vn -0.000000 -0.000000 1.000000
vn -0.258841 -0.965920 0.000000
vn -0.258841 -0.965920 0.000000
vn -0.258841 -0.965920 0.000000
vn -0.258841 -0.965920 0.000000
vn -0.258841 -0.965920 0.000000
vn -0.258841 -0.965920 0.000000
vn -0.258841 -0.965920 0.000000
vn -0.258841 -0.965920 0.000000
vn 0.258841 0.965920 0.000000
vn 0.258841 0.965920 0.000000
vn 0.258841 0.965920 0.000000
vn 0.258841 0.965920 0.000000
vn 0.258841 0.965920 0.000000
vn 0.258841 0.965920 0.000000
vn 0.258841 0.965920 0.000000
vn 0.258841 0.965920 0.000000
vn 0.965936 -0.258781 0.000000
vn 0.965936 -0.258781 0.000000
vn 0.965936 -0.258781 0.000000
vn 0.965936 -0.258781 0.000000
vn 0.965936 -0.258781 0.000000
vn 0.965936 -0.258781 0.000000
vn 0.965936 -0.258781 0.000000
vn 0.965936 -0.258781 0.000000
vn -0.965936 0.258781 0.000000
vn -0.965936 0.258781 0.000000
vn -0.965936 0.258781 0.000000
vn -0.965936 0.258781 0.000000
vn -0.965936 0.258781 0.000000
vn -0.965936 0.258781 0.000000
vn -0.965936 0.258781 0.000000
vn -0.965936 0.258781 0.000000
vn 0.000000 -0.000000 1.000000
vn 0.000000 -0.000000 1.000000
vn 0.000000 -0.000000 1.000000
vn 0.000000 -0.000000 1.000000
vn -0.000000 -0.000000 1.000000
vn 0.000000 -0.000000 1.000000
vn 0.000000 -0.000000 1.000000
vn -0.000000 -0.000000 1.000000
vn -0.965922 -0.258832 0.000000
vn -0.965922 -0.258832 0.000000
vn -0.965922 -0.258832 0.000000
vn -0.965922 -0.258832 0.000000
vn -0.965922 -0.258832 0.000000
vn -0.965922 -0.258832 0.000000
vn -0.965922 -0.258832 0.000000
vn -0.965922 -0.258832 0.000000
vn 0.965936 0.258781 0.000000
vn 0.965936 0.258781 0.000000
vn 0.965936 0.258781 0.000000
vn 0.965936 0.258781 0.000000
vn 0.965936 0.258781 0.000000
vn 0.965936 0.258781 0.000000
vn 0.965936 0.258781 0.000000
vn 0.965936 0.258781 0.000000
vn 0.258881 -0.965909 0.000000
vn 0.258881 -0.965909 0.000000
vn 0.258881 -0.965909 0.000000
vn 0.258881 -0.965909 0.000000
vn 0.258881 -0.965909 0.000000
vn 0.258881 -0.965909 0.000000
vn 0.258881 -0.965909 0.000000
vn 0.258881 -0.965909 0.000000
vn -0.258841 0.965920 0.000000
vn -0.258841 0.965920 0.000000
vn -0.258841 0.965920 0.000000
vn -0.258841 0.965920 0.000000
vn -0.258841 0.965920 0.000000
vn -0.258841 0.965920 0.000000
vn -0.258841 0.965920 0.000000
vn -0.258841 0.965920 0.000000
vn 0.000000 0.000000 1.000000
vn 0.000000 -0.000000 1.000000
vn 0.000000 0.000000 1.000000
vn 0.000000 0.000000 1.000000
vn -0.000000 0.000000 1.000000
vn 0.000000 0.000000 1.000000
vn 0.000000 0.000000 1.000000
vn -0.000000 0.000000 1.000000
vn -0.965921 -0.258839 0.000000
vn -0.965921 -0.258839 0.000000
vn -0.965921 -0.258839 0.000000
vn -0.965921 -0.258839 0.000000
vn -0.965921 -0.258839 0.000000
vn -0.965921 -0.258839 0.000000
vn -0.965921 -0.258839 0.000000
vn -0.965921 -0.258839 0.000000
vn 0.965928 0.258810 0.000000
vn 0.965928 0.258810 0.000000
vn 0.965928 0.258810 0.000000
vn 0.965928 0.258810 0.000000
vn 0.965928 0.258810 0.000000
vn 0.965928 0.258810 0.000000
vn 0.965928 0.258810 0.000000
vn 0.965928 0.258810 0.000000
vn 0.258846 -0.965919 0.000000
vn 0.258846 -0.965919 0.000000
vn 0.258846 -0.965919 0.000000
vn 0.258846 -0.965919 0.000000
vn 0.258846 -0.965919 0.000000
vn 0.258846 -0.965919 0.000000
vn 0.258846 -0.965919 0.000000
vn 0.258846 -0.965919 0.000000
vn -0.258838 0.965921 0.000000
vn -0.258838 0.965921 0.000000
vn -0.258838 0.965921 0.000000
vn -0.258838 0.965921 0.000000
vn -0.258838 0.965921 0.000000
vn -0.258838 0.965921 0.000000
vn -0.258838 0.965921 0.000000
vn -0.258838 0.965921 0.000000
vn 0.000000 0.000000 1.000000
vn 0.000000 -0.000000 1.000000
vn 0.000000 0.000000 1.000000
vn 0.000000 0.000000 1.000000
vn -0.000000 0.000000 1.000000
vn 0.000000 0.000000 1.000000
vn 0.000000 0.000000 1.000000
vn -0.000000 0.000000 1.000000
vn 0.000000 0.000000 1.000000
vn 0.000000 0.000000 1.000000
vn 0.000000 0.000000 1.000000
vn 0.000000 0.000000 1.000000
vn 0.000000 -0.000000 1.000000
vn 0.000000 -0.000000 1.000000
vn 0.000000 0.000000 1.000000
vn 0.000000 -0.000000 1.000000
vn 0.000000 -0.000000 1.000000
vn 0.000000 0.000000 1.000000
vn 0.000000 0.000000 1.000000
vn 0.000000 -0.000000 1.000000
vn 0.000000 -0.000000 -1.000000
vn 0.000000 -0.000000 -1.000000
vn 0.000000 0.000000 -1.000000
vn 0.000000 -0.000000 -1.000000
vn -0.000000 0.000000 -1.000000
vn -0.000000 0.000000 -1.000000
vn 0.000000 0.000000 -1.000000
vn -0.000000 0.000000 -1.000000
vn 0.000000 -0.000000 -1.000000
vn -0.000000 0.000000 -1.000000
vn 0.000000 0.000000 -1.000000
vn 0.000000 -0.000000 -1.000000
vn -0.500000 -0.866026 0.000000
vn -0.500000 -0.866026 -0.000000
vn -0.500000 -0.866026 0.000000
vn -0.500000 -0.866026 0.000000
vn -0.500000 -0.866026 0.000000
vn -0.500000 -0.866026 0.000000
vn -0.500000 -0.866026 0.000000
vn -0.500000 -0.866026 0.000000
vn -0.500006 0.866022 0.000000
vn -0.500006 0.866022 0.000000
vn -0.500006 0.866022 0.000000
vn -0.500006 0.866022 0.000000
vn -0.500006 0.866022 0.000000
vn -0.500006 0.866022 0.000000
vn -0.500006 0.866022 0.000000
vn -0.500006 0.866022 0.000000
vn -1.000000 0.000000 0.000000
vn -1.000000 0.000000 0.000000
vn -1.000000 0.000000 0.000000
vn -1.000000 0.000000 0.000000
vn -1.000000 0.000000 0.000000
vn -1.000000 0.000000 0.000000
vn -1.000000 0.000000 0.000000
vn -1.000000 0.000000 0.000000
vn 0.000000 0.000000 1.000000
vn 0.000000 0.000000 1.000000
vn -0.000000 0.000000 1.000000
vn 0.000000 0.000000 1.000000
vn 0.000000 -0.000000 1.000000
vn 0.000000 0.000000 1.000000
vn 0.000000 -0.000000 1.000000
vn 0.000000 -0.000000 1.000000
vn 0.000000 -0.000000 1.000000
vn 0.000000 0.000000 1.000000
vn 0.000000 0.000000 1.000000
vn 0.000000 -0.000000 1.000000
vn -0.000000 -0.000000 -1.000000
vn 0.000000 0.000000 -1.000000
vn 0.000000 -0.000000 -1.000000
vn -0.000000 -0.000000 -1.000000
vn 0.000000 0.000000 -1.000000
vn 0.000000 0.000000 -1.000000
vn 0.000000 0.000000 -1.000000
vn 0.000000 0.000000 -1.000000
vn 0.000000 -0.000000 -1.000000
vn 0.000000 0.000000 -1.000000
vn 0.000000 0.000000 -1.000000
vn 0.000000 -0.000000 -1.000000
vn 0.500000 -0.866026 0.000000
vn 0.500000 -0.866026 0.000000
vn 0.500000 -0.866026 0.000000
vn 0.500000 -0.866026 0.000000
vn 0.500000 -0.866026 0.000000
vn 0.500000 -0.866026 0.000000
vn 0.500000 -0.866026 0.000000
vn 0.500000 -0.866026 0.000000
vn 0.500006 0.866022 0.000000
vn 0.500006 0.866022 0.000000
vn 0.500006 0.866022 -0.000000
vn 0.500006 0.866022 0.000000
vn 0.500006 0.866022 0.000000
vn 0.500006 0.866022 0.000000
vn 0.500006 0.866022 0.000000
vn 0.500006 0.866022 0.000000
vn 1.000000 0.000000 0.000000
vn 1.000000 0.000000 0.000000
vn 1.000000 -0.000000 0.000000
vn 1.000000 0.000000 0.000000
vn 1.000000 0.000000 -0.000000
vn 1.000000 0.000000 0.000000
vn 1.000000 0.000000 0.000000
vn 1.000000 0.000000 -0.000000
# 336 vertex normals

g mat1
f 4/1/1 6/2/2 5/3/3
f 3/5/5 4/6/6 5/7/7
f 8/9/9 2/10/10 1/11/11
f 7/13/13 8/14/14 1/15/15
f 1/17/17 3/18/18 5/19/19
f 7/21/21 1/22/22 5/23/23
f 8/25/25 6/26/26 4/27/27
f 2/29/29 8/30/30 4/31/31
f 10/33/33 12/34/34 11/35/35
f 9/37/37 10/38/38 11/39/39
f 16/41/41 18/42/42 17/43/43
f 15/45/45 16/46/46 17/47/47
f 20/49/49 14/50/50 13/51/51
f 19/53/53 20/54/54 13/55/55
f 13/57/57 15/58/58 17/59/59
f 19/61/61 13/62/62 17/63/63
f 20/65/65 18/66/66 16/67/67
f 14/69/69 20/70/70 16/71/71
f 22/73/73 24/74/74 23/75/75
f 21/77/77 22/78/78 23/79/79
f 28/81/81 30/82/82 29/83/83
f 27/85/85 28/86/86 29/87/87
f 32/89/89 26/90/90 25/91/91
f 31/93/93 32/94/94 25/95/95
f 25/97/97 27/98/98 29/99/99
f 31/101/101 25/102/102 29/103/103
f 32/105/105 30/106/106 28/107/107
f 26/109/109 32/110/110 28/111/111
f 34/113/113 36/114/114 35/115/115
f 33/117/117 34/118/118 35/119/119
f 40/121/121 42/122/122 41/123/123
f 39/125/125 40/126/126 41/127/127
f 44/129/129 38/130/130 37/131/131
f 43/133/133 44/134/134 37/135/135
f 37/137/137 39/138/138 41/139/139
f 43/141/141 37/142/142 41/143/143
f 44/145/145 42/146/146 40/147/147
f 38/149/149 44/150/150 40/151/151
f 46/153/153 48/154/154 47/155/155
f 45/157/157 46/158/158 47/159/159
f 52/161/161 54/162/162 53/163/163
f 51/165/165 52/166/166 53/167/167
f 56/169/169 50/170/170 49/171/171
f 55/173/173 56/174/174 49/175/175
f 49/177/177 51/178/178 53/179/179
f 55/181/181 49/182/182 53/183/183
f 56/185/185 54/186/186 52/187/187
f 50/189/189 56/190/190 52/191/191
f 58/193/193 60/194/194 59/195/195
f 57/197/197 58/198/198 59/199/199
f 64/201/201 66/202/202 65/203/203
f 63/205/205 64/206/206 65/207/207
f 68/209/209 62/210/210 61/211/211
f 67/213/213 68/214/214 61/215/215
f 61/217/217 63/218/218 65/219/219
f 67/221/221 61/222/222 65/223/223
f 68/225/225 66/226/226 64/227/227
f 62/229/229 68/230/230 64/231/231
f 70/233/233 72/234/234 71/235/235
f 69/237/237 70/238/238 71/239/239
f 82/241/241 83/242/242 81/243/243
f 84/245/245 85/246/246 81/247/247
f 85/249/249 82/250/250 81/251/251
f 87/253/253 86/254/254 90/255/255
f 89/257/257 88/258/258 90/259/259
f 86/261/261 89/262/262 90/263/263
f 77/265/265 78/266/266 74/267/267
f 73/269/269 77/270/270 74/271/271
f 79/273/273 80/274/274 76/275/275
f 75/277/277 79/278/278 76/279/279
f 80/281/281 77/282/282 73/283/283
f 76/285/285 80/286/286 73/287/287
f 100/289/289 99/290/290 101/291/291
f 102/293/293 99/294/294 103/295/295
f 103/297/297 99/298/298 100/299/299
f 105/301/301 108/302/302 104/303/303
f 107/305/305 108/306/306 106/307/307
f 104/309/309 108/310/310 107/311/311
f 95/313/313 92/314/314 96/315/315
f 91/317/317 92/318/318 95/319/319
f 97/321/321 94/322/322 98/323/323
f 93/325/325 94/326/326 97/327/327
f 98/329/329 91/330/330 95/331/331
f 94/333/333 91/334/334 98/335/335
# 84 elements

