# Created by 3DAce v2.72


g
v -1.025489 2.444872 0.816145
v -0.424110 2.663950 0.760489
v 0.424112 2.663950 0.760489
v -0.421900 1.011622 1.446694
v 0.422890 1.016021 1.442882
v 1.021470 2.444872 0.816145
v 1.047314 2.470755 0.597132
v 1.034797 2.628602 -1.240424
v 0.345524 2.638632 -1.240703
v -0.345522 2.638632 -1.240703
v 1.149986 0.137888 -1.584983
v -1.149984 0.137888 -1.584983
v -1.034795 2.628602 -1.240424
v -1.051333 2.470755 0.597132
v -0.424110 2.663950 -0.348142
v 0.424112 2.663950 -0.348142
v 1.576673 0.137888 -0.942815
v 0.525558 0.137888 -0.942815
v -0.525556 0.137888 -0.942815
v -1.576674 0.137888 -0.942815
v 0.422786 1.014164 -0.349237
v -0.423908 1.012061 -0.346722
v -1.576674 0.137888 0.566365
v 1.576672 0.137888 0.566364
v -1.154063 0.137888 1.821924
v -1.154062 0.137888 0.566365
v 1.143457 0.137888 1.821924
v 1.143457 0.137888 0.566365
v -0.001194 0.656909 1.310636
v -0.001156 0.131986 1.431361
v 0.000163 1.013042 0.536183
v -0.436228 0.132103 1.378992
v 0.434598 0.131317 1.379593
v 0.433591 0.137290 1.823177
v -0.437702 0.143594 1.858628
# 35 vertices

vt 0.657180 0.347030
vt 0.739660 0.347030
vt 0.721950 0.406860
vt 0.657180 0.347030
vt 0.670170 0.406860
vt 0.657180 0.347030
vt 0.721950 0.406860
vt 0.670170 0.406860
vt 0.430100 0.628560
vt 0.385390 0.591470
vt 0.550080 0.591470
vt 0.430100 0.628560
vt 0.505370 0.628560
vt 0.430100 0.628560
vt 0.550080 0.591470
vt 0.505370 0.628560
vt 0.812040 0.285920
vt 0.861900 0.286080
vt 0.861970 0.404400
vt 0.812040 0.285920
vt 0.812030 0.404400
vt 0.812040 0.285920
vt 0.861970 0.404400
vt 0.812030 0.404400
vt 0.355630 0.427580
vt 0.347120 0.251130
vt 0.406500 0.428290
vt 0.355630 0.427580
vt 0.457520 0.428290
vt 0.516900 0.251130
vt 0.508400 0.427580
vt 0.457520 0.428290
vt 0.505370 0.628560
vt 0.550080 0.591470
vt 0.580640 0.628560
vt 0.505370 0.628560
vt 0.430100 0.628560
vt 0.354840 0.628560
vt 0.385390 0.591470
vt 0.430100 0.628560
vt 0.098460 0.759720
vt 0.144390 0.759720
vt 0.123110 0.935670
vt 0.098460 0.759720
vt 0.275340 0.625010
vt 0.254590 0.441630
vt 0.299350 0.441630
vt 0.275340 0.625010
vt 0.353150 0.473380
vt 0.383680 0.473380
vt 0.383680 0.549470
vt 0.353150 0.473380
vt 0.549610 0.549470
vt 0.549610 0.473380
vt 0.580900 0.473380
vt 0.549610 0.549470
vt 0.457520 0.428290
vt 0.406500 0.428290
vt 0.347120 0.251130
vt 0.457520 0.428290
vt 0.516900 0.251130
vt 0.457520 0.428290
vt 0.347120 0.251130
vt 0.516900 0.251130
vt 0.388450 0.830980
vt 0.623080 0.830980
vt 0.623080 0.938410
vt 0.388450 0.830980
vt 0.388450 0.938410
vt 0.388450 0.830980
vt 0.623080 0.938410
vt 0.388450 0.938410
vt 0.131990 0.617500
vt 0.061880 0.441630
vt 0.149400 0.441630
vt 0.131990 0.617500
vt 0.147260 0.619410
vt 0.131990 0.617500
vt 0.149400 0.441630
vt 0.147260 0.619410
vt 0.252360 0.759720
vt 0.342170 0.759720
vt 0.270220 0.928450
vt 0.252360 0.759720
vt 0.254550 0.930290
vt 0.252360 0.759720
vt 0.270220 0.928450
vt 0.254550 0.930290
vt 0.147260 0.619410
vt 0.149400 0.441630
vt 0.254590 0.441630
vt 0.147260 0.619410
vt 0.275340 0.625010
vt 0.147260 0.619410
vt 0.254590 0.441630
vt 0.275340 0.625010
vt 0.144390 0.759720
vt 0.252360 0.759720
vt 0.254550 0.930290
vt 0.144390 0.759720
vt 0.123110 0.935670
vt 0.144390 0.759720
vt 0.254550 0.930290
vt 0.123110 0.935670
vt 0.664850 0.501450
vt 0.664720 0.622950
vt 0.632140 0.612850
vt 0.664850 0.501450
vt 0.625170 0.437210
vt 0.664850 0.501450
vt 0.632140 0.612850
vt 0.625170 0.437210
vt 0.480670 0.093860
vt 0.480770 0.206580
vt 0.401930 0.206580
vt 0.480670 0.093860
vt 0.353140 0.093830
vt 0.480670 0.093860
vt 0.401930 0.206580
vt 0.353140 0.093830
vt 0.697630 0.217650
vt 0.623130 0.215280
vt 0.624230 0.101620
vt 0.697630 0.217650
vt 0.617270 0.283670
vt 0.619210 0.268980
vt 0.657180 0.272710
vt 0.617270 0.283670
vt 0.618510 0.406840
vt 0.617270 0.283670
vt 0.657180 0.272710
vt 0.618510 0.406840
vt 0.738480 0.272710
vt 0.772610 0.268980
vt 0.774540 0.283670
vt 0.738480 0.272710
vt 0.773600 0.406840
vt 0.738480 0.272710
vt 0.774540 0.283670
vt 0.773600 0.406840
vt 0.739890 0.856810
vt 0.733690 0.786360
vt 0.788090 0.786390
vt 0.739890 0.856810
vt 0.739890 0.944310
vt 0.739890 0.856810
vt 0.788090 0.786390
vt 0.739890 0.944310
vt 0.657180 0.347030
vt 0.670170 0.406860
vt 0.618510 0.406840
vt 0.657180 0.347030
vt 0.657180 0.272710
vt 0.657180 0.347030
vt 0.618510 0.406840
vt 0.657180 0.272710
vt 0.739660 0.347030
vt 0.738480 0.272710
vt 0.773600 0.406840
vt 0.739660 0.347030
vt 0.721950 0.406860
vt 0.739660 0.347030
vt 0.773600 0.406840
vt 0.721950 0.406860
vt 0.696770 0.924850
vt 0.660360 0.934880
vt 0.660280 0.814650
vt 0.696770 0.924850
vt 0.704210 0.750600
vt 0.696770 0.924850
vt 0.660280 0.814650
vt 0.704210 0.750600
vt 0.697630 0.217650
vt 0.624230 0.101620
vt 0.739660 0.101770
vt 0.697630 0.217650
vt 0.813970 0.074530
vt 0.785950 0.096580
vt 0.785000 0.041900
vt 0.813970 0.074530
vt 0.813970 0.041890
vt 0.813970 0.074530
vt 0.785000 0.041900
vt 0.813970 0.041890
vt 0.813970 0.074530
vt 0.813970 0.041890
vt 0.842990 0.041850
vt 0.813970 0.074530
vt 0.842210 0.096860
vt 0.813970 0.074530
vt 0.842990 0.041850
vt 0.842210 0.096860
vt 0.248560 0.279990
vt 0.277190 0.289520
vt 0.277280 0.343740
vt 0.248560 0.279990
vt 0.277280 0.343740
vt 0.277190 0.289520
vt 0.306050 0.280260
vt 0.277280 0.343740
vt 0.425410 0.522900
vt 0.383680 0.473380
vt 0.466940 0.525800
vt 0.425410 0.522900
vt 0.549610 0.473380
vt 0.508530 0.522930
vt 0.466940 0.525800
vt 0.549610 0.473380
vt 0.549610 0.473380
vt 0.466940 0.525800
vt 0.383680 0.473380
vt 0.549610 0.473380
vt 0.383680 0.473380
vt 0.425410 0.522900
vt 0.383680 0.549470
vt 0.383680 0.473380
vt 0.549610 0.473380
vt 0.549610 0.549470
vt 0.508530 0.522930
vt 0.549610 0.473380
vt 0.508530 0.522930
vt 0.549610 0.549470
vt 0.508430 0.547480
vt 0.508530 0.522930
vt 0.383680 0.549470
vt 0.425410 0.522900
vt 0.425280 0.549440
vt 0.383680 0.549470
vt 0.660940 0.750550
vt 0.704210 0.750600
vt 0.660280 0.814650
vt 0.660940 0.750550
vt 0.625170 0.437210
vt 0.663990 0.437630
vt 0.664850 0.501450
vt 0.625170 0.437210
vt 0.507410 0.526440
vt 0.508530 0.522930
vt 0.508430 0.547480
vt 0.507410 0.526440
vt 0.785950 0.096580
vt 0.784890 0.042610
vt 0.785000 0.041900
vt 0.785950 0.096580
vt 0.248430 0.405550
vt 0.248560 0.279990
vt 0.277280 0.343740
vt 0.248430 0.405550
vt 0.306050 0.280260
vt 0.306040 0.405730
vt 0.277280 0.343740
vt 0.306050 0.280260
vt 0.306040 0.405730
vt 0.248430 0.405550
vt 0.277280 0.343740
vt 0.306040 0.405730
# 256 texture vertices

vn -0.018092 0.999603 -0.021593
vn 0.024123 0.999522 -0.019336
vn 0.004852 0.999574 -0.028781
vn -0.018092 0.999603 -0.021593
vn -0.007278 0.999553 -0.028994
vn -0.018092 0.999603 -0.021593
vn 0.004852 0.999574 -0.028781
vn -0.007278 0.999553 -0.028994
vn 0.000000 -1.000000 0.000000
vn 0.000000 -1.000000 0.000000
vn 0.000000 -1.000000 0.000000
vn 0.000000 -1.000000 0.000000
vn 0.000000 -1.000000 0.000000
vn 0.000000 -1.000000 0.000000
vn 0.000000 -1.000000 0.000000
vn 0.000000 -1.000000 0.000000
vn 0.001486 0.000097 0.999999
vn 0.002972 -0.000666 0.999995
vn 0.001486 0.000097 0.999999
vn 0.001486 0.000097 0.999999
vn 0.000000 0.000860 1.000000
vn 0.001486 0.000097 0.999999
vn 0.001486 0.000097 0.999999
vn 0.000000 0.000860 1.000000
vn 0.469464 0.142261 -0.871416
vn 0.226987 0.143395 -0.963283
vn 0.001198 0.136763 -0.990603
vn 0.469464 0.142261 -0.871416
vn -0.000799 0.136637 -0.990621
vn -0.308300 0.144093 -0.940313
vn -0.469462 0.142261 -0.871417
vn -0.000799 0.136637 -0.990621
vn 0.000000 -1.000000 0.000000
vn 0.000000 -1.000000 0.000000
vn -0.000000 -1.000000 0.000000
vn 0.000000 -1.000000 0.000000
vn 0.000000 -1.000000 0.000000
vn 0.000000 -1.000000 0.000000
vn 0.000000 -1.000000 0.000000
vn 0.000000 -1.000000 0.000000
vn -0.308300 0.144093 -0.940313
vn -0.963776 0.189880 -0.187298
vn -0.748656 0.192741 -0.634323
vn -0.308300 0.144093 -0.940313
vn 0.749054 0.192951 -0.633789
vn 0.963784 0.190549 -0.186579
vn 0.226987 0.143395 -0.963283
vn 0.749054 0.192951 -0.633789
vn -0.000000 -1.000000 0.000000
vn -0.001850 -0.999992 -0.003631
vn -0.000441 -0.999968 0.007991
vn -0.000000 -1.000000 0.000000
vn 0.003379 -0.999984 0.004489
vn 0.001622 -0.999989 -0.004332
vn 0.000000 -1.000000 0.000000
vn 0.003379 -0.999984 0.004489
vn -0.000799 0.136637 -0.990621
vn 0.001198 0.136763 -0.990603
vn 0.226987 0.143395 -0.963283
vn -0.000799 0.136637 -0.990621
vn -0.308300 0.144093 -0.940313
vn -0.000799 0.136637 -0.990621
vn 0.226987 0.143395 -0.963283
vn -0.308300 0.144093 -0.940313
vn 0.000000 -1.000000 0.000000
vn -0.000000 -1.000000 0.000000
vn 0.000000 -1.000000 0.000000
vn 0.000000 -1.000000 0.000000
vn -0.000000 -1.000000 0.000000
vn 0.000000 -1.000000 0.000000
vn 0.000000 -1.000000 0.000000
vn -0.000000 -1.000000 0.000000
vn 0.833926 0.502356 0.228484
vn 0.928323 0.188732 0.320306
vn 0.965161 0.211016 0.154714
vn 0.833926 0.502356 0.228484
vn 0.811931 0.577302 0.086546
vn 0.833926 0.502356 0.228484
vn 0.965161 0.211016 0.154714
vn 0.811931 0.577302 0.086546
vn -0.965826 0.209769 0.152242
vn -0.930770 0.188459 0.313290
vn -0.834729 0.502206 0.225870
vn -0.965826 0.209769 0.152242
vn -0.811957 0.577359 0.085926
vn -0.965826 0.209769 0.152242
vn -0.834729 0.502206 0.225870
vn -0.811957 0.577359 0.085926
vn 0.811931 0.577302 0.086546
vn 0.965161 0.211016 0.154714
vn 0.963784 0.190549 -0.186579
vn 0.811931 0.577302 0.086546
vn 0.842493 0.506840 -0.182533
vn 0.811931 0.577302 0.086546
vn 0.963784 0.190549 -0.186579
vn 0.842493 0.506840 -0.182533
vn -0.963776 0.189880 -0.187298
vn -0.965826 0.209769 0.152242
vn -0.811957 0.577359 0.085926
vn -0.963776 0.189880 -0.187298
vn -0.842028 0.507193 -0.183697
vn -0.963776 0.189880 -0.187298
vn -0.811957 0.577359 0.085926
vn -0.842028 0.507193 -0.183697
vn 0.179582 0.403671 0.897107
vn -0.218744 0.756911 0.615822
vn -0.146188 0.646576 0.748711
vn 0.179582 0.403671 0.897107
vn -0.028642 0.414612 0.909548
vn 0.179582 0.403671 0.897107
vn -0.146188 0.646576 0.748711
vn -0.028642 0.414612 0.909548
vn 1.000000 0.000497 -0.000560
vn 1.000000 0.000122 0.000000
vn 1.000000 0.000497 -0.000560
vn 1.000000 0.000497 -0.000560
vn 0.964606 0.238086 0.113363
vn 1.000000 0.000497 -0.000560
vn 1.000000 0.000497 -0.000560
vn 0.964606 0.238086 0.113363
vn -1.000000 0.000784 0.000029
vn -1.000000 0.000804 0.000000
vn -1.000000 0.000784 0.000029
vn -1.000000 0.000784 0.000029
vn -0.811957 0.577359 0.085926
vn -0.577211 0.535630 0.616382
vn -0.212031 0.921690 0.324854
vn -0.811957 0.577359 0.085926
vn -0.395764 0.918195 0.016994
vn -0.811957 0.577359 0.085926
vn -0.234371 0.969130 0.076539
vn -0.395764 0.918195 0.016994
vn 0.213182 0.921281 0.325262
vn 0.575938 0.535266 0.617889
vn 0.811931 0.577302 0.086546
vn 0.213182 0.921281 0.325262
vn 0.396267 0.917963 0.017797
vn 0.235709 0.968784 0.076803
vn 0.811931 0.577302 0.086546
vn 0.396267 0.917963 0.017797
vn -0.036183 -0.999235 0.014821
vn -0.014555 -0.999455 0.029632
vn -0.036183 -0.999235 0.014821
vn -0.036183 -0.999235 0.014821
vn -0.057785 -0.998329 0.000000
vn -0.036183 -0.999235 0.014821
vn -0.036183 -0.999235 0.014821
vn -0.057785 -0.998329 0.000000
vn -0.018092 0.999603 -0.021593
vn -0.007278 0.999553 -0.028994
vn -0.129436 0.991451 0.016462
vn -0.018092 0.999603 -0.021593
vn -0.234371 0.969130 0.076539
vn -0.018092 0.999603 -0.021593
vn -0.129436 0.991451 0.016462
vn -0.234371 0.969130 0.076539
vn 0.024123 0.999522 -0.019336
vn 0.235709 0.968784 0.076803
vn 0.130114 0.991359 0.016669
vn 0.024123 0.999522 -0.019336
vn 0.004852 0.999574 -0.028781
vn 0.024123 0.999522 -0.019336
vn 0.130114 0.991359 0.016669
vn 0.004852 0.999574 -0.028781
vn 0.146022 0.646105 0.749150
vn 0.219907 0.756188 0.616295
vn -0.188972 0.396847 0.898222
vn 0.146022 0.646105 0.749150
vn 0.003225 0.398530 0.917150
vn 0.146022 0.646105 0.749150
vn -0.188972 0.396847 0.898222
vn 0.003225 0.398530 0.917150
vn -1.000000 0.000784 0.000029
vn -1.000000 0.000784 0.000029
vn -0.964441 0.239787 0.111154
vn -1.000000 0.000784 0.000029
vn 0.001216 0.075867 0.997117
vn 0.034788 0.292249 0.955709
vn 0.066825 0.074205 0.995002
vn 0.001216 0.075867 0.997117
vn -0.000554 0.224135 0.974558
vn -0.152963 0.223478 0.962632
vn 0.066825 0.074205 0.995002
vn -0.000554 0.224135 0.974558
vn 0.155159 0.223022 0.962386
vn -0.000554 0.224135 0.974558
vn -0.064324 0.077201 0.994938
vn 0.155159 0.223022 0.962386
vn -0.046255 0.284487 0.957563
vn 0.001216 0.075867 0.997117
vn -0.064324 0.077201 0.994938
vn -0.046255 0.284487 0.957563
vn 0.520463 0.584763 0.622230
vn 0.448786 0.513075 0.731673
vn 0.175987 0.980893 0.082925
vn 0.520463 0.584763 0.622230
vn -0.181028 0.980023 0.082360
vn -0.449219 0.513942 0.730798
vn -0.530156 0.576733 0.621541
vn -0.181028 0.980023 0.082360
vn -0.000222 -0.999985 0.005424
vn -0.001850 -0.999992 -0.003631
vn -0.000708 -0.999965 -0.008343
vn -0.000222 -0.999985 0.005424
vn 0.001622 -0.999989 -0.004332
vn 0.002451 -0.999997 0.000987
vn -0.000708 -0.999965 -0.008343
vn 0.001622 -0.999989 -0.004332
vn 0.001622 -0.999989 -0.004332
vn -0.000708 -0.999965 -0.008343
vn -0.001850 -0.999992 -0.003631
vn 0.001622 -0.999989 -0.004332
vn -0.001850 -0.999992 -0.003631
vn -0.000222 -0.999985 0.005424
vn -0.000441 -0.999968 0.007991
vn -0.001850 -0.999992 -0.003631
vn 0.001622 -0.999989 -0.004332
vn 0.003379 -0.999984 0.004489
vn 0.002451 -0.999997 0.000987
vn 0.001622 -0.999989 -0.004332
vn 0.002451 -0.999997 0.000987
vn 0.003379 -0.999984 0.004489
vn 0.000866 -0.999909 0.013466
vn 0.002451 -0.999997 0.000987
vn -0.000441 -0.999968 0.007991
vn -0.000222 -0.999985 0.005424
vn 0.006735 -0.999690 0.023971
vn -0.000441 -0.999968 0.007991
vn 0.001285 0.397191 0.917735
vn 0.003225 0.398530 0.917150
vn -0.188972 0.396847 0.898222
vn 0.001285 0.397191 0.917735
vn -0.028642 0.414612 0.909548
vn -0.049630 0.428944 0.901967
vn 0.179582 0.403671 0.897107
vn -0.028642 0.414612 0.909548
vn -0.964441 0.239787 0.111154
vn -0.999912 -0.013083 -0.002094
vn -0.999912 -0.013083 -0.002094
vn -0.964441 0.239787 0.111154
vn 0.964606 0.238086 0.113363
vn 0.999857 -0.016555 0.003469
vn 0.999857 -0.016555 0.003469
vn 0.964606 0.238086 0.113363
vn -0.002656 0.999997 0.000165
vn 0.364437 0.915513 0.170361
vn -0.002183 0.989986 0.141149
vn -0.002656 0.999997 0.000165
vn -0.367660 0.914585 0.168408
vn -0.003654 0.999993 -0.000477
vn -0.002183 0.989986 0.141149
vn -0.367660 0.914585 0.168408
vn -0.003654 0.999993 -0.000477
vn -0.002656 0.999997 0.000165
vn -0.002183 0.989986 0.141149
vn -0.003654 0.999993 -0.000477
# 256 vertex normals

g mat1
f 15/1/1 16/2/2 9/3/3
f 10/5/5 15/6/6 9/7/7
f 19/9/9 12/10/10 11/11/11
f 18/13/13 19/14/14 11/15/15
f 22/17/17 21/18/18 16/19/19
f 15/21/21 22/22/22 16/23/23
f 8/25/25 11/26/26 9/27/27
f 10/29/29 12/30/30 13/31/31
f 18/33/33 11/34/34 17/35/35
f 19/37/37 20/38/38 12/39/39
f 12/41/41 20/42/42 13/43/43
f 8/45/45 17/46/46 11/47/47
f 23/49/49 26/50/50 25/51/51
f 27/53/53 28/54/54 24/55/55
f 10/57/57 9/58/58 11/59/59
f 12/61/61 10/62/62 11/63/63
f 20/65/65 17/66/66 24/67/67
f 23/69/69 20/70/70 24/71/71
f 6/73/73 27/74/74 24/75/75
f 7/77/77 6/78/78 24/79/79
f 23/81/81 25/82/82 1/83/83
f 14/85/85 23/86/86 1/87/87
f 7/89/89 24/90/90 17/91/91
f 8/93/93 7/94/94 17/95/95
f 20/97/97 23/98/98 14/99/99
f 13/101/101 20/102/102 14/103/103
f 4/105/105 2/106/106 1/107/107
f 25/109/109 4/110/110 1/111/111
f 22/113/113 15/114/114 2/115/115
f 4/117/117 22/118/118 2/119/119
f 3/121/121 16/122/122 21/123/123
f 14/125/125 1/126/126 2/127/127
f 13/129/129 14/130/130 2/131/131
f 3/133/133 6/134/134 7/135/135
f 8/137/137 3/138/138 7/139/139
f 16/141/141 9/142/142 8/143/143
f 3/145/145 16/146/146 8/147/147
f 15/149/149 10/150/150 13/151/151
f 2/153/153 15/154/154 13/155/155
f 16/157/157 3/158/158 8/159/159
f 9/161/161 16/162/162 8/163/163
f 6/165/165 3/166/166 5/167/167
f 27/169/169 6/170/170 5/171/171
f 3/173/173 21/174/174 5/175/175
f 29/177/177 4/178/178 32/179/179
f 30/181/181 29/182/182 32/183/183
f 29/185/185 30/186/186 33/187/187
f 5/189/189 29/190/190 33/191/191
f 4/193/193 29/194/194 31/195/195
f 31/197/197 29/198/198 5/199/199
f 32/201/201 26/202/202 30/203/203
f 28/205/205 33/206/206 30/207/207
f 28/209/209 30/210/210 26/211/211
f 26/213/213 32/214/214 25/215/215
f 28/217/217 27/218/218 33/219/219
f 33/221/221 27/222/222 34/223/223
f 25/225/225 32/226/226 35/227/227
f 34/229/229 27/230/230 5/231/231
f 25/233/233 35/234/234 4/235/235
f 5/237/237 33/238/238 34/239/239
f 4/241/241 35/242/242 32/243/243
f 22/245/245 4/246/246 31/247/247
f 5/249/249 21/250/250 31/251/251
f 21/253/253 22/254/254 31/255/255
# 64 elements

