# Created by Metasequoia

v 0.000000 1.911111 1.417817
v 0.142993 1.865793 1.417817
v 0.231366 1.747153 1.417817
v 0.231366 1.600506 1.417817
v 0.142993 1.481864 1.417817
v 0.000000 1.436548 1.417817
v -0.142991 1.481864 1.417817
v -0.231364 1.600506 1.417817
v -0.231364 1.747153 1.417817
v -0.142991 1.865793 1.417817
v 0.000000 1.911111 2.318691
v 0.142992 1.865793 2.318691
v 0.231366 1.747153 2.318691
v 0.231366 1.600506 2.318691
v 0.142992 1.481864 2.318691
v 0.000000 1.436548 2.318691
v -0.142991 1.481864 2.318691
v -0.231365 1.600506 2.318691
v -0.231365 1.747153 2.318691
v -0.142991 1.865793 2.318691
v 0.000000 1.673829 2.318691
v 0.000000 1.836250 2.152690
v 0.097879 1.805231 2.152690
v 0.158373 1.724019 2.152690
v 0.158373 1.623638 2.152690
v 0.097879 1.542426 2.152690
v 0.000000 1.511407 2.152690
v -0.097879 1.542426 2.152690
v -0.158372 1.623638 2.152690
v -0.158372 1.724019 2.152690
v -0.097879 1.805231 2.152690
v 0.000000 1.836250 5.795431
v 0.097879 1.805231 5.795431
v 0.158373 1.724019 5.795431
v 0.158373 1.623638 5.795431
v 0.097879 1.542426 5.795431
v 0.000000 1.511407 5.795431
v -0.097879 1.542426 5.795431
v -0.158373 1.623638 5.795431
v -0.158373 1.724019 5.795431
v -0.097879 1.805231 5.795431
v 0.000000 1.673829 5.795431
v 0.000000 1.673829 5.419585
v 0.000000 1.883295 5.419585
v 0.126229 1.843289 5.419585
v 0.204244 1.738559 5.419585
v 0.204244 1.609100 5.419585
v 0.126229 1.504368 5.419585
v 0.000000 1.464364 5.419585
v -0.126229 1.504368 5.419585
v -0.204244 1.609100 5.419585
v -0.204244 1.738559 5.419585
v -0.126229 1.843289 5.419585
v 0.000000 1.883295 5.474475
v 0.126229 1.843289 5.474475
v 0.204244 1.738559 5.474475
v 0.204244 1.609100 5.474475
v 0.126229 1.504368 5.474475
v 0.000000 1.464364 5.474475
v -0.126229 1.504368 5.474475
v -0.204244 1.609100 5.474475
v -0.204244 1.738559 5.474475
v -0.126229 1.843289 5.474475
v 0.000000 1.673829 5.474475
# 64 vertices

vt 0.36085 0.04112
vt 0.36085 0.05673
vt 0.37109 0.05374
vt 0.37741 0.04594
vt 0.37741 0.03629
vt 0.37109 0.02850
vt 0.36085 0.02551
vt 0.35062 0.02850
vt 0.34429 0.03629
vt 0.34429 0.04594
vt 0.35062 0.05374
vt 0.85058 0.74923
vt 0.85058 0.76205
vt 0.85831 0.75960
vt 0.86308 0.75320
vt 0.86308 0.74527
vt 0.85831 0.73886
vt 0.85058 0.73641
vt 0.84286 0.73886
vt 0.83808 0.74527
vt 0.83808 0.75320
vt 0.84286 0.75960
vt 0.94567 0.16301
vt 0.94567 0.09263
vt 0.93581 0.09263
vt 0.93581 0.16301
vt 0.58691 0.97883
vt 0.51724 0.97883
vt 0.51724 0.98806
vt 0.58691 0.98806
vt 0.58691 0.96741
vt 0.51724 0.96741
vt 0.58691 0.95818
vt 0.51724 0.95818
vt 0.02294 0.31687
vt 0.02294 0.38251
vt 0.03287 0.38251
vt 0.03287 0.31687
vt 0.01300 0.31687
vt 0.01300 0.38251
vt 0.24843 0.70349
vt 0.31486 0.70349
vt 0.31486 0.69413
vt 0.24843 0.69413
vt 0.24843 0.71506
vt 0.31486 0.71506
vt 0.24843 0.72443
vt 0.31486 0.72443
vt 0.92594 0.09263
vt 0.92594 0.16301
vt 0.02710 0.98604
vt 0.02710 0.70085
vt 0.01938 0.70085
vt 0.01938 0.98604
vt 0.33790 0.98194
vt 0.05357 0.98194
vt 0.05357 0.98835
vt 0.33790 0.98835
vt 0.33790 0.97402
vt 0.05357 0.97402
vt 0.33790 0.96761
vt 0.05357 0.96761
vt 0.05813 0.67294
vt 0.05813 0.95929
vt 0.06585 0.95929
vt 0.06585 0.67294
vt 0.05040 0.67294
vt 0.05040 0.95929
vt 0.01534 0.65453
vt 0.29915 0.65453
vt 0.29915 0.64812
vt 0.01534 0.64812
vt 0.01534 0.66245
vt 0.29915 0.66245
vt 0.01534 0.66886
vt 0.29915 0.66886
vt 0.01165 0.70085
vt 0.01165 0.98604
vt 0.23629 0.05409
vt 0.22786 0.06465
vt 0.23629 0.06714
vt 0.22265 0.05812
vt 0.22265 0.05006
vt 0.22786 0.04353
vt 0.23629 0.04104
vt 0.24473 0.04353
vt 0.24993 0.05006
vt 0.24993 0.05812
vt 0.24473 0.06465
vt 0.56354 0.27723
vt 0.56354 0.29205
vt 0.57264 0.28922
vt 0.57827 0.28181
vt 0.57827 0.27265
vt 0.57264 0.26523
vt 0.56354 0.26241
vt 0.55444 0.26523
vt 0.54881 0.27265
vt 0.54881 0.28181
vt 0.55444 0.28922
vt 0.82295 0.25490
vt 0.82295 0.25195
vt 0.81439 0.25195
vt 0.81439 0.25490
vt 0.32679 0.66857
vt 0.32436 0.66857
vt 0.32436 0.67627
vt 0.32679 0.67627
vt 0.32679 0.65906
vt 0.32436 0.65906
vt 0.32679 0.65137
vt 0.32436 0.65137
vt 0.81823 0.65622
vt 0.81823 0.65857
vt 0.82717 0.65857
vt 0.82717 0.65622
vt 0.80930 0.65622
vt 0.80930 0.65857
vt 0.93483 0.20587
vt 0.93829 0.20587
vt 0.93829 0.19799
vt 0.93483 0.19799
vt 0.93483 0.21559
vt 0.93829 0.21559
vt 0.93483 0.22347
vt 0.93829 0.22347
vt 0.80583 0.25195
vt 0.80583 0.25490
# 128 texture vertices

vn -0.10506 0.99447 0.00000
vn 0.48966 0.87191 0.00000
vn 0.90890 0.41702 0.00000
vn 0.97802 -0.20851 0.00000
vn 0.66372 -0.74798 0.00000
vn 0.10505 -0.99447 0.00000
vn -0.48966 -0.87191 0.00000
vn -0.90890 -0.41702 -0.00000
vn -0.97802 0.20851 -0.00000
vn -0.66372 0.74798 -0.00000
vn 0.00000 0.00000 1.00000
vn -0.10505 0.99447 0.00000
vn 0.48966 0.87192 0.00000
vn 0.90890 0.41702 0.00000
vn 0.97802 -0.20851 0.00000
vn 0.66372 -0.74798 0.00000
vn 0.10505 -0.99447 0.00000
vn -0.48966 -0.87191 0.00000
vn -0.90890 -0.41702 -0.00000
vn -0.97802 0.20851 -0.00000
vn -0.66372 0.74798 -0.00000
vn 0.00000 0.00000 -1.00000
vn 0.66372 0.74798 0.00000
vn 0.10506 0.99447 0.00000
vn 0.97802 0.20851 0.00000
vn 0.90890 -0.41702 0.00000
vn 0.48966 -0.87191 0.00000
vn -0.10505 -0.99447 0.00000
vn -0.66372 -0.74798 -0.00000
vn -0.97802 -0.20851 -0.00000
vn -0.90890 0.41702 -0.00000
vn -0.48967 0.87191 0.00000
vn 0.66372 0.74798 0.00000
vn 0.10505 0.99447 0.00000
vn 0.97802 0.20851 0.00000
vn 0.90890 -0.41702 0.00000
vn 0.48966 -0.87192 0.00000
vn -0.10505 -0.99447 0.00000
vn -0.66372 -0.74798 -0.00000
vn -0.97802 -0.20851 -0.00000
vn -0.90890 0.41702 -0.00000
vn -0.48966 0.87192 0.00000
vn 0.48966 0.87191 0.00000
vn 0.66371 0.74799 0.00000
vn 0.10506 0.99447 0.00000
vn -0.10506 0.99447 0.00000
vn 0.90889 0.41703 0.00000
vn 0.97802 0.20852 0.00000
vn 0.97802 -0.20851 0.00000
vn 0.90889 -0.41703 0.00000
vn 0.66371 -0.74799 0.00000
vn 0.48966 -0.87192 0.00000
vn 0.10505 -0.99447 0.00000
vn -0.10505 -0.99447 0.00000
vn -0.48966 -0.87192 0.00000
vn -0.66371 -0.74799 0.00000
vn -0.90889 -0.41703 0.00000
vn -0.97802 -0.20851 0.00000
vn -0.97802 0.20852 0.00000
vn -0.90889 0.41703 0.00000
vn -0.66371 0.74799 0.00000
vn -0.48966 0.87191 0.00000
# 62 normal vertices

g obj2
f 12/3/11 11/2/11 21/1/11
f 13/4/11 12/3/11 21/1/11
f 14/5/11 13/4/11 21/1/11
f 15/6/11 14/5/11 21/1/11
f 16/7/11 15/6/11 21/1/11
f 17/8/11 16/7/11 21/1/11
f 18/9/11 17/8/11 21/1/11
f 19/10/11 18/9/11 21/1/11
f 20/11/11 19/10/11 21/1/11
f 11/2/11 20/11/11 21/1/11
f 33/14/11 32/13/11 42/12/11
f 34/15/11 33/14/11 42/12/11
f 35/16/11 34/15/11 42/12/11
f 36/17/11 35/16/11 42/12/11
f 37/18/11 36/17/11 42/12/11
f 38/19/11 37/18/11 42/12/11
f 39/20/11 38/19/11 42/12/11
f 40/21/11 39/20/11 42/12/11
f 41/22/11 40/21/11 42/12/11
f 32/13/11 41/22/11 42/12/11
f 11/25/24 12/24/23 2/23/2
f 1/26/1 11/25/24 2/23/2
f 12/29/23 13/28/25 3/27/3
f 2/30/2 12/29/23 3/27/3
f 13/28/25 14/32/26 4/31/4
f 3/27/3 13/28/25 4/31/4
f 14/32/26 15/34/27 5/33/5
f 4/31/4 14/32/26 5/33/5
f 15/37/27 16/36/28 6/35/6
f 5/38/5 15/37/27 6/35/6
f 16/36/28 17/40/29 7/39/7
f 6/35/6 16/36/28 7/39/7
f 17/43/29 18/42/30 8/41/8
f 7/44/7 17/43/29 8/41/8
f 18/42/30 19/46/31 9/45/9
f 8/41/8 18/42/30 9/45/9
f 19/46/31 20/48/32 10/47/10
f 9/45/9 19/46/31 10/47/10
f 20/49/32 11/25/24 1/26/1
f 10/50/10 20/49/32 1/26/1
f 32/53/34 33/52/33 23/51/13
f 22/54/12 32/53/34 23/51/13
f 33/57/33 34/56/35 24/55/14
f 23/58/13 33/57/33 24/55/14
f 34/56/35 35/60/36 25/59/15
f 24/55/14 34/56/35 25/59/15
f 35/60/36 36/62/37 26/61/16
f 25/59/15 35/60/36 26/61/16
f 36/65/37 37/64/38 27/63/17
f 26/66/16 36/65/37 27/63/17
f 37/64/38 38/68/39 28/67/18
f 27/63/17 37/64/38 28/67/18
f 38/71/39 39/70/40 29/69/19
f 28/72/18 38/71/39 29/69/19
f 39/70/40 40/74/41 30/73/20
f 29/69/19 39/70/40 30/73/20
f 40/74/41 41/76/42 31/75/21
f 30/73/20 40/74/41 31/75/21
f 41/77/42 32/53/34 22/54/12
f 31/78/21 41/77/42 22/54/12
f 44/81/22 45/80/22 43/79/22
f 45/80/22 46/82/22 43/79/22
f 46/82/22 47/83/22 43/79/22
f 47/83/22 48/84/22 43/79/22
f 48/84/22 49/85/22 43/79/22
f 49/85/22 50/86/22 43/79/22
f 50/86/22 51/87/22 43/79/22
f 51/87/22 52/88/22 43/79/22
f 52/88/22 53/89/22 43/79/22
f 53/89/22 44/81/22 43/79/22
f 55/92/11 54/91/11 64/90/11
f 56/93/11 55/92/11 64/90/11
f 57/94/11 56/93/11 64/90/11
f 58/95/11 57/94/11 64/90/11
f 59/96/11 58/95/11 64/90/11
f 60/97/11 59/96/11 64/90/11
f 61/98/11 60/97/11 64/90/11
f 62/99/11 61/98/11 64/90/11
f 63/100/11 62/99/11 64/90/11
f 54/91/11 63/100/11 64/90/11
f 54/103/45 55/102/44 45/101/43
f 44/104/46 54/103/45 45/101/43
f 55/107/44 56/106/48 46/105/47
f 45/108/43 55/107/44 46/105/47
f 56/106/48 57/110/50 47/109/49
f 46/105/47 56/106/48 47/109/49
f 57/110/50 58/112/52 48/111/51
f 47/109/49 57/110/50 48/111/51
f 58/115/52 59/114/54 49/113/53
f 48/116/51 58/115/52 49/113/53
f 59/114/54 60/118/56 50/117/55
f 49/113/53 59/114/54 50/117/55
f 60/121/56 61/120/58 51/119/57
f 50/122/55 60/121/56 51/119/57
f 61/120/58 62/124/60 52/123/59
f 51/119/57 61/120/58 52/123/59
f 62/124/60 63/126/62 53/125/61
f 52/123/59 62/124/60 53/125/61
f 63/127/62 54/103/45 44/104/46
f 53/128/61 63/127/62 44/104/46
# 100 elements

