# Created by 3DAce v2.72


g
v 0.005028 0.172022 1.094484
v 0.360127 0.172022 1.025933
v 0.661164 0.172022 0.830715
v 0.862310 0.172022 0.538553
v 0.932943 0.172022 0.193925
v 0.862310 0.172022 -0.150704
v 0.661164 0.172022 -0.442866
v 0.360127 0.172022 -0.638082
v 0.005028 0.172022 -0.706633
v -0.350069 0.172022 -0.638082
v -0.651107 0.172022 -0.442866
v -0.852254 0.172022 -0.150704
v -0.922887 0.172022 0.193925
v -0.852254 0.172022 0.538553
v -0.651107 0.172022 0.830715
v -0.350070 0.172022 1.025935
v 0.005028 -0.303838 1.239835
v 0.417439 -0.303838 1.160220
v 0.767064 -0.303838 0.933496
v 1.000677 -0.303838 0.594176
v 1.082710 -0.303838 0.193925
v 1.000676 -0.303838 -0.206328
v 0.767064 -0.303838 -0.545645
v 0.417439 -0.303838 -0.772368
v 0.005028 -0.303838 -0.851985
v -0.407383 -0.303838 -0.772369
v -0.757008 -0.303838 -0.545645
v -0.990620 -0.303838 -0.206328
v -1.072654 -0.303838 0.193925
v -0.990620 -0.303838 0.594177
v -0.757008 -0.303838 0.933496
v -0.407383 -0.303838 1.160220
v 0.005028 -0.303838 0.193925
# 33 vertices

vt 0.168010 0.407340
vt 0.135460 0.413620
vt 0.135460 0.331070
vt 0.168010 0.407340
vt 0.195600 0.389450
vt 0.168010 0.407340
vt 0.135460 0.331070
vt 0.195600 0.389450
vt 0.214040 0.362660
vt 0.195600 0.389450
vt 0.135460 0.331070
vt 0.214040 0.362660
vt 0.220510 0.331070
vt 0.214040 0.362660
vt 0.135460 0.331070
vt 0.220510 0.331070
vt 0.214040 0.299480
vt 0.220510 0.331070
vt 0.135460 0.331070
vt 0.214040 0.299480
vt 0.195600 0.272700
vt 0.214040 0.299480
vt 0.135460 0.331070
vt 0.195600 0.272700
vt 0.168010 0.254810
vt 0.195600 0.272700
vt 0.135460 0.331070
vt 0.168010 0.254810
vt 0.135460 0.248530
vt 0.168010 0.254810
vt 0.135460 0.331070
vt 0.135460 0.248530
vt 0.102910 0.254810
vt 0.135460 0.248530
vt 0.135460 0.331070
vt 0.102910 0.254810
vt 0.075310 0.272700
vt 0.102910 0.254810
vt 0.135460 0.331070
vt 0.075310 0.272700
vt 0.056870 0.299480
vt 0.075310 0.272700
vt 0.135460 0.331070
vt 0.056870 0.299480
vt 0.050400 0.331070
vt 0.056870 0.299480
vt 0.135460 0.331070
vt 0.050400 0.331070
vt 0.056870 0.362660
vt 0.050400 0.331070
vt 0.135460 0.331070
vt 0.056870 0.362660
vt 0.075310 0.389450
vt 0.056870 0.362660
vt 0.135460 0.331070
vt 0.075310 0.389450
vt 0.102910 0.407340
vt 0.075310 0.389450
vt 0.135460 0.331070
vt 0.102910 0.407340
vt 0.135460 0.413620
vt 0.102910 0.407340
vt 0.135460 0.331070
vt 0.135460 0.413620
vt 0.839660 0.126170
vt 0.872210 0.126170
vt 0.867680 0.163730
vt 0.839660 0.126170
vt 0.839660 0.163730
vt 0.839660 0.126170
vt 0.867680 0.163730
vt 0.839660 0.163730
vt 0.872210 0.126170
vt 0.899800 0.126170
vt 0.891440 0.163730
vt 0.872210 0.126170
vt 0.867680 0.163730
vt 0.872210 0.126170
vt 0.891440 0.163730
vt 0.867680 0.163730
vt 0.811390 0.906750
vt 0.838170 0.906750
vt 0.842560 0.942090
vt 0.811390 0.906750
vt 0.819510 0.942090
vt 0.811390 0.906750
vt 0.842560 0.942090
vt 0.819510 0.942090
vt 0.838170 0.906750
vt 0.869760 0.906750
vt 0.869760 0.942090
vt 0.838170 0.906750
vt 0.842560 0.942090
vt 0.838170 0.906750
vt 0.869760 0.942090
vt 0.842560 0.942090
vt 0.869760 0.906750
vt 0.901350 0.906750
vt 0.896960 0.942090
vt 0.869760 0.906750
vt 0.869760 0.942090
vt 0.869760 0.906750
vt 0.896960 0.942090
vt 0.869760 0.942090
vt 0.901350 0.906750
vt 0.928140 0.906750
vt 0.920020 0.942090
vt 0.901350 0.906750
vt 0.896960 0.942090
vt 0.901350 0.906750
vt 0.920020 0.942090
vt 0.896960 0.942090
vt 0.808630 0.684030
vt 0.836230 0.684030
vt 0.840750 0.721590
vt 0.808630 0.684030
vt 0.816990 0.721590
vt 0.808630 0.684030
vt 0.840750 0.721590
vt 0.816990 0.721590
vt 0.836230 0.684030
vt 0.868770 0.684030
vt 0.868770 0.721590
vt 0.836230 0.684030
vt 0.840750 0.721590
vt 0.836230 0.684030
vt 0.868770 0.721590
vt 0.840750 0.721590
vt 0.868770 0.684030
vt 0.901320 0.684030
vt 0.896800 0.721590
vt 0.868770 0.684030
vt 0.868770 0.721590
vt 0.868770 0.684030
vt 0.896800 0.721590
vt 0.868770 0.721590
vt 0.901320 0.684030
vt 0.928920 0.684030
vt 0.920560 0.721590
vt 0.901320 0.684030
vt 0.896800 0.721590
vt 0.901320 0.684030
vt 0.920560 0.721590
vt 0.896800 0.721590
vt 0.811390 0.845890
vt 0.838170 0.845890
vt 0.842560 0.883450
vt 0.811390 0.845890
vt 0.819510 0.883450
vt 0.811390 0.845890
vt 0.842560 0.883450
vt 0.819510 0.883450
vt 0.838170 0.845890
vt 0.869760 0.845890
vt 0.869760 0.883450
vt 0.838170 0.845890
vt 0.842560 0.883450
vt 0.838170 0.845890
vt 0.869760 0.883450
vt 0.842560 0.883450
vt 0.869760 0.845890
vt 0.901350 0.845890
vt 0.896960 0.883450
vt 0.869760 0.845890
vt 0.869760 0.883450
vt 0.869760 0.845890
vt 0.896960 0.883450
vt 0.869760 0.883450
vt 0.901350 0.845890
vt 0.928140 0.845890
vt 0.920020 0.883450
vt 0.901350 0.845890
vt 0.896960 0.883450
vt 0.901350 0.845890
vt 0.920020 0.883450
vt 0.896960 0.883450
vt 0.779510 0.126170
vt 0.807110 0.126170
vt 0.811630 0.163730
vt 0.779510 0.126170
vt 0.787870 0.163730
vt 0.779510 0.126170
vt 0.811630 0.163730
vt 0.787870 0.163730
vt 0.807110 0.126170
vt 0.839660 0.126170
vt 0.839660 0.163730
vt 0.807110 0.126170
vt 0.811630 0.163730
vt 0.807110 0.126170
vt 0.839660 0.163730
vt 0.811630 0.163730
# 192 texture vertices

vn 0.000000 -1.000000 0.000000
vn 0.000000 -1.000000 0.000000
vn 0.000000 -1.000000 0.000000
vn 0.000000 -1.000000 0.000000
vn 0.000000 -1.000000 0.000000
vn 0.000000 -1.000000 0.000000
vn 0.000000 -1.000000 0.000000
vn 0.000000 -1.000000 0.000000
vn 0.000000 -1.000000 0.000000
vn 0.000000 -1.000000 0.000000
vn 0.000000 -1.000000 0.000000
vn 0.000000 -1.000000 0.000000
vn 0.000000 -1.000000 0.000000
vn 0.000000 -1.000000 0.000000
vn 0.000000 -1.000000 0.000000
vn 0.000000 -1.000000 0.000000
vn 0.000000 -1.000000 -0.000000
vn 0.000000 -1.000000 0.000000
vn 0.000000 -1.000000 0.000000
vn 0.000000 -1.000000 -0.000000
vn 0.000000 -1.000000 -0.000000
vn 0.000000 -1.000000 -0.000000
vn 0.000000 -1.000000 0.000000
vn 0.000000 -1.000000 -0.000000
vn 0.000000 -1.000000 -0.000000
vn 0.000000 -1.000000 -0.000000
vn 0.000000 -1.000000 0.000000
vn 0.000000 -1.000000 -0.000000
vn 0.000000 -1.000000 -0.000000
vn 0.000000 -1.000000 -0.000000
vn 0.000000 -1.000000 0.000000
vn 0.000000 -1.000000 -0.000000
vn -0.000000 -1.000000 0.000000
vn 0.000000 -1.000000 -0.000000
vn 0.000000 -1.000000 0.000000
vn -0.000000 -1.000000 0.000000
vn -0.000000 -1.000000 0.000000
vn -0.000000 -1.000000 0.000000
vn 0.000000 -1.000000 0.000000
vn -0.000000 -1.000000 0.000000
vn -0.000000 -1.000000 0.000000
vn -0.000000 -1.000000 0.000000
vn 0.000000 -1.000000 0.000000
vn -0.000000 -1.000000 0.000000
vn 0.000000 -1.000000 0.000000
vn -0.000000 -1.000000 0.000000
vn 0.000000 -1.000000 0.000000
vn 0.000000 -1.000000 0.000000
vn 0.000000 -1.000000 0.000000
vn 0.000000 -1.000000 0.000000
vn 0.000000 -1.000000 0.000000
vn 0.000000 -1.000000 0.000000
vn 0.000000 -1.000000 0.000000
vn 0.000000 -1.000000 0.000000
vn 0.000000 -1.000000 0.000000
vn 0.000000 -1.000000 0.000000
vn 0.000000 -1.000000 0.000000
vn 0.000000 -1.000000 0.000000
vn 0.000000 -1.000000 0.000000
vn 0.000000 -1.000000 0.000000
vn 0.000000 -1.000000 0.000000
vn 0.000000 -1.000000 0.000000
vn 0.000000 -1.000000 0.000000
vn 0.000000 -1.000000 0.000000
vn 0.061426 0.291574 0.954574
vn 0.413937 0.293065 0.861840
vn 0.299131 0.292354 0.908322
vn 0.061426 0.291574 0.954574
vn -0.061425 0.291572 0.954575
vn 0.061426 0.291574 0.954574
vn 0.299131 0.292354 0.908322
vn -0.061425 0.291572 0.954575
vn 0.413937 0.293065 0.861840
vn 0.709783 0.296020 0.639203
vn 0.619424 0.294987 0.727528
vn 0.413937 0.293065 0.861840
vn 0.299131 0.292354 0.908322
vn 0.413937 0.293065 0.861840
vn 0.619424 0.294987 0.727528
vn 0.299131 0.292354 0.908322
vn 0.709783 0.296020 0.639203
vn 0.901279 0.298743 0.313765
vn 0.850968 0.297992 0.432498
vn 0.709783 0.296020 0.639203
vn 0.619424 0.294987 0.727528
vn 0.709783 0.296020 0.639203
vn 0.850968 0.297992 0.432498
vn 0.619424 0.294987 0.727528
vn 0.901279 0.298743 0.313765
vn 0.951854 0.299576 -0.065029
vn 0.951854 0.299576 0.065029
vn 0.901279 0.298743 0.313765
vn 0.850968 0.297992 0.432498
vn 0.901279 0.298743 0.313765
vn 0.951854 0.299576 0.065029
vn 0.850968 0.297992 0.432498
vn 0.951854 0.299576 -0.065029
vn 0.850967 0.297991 -0.432499
vn 0.901279 0.298742 -0.313766
vn 0.951854 0.299576 -0.065029
vn 0.951854 0.299576 0.065029
vn 0.951854 0.299576 -0.065029
vn 0.901279 0.298742 -0.313766
vn 0.951854 0.299576 0.065029
vn 0.850967 0.297991 -0.432499
vn 0.619423 0.294985 -0.727530
vn 0.709783 0.296018 -0.639204
vn 0.850967 0.297991 -0.432499
vn 0.901279 0.298742 -0.313766
vn 0.850967 0.297991 -0.432499
vn 0.709783 0.296018 -0.639204
vn 0.901279 0.298742 -0.313766
vn 0.619423 0.294985 -0.727530
vn 0.299130 0.292354 -0.908323
vn 0.413936 0.293063 -0.861842
vn 0.619423 0.294985 -0.727530
vn 0.709783 0.296018 -0.639204
vn 0.619423 0.294985 -0.727530
vn 0.413936 0.293063 -0.861842
vn 0.709783 0.296018 -0.639204
vn 0.299130 0.292354 -0.908323
vn -0.061426 0.291575 -0.954574
vn 0.061427 0.291574 -0.954574
vn 0.299130 0.292354 -0.908323
vn 0.413936 0.293063 -0.861842
vn 0.299130 0.292354 -0.908323
vn 0.061427 0.291574 -0.954574
vn 0.413936 0.293063 -0.861842
vn -0.061426 0.291575 -0.954574
vn -0.413936 0.293066 -0.861841
vn -0.299130 0.292356 -0.908322
vn -0.061426 0.291575 -0.954574
vn 0.061427 0.291574 -0.954574
vn -0.061426 0.291575 -0.954574
vn -0.299130 0.292356 -0.908322
vn 0.061427 0.291574 -0.954574
vn -0.413936 0.293066 -0.861841
vn -0.709782 0.296019 -0.639204
vn -0.619422 0.294987 -0.727529
vn -0.413936 0.293066 -0.861841
vn -0.299130 0.292356 -0.908322
vn -0.413936 0.293066 -0.861841
vn -0.619422 0.294987 -0.727529
vn -0.299130 0.292356 -0.908322
vn -0.709782 0.296019 -0.639204
vn -0.901279 0.298742 -0.313766
vn -0.850967 0.297992 -0.432499
vn -0.709782 0.296019 -0.639204
vn -0.619422 0.294987 -0.727529
vn -0.709782 0.296019 -0.639204
vn -0.850967 0.297992 -0.432499
vn -0.619422 0.294987 -0.727529
vn -0.901279 0.298742 -0.313766
vn -0.951854 0.299576 0.065029
vn -0.951854 0.299576 -0.065029
vn -0.901279 0.298742 -0.313766
vn -0.850967 0.297992 -0.432499
vn -0.901279 0.298742 -0.313766
vn -0.951854 0.299576 -0.065029
vn -0.850967 0.297992 -0.432499
vn -0.951854 0.299576 0.065029
vn -0.850967 0.297992 0.432499
vn -0.901279 0.298742 0.313767
vn -0.951854 0.299576 0.065029
vn -0.951854 0.299576 -0.065029
vn -0.951854 0.299576 0.065029
vn -0.901279 0.298742 0.313767
vn -0.951854 0.299576 -0.065029
vn -0.850967 0.297992 0.432499
vn -0.619426 0.294987 0.727526
vn -0.709785 0.296020 0.639201
vn -0.850967 0.297992 0.432499
vn -0.901279 0.298742 0.313767
vn -0.850967 0.297992 0.432499
vn -0.709785 0.296020 0.639201
vn -0.901279 0.298742 0.313767
vn -0.619426 0.294987 0.727526
vn -0.299128 0.292352 0.908324
vn -0.413937 0.293064 0.861841
vn -0.619426 0.294987 0.727526
vn -0.709785 0.296020 0.639201
vn -0.619426 0.294987 0.727526
vn -0.413937 0.293064 0.861841
vn -0.709785 0.296020 0.639201
vn -0.299128 0.292352 0.908324
vn 0.061426 0.291574 0.954574
vn -0.061425 0.291572 0.954575
vn -0.299128 0.292352 0.908324
vn -0.413937 0.293064 0.861841
vn -0.299128 0.292352 0.908324
vn -0.061425 0.291572 0.954575
vn -0.413937 0.293064 0.861841
# 192 vertex normals

g mat1
f 18/1/1 17/2/2 33/3/3
f 19/5/5 18/6/6 33/7/7
f 20/9/9 19/10/10 33/11/11
f 21/13/13 20/14/14 33/15/15
f 22/17/17 21/18/18 33/19/19
f 23/21/21 22/22/22 33/23/23
f 24/25/25 23/26/26 33/27/27
f 25/29/29 24/30/30 33/31/31
f 26/33/33 25/34/34 33/35/35
f 27/37/37 26/38/38 33/39/39
f 28/41/41 27/42/42 33/43/43
f 29/45/45 28/46/46 33/47/47
f 30/49/49 29/50/50 33/51/51
f 31/53/53 30/54/54 33/55/55
f 32/57/57 31/58/58 33/59/59
f 17/61/61 32/62/62 33/63/63
f 17/65/65 18/66/66 2/67/67
f 1/69/69 17/70/70 2/71/71
f 18/73/73 19/74/74 3/75/75
f 2/77/77 18/78/78 3/79/79
f 19/81/81 20/82/82 4/83/83
f 3/85/85 19/86/86 4/87/87
f 20/89/89 21/90/90 5/91/91
f 4/93/93 20/94/94 5/95/95
f 21/97/97 22/98/98 6/99/99
f 5/101/101 21/102/102 6/103/103
f 22/105/105 23/106/106 7/107/107
f 6/109/109 22/110/110 7/111/111
f 23/113/113 24/114/114 8/115/115
f 7/117/117 23/118/118 8/119/119
f 24/121/121 25/122/122 9/123/123
f 8/125/125 24/126/126 9/127/127
f 25/129/129 26/130/130 10/131/131
f 9/133/133 25/134/134 10/135/135
f 26/137/137 27/138/138 11/139/139
f 10/141/141 26/142/142 11/143/143
f 27/145/145 28/146/146 12/147/147
f 11/149/149 27/150/150 12/151/151
f 28/153/153 29/154/154 13/155/155
f 12/157/157 28/158/158 13/159/159
f 29/161/161 30/162/162 14/163/163
f 13/165/165 29/166/166 14/167/167
f 30/169/169 31/170/170 15/171/171
f 14/173/173 30/174/174 15/175/175
f 31/177/177 32/178/178 16/179/179
f 15/181/181 31/182/182 16/183/183
f 32/185/185 17/186/186 1/187/187
f 16/189/189 32/190/190 1/191/191
# 48 elements

