# Created by Metasequoia

v 0.431309 1.354766 1.036784
v 0.431309 0.977766 0.957961
v 0.431309 0.658159 0.733488
v 0.431309 0.444607 0.397537
v 0.431309 0.369619 0.001258
v 0.431309 0.444607 -0.395022
v 0.431309 0.658159 -0.730974
v 0.431310 0.977766 -0.955446
v 0.431310 1.354766 -1.034270
v 0.431310 1.731767 -0.955446
v 0.431309 2.051371 -0.730974
v 0.431309 2.264924 -0.395022
v 0.431309 2.339915 0.001258
v 0.431309 2.264924 0.397537
v 0.431309 2.051371 0.733488
v 0.431309 1.731767 0.957961
v -0.431308 1.354766 1.036784
v -0.431308 0.977766 0.957961
v -0.431308 0.658159 0.733488
v -0.431308 0.444607 0.397537
v -0.431308 0.369619 0.001258
v -0.431308 0.444607 -0.395022
v -0.431308 0.658159 -0.730974
v -0.431308 0.977766 -0.955446
v -0.431308 1.354766 -1.034270
v -0.431308 1.731767 -0.955446
v -0.431308 2.051371 -0.730974
v -0.431308 2.264924 -0.395022
v -0.431308 2.339915 0.001258
v -0.431308 2.264924 0.397537
v -0.431308 2.051371 0.733488
v -0.431308 1.731767 0.957961
v 0.000001 2.072112 0.328228
v 0.204669 2.018624 0.328228
v 0.354497 1.872482 0.328228
v 0.409338 1.672857 0.328228
v 0.354497 1.473228 0.328228
v 0.204669 1.327092 0.328228
v 0.000001 1.273601 0.328228
v -0.204667 1.327090 0.328228
v -0.354495 1.473228 0.328228
v -0.409336 1.672857 0.328228
v -0.354495 1.872482 0.328228
v -0.204667 2.018620 0.328228
v 0.000000 2.072112 1.991872
v 0.204668 2.018624 1.991872
v 0.354496 1.872482 1.991872
v 0.409337 1.672857 1.991872
v 0.354496 1.473228 1.991872
v 0.204668 1.327092 1.991872
v 0.000000 1.273601 1.991872
v -0.204668 1.327090 1.991872
v -0.354496 1.473228 1.991872
v -0.409337 1.672857 1.991872
v -0.354496 1.872482 1.991872
v -0.204668 2.018620 1.991872
v 0.000000 1.672857 1.991872
v -0.145527 0.733842 2.407383
v -0.145527 1.071581 2.282025
v -0.149198 1.212379 1.944896
v 0.138680 0.733842 2.407383
v 0.138680 1.071581 2.282025
v 0.134977 1.211638 1.949095
v -0.145527 0.733842 2.322383
v -0.145527 1.004507 2.221921
v -0.148979 1.120355 1.944929
v 0.138680 0.733842 2.322383
v 0.138680 1.004507 2.221921
v 0.135195 1.119613 1.949129
v -0.148571 1.212528 1.651041
v 0.135589 1.211418 1.657341
v -0.148732 1.121962 1.651081
v 0.135427 1.120852 1.657381
v -0.148571 1.212528 1.348639
v 0.135589 1.211418 1.354939
v -0.148732 1.121962 1.348679
v 0.135428 1.120852 1.354979
v -0.148570 1.212528 1.038711
v 0.135589 1.211418 1.045011
v -0.148731 1.121962 1.038750
v 0.135428 1.120852 1.045050
v -0.147941 1.212676 0.737329
v 0.136202 1.211195 0.745729
v -0.148483 1.123569 0.737375
v 0.135660 1.122088 0.745776
v -0.111250 1.346797 1.880656
v -0.111250 1.189256 1.880656
v 0.106042 1.346797 1.880656
v 0.106042 1.189256 1.880656
v 0.106043 1.346797 0.864655
v 0.106043 1.189256 0.864655
v -0.111250 1.346797 0.864655
v -0.111250 1.189256 0.864655
# 93 vertices

vt 0.94474 0.41044
vt 0.88870 0.41044
vt 0.88870 0.43964
vt 0.94474 0.43964
vt 0.94474 0.38568
vt 0.88870 0.38568
vt 0.56824 0.18454
vt 0.51654 0.18454
vt 0.51654 0.20894
vt 0.56824 0.20894
vt 0.56824 0.15576
vt 0.51654 0.15576
vt 0.56824 0.12699
vt 0.51654 0.12699
vt 0.56824 0.10259
vt 0.51654 0.10259
vt 0.88870 0.27965
vt 0.94474 0.27965
vt 0.94474 0.25489
vt 0.88870 0.25489
vt 0.88870 0.30885
vt 0.94474 0.30885
vt 0.88870 0.33806
vt 0.94474 0.33806
vt 0.88870 0.36281
vt 0.94474 0.36281
vt 0.94474 0.60389
vt 0.88870 0.60389
vt 0.88870 0.62991
vt 0.94474 0.62991
vt 0.94474 0.57319
vt 0.88870 0.57319
vt 0.94474 0.54250
vt 0.88870 0.54250
vt 0.94474 0.51647
vt 0.88870 0.51647
vt 0.94474 0.46885
vt 0.88870 0.46885
vt 0.88870 0.49360
vt 0.94474 0.49360
vt 0.62777 0.04316
vt 0.62777 0.07037
vt 0.64248 0.06673
vt 0.65326 0.05677
vt 0.65721 0.04316
vt 0.65326 0.02956
vt 0.64248 0.01959
vt 0.62777 0.01595
vt 0.61306 0.01959
vt 0.60228 0.02956
vt 0.59833 0.04316
vt 0.60228 0.05677
vt 0.61306 0.06673
vt 0.61183 0.79750
vt 0.61183 0.67570
vt 0.59608 0.67570
vt 0.59608 0.79750
vt 0.62336 0.79750
vt 0.62336 0.67570
vt 0.49251 0.97259
vt 0.36293 0.97259
vt 0.36293 0.98835
vt 0.49251 0.98835
vt 0.49251 0.95684
vt 0.36293 0.95684
vt 0.26248 0.09669
vt 0.26248 0.22153
vt 0.27297 0.22153
vt 0.27297 0.09669
vt 0.24815 0.09669
vt 0.24815 0.22153
vt 0.23382 0.09669
vt 0.23382 0.22153
vt 0.22333 0.09669
vt 0.22333 0.22153
vt 0.09466 0.70940
vt 0.21952 0.70940
vt 0.21952 0.69669
vt 0.09466 0.69669
vt 0.09466 0.72211
vt 0.21952 0.72211
vt 0.58033 0.79750
vt 0.58033 0.67570
vt 0.56880 0.67570
vt 0.56880 0.79750
vt 0.81489 0.82027
vt 0.83382 0.82027
vt 0.83382 0.79594
vt 0.81489 0.79594
vt 0.32186 0.10038
vt 0.29943 0.10038
vt 0.29943 0.12174
vt 0.32186 0.12174
vt 0.01349 0.54057
vt 0.03408 0.54025
vt 0.03435 0.51532
vt 0.01375 0.51532
vt 0.55301 0.43058
vt 0.57006 0.43058
vt 0.56985 0.41020
vt 0.55281 0.40989
vt 0.78006 0.68438
vt 0.77156 0.70574
vt 0.77400 0.70843
vt 0.78360 0.68495
vt 0.79195 0.21164
vt 0.79523 0.20964
vt 0.78552 0.18782
vt 0.78298 0.18872
vt 0.74912 0.71517
vt 0.74883 0.71868
vt 0.81615 0.22248
vt 0.81579 0.21810
vt 0.01353 0.56258
vt 0.03413 0.56211
vt 0.56986 0.38840
vt 0.55282 0.38792
vt 0.72564 0.71443
vt 0.72564 0.71869
vt 0.83875 0.22354
vt 0.83875 0.21817
vt 0.67595 0.65826
vt 0.67595 0.65379
vt 0.65735 0.65379
vt 0.65735 0.65826
vt 0.01353 0.58523
vt 0.03413 0.58476
vt 0.56986 0.36580
vt 0.55282 0.36534
vt 0.70177 0.71443
vt 0.70177 0.71869
vt 0.86255 0.22354
vt 0.86255 0.21817
vt 0.01353 0.60845
vt 0.03413 0.60797
vt 0.56986 0.34264
vt 0.55282 0.34218
vt 0.67731 0.71443
vt 0.67731 0.71869
vt 0.88694 0.22354
vt 0.88694 0.21817
vt 0.01358 0.63102
vt 0.03418 0.63039
vt 0.56988 0.32028
vt 0.55284 0.31966
vt 0.65669 0.71456
vt 0.65669 0.71870
vt 0.91048 0.22353
vt 0.91048 0.21824
vt 0.94025 0.06673
vt 0.94025 0.05689
vt 0.92665 0.05689
vt 0.92665 0.06673
vt 0.77605 0.45332
vt 0.77605 0.44337
vt 0.69903 0.44337
vt 0.69903 0.45332
vt 0.81185 0.75964
vt 0.81185 0.75204
vt 0.73658 0.75204
vt 0.73658 0.75964
vt 0.31658 0.22523
vt 0.31658 0.14457
vt 0.30175 0.14457
vt 0.30175 0.22523
# 165 texture vertices

vn 0.00000 0.06952 0.99758
vn 0.00000 -0.33412 0.94253
vn 0.00000 -0.67598 0.73692
vn 0.00000 -0.90453 0.42640
vn 0.00000 -0.99802 0.06295
vn 0.00000 -0.95149 -0.30767
vn 0.00000 -0.76726 -0.64133
vn 0.00000 -0.45977 -0.88804
vn 0.00000 -0.06953 -0.99758
vn 0.00000 0.33412 -0.94253
vn 0.00000 0.67598 -0.73692
vn 0.00000 0.90453 -0.42640
vn 0.00000 0.99802 -0.06295
vn 0.00000 0.95149 0.30767
vn 0.00000 0.76726 0.64133
vn 0.00000 0.45978 0.88804
vn 0.00000 -0.06952 0.99758
vn 0.00000 -0.45977 0.88804
vn 0.00000 -0.76726 0.64133
vn 0.00000 -0.95149 0.30767
vn 0.00000 -0.99802 -0.06295
vn 0.00000 -0.90454 -0.42640
vn 0.00000 -0.67598 -0.73692
vn 0.00000 -0.33412 -0.94253
vn 0.00000 0.06953 -0.99758
vn 0.00000 0.45977 -0.88804
vn 0.00000 0.76726 -0.64133
vn 0.00000 0.95149 -0.30767
vn 0.00000 0.99802 0.06295
vn 0.00000 0.90453 0.42640
vn 0.00000 0.67598 0.73692
vn 0.00000 0.33412 0.94253
vn -0.08680 0.99623 -0.00000
vn 0.41352 0.91050 0.00000
vn 0.81204 0.58359 0.00000
vn 0.99583 0.09119 0.00000
vn 0.90355 -0.42848 0.00000
vn 0.56649 -0.82407 0.00000
vn 0.08679 -0.99623 0.00000
vn -0.41352 -0.91050 -0.00000
vn -0.81204 -0.58360 -0.00000
vn -0.99583 -0.09119 -0.00000
vn -0.90355 0.42848 -0.00000
vn -0.56650 0.82406 -0.00000
vn 0.00000 0.00000 1.00000
vn 0.00000 0.34797 0.93751
vn 0.00000 0.58222 0.81303
vn -0.00025 0.96494 0.26246
vn -0.00120 0.78841 0.61515
vn 0.00108 0.99132 0.13150
vn 0.00000 -0.34797 -0.93751
vn 0.00118 -0.78806 -0.61559
vn -0.00103 -0.99096 -0.13414
vn -0.00000 -0.34797 -0.93751
vn 0.00000 -0.58131 -0.81368
vn 0.00025 -0.96448 -0.26416
vn 0.00348 0.99999 -0.00008
vn 0.00391 0.99999 -0.00025
vn -0.00387 -0.99999 -0.00182
vn -0.00341 -0.99999 -0.00324
vn 0.00391 0.99999 0.00000
vn 0.00391 0.99999 0.00000
vn -0.00391 -0.99999 -0.00000
vn -0.00391 -0.99999 -0.00000
vn 0.00390 0.99999 0.00017
vn 0.00435 0.99999 -0.00008
vn -0.00426 -0.99999 -0.00316
vn -0.00388 -0.99999 -0.00138
vn 0.00456 0.99999 -0.00012
vn 0.00523 0.99999 -0.00073
vn -0.00505 -0.99997 -0.00534
vn -0.00443 -0.99998 -0.00473
vn 1.00000 0.00000 0.00000
vn -1.00000 0.00000 0.00000
vn 0.56650 0.82406 0.00000
vn 0.08678 0.99623 0.00000
vn 0.90355 0.42848 0.00000
vn 0.99583 -0.09119 0.00000
vn 0.81204 -0.58360 0.00000
vn 0.41352 -0.91049 0.00000
vn -0.08678 -0.99623 -0.00000
vn -0.56649 -0.82407 -0.00000
vn -0.90355 -0.42848 -0.00000
vn -0.99583 0.09119 -0.00000
vn -0.81204 0.58360 -0.00000
vn -0.41353 0.91049 -0.00000
vn -0.99997 -0.00316 0.00646
vn -0.99999 -0.00237 0.00264
vn 0.99999 0.00241 -0.00269
vn 0.99997 0.00320 -0.00662
vn 1.00000 0.00000 0.00000
vn -1.00000 -0.00099 0.00283
vn -0.99998 -0.00395 0.00575
vn 0.99997 0.00399 -0.00592
vn 1.00000 0.00098 -0.00296
vn -1.00000 0.00178 -0.00028
vn -1.00000 0.00039 -0.00099
vn 1.00000 -0.00040 0.00096
vn 1.00000 -0.00179 0.00026
vn 0.00000 -1.00000 0.00000
vn -1.00000 0.00178 -0.00000
vn -1.00000 0.00178 -0.00000
vn 1.00000 -0.00178 0.00000
vn 1.00000 -0.00178 0.00000
vn -0.99999 0.00321 -0.00096
vn -1.00000 0.00178 -0.00070
vn 1.00000 -0.00178 0.00068
vn 0.99999 -0.00321 0.00093
vn -0.99998 0.00608 -0.00079
vn -0.99999 0.00393 -0.00144
vn 0.99999 -0.00393 0.00140
vn 0.99998 -0.00608 0.00075
vn 0.00000 1.00000 0.00000
# 113 normal vertices

g obj1
f 17/3/17 18/2/18 2/1/2
f 1/4/1 17/3/17 2/1/2
f 18/2/18 19/6/19 3/5/3
f 2/1/2 18/2/18 3/5/3
f 19/9/19 20/8/20 4/7/4
f 3/10/3 19/9/19 4/7/4
f 20/8/20 21/12/21 5/11/5
f 4/7/4 20/8/20 5/11/5
f 21/12/21 22/14/22 6/13/6
f 5/11/5 21/12/21 6/13/6
f 22/14/22 23/16/23 7/15/7
f 6/13/6 22/14/22 7/15/7
f 23/19/23 24/18/24 8/17/8
f 7/20/7 23/19/23 8/17/8
f 24/18/24 25/22/25 9/21/9
f 8/17/8 24/18/24 9/21/9
f 25/22/25 26/24/26 10/23/10
f 9/21/9 25/22/25 10/23/10
f 26/24/26 27/26/27 11/25/11
f 10/23/10 26/24/26 11/25/11
f 27/29/27 28/28/28 12/27/12
f 11/30/11 27/29/27 12/27/12
f 28/28/28 29/32/29 13/31/13
f 12/27/12 28/28/28 13/31/13
f 29/32/29 30/34/30 14/33/14
f 13/31/13 29/32/29 14/33/14
f 30/34/30 31/36/31 15/35/15
f 14/33/14 30/34/30 15/35/15
f 31/39/31 32/38/32 16/37/16
f 15/40/15 31/39/31 16/37/16
f 32/38/32 17/3/17 1/4/1
f 16/37/16 32/38/32 1/4/1
f 46/43/45 45/42/45 57/41/45
f 47/44/45 46/43/45 57/41/45
f 48/45/45 47/44/45 57/41/45
f 49/46/45 48/45/45 57/41/45
f 50/47/45 49/46/45 57/41/45
f 51/48/45 50/47/45 57/41/45
f 52/49/45 51/48/45 57/41/45
f 53/50/45 52/49/45 57/41/45
f 54/51/45 53/50/45 57/41/45
f 55/52/45 54/51/45 57/41/45
f 56/53/45 55/52/45 57/41/45
f 45/42/45 56/53/45 57/41/45
f 45/56/76 46/55/75 34/54/34
f 33/57/33 45/56/76 34/54/34
f 46/55/75 47/59/77 35/58/35
f 34/54/34 46/55/75 35/58/35
f 47/62/77 48/61/78 36/60/36
f 35/63/35 47/62/77 36/60/36
f 48/61/78 49/65/79 37/64/37
f 36/60/36 48/61/78 37/64/37
f 49/68/79 50/67/80 38/66/38
f 37/69/37 49/68/79 38/66/38
f 50/67/80 51/71/81 39/70/39
f 38/66/38 50/67/80 39/70/39
f 51/71/81 52/73/82 40/72/40
f 39/70/39 51/71/81 40/72/40
f 52/73/82 53/75/83 41/74/41
f 40/72/40 52/73/82 41/74/41
f 53/78/83 54/77/84 42/76/42
f 41/79/41 53/78/83 42/76/42
f 54/77/84 55/81/85 43/80/43
f 42/76/42 54/77/84 43/80/43
f 55/84/85 56/83/86 44/82/44
f 43/85/43 55/84/85 44/82/44
f 56/83/86 45/56/76 33/57/33
f 44/82/44 56/83/86 33/57/33
f 61/88/46 62/87/49 59/86/47
f 58/89/46 61/88/46 59/86/47
f 68/92/55 67/91/54 64/90/51
f 65/93/52 68/92/55 64/90/51
f 62/96/49 63/95/50 60/94/48
f 59/97/47 62/96/49 60/94/48
f 69/100/56 68/99/55 65/98/52
f 66/101/53 69/100/56 65/98/52
f 59/104/88 65/103/87 64/102/74
f 58/105/74 59/104/88 64/102/74
f 67/108/91 68/107/90 62/106/89
f 61/109/91 67/108/91 62/106/89
f 60/111/93 66/110/92 65/103/87
f 59/104/88 60/111/93 65/103/87
f 68/107/90 69/113/95 63/112/94
f 62/106/89 68/107/90 63/112/94
f 63/95/50 71/115/58 70/114/57
f 60/94/48 63/95/50 70/114/57
f 73/116/60 69/100/56 66/101/53
f 72/117/59 73/116/60 66/101/53
f 70/119/97 72/118/96 66/110/92
f 60/111/93 70/119/97 66/110/92
f 69/113/95 73/121/99 71/120/98
f 63/112/94 69/113/95 71/120/98
f 64/124/100 67/123/100 61/122/100
f 64/124/100 61/122/100 58/125/100
f 71/115/58 75/127/62 74/126/61
f 70/114/57 71/115/58 74/126/61
f 77/128/64 73/116/60 72/117/59
f 76/129/63 77/128/64 72/117/59
f 74/131/102 76/130/101 72/118/96
f 70/119/97 74/131/102 72/118/96
f 73/121/99 77/133/104 75/132/103
f 71/120/98 73/121/99 75/132/103
f 75/127/62 79/135/66 78/134/65
f 74/126/61 75/127/62 78/134/65
f 81/136/68 77/128/64 76/129/63
f 80/137/67 81/136/68 76/129/63
f 78/139/106 80/138/105 76/130/101
f 74/131/102 78/139/106 76/130/101
f 77/133/104 81/141/108 79/140/107
f 75/132/103 77/133/104 79/140/107
f 79/135/66 83/143/70 82/142/69
f 78/134/65 79/135/66 82/142/69
f 85/144/72 81/136/68 80/137/67
f 84/145/71 85/144/72 80/137/67
f 82/147/110 84/146/109 80/138/105
f 78/139/106 82/147/110 80/138/105
f 81/141/108 85/149/112 83/148/111
f 79/140/107 81/141/108 83/148/111
f 87/152/45 89/151/45 88/150/45
f 86/153/45 87/152/45 88/150/45
f 89/156/73 91/155/73 90/154/73
f 88/157/73 89/156/73 90/154/73
f 93/160/74 87/159/74 86/158/74
f 92/161/74 93/160/74 86/158/74
f 86/164/113 88/163/113 90/162/113
f 92/165/113 86/164/113 90/162/113
# 126 elements

