# Created by 3DAce v2.72


g
v -1.530985 -0.089482 1.608648
v -1.530985 -0.299392 1.608648
v 1.544765 -0.089482 1.608648
v 1.544765 -0.299392 1.608648
v 1.544765 -0.089482 -1.362543
v 1.544765 -0.299392 -1.362543
v -1.530985 -0.089482 -1.362543
v -1.530985 -0.299392 -1.362543
v -1.530985 -0.089482 1.608648
v -1.530985 -0.299392 1.608648
v 1.544765 -0.089482 1.608648
v 1.544765 -0.299392 1.608648
v 1.544765 -0.089482 -1.362543
v 1.544765 -0.299392 -1.362543
v -1.530985 -0.089482 -1.362543
v -1.530985 -0.299392 -1.362543
v -1.530985 -0.089482 1.608648
v -1.530985 -0.299392 1.608648
v 1.544765 -0.089482 1.608648
v 1.544765 -0.299392 1.608648
v 1.544765 -0.089482 -1.362543
v 1.544765 -0.299392 -1.362543
v -1.530985 -0.089482 -1.362543
v -1.530985 -0.299392 -1.362543
# 24 vertices

vt 0.259870 0.013310
vt 0.456610 0.013310
vt 0.456610 0.203370
vt 0.259870 0.013310
vt 0.259870 0.203370
vt 0.259870 0.013310
vt 0.456610 0.203370
vt 0.259870 0.203370
vt 0.259880 0.203370
vt 0.456620 0.203370
vt 0.456620 0.013310
vt 0.259880 0.203370
vt 0.259880 0.013310
vt 0.259880 0.203370
vt 0.456620 0.013310
vt 0.259880 0.013310
vt 0.455700 0.223350
vt 0.261980 0.223350
vt 0.261980 0.237040
vt 0.455700 0.223350
vt 0.455700 0.237040
vt 0.455700 0.223350
vt 0.261980 0.237040
vt 0.455700 0.237040
vt 0.261980 0.223350
vt 0.455700 0.223350
vt 0.455700 0.237040
vt 0.261980 0.223350
vt 0.261980 0.237040
vt 0.261980 0.223350
vt 0.455700 0.237040
vt 0.261980 0.237040
vt 0.261970 0.223330
vt 0.455700 0.223330
vt 0.455700 0.237040
vt 0.261970 0.223330
vt 0.261970 0.237040
vt 0.261970 0.223330
vt 0.455700 0.237040
vt 0.261970 0.237040
vt 0.455700 0.223350
vt 0.261980 0.223350
vt 0.261980 0.236570
vt 0.455700 0.223350
vt 0.455700 0.236570
vt 0.455700 0.223350
vt 0.261980 0.236570
vt 0.455700 0.236570
# 48 texture vertices

vn 0.000000 1.000000 0.000000
vn 0.000000 1.000000 -0.000000
vn 0.000000 1.000000 0.000000
vn 0.000000 1.000000 0.000000
vn 0.000000 1.000000 0.000000
vn 0.000000 1.000000 0.000000
vn 0.000000 1.000000 0.000000
vn 0.000000 1.000000 0.000000
vn -0.000000 -1.000000 0.000000
vn -0.000000 -1.000000 -0.000000
vn -0.000000 -1.000000 0.000000
vn -0.000000 -1.000000 0.000000
vn -0.000000 -1.000000 0.000000
vn -0.000000 -1.000000 0.000000
vn -0.000000 -1.000000 0.000000
vn -0.000000 -1.000000 0.000000
vn 1.000000 0.000000 -0.000000
vn 1.000000 0.000000 -0.000000
vn 1.000000 0.000000 -0.000000
vn 1.000000 0.000000 -0.000000
vn 1.000000 0.000000 -0.000000
vn 1.000000 0.000000 -0.000000
vn 1.000000 0.000000 -0.000000
vn 1.000000 0.000000 -0.000000
vn -1.000000 0.000000 -0.000000
vn -1.000000 -0.000000 -0.000000
vn -1.000000 0.000000 -0.000000
vn -1.000000 0.000000 -0.000000
vn -1.000000 0.000000 -0.000000
vn -1.000000 0.000000 -0.000000
vn -1.000000 0.000000 -0.000000
vn -1.000000 0.000000 -0.000000
vn 0.000000 0.000000 1.000000
vn 0.000000 0.000000 1.000000
vn 0.000000 0.000000 1.000000
vn 0.000000 0.000000 1.000000
vn 0.000000 -0.000000 1.000000
vn 0.000000 0.000000 1.000000
vn 0.000000 0.000000 1.000000
vn 0.000000 -0.000000 1.000000
vn 0.000000 0.000000 -1.000000
vn 0.000000 0.000000 -1.000000
vn 0.000000 0.000000 -1.000000
vn 0.000000 0.000000 -1.000000
vn 0.000000 0.000000 -1.000000
vn 0.000000 0.000000 -1.000000
vn 0.000000 0.000000 -1.000000
vn 0.000000 0.000000 -1.000000
# 48 vertex normals

g mat1
f 1/1/1 3/2/2 5/3/3
f 7/5/5 1/6/6 5/7/7
f 8/9/9 6/10/10 4/11/11
f 2/13/13 8/14/14 4/15/15
f 12/17/17 14/18/18 13/19/19
f 11/21/21 12/22/22 13/23/23
f 16/25/25 10/26/26 9/27/27
f 15/29/29 16/30/30 9/31/31
f 18/33/33 20/34/34 19/35/35
f 17/37/37 18/38/38 19/39/39
f 22/41/41 24/42/42 23/43/43
f 21/45/45 22/46/46 23/47/47
# 12 elements

