# Created by Metasequoia

v 0.827380 0.499890 0.485200
v 0.827379 0.124734 0.482845
v 0.827379 0.124734 -0.482845
v 0.827380 0.499890 -0.485200
v 0.827380 1.462508 -0.300629
v 0.827380 1.462508 0.300629
v 0.555357 0.499890 0.485200
v 0.555357 0.124734 0.482845
v 0.555357 0.124734 -0.482845
v 0.555357 0.499890 -0.485200
v 0.555357 1.462508 -0.300629
v 0.555357 1.462508 0.300629
v 0.771181 -0.092566 0.233111
v 0.771181 -0.092566 -0.233111
v 0.555356 -0.092566 0.233111
v 0.555356 -0.092566 -0.233111
v 0.664420 -0.092566 0.445811
v 0.582191 -0.092566 0.445811
v 0.582191 -0.092566 -0.445811
v 0.658486 -0.092566 -0.445811
v -0.827380 0.499890 0.485200
v -0.827379 0.124734 0.482845
v -0.827379 0.124734 -0.482845
v -0.827380 0.499890 -0.485200
v -0.827380 1.462508 -0.300629
v -0.827380 1.462508 0.300629
v -0.555357 0.499890 0.485200
v -0.555357 0.124734 0.482845
v -0.555357 0.124734 -0.482845
v -0.555357 0.499890 -0.485200
v -0.555357 1.462508 -0.300629
v -0.555357 1.462508 0.300629
v -0.771181 -0.092566 0.233111
v -0.771181 -0.092566 -0.233111
v -0.555356 -0.092566 0.233111
v -0.555356 -0.092566 -0.233111
v -0.664420 -0.092566 0.445811
v -0.582191 -0.092566 0.445811
v -0.582191 -0.092566 -0.445811
v -0.658486 -0.092566 -0.445811
v 0.000000 -0.091884 0.815064
v 0.251868 -0.091884 0.775171
v 0.479082 -0.091884 0.659400
v 0.659400 -0.091884 0.479082
v 0.775171 -0.091884 0.251868
v 0.815064 -0.091884 0.000000
v 0.775171 -0.091884 -0.251868
v 0.659400 -0.091884 -0.479082
v 0.479082 -0.091884 -0.659400
v 0.251868 -0.091884 -0.775171
v 0.000000 -0.091884 -0.815064
v -0.251869 -0.091884 -0.775171
v -0.479082 -0.091884 -0.659400
v -0.659400 -0.091884 -0.479082
v -0.775171 -0.091884 -0.251868
v -0.815064 -0.091884 0.000001
v -0.775171 -0.091884 0.251869
v -0.659400 -0.091884 0.479083
v -0.479082 -0.091884 0.659400
v -0.251868 -0.091884 0.775172
v 0.000000 -0.193236 0.815064
v 0.251868 -0.193236 0.775171
v 0.479082 -0.193236 0.659400
v 0.659400 -0.193236 0.479082
v 0.775171 -0.193236 0.251868
v 0.815064 -0.193236 0.000000
v 0.775171 -0.193236 -0.251868
v 0.659400 -0.193236 -0.479082
v 0.479082 -0.193236 -0.659400
v 0.251868 -0.193236 -0.775171
v 0.000000 -0.193236 -0.815064
v -0.251869 -0.193236 -0.775171
v -0.479082 -0.193236 -0.659400
v -0.659400 -0.193236 -0.479082
v -0.775171 -0.193236 -0.251868
v -0.815064 -0.193236 0.000001
v -0.775171 -0.193236 0.251869
v -0.659400 -0.193236 0.479083
v -0.479082 -0.193236 0.659400
v -0.251868 -0.193236 0.775172
v 0.763479 0.168537 0.128765
v 0.763479 -0.088992 0.128765
v 0.844041 0.168537 0.128765
v 0.844041 -0.088992 0.128765
v 0.844041 0.168537 -0.128764
v 0.844041 -0.088992 -0.128764
v 0.763479 0.168537 -0.128764
v 0.763479 -0.088992 -0.128764
v -0.763479 0.168537 0.128765
v -0.763479 -0.088992 0.128765
v -0.844041 0.168537 0.128765
v -0.844041 -0.088992 0.128765
v -0.844041 0.168537 -0.128764
v -0.844041 -0.088992 -0.128764
v -0.763479 0.168537 -0.128764
v -0.763479 -0.088992 -0.128764
# 96 vertices

vt 0.64975 0.72869
vt 0.64356 0.76501
vt 0.68530 0.72869
vt 0.97139 0.72869
vt 0.93584 0.72869
vt 0.97758 0.76501
vt 0.85791 0.72869
vt 0.82235 0.72869
vt 0.81616 0.76501
vt 0.80498 0.76501
vt 0.79879 0.72869
vt 0.76323 0.72869
vt 0.57690 0.76501
vt 0.53143 0.76501
vt 0.53143 0.82772
vt 0.57690 0.82772
vt 0.58730 0.82772
vt 0.63277 0.82772
vt 0.63277 0.76501
vt 0.58730 0.76501
vt 0.58730 0.98862
vt 0.63277 0.98862
vt 0.67402 0.98862
vt 0.77452 0.98862
vt 0.53143 0.98862
vt 0.57690 0.98862
vt 0.64317 0.82772
vt 0.80537 0.82772
vt 0.81577 0.82772
vt 0.84662 0.98862
vt 0.94712 0.98862
vt 0.97797 0.82772
vt 0.65304 0.68288
vt 0.56892 0.68288
vt 0.56892 0.72182
vt 0.65304 0.72182
vt 0.69142 0.71698
vt 0.69142 0.70214
vt 0.53054 0.71698
vt 0.53054 0.70321
vt 0.54966 0.72869
vt 0.53592 0.72869
vt 0.62828 0.72869
vt 0.61553 0.72869
vt 0.89995 0.07726
vt 0.86141 0.04926
vt 0.81611 0.03454
vt 0.76848 0.03454
vt 0.92795 0.11580
vt 0.72317 0.04926
vt 0.94267 0.16110
vt 0.68464 0.07726
vt 0.94267 0.20873
vt 0.65664 0.11580
vt 0.92795 0.25404
vt 0.64192 0.16110
vt 0.89995 0.29257
vt 0.64192 0.20873
vt 0.86141 0.32057
vt 0.65664 0.25404
vt 0.81611 0.33529
vt 0.68464 0.29257
vt 0.76848 0.33529
vt 0.72317 0.32057
vt 0.92172 0.03454
vt 0.92172 0.01329
vt 0.86891 0.01329
vt 0.86891 0.03454
vt 0.96935 0.03454
vt 0.96935 0.01329
vt 0.05244 0.03454
vt 0.05244 0.01329
vt 0.01464 0.01329
vt 0.01464 0.03454
vt 0.10008 0.03454
vt 0.10008 0.01329
vt 0.15288 0.03454
vt 0.15288 0.01329
vt 0.20568 0.03454
vt 0.20568 0.01329
vt 0.25332 0.03454
vt 0.25332 0.01329
vt 0.29112 0.03454
vt 0.29112 0.01329
vt 0.33875 0.03454
vt 0.33875 0.01329
vt 0.39156 0.03454
vt 0.39156 0.01329
vt 0.44436 0.03454
vt 0.44436 0.01329
vt 0.49200 0.03454
vt 0.49200 0.01329
vt 0.52980 0.03454
vt 0.52980 0.01329
vt 0.57743 0.03454
vt 0.57743 0.01329
vt 0.63024 0.03454
vt 0.63024 0.01329
vt 0.68304 0.03454
vt 0.68304 0.01329
vt 0.73067 0.03454
vt 0.73067 0.01329
vt 0.76848 0.01329
vt 0.81611 0.01329
vt 0.04743 0.17451
vt 0.04743 0.08004
vt 0.01787 0.08004
vt 0.01787 0.17451
vt 0.14189 0.17451
vt 0.14189 0.08004
vt 0.17145 0.17451
vt 0.17145 0.08004
vt 0.04743 0.20406
vt 0.14189 0.20406
vt 0.14189 0.05048
vt 0.04743 0.05048
# 116 texture vertices

vn 0.00000 0.12397 0.99229
vn 0.97011 -0.22347 0.09465
vn 0.95199 -0.29028 -0.09724
vn 0.00000 0.05883 -0.99827
vn 0.00000 0.18831 -0.98211
vn 0.00000 1.00000 0.00000
vn 0.00000 0.05883 0.99827
vn -0.99928 -0.02856 0.02485
vn -0.99800 -0.04765 -0.04146
vn 0.00000 0.12397 -0.99229
vn 0.91667 -0.37984 0.12422
vn 0.87232 -0.44873 -0.19415
vn -0.99550 -0.07151 0.06223
vn -0.99800 -0.04765 -0.04146
vn 0.40054 -0.89395 0.20104
vn -0.98203 -0.14238 0.12390
vn -0.98203 -0.14238 -0.12390
vn 0.39101 -0.89677 -0.20717
vn -0.97011 -0.22347 0.09465
vn -0.95199 -0.29028 -0.09724
vn 0.99928 -0.02856 0.02485
vn 0.99800 -0.04765 -0.04146
vn -0.91667 -0.37984 0.12422
vn -0.87232 -0.44873 -0.19415
vn 0.99550 -0.07151 0.06223
vn 0.99800 -0.04765 -0.04146
vn -0.40054 -0.89395 0.20104
vn 0.98203 -0.14238 0.12390
vn 0.98203 -0.14238 -0.12390
vn -0.39101 -0.89677 -0.20717
vn 0.05272 0.00000 0.99861
vn 0.35873 0.00000 0.93344
vn 0.62962 0.00000 0.77690
vn 0.83888 0.00000 0.54431
vn 0.96603 0.00000 0.25845
vn 0.99861 0.00000 -0.05272
vn 0.93344 0.00000 -0.35873
vn 0.77690 0.00000 -0.62962
vn 0.54431 0.00000 -0.83888
vn 0.25845 0.00000 -0.96603
vn -0.05272 0.00000 -0.99861
vn -0.35873 0.00000 -0.93344
vn -0.62962 0.00000 -0.77690
vn -0.83888 0.00000 -0.54431
vn -0.96603 0.00000 -0.25845
vn -0.99861 0.00000 0.05272
vn -0.93344 0.00000 0.35873
vn -0.77690 0.00000 0.62962
vn -0.54432 0.00000 0.83888
vn -0.25845 0.00000 0.96603
vn 0.00000 0.00000 1.00000
vn 1.00000 0.00000 0.00000
vn 0.00000 0.00000 -1.00000
vn -1.00000 0.00000 0.00000
vn 0.00000 -0.06036 0.99818
vn 0.00000 -0.11443 0.99343
vn 0.00000 -0.06036 -0.99818
vn 0.00000 -0.11443 -0.99343
vn 0.00000 0.18831 0.98211
vn 1.00000 -0.00000 0.00000
vn 1.00000 -0.00000 0.00000
vn 0.00000 -1.00000 0.00000
vn 0.00000 -0.16801 0.98579
vn 0.00000 -0.16801 0.98579
vn 0.00000 -0.16801 -0.98579
vn -0.00000 -0.16801 -0.98579
vn -1.00000 -0.00000 0.00000
vn -1.00000 -0.00000 0.00000
vn 0.25845 0.00000 0.96603
vn -0.05272 0.00000 0.99861
vn 0.54431 0.00000 0.83888
vn 0.77690 0.00000 0.62962
vn 0.93344 0.00000 0.35873
vn 0.99861 0.00000 0.05272
vn 0.96603 0.00000 -0.25845
vn 0.83888 0.00000 -0.54431
vn 0.62962 0.00000 -0.77690
vn 0.35873 0.00000 -0.93344
vn 0.05272 0.00000 -0.99861
vn -0.25845 0.00000 -0.96602
vn -0.54432 0.00000 -0.83888
vn -0.77690 0.00000 -0.62962
vn -0.93344 0.00000 -0.35873
vn -0.99861 0.00000 -0.05272
vn -0.96603 0.00000 0.25845
vn -0.83888 0.00000 0.54432
vn -0.62962 0.00000 0.77690
vn -0.35873 0.00000 0.93344
vn 0.00000 1.00000 0.00000
vn 0.00000 -1.00000 0.00000
# 90 normal vertices

f 13/3/11 2/2/2 17/1/15
f 8/6/8 15/5/13 18/4/16
f 9/9/9 19/8/17 16/7/14
f 14/12/12 20/11/18 3/10/3
f 7/15/7 8/14/56 2/13/55
f 1/16/1 7/15/7 2/13/55
f 9/19/57 10/18/10 4/17/4
f 3/20/58 9/19/57 4/17/4
f 10/18/10 11/22/5 5/21/5
f 4/17/4 10/18/10 5/21/5
f 11/24/6 12/23/6 6/23/6
f 5/24/6 11/24/6 6/23/6
f 12/25/59 7/15/7 1/16/1
f 6/26/59 12/25/59 1/16/1
f 4/28/61 1/27/60 2/2/2
f 3/10/3 4/28/61 2/2/2
f 5/24/52 6/23/52 1/27/60
f 4/28/61 5/24/52 1/27/60
f 12/31/54 11/30/54 10/29/54
f 7/32/54 12/31/54 10/29/54
f 10/29/54 9/9/9 8/6/8
f 7/32/54 10/29/54 8/6/8
f 3/10/3 2/2/2 13/3/11
f 14/12/12 3/10/3 13/3/11
f 8/6/8 9/9/9 16/7/14
f 15/5/13 8/6/8 16/7/14
f 16/35/62 14/34/62 13/33/62
f 15/36/62 16/35/62 13/33/62
f 13/33/62 17/38/15 18/37/62
f 15/36/62 13/33/62 18/37/62
f 14/34/62 16/35/62 19/39/62
f 20/40/18 14/34/62 19/39/62
f 17/41/63 2/13/55 8/14/56
f 18/42/64 17/41/63 8/14/56
f 3/20/58 20/44/66 19/43/65
f 9/19/57 3/20/58 19/43/65
f 37/1/27 22/2/19 33/3/23
f 38/4/28 35/5/25 28/6/21
f 36/7/26 39/8/29 29/9/22
f 23/10/20 40/11/30 34/12/24
f 22/13/55 28/14/56 27/15/7
f 22/13/55 27/15/7 21/16/1
f 24/17/4 30/18/10 29/19/57
f 24/17/4 29/19/57 23/20/58
f 25/21/5 31/22/5 30/18/10
f 25/21/5 30/18/10 24/17/4
f 26/23/6 32/23/6 31/24/6
f 26/23/6 31/24/6 25/24/6
f 21/16/1 27/15/7 32/25/59
f 21/16/1 32/25/59 26/26/59
f 22/2/19 21/27/68 24/28/67
f 22/2/19 24/28/67 23/10/20
f 21/27/68 26/23/54 25/24/54
f 21/27/68 25/24/54 24/28/67
f 30/29/52 31/30/52 32/31/52
f 30/29/52 32/31/52 27/32/52
f 28/6/21 29/9/22 30/29/52
f 28/6/21 30/29/52 27/32/52
f 33/3/23 22/2/19 23/10/20
f 33/3/23 23/10/20 34/12/24
f 36/7/26 29/9/22 28/6/21
f 36/7/26 28/6/21 35/5/25
f 33/33/62 34/34/62 36/35/62
f 33/33/62 36/35/62 35/36/62
f 38/37/62 37/38/27 33/33/62
f 38/37/62 33/33/62 35/36/62
f 39/39/62 36/35/62 34/34/62
f 39/39/62 34/34/62 40/40/30
f 28/14/56 22/13/55 37/41/63
f 28/14/56 37/41/63 38/42/64
f 39/43/65 40/44/66 23/20/58
f 39/43/65 23/20/58 29/19/57
f 60/47/6 41/46/6 42/45/6
f 42/45/6 59/48/6 60/47/6
f 42/45/6 43/49/6 59/48/6
f 43/49/6 58/50/6 59/48/6
f 43/49/6 44/51/6 58/50/6
f 44/51/6 57/52/6 58/50/6
f 44/51/6 45/53/6 57/52/6
f 45/53/6 56/54/6 57/52/6
f 45/53/6 46/55/6 56/54/6
f 46/55/6 55/56/6 56/54/6
f 46/55/6 47/57/6 55/56/6
f 47/57/6 54/58/6 55/56/6
f 47/57/6 48/59/6 54/58/6
f 48/59/6 53/60/6 54/58/6
f 48/59/6 49/61/6 53/60/6
f 49/61/6 52/62/6 53/60/6
f 49/61/6 50/63/6 52/62/6
f 50/63/6 51/64/6 52/62/6
f 61/67/31 62/66/32 42/65/69
f 41/68/70 61/67/31 42/65/69
f 62/66/32 63/70/33 43/69/71
f 42/65/69 62/66/32 43/69/71
f 63/73/33 64/72/34 44/71/72
f 43/74/71 63/73/33 44/71/72
f 64/72/34 65/76/35 45/75/73
f 44/71/72 64/72/34 45/75/73
f 65/76/35 66/78/36 46/77/74
f 45/75/73 65/76/35 46/77/74
f 66/78/36 67/80/37 47/79/75
f 46/77/74 66/78/36 47/79/75
f 67/80/37 68/82/38 48/81/76
f 47/79/75 67/80/37 48/81/76
f 68/82/38 69/84/39 49/83/77
f 48/81/76 68/82/38 49/83/77
f 69/84/39 70/86/40 50/85/78
f 49/83/77 69/84/39 50/85/78
f 70/86/40 71/88/41 51/87/79
f 50/85/78 70/86/40 51/87/79
f 71/88/41 72/90/42 52/89/80
f 51/87/79 71/88/41 52/89/80
f 72/90/42 73/92/43 53/91/81
f 52/89/80 72/90/42 53/91/81
f 73/92/43 74/94/44 54/93/82
f 53/91/81 73/92/43 54/93/82
f 74/94/44 75/96/45 55/95/83
f 54/93/82 74/94/44 55/95/83
f 75/96/45 76/98/46 56/97/84
f 55/95/83 75/96/45 56/97/84
f 76/98/46 77/100/47 57/99/85
f 56/97/84 76/98/46 57/99/85
f 77/100/47 78/102/48 58/101/86
f 57/99/85 77/100/47 58/101/86
f 78/102/48 79/103/49 59/48/87
f 58/101/86 78/102/48 59/48/87
f 79/103/49 80/104/50 60/47/88
f 59/48/87 79/103/49 60/47/88
f 80/104/50 61/67/31 41/68/70
f 60/47/88 80/104/50 41/68/70
f 82/107/51 84/106/51 83/105/51
f 81/108/51 82/107/51 83/105/51
f 84/106/52 86/110/52 85/109/52
f 83/105/52 84/106/52 85/109/52
f 86/110/53 88/112/53 87/111/53
f 85/109/53 86/110/53 87/111/53
f 81/113/6 83/105/89 85/109/6
f 87/114/89 81/113/6 85/109/6
f 88/115/62 86/110/90 84/106/62
f 82/116/90 88/115/62 84/106/62
f 91/105/51 92/106/51 90/107/51
f 91/105/51 90/107/51 89/108/51
f 93/109/54 94/110/54 92/106/54
f 93/109/54 92/106/54 91/105/54
f 95/111/53 96/112/53 94/110/53
f 95/111/53 94/110/53 93/109/53
f 93/109/6 91/105/89 89/113/6
f 93/109/6 89/113/6 95/114/89
f 92/106/62 94/110/90 96/115/62
f 92/106/62 96/115/62 90/116/90
# 150 elements

