# Created by Metasequoia

v -0.937323 -0.189714 0.937323
v -0.937323 -0.300019 0.937323
v 0.937323 -0.189714 0.937323
v 0.937323 -0.300019 0.937323
v 0.937323 -0.189714 -0.937323
v 0.937323 -0.300019 -0.937323
v -0.937323 -0.189714 -0.937323
v -0.937323 -0.300019 -0.937323
# 8 vertices

vt 0.59965 0.08115
vt 0.59965 0.07101
vt 0.42720 0.07101
vt 0.42720 0.08115
vt 0.59965 0.25360
vt 0.60979 0.25360
vt 0.60979 0.08115
vt 0.42720 0.25360
vt 0.42720 0.26375
vt 0.59965 0.26375
vt 0.41705 0.08115
vt 0.41705 0.25360
# 12 texture vertices

vn 0.00000 0.00000 1.00000
vn 1.00000 0.00000 0.00000
vn 0.00000 0.00000 -1.00000
vn -1.00000 0.00000 0.00000
vn 0.00000 1.00000 0.00000
vn 0.00000 -1.00000 0.00000
# 6 normal vertices

f 2/3/1 4/2/1 3/1/1
f 1/4/1 2/3/1 3/1/1
f 4/7/2 6/6/2 5/5/2
f 3/1/2 4/7/2 5/5/2
f 6/10/3 8/9/3 7/8/3
f 5/5/3 6/10/3 7/8/3
f 8/12/4 2/11/4 1/4/4
f 7/8/4 8/12/4 1/4/4
f 1/4/5 3/1/5 5/5/5
f 7/8/5 1/4/5 5/5/5
f 8/8/6 6/5/6 4/1/6
f 2/4/6 8/8/6 4/1/6
# 12 elements

