# Created by Metasequoia

v 2.560141 0.809646 -0.822011
v 2.219233 0.809646 -0.822011
v 2.389690 0.514416 -0.822011
v 2.730591 0.514416 -0.822011
v 2.901046 0.809646 -0.822011
v 2.730591 1.104875 -0.822011
v 2.389690 1.104875 -0.822011
v 2.219233 0.809646 -2.834969
v 2.389690 0.514416 -2.834969
v 2.730591 0.514416 -2.834969
v 2.901046 0.809646 -2.834969
v 2.730591 1.104875 -2.834969
v 2.389690 1.104875 -2.834969
v 2.560141 0.809646 -2.834969
v -2.560141 0.809646 -0.822011
v -2.219233 0.809646 -0.822011
v -2.389690 0.514416 -0.822011
v -2.730591 0.514416 -0.822011
v -2.901046 0.809646 -0.822011
v -2.730591 1.104875 -0.822011
v -2.389690 1.104875 -0.822011
v -2.219233 0.809646 -2.834969
v -2.389690 0.514416 -2.834969
v -2.730591 0.514416 -2.834969
v -2.901046 0.809646 -2.834969
v -2.730591 1.104875 -2.834969
v -2.389690 1.104875 -2.834969
v -2.560141 0.809646 -2.834969
# 28 vertices

vt 0.65872 0.02731
vt 0.64546 0.00432
vt 0.63219 0.02731
vt 0.67200 0.00432
vt 0.68526 0.02731
vt 0.67200 0.05029
vt 0.64546 0.05029
vt 0.53224 0.02244
vt 0.62500 0.02244
vt 0.62500 0.00684
vt 0.53224 0.00684
# 11 texture vertices

vn 0.00000 0.00000 1.00000
vn 0.00000 0.00000 -1.00000
vn -0.86602 -0.50001 0.00000
vn -0.86602 -0.50001 0.00000
vn 0.00000 -1.00000 0.00000
vn 0.86602 -0.50001 0.00000
vn 0.86602 -0.50001 0.00000
vn 0.86602 0.50001 0.00000
vn 0.86602 0.50001 0.00000
vn 0.00000 1.00000 0.00000
vn -0.86602 0.50001 0.00000
vn -0.86602 0.50001 0.00000
vn 0.86602 -0.50001 0.00000
vn 0.86602 -0.50001 0.00000
vn -0.86602 -0.50001 0.00000
vn -0.86602 -0.50001 -0.00000
vn -0.86602 0.50001 0.00000
vn -0.86602 0.50001 0.00000
vn 0.86602 0.50001 0.00000
vn 0.86602 0.50001 0.00000
# 20 normal vertices

f 2/3/1 3/2/1 1/1/1
f 3/2/1 4/4/1 1/1/1
f 4/4/1 5/5/1 1/1/1
f 5/5/1 6/6/1 1/1/1
f 6/6/1 7/7/1 1/1/1
f 7/7/1 2/3/1 1/1/1
f 9/2/2 8/3/2 14/1/2
f 10/4/2 9/2/2 14/1/2
f 11/5/2 10/4/2 14/1/2
f 12/6/2 11/5/2 14/1/2
f 13/7/2 12/6/2 14/1/2
f 8/3/2 13/7/2 14/1/2
f 8/10/3 9/9/4 3/8/3
f 2/11/4 8/10/3 3/8/3
f 9/9/5 10/10/5 4/11/5
f 3/8/5 9/9/5 4/11/5
f 10/10/6 11/9/7 5/8/6
f 4/11/7 10/10/6 5/8/6
f 11/9/8 12/10/9 6/11/8
f 5/8/9 11/9/8 6/11/8
f 12/10/10 13/9/10 7/8/10
f 6/11/10 12/10/10 7/8/10
f 13/9/11 8/10/12 2/11/11
f 7/8/12 13/9/11 2/11/11
f 15/1/1 17/2/1 16/3/1
f 15/1/1 18/4/1 17/2/1
f 15/1/1 19/5/1 18/4/1
f 15/1/1 20/6/1 19/5/1
f 15/1/1 21/7/1 20/6/1
f 15/1/1 16/3/1 21/7/1
f 28/1/2 22/3/2 23/2/2
f 28/1/2 23/2/2 24/4/2
f 28/1/2 24/4/2 25/5/2
f 28/1/2 25/5/2 26/6/2
f 28/1/2 26/6/2 27/7/2
f 28/1/2 27/7/2 22/3/2
f 17/8/13 23/9/14 22/10/13
f 17/8/13 22/10/13 16/11/14
f 18/11/5 24/10/5 23/9/5
f 18/11/5 23/9/5 17/8/5
f 19/8/15 25/9/16 24/10/15
f 19/8/15 24/10/15 18/11/16
f 20/11/17 26/10/18 25/9/17
f 20/11/17 25/9/17 19/8/18
f 21/8/10 27/9/10 26/10/10
f 21/8/10 26/10/10 20/11/10
f 16/11/19 22/10/20 27/9/19
f 16/11/19 27/9/19 21/8/20
# 48 elements

