# Created by Metasequoia

v -0.343920 1.258514 3.307008
v -0.343923 1.376449 3.591734
v -0.343923 1.140576 3.591734
v -0.343925 0.973788 3.424944
v -0.343925 0.973790 3.189069
v -0.343925 1.140576 3.022285
v -0.343925 1.376449 3.022285
v -0.343923 1.543237 3.189069
v -0.343925 1.543240 3.424947
v -0.077388 1.376449 3.591734
v -0.077388 1.140576 3.591734
v -0.077388 0.973788 3.424944
v -0.077388 0.973790 3.189069
v -0.077388 1.140576 3.022283
v -0.077388 1.376449 3.022283
v -0.077388 1.543237 3.189069
v -0.077388 1.543240 3.424947
v -0.077390 1.258514 3.307008
v -0.077387 1.376449 3.591734
v -0.077387 1.140576 3.591734
v -0.077385 0.973788 3.424944
v -0.077385 0.973790 3.189069
v -0.077385 1.140576 3.022285
v -0.077385 1.376449 3.022285
v -0.077387 1.543237 3.189069
v -0.077385 1.543240 3.424947
v 0.077390 1.258514 3.307008
v 0.077387 1.376449 3.591734
v 0.077387 1.140576 3.591734
v 0.077385 0.973788 3.424944
v 0.077385 0.973790 3.189069
v 0.077385 1.140576 3.022285
v 0.077385 1.376449 3.022285
v 0.077387 1.543237 3.189069
v 0.077385 1.543240 3.424947
v 0.343920 1.258514 3.307008
v 0.343923 1.376449 3.591734
v 0.343923 1.140576 3.591734
v 0.343925 0.973788 3.424944
v 0.343925 0.973790 3.189069
v 0.343925 1.140576 3.022285
v 0.343925 1.376449 3.022285
v 0.343923 1.543237 3.189069
v 0.343925 1.543240 3.424947
v 0.077388 1.376449 3.591734
v 0.077388 1.140576 3.591734
v 0.077388 0.973788 3.424944
v 0.077388 0.973790 3.189069
v 0.077388 1.140576 3.022283
v 0.077388 1.376449 3.022283
v 0.077388 1.543237 3.189069
v 0.077388 1.543240 3.424947
# 52 vertices

vt 0.23441 0.16888
vt 0.23441 0.15922
vt 0.24608 0.16405
vt 0.24125 0.15238
vt 0.25091 0.15238
vt 0.25775 0.15922
vt 0.25775 0.16888
vt 0.25091 0.17572
vt 0.24125 0.17572
vt 0.27154 0.20649
vt 0.27154 0.22360
vt 0.29099 0.22360
vt 0.29100 0.20649
vt 0.27154 0.18949
vt 0.29100 0.18949
vt 0.25386 0.18073
vt 0.25386 0.19820
vt 0.23439 0.19820
vt 0.23439 0.18073
vt 0.27154 0.24113
vt 0.29099 0.24113
vt 0.33493 0.22360
vt 0.33493 0.20649
vt 0.31548 0.20649
vt 0.31548 0.22360
vt 0.33493 0.18949
vt 0.31548 0.18949
vt 0.33493 0.24113
vt 0.31548 0.24113
# 29 texture vertices

vn -1.00000 0.00000 0.00000
vn -1.00000 -0.00001 -0.00001
vn -1.00000 0.00001 -0.00001
vn -1.00000 0.00002 -0.00000
vn -1.00000 0.00002 0.00001
vn -1.00000 0.00001 0.00002
vn -1.00000 -0.00000 0.00002
vn -1.00000 -0.00001 0.00000
vn -1.00000 -0.00002 -0.00001
vn 0.00000 0.25272 0.96754
vn 0.00000 -0.50545 0.86285
vn 0.00000 -0.96754 0.25272
vn -0.00000 -0.86285 -0.50545
vn -0.00001 -0.25272 -0.96754
vn -0.00000 0.50544 -0.86286
vn 0.00000 0.96754 -0.25273
vn 0.00000 0.86285 0.50545
vn 1.00000 0.00000 0.00000
vn 1.00000 -0.00001 -0.00001
vn 1.00000 0.00001 -0.00001
vn 1.00000 0.00002 -0.00000
vn 1.00000 0.00002 0.00001
vn 1.00000 0.00001 0.00002
vn 1.00000 -0.00000 0.00002
vn 1.00000 -0.00001 0.00000
vn 1.00000 -0.00002 -0.00001
vn 0.00000 0.50544 0.86286
vn 0.00000 -0.25273 0.96754
vn 0.00000 -0.86286 0.50544
vn 0.00000 -0.96754 -0.25273
vn 0.00000 -0.50545 -0.86286
vn 0.00001 0.25272 -0.96754
vn 0.00000 0.86285 -0.50546
vn 0.00000 0.96754 0.25272
vn 0.00000 -0.96754 -0.25273
vn -0.00000 -0.50545 -0.86286
vn -0.00001 0.25272 -0.96754
vn -0.00000 0.86285 -0.50546
vn 0.00000 -0.86285 -0.50545
vn 0.00001 -0.25272 -0.96754
vn 0.00000 0.50544 -0.86286
vn 0.00000 0.96754 -0.25274
# 42 normal vertices

f 1/3/1 3/2/3 2/1/2
f 1/3/1 4/4/4 3/2/3
f 1/3/1 5/5/5 4/4/4
f 1/3/1 6/6/6 5/5/5
f 1/3/1 7/7/7 6/6/6
f 1/3/1 8/8/8 7/7/7
f 1/3/1 9/9/9 8/8/8
f 1/3/1 2/1/2 9/9/9
f 10/12/10 2/11/27 3/10/28
f 11/13/11 10/12/10 3/10/28
f 11/13/11 3/10/28 4/14/29
f 12/15/12 11/13/11 4/14/29
f 12/18/12 4/17/29 5/16/35
f 13/19/13 12/18/12 5/16/35
f 13/19/13 5/16/35 6/17/36
f 14/18/14 13/19/13 6/17/36
f 14/18/14 6/17/36 7/16/37
f 15/19/15 14/18/14 7/16/37
f 15/19/15 7/16/37 8/17/38
f 16/18/16 15/19/15 8/17/38
f 16/18/16 8/17/38 9/16/34
f 17/19/17 16/18/16 9/16/34
f 17/21/17 9/20/34 2/11/27
f 10/12/10 17/21/17 2/11/27
f 20/2/20 18/3/18 19/1/19
f 21/4/21 18/3/18 20/2/20
f 22/5/22 18/3/18 21/4/21
f 23/6/23 18/3/18 22/5/22
f 24/7/24 18/3/18 23/6/23
f 25/8/25 18/3/18 24/7/24
f 26/9/26 18/3/18 25/8/25
f 19/1/19 18/3/18 26/9/26
f 27/3/1 29/2/3 28/1/2
f 27/3/1 30/4/4 29/2/3
f 27/3/1 31/5/5 30/4/4
f 27/3/1 32/6/6 31/5/5
f 27/3/1 33/7/7 32/6/6
f 27/3/1 34/8/8 33/7/7
f 27/3/1 35/9/9 34/8/8
f 27/3/1 28/1/2 35/9/9
f 37/1/19 38/2/20 36/3/18
f 38/2/20 39/4/21 36/3/18
f 39/4/21 40/5/22 36/3/18
f 40/5/22 41/6/23 36/3/18
f 41/6/23 42/7/24 36/3/18
f 42/7/24 43/8/25 36/3/18
f 43/8/25 44/9/26 36/3/18
f 44/9/26 37/1/19 36/3/18
f 46/24/28 38/23/11 37/22/10
f 45/25/27 46/24/28 37/22/10
f 47/27/29 39/26/12 38/23/11
f 46/24/28 47/27/29 38/23/11
f 48/19/30 40/16/39 39/17/12
f 47/18/29 48/19/30 39/17/12
f 49/18/31 41/17/40 40/16/39
f 48/19/30 49/18/31 40/16/39
f 50/19/32 42/16/41 41/17/40
f 49/18/31 50/19/32 41/17/40
f 51/18/33 43/17/42 42/16/41
f 50/19/32 51/18/33 42/16/41
f 52/19/34 44/16/17 43/17/42
f 51/18/33 52/19/34 43/17/42
f 45/25/27 37/22/10 44/28/17
f 52/29/34 45/25/27 44/28/17
# 64 elements

