# Created by Metasequoia

v 0.000000 1.813551 3.126747
v -0.148076 1.813551 3.484225
v 0.148076 1.813551 3.484225
v 0.357485 1.813551 3.274818
v 0.357485 1.813551 2.978667
v 0.148076 1.813551 2.769254
v -0.148076 1.813551 2.769254
v -0.357485 1.813551 2.978666
v -0.357485 1.813551 3.274815
v -0.148076 1.632287 3.484225
v 0.148076 1.632287 3.484225
v 0.357485 1.632287 3.274818
v 0.357485 1.632287 2.978667
v 0.148076 1.632287 2.769254
v -0.148076 1.632287 2.769254
v -0.357485 1.632287 2.978666
v -0.357485 1.632287 3.274815
v -0.126077 1.981597 3.562456
v -0.126077 1.729439 3.562456
v 0.126077 1.981597 3.562456
v 0.126077 1.729439 3.562456
v 0.126077 1.981597 3.310298
v 0.126077 1.729439 3.310298
v -0.126077 1.981597 3.310298
v -0.126077 1.729439 3.310298
v -0.083280 1.565687 3.608503
v -0.083280 0.951127 3.424197
v 0.083280 1.565687 3.608503
v 0.083280 0.951127 3.424197
v 0.083280 1.565687 3.016094
v 0.083280 0.951127 3.016094
v -0.083280 1.565687 3.016094
v -0.083280 0.951127 3.016094
v -0.083280 1.141070 3.608503
v 0.083280 1.141070 3.608503
# 35 vertices

vt 0.20898 0.22640
vt 0.21581 0.20993
vt 0.20216 0.20993
vt 0.22545 0.21958
vt 0.22545 0.23322
vt 0.21581 0.24287
vt 0.20216 0.24287
vt 0.19251 0.23322
vt 0.19251 0.21958
vt 0.21581 0.20128
vt 0.20216 0.20128
vt 0.18851 0.20128
vt 0.18851 0.20993
vt 0.21090 0.17868
vt 0.21090 0.16316
vt 0.19534 0.16316
vt 0.19534 0.17868
vt 0.22654 0.17868
vt 0.22654 0.16316
vt 0.19534 0.14751
vt 0.21090 0.14751
vt 0.21090 0.19431
vt 0.19534 0.19431
vt 0.23049 0.22172
vt 0.25778 0.24119
vt 0.23049 0.24119
vt 0.25778 0.21291
vt 0.23892 0.21291
vt 0.26562 0.24119
vt 0.26562 0.21291
vt 0.30954 0.18948
vt 0.29687 0.18948
vt 0.29687 0.20943
vt 0.30954 0.20943
vt 0.29687 0.24121
vt 0.30954 0.24121
vt 0.25778 0.20512
vt 0.23892 0.20512
# 38 texture vertices

vn 0.00000 1.00000 0.00000
vn -0.25273 0.00000 0.96754
vn 0.50545 0.00000 0.86286
vn 0.96754 0.00000 0.25273
vn 0.86286 0.00000 -0.50544
vn 0.25273 0.00000 -0.96754
vn -0.50545 0.00000 -0.86285
vn -0.96754 0.00000 -0.25272
vn -0.86286 0.00000 0.50545
vn 0.00000 0.00000 1.00000
vn 1.00000 0.00000 0.00000
vn 0.00000 0.00000 -1.00000
vn -1.00000 -0.00000 -0.00000
vn 0.25272 0.00000 0.96754
vn -0.50545 0.00000 0.86286
vn 0.86285 0.00000 0.50545
vn 0.96754 0.00000 -0.25272
vn 0.50545 0.00000 -0.86285
vn -0.25273 0.00000 -0.96754
vn -0.86286 0.00000 -0.50545
vn -0.96754 0.00000 0.25272
vn 0.00000 -1.00000 0.00000
vn 0.00000 -0.85754 0.51442
vn 0.00000 -0.96636 0.25721
vn 0.00000 -0.37572 0.92674
vn 0.00000 0.00000 1.00000
# 26 normal vertices

f 2/3/1 3/2/1 1/1/1
f 3/2/1 4/4/1 1/1/1
f 4/4/1 5/5/1 1/1/1
f 5/5/1 6/6/1 1/1/1
f 6/6/1 7/7/1 1/1/1
f 7/7/1 8/8/1 1/1/1
f 8/8/1 9/9/1 1/1/1
f 9/9/1 2/3/1 1/1/1
f 10/11/2 11/10/3 3/2/14
f 2/3/15 10/11/2 3/2/14
f 11/12/3 12/11/4 4/3/16
f 3/13/14 11/12/3 4/3/16
f 12/11/4 13/12/5 5/13/17
f 4/3/16 12/11/4 5/13/17
f 13/12/5 14/11/6 6/3/18
f 5/13/17 13/12/5 6/3/18
f 14/11/6 15/12/7 7/13/19
f 6/3/18 14/11/6 7/13/19
f 15/12/7 16/11/8 8/3/20
f 7/13/19 15/12/7 8/3/20
f 16/11/8 17/12/9 9/13/21
f 8/3/20 16/11/8 9/13/21
f 17/12/9 10/11/2 2/3/15
f 9/13/21 17/12/9 2/3/15
f 19/16/10 21/15/10 20/14/10
f 18/17/10 19/16/10 20/14/10
f 21/15/11 23/19/11 22/18/11
f 20/14/11 21/15/11 22/18/11
f 23/21/12 25/20/12 24/16/12
f 22/15/12 23/21/12 24/16/12
f 25/19/13 19/15/13 18/14/13
f 24/18/13 25/19/13 18/14/13
f 18/17/1 20/14/1 22/22/1
f 24/23/1 18/17/1 22/22/1
f 25/20/22 23/21/22 21/15/22
f 19/16/22 25/20/22 21/15/22
f 26/26/13 32/25/13 34/24/13
f 34/24/13 32/25/13 33/27/13
f 27/28/13 34/24/13 33/27/13
f 28/26/11 35/24/11 30/25/11
f 35/24/11 29/28/11 31/27/11
f 30/25/11 35/24/11 31/27/11
f 31/27/12 33/30/12 32/29/12
f 30/25/12 31/27/12 32/29/12
f 26/30/1 28/27/1 30/25/1
f 32/29/1 26/30/1 30/25/1
f 34/33/25 27/32/24 29/31/23
f 35/34/25 34/33/25 29/31/23
f 28/36/10 26/35/26 34/33/25
f 35/34/25 28/36/10 34/33/25
f 27/38/24 33/37/22 31/27/22
f 29/28/23 27/38/24 31/27/22
# 52 elements

