# Created by Metasequoia

v -0.143374 0.162707 0.995054
v 0.143374 0.391805 0.995054
v 0.143374 0.162707 0.995054
v 0.143374 0.391805 0.291356
v 0.143374 0.162707 0.291356
v -0.143374 0.162707 0.291356
v -0.143374 0.391805 0.995054
v 0.000000 0.069591 0.995054
v -0.143374 0.391805 0.291356
v 0.000000 0.069591 0.291356
v -0.110618 0.321104 1.521436
v -0.110618 0.196432 1.521436
v 0.110618 0.321104 1.521436
v 0.110618 0.196432 1.521436
v 0.110618 0.321104 0.994084
v 0.110618 0.196432 0.994084
v -0.110618 0.321104 0.994084
v -0.110618 0.196432 0.994084
v -0.032111 0.290244 2.189884
v -0.032111 0.226025 2.189884
v 0.032111 0.290244 2.189884
v 0.032111 0.226025 2.189884
v 0.032111 0.290244 1.521312
v 0.032111 0.226025 1.521312
v -0.032111 0.290244 1.521312
v -0.032111 0.226025 1.521312
v -0.063909 0.309436 2.499576
v -0.063909 0.206802 2.499576
v 0.063909 0.309436 2.499576
v 0.063909 0.206802 2.499576
v 0.063909 0.309436 2.188450
v 0.063909 0.206802 2.188450
v -0.063909 0.309436 2.188450
v -0.063909 0.206802 2.188450
v 0.000000 0.229682 1.687643
v 0.024573 0.229682 1.616689
v -0.024573 0.229682 1.616689
v 0.000000 0.088014 0.308989
v 0.024573 0.088014 0.351545
v -0.024573 0.088014 0.351545
v 0.000000 -0.009819 1.239517
v 0.024573 0.033283 1.239517
v -0.024573 0.033283 1.239517
v 0.000000 -0.009819 0.351545
v 0.000000 0.033283 0.308989
v 0.024573 0.033283 0.351545
v -0.024573 0.033283 0.351545
# 47 vertices

vt 0.78321 0.16308
vt 0.76576 0.16307
vt 0.75876 0.15234
vt 0.78321 0.14164
vt 0.76576 0.14164
vt 0.83593 0.14164
vt 0.83593 0.12402
vt 0.78321 0.12402
vt 0.83593 0.16308
vt 0.83593 0.11141
vt 0.78321 0.11141
vt 0.72556 0.17870
vt 0.72556 0.16602
vt 0.70313 0.16602
vt 0.70313 0.17870
vt 0.77831 0.17870
vt 0.77831 0.16602
vt 0.72556 0.23144
vt 0.70313 0.23144
vt 0.82128 0.10742
vt 0.82128 0.10060
vt 0.75098 0.10060
vt 0.75098 0.10742
vt 0.74610 0.22756
vt 0.73341 0.22756
vt 0.73341 0.24316
vt 0.74610 0.24316
vt 0.78417 0.22756
vt 0.78417 0.21486
vt 0.74610 0.21486
vt 0.78417 0.24316
vt 0.79686 0.24316
vt 0.79686 0.22756
vt 0.85938 0.18944
vt 0.86327 0.18944
vt 0.85938 0.18556
vt 0.79686 0.18556
vt 0.75622 0.20702
vt 0.76266 0.20702
vt 0.79686 0.18944
vt 0.79689 0.17481
vt 0.83004 0.17481
vt 0.83004 0.17871
vt 0.79689 0.17871
vt 0.85937 0.17481
vt 0.85937 0.17871
vt 0.85938 0.19433
vt 0.86327 0.19433
vt 0.85452 0.17871
vt 0.85452 0.17481
# 50 texture vertices

vn 0.00000 0.00000 1.00000
vn 0.00000 0.00000 -1.00000
vn 1.00000 0.00000 0.00000
vn -1.00000 0.00000 0.00000
vn 0.80586 -0.52220 0.27909
vn 0.82394 -0.50114 0.26454
vn 0.00000 0.88696 -0.46185
vn 0.86600 0.00000 -0.50005
vn 0.84567 -0.50323 0.17776
vn 0.86568 -0.49353 0.08383
vn 0.00000 0.98744 -0.15797
vn 0.85849 -0.48944 -0.15312
vn 0.85606 -0.15108 -0.49431
vn 0.88314 -0.32986 -0.33354
vn -0.90155 -0.30432 -0.30756
vn 0.87883 -0.47714 0.00000
vn -0.77981 -0.62602 0.00000
vn -0.94975 -0.31301 0.00000
vn 0.00000 1.00000 0.00000
vn 0.00000 1.00000 0.00000
vn 0.54467 -0.83865 0.00000
vn -0.54467 -0.83865 0.00000
vn 0.00000 -1.00000 0.00000
vn -0.84537 -0.48195 -0.23039
vn -0.84333 -0.22730 -0.48696
vn 0.00000 0.94878 -0.31594
vn -0.85407 -0.50275 0.13344
vn -0.86183 -0.49134 0.12586
vn -0.82394 -0.50114 0.26454
vn -0.80586 -0.52220 0.27909
vn -0.86600 0.00000 -0.50005
# 31 normal vertices

f 10/3/2 6/2/2 9/1/2
f 1/2/1 8/3/1 7/1/1
f 8/3/1 3/5/1 2/4/1
f 7/1/1 8/3/1 2/4/1
f 10/3/2 9/1/2 4/4/2
f 5/5/2 10/3/2 4/4/2
f 3/8/16 5/7/16 4/6/3
f 2/4/3 3/8/16 4/6/3
f 6/7/18 1/8/17 7/4/4
f 9/6/4 6/7/18 7/4/4
f 7/1/19 2/4/20 4/6/19
f 9/9/20 7/1/19 4/6/19
f 10/10/21 5/7/16 3/8/16
f 8/11/21 10/10/21 3/8/16
f 1/8/17 6/7/18 10/10/22
f 8/11/22 1/8/17 10/10/22
f 12/14/1 14/13/1 13/12/1
f 11/15/1 12/14/1 13/12/1
f 14/13/3 16/17/3 15/16/3
f 13/12/3 14/13/3 15/16/3
f 18/17/4 12/13/4 11/12/4
f 17/16/4 18/17/4 11/12/4
f 11/15/19 13/12/19 15/18/19
f 17/19/19 11/15/19 15/18/19
f 18/19/23 16/18/23 14/12/23
f 12/15/23 18/19/23 14/12/23
f 22/22/3 24/21/3 23/20/3
f 21/23/3 22/22/3 23/20/3
f 26/20/4 20/23/4 19/22/4
f 25/21/4 26/20/4 19/22/4
f 19/22/19 21/23/19 23/20/19
f 25/21/19 19/22/19 23/20/19
f 26/20/23 24/21/23 22/22/23
f 20/23/23 26/20/23 22/22/23
f 28/26/1 30/25/1 29/24/1
f 27/27/1 28/26/1 29/24/1
f 30/30/3 32/29/3 31/28/3
f 29/24/3 30/30/3 31/28/3
f 32/33/2 34/32/2 33/31/2
f 31/28/2 32/33/2 33/31/2
f 34/29/4 28/30/4 27/24/4
f 33/28/4 34/29/4 27/24/4
f 27/27/19 29/24/19 31/28/19
f 33/31/19 27/27/19 31/28/19
f 34/31/23 32/28/23 30/24/23
f 28/27/23 34/31/23 30/24/23
f 44/36/12 45/35/13 46/34/14
f 45/35/25 44/36/24 47/34/15
f 36/39/6 35/38/5 41/37/9
f 42/40/10 36/39/6 41/37/9
f 37/43/7 36/42/7 42/41/26
f 43/44/11 37/43/7 42/41/26
f 37/39/29 43/40/28 41/37/27
f 35/38/30 37/39/29 41/37/27
f 42/40/10 41/37/9 44/36/12
f 46/34/14 42/40/10 44/36/12
f 43/44/11 42/41/26 46/45/19
f 47/46/19 43/44/11 46/45/19
f 41/37/27 43/40/28 47/34/15
f 44/36/24 41/37/27 47/34/15
f 45/35/13 38/48/8 39/47/8
f 46/34/14 45/35/13 39/47/8
f 46/45/1 39/50/1 40/49/1
f 47/46/1 46/45/1 40/49/1
f 47/34/15 40/47/31 38/48/31
f 45/35/25 47/34/15 38/48/31
# 66 elements

