# Created by Metasequoia

v 0.211000 0.421900 2.437900
v 0.211000 0.150384 2.437900
v -0.211000 0.421900 2.437900
v -0.211000 0.150384 2.437900
v -0.211000 0.421900 2.575900
v -0.211000 0.150384 2.575900
v 0.211000 0.421900 2.575900
v 0.211000 0.150384 2.575900
v 0.174000 0.331570 2.336200
v 0.174000 -0.016430 2.336200
v -0.174000 0.331570 2.336200
v -0.174000 -0.016430 2.336200
v -0.174000 0.331570 2.684200
v -0.174000 -0.016430 2.684200
v 0.174000 0.331570 2.684200
v 0.174000 -0.016430 2.684200
# 16 vertices

vt 0.85944 0.11322
vt 0.85944 0.08016
vt 0.91202 0.08016
vt 0.91202 0.11322
vt 0.92965 0.08016
vt 0.92965 0.11322
vt 0.85944 0.13077
vt 0.91202 0.13077
vt 0.85944 0.06265
vt 0.91202 0.06265
vt 0.94925 0.05074
vt 0.94925 0.09374
vt 0.99218 0.09374
vt 0.99218 0.05074
vt 0.94925 0.00782
vt 0.90629 0.00782
vt 0.90629 0.05074
vt 0.99218 0.00782
# 18 texture vertices

vn -0.00000 -0.00000 -1.00000
vn 0.00000 0.00000 -1.00000
vn -1.00000 0.00000 0.00000
vn 0.00000 0.00000 1.00000
vn 0.00000 0.00000 1.00000
vn 1.00000 0.00000 0.00000
vn 0.00000 1.00000 0.00000
vn 0.00000 -1.00000 0.00000
# 8 normal vertices

f 2/3/2 4/2/1 3/1/2
f 1/4/1 2/3/2 3/1/2
f 4/5/3 6/3/3 5/4/3
f 3/6/3 4/5/3 5/4/3
f 6/2/4 8/3/5 7/4/4
f 5/1/5 6/2/4 7/4/4
f 8/3/6 2/5/6 1/6/6
f 7/4/6 8/3/6 1/6/6
f 1/8/7 3/7/7 5/1/7
f 7/4/7 1/8/7 5/1/7
f 8/3/8 6/2/8 4/9/8
f 2/10/8 8/3/8 4/9/8
f 10/13/2 12/12/2 11/11/2
f 9/14/2 10/13/2 11/11/2
f 12/16/3 14/15/3 13/11/3
f 11/17/3 12/16/3 13/11/3
f 14/15/4 16/18/4 15/14/4
f 13/11/4 14/15/4 15/14/4
f 16/15/6 10/16/6 9/17/6
f 15/11/6 16/15/6 9/17/6
f 9/13/7 11/12/7 13/11/7
f 15/14/7 9/13/7 13/11/7
f 16/14/8 14/11/8 12/12/8
f 10/13/8 16/14/8 12/12/8
# 24 elements

