# Created by 3DAce v2.72


g
v -0.019198 1.067150 0.089618
v -0.019198 -1.057364 0.089618
v 0.032767 1.067150 0.089618
v 0.032767 -1.057364 0.089618
v 0.032767 1.067150 -0.079840
v 0.032767 -1.057364 -0.079840
v -0.019198 1.067150 -0.079840
v -0.019198 -1.057364 -0.079840
# 8 vertices

vt 0.501930 0.074930
vt 0.501930 0.050470
vt 0.997400 0.050470
vt 0.501930 0.074930
vt 0.997400 0.074930
vt 0.501930 0.074930
vt 0.997400 0.050470
vt 0.997400 0.074930
vt 0.501930 0.050470
vt 0.501930 0.050470
vt 0.997400 0.050470
vt 0.501930 0.050470
vt 0.997400 0.050470
vt 0.501930 0.050470
vt 0.997400 0.050470
vt 0.997400 0.050470
vt 0.501930 0.050470
vt 0.501930 0.074930
vt 0.997400 0.074930
vt 0.501930 0.050470
vt 0.997400 0.050470
vt 0.501930 0.050470
vt 0.997400 0.074930
vt 0.997400 0.050470
vt 0.501930 0.074930
vt 0.501930 0.074930
vt 0.997400 0.074930
vt 0.501930 0.074930
vt 0.997400 0.074930
vt 0.501930 0.074930
vt 0.997400 0.074930
vt 0.997400 0.074930
vt 0.997400 0.074930
vt 0.997400 0.050470
vt 0.997400 0.050470
vt 0.997400 0.074930
vt 0.997400 0.074930
vt 0.997400 0.074930
vt 0.997400 0.050470
vt 0.997400 0.074930
vt 0.501930 0.074930
vt 0.501930 0.050470
vt 0.501930 0.050470
vt 0.501930 0.074930
vt 0.501930 0.074930
vt 0.501930 0.074930
vt 0.501930 0.050470
vt 0.501930 0.074930
# 48 texture vertices

vn 0.000000 0.000000 1.000000
vn 0.000000 0.000000 1.000000
vn 0.000000 0.000000 1.000000
vn 0.000000 0.000000 1.000000
vn 0.000000 -0.000000 1.000000
vn 0.000000 0.000000 1.000000
vn 0.000000 0.000000 1.000000
vn 0.000000 -0.000000 1.000000
vn 1.000000 0.000000 -0.000000
vn 1.000000 0.000000 -0.000000
vn 1.000000 0.000000 -0.000000
vn 1.000000 0.000000 -0.000000
vn 1.000000 0.000000 -0.000000
vn 1.000000 0.000000 -0.000000
vn 1.000000 0.000000 -0.000000
vn 1.000000 0.000000 -0.000000
vn 0.000000 0.000000 -1.000000
vn 0.000000 0.000000 -1.000000
vn 0.000000 0.000000 -1.000000
vn 0.000000 0.000000 -1.000000
vn 0.000000 0.000000 -1.000000
vn 0.000000 0.000000 -1.000000
vn 0.000000 0.000000 -1.000000
vn 0.000000 0.000000 -1.000000
vn -1.000000 0.000000 -0.000000
vn -1.000000 -0.000000 -0.000000
vn -1.000000 0.000000 -0.000000
vn -1.000000 0.000000 -0.000000
vn -1.000000 0.000000 -0.000000
vn -1.000000 0.000000 -0.000000
vn -1.000000 0.000000 -0.000000
vn -1.000000 0.000000 -0.000000
vn 0.000000 1.000000 0.000000
vn 0.000000 1.000000 -0.000000
vn 0.000000 1.000000 0.000000
vn 0.000000 1.000000 0.000000
vn 0.000000 1.000000 0.000000
vn 0.000000 1.000000 0.000000
vn 0.000000 1.000000 0.000000
vn 0.000000 1.000000 0.000000
vn -0.000000 -1.000000 0.000000
vn -0.000000 -1.000000 -0.000000
vn -0.000000 -1.000000 0.000000
vn -0.000000 -1.000000 0.000000
vn -0.000000 -1.000000 0.000000
vn -0.000000 -1.000000 0.000000
vn -0.000000 -1.000000 0.000000
vn -0.000000 -1.000000 0.000000
# 48 vertex normals

g mat1
f 2/1/1 4/2/2 3/3/3
f 1/5/5 2/6/6 3/7/7
f 4/9/9 6/10/10 5/11/11
f 3/13/13 4/14/14 5/15/15
f 6/17/17 8/18/18 7/19/19
f 5/21/21 6/22/22 7/23/23
f 8/25/25 2/26/26 1/27/27
f 7/29/29 8/30/30 1/31/31
f 1/33/33 3/34/34 5/35/35
f 7/37/37 1/38/38 5/39/39
f 8/41/41 6/42/42 4/43/43
f 2/45/45 8/46/46 4/47/47
# 12 elements

