# Created by 3DAce v2.72


g
v -0.023689 0.061978 0.900472
v -0.023689 -0.062820 0.900473
v 0.023111 0.061978 0.900472
v 0.023111 -0.062820 0.900473
v 0.023111 0.061973 -0.893335
v 0.023111 -0.062822 -0.893338
v -0.023689 0.061973 -0.893335
v -0.023689 -0.062822 -0.893338
# 8 vertices

vt 0.500250 0.749660
vt 0.500250 0.726590
vt 0.500250 0.726590
vt 0.500250 0.749660
vt 0.500250 0.749660
vt 0.500250 0.749660
vt 0.500250 0.726590
vt 0.500250 0.749660
vt 0.562250 0.749660
vt 0.500250 0.749660
vt 0.500250 0.726590
vt 0.562250 0.749660
vt 0.562250 0.726590
vt 0.562250 0.749660
vt 0.500250 0.726590
vt 0.562250 0.726590
vt 0.500250 0.726590
vt 0.500250 0.749660
vt 0.500250 0.749660
vt 0.500250 0.726590
vt 0.500250 0.726590
vt 0.500250 0.726590
vt 0.500250 0.749660
vt 0.500250 0.726590
vt 0.562250 0.726590
vt 0.500250 0.726590
vt 0.500250 0.749660
vt 0.562250 0.726590
vt 0.562250 0.749660
vt 0.562250 0.726590
vt 0.500250 0.749660
vt 0.562250 0.749660
vt 0.500250 0.749660
vt 0.500250 0.726590
vt 0.562250 0.726590
vt 0.500250 0.749660
vt 0.562250 0.749660
vt 0.500250 0.749660
vt 0.562250 0.726590
vt 0.562250 0.749660
vt 0.500250 0.749660
vt 0.500250 0.726590
vt 0.562250 0.726590
vt 0.500250 0.749660
vt 0.562250 0.749660
vt 0.500250 0.749660
vt 0.562250 0.726590
vt 0.562250 0.749660
# 48 texture vertices

vn 0.000000 0.000008 1.000000
vn 0.000000 0.000008 1.000000
vn 0.000000 0.000008 1.000000
vn 0.000000 0.000008 1.000000
vn 0.000000 0.000008 1.000000
vn 0.000000 0.000008 1.000000
vn 0.000000 0.000008 1.000000
vn 0.000000 0.000008 1.000000
vn 1.000000 0.000000 -0.000000
vn 1.000000 0.000000 -0.000000
vn 1.000000 0.000000 -0.000000
vn 1.000000 0.000000 -0.000000
vn 1.000000 -0.000000 -0.000000
vn 1.000000 0.000000 -0.000000
vn 1.000000 0.000000 -0.000000
vn 1.000000 -0.000000 -0.000000
vn 0.000000 0.000023 -1.000000
vn 0.000000 0.000023 -1.000000
vn 0.000000 0.000023 -1.000000
vn 0.000000 0.000023 -1.000000
vn 0.000000 0.000023 -1.000000
vn 0.000000 0.000023 -1.000000
vn 0.000000 0.000023 -1.000000
vn 0.000000 0.000023 -1.000000
vn -1.000000 0.000000 0.000000
vn -1.000000 -0.000000 0.000000
vn -1.000000 0.000000 0.000000
vn -1.000000 0.000000 0.000000
vn -1.000000 0.000000 -0.000000
vn -1.000000 0.000000 0.000000
vn -1.000000 0.000000 0.000000
vn -1.000000 0.000000 -0.000000
vn 0.000000 1.000000 -0.000003
vn 0.000000 1.000000 -0.000003
vn 0.000000 1.000000 -0.000003
vn 0.000000 1.000000 -0.000003
vn 0.000000 1.000000 -0.000003
vn 0.000000 1.000000 -0.000003
vn 0.000000 1.000000 -0.000003
vn 0.000000 1.000000 -0.000003
vn 0.000000 -1.000000 0.000001
vn 0.000000 -1.000000 0.000001
vn 0.000000 -1.000000 0.000001
vn 0.000000 -1.000000 0.000001
vn 0.000000 -1.000000 0.000001
vn 0.000000 -1.000000 0.000001
vn 0.000000 -1.000000 0.000001
vn 0.000000 -1.000000 0.000001
# 48 vertex normals

g mat1
f 2/1/1 4/2/2 3/3/3
f 1/5/5 2/6/6 3/7/7
f 4/9/9 6/10/10 5/11/11
f 3/13/13 4/14/14 5/15/15
f 6/17/17 8/18/18 7/19/19
f 5/21/21 6/22/22 7/23/23
f 8/25/25 2/26/26 1/27/27
f 7/29/29 8/30/30 1/31/31
f 1/33/33 3/34/34 5/35/35
f 7/37/37 1/38/38 5/39/39
f 8/41/41 6/42/42 4/43/43
f 2/45/45 8/46/46 4/47/47
# 12 elements

