# Created by Metasequoia

v -0.001299 4.086870 -0.000000
v -2.192109 4.026569 -0.100602
v -1.270137 4.027277 -0.055287
v -1.291607 4.034805 0.162059
v -2.192108 4.034805 0.594991
v -8.201775 4.034805 0.764782
v -8.201775 4.020851 0.023019
v -8.201773 3.982731 0.289817
v -0.001299 3.982731 -0.000000
v -0.001299 4.086873 -0.000000
v 0.993356 4.026569 1.690937
v 0.577754 4.027277 0.977827
v 0.806152 4.034811 0.885235
v 1.689990 4.034811 1.343137
v 4.864896 4.034811 5.758703
v 4.122009 4.020855 6.129609
v 4.389214 3.982731 5.996204
v -0.001299 3.982735 -0.000000
v -0.001299 4.086873 -0.000000
v 1.194854 4.026569 -1.590332
v 0.688489 4.027277 -0.922556
v 0.481551 4.034805 -1.047306
v 0.498212 4.034811 -1.938150
v 3.332959 4.034811 -6.523527
v 4.075831 4.020855 -6.152614
v 3.808652 3.982731 -6.286016
v -0.001299 3.982731 -0.000000
v -0.001272 4.138446 0.000077
v -0.001273 4.138446 0.188313
v 0.187253 4.138446 0.094185
v 0.187253 4.138446 -0.094045
v -0.001273 4.138446 -0.188188
v -0.189796 4.138446 -0.094044
v -0.189796 4.138446 0.094186
v -0.001273 3.737003 0.188313
v 0.187253 3.737003 0.094185
v 0.187253 3.737003 -0.094045
v -0.001273 3.737003 -0.188188
v -0.189796 3.737003 -0.094044
v -0.189796 3.737003 0.094186
# 40 vertices

vt 0.88492 0.59821
vt 0.62267 0.60446
vt 0.62267 0.61793
vt 0.62267 0.64189
vt 0.88492 0.63332
vt 0.62008 0.61793
vt 0.92515 0.60050
vt 0.92422 0.61147
vt 0.92421 0.61147
vt 0.98052 0.60329
vt 0.92455 0.61152
vt 0.98102 0.60985
vt 0.98049 0.59672
vt 0.78767 0.55101
vt 0.79489 0.53845
vt 0.78039 0.53845
vt 0.80218 0.55101
vt 0.79489 0.56358
vt 0.78043 0.56358
vt 0.77316 0.55101
vt 0.79489 0.50030
vt 0.78033 0.50030
# 22 texture vertices

vn 0.04353 0.00000 -0.99905
vn 0.00210 -0.99922 -0.03936
vn -0.02095 0.99936 -0.02908
vn -0.03133 0.99880 -0.03769
vn 0.00720 -0.99908 0.04228
vn 0.00308 -0.99404 0.10898
vn -0.00197 -0.98994 -0.14144
vn 0.00307 -0.99997 -0.00691
vn -0.03642 -0.99886 0.03100
vn -0.86045 0.00000 0.50954
vn -0.03057 -0.99938 0.01761
vn -0.01131 0.99930 0.03553
vn -0.01258 0.99866 0.05023
vn 0.02809 -0.99920 -0.02838
vn 0.08017 -0.99511 -0.05764
vn -0.10514 -0.99179 0.07283
vn -0.00674 -0.99998 0.00040
vn 0.04145 -0.99892 0.02096
vn 0.80089 0.00000 0.59882
vn 0.02848 -0.99936 0.02182
vn 0.03225 0.99946 -0.00644
vn 0.04389 0.99896 -0.01253
vn -0.03529 -0.99928 -0.01394
vn -0.08326 -0.99520 -0.05147
vn 0.10713 -0.99186 0.06889
vn 0.00367 -0.99997 0.00655
vn -0.00500 -0.99864 -0.05196
vn 0.00000 1.00000 0.00000
vn 0.16417 0.00000 0.98643
vn 0.44670 0.00000 0.89468
vn 1.00000 0.00000 0.00000
vn -0.16420 0.00000 -0.98643
vn -0.44677 0.00000 -0.89465
vn -1.00000 0.00000 0.00000
vn -0.00485 0.99979 -0.01971
vn -0.00053 0.99982 -0.01881
vn -0.00086 0.99988 -0.01532
vn -0.00069 0.99993 -0.01184
vn -1.00000 -0.00003 0.00000
vn -0.00626 -0.99963 0.02640
vn -0.00948 -0.99939 0.03368
vn 0.12462 0.00000 0.99220
vn -0.04518 0.99822 -0.03904
vn -0.01234 0.99982 0.01472
vn -0.01382 0.99986 0.00994
vn -0.01105 0.99990 0.00853
vn -0.00853 0.99994 0.00662
vn 0.44669 0.00009 0.89469
vn 0.02291 -0.99971 -0.00695
vn 0.02998 -0.99952 -0.00737
vn 0.73882 0.00000 -0.67390
vn -0.00666 0.99788 0.06476
vn 0.01718 0.99984 0.00500
vn 0.01435 0.99986 0.00887
vn 0.01191 0.99991 0.00680
vn 0.00922 0.99994 0.00523
vn 0.44671 0.00001 -0.89468
vn -0.01664 -0.99967 -0.01947
vn -0.02048 -0.99944 -0.02633
vn -0.90813 0.00000 -0.41868
vn 0.05183 0.99832 -0.02574
vn -0.16417 0.00000 0.98643
vn 0.16419 0.00000 -0.98643
vn 0.44676 0.00000 -0.89465
vn -0.44670 0.00000 0.89468
vn -0.44670 0.00000 0.89468
# 66 normal vertices

f 8/3/8 7/2/7 2/1/2
f 5/5/5 6/4/6 8/3/8
f 8/3/8 2/1/2 5/5/5
f 7/2/37 6/4/36 5/5/35
f 5/5/35 2/1/38 7/2/37
f 7/2/39 8/6/39 6/4/39
f 3/7/3 2/1/38 5/5/35
f 5/5/5 2/1/2 3/7/40
f 5/5/35 4/8/4 3/7/3
f 3/7/40 4/9/41 5/5/5
f 4/9/41 3/7/40 9/10/9
f 9/12/1 3/11/1 1/10/1
f 1/10/42 4/7/42 9/13/42
f 1/10/43 3/7/3 4/8/4
f 17/3/17 16/2/16 11/1/11
f 14/5/14 15/4/15 17/3/17
f 17/3/17 11/1/11 14/5/14
f 16/2/46 15/4/45 14/5/44
f 14/5/44 11/1/47 16/2/46
f 16/2/48 17/6/48 15/4/48
f 12/7/12 11/1/47 14/5/44
f 14/5/14 11/1/11 12/7/49
f 14/5/44 13/8/13 12/7/12
f 12/7/49 13/9/50 14/5/14
f 13/9/50 12/7/49 18/10/18
f 18/12/10 12/11/10 10/10/10
f 10/10/51 13/7/51 18/13/51
f 10/10/52 12/7/12 13/8/13
f 26/3/26 25/2/25 20/1/20
f 23/5/23 24/4/24 26/3/26
f 26/3/26 20/1/20 23/5/23
f 25/2/55 24/4/54 23/5/53
f 23/5/53 20/1/56 25/2/55
f 25/2/57 26/6/57 24/4/57
f 21/7/21 20/1/56 23/5/53
f 23/5/23 20/1/20 21/7/58
f 23/5/53 22/8/22 21/7/21
f 21/7/58 22/9/59 23/5/23
f 22/9/59 21/7/58 27/10/27
f 27/12/19 21/11/19 19/10/19
f 19/10/60 22/7/60 27/13/60
f 19/10/61 21/7/21 22/8/22
f 29/16/28 30/15/28 28/14/28
f 30/15/28 31/17/28 28/14/28
f 31/17/28 32/18/28 28/14/28
f 32/18/28 33/19/28 28/14/28
f 33/19/28 34/20/28 28/14/28
f 34/20/28 29/16/28 28/14/28
f 35/22/29 36/21/30 30/15/30
f 29/16/62 35/22/29 30/15/30
f 36/21/31 37/22/31 31/16/31
f 30/15/31 36/21/31 31/16/31
f 37/22/64 38/21/32 32/15/63
f 31/16/64 37/22/64 32/15/63
f 38/21/32 39/22/33 33/16/33
f 32/15/63 38/21/32 33/16/33
f 39/22/34 40/21/34 34/15/34
f 33/16/34 39/22/34 34/15/34
f 40/21/65 35/22/29 29/16/62
f 34/15/66 40/21/65 29/16/62
# 60 elements

