# Created by 3DAce v2.72


g
v -0.001036 0.343772 -0.875420
v -0.018242 0.339459 -0.734230
v -0.010763 0.339511 -0.793662
v 0.006505 0.340049 -0.793337
v 0.038567 0.340049 -0.681000
v 0.042061 0.340049 -0.352461
v -0.033528 0.339053 -0.348871
v -0.012222 0.336327 -0.350162
v -0.001036 0.336327 -0.875420
v -0.039661 0.344318 -0.875420
v -0.019822 0.344318 -0.841057
v 0.019857 0.344318 -0.841057
v 0.039696 0.344318 -0.875420
v 0.019857 0.344318 -0.909785
v -0.019822 0.344318 -0.909785
v -0.039661 0.334100 -0.875420
v -0.019822 0.334100 -0.841057
v 0.019857 0.334100 -0.841057
v 0.039696 0.334100 -0.875420
v 0.019857 0.334100 -0.909785
v -0.019822 0.334100 -0.909785
v -0.001001 0.336327 -0.875420
v -0.001001 0.343772 -0.875420
v 0.016206 0.340637 -1.016607
v 0.008727 0.340586 -0.957177
v -0.008541 0.340049 -0.957503
v -0.040604 0.340048 -1.069839
v -0.044098 0.340048 -1.398379
v 0.031491 0.341046 -1.401968
v 0.010186 0.343772 -1.400678
# 30 vertices

vt 0.622670 0.617930
vt 0.622670 0.604460
vt 0.884920 0.598210
vt 0.622670 0.617930
vt 0.884920 0.633320
vt 0.622670 0.641890
vt 0.622670 0.617930
vt 0.884920 0.633320
vt 0.622670 0.617930
vt 0.884920 0.598210
vt 0.884920 0.633320
vt 0.622670 0.617930
vt 0.622670 0.604460
vt 0.622670 0.641890
vt 0.884920 0.633320
vt 0.622670 0.604460
vt 0.884920 0.633320
vt 0.884920 0.598210
vt 0.622670 0.604460
vt 0.884920 0.633320
vt 0.622670 0.604460
vt 0.620080 0.617930
vt 0.622670 0.641890
vt 0.622670 0.604460
vt 0.925150 0.600500
vt 0.884920 0.598210
vt 0.884920 0.633320
vt 0.925150 0.600500
vt 0.884920 0.633320
vt 0.884920 0.598210
vt 0.925150 0.600500
vt 0.884920 0.633320
vt 0.884920 0.633320
vt 0.924220 0.611470
vt 0.925150 0.600500
vt 0.884920 0.633320
vt 0.925150 0.600500
vt 0.924210 0.611470
vt 0.884920 0.633320
vt 0.925150 0.600500
vt 0.924210 0.611470
vt 0.925150 0.600500
vt 0.980520 0.603290
vt 0.924210 0.611470
vt 0.981020 0.609850
vt 0.924550 0.611520
vt 0.980520 0.603290
vt 0.981020 0.609850
vt 0.980520 0.603290
vt 0.925150 0.600500
vt 0.980490 0.596720
vt 0.980520 0.603290
vt 0.980520 0.603290
vt 0.925150 0.600500
vt 0.924220 0.611470
vt 0.980520 0.603290
vt 0.703980 0.486970
vt 0.715610 0.466820
vt 0.715610 0.507130
vt 0.703980 0.486970
vt 0.715610 0.466820
vt 0.738890 0.507130
vt 0.715610 0.507130
vt 0.715610 0.466820
vt 0.715610 0.466820
vt 0.738890 0.466820
vt 0.738890 0.507130
vt 0.715610 0.466820
vt 0.738890 0.466820
vt 0.750520 0.486970
vt 0.738890 0.507130
vt 0.738890 0.466820
vt 0.715610 0.466820
vt 0.715610 0.507130
vt 0.738890 0.507130
vt 0.715610 0.466820
vt 0.715610 0.466820
vt 0.738890 0.507130
vt 0.738890 0.466820
vt 0.715610 0.466820
vt 0.738890 0.507130
vt 0.750520 0.486970
vt 0.738890 0.466820
vt 0.738890 0.507130
vt 0.715610 0.466820
vt 0.703980 0.486970
vt 0.715610 0.507130
vt 0.715610 0.466820
vt 0.884920 0.598210
vt 0.622670 0.604460
vt 0.622670 0.617930
vt 0.884920 0.598210
vt 0.622670 0.617930
vt 0.622670 0.641890
vt 0.884920 0.633320
vt 0.622670 0.617930
vt 0.884920 0.633320
vt 0.884920 0.598210
vt 0.622670 0.617930
vt 0.884920 0.633320
vt 0.884920 0.633320
vt 0.622670 0.641890
vt 0.622670 0.604460
vt 0.884920 0.633320
vt 0.622670 0.604460
vt 0.884920 0.598210
vt 0.884920 0.633320
vt 0.622670 0.604460
vt 0.622670 0.641890
vt 0.620080 0.617930
vt 0.622670 0.604460
vt 0.622670 0.641890
vt 0.884920 0.633320
vt 0.884920 0.598210
vt 0.925150 0.600500
vt 0.884920 0.633320
vt 0.925150 0.600500
vt 0.884920 0.598210
vt 0.884920 0.633320
vt 0.925150 0.600500
vt 0.925150 0.600500
vt 0.924220 0.611470
vt 0.884920 0.633320
vt 0.925150 0.600500
vt 0.884920 0.633320
vt 0.924210 0.611470
vt 0.925150 0.600500
vt 0.884920 0.633320
vt 0.980520 0.603290
vt 0.925150 0.600500
vt 0.924210 0.611470
vt 0.980520 0.603290
vt 0.980520 0.603290
vt 0.924550 0.611520
vt 0.981020 0.609850
vt 0.980520 0.603290
vt 0.980490 0.596720
vt 0.925150 0.600500
vt 0.980520 0.603290
vt 0.980490 0.596720
vt 0.924220 0.611470
vt 0.925150 0.600500
vt 0.980520 0.603290
vt 0.924220 0.611470
vt 0.727500 0.512850
vt 0.706670 0.512850
vt 0.706670 0.519040
vt 0.727500 0.512850
vt 0.727500 0.519040
vt 0.727500 0.512850
vt 0.706670 0.519040
vt 0.727500 0.519040
vt 0.706670 0.512850
vt 0.706670 0.512850
vt 0.706670 0.519040
vt 0.706670 0.512850
vt 0.706670 0.519040
vt 0.706670 0.512850
vt 0.706670 0.519040
vt 0.706670 0.519040
vt 0.706670 0.512850
vt 0.727500 0.512850
vt 0.727500 0.519040
vt 0.706670 0.512850
vt 0.706670 0.519040
vt 0.706670 0.512850
vt 0.727500 0.519040
vt 0.706670 0.519040
vt 0.727500 0.512850
vt 0.748340 0.512850
vt 0.748340 0.519040
vt 0.727500 0.512850
vt 0.727500 0.519040
vt 0.727500 0.512850
vt 0.748340 0.519040
vt 0.727500 0.519040
vt 0.748340 0.512850
vt 0.748340 0.512850
vt 0.748340 0.519040
vt 0.748340 0.512850
vt 0.748340 0.519040
vt 0.748340 0.512850
vt 0.748340 0.519040
vt 0.748340 0.519040
vt 0.748340 0.512850
vt 0.727500 0.512850
vt 0.727500 0.519040
vt 0.748340 0.512850
vt 0.748340 0.519040
vt 0.748340 0.512850
vt 0.727500 0.519040
vt 0.748340 0.519040
# 192 texture vertices

vn -0.013582 -0.999895 -0.005104
vn -0.127271 -0.991849 -0.006093
vn -0.033060 -0.999442 -0.004726
vn -0.013582 -0.999895 -0.005104
vn 0.032008 -0.999478 -0.004430
vn 0.068375 -0.997660 -0.000727
vn -0.013582 -0.999895 -0.005104
vn 0.032008 -0.999478 -0.004430
vn -0.013582 -0.999895 -0.005104
vn -0.033060 -0.999442 -0.004726
vn 0.032008 -0.999478 -0.004430
vn -0.013582 -0.999895 -0.005104
vn -0.012067 0.999927 0.000379
vn -0.013169 0.999913 0.000140
vn -0.016367 0.999863 0.002327
vn -0.012067 0.999927 0.000379
vn -0.016367 0.999863 0.002327
vn -0.010494 0.999945 0.000116
vn -0.012067 0.999927 0.000379
vn -0.016367 0.999863 0.002327
vn 0.048452 -0.092320 0.994550
vn 0.048452 -0.092320 0.994550
vn 0.048452 -0.092320 0.994550
vn 0.048452 -0.092320 0.994550
vn -0.024455 0.999522 0.018929
vn -0.010494 0.999945 0.000116
vn -0.016367 0.999863 0.002327
vn -0.024455 0.999522 0.018929
vn 0.032008 -0.999478 -0.004430
vn -0.033060 -0.999442 -0.004726
vn 0.023889 -0.999651 0.011319
vn 0.032008 -0.999478 -0.004430
vn -0.016367 0.999863 0.002327
vn -0.031667 0.999090 0.028584
vn -0.024455 0.999522 0.018929
vn -0.016367 0.999863 0.002327
vn 0.023889 -0.999651 0.011319
vn 0.030822 -0.999384 0.016786
vn 0.032008 -0.999478 -0.004430
vn 0.023889 -0.999651 0.011319
vn 0.030822 -0.999384 0.016786
vn 0.023889 -0.999651 0.011319
vn 0.030315 -0.998637 0.042497
vn 0.030822 -0.999384 0.016786
vn -0.992997 0.000000 -0.118140
vn -0.992997 0.000000 -0.118140
vn -0.992997 0.000000 -0.118140
vn -0.992997 0.000000 -0.118140
vn 0.995806 0.000000 -0.091485
vn 0.995806 0.000000 -0.091485
vn 0.995806 0.000000 -0.091485
vn 0.995806 0.000000 -0.091485
vn -0.032013 0.998324 0.048221
vn -0.024455 0.999522 0.018929
vn -0.031667 0.999090 0.028584
vn -0.032013 0.998324 0.048221
vn 0.000000 1.000000 -0.000000
vn 0.000000 1.000000 -0.000000
vn 0.000000 1.000000 -0.000000
vn 0.000000 1.000000 -0.000000
vn 0.000000 1.000000 -0.000000
vn 0.000000 1.000000 -0.000000
vn 0.000000 1.000000 -0.000000
vn 0.000000 1.000000 -0.000000
vn 0.000000 1.000000 -0.000000
vn 0.000000 1.000000 -0.000000
vn 0.000000 1.000000 -0.000000
vn 0.000000 1.000000 -0.000000
vn 0.000000 1.000000 -0.000000
vn 0.000000 1.000000 -0.000000
vn 0.000000 1.000000 -0.000000
vn 0.000000 1.000000 -0.000000
vn 0.000000 -1.000000 0.000000
vn 0.000000 -1.000000 0.000000
vn 0.000000 -1.000000 0.000000
vn 0.000000 -1.000000 0.000000
vn 0.000000 -1.000000 0.000000
vn 0.000000 -1.000000 0.000000
vn 0.000000 -1.000000 -0.000000
vn 0.000000 -1.000000 0.000000
vn 0.000000 -1.000000 0.000000
vn 0.000000 -1.000000 -0.000000
vn 0.000000 -1.000000 -0.000000
vn 0.000000 -1.000000 0.000000
vn 0.000000 -1.000000 0.000000
vn 0.000000 -1.000000 0.000000
vn 0.000000 -1.000000 0.000000
vn 0.000000 -1.000000 0.000000
vn 0.033076 0.999442 0.004727
vn 0.127278 0.991848 0.006101
vn 0.013576 0.999895 0.005110
vn 0.033076 0.999442 0.004727
vn 0.013576 0.999895 0.005110
vn -0.068411 0.997657 0.000728
vn -0.031992 0.999478 0.004423
vn 0.013576 0.999895 0.005110
vn -0.031992 0.999478 0.004423
vn 0.033076 0.999442 0.004727
vn 0.013576 0.999895 0.005110
vn -0.031992 0.999478 0.004423
vn 0.016349 -0.999864 -0.002320
vn 0.013195 -0.999913 -0.000140
vn 0.012075 -0.999927 -0.000384
vn 0.016349 -0.999864 -0.002320
vn 0.012075 -0.999927 -0.000384
vn 0.010474 -0.999945 -0.000114
vn 0.016349 -0.999864 -0.002320
vn 0.012075 -0.999927 -0.000384
vn -0.048437 0.092078 -0.994573
vn -0.048437 0.092078 -0.994573
vn -0.048437 0.092078 -0.994573
vn -0.048437 0.092078 -0.994573
vn 0.016349 -0.999864 -0.002320
vn 0.010474 -0.999945 -0.000114
vn 0.024407 -0.999523 -0.018910
vn 0.016349 -0.999864 -0.002320
vn -0.023839 0.999652 -0.011338
vn 0.033076 0.999442 0.004727
vn -0.031992 0.999478 0.004423
vn -0.023839 0.999652 -0.011338
vn 0.024407 -0.999523 -0.018910
vn 0.031610 -0.999092 -0.028563
vn 0.016349 -0.999864 -0.002320
vn 0.024407 -0.999523 -0.018910
vn -0.031992 0.999478 0.004423
vn -0.030762 0.999385 -0.016808
vn -0.023839 0.999652 -0.011338
vn -0.031992 0.999478 0.004423
vn -0.030253 0.998638 -0.042516
vn -0.023839 0.999651 -0.011338
vn -0.030762 0.999385 -0.016808
vn -0.030253 0.998638 -0.042516
vn 0.992995 0.000000 0.118153
vn 0.992995 0.000000 0.118153
vn 0.992995 0.000000 0.118153
vn 0.992995 0.000000 0.118153
vn -0.995808 0.000000 0.091473
vn -0.995808 0.000000 0.091473
vn -0.995808 0.000000 0.091473
vn -0.995808 0.000000 0.091473
vn 0.031610 -0.999092 -0.028563
vn 0.024407 -0.999523 -0.018910
vn 0.031957 -0.998326 -0.048204
vn 0.031610 -0.999092 -0.028563
vn -0.866031 0.000000 0.499990
vn -0.866031 0.000000 0.499990
vn -0.866031 0.000000 0.499990
vn -0.866031 0.000000 0.499990
vn -0.866031 0.000000 0.499990
vn -0.866031 0.000000 0.499990
vn -0.866031 0.000000 0.499990
vn -0.866031 0.000000 0.499990
vn 0.000000 0.000000 1.000000
vn 0.000000 0.000000 1.000000
vn 0.000000 0.000000 1.000000
vn 0.000000 0.000000 1.000000
vn 0.000000 -0.000000 1.000000
vn 0.000000 0.000000 1.000000
vn 0.000000 0.000000 1.000000
vn 0.000000 -0.000000 1.000000
vn 0.866031 0.000000 0.499990
vn 0.866031 0.000000 0.499990
vn 0.866031 0.000000 0.499990
vn 0.866031 0.000000 0.499990
vn 0.866031 -0.000000 0.499990
vn 0.866031 0.000000 0.499990
vn 0.866031 0.000000 0.499990
vn 0.866031 -0.000000 0.499990
vn 0.866043 0.000000 -0.499969
vn 0.866043 0.000000 -0.499969
vn 0.866043 0.000000 -0.499969
vn 0.866043 0.000000 -0.499969
vn 0.866043 0.000000 -0.499969
vn 0.866043 0.000000 -0.499969
vn 0.866043 0.000000 -0.499969
vn 0.866043 0.000000 -0.499969
vn 0.000000 0.000000 -1.000000
vn 0.000000 0.000000 -1.000000
vn 0.000000 0.000000 -1.000000
vn 0.000000 0.000000 -1.000000
vn 0.000000 0.000000 -1.000000
vn 0.000000 0.000000 -1.000000
vn 0.000000 0.000000 -1.000000
vn 0.000000 0.000000 -1.000000
vn -0.866043 0.000000 -0.499969
vn -0.866043 -0.000000 -0.499969
vn -0.866043 0.000000 -0.499969
vn -0.866043 0.000000 -0.499969
vn -0.866043 0.000000 -0.499969
vn -0.866043 0.000000 -0.499969
vn -0.866043 0.000000 -0.499969
vn -0.866043 0.000000 -0.499969
# 192 vertex normals

g uv
f 8/1/1 7/2/2 2/3/3
f 5/5/5 6/6/6 8/7/7
f 8/9/9 2/10/10 5/11/11
f 7/13/13 6/14/14 5/15/15
f 5/17/17 2/18/18 7/19/19
f 7/21/21 8/22/22 6/23/23
f 3/25/25 2/26/26 5/27/27
f 5/29/29 2/30/30 3/31/31
f 5/33/33 4/34/34 3/35/35
f 3/37/37 4/38/38 5/39/39
f 4/41/41 3/42/42 9/43/43
f 9/45/45 3/46/46 1/47/47
f 1/49/49 4/50/50 9/51/51
f 1/53/53 3/54/54 4/55/55
f 10/57/57 11/58/58 15/59/59
f 11/61/61 14/62/62 15/63/63
f 11/65/65 12/66/66 14/67/67
f 12/69/69 13/70/70 14/71/71
f 17/73/73 21/74/74 20/75/75
f 17/77/77 20/78/78 18/79/79
f 20/81/81 19/82/82 18/83/83
f 17/85/85 16/86/86 21/87/87
f 24/89/89 29/90/90 30/91/91
f 30/93/93 28/94/94 27/95/95
f 27/97/97 24/98/98 30/99/99
f 27/101/101 28/102/102 29/103/103
f 29/105/105 24/106/106 27/107/107
f 28/109/109 30/110/110 29/111/111
f 27/113/113 24/114/114 25/115/115
f 25/117/117 24/118/118 27/119/119
f 25/121/121 26/122/122 27/123/123
f 27/125/125 26/126/126 25/127/127
f 23/129/129 25/130/130 26/131/131
f 22/133/133 25/134/134 23/135/135
f 23/137/137 26/138/138 22/139/139
f 26/141/141 25/142/142 22/143/143
f 16/145/145 17/146/146 11/147/147
f 10/149/149 16/150/150 11/151/151
f 17/153/153 18/154/154 12/155/155
f 11/157/157 17/158/158 12/159/159
f 18/161/161 19/162/162 13/163/163
f 12/165/165 18/166/166 13/167/167
f 19/169/169 20/170/170 14/171/171
f 13/173/173 19/174/174 14/175/175
f 20/177/177 21/178/178 15/179/179
f 14/181/181 20/182/182 15/183/183
f 21/185/185 16/186/186 10/187/187
f 15/189/189 21/190/190 10/191/191
# 48 elements

