# Created by 3DAce v2.72


g
v -1.196336 1.563658 -12.647663
v -1.544157 1.152086 -12.098141
v 1.505848 1.152086 -12.098141
v 1.158028 1.563658 -12.647663
v -1.765519 0.637902 -10.788339
v 1.727205 0.637902 -10.788339
v 1.158028 1.635690 -12.581196
v 1.727205 0.723781 -10.746797
v -1.196336 1.635690 -12.581196
v -1.765523 0.723781 -10.746797
# 10 vertices

vt 0.920640 0.705420
vt 0.914640 0.716610
vt 0.913020 0.715870
vt 0.920640 0.705420
vt 0.926570 0.717540
vt 0.930210 0.693070
vt 0.983850 0.717540
vt 0.926570 0.717540
vt 0.930210 0.693070
vt 0.980220 0.693070
vt 0.983850 0.717540
vt 0.930210 0.693070
vt 0.876830 0.715870
vt 0.875210 0.716610
vt 0.869210 0.705420
vt 0.876830 0.715870
vt 0.876830 0.715870
vt 0.913020 0.715870
vt 0.876830 0.717540
vt 0.876830 0.715870
vt 0.913020 0.717540
vt 0.876830 0.717540
vt 0.913020 0.715870
vt 0.913020 0.717540
vt 0.935910 0.680820
vt 0.974520 0.680820
vt 0.980220 0.693070
vt 0.935910 0.680820
vt 0.930210 0.693070
vt 0.935910 0.680820
vt 0.980220 0.693070
vt 0.930210 0.693070
vt 0.876830 0.715870
vt 0.868080 0.682220
vt 0.921770 0.682220
vt 0.876830 0.715870
vt 0.913020 0.715870
vt 0.876830 0.715870
vt 0.921770 0.682220
vt 0.913020 0.715870
vt 0.920640 0.705420
vt 0.913020 0.715870
vt 0.921770 0.682220
vt 0.920640 0.705420
vt 0.923560 0.682420
vt 0.920640 0.705420
vt 0.921770 0.682220
vt 0.923560 0.682420
vt 0.869210 0.705420
vt 0.866290 0.682420
vt 0.868080 0.682220
vt 0.869210 0.705420
vt 0.876830 0.715870
vt 0.869210 0.705420
vt 0.868080 0.682220
vt 0.876830 0.715870
vt 0.868080 0.682220
vt 0.868080 0.680550
vt 0.921770 0.680550
vt 0.868080 0.682220
vt 0.921770 0.682220
vt 0.868080 0.682220
vt 0.921770 0.680550
vt 0.921770 0.682220
# 64 texture vertices

vn 0.925952 0.350719 -0.140030
vn 0.891095 0.307755 -0.333521
vn 0.863482 0.485896 -0.135295
vn 0.925952 0.350719 -0.140030
vn 0.000000 -0.930844 -0.365418
vn 0.000000 -0.894526 -0.447015
vn 0.000000 -0.930844 -0.365418
vn 0.000000 -0.930844 -0.365418
vn 0.000000 -0.894526 -0.447015
vn 0.000000 -0.850694 -0.525662
vn 0.000000 -0.930844 -0.365418
vn 0.000000 -0.894526 -0.447015
vn -0.863482 0.485894 -0.135299
vn -0.891095 0.307756 -0.333522
vn -0.925956 0.350706 -0.140040
vn -0.863482 0.485894 -0.135299
vn 0.000000 0.678149 -0.734924
vn 0.000000 0.678149 -0.734924
vn 0.000000 0.678149 -0.734924
vn 0.000000 0.678149 -0.734924
vn 0.000000 0.678149 -0.734924
vn 0.000000 0.678149 -0.734924
vn 0.000000 0.678149 -0.734924
vn 0.000000 0.678149 -0.734924
vn 0.000000 -0.800398 -0.599469
vn -0.000000 -0.800398 -0.599469
vn 0.000000 -0.850694 -0.525662
vn 0.000000 -0.800398 -0.599469
vn 0.000000 -0.894526 -0.447015
vn 0.000000 -0.800398 -0.599469
vn 0.000000 -0.850694 -0.525662
vn 0.000000 -0.894526 -0.447015
vn -0.284815 0.890667 0.354391
vn -0.433194 0.853427 0.289838
vn 0.284813 0.890667 0.354393
vn -0.284815 0.890667 0.354391
vn 0.433192 0.853427 0.289841
vn -0.284815 0.890667 0.354391
vn 0.284813 0.890667 0.354393
vn 0.433192 0.853427 0.289841
vn 0.925952 0.350719 -0.140030
vn 0.670638 0.738062 0.074222
vn 0.557923 0.787936 0.260533
vn 0.925952 0.350719 -0.140030
vn 0.987781 0.067864 -0.140294
vn 0.925952 0.350719 -0.140030
vn 0.929270 0.367674 -0.035686
vn 0.987781 0.067864 -0.140294
vn -0.925956 0.350706 -0.140040
vn -0.987781 0.067825 -0.140313
vn -0.929277 0.367655 -0.035699
vn -0.925956 0.350706 -0.140040
vn -0.511169 0.837476 0.193236
vn -0.925956 0.350706 -0.140040
vn -0.732642 0.662263 0.156983
vn -0.511169 0.837476 0.193236
vn 0.000000 -0.435457 0.900210
vn 0.000000 -0.435457 0.900210
vn 0.000000 -0.435457 0.900210
vn 0.000000 -0.435457 0.900210
vn 0.000000 -0.435457 0.900210
vn 0.000000 -0.435457 0.900210
vn 0.000000 -0.435457 0.900210
vn 0.000000 -0.435457 0.900210
# 64 vertex normals

g uv
f 3/1/1 4/2/2 7/3/3
f 5/5/5 2/6/6 6/7/7
f 2/9/9 3/10/10 6/11/11
f 9/13/13 1/14/14 2/15/15
f 9/17/17 7/18/18 1/19/19
f 4/21/21 1/22/22 7/23/23
f 1/25/25 4/26/26 3/27/27
f 2/29/29 1/30/30 3/31/31
f 9/33/33 10/34/34 8/35/35
f 7/37/37 9/38/38 8/39/39
f 3/41/41 7/42/42 8/43/43
f 6/45/45 3/46/46 8/47/47
f 2/49/49 5/50/50 10/51/51
f 9/53/53 2/54/54 10/55/55
f 10/57/57 5/58/58 6/59/59
f 8/61/61 10/62/62 6/63/63
# 16 elements

