# Created by 3DAce v2.72


g
v 0.001190 5.297076 -12.179774
v -0.099412 5.236776 -9.988967
v -0.054097 5.237483 -10.910936
v 0.163250 5.245011 -10.889466
v 0.596181 5.245011 -9.988967
v 0.765973 5.245011 -3.979304
v 0.024210 5.231057 -3.979304
v 0.291007 5.192937 -3.979304
v 0.001190 5.192937 -12.179774
v 0.001190 5.297079 -12.179774
v 1.692128 5.236776 -13.174430
v 0.979017 5.237483 -12.758826
v 0.886426 5.245017 -12.987225
v 1.344328 5.245017 -13.871063
v 5.759897 5.245017 -17.045975
v 6.130802 5.231061 -16.303087
v 5.997396 5.192937 -16.570292
v 0.001190 5.192941 -12.179774
v 0.001190 5.297079 -12.179774
v -1.589143 5.236776 -13.375929
v -0.921366 5.237483 -12.869561
v -1.046116 5.245011 -12.662623
v -1.936960 5.245017 -12.679286
v -6.522335 5.245017 -15.514036
v -6.151421 5.231061 -16.256908
v -6.284823 5.192937 -15.989730
v 0.001190 5.192937 -12.179774
v 0.001266 5.348651 -12.179801
v 0.189504 5.348651 -12.179801
v 0.095375 5.348651 -12.368326
v -0.092855 5.348651 -12.368326
v -0.186998 5.348651 -12.179801
v -0.092855 5.348651 -11.991278
v 0.095375 5.348651 -11.991278
v 0.189504 4.947209 -12.179801
v 0.095375 4.947209 -12.368326
v -0.092855 4.947209 -12.368326
v -0.186998 4.947209 -12.179801
v -0.092855 4.947209 -11.991278
v 0.095375 4.947209 -11.991278
# 40 vertices

vt 0.622670 0.617930
vt 0.622670 0.604460
vt 0.884920 0.598210
vt 0.622670 0.617930
vt 0.884920 0.633320
vt 0.622670 0.641890
vt 0.622670 0.617930
vt 0.884920 0.633320
vt 0.622670 0.617930
vt 0.884920 0.598210
vt 0.884920 0.633320
vt 0.622670 0.617930
vt 0.622670 0.604460
vt 0.622670 0.641890
vt 0.884920 0.633320
vt 0.622670 0.604460
vt 0.884920 0.633320
vt 0.884920 0.598210
vt 0.622670 0.604460
vt 0.884920 0.633320
vt 0.622670 0.604460
vt 0.620080 0.617930
vt 0.622670 0.641890
vt 0.622670 0.604460
vt 0.925150 0.600500
vt 0.884920 0.598210
vt 0.884920 0.633320
vt 0.925150 0.600500
vt 0.884920 0.633320
vt 0.884920 0.598210
vt 0.925150 0.600500
vt 0.884920 0.633320
vt 0.884920 0.633320
vt 0.924220 0.611470
vt 0.925150 0.600500
vt 0.884920 0.633320
vt 0.925150 0.600500
vt 0.924210 0.611470
vt 0.884920 0.633320
vt 0.925150 0.600500
vt 0.924210 0.611470
vt 0.925150 0.600500
vt 0.980520 0.603290
vt 0.924210 0.611470
vt 0.981020 0.609850
vt 0.924550 0.611520
vt 0.980520 0.603290
vt 0.981020 0.609850
vt 0.980520 0.603290
vt 0.925150 0.600500
vt 0.980490 0.596720
vt 0.980520 0.603290
vt 0.980520 0.603290
vt 0.925150 0.600500
vt 0.924220 0.611470
vt 0.980520 0.603290
vt 0.622670 0.617930
vt 0.622670 0.604460
vt 0.884920 0.598210
vt 0.622670 0.617930
vt 0.884920 0.633320
vt 0.622670 0.641890
vt 0.622670 0.617930
vt 0.884920 0.633320
vt 0.622670 0.617930
vt 0.884920 0.598210
vt 0.884920 0.633320
vt 0.622670 0.617930
vt 0.622670 0.604460
vt 0.622670 0.641890
vt 0.884920 0.633320
vt 0.622670 0.604460
vt 0.884920 0.633320
vt 0.884920 0.598210
vt 0.622670 0.604460
vt 0.884920 0.633320
vt 0.622670 0.604460
vt 0.620080 0.617930
vt 0.622670 0.641890
vt 0.622670 0.604460
vt 0.925150 0.600500
vt 0.884920 0.598210
vt 0.884920 0.633320
vt 0.925150 0.600500
vt 0.884920 0.633320
vt 0.884920 0.598210
vt 0.925150 0.600500
vt 0.884920 0.633320
vt 0.884920 0.633320
vt 0.924220 0.611470
vt 0.925150 0.600500
vt 0.884920 0.633320
vt 0.925150 0.600500
vt 0.924210 0.611470
vt 0.884920 0.633320
vt 0.925150 0.600500
vt 0.924210 0.611470
vt 0.925150 0.600500
vt 0.980520 0.603290
vt 0.924210 0.611470
vt 0.981020 0.609850
vt 0.924550 0.611520
vt 0.980520 0.603290
vt 0.981020 0.609850
vt 0.980520 0.603290
vt 0.925150 0.600500
vt 0.980490 0.596720
vt 0.980520 0.603290
vt 0.980520 0.603290
vt 0.925150 0.600500
vt 0.924220 0.611470
vt 0.980520 0.603290
vt 0.622670 0.617930
vt 0.622670 0.604460
vt 0.884920 0.598210
vt 0.622670 0.617930
vt 0.884920 0.633320
vt 0.622670 0.641890
vt 0.622670 0.617930
vt 0.884920 0.633320
vt 0.622670 0.617930
vt 0.884920 0.598210
vt 0.884920 0.633320
vt 0.622670 0.617930
vt 0.622670 0.604460
vt 0.622670 0.641890
vt 0.884920 0.633320
vt 0.622670 0.604460
vt 0.884920 0.633320
vt 0.884920 0.598210
vt 0.622670 0.604460
vt 0.884920 0.633320
vt 0.622670 0.604460
vt 0.620080 0.617930
vt 0.622670 0.641890
vt 0.622670 0.604460
vt 0.925150 0.600500
vt 0.884920 0.598210
vt 0.884920 0.633320
vt 0.925150 0.600500
vt 0.884920 0.633320
vt 0.884920 0.598210
vt 0.925150 0.600500
vt 0.884920 0.633320
vt 0.884920 0.633320
vt 0.924220 0.611470
vt 0.925150 0.600500
vt 0.884920 0.633320
vt 0.925150 0.600500
vt 0.924210 0.611470
vt 0.884920 0.633320
vt 0.925150 0.600500
vt 0.924210 0.611470
vt 0.925150 0.600500
vt 0.980520 0.603290
vt 0.924210 0.611470
vt 0.981020 0.609850
vt 0.924550 0.611520
vt 0.980520 0.603290
vt 0.981020 0.609850
vt 0.980520 0.603290
vt 0.925150 0.600500
vt 0.980490 0.596720
vt 0.980520 0.603290
vt 0.980520 0.603290
vt 0.925150 0.600500
vt 0.924220 0.611470
vt 0.980520 0.603290
vt 0.780390 0.538450
vt 0.794890 0.538450
vt 0.787670 0.551010
vt 0.780390 0.538450
vt 0.794890 0.538450
vt 0.802180 0.551010
vt 0.787670 0.551010
vt 0.794890 0.538450
vt 0.802180 0.551010
vt 0.794890 0.563580
vt 0.787670 0.551010
vt 0.802180 0.551010
vt 0.794890 0.563580
vt 0.780430 0.563580
vt 0.787670 0.551010
vt 0.794890 0.563580
vt 0.780430 0.563580
vt 0.773160 0.551010
vt 0.787670 0.551010
vt 0.780430 0.563580
vt 0.773160 0.551010
vt 0.780390 0.538450
vt 0.787670 0.551010
vt 0.773160 0.551010
vt 0.780330 0.500300
vt 0.794890 0.500300
vt 0.794890 0.538450
vt 0.780330 0.500300
vt 0.780390 0.538450
vt 0.780330 0.500300
vt 0.794890 0.538450
vt 0.780390 0.538450
vt 0.794890 0.500300
vt 0.780330 0.500300
vt 0.780390 0.538450
vt 0.794890 0.500300
vt 0.794890 0.538450
vt 0.794890 0.500300
vt 0.780390 0.538450
vt 0.794890 0.538450
vt 0.780330 0.500300
vt 0.794890 0.500300
vt 0.794890 0.538450
vt 0.780330 0.500300
vt 0.780390 0.538450
vt 0.780330 0.500300
vt 0.794890 0.538450
vt 0.780390 0.538450
vt 0.794890 0.500300
vt 0.780330 0.500300
vt 0.780390 0.538450
vt 0.794890 0.500300
vt 0.794890 0.538450
vt 0.794890 0.500300
vt 0.780390 0.538450
vt 0.794890 0.538450
vt 0.780330 0.500300
vt 0.794890 0.500300
vt 0.794890 0.538450
vt 0.780330 0.500300
vt 0.780390 0.538450
vt 0.780330 0.500300
vt 0.794890 0.538450
vt 0.780390 0.538450
vt 0.794890 0.500300
vt 0.780330 0.500300
vt 0.780390 0.538450
vt 0.794890 0.500300
vt 0.794890 0.538450
vt 0.794890 0.500300
vt 0.780390 0.538450
vt 0.794890 0.538450
# 240 texture vertices

vn -0.006911 -0.999971 -0.003075
vn -0.141444 -0.989944 0.001968
vn -0.039360 -0.999223 -0.002099
vn -0.006911 -0.999971 -0.003075
vn 0.042282 -0.999080 -0.007205
vn 0.108984 -0.994039 -0.003079
vn -0.006911 -0.999971 -0.003075
vn 0.042282 -0.999080 -0.007205
vn -0.006911 -0.999971 -0.003075
vn -0.039360 -0.999223 -0.002099
vn 0.042282 -0.999080 -0.007205
vn -0.006911 -0.999971 -0.003075
vn -0.015323 0.999882 0.000863
vn -0.018808 0.999823 0.000531
vn -0.019706 0.999794 0.004845
vn -0.015323 0.999882 0.000863
vn -0.019706 0.999794 0.004845
vn -0.011838 0.999930 0.000690
vn -0.015323 0.999882 0.000863
vn -0.019706 0.999794 0.004845
vn 0.000000 0.000000 1.000000
vn 0.000000 0.000000 1.000000
vn 0.000000 0.000000 1.000000
vn 0.000000 0.000000 1.000000
vn -0.029076 0.999358 0.020950
vn -0.011838 0.999930 0.000690
vn -0.019706 0.999794 0.004845
vn -0.029076 0.999358 0.020950
vn 0.042282 -0.999080 -0.007205
vn -0.039360 -0.999223 -0.002099
vn 0.026398 -0.999632 0.006257
vn 0.042282 -0.999080 -0.007205
vn -0.019706 0.999794 0.004845
vn -0.037688 0.998798 0.031328
vn -0.029076 0.999358 0.020950
vn -0.019706 0.999794 0.004845
vn 0.026398 -0.999632 0.006257
vn 0.033678 -0.999388 0.009479
vn 0.042282 -0.999080 -0.007205
vn 0.026398 -0.999632 0.006257
vn 0.033678 -0.999388 0.009479
vn 0.026398 -0.999632 0.006257
vn 0.030998 -0.998856 0.036418
vn 0.033678 -0.999388 0.009479
vn -0.999052 0.000000 -0.043532
vn -0.999052 0.000000 -0.043532
vn -0.999052 0.000000 -0.043532
vn -0.999052 0.000000 -0.043532
vn 0.992205 0.000000 -0.124619
vn 0.992205 0.000000 -0.124619
vn 0.992205 0.000000 -0.124619
vn 0.992205 0.000000 -0.124619
vn -0.039036 0.998216 0.045182
vn -0.029076 0.999358 0.020950
vn -0.037688 0.998798 0.031328
vn -0.039036 0.998216 0.045182
vn 0.000398 -0.999977 0.006740
vn 0.072833 -0.991787 0.105141
vn 0.017614 -0.999377 0.030574
vn 0.000398 -0.999977 0.006740
vn -0.028380 -0.999203 -0.028089
vn -0.057644 -0.995113 -0.080169
vn 0.000398 -0.999977 0.006740
vn -0.028380 -0.999203 -0.028089
vn 0.000398 -0.999977 0.006740
vn 0.017614 -0.999377 0.030574
vn -0.028380 -0.999203 -0.028089
vn 0.000398 -0.999977 0.006740
vn 0.008529 0.999903 0.011048
vn 0.009938 0.999855 0.013822
vn 0.014716 0.999816 0.012343
vn 0.008529 0.999903 0.011048
vn 0.014716 0.999816 0.012343
vn 0.006614 0.999942 0.008527
vn 0.008529 0.999903 0.011048
vn 0.014716 0.999816 0.012343
vn 0.894687 0.000055 -0.446694
vn 0.894687 0.000055 -0.446694
vn 0.894687 0.000055 -0.446694
vn 0.894687 0.000055 -0.446694
vn 0.035531 0.999304 0.011314
vn 0.006614 0.999942 0.008527
vn 0.014716 0.999816 0.012343
vn 0.035531 0.999304 0.011314
vn -0.028380 -0.999203 -0.028089
vn 0.017614 -0.999377 0.030574
vn -0.006949 -0.999713 -0.022914
vn -0.028380 -0.999203 -0.028089
vn 0.014716 0.999816 0.012343
vn 0.050233 0.998658 0.012578
vn 0.035531 0.999304 0.011314
vn 0.014716 0.999816 0.012343
vn -0.006949 -0.999713 -0.022914
vn -0.007370 -0.999523 -0.029983
vn -0.028380 -0.999203 -0.028089
vn -0.006949 -0.999713 -0.022914
vn -0.007370 -0.999523 -0.029983
vn -0.006949 -0.999713 -0.022914
vn 0.020958 -0.998921 -0.041447
vn -0.007370 -0.999523 -0.029983
vn 0.509541 0.000000 0.860446
vn 0.509541 0.000000 0.860446
vn 0.509541 0.000000 0.860446
vn 0.509541 0.000000 0.860446
vn -0.673901 0.000000 -0.738821
vn -0.673901 0.000000 -0.738821
vn -0.673901 0.000000 -0.738821
vn -0.673901 0.000000 -0.738821
vn 0.064763 0.997878 0.006662
vn 0.035531 0.999304 0.011314
vn 0.050233 0.998658 0.012578
vn 0.064763 0.997878 0.006662
vn 0.006553 -0.999972 -0.003672
vn 0.068892 -0.991855 -0.107129
vn 0.021815 -0.999356 -0.028481
vn 0.006553 -0.999972 -0.003672
vn -0.013944 -0.999280 0.035291
vn -0.051471 -0.995198 0.083257
vn 0.006553 -0.999972 -0.003672
vn -0.013944 -0.999280 0.035291
vn 0.006553 -0.999972 -0.003672
vn 0.021815 -0.999356 -0.028481
vn -0.013944 -0.999280 0.035291
vn 0.006553 -0.999972 -0.003672
vn 0.006800 0.999906 -0.011912
vn 0.008874 0.999858 -0.014354
vn 0.005005 0.999840 -0.017184
vn 0.006800 0.999906 -0.011912
vn 0.005005 0.999840 -0.017184
vn 0.005233 0.999944 -0.009217
vn 0.006800 0.999906 -0.011912
vn 0.005005 0.999840 -0.017184
vn -0.894678 0.000014 -0.446711
vn -0.894678 0.000014 -0.446711
vn -0.894678 0.000014 -0.446711
vn -0.894678 0.000014 -0.446711
vn -0.006441 0.999459 -0.032255
vn 0.005233 0.999944 -0.009217
vn 0.005005 0.999840 -0.017184
vn -0.006441 0.999459 -0.032255
vn -0.013944 -0.999280 0.035291
vn 0.021815 -0.999356 -0.028481
vn -0.019467 -0.999672 0.016643
vn -0.013944 -0.999280 0.035291
vn 0.005005 0.999840 -0.017184
vn -0.012530 0.998958 -0.043893
vn -0.006441 0.999459 -0.032255
vn 0.005005 0.999840 -0.017184
vn -0.019467 -0.999672 0.016643
vn -0.026332 -0.999443 0.020483
vn -0.013944 -0.999280 0.035291
vn -0.019467 -0.999672 0.016643
vn -0.026332 -0.999443 0.020483
vn -0.019467 -0.999672 0.016643
vn -0.051961 -0.998637 0.005004
vn -0.026332 -0.999443 0.020483
vn 0.598816 0.000000 -0.800887
vn 0.598816 0.000000 -0.800887
vn 0.598816 0.000000 -0.800887
vn 0.598816 0.000000 -0.800887
vn -0.418684 0.000000 0.908132
vn -0.418684 0.000000 0.908132
vn -0.418684 0.000000 0.908132
vn -0.418684 0.000000 0.908132
vn -0.025736 0.998324 -0.051831
vn -0.006441 0.999459 -0.032255
vn -0.012530 0.998958 -0.043893
vn -0.025736 0.998324 -0.051831
vn 0.000000 1.000000 0.000000
vn -0.000000 1.000000 0.000000
vn 0.000000 1.000000 0.000000
vn 0.000000 1.000000 0.000000
vn -0.000000 1.000000 0.000000
vn 0.000000 1.000000 0.000000
vn 0.000000 1.000000 0.000000
vn -0.000000 1.000000 0.000000
vn 0.000000 1.000000 0.000000
vn 0.000000 1.000000 0.000000
vn 0.000000 1.000000 0.000000
vn 0.000000 1.000000 0.000000
vn 0.000000 1.000000 0.000000
vn 0.000000 1.000000 0.000000
vn 0.000000 1.000000 0.000000
vn 0.000000 1.000000 0.000000
vn 0.000000 1.000000 0.000000
vn 0.000000 1.000000 -0.000000
vn 0.000000 1.000000 0.000000
vn 0.000000 1.000000 0.000000
vn 0.000000 1.000000 -0.000000
vn 0.000000 1.000000 0.000000
vn 0.000000 1.000000 0.000000
vn 0.000000 1.000000 -0.000000
vn 0.986432 0.000000 -0.164171
vn 0.894681 0.000000 -0.446706
vn 0.894681 0.000000 -0.446706
vn 0.986432 0.000000 -0.164171
vn 0.986431 0.000000 0.164175
vn 0.986432 0.000000 -0.164171
vn 0.894681 0.000000 -0.446706
vn 0.986431 0.000000 0.164175
vn 0.000000 0.000000 -1.000000
vn 0.000000 0.000000 -1.000000
vn 0.000000 0.000000 -1.000000
vn 0.000000 0.000000 -1.000000
vn 0.000000 0.000000 -1.000000
vn 0.000000 0.000000 -1.000000
vn 0.000000 0.000000 -1.000000
vn 0.000000 0.000000 -1.000000
vn -0.894654 0.000000 -0.446760
vn -0.986427 0.000000 0.164199
vn -0.986428 0.000000 -0.164195
vn -0.894654 0.000000 -0.446760
vn -0.894654 0.000000 -0.446760
vn -0.894654 0.000000 -0.446760
vn -0.986428 0.000000 -0.164195
vn -0.894654 0.000000 -0.446760
vn -0.986427 0.000000 0.164199
vn -0.894652 0.000000 0.446763
vn -0.894652 0.000000 0.446763
vn -0.986427 0.000000 0.164199
vn -0.986428 0.000000 -0.164195
vn -0.986427 0.000000 0.164199
vn -0.894652 0.000000 0.446763
vn -0.986428 0.000000 -0.164195
vn 0.000000 0.000000 1.000000
vn 0.000000 0.000000 1.000000
vn 0.000000 0.000000 1.000000
vn 0.000000 0.000000 1.000000
vn 0.000000 -0.000000 1.000000
vn 0.000000 0.000000 1.000000
vn 0.000000 0.000000 1.000000
vn 0.000000 -0.000000 1.000000
vn 0.894679 0.000000 0.446710
vn 0.986432 0.000000 -0.164171
vn 0.986431 0.000000 0.164175
vn 0.894679 0.000000 0.446710
vn 0.894679 -0.000000 0.446710
vn 0.894679 0.000000 0.446710
vn 0.986431 0.000000 0.164175
vn 0.894679 -0.000000 0.446710
# 240 vertex normals

g uv
f 8/1/1 7/2/2 2/3/3
f 5/5/5 6/6/6 8/7/7
f 8/9/9 2/10/10 5/11/11
f 7/13/13 6/14/14 5/15/15
f 5/17/17 2/18/18 7/19/19
f 7/21/21 8/22/22 6/23/23
f 3/25/25 2/26/26 5/27/27
f 5/29/29 2/30/30 3/31/31
f 5/33/33 4/34/34 3/35/35
f 3/37/37 4/38/38 5/39/39
f 4/41/41 3/42/42 9/43/43
f 9/45/45 3/46/46 1/47/47
f 1/49/49 4/50/50 9/51/51
f 1/53/53 3/54/54 4/55/55
f 17/57/57 16/58/58 11/59/59
f 14/61/61 15/62/62 17/63/63
f 17/65/65 11/66/66 14/67/67
f 16/69/69 15/70/70 14/71/71
f 14/73/73 11/74/74 16/75/75
f 16/77/77 17/78/78 15/79/79
f 12/81/81 11/82/82 14/83/83
f 14/85/85 11/86/86 12/87/87
f 14/89/89 13/90/90 12/91/91
f 12/93/93 13/94/94 14/95/95
f 13/97/97 12/98/98 18/99/99
f 18/101/101 12/102/102 10/103/103
f 10/105/105 13/106/106 18/107/107
f 10/109/109 12/110/110 13/111/111
f 26/113/113 25/114/114 20/115/115
f 23/117/117 24/118/118 26/119/119
f 26/121/121 20/122/122 23/123/123
f 25/125/125 24/126/126 23/127/127
f 23/129/129 20/130/130 25/131/131
f 25/133/133 26/134/134 24/135/135
f 21/137/137 20/138/138 23/139/139
f 23/141/141 20/142/142 21/143/143
f 23/145/145 22/146/146 21/147/147
f 21/149/149 22/150/150 23/151/151
f 22/153/153 21/154/154 27/155/155
f 27/157/157 21/158/158 19/159/159
f 19/161/161 22/162/162 27/163/163
f 19/165/165 21/166/166 22/167/167
f 29/169/169 30/170/170 28/171/171
f 30/173/173 31/174/174 28/175/175
f 31/177/177 32/178/178 28/179/179
f 32/181/181 33/182/182 28/183/183
f 33/185/185 34/186/186 28/187/187
f 34/189/189 29/190/190 28/191/191
f 35/193/193 36/194/194 30/195/195
f 29/197/197 35/198/198 30/199/199
f 36/201/201 37/202/202 31/203/203
f 30/205/205 36/206/206 31/207/207
f 37/209/209 38/210/210 32/211/211
f 31/213/213 37/214/214 32/215/215
f 38/217/217 39/218/218 33/219/219
f 32/221/221 38/222/222 33/223/223
f 39/225/225 40/226/226 34/227/227
f 33/229/229 39/230/230 34/231/231
f 40/233/233 35/234/234 29/235/235
f 34/237/237 40/238/238 29/239/239
# 60 elements

