# Created by Metasequoia

v -1.711760 4.683875 1.676008
v -1.711760 1.335956 1.676008
v 1.636156 4.683875 1.676008
v 1.636156 1.335956 1.676008
v 1.636156 4.683875 -1.671908
v 1.636156 1.335956 -1.671908
v -1.711760 4.683875 -1.671908
v -1.711760 1.335956 -1.671908
v -1.413005 1.674032 1.393060
v -1.341728 -0.458578 0.955618
v -0.927864 1.692479 1.396213
v -0.856585 -0.440131 0.958768
v -0.928502 1.811565 0.906088
v -0.857224 -0.321044 0.468643
v -1.413644 1.793122 0.902939
v -1.342367 -0.339488 0.465495
v 1.413005 1.674032 1.393060
v 1.341728 -0.458578 0.955618
v 0.927864 1.692479 1.396213
v 0.856585 -0.440131 0.958768
v 0.928502 1.811565 0.906088
v 0.857224 -0.321044 0.468643
v 1.413644 1.793122 0.902939
v 1.342367 -0.339488 0.465495
v -1.476255 1.571322 0.372205
v -1.268482 -0.378176 -0.065237
v -0.993478 1.622069 0.375357
v -0.785705 -0.327430 -0.062088
v -1.001748 1.731166 -0.114769
v -0.793972 -0.218333 -0.552213
v -1.484526 1.680420 -0.117917
v -1.276751 -0.269079 -0.555361
v 1.476255 1.571322 0.372205
v 1.268482 -0.378176 -0.065237
v 0.993478 1.622069 0.375357
v 0.785705 -0.327430 -0.062088
v 1.001748 1.731166 -0.114769
v 0.793972 -0.218333 -0.552213
v 1.484526 1.680420 -0.117917
v 1.276751 -0.269079 -0.555361
v -1.285079 1.606169 -0.582540
v -1.484878 -0.327628 -1.088094
v -0.802317 1.555314 -0.578800
v -1.002115 -0.378484 -1.084353
v -0.785352 1.680617 -1.064809
v -0.985150 -0.253180 -1.570360
v -1.268114 1.731475 -1.068544
v -1.467913 -0.202322 -1.574100
v 1.285079 1.606169 -0.582540
v 1.484878 -0.327628 -1.088094
v 0.802317 1.555314 -0.578800
v 1.002115 -0.378484 -1.084353
v 0.785352 1.680617 -1.064809
v 0.985150 -0.253180 -1.570360
v 1.268114 1.731475 -1.068544
v 1.467913 -0.202322 -1.574100
v -0.288902 1.487910 -0.447868
v -0.217625 -0.351869 -1.251115
v 0.196240 1.503942 -0.441541
v 0.267518 -0.335836 -1.244789
v 0.195599 1.704859 -0.901787
v 0.266879 -0.134920 -1.705032
v -0.289541 1.688828 -0.908109
v -0.218262 -0.150951 -1.711358
v -0.304711 1.500338 0.367786
v -0.199391 -0.260493 -0.035450
v 0.180063 1.523150 0.370346
v 0.285384 -0.237681 -0.032892
v 0.177364 1.613482 -0.121613
v 0.282688 -0.147349 -0.524850
v -0.307409 1.590671 -0.124170
v -0.202086 -0.170161 -0.527407
v -0.315394 1.534624 1.474857
v -0.210919 -0.366630 0.835015
v 0.169386 1.559613 1.479763
v 0.273863 -0.341638 0.839919
v 0.165953 1.719614 1.003757
v 0.270431 -0.181635 0.363914
v -0.318826 1.694628 0.998857
v -0.214351 -0.206622 0.359011
v -0.037802 5.217687 0.002050
v -0.037802 5.217687 0.145943
v 0.086815 5.217687 0.073997
v 0.086815 5.217687 -0.069897
v -0.037802 5.217687 -0.141844
v -0.162418 5.217687 -0.069897
v -0.162418 5.217687 0.073997
v -0.037802 4.656216 0.145943
v 0.086815 4.656216 0.073997
v 0.086815 4.656216 -0.069897
v -0.037802 4.656216 -0.141844
v -0.162418 4.656216 -0.069897
v -0.162418 4.656216 0.073997
# 93 vertices

vt 0.49819 0.49970
vt 0.49865 0.00009
vt 0.24853 -0.00010
vt 0.25000 0.49970
vt 0.74991 0.50020
vt 0.74991 0.00001
vt 0.49858 0.00001
vt 0.49814 0.49991
vt 0.99990 0.50012
vt 0.99990 0.00022
vt 0.75003 0.00022
vt 0.75003 0.50012
vt 0.24996 0.49991
vt 0.24849 0.00000
vt -0.00001 0.00003
vt 0.00012 0.49998
vt 0.49894 1.00011
vt 0.49808 0.49989
vt 0.24999 0.49977
vt 0.25002 1.00008
vt 0.74999 1.00001
vt 0.74999 0.50018
vt 0.49804 0.49974
vt 0.49897 0.99971
vt 0.06261 0.93771
vt 0.06291 0.50134
vt 0.03122 0.50173
vt 0.03144 0.93758
vt 0.09370 0.93722
vt 0.09373 0.49981
vt 0.12461 0.93669
vt 0.12465 0.50031
vt -0.00016 0.49917
vt -0.00007 0.93765
vt 0.06280 0.99873
vt 0.09355 0.99973
vt 0.06274 0.99960
vt 0.06262 0.93771
vt 0.03138 0.93781
vt 0.03166 1.00002
vt 0.79390 0.63065
vt 0.82665 0.61174
vt 0.79390 0.59284
vt 0.82665 0.64956
vt 0.79390 0.66847
vt 0.76114 0.64956
vt 0.76114 0.61174
vt 0.82665 0.82194
vt 0.82665 0.67437
vt 0.79390 0.67437
vt 0.79390 0.82194
vt 0.87037 0.82194
vt 0.87037 0.67437
vt 0.83255 0.67437
vt 0.83255 0.82194
vt 0.90902 0.82194
vt 0.90902 0.67437
vt 0.87627 0.67437
vt 0.87627 0.82194
vt 0.94177 0.82194
vt 0.94177 0.67437
vt 0.98549 0.82194
vt 0.98549 0.67437
vt 0.94767 0.67437
vt 0.94767 0.82194
vt 0.76114 0.67437
vt 0.76114 0.82194
# 67 texture vertices

vn 0.00000 0.00000 1.00000
vn 0.00000 0.00000 1.00000
vn 1.00000 0.00000 0.00000
vn 1.00000 0.00000 0.00000
vn 0.00000 0.00000 -1.00000
vn 0.00000 0.00000 -1.00000
vn 0.00127 -0.20090 0.97961
vn 0.00127 -0.20090 0.97961
vn 0.00128 -0.20090 0.97961
vn 0.99946 0.03207 0.00649
vn 0.99946 0.03207 0.00649
vn -0.00128 0.20090 -0.97961
vn -0.00128 0.20090 -0.97961
vn -0.00127 -0.20090 0.97961
vn -0.00127 -0.20090 0.97961
vn -0.00128 -0.20090 0.97961
vn -0.99946 0.03207 0.00649
vn -0.99946 0.03207 0.00649
vn 0.00128 0.20090 -0.97961
vn 0.00128 0.20090 -0.97961
vn 0.01646 -0.21724 0.97598
vn 0.01647 -0.21724 0.97598
vn 0.01647 -0.21724 0.97598
vn 0.99450 0.10454 0.00649
vn 0.99450 0.10454 0.00649
vn -0.01647 0.21724 -0.97598
vn -0.01647 0.21724 -0.97598
vn -0.01646 -0.21724 0.97598
vn -0.01647 -0.21724 0.97598
vn -0.01647 -0.21724 0.97598
vn -0.99450 0.10454 0.00649
vn -0.99450 0.10454 0.00649
vn 0.01647 0.21724 -0.97598
vn 0.01647 0.21724 -0.97598
vn -0.03378 -0.24952 0.96778
vn -0.03378 -0.24952 0.96778
vn -0.03378 -0.24952 0.96778
vn 0.99447 -0.10476 0.00770
vn 0.99447 -0.10476 0.00770
vn 0.03378 0.24952 -0.96778
vn 0.03378 0.24952 -0.96778
vn 0.03378 -0.24952 0.96778
vn 0.03378 -0.24952 0.96778
vn 0.03378 -0.24952 0.96778
vn -0.99447 -0.10476 0.00770
vn -0.99447 -0.10476 0.00770
vn -0.03378 0.24952 -0.96778
vn -0.03378 0.24952 -0.96778
vn 0.00127 -0.40008 0.91648
vn 0.00127 -0.40008 0.91648
vn 0.00127 -0.40008 0.91648
vn 0.99937 0.03303 0.01303
vn 0.99937 0.03303 0.01303
vn -0.00127 0.40008 -0.91648
vn -0.00127 0.40009 -0.91648
vn 0.00534 -0.22292 0.97482
vn 0.00534 -0.22292 0.97482
vn 0.00535 -0.22292 0.97482
vn 0.99827 0.05850 0.00527
vn 0.99827 0.05850 0.00527
vn -0.00535 0.22292 -0.97482
vn -0.00535 0.22292 -0.97482
vn 0.00683 -0.31861 0.94786
vn 0.00683 -0.31861 0.94786
vn 0.00684 -0.31862 0.94786
vn 0.99862 0.05148 0.01010
vn 0.99862 0.05148 0.01010
vn -0.00684 0.31862 -0.94786
vn -0.00684 0.31862 -0.94786
vn 0.00000 1.00000 0.00000
vn 0.50000 0.00000 0.86603
vn 0.50000 0.00000 -0.86603
vn -0.50000 0.00000 -0.86603
vn -1.00000 0.00000 0.00000
vn -1.00000 0.00000 0.00000
vn 0.00000 -1.00000 0.00000
vn 0.99946 0.03207 0.00649
vn -0.00128 0.20090 -0.97961
vn -0.99946 -0.03207 -0.00649
vn -0.99946 -0.03207 -0.00649
vn -0.99946 -0.03207 -0.00649
vn -0.03845 0.97100 0.23598
vn -0.03845 0.97100 0.23598
vn -0.03844 0.97100 0.23598
vn 0.03845 -0.97100 -0.23598
vn 0.03845 -0.97100 -0.23598
vn 0.03845 -0.97100 -0.23598
vn -0.99946 0.03207 0.00649
vn 0.00128 0.20090 -0.97961
vn 0.99946 -0.03207 -0.00649
vn 0.99946 -0.03207 -0.00649
vn 0.99946 -0.03207 -0.00649
vn 0.03845 0.97100 0.23598
vn 0.03845 0.97100 0.23598
vn 0.03844 0.97100 0.23598
vn -0.03845 -0.97100 -0.23598
vn -0.03845 -0.97100 -0.23598
vn -0.03845 -0.97100 -0.23598
vn 0.99450 0.10454 0.00649
vn -0.01647 0.21724 -0.97598
vn -0.99450 -0.10454 -0.00649
vn -0.99450 -0.10453 -0.00649
vn -0.99450 -0.10454 -0.00649
vn -0.10343 0.97050 0.21777
vn -0.10344 0.97050 0.21777
vn -0.10343 0.97050 0.21777
vn 0.10343 -0.97050 -0.21777
vn 0.10343 -0.97050 -0.21777
vn 0.10343 -0.97050 -0.21777
vn -0.99450 0.10454 0.00649
vn 0.01647 0.21724 -0.97598
vn 0.99450 -0.10454 -0.00649
vn 0.99450 -0.10453 -0.00649
vn 0.99450 -0.10454 -0.00649
vn 0.10343 0.97050 0.21777
vn 0.10344 0.97050 0.21777
vn 0.10343 0.97050 0.21777
vn -0.10343 -0.97050 -0.21777
vn -0.10343 -0.97050 -0.21777
vn -0.10343 -0.97050 -0.21777
vn 0.99447 -0.10476 0.00770
vn 0.03377 0.24952 -0.96778
vn -0.99447 0.10476 -0.00770
vn -0.99447 0.10476 -0.00770
vn -0.99447 0.10476 -0.00770
vn 0.09947 0.96269 0.25168
vn 0.09946 0.96269 0.25167
vn 0.09947 0.96269 0.25168
vn -0.09947 -0.96269 -0.25168
vn -0.09947 -0.96269 -0.25168
vn -0.09946 -0.96269 -0.25168
vn -0.99447 -0.10476 0.00770
vn -0.03377 0.24952 -0.96778
vn 0.99447 0.10476 -0.00770
vn 0.99447 0.10476 -0.00770
vn 0.99447 0.10476 -0.00770
vn -0.09947 0.96269 0.25168
vn -0.09946 0.96269 0.25167
vn -0.09947 0.96269 0.25168
vn 0.09947 -0.96269 -0.25168
vn 0.09947 -0.96269 -0.25168
vn 0.09946 -0.96269 -0.25168
vn 0.99937 0.03303 0.01303
vn -0.00128 0.40008 -0.91648
vn -0.99937 -0.03303 -0.01303
vn -0.99937 -0.03303 -0.01303
vn -0.99937 -0.03303 -0.01303
vn -0.03548 0.91588 0.39987
vn -0.03548 0.91588 0.39987
vn -0.03547 0.91588 0.39988
vn 0.03548 -0.91588 -0.39987
vn 0.03548 -0.91588 -0.39987
vn 0.03548 -0.91588 -0.39988
vn 0.99827 0.05850 0.00527
vn -0.00535 0.22292 -0.97482
vn -0.99827 -0.05850 -0.00527
vn -0.99827 -0.05850 -0.00527
vn -0.99827 -0.05850 -0.00527
vn -0.04718 0.98242 0.18065
vn -0.04718 0.98242 0.18065
vn -0.04718 0.98242 0.18065
vn 0.04718 -0.98242 -0.18065
vn 0.04718 -0.98242 -0.18065
vn 0.04718 -0.98242 -0.18065
vn 0.99862 0.05148 0.01010
vn -0.00684 0.31862 -0.94786
vn -0.99862 -0.05147 -0.01010
vn -0.99862 -0.05147 -0.01010
vn -0.99862 -0.05147 -0.01010
vn -0.05201 0.94649 0.31853
vn -0.05201 0.94649 0.31852
vn -0.05200 0.94649 0.31853
vn 0.05201 -0.94649 -0.31853
vn 0.05201 -0.94649 -0.31853
vn 0.05202 -0.94648 -0.31853
vn -0.50000 0.00000 -0.86603
vn -0.50000 0.00000 0.86603
# 177 normal vertices

f 2/3/2 4/2/1 3/1/2
f 1/4/1 2/3/2 3/1/2
f 4/7/3 6/6/4 5/5/3
f 3/8/4 4/7/3 5/5/3
f 6/11/5 8/10/6 7/9/5
f 5/12/6 6/11/5 7/9/5
f 8/15/75 2/14/74 1/13/75
f 7/16/74 8/15/75 1/13/75
f 1/19/70 3/18/70 5/17/70
f 7/20/70 1/19/70 5/17/70
f 8/23/76 6/22/76 4/21/76
f 2/24/76 8/23/76 4/21/76
f 10/27/8 12/26/9 11/25/8
f 9/28/7 10/27/8 11/25/8
f 12/26/10 14/30/11 13/29/10
f 11/25/77 12/26/10 13/29/10
f 14/30/12 16/32/13 15/31/12
f 13/29/78 14/30/12 15/31/12
f 16/33/79 10/27/80 9/28/79
f 15/34/81 16/33/79 9/28/79
f 9/35/82 11/25/83 13/29/82
f 15/36/84 9/35/82 13/29/82
f 16/39/85 14/38/86 12/37/85
f 10/40/87 16/39/85 12/37/85
f 19/25/15 20/26/16 18/27/15
f 19/25/15 18/27/15 17/28/14
f 21/29/17 22/30/18 20/26/17
f 21/29/17 20/26/17 19/25/88
f 23/31/19 24/32/20 22/30/19
f 23/31/19 22/30/19 21/29/89
f 17/28/90 18/27/91 24/33/90
f 17/28/90 24/33/90 23/34/92
f 21/29/93 19/25/94 17/35/93
f 21/29/93 17/35/93 23/36/95
f 20/37/96 22/38/97 24/39/96
f 20/37/96 24/39/96 18/40/98
f 26/27/22 28/26/23 27/25/22
f 25/28/21 26/27/22 27/25/22
f 28/26/24 30/30/25 29/29/24
f 27/25/99 28/26/24 29/29/24
f 30/30/26 32/32/27 31/31/26
f 29/29/100 30/30/26 31/31/26
f 32/33/101 26/27/102 25/28/101
f 31/34/103 32/33/101 25/28/101
f 25/35/104 27/25/105 29/29/104
f 31/36/106 25/35/104 29/29/104
f 32/39/107 30/38/108 28/37/107
f 26/40/109 32/39/107 28/37/107
f 35/25/29 36/26/30 34/27/29
f 35/25/29 34/27/29 33/28/28
f 37/29/31 38/30/32 36/26/31
f 37/29/31 36/26/31 35/25/110
f 39/31/33 40/32/34 38/30/33
f 39/31/33 38/30/33 37/29/111
f 33/28/112 34/27/113 40/33/112
f 33/28/112 40/33/112 39/34/114
f 37/29/115 35/25/116 33/35/115
f 37/29/115 33/35/115 39/36/117
f 36/37/118 38/38/119 40/39/118
f 36/37/118 40/39/118 34/40/120
f 42/27/36 44/26/37 43/25/36
f 41/28/35 42/27/36 43/25/36
f 44/26/38 46/30/39 45/29/38
f 43/25/121 44/26/38 45/29/38
f 46/30/40 48/32/41 47/31/40
f 45/29/122 46/30/40 47/31/40
f 48/33/123 42/27/124 41/28/123
f 47/34/125 48/33/123 41/28/123
f 41/35/126 43/25/127 45/29/126
f 47/36/128 41/35/126 45/29/126
f 48/39/129 46/38/130 44/37/129
f 42/40/131 48/39/129 44/37/129
f 51/25/43 52/26/44 50/27/43
f 51/25/43 50/27/43 49/28/42
f 53/29/45 54/30/46 52/26/45
f 53/29/45 52/26/45 51/25/132
f 55/31/47 56/32/48 54/30/47
f 55/31/47 54/30/47 53/29/133
f 49/28/134 50/27/135 56/33/134
f 49/28/134 56/33/134 55/34/136
f 53/29/137 51/25/138 49/35/137
f 53/29/137 49/35/137 55/36/139
f 52/37/140 54/38/141 56/39/140
f 52/37/140 56/39/140 50/40/142
f 58/27/50 60/26/51 59/25/50
f 57/28/49 58/27/50 59/25/50
f 60/26/52 62/30/53 61/29/52
f 59/25/143 60/26/52 61/29/52
f 62/30/54 64/32/55 63/31/54
f 61/29/144 62/30/54 63/31/54
f 64/33/145 58/27/146 57/28/145
f 63/34/147 64/33/145 57/28/145
f 57/35/148 59/25/149 61/29/148
f 63/36/150 57/35/148 61/29/148
f 64/39/151 62/38/152 60/37/151
f 58/40/153 64/39/151 60/37/151
f 66/27/57 68/26/58 67/25/57
f 65/28/56 66/27/57 67/25/57
f 68/26/59 70/30/60 69/29/59
f 67/25/154 68/26/59 69/29/59
f 70/30/61 72/32/62 71/31/61
f 69/29/155 70/30/61 71/31/61
f 72/33/156 66/27/157 65/28/156
f 71/34/158 72/33/156 65/28/156
f 65/35/159 67/25/160 69/29/159
f 71/36/161 65/35/159 69/29/159
f 72/39/162 70/38/163 68/37/162
f 66/40/164 72/39/162 68/37/162
f 74/27/64 76/26/65 75/25/64
f 73/28/63 74/27/64 75/25/64
f 76/26/66 78/30/67 77/29/66
f 75/25/165 76/26/66 77/29/66
f 78/30/68 80/32/69 79/31/68
f 77/29/166 78/30/68 79/31/68
f 80/33/167 74/27/168 73/28/167
f 79/34/169 80/33/167 73/28/167
f 73/35/170 75/25/171 77/29/170
f 79/36/172 73/35/170 77/29/170
f 80/39/173 78/38/174 76/37/173
f 74/40/175 80/39/173 76/37/173
f 82/43/70 83/42/70 81/41/70
f 83/42/70 84/44/70 81/41/70
f 84/44/70 85/45/70 81/41/70
f 85/45/70 86/46/70 81/41/70
f 86/46/70 87/47/70 81/41/70
f 87/47/70 82/43/70 81/41/70
f 88/50/71 89/49/71 83/48/71
f 82/51/71 88/50/71 83/48/71
f 89/54/3 90/53/4 84/52/3
f 83/55/4 89/54/3 84/52/3
f 90/58/72 91/57/72 85/56/72
f 84/59/72 90/58/72 85/56/72
f 91/57/176 92/61/73 86/60/176
f 85/56/73 91/57/176 86/60/176
f 92/64/75 93/63/74 87/62/75
f 86/65/74 92/64/75 87/62/75
f 93/66/177 88/50/177 82/51/177
f 87/67/177 93/66/177 82/51/177
# 138 elements

