# Created by Metasequoia

v 2.363669 5.100533 0.002050
v 2.291540 5.100530 0.095956
v 2.291540 5.058637 0.049002
v 2.291540 5.058637 -0.044902
v 2.291540 5.100530 -0.091856
v 2.291542 5.142425 -0.044902
v 2.291542 5.142425 0.049002
v 1.813098 5.100533 0.164698
v 1.813098 5.027971 0.083374
v 1.813098 5.027971 -0.079274
v 1.813098 5.100533 -0.160599
v 1.813101 5.173090 -0.079274
v 1.813101 5.173090 0.083374
v 1.159534 5.100530 0.175455
v 1.159534 5.016746 0.088752
v 1.159531 5.016746 -0.084652
v 1.159534 5.100530 -0.171355
v 1.159534 5.184314 -0.084652
v 1.159534 5.184314 0.088752
v 0.505967 5.100530 0.160693
v 0.505965 5.027971 0.081372
v 0.505965 5.027971 -0.077272
v 0.505967 5.100533 -0.156593
v 0.505967 5.173090 -0.077272
v 0.505967 5.173090 0.081372
v 0.027524 5.100530 0.093642
v 0.027521 5.058637 0.047846
v 0.027521 5.058637 -0.043746
v 0.027524 5.100530 -0.089542
v 0.027524 5.142425 -0.043746
v 0.027524 5.142425 0.047846
# 31 vertices

vt 0.76799 0.86178
vt 0.76329 0.85758
vt 0.75858 0.86178
vt 0.99283 0.93688
vt 0.98560 0.93217
vt 0.98560 0.94159
vt 0.77737 0.86178
vt 0.78678 0.86178
vt 0.78207 0.85758
vt 0.78207 0.86598
vt 0.99283 0.89274
vt 0.98560 0.88803
vt 0.98560 0.89745
vt 0.76329 0.86598
vt 0.93762 0.94504
vt 0.93762 0.95319
vt 0.98560 0.94630
vt 0.93762 0.92873
vt 0.98560 0.92747
vt 0.93762 0.92057
vt 0.93762 0.90089
vt 0.93762 0.90905
vt 0.98560 0.90215
vt 0.93762 0.88458
vt 0.98560 0.88332
vt 0.93762 0.87643
vt 0.87209 0.94558
vt 0.87209 0.95427
vt 0.87209 0.92819
vt 0.87209 0.91950
vt 0.87209 0.90143
vt 0.87209 0.91013
vt 0.87209 0.88404
vt 0.87209 0.87535
vt 0.80655 0.94484
vt 0.80655 0.95279
vt 0.80655 0.92893
vt 0.80655 0.92098
vt 0.80655 0.90069
vt 0.80655 0.90864
vt 0.80655 0.88478
vt 0.80655 0.87683
vt 0.75858 0.94147
vt 0.75858 0.94607
vt 0.75858 0.93229
vt 0.75858 0.92770
vt 0.75858 0.89733
vt 0.75858 0.90192
vt 0.75858 0.88815
vt 0.75858 0.88355
# 50 texture vertices

vn 0.67286 -0.73977 -0.00000
vn 0.39380 -0.68588 0.61196
vn 0.31072 -0.86108 0.40248
vn 0.30391 -0.91747 -0.25667
vn 0.29419 -0.71315 -0.63630
vn 0.31071 0.86108 -0.40249
vn 0.30391 0.91747 0.25668
vn 0.05509 -0.73837 0.67214
vn 0.05521 -0.95736 0.28358
vn 0.05479 -0.93314 -0.35531
vn 0.04169 -0.73662 -0.67502
vn 0.05521 0.95736 -0.28357
vn 0.05479 0.93314 0.35530
vn -0.00213 -0.71911 0.69490
vn 0.00167 -0.90812 0.41870
vn -0.00359 -0.90812 -0.41870
vn -0.00213 -0.71911 -0.69490
vn 0.00167 0.90812 -0.41870
vn -0.00359 0.90812 0.41870
vn -0.04342 -0.73097 0.68103
vn -0.05490 -0.93091 0.36109
vn -0.05554 -0.95597 -0.28816
vn -0.05613 -0.73205 -0.67894
vn -0.05490 0.93092 -0.36108
vn -0.05553 0.95597 0.28815
vn -0.09417 -0.73457 0.67196
vn -0.07874 -0.96801 0.23823
vn -0.08945 -0.87464 -0.47646
vn -0.09417 -0.73457 -0.67197
vn -0.07874 0.96801 -0.23823
vn -0.08945 0.87464 0.47646
vn 0.67287 0.73976 -0.00000
vn 0.39380 0.68586 -0.61198
vn 0.29419 0.71314 0.63630
vn 0.05510 0.73838 -0.67213
vn 0.04169 0.73663 0.67501
vn -0.00213 0.71911 -0.69490
vn -0.00213 0.71911 0.69490
vn -0.04342 0.73097 -0.68102
vn -0.05613 0.73205 0.67894
vn -0.09417 0.73457 -0.67196
vn -0.09417 0.73456 0.67198
# 42 normal vertices

f 2/3/2 3/2/3 1/1/1
f 3/6/3 4/5/4 1/4/1
f 4/9/4 5/8/5 1/7/1
f 5/8/33 6/10/6 1/7/32
f 6/13/6 7/12/7 1/11/32
f 7/14/7 2/3/34 1/1/32
f 8/16/8 9/15/9 3/6/3
f 2/17/2 8/16/8 3/6/3
f 9/15/9 10/18/10 4/5/4
f 3/6/3 9/15/9 4/5/4
f 10/18/10 11/20/11 5/19/5
f 4/5/4 10/18/10 5/19/5
f 11/22/35 12/21/12 6/13/6
f 5/23/33 11/22/35 6/13/6
f 12/21/12 13/24/13 7/12/7
f 6/13/6 12/21/12 7/12/7
f 13/24/13 8/26/36 2/25/34
f 7/12/7 13/24/13 2/25/34
f 15/27/15 9/15/9 8/16/8
f 14/28/14 15/27/15 8/16/8
f 15/27/15 16/29/16 10/18/10
f 9/15/9 15/27/15 10/18/10
f 16/29/16 17/30/17 11/20/11
f 10/18/10 16/29/16 11/20/11
f 18/31/18 12/21/12 11/22/35
f 17/32/37 18/31/18 11/22/35
f 18/31/18 19/33/19 13/24/13
f 12/21/12 18/31/18 13/24/13
f 19/33/19 14/34/38 8/26/36
f 13/24/13 19/33/19 8/26/36
f 20/36/20 21/35/21 15/27/15
f 14/28/14 20/36/20 15/27/15
f 21/35/21 22/37/22 16/29/16
f 15/27/15 21/35/21 16/29/16
f 23/38/23 17/30/17 16/29/16
f 22/37/22 23/38/23 16/29/16
f 23/40/39 24/39/24 18/31/18
f 17/32/37 23/40/39 18/31/18
f 24/39/24 25/41/25 19/33/19
f 18/31/18 24/39/24 19/33/19
f 20/42/40 14/34/38 19/33/19
f 25/41/25 20/42/40 19/33/19
f 26/44/26 27/43/27 21/35/21
f 20/36/20 26/44/26 21/35/21
f 27/43/27 28/45/28 22/37/22
f 21/35/21 27/43/27 22/37/22
f 28/45/28 29/46/29 23/38/23
f 22/37/22 28/45/28 23/38/23
f 29/48/41 30/47/30 24/39/24
f 23/40/39 29/48/41 24/39/24
f 30/47/30 31/49/31 25/41/25
f 24/39/24 30/47/30 25/41/25
f 31/49/31 26/50/42 20/42/40
f 25/41/25 31/49/31 20/42/40
# 54 elements

