# Created by 3DAce v2.72


g
v 0.447998 -0.051864 -9.090717
v 0.043496 0.076151 -9.090717
v -0.073913 -0.051864 -9.090717
v 0.000001 0.076151 -0.209608
v 0.073914 -0.051864 -0.209608
v -0.073913 -0.051864 -0.209608
v 0.073914 -0.051864 -2.482526
v 0.000001 0.076151 -2.482526
v -0.073913 -0.051864 -2.542854
v 0.447998 -0.051864 -2.542854
v 0.043496 0.076151 -2.542854
# 11 vertices

vt 0.819690 0.602650
vt 0.825150 0.597100
vt 0.819690 0.579270
vt 0.819690 0.602650
vt 0.454180 0.599790
vt 0.549750 0.599790
vt 0.454180 0.602650
vt 0.454180 0.599790
vt 0.549750 0.599790
vt 0.552380 0.602650
vt 0.454180 0.602650
vt 0.549750 0.599790
vt 0.454180 0.602650
vt 0.552380 0.602650
vt 0.454180 0.597100
vt 0.454180 0.602650
vt 0.552380 0.602650
vt 0.549750 0.597100
vt 0.454180 0.597100
vt 0.552380 0.602650
vt 0.454180 0.597100
vt 0.549750 0.597100
vt 0.454180 0.599790
vt 0.454180 0.597100
vt 0.549750 0.597100
vt 0.549750 0.599790
vt 0.454180 0.599790
vt 0.549750 0.597100
vt 0.819690 0.602650
vt 0.552380 0.602650
vt 0.819690 0.598650
vt 0.819690 0.602650
vt 0.552380 0.602650
vt 0.552380 0.598650
vt 0.819690 0.598650
vt 0.552380 0.602650
vt 0.819690 0.579270
vt 0.552380 0.579270
vt 0.819690 0.602650
vt 0.819690 0.579270
vt 0.552380 0.579270
vt 0.552380 0.602650
vt 0.819690 0.602650
vt 0.552380 0.579270
vt 0.549750 0.597100
vt 0.552380 0.602650
vt 0.552380 0.579270
vt 0.549750 0.597100
vt 0.819690 0.598650
vt 0.552380 0.598650
vt 0.819690 0.579270
vt 0.819690 0.598650
vt 0.552380 0.598650
vt 0.552380 0.579270
vt 0.819690 0.579270
vt 0.552380 0.598650
vt 0.549750 0.599790
vt 0.549750 0.597100
vt 0.552380 0.598650
vt 0.549750 0.599790
vt 0.549750 0.597100
vt 0.552380 0.579270
vt 0.552380 0.598650
vt 0.549750 0.597100
vt 0.549750 0.599790
vt 0.552380 0.598650
vt 0.552380 0.602650
vt 0.549750 0.599790
# 68 texture vertices

vn -0.000000 0.000000 -1.000000
vn -0.000000 0.000000 -1.000000
vn -0.000000 0.000000 -1.000000
vn -0.000000 0.000000 -1.000000
vn -0.866012 0.500023 0.000000
vn -0.819804 0.549419 -0.161433
vn -0.866012 0.500023 0.000000
vn -0.866012 0.500023 0.000000
vn -0.819804 0.549419 -0.161433
vn -0.768097 0.628893 -0.120506
vn -0.866012 0.500023 0.000000
vn -0.819804 0.549419 -0.161433
vn -0.000000 -1.000000 0.000000
vn 0.000000 -1.000000 0.000000
vn 0.000000 -1.000000 0.000000
vn -0.000000 -1.000000 0.000000
vn 0.000000 -1.000000 0.000000
vn 0.000000 -1.000000 0.000000
vn 0.000000 -1.000000 0.000000
vn 0.000000 -1.000000 0.000000
vn 0.866015 0.500018 -0.000000
vn 0.851421 0.491591 0.182812
vn 0.866015 0.500018 0.000000
vn 0.866015 0.500018 -0.000000
vn 0.851421 0.491591 0.182812
vn 0.832510 0.480672 0.275467
vn 0.866015 0.500018 0.000000
vn 0.851421 0.491591 0.182812
vn -0.736977 0.675918 0.000000
vn -0.768097 0.628893 -0.120506
vn -0.736977 0.675918 0.000000
vn -0.736977 0.675918 0.000000
vn -0.768097 0.628893 -0.120506
vn -0.715111 0.655864 -0.241783
vn -0.736977 0.675918 0.000000
vn -0.768097 0.628893 -0.120506
vn 0.000000 -1.000000 0.000000
vn 0.000000 -1.000000 0.000000
vn 0.000000 -1.000000 0.000000
vn 0.000000 -1.000000 0.000000
vn 0.000000 -1.000000 0.000000
vn 0.000000 -1.000000 0.000000
vn 0.000000 -1.000000 0.000000
vn 0.000000 -1.000000 0.000000
vn 0.000000 -1.000000 0.000000
vn 0.000000 -1.000000 0.000000
vn 0.000000 -1.000000 0.000000
vn 0.000000 -1.000000 0.000000
vn 0.301726 0.953395 0.000000
vn 0.488451 0.850903 0.193337
vn 0.301726 0.953395 0.000000
vn 0.301726 0.953395 0.000000
vn 0.488451 0.850903 0.193337
vn 0.301726 0.953395 -0.000000
vn 0.301726 0.953395 0.000000
vn 0.488451 0.850903 0.193337
vn 0.832510 0.480672 0.275467
vn 0.743600 0.534028 0.402334
vn 0.428857 0.805508 0.408948
vn 0.832510 0.480672 0.275467
vn 0.467055 0.465313 0.751893
vn 0.142228 0.449411 0.881930
vn 0.467055 0.465313 0.751893
vn 0.467055 0.465313 0.751893
vn -0.819804 0.549419 -0.161433
vn -0.715111 0.655864 -0.241783
vn -0.768097 0.628893 -0.120506
vn -0.819804 0.549419 -0.161433
# 68 vertex normals

g ka27
f 3/1/1 2/2/2 1/3/3
f 4/5/5 8/6/6 6/7/7
f 8/9/9 9/10/10 6/11/11
f 6/13/13 9/14/14 5/15/15
f 9/17/17 7/18/18 5/19/19
f 5/21/21 7/22/22 4/23/23
f 7/25/25 8/26/26 4/27/27
f 3/29/29 9/30/30 2/31/31
f 9/33/33 11/34/34 2/35/35
f 1/37/37 10/38/38 3/39/39
f 10/41/41 9/42/42 3/43/43
f 7/45/45 9/46/46 10/47/47
f 2/49/49 11/50/50 1/51/51
f 11/53/53 10/54/54 1/55/55
f 8/57/57 7/58/58 11/59/59
f 7/61/61 10/62/62 11/63/63
f 8/65/65 11/66/66 9/67/67
# 17 elements

