# Created by Metasequoia

v 0.164532 0.119807 4.923665
v 0.164532 0.318199 4.924159
v 0.164532 0.417153 5.096190
v 0.164532 0.317666 5.267939
v 0.164532 0.119282 5.267629
v 0.164532 0.020327 5.095596
v -0.000399 0.086424 4.865899
v -0.000399 0.346278 4.875695
v -0.000399 0.473164 5.096286
v -0.000399 0.345577 5.316464
v -0.000399 0.091103 5.316054
v -0.000399 -0.035783 5.095466
v -0.165189 0.119884 4.923496
v -0.165189 0.318199 4.924159
v -0.165189 0.417153 5.096190
v -0.165189 0.317687 5.267969
v -0.165189 0.119384 5.267679
v -0.165189 0.020427 5.095639
# 18 vertices

vt 0.14653 0.14639
vt 0.13076 0.17354
vt 0.14642 0.20065
vt 0.17777 0.20070
vt 0.19349 0.17359
vt 0.17787 0.14644
vt 0.05396 0.14714
vt 0.05406 0.20066
vt 0.06948 0.17389
vt 0.02315 0.20070
vt 0.02305 0.14718
vt 0.00764 0.17396
vt 0.12466 0.25986
vt 0.09913 0.25236
vt 0.09913 0.28649
vt 0.12466 0.28645
vt 0.12541 0.21464
vt 0.09985 0.21031
vt 0.09985 0.24974
vt 0.12541 0.24539
vt 0.12593 0.17316
vt 0.10001 0.17318
vt 0.10001 0.20778
vt 0.12593 0.20015
vt 0.12593 0.14614
vt 0.10001 0.13851
vt 0.12553 0.10202
vt 0.10001 0.09769
vt 0.10001 0.13705
vt 0.12553 0.13273
vt 0.12466 0.31305
vt 0.09913 0.32058
vt 0.07363 0.25986
vt 0.07363 0.28644
vt 0.07431 0.21464
vt 0.07431 0.24539
vt 0.07411 0.17316
vt 0.07411 0.20015
vt 0.07411 0.14615
vt 0.07452 0.10204
vt 0.07452 0.13274
vt 0.07363 0.31304
# 42 texture vertices

vn 1.00000 0.00000 0.00000
vn -0.00005 -0.49844 -0.86693
vn 0.06661 0.60696 -0.79193
vn -0.00016 1.00000 0.00158
vn -0.00010 0.49866 0.86680
vn -0.00001 -0.50132 0.86526
vn -0.06727 -0.98968 0.12649
vn -1.00000 0.00000 0.00000
vn 0.33463 0.32362 -0.88504
vn 0.37500 -0.46207 -0.80366
vn 0.31635 0.93183 -0.17783
vn 0.31627 0.61995 0.71808
vn 0.31636 -0.31191 0.89590
vn 0.33538 -0.94204 0.00963
vn -0.33475 0.48223 -0.80957
vn -0.37475 -0.46196 -0.80383
vn -0.31645 0.93125 0.18066
vn -0.31619 0.30922 0.89688
vn -0.31695 -0.62196 0.71604
vn -0.33573 -0.92739 -0.16504
# 20 normal vertices

f 14/3/8 13/2/8 18/1/8
f 17/6/8 16/5/8 15/4/8
f 1/9/1 2/8/1 6/7/1
f 4/12/1 5/11/1 3/10/1
f 7/15/2 8/14/3 2/13/9
f 1/16/10 7/15/2 2/13/9
f 8/19/3 9/18/4 3/17/11
f 2/20/9 8/19/3 3/17/11
f 9/23/4 10/22/5 4/21/12
f 3/24/11 9/23/4 4/21/12
f 10/22/5 11/26/6 5/25/13
f 4/21/12 10/22/5 5/25/13
f 11/29/6 12/28/7 6/27/14
f 5/30/13 11/29/6 6/27/14
f 7/15/2 1/16/10 6/31/14
f 12/32/7 7/15/2 6/31/14
f 14/33/15 8/14/3 7/15/2
f 13/34/16 14/33/15 7/15/2
f 14/36/15 15/35/17 9/18/4
f 8/19/3 14/36/15 9/18/4
f 15/38/17 16/37/18 10/22/5
f 9/23/4 15/38/17 10/22/5
f 16/37/18 17/39/19 11/26/6
f 10/22/5 16/37/18 11/26/6
f 17/41/19 18/40/20 12/28/7
f 11/29/6 17/41/19 12/28/7
f 18/42/20 13/34/16 7/15/2
f 12/32/7 18/42/20 7/15/2
f 14/3/8 18/1/8 17/6/8
f 15/4/8 14/3/8 17/6/8
f 5/11/1 6/7/1 2/8/1
f 3/10/1 5/11/1 2/8/1
# 32 elements

