# Created by Metasequoia

v 0.000190 2.353475 0.092343
v 0.081465 2.353475 0.045419
v 0.081465 2.353475 -0.048429
v 0.000190 2.353475 -0.095354
v -0.081085 2.353475 -0.048429
v -0.081085 2.353475 0.045419
v 0.080978 3.691344 0.045058
v 0.000105 3.691344 0.091749
v 0.080978 3.691344 -0.048324
v 0.000105 3.691344 -0.095016
v -0.080766 3.691344 -0.048324
v -0.080766 3.691344 0.045058
v 0.160935 2.662064 -0.092691
v 0.160935 2.662064 0.094094
v -0.000729 2.662064 0.187876
v -0.162551 2.662064 0.094262
v -0.162551 2.662064 -0.092526
v -0.001026 2.662064 -0.185740
v 0.160953 2.775484 -0.092609
v 0.160953 2.775484 0.094177
v -0.000759 2.775484 0.187766
v -0.162551 2.775484 0.094262
v -0.162551 2.775484 -0.092526
v -0.000907 2.775484 -0.185828
v 0.133680 3.044193 -0.076899
v 0.133680 3.044193 0.078411
v -0.000741 3.044193 0.156390
v -0.135294 3.044195 0.078549
v -0.135294 3.044195 -0.076762
v -0.000988 3.044193 -0.154267
v 0.133696 2.913775 -0.076830
v 0.133696 2.913775 0.078480
v -0.000766 2.913775 0.156296
v -0.135294 2.913775 0.078549
v -0.135294 2.913775 -0.076762
v -0.000889 2.913775 -0.154341
v 0.112139 3.268112 -0.064418
v 0.112139 3.268112 0.066015
v -0.000750 3.268112 0.131503
v -0.113750 3.268111 0.066132
v -0.113750 3.268111 -0.064302
v -0.000957 3.268112 -0.129393
v 0.112152 3.619983 -0.064360
v 0.112152 3.619983 0.066073
v -0.000771 3.619983 0.131425
v -0.113750 3.619983 0.066132
v -0.113750 3.619983 -0.064302
v -0.000875 3.619983 -0.129455
v 0.112137 3.651705 -0.064394
v 0.112137 3.651705 0.066040
v -0.000753 3.651705 0.131528
v -0.113753 3.651705 0.066156
v -0.113753 3.651705 -0.064278
v -0.000961 3.651705 -0.129369
v 0.162574 3.756041 -0.093538
v 0.162574 3.756041 0.095121
v -0.000759 3.756041 0.189647
v -0.164172 3.756041 0.095206
v -0.164172 3.756041 -0.093454
v -0.000909 3.756041 -0.187691
v 0.127931 2.699899 0.008214
v 0.215884 2.699899 0.009433
v 0.131440 3.736902 0.008418
v 0.219392 3.736902 0.009637
v -0.061891 2.699899 0.118719
v -0.106122 2.699899 0.194739
v -0.063791 3.736902 0.121675
v -0.108021 3.736902 0.197694
v -0.058905 2.699899 -0.118175
v -0.107110 2.699899 -0.191539
v -0.060700 3.736902 -0.121189
v -0.108904 3.736902 -0.194552
v -1.825559 2.944869 -0.122202
v -6.941032 2.920681 -0.522649
v -0.009239 2.944869 0.126843
v -7.047058 2.919318 -0.184263
v -6.570234 2.920681 -0.365369
v -6.578858 2.910663 0.123841
v -0.009121 2.944869 -0.118001
v -1.812617 2.920681 -0.362421
v -1.818823 3.013292 -0.123714
v -0.002538 3.013296 0.125316
v -7.040872 2.966015 -0.185534
v -6.572753 2.969949 0.122557
v -0.002429 3.013296 -0.119512
v 0.889762 2.944869 1.594643
v 3.379224 2.920681 6.081331
v 0.094955 2.944869 -0.057399
v 3.719914 2.919318 5.982978
v 3.305720 2.920681 5.685323
v 3.718421 2.910663 5.422505
v -0.109281 2.944869 0.077642
v 0.682307 2.920681 1.716436
v 0.884784 3.013292 1.589861
v 0.089982 3.013296 -0.062141
v 3.715440 2.966015 5.978518
v 3.713979 2.969949 5.418124
v -0.114235 3.013296 0.072894
v 1.080271 2.944869 -1.471828
v 4.130593 2.920681 -5.597703
v -0.093411 2.944869 -0.063506
v 3.899816 2.919318 -5.866931
v 3.800727 2.920681 -5.366597
v 3.390433 2.910663 -5.633149
v 0.114163 2.944869 0.066338
v 1.277127 2.920681 -1.333559
v 1.077984 3.013292 -1.465314
v -0.095668 3.013296 -0.057015
v 3.897616 2.966015 -5.861011
v 3.388287 2.969949 -5.627294
v 0.111898 3.013296 0.072813
# 111 vertices

vt 0.17726 0.39700
vt 0.17064 0.39320
vt 0.16404 0.39701
vt 0.16404 0.40464
vt 0.17066 0.40847
vt 0.17726 0.40464
vt 0.17727 0.40460
vt 0.16405 0.40460
vt 0.17066 0.40841
vt 0.16405 0.39697
vt 0.17727 0.39697
vt 0.17067 0.39314
vt 0.17518 0.42296
vt 0.16423 0.42296
vt 0.16969 0.42612
vt 0.16423 0.41663
vt 0.17518 0.41664
vt 0.16970 0.41346
vt 0.17523 0.41670
vt 0.16975 0.41354
vt 0.16427 0.41670
vt 0.16427 0.42303
vt 0.16975 0.42620
vt 0.17523 0.42302
vt 0.15631 0.37988
vt 0.15209 0.37747
vt 0.14788 0.37989
vt 0.14788 0.38476
vt 0.15210 0.38719
vt 0.15631 0.38475
vt 0.15638 0.38474
vt 0.14796 0.38474
vt 0.15217 0.38717
vt 0.14796 0.37988
vt 0.15638 0.37988
vt 0.15218 0.37744
vt 0.15700 0.41719
vt 0.15273 0.41473
vt 0.14847 0.41719
vt 0.14847 0.42211
vt 0.15274 0.42459
vt 0.15700 0.42210
vt 0.15863 0.40739
vt 0.14544 0.40738
vt 0.15203 0.41118
vt 0.14544 0.39977
vt 0.15863 0.39977
vt 0.15204 0.39596
vt 0.12783 0.36262
vt 0.12420 0.36262
vt 0.12419 0.42250
vt 0.12781 0.42250
vt 0.13199 0.36262
vt 0.12779 0.36262
vt 0.12780 0.42250
vt 0.13198 0.42250
vt 0.12429 0.36262
vt 0.12065 0.36262
vt 0.12067 0.42250
vt 0.12429 0.42250
vt 0.12793 0.36262
vt 0.12791 0.42250
vt 0.13208 0.36262
vt 0.12788 0.36262
vt 0.12789 0.42250
vt 0.13207 0.42250
vt 0.12056 0.36262
vt 0.12057 0.42250
vt 0.20296 0.39695
vt 0.20296 0.40202
vt 0.21132 0.40202
vt 0.21132 0.39695
vt 0.19573 0.39693
vt 0.19573 0.40201
vt 0.20297 0.40201
vt 0.20296 0.39693
vt 0.18848 0.39693
vt 0.18848 0.40201
vt 0.18022 0.39689
vt 0.18022 0.40197
vt 0.18858 0.40197
vt 0.18858 0.39689
vt 0.21859 0.39699
vt 0.21858 0.40207
vt 0.22582 0.40207
vt 0.22582 0.39699
vt 0.21134 0.39699
vt 0.21134 0.40207
vt 0.19921 0.41751
vt 0.19226 0.41751
vt 0.19226 0.42335
vt 0.19921 0.42335
vt 0.19223 0.41750
vt 0.18621 0.41750
vt 0.18621 0.42334
vt 0.19223 0.42334
vt 0.18019 0.41750
vt 0.18019 0.42334
vt 0.21839 0.41751
vt 0.21145 0.41751
vt 0.21145 0.42335
vt 0.21839 0.42335
vt 0.21135 0.41749
vt 0.20533 0.41749
vt 0.20534 0.42332
vt 0.21135 0.42332
vt 0.19931 0.41749
vt 0.19931 0.42332
vt 0.17275 0.37352
vt 0.17275 0.38927
vt 0.17859 0.38927
vt 0.17859 0.37352
vt 0.16770 0.37357
vt 0.16770 0.38932
vt 0.17275 0.38932
vt 0.17275 0.37357
vt 0.16264 0.37357
vt 0.16264 0.38932
vt 0.18876 0.37354
vt 0.18876 0.38929
vt 0.19459 0.38929
vt 0.19459 0.37354
vt 0.18368 0.37352
vt 0.18367 0.38927
vt 0.18873 0.38927
vt 0.18873 0.37352
vt 0.17861 0.37352
vt 0.17861 0.38927
vt 0.20297 0.40694
vt 0.20167 0.41161
vt 0.21012 0.41161
vt 0.20881 0.40694
vt 0.18603 0.40695
vt 0.18603 0.41162
vt 0.19334 0.41162
vt 0.19108 0.40695
vt 0.18097 0.40695
vt 0.17871 0.41162
vt 0.19469 0.40691
vt 0.19338 0.41158
vt 0.20183 0.41158
vt 0.20052 0.40691
vt 0.21731 0.40688
vt 0.21730 0.41155
vt 0.22461 0.41155
vt 0.22236 0.40688
vt 0.21225 0.40688
vt 0.20999 0.41155
vt 0.14190 0.37610
vt 0.13707 0.37610
vt 0.13723 0.42251
vt 0.14205 0.42251
vt 0.14190 0.37612
vt 0.13708 0.37612
vt 0.13693 0.42253
vt 0.14174 0.42253
vt 0.10326 0.45507
vt 0.10298 0.46594
vt 0.10357 0.45500
vt 0.39122 0.47347
vt 0.39582 0.45795
vt 0.39610 0.45790
vt 0.01987 0.45481
vt 0.01988 0.44366
vt 0.37454 0.44379
vt 0.37415 0.46608
vt 0.39123 0.47324
vt 0.39612 0.45783
vt 0.39579 0.43558
vt 0.37454 0.43285
vt 0.39609 0.43343
vt 0.37424 0.43557
vt 0.02018 0.43133
vt 0.01984 0.43448
vt 0.01972 0.44826
vt 0.10366 0.45141
vt 0.02003 0.45141
vt 0.10335 0.44826
vt 0.01988 0.44364
vt 0.37427 0.44377
vt 0.01987 0.45491
vt 0.10350 0.45511
vt 0.10321 0.46610
vt 0.37415 0.46623
vt 0.02296 0.44826
vt 0.10690 0.45141
vt 0.02327 0.45141
vt 0.10659 0.44826
# 188 texture vertices

vn 0.50000 0.00042 0.86603
vn 0.50000 0.00042 0.86603
vn 1.00000 0.00036 0.00000
vn 0.50000 0.00025 -0.86602
vn -0.50001 0.00019 -0.86602
vn -1.00000 0.00024 0.00000
vn 0.49999 0.00042 0.86603
vn 1.00000 0.00036 0.00000
vn 0.50000 0.00025 -0.86603
vn -0.50001 0.00019 -0.86602
vn -1.00000 0.00024 0.00000
vn 0.00000 -1.00000 0.00000
vn 0.00000 1.00000 0.00000
vn 0.00001 1.00000 -0.00001
vn 0.00001 1.00000 0.00000
vn 0.00001 1.00000 0.00001
vn 0.00001 1.00000 0.00001
vn 0.00001 1.00000 -0.00000
vn 0.00001 1.00000 -0.00001
vn 0.00000 -1.00000 -0.00000
vn 0.00000 -1.00000 0.00000
vn 0.00000 -1.00000 0.00001
vn 0.00000 -1.00000 0.00000
vn 0.00000 -1.00000 -0.00000
vn 0.00000 -1.00000 -0.00001
vn 0.00000 1.00000 0.00000
vn -0.01386 -0.00015 0.99990
vn -0.01386 -0.00015 0.99990
vn -0.01386 -0.00015 0.99990
vn -0.86434 -0.00015 -0.50290
vn -0.86434 -0.00015 -0.50290
vn -0.86434 -0.00015 -0.50290
vn 0.83573 -0.00015 -0.54913
vn 0.83574 -0.00015 -0.54913
vn 0.83574 -0.00015 -0.54913
vn 0.99333 -0.09639 0.06322
vn -0.94778 0.11748 -0.29649
vn 0.00261 -0.99982 -0.01904
vn 0.00491 -0.99979 0.01986
vn 0.00171 -0.99976 -0.02173
vn -0.00057 0.02237 0.99975
vn -0.19041 0.04108 0.98085
vn 0.00231 -0.02231 -0.99975
vn -0.49554 -0.09638 -0.86322
vn 0.27587 0.11754 0.95398
vn -0.01732 -0.99982 0.00833
vn 0.01386 -0.99979 -0.01506
vn -0.01906 -0.99976 0.01056
vn 0.83399 0.02240 -0.55132
vn 0.92300 0.04111 -0.38259
vn -0.83495 -0.02230 0.54987
vn -0.58000 -0.09639 0.80889
vn 0.75369 0.11749 -0.64664
vn 0.01476 -0.99982 0.01230
vn -0.01945 -0.99979 -0.00636
vn 0.01752 -0.99976 0.01297
vn -0.84754 0.02235 -0.53027
vn -0.73090 0.04105 -0.68125
vn 0.84661 -0.02231 0.53175
vn 0.50001 0.00025 -0.86602
vn -0.50001 0.00019 -0.86602
vn -0.50000 0.00035 0.86603
vn -0.50000 0.00035 0.86603
vn -0.50000 0.00035 0.86602
vn 1.00000 -0.00016 0.00000
vn 0.50134 0.00013 0.86525
vn 0.50090 0.00097 0.86550
vn 0.50179 -0.00071 0.86499
vn -0.50056 0.00035 0.86570
vn -0.50075 0.00000 0.86559
vn -0.50037 0.00071 0.86581
vn -1.00000 0.00000 0.00000
vn -0.49987 -0.00007 -0.86610
vn -0.49991 -0.00015 -0.86608
vn -0.49983 0.00000 -0.86612
vn 0.49861 -0.00032 -0.86682
vn 0.49907 0.00055 -0.86656
vn 0.49815 -0.00120 -0.86709
vn 1.00000 0.00012 0.00000
vn 1.00000 0.00012 0.00000
vn 0.50134 -0.00010 0.86525
vn 0.50089 -0.00072 0.86551
vn 0.50179 0.00052 0.86499
vn -0.50056 -0.00026 0.86570
vn -0.50037 0.00000 0.86581
vn -0.50076 -0.00053 0.86559
vn -0.49986 0.00006 -0.86610
vn -0.49990 0.00011 -0.86608
vn -0.49982 0.00000 -0.86613
vn 0.49861 0.00024 -0.86682
vn 0.49907 -0.00040 -0.86656
vn 0.49815 0.00087 -0.86709
vn 1.00000 -0.00004 0.00000
vn 0.50134 0.00003 0.86525
vn 0.50090 0.00022 0.86551
vn 0.50179 -0.00016 0.86499
vn -0.50056 0.00008 0.86570
vn -0.50037 0.00000 0.86581
vn -0.50075 0.00016 0.86559
vn -0.49987 -0.00002 -0.86610
vn -0.49991 -0.00004 -0.86608
vn -0.49983 0.00000 -0.86613
vn 0.49861 -0.00007 -0.86682
vn 0.49907 0.00012 -0.86656
vn 0.49815 -0.00027 -0.86709
vn 0.82884 -0.48054 0.28655
vn 0.66366 -0.48025 0.57352
vn 0.82847 -0.48074 -0.28728
vn 0.66205 -0.48118 -0.57460
vn 0.00037 -0.48714 0.87332
vn 0.00029 -0.48663 0.87361
vn -0.75653 -0.48708 0.43637
vn -0.75651 -0.48697 0.43651
vn -0.82859 -0.48067 -0.28704
vn -0.66278 -0.48084 -0.57404
vn -0.16621 -0.48104 -0.86080
vn 0.16470 -0.48099 -0.86112
vn 0.01386 0.00015 -0.99990
vn 0.01386 0.00015 -0.99990
vn 0.01386 0.00015 -0.99990
vn 0.86434 0.00015 0.50290
vn 0.86434 0.00015 0.50290
vn 0.86434 0.00015 0.50290
vn -0.83574 0.00015 0.54913
vn -0.83573 0.00015 0.54913
vn -0.83574 0.00015 0.54913
vn 0.00283 -0.99994 0.01045
vn -0.00006 -0.99497 0.10018
vn -0.00225 -0.99990 -0.01423
vn -0.01313 -0.99988 -0.00814
vn -0.54737 0.08476 0.83259
vn -0.37931 0.06623 0.92290
vn -0.54600 0.09498 0.83238
vn -0.00057 0.02204 0.99976
vn 0.00231 -0.02230 -0.99975
vn 0.00231 -0.02232 -0.99975
vn -0.00660 0.99998 -0.00000
vn 0.00473 0.99674 -0.08057
vn -0.00350 0.99652 0.08334
vn -0.01434 0.99471 -0.10170
vn -0.01372 0.97227 -0.23347
vn 0.03594 0.99368 -0.10635
vn 0.05386 0.99255 -0.10924
vn 0.05025 0.99168 -0.11847
vn 0.00715 -0.99994 -0.00813
vn 0.08358 -0.99497 -0.05524
vn -0.01062 -0.99990 0.00973
vn 0.00046 -0.99988 0.01544
vn 0.99640 0.08478 -0.00310
vn 0.97894 0.06625 -0.19308
vn 0.99547 0.09498 -0.00412
vn 0.83400 0.02208 -0.55133
vn -0.83495 -0.02229 0.54987
vn -0.83495 -0.02232 0.54987
vn 0.00364 0.99998 0.00550
vn -0.06980 0.99674 0.04052
vn 0.07143 0.99652 -0.04307
vn -0.07690 0.99471 0.06809
vn -0.18711 0.97227 0.14031
vn -0.10852 0.99368 0.02873
vn -0.12083 0.99255 0.01538
vn -0.12653 0.99168 0.02349
vn -0.01036 -0.99994 -0.00314
vn -0.08493 -0.99497 -0.05314
vn 0.01326 -0.99990 0.00563
vn 0.01386 -0.99988 -0.00682
vn -0.41602 0.08475 -0.90540
vn -0.58166 0.06621 -0.81073
vn -0.41657 0.09500 -0.90413
vn -0.84754 0.02202 -0.53027
vn 0.84661 -0.02229 0.53175
vn 0.84661 -0.02233 0.53175
vn 0.00350 0.99998 -0.00559
vn 0.06582 0.99674 0.04671
vn -0.06882 0.99652 -0.04713
vn 0.09385 0.99471 0.04174
vn 0.20527 0.97227 0.11208
vn 0.07115 0.99368 0.08684
vn 0.06410 0.99255 0.10357
vn 0.07384 0.99168 0.10540
# 180 normal vertices

f 17/3/12 18/2/12 13/1/12
f 14/6/12 15/5/12 16/4/12
f 24/9/13 23/8/13 19/7/13
f 21/12/13 20/11/13 22/10/13
f 30/15/19 29/14/18 25/13/14
f 27/18/16 26/17/15 28/16/17
f 35/21/12 36/20/12 31/19/12
f 32/24/12 33/23/12 34/22/12
f 41/27/24 42/26/25 37/25/20
f 38/30/21 39/29/22 40/28/23
f 48/33/13 47/32/13 43/31/13
f 45/36/13 44/35/13 46/34/13
f 53/39/12 54/38/12 49/37/12
f 50/42/12 51/41/12 52/40/12
f 60/45/13 59/44/13 55/43/13
f 57/48/26 56/47/13 58/46/13
f 8/51/2 1/50/1 2/49/2
f 7/52/7 8/51/2 2/49/2
f 7/55/3 2/54/3 3/53/3
f 9/56/8 7/55/3 3/53/3
f 9/59/4 3/58/60 4/57/4
f 10/60/9 9/59/4 4/57/4
f 10/60/5 4/57/61 5/61/5
f 11/62/10 10/60/5 5/61/5
f 11/65/6 5/64/6 6/63/6
f 12/66/11 11/65/6 6/63/6
f 12/68/62 6/67/63 1/50/62
f 8/51/64 12/68/62 1/50/62
f 19/71/65 20/70/65 14/69/65
f 13/72/65 19/71/65 14/69/65
f 20/75/66 21/74/67 15/73/66
f 14/76/68 20/75/66 15/73/66
f 22/78/69 16/77/70 15/73/69
f 21/74/71 22/78/69 15/73/69
f 22/81/72 23/80/72 17/79/72
f 16/82/72 22/81/72 17/79/72
f 23/85/73 24/84/74 18/83/73
f 17/86/75 23/85/73 18/83/73
f 24/84/76 19/88/77 13/87/76
f 18/83/78 24/84/76 13/87/76
f 17/3/12 13/1/12 14/6/12
f 16/4/12 17/3/12 14/6/12
f 20/11/13 19/7/13 23/8/13
f 22/10/13 20/11/13 23/8/13
f 26/91/79 32/90/80 31/89/79
f 25/92/80 26/91/79 31/89/79
f 27/95/81 33/94/82 32/93/81
f 26/96/83 27/95/81 32/93/81
f 28/98/84 34/97/85 33/94/84
f 27/95/86 28/98/84 33/94/84
f 29/101/72 35/100/72 34/99/72
f 28/102/72 29/101/72 34/99/72
f 30/105/87 36/104/88 35/103/87
f 29/106/89 30/105/87 35/103/87
f 25/108/90 31/107/91 36/104/90
f 30/105/92 25/108/90 36/104/90
f 26/17/15 25/13/14 29/14/18
f 28/16/17 26/17/15 29/14/18
f 35/21/12 31/19/12 32/24/12
f 34/22/12 35/21/12 32/24/12
f 43/111/93 44/110/93 38/109/93
f 37/112/93 43/111/93 38/109/93
f 44/115/94 45/114/95 39/113/94
f 38/116/96 44/115/94 39/113/94
f 45/114/97 46/118/98 40/117/97
f 39/113/99 45/114/97 40/117/97
f 46/121/72 47/120/72 41/119/72
f 40/122/72 46/121/72 41/119/72
f 47/125/100 48/124/101 42/123/100
f 41/126/102 47/125/100 42/123/100
f 48/124/103 43/128/104 37/127/103
f 42/123/105 48/124/103 37/127/103
f 41/27/24 37/25/20 38/30/21
f 40/28/23 41/27/24 38/30/21
f 44/35/13 43/31/13 47/32/13
f 46/34/13 44/35/13 47/32/13
f 55/131/108 56/130/107 50/129/106
f 49/132/109 55/131/108 50/129/106
f 56/135/107 57/134/111 51/133/110
f 50/136/106 56/135/107 51/133/110
f 58/138/113 52/137/112 51/133/110
f 57/134/111 58/138/113 51/133/110
f 58/141/113 59/140/115 53/139/114
f 52/142/112 58/141/113 53/139/114
f 59/145/115 60/144/117 54/143/116
f 53/146/114 59/145/115 54/143/116
f 60/144/117 55/148/108 49/147/109
f 54/143/116 60/144/117 49/147/109
f 53/39/12 49/37/12 50/42/12
f 52/40/12 53/39/12 50/42/12
f 56/47/13 55/43/13 59/44/13
f 58/46/13 56/47/13 59/44/13
f 62/151/28 64/150/29 63/149/28
f 61/152/27 62/151/28 63/149/28
f 64/155/118 62/154/119 61/153/118
f 63/156/120 64/155/118 61/153/118
f 66/151/31 68/150/32 67/149/31
f 65/152/30 66/151/31 67/149/31
f 68/155/121 66/154/122 65/153/121
f 67/156/123 68/155/121 65/153/121
f 70/151/34 72/150/35 71/149/34
f 69/152/33 70/151/34 71/149/34
f 72/155/124 70/154/125 69/153/124
f 71/156/126 72/155/124 69/153/124
f 73/159/36 80/158/36 81/157/36
f 76/162/37 83/161/37 74/160/37
f 75/164/38 73/159/127 79/163/12
f 78/165/40 73/159/127 75/164/38
f 73/159/127 77/166/39 80/158/128
f 78/165/40 77/166/39 73/159/127
f 78/165/40 74/167/129 77/166/39
f 76/168/130 74/167/129 78/165/40
f 76/171/133 78/170/132 83/169/131
f 78/170/132 84/172/42 83/169/131
f 78/170/132 75/173/134 84/172/42
f 75/173/134 82/174/41 84/172/42
f 79/177/135 73/176/43 85/175/43
f 73/176/43 81/178/136 85/175/43
f 85/181/139 84/180/138 82/179/137
f 81/182/140 84/180/138 85/181/139
f 80/183/141 84/180/138 81/182/140
f 77/184/142 84/180/138 80/183/141
f 77/184/142 83/161/143 84/180/138
f 74/160/144 83/161/143 77/184/142
f 86/159/44 93/158/44 94/157/44
f 89/162/45 96/161/45 87/160/45
f 88/164/46 86/159/145 92/163/12
f 91/165/48 86/159/145 88/164/46
f 86/159/145 90/166/47 93/158/146
f 91/165/48 90/166/47 86/159/145
f 91/165/48 87/167/147 90/166/47
f 89/168/148 87/167/147 91/165/48
f 89/171/151 91/170/150 96/169/149
f 91/170/150 97/172/50 96/169/149
f 91/170/150 88/173/152 97/172/50
f 88/173/152 95/174/49 97/172/50
f 92/177/153 86/176/51 98/175/51
f 86/176/51 94/178/154 98/175/51
f 98/181/157 97/180/156 95/179/155
f 94/182/158 97/180/156 98/181/157
f 93/183/159 97/180/156 94/182/158
f 90/184/160 97/180/156 93/183/159
f 90/184/160 96/161/161 97/180/156
f 87/160/162 96/161/161 90/184/160
f 99/159/52 106/158/52 107/157/52
f 102/162/53 109/161/53 100/160/53
f 101/164/54 99/159/163 105/163/12
f 104/165/56 99/159/163 101/164/54
f 99/159/163 103/166/55 106/158/164
f 104/165/56 103/166/55 99/159/163
f 104/165/56 100/167/165 103/166/55
f 102/168/166 100/167/165 104/165/56
f 102/171/169 104/170/168 109/169/167
f 104/170/168 110/172/58 109/169/167
f 104/170/168 101/173/170 110/172/58
f 101/173/170 108/174/57 110/172/58
f 105/187/171 99/186/59 111/185/59
f 99/186/59 107/188/172 111/185/59
f 111/181/175 110/180/174 108/179/173
f 107/182/176 110/180/174 111/181/175
f 106/183/177 110/180/174 107/182/176
f 103/184/178 110/180/174 106/183/177
f 103/184/178 109/161/179 110/180/174
f 100/160/180 109/161/179 103/184/178
# 164 elements

