# Created by Metasequoia

v 0.283531 0.202209 4.307600
v 0.250431 0.129981 4.182031
v 0.250431 0.274834 4.182266
v 0.250431 0.347062 4.307834
v 0.250431 0.274429 4.433157
v 0.250431 0.129581 4.432927
v 0.250431 0.057352 4.307363
v 0.180657 0.093575 4.117626
v 0.180657 0.312615 4.119268
v 0.180657 0.420392 4.307981
v 0.180657 0.311007 4.496785
v 0.180657 0.092328 4.495015
v 0.180657 -0.015810 4.306480
v 0.187742 0.491372 4.388042
v 0.188171 0.491372 4.226105
v 0.236950 0.491372 4.388083
v 0.237466 0.491372 4.226129
v 0.187742 0.276541 4.388042
v 0.188171 0.276541 4.226105
v 0.236950 0.276541 4.388083
v 0.237466 0.276541 4.226129
v -0.283531 0.202209 4.307600
v -0.250431 0.129981 4.182031
v -0.250431 0.274834 4.182266
v -0.250431 0.347062 4.307834
v -0.250431 0.274429 4.433157
v -0.250431 0.129581 4.432927
v -0.250431 0.057352 4.307363
v -0.180592 0.093575 4.117626
v -0.180592 0.312615 4.119268
v -0.180592 0.420392 4.307981
v -0.180592 0.311007 4.496785
v -0.180592 0.092328 4.495015
v -0.180592 -0.015810 4.306480
v -0.187742 0.491372 4.388042
v -0.188171 0.491372 4.226105
v -0.236950 0.491372 4.388083
v -0.237466 0.491372 4.226129
v -0.187742 0.276541 4.388042
v -0.188171 0.276541 4.226105
v -0.236950 0.276541 4.388083
v -0.237466 0.276541 4.226129
# 42 vertices

vt 0.16509 0.29115
vt 0.17373 0.30616
vt 0.18241 0.29118
vt 0.15641 0.30614
vt 0.14777 0.29112
vt 0.15645 0.27614
vt 0.17377 0.27617
vt 0.17865 0.31501
vt 0.19259 0.29127
vt 0.15134 0.31488
vt 0.13767 0.29111
vt 0.15160 0.26742
vt 0.17891 0.26750
vt 0.19850 0.27973
vt 0.19850 0.31732
vt 0.22684 0.31732
vt 0.22684 0.27973
vt 0.22751 0.27967
vt 0.22751 0.31727
vt 0.23539 0.31727
vt 0.23539 0.27967
vt 0.19848 0.27973
vt 0.19848 0.31733
vt 0.22682 0.31733
vt 0.22682 0.27973
vt 0.22752 0.27967
vt 0.22752 0.31727
vt 0.17911 0.26033
vt 0.19287 0.23605
vt 0.17893 0.21207
vt 0.15109 0.21211
vt 0.13729 0.23642
vt 0.15127 0.26037
# 33 texture vertices

vn 1.00000 0.00000 0.00001
vn 0.88626 -0.23129 -0.40131
vn 0.85638 0.18734 -0.48116
vn 0.85610 0.51084 -0.07831
vn 0.85565 0.32433 0.40333
vn 0.83725 -0.27486 0.47273
vn 0.85560 -0.51138 -0.08021
vn 0.72630 -0.34193 -0.59630
vn 0.71882 0.45686 -0.52400
vn 0.71816 0.68299 0.13328
vn 0.71652 0.22510 0.66025
vn 0.72005 -0.34924 0.59964
vn 0.71695 -0.68467 0.13119
vn -1.00000 0.00000 -0.00265
vn 0.00049 0.00000 -1.00000
vn 0.99999 0.00000 0.00319
vn 0.99999 0.00000 0.00319
vn -1.00000 0.00000 0.00001
vn -0.88616 -0.23138 -0.40148
vn -0.85624 0.18742 -0.48138
vn -0.85596 0.51107 -0.07835
vn -0.85551 0.32448 0.40350
vn -0.83708 -0.27498 0.47295
vn -0.85546 -0.51161 -0.08026
vn -0.72598 -0.34210 -0.59659
vn -0.71849 0.45708 -0.52425
vn -0.71784 0.68332 0.13334
vn -0.71619 0.22521 0.66057
vn -0.71972 -0.34941 0.59993
vn -0.71662 -0.68500 0.13125
vn 1.00000 0.00000 -0.00265
vn -0.00049 0.00000 -1.00000
vn -0.99999 0.00000 0.00319
vn -0.99999 0.00000 0.00319
vn -0.00083 0.00000 1.00000
vn -1.00000 0.00000 0.00000
vn 0.00083 0.00000 1.00000
vn 1.00000 0.00000 0.00000
# 38 normal vertices

f 2/3/2 3/2/3 1/1/1
f 3/2/3 4/4/4 1/1/1
f 4/4/4 5/5/5 1/1/1
f 5/5/5 6/6/6 1/1/1
f 6/6/6 7/7/7 1/1/1
f 7/7/7 2/3/2 1/1/1
f 8/9/8 9/8/9 3/2/3
f 2/3/2 8/9/8 3/2/3
f 9/8/9 10/10/10 4/4/4
f 3/2/3 9/8/9 4/4/4
f 10/10/10 11/11/11 5/5/5
f 4/4/4 10/10/10 5/5/5
f 11/11/11 12/12/12 6/6/6
f 5/5/5 11/11/11 6/6/6
f 13/13/13 7/7/7 6/6/6
f 12/12/12 13/13/13 6/6/6
f 8/9/8 2/3/2 7/7/7
f 13/13/13 8/9/8 7/7/7
f 17/16/17 16/15/16 20/14/17
f 21/17/16 17/16/17 20/14/17
f 15/20/15 17/19/15 21/18/15
f 19/21/15 15/20/15 21/18/15
f 14/24/14 15/23/14 19/22/14
f 18/25/14 14/24/14 19/22/14
f 16/20/35 14/27/35 18/26/35
f 20/21/35 16/20/35 18/26/35
f 13/30/36 12/29/36 11/28/36
f 10/33/36 9/32/36 8/31/36
f 24/2/20 23/3/19 22/1/18
f 25/4/21 24/2/20 22/1/18
f 26/5/22 25/4/21 22/1/18
f 27/6/23 26/5/22 22/1/18
f 28/7/24 27/6/23 22/1/18
f 23/3/19 28/7/24 22/1/18
f 30/8/26 29/9/25 24/2/20
f 29/9/25 23/3/19 24/2/20
f 31/10/27 30/8/26 25/4/21
f 30/8/26 24/2/20 25/4/21
f 32/11/28 31/10/27 26/5/22
f 31/10/27 25/4/21 26/5/22
f 33/12/29 32/11/28 27/6/23
f 32/11/28 26/5/22 27/6/23
f 28/7/24 34/13/30 27/6/23
f 34/13/30 33/12/29 27/6/23
f 23/3/19 29/9/25 28/7/24
f 29/9/25 34/13/30 28/7/24
f 37/15/33 38/16/34 41/14/34
f 38/16/34 42/17/33 41/14/34
f 38/19/32 36/20/32 42/18/32
f 36/20/32 40/21/32 42/18/32
f 36/23/31 35/24/31 40/22/31
f 35/24/31 39/25/31 40/22/31
f 35/27/37 37/20/37 39/26/37
f 37/20/37 41/21/37 39/26/37
f 33/29/38 34/30/38 32/28/38
f 30/32/38 31/33/38 29/31/38
f 10/33/36 8/31/36 13/30/36
f 11/28/36 10/33/36 13/30/36
f 34/30/38 29/31/38 31/33/38
f 32/28/38 34/30/38 31/33/38
# 60 elements

