# Created by Metasequoia

v 0.043557 0.917045 1.942927
v 0.043557 0.836147 1.942927
v -0.045275 0.917045 1.942927
v -0.045275 0.836147 1.942927
v -0.045275 0.917045 2.833669
v -0.045275 0.836147 2.833669
v 0.043557 0.917045 2.833669
v 0.043557 0.836147 2.833669
# 8 vertices

vt 0.63914 0.79558
vt 0.63914 0.80541
vt 0.64994 0.80541
vt 0.64994 0.79558
vt 0.67058 0.91373
vt 0.68042 0.91373
vt 0.68042 0.80541
vt 0.67058 0.80541
vt 0.59759 0.78583
vt 0.59759 0.76477
vt 0.57447 0.76477
vt 0.57447 0.78583
vt 0.65978 0.80541
vt 0.64994 0.91373
vt 0.65978 0.91373
vt 0.63914 0.91373
# 16 texture vertices

vn -0.00000 -0.00000 -1.00000
vn -1.00000 0.00000 0.00000
vn 0.00000 0.00000 1.00000
vn 1.00000 0.00000 0.00000
vn 0.00000 1.00000 0.00000
vn 0.00000 1.00000 0.00000
vn 0.00000 -1.00000 0.00000
vn -0.00000 -1.00000 -0.00000
# 8 normal vertices

f 2/3/1 4/2/1 3/1/1
f 1/4/1 2/3/1 3/1/1
f 4/7/2 6/6/2 5/5/2
f 3/8/2 4/7/2 5/5/2
f 6/11/3 8/10/3 7/9/3
f 5/12/3 6/11/3 7/9/3
f 8/14/4 2/3/4 1/13/4
f 7/15/4 8/14/4 1/13/4
f 1/13/5 3/8/6 5/5/5
f 7/15/6 1/13/5 5/5/5
f 8/14/7 6/16/8 4/2/7
f 2/3/8 8/14/7 4/2/7
# 12 elements

