# Created by Metasequoia

v 0.039600 5.589000 4.079500
v 0.039600 5.507000 4.085000
v 0.039600 4.942900 -4.796300
v 0.039600 4.861100 -4.790700
v 0.290100 5.548200 4.082100
v 0.290100 4.902100 -4.793500
v -0.210800 5.548200 4.082100
v -0.210900 4.902100 -4.793500
v -0.053900 4.900100 -5.383800
v -0.053900 4.818500 -5.378300
v 0.063600 4.859400 -5.381000
v -0.171300 4.859400 -5.381000
# 12 vertices

vt 0.42185 0.98352
vt 0.44832 0.98729
vt 0.44832 0.97972
vt 0.47482 0.98352
vt 0.44052 0.61899
vt 0.44052 0.97386
vt 0.45153 0.61888
vt 0.45153 0.97375
vt 0.47355 0.61888
vt 0.46255 0.61877
vt 0.47355 0.97375
vt 0.46255 0.97364
vt 0.42952 0.97375
vt 0.42951 0.61888
vt 0.44158 0.59539
vt 0.43641 0.59550
vt 0.46149 0.59539
vt 0.46665 0.59528
vt 0.43125 0.59539
vt 0.47181 0.59539
# 20 texture vertices

vn -0.00000 0.06692 0.99776
vn 0.02824 0.99576 -0.08753
vn 0.02826 -0.99795 0.05739
vn 0.00054 0.06692 0.99776
vn 0.16213 -0.98545 0.05091
vn -0.00054 0.06692 0.99776
vn -0.21754 0.97356 -0.06968
vn -0.05617 0.99442 -0.08927
vn -0.05642 -0.99687 0.05537
vn 0.24624 -0.96912 0.01280
vn -0.32958 -0.94299 0.04632
vn 0.05459 -0.99588 0.07248
vn 0.16268 -0.98407 0.07164
vn -0.16113 0.98433 -0.07165
vn 0.05432 0.99589 -0.07249
vn 0.16106 0.98263 -0.09216
vn 0.16107 0.98434 -0.07166
vn -0.16232 -0.98414 0.07163
vn -0.21853 -0.97318 0.07189
vn 0.24504 0.96113 -0.12720
vn -0.32814 0.94029 -0.09046
# 21 normal vertices

f 2/3/1 1/2/1 7/1/6
f 2/3/1 5/4/4 1/2/1
f 6/7/5 2/6/12 4/5/3
f 6/7/5 5/8/13 2/6/12
f 7/11/14 3/10/2 8/9/7
f 7/11/14 1/12/15 3/10/2
f 1/12/15 6/7/16 3/10/2
f 1/12/15 5/8/17 6/7/16
f 8/14/19 4/5/3 7/13/18
f 4/5/3 2/6/12 7/13/18
f 4/5/3 10/16/9 11/15/10
f 6/7/5 4/5/3 11/15/10
f 3/10/2 6/7/16 11/17/20
f 9/18/8 3/10/2 11/17/20
f 8/14/19 12/19/11 10/16/9
f 4/5/3 8/14/19 10/16/9
f 8/9/7 3/10/2 9/18/8
f 12/20/21 8/9/7 9/18/8
# 18 elements

