# Created by Metasequoia

v 0.352500 6.371300 -18.077499
v 0.287800 6.312600 -17.922899
v 0.287800 6.371300 -18.077499
v 0.352500 4.279800 -18.809401
v 0.287800 4.221200 -18.654100
v 0.287800 6.371300 -18.077499
v 0.352500 6.371300 -18.077499
v 0.287800 6.312600 -17.922899
v 0.287800 4.221200 -18.654100
v 0.287800 4.279800 -18.809401
v 0.352500 4.279800 -18.809401
# 11 vertices

vt 0.53521 0.77228
vt 0.52032 0.77916
vt 0.53521 0.77916
vt 0.50870 0.77818
vt 0.49350 0.97524
vt 0.50866 0.97524
vt 0.49348 0.77821
vt 0.51149 0.78249
vt 0.51836 0.78249
vt 0.51836 0.77707
vt 0.51149 0.97608
vt 0.51836 0.97608
vt 0.53597 0.97461
vt 0.53599 0.78251
vt 0.52115 0.78249
vt 0.52119 0.97461
# 16 texture vertices

vn 0.00000 0.93488 0.35496
vn 0.93145 -0.12014 0.34346
vn 0.93169 -0.11989 0.34291
vn 0.00000 0.33030 -0.94388
vn -1.00000 0.00000 0.00000
vn 0.00000 -0.93561 -0.35304
vn 0.93122 -0.12038 0.34401
# 7 normal vertices

f 3/3/1 2/2/1 1/1/1
f 1/6/7 2/5/2 4/4/2
f 2/5/2 5/7/3 4/4/2
f 9/10/6 10/9/6 11/8/6
f 10/9/4 6/12/4 7/11/4
f 11/8/4 10/9/4 7/11/4
f 10/15/5 9/14/5 8/13/5
f 6/16/5 10/15/5 8/13/5
# 8 elements

