# Created by Metasequoia

v 0.286027 0.650779 1.109853
v 0.286027 0.282714 1.109853
v -0.286033 0.650779 1.109853
v -0.286033 0.282714 1.109853
v -0.286033 0.650779 1.296932
v -0.286033 0.282714 1.296932
v 0.286027 0.650779 1.296932
v 0.286027 0.282714 1.296932
# 8 vertices

vt 0.71882 0.12106
vt 0.71882 0.08800
vt 0.77140 0.08800
vt 0.77140 0.12106
vt 0.78903 0.08800
vt 0.78903 0.12106
vt 0.71882 0.13861
vt 0.77140 0.13861
vt 0.71882 0.07049
vt 0.77140 0.07049
# 10 texture vertices

vn -0.00000 -0.00000 -1.00000
vn -1.00000 0.00000 0.00000
vn 0.00000 0.00000 1.00000
vn 1.00000 0.00000 0.00000
vn 0.00000 1.00000 0.00000
vn 0.00000 -1.00000 0.00000
# 6 normal vertices

f 2/3/1 4/2/1 3/1/1
f 1/4/1 2/3/1 3/1/1
f 4/5/2 6/3/2 5/4/2
f 3/6/2 4/5/2 5/4/2
f 6/2/3 8/3/3 7/4/3
f 5/1/3 6/2/3 7/4/3
f 8/3/4 2/5/4 1/6/4
f 7/4/4 8/3/4 1/6/4
f 1/8/5 3/7/5 5/1/5
f 7/4/5 1/8/5 5/1/5
f 8/3/6 6/2/6 4/9/6
f 2/10/6 8/3/6 4/9/6
# 12 elements

