# Created by Metasequoia

v 0.225061 3.136333 -5.512936
v 0.000000 3.172568 -5.512936
v -0.095206 3.136333 -5.512936
v 0.000000 3.172568 -0.765090
v -0.044047 3.136219 -0.765090
v 0.042245 3.136217 -0.765090
v 0.225061 3.136333 -1.257846
v 0.000000 3.172568 -1.257846
v -0.095206 3.136333 -1.257846
v 0.000000 3.172568 -1.144477
v -0.044047 3.136219 -1.144477
v 0.042245 3.136217 -1.144477
v 0.225061 3.136333 -3.527324
v 0.000000 3.172568 -3.527324
v -0.095206 3.136333 -3.527324
# 15 vertices

vt 0.80271 0.01513
vt 0.80753 0.03390
vt 0.80271 0.04230
vt 0.42190 0.02938
vt 0.42190 0.03390
vt 0.45375 0.03390
vt 0.45375 0.02938
vt 0.42190 0.03864
vt 0.45375 0.03864
vt 0.46288 0.01512
vt 0.46288 0.04230
vt 0.80271 0.03390
vt 0.64452 0.01512
vt 0.64452 0.03390
vt 0.64452 0.04230
vt 0.46288 0.03390
# 16 texture vertices

vn 0.00000 0.00000 -1.00000
vn 0.65225 0.75801 0.00000
vn -0.00002 -1.00000 0.00000
vn 0.00000 -1.00000 -0.00051
vn -0.11611 0.99113 0.06465
vn -0.00001 -1.00000 -0.00051
vn -0.00002 -1.00000 -0.00050
vn 0.50621 0.85806 0.08650
vn 0.15895 0.98729 0.00000
vn -0.10184 0.99480 0.00000
vn 0.00000 -1.00000 0.00000
vn -0.00002 -1.00000 -0.00051
vn -0.63649 0.77128 0.00000
vn -0.57216 0.81915 0.04034
vn -0.63649 0.77128 0.00000
vn -0.01299 0.99992 0.00000
vn 0.15895 0.98729 0.00000
vn -0.35570 0.93460 0.00000
vn -0.35570 0.93460 0.00000
vn 0.15840 0.98382 0.08366
vn -0.35457 0.93161 0.07995
# 21 normal vertices

f 3/3/1 2/2/1 1/1/1
f 10/6/2 4/5/2 6/4/2
f 12/7/8 10/6/2 6/4/2
f 12/7/12 6/4/3 5/8/3
f 11/9/7 12/7/12 5/8/3
f 9/11/6 7/10/4 12/7/12
f 11/9/7 9/11/6 12/7/12
f 11/9/14 5/8/13 4/5/13
f 10/6/15 11/9/14 4/5/13
f 13/13/9 1/1/17 2/12/16
f 14/14/10 13/13/9 2/12/16
f 15/15/11 3/3/11 1/1/11
f 13/13/11 15/15/11 1/1/11
f 14/14/10 2/12/16 3/3/18
f 15/15/19 14/14/10 3/3/18
f 7/10/20 13/13/9 14/14/10
f 8/16/5 7/10/20 14/14/10
f 15/15/19 9/11/21 8/16/5
f 14/14/10 15/15/19 8/16/5
f 13/13/11 7/10/4 9/11/6
f 15/15/11 13/13/11 9/11/6
f 11/9/14 10/6/15 8/16/5
f 9/11/21 11/9/14 8/16/5
f 8/16/5 10/6/2 12/7/8
f 7/10/20 8/16/5 12/7/8
# 25 elements

