# Created by Metasequoia

v 0.299782 1.967841 -6.479849
v 0.279185 1.983764 -6.479849
v 0.279185 1.952566 -6.479846
v 0.279278 1.860439 -6.297430
v 0.299782 1.967841 -6.297430
v 0.279278 2.002255 -6.297430
v 0.299782 1.967841 -6.308268
v 0.279185 1.983764 -6.308268
v 0.279185 1.952566 -6.308268
v 0.279278 1.860439 -5.584789
v 0.299782 1.967841 -5.584789
v 0.279278 2.002261 -5.584789
v 0.299782 1.968775 -6.511862
v 0.279185 1.952852 -6.511862
v 0.279185 1.984050 -6.511865
v 0.279278 2.076176 -6.694281
v 0.299782 1.968774 -6.694280
v 0.279278 1.934361 -6.694280
v 0.299782 1.968775 -6.683442
v 0.279185 1.952852 -6.683442
v 0.279185 1.984049 -6.683444
v 0.279278 2.076177 -7.406922
v 0.299782 1.968774 -7.406923
v 0.279278 1.934355 -7.406923
# 24 vertices

vt 0.68931 0.09317
vt 0.69589 0.08648
vt 0.68931 0.06288
vt 0.54294 0.08648
vt 0.50980 0.08648
vt 0.50980 0.08273
vt 0.54294 0.08330
vt 0.50980 0.08972
vt 0.54294 0.08972
vt 0.54492 0.09317
vt 0.54492 0.06288
vt 0.68931 0.08648
vt 0.54492 0.08648
# 13 texture vertices

vn 0.59568 -0.80322 0.00000
vn -1.00000 0.00000 0.00000
vn -0.99999 0.00000 0.00429
vn 0.87838 0.37517 -0.29613
vn -0.99999 0.00000 0.00429
vn 0.00000 0.00000 1.00000
vn 0.59568 0.80322 0.00000
vn 0.59567 0.80323 -0.00000
vn -0.99999 -0.00000 -0.00429
vn 0.87837 -0.37518 0.29616
vn -0.99999 -0.00000 -0.00429
vn 0.59566 0.80323 -0.00003
vn -0.99999 -0.00000 -0.00429
vn 0.59566 0.80324 -0.00004
vn -0.00001 0.00001 -1.00000
vn -1.00000 0.00000 0.00000
vn 0.65826 0.73206 -0.17545
vn 0.61162 0.79115 0.00000
vn 0.61162 0.79115 0.00000
vn 0.93128 -0.17779 -0.31799
vn 0.98226 -0.18752 0.00000
vn 0.99883 0.04837 0.00000
vn 0.85910 0.51181 -0.00000
vn 0.80370 0.47885 -0.35322
vn 0.52003 -0.09928 -0.84836
vn -0.99999 -0.00000 -0.00429
vn 0.65825 -0.73206 0.17547
vn 0.61162 -0.79115 0.00000
vn 0.61162 -0.79115 0.00000
vn 0.61162 -0.79115 0.00004
vn 0.93127 0.17779 0.31801
vn 0.98226 0.18752 0.00000
vn 0.99883 -0.04837 0.00000
vn 0.85909 -0.51182 0.00000
vn 0.80370 -0.47886 0.35322
vn 0.59566 0.80324 -0.00008
vn 0.51995 0.09927 0.84841
# 37 normal vertices

f 10/3/6 11/2/6 12/1/6
f 3/6/1 1/5/1 7/4/1
f 3/6/1 7/4/1 9/7/1
f 2/8/2 3/6/16 9/7/3
f 2/8/2 9/7/3 8/9/5
f 9/7/3 4/11/3 6/10/3
f 9/7/3 6/10/3 8/9/5
f 1/5/18 2/8/18 8/9/17
f 1/5/18 8/9/17 7/4/19
f 11/12/22 10/3/21 4/11/20
f 11/12/22 4/11/20 5/13/4
f 5/13/4 6/10/24 12/1/23
f 5/13/4 12/1/23 11/12/22
f 6/10/3 4/11/3 10/3/2
f 6/10/3 10/3/2 12/1/2
f 5/13/4 7/4/19 8/9/17
f 5/13/4 8/9/17 6/10/24
f 9/7/1 7/4/1 5/13/1
f 9/7/25 5/13/4 4/11/20
f 22/3/15 23/2/15 24/1/15
f 15/6/8 13/5/7 19/4/12
f 15/6/8 19/4/12 21/7/14
f 14/8/2 15/6/2 21/7/26
f 14/8/2 21/7/26 20/9/13
f 21/7/26 16/11/9 18/10/11
f 21/7/26 18/10/11 20/9/13
f 13/5/29 14/8/28 20/9/27
f 13/5/29 20/9/27 19/4/30
f 23/12/33 22/3/32 16/11/31
f 23/12/33 16/11/31 17/13/10
f 17/13/10 18/10/35 24/1/34
f 17/13/10 24/1/34 23/12/33
f 18/10/11 16/11/9 22/3/2
f 18/10/11 22/3/2 24/1/2
f 17/13/10 19/4/30 20/9/27
f 17/13/10 20/9/27 18/10/35
f 21/7/14 19/4/12 17/13/36
f 21/7/37 17/13/10 16/11/31
# 38 elements

