# Created by Metasequoia

v 0.000000 2.218105 0.024404
v 0.014344 2.218105 0.019743
v 0.023209 2.218105 0.007541
v 0.023209 2.218105 -0.007541
v 0.014344 2.218105 -0.019743
v 0.000000 2.218105 -0.024404
v -0.014344 2.218105 -0.019743
v -0.023209 2.218105 -0.007541
v -0.023209 2.218105 0.007541
v -0.014344 2.218105 0.019743
v 0.000000 1.825107 0.024404
v 0.014344 1.825107 0.019743
v 0.023209 1.825107 0.007541
v 0.023209 1.825107 -0.007541
v 0.014344 1.825107 -0.019743
v 0.000000 1.825107 -0.024404
v -0.014344 1.825107 -0.019743
v -0.023209 1.825107 -0.007541
v -0.023209 1.825107 0.007541
v -0.014344 1.825107 0.019743
v 0.000000 1.813890 0.046419
v 0.027284 1.813890 0.037554
v 0.044147 1.813890 0.014344
v 0.044147 1.813890 -0.014344
v 0.027284 1.813890 -0.037553
v 0.000000 1.813890 -0.046419
v -0.027284 1.813890 -0.037553
v -0.044147 1.813890 -0.014344
v -0.044147 1.813890 0.014344
v -0.027284 1.813890 0.037554
v 0.000000 1.796419 0.063890
v 0.037554 1.796419 0.051688
v 0.060763 1.796419 0.019743
v 0.060763 1.796419 -0.019743
v 0.037554 1.796419 -0.051688
v 0.000000 1.796419 -0.063890
v -0.037554 1.796419 -0.051688
v -0.060763 1.796419 -0.019743
v -0.060763 1.796419 0.019743
v -0.037554 1.796419 0.051688
v 0.000000 1.774404 0.075107
v 0.044147 1.774404 0.060763
v 0.071431 1.774404 0.023210
v 0.071431 1.774404 -0.023209
v 0.044147 1.774404 -0.060763
v 0.000000 1.774404 -0.075107
v -0.044147 1.774404 -0.060763
v -0.071431 1.774404 -0.023209
v -0.071431 1.774404 0.023210
v -0.044147 1.774404 0.060763
v 0.000000 1.750000 0.078972
v 0.046419 1.750000 0.063890
v 0.075107 1.750000 0.024404
v 0.075107 1.750000 -0.024404
v 0.046419 1.750000 -0.063890
v 0.000000 1.750000 -0.078972
v -0.046419 1.750000 -0.063890
v -0.075107 1.750000 -0.024404
v -0.075107 1.750000 0.024404
v -0.046419 1.750000 0.063890
v 0.000000 2.248722 0.000000
v 0.000000 2.248722 0.047384
v 0.027851 2.248722 0.038334
v 0.045064 2.248722 0.014642
v 0.045064 2.248722 -0.014642
v 0.027851 2.248722 -0.038334
v 0.000000 2.248722 -0.047383
v -0.027851 2.248722 -0.038334
v -0.045064 2.248722 -0.014642
v -0.045064 2.248722 0.014642
v -0.027851 2.248722 0.038334
v 0.000000 2.217133 0.047384
v 0.027851 2.217133 0.038334
v 0.045064 2.217133 0.014642
v 0.045064 2.217133 -0.014642
v 0.027851 2.217133 -0.038334
v 0.000000 2.217133 -0.047383
v -0.027851 2.217133 -0.038334
v -0.045064 2.217133 -0.014642
v -0.045064 2.217133 0.014642
v -0.027851 2.217133 0.038334
v 0.000000 2.217133 0.000000
# 82 vertices

vt 0.70000 0.50000
vt 0.80000 0.50000
vt 0.90000 0.50000
vt 0.60000 0.50000
vt 0.00000 0.50000
vt 0.50000 0.50000
vt 0.10000 0.50000
vt 0.40000 0.50000
vt 0.20000 0.50000
vt 0.30000 0.50000
vt 0.00000 0.90000
vt 0.10000 0.90000
vt 0.20000 0.90000
vt 0.30000 0.90000
vt 0.40000 0.90000
vt 0.50000 0.90000
vt 0.60000 0.90000
vt 0.70000 0.90000
vt 0.80000 0.90000
vt 0.90000 0.90000
vt 0.05000 1.00000
vt 0.10000 1.00000
vt 0.00000 1.00000
vt 0.15000 1.00000
vt 0.20000 1.00000
vt 0.25000 1.00000
vt 0.30000 1.00000
vt 0.35000 1.00000
vt 0.40000 1.00000
vt 0.45000 1.00000
vt 0.50000 1.00000
vt 0.55000 1.00000
vt 0.60000 1.00000
vt 0.65000 1.00000
vt 0.70000 1.00000
vt 0.75000 1.00000
vt 0.80000 1.00000
vt 0.85000 1.00000
vt 0.90000 1.00000
vt 0.95000 1.00000
vt 1.00000 1.00000
vt 0.05000 0.00000
vt 0.00000 0.00000
vt 0.10000 0.00000
vt 0.15000 0.00000
vt 0.20000 0.00000
vt 0.25000 0.00000
vt 0.30000 0.00000
vt 0.35000 0.00000
vt 0.40000 0.00000
vt 0.45000 0.00000
vt 0.50000 0.00000
vt 0.55000 0.00000
vt 0.60000 0.00000
vt 0.65000 0.00000
vt 0.70000 0.00000
vt 0.75000 0.00000
vt 0.80000 0.00000
vt 0.85000 0.00000
vt 0.90000 0.00000
vt 0.95000 0.00000
vt 1.00000 0.00000
vt 0.10000 0.80000
vt 0.00000 0.80000
vt 0.20000 0.80000
vt 0.30000 0.80000
vt 0.40000 0.80000
vt 0.50000 0.80000
vt 0.60000 0.80000
vt 0.70000 0.80000
vt 0.80000 0.80000
vt 0.90000 0.80000
vt 1.00000 0.90000
vt 1.00000 0.80000
vt 0.10000 0.70000
vt 0.00000 0.70000
vt 0.20000 0.70000
vt 0.30000 0.70000
vt 0.40000 0.70000
vt 0.50000 0.70000
vt 0.60000 0.70000
vt 0.70000 0.70000
vt 0.80000 0.70000
vt 0.90000 0.70000
vt 1.00000 0.70000
vt 0.10000 0.60000
vt 0.00000 0.60000
vt 0.20000 0.60000
vt 0.30000 0.60000
vt 0.40000 0.60000
vt 0.50000 0.60000
vt 0.60000 0.60000
vt 0.70000 0.60000
vt 0.80000 0.60000
vt 0.90000 0.60000
vt 1.00000 0.60000
vt 1.00000 0.50000
# 97 texture vertices

vn -0.10768 0.00000 0.99419
vn 0.49727 0.00000 0.86759
vn 0.91226 0.00000 0.40962
vn 0.97880 0.00000 -0.20481
vn 0.67149 0.00000 -0.74101
vn 0.10768 0.00000 -0.99419
vn -0.49727 0.00000 -0.86759
vn -0.91226 0.00000 -0.40962
vn -0.97880 0.00000 0.20481
vn -0.67149 0.00000 0.74101
vn 0.10768 0.00000 0.99419
vn 0.67149 0.00000 0.74101
vn 0.97880 0.00000 0.20481
vn 0.91226 0.00000 -0.40962
vn 0.49727 0.00000 -0.86759
vn -0.10768 0.00000 -0.99419
vn -0.67149 0.00000 -0.74101
vn -0.97880 0.00000 -0.20481
vn -0.91226 0.00000 0.40962
vn -0.49727 0.00000 0.86759
vn -0.01340 0.80964 0.58677
vn 0.33405 0.80965 0.48258
vn 0.55390 0.80965 0.19406
vn 0.56219 0.80965 -0.16858
vn 0.35574 0.80965 -0.46682
vn -0.02151 0.79604 -0.60486
vn -0.35384 0.82749 -0.43595
vn -0.55390 0.80965 -0.19407
vn -0.56219 0.80965 0.16857
vn -0.35574 0.80965 0.46682
vn -0.00945 0.58869 0.80831
vn 0.46747 0.58869 0.65948
vn 0.76582 0.58869 0.25876
vn 0.77166 0.58869 -0.24079
vn 0.48276 0.58869 -0.64837
vn 0.05816 0.56183 -0.82520
vn -0.47513 0.58872 -0.65396
vn -0.76431 0.61330 -0.19922
vn -0.77166 0.58869 0.24079
vn -0.48275 0.58869 0.64838
vn -0.00485 0.30967 0.95083
vn 0.55496 0.30967 0.77209
vn 0.90280 0.30967 0.29843
vn 0.90579 0.30967 -0.28921
vn 0.56281 0.30967 -0.76639
vn 0.00485 0.30967 -0.95083
vn -0.56772 0.25904 -0.78140
vn -0.88755 0.35930 -0.28838
vn -0.90579 0.30967 0.28921
vn -0.56281 0.30967 0.76639
vn 0.00000 -1.00000 0.00000
vn 0.00000 1.00000 0.00000
vn 0.22679 0.88994 0.39570
vn -0.04911 0.88994 0.45343
vn 0.41606 0.88994 0.18682
vn 0.44641 0.88994 -0.09341
vn 0.30625 0.88994 -0.33797
vn 0.04912 0.88994 -0.45343
vn -0.22680 0.88993 -0.39570
vn -0.41606 0.88994 -0.18683
vn -0.44641 0.88994 0.09341
vn -0.30625 0.88994 0.33796
vn 0.66331 0.15554 0.73200
vn 0.10636 0.15554 0.98209
vn 0.96689 0.15554 0.20232
vn 0.90115 0.15555 -0.40464
vn 0.49120 0.15555 -0.85705
vn -0.10636 0.15554 -0.98209
vn -0.58055 0.15644 -0.79906
vn -0.93935 0.15644 -0.30521
vn -0.90115 0.15554 0.40464
vn -0.49120 0.15555 0.85705
vn 0.49727 0.00000 0.86760
vn 0.67149 0.00000 0.74101
vn 0.10768 0.00000 0.99419
vn -0.10768 0.00000 0.99419
vn 0.91225 0.00000 0.40962
vn 0.97880 0.00000 0.20481
vn 0.97880 0.00000 -0.20481
vn 0.91225 0.00000 -0.40962
vn 0.67148 0.00000 -0.74102
vn 0.49725 0.00000 -0.86761
vn 0.10767 0.00000 -0.99419
vn -0.10767 0.00000 -0.99419
vn -0.49725 0.00000 -0.86761
vn -0.67148 0.00000 -0.74102
vn -0.91225 0.00000 -0.40962
vn -0.97880 0.00000 -0.20481
vn -0.97880 0.00000 0.20481
vn -0.91225 0.00000 0.40962
vn -0.67149 0.00000 0.74101
vn -0.49727 0.00000 0.86760
# 92 normal vertices

f 60/3/51 59/2/51 58/1/51
f 58/1/51 57/4/51 60/3/51
f 51/5/51 60/3/51 57/4/51
f 57/4/51 56/6/51 51/5/51
f 56/6/51 52/7/51 51/5/51
f 56/6/51 55/8/51 52/7/51
f 54/10/51 53/9/51 52/7/51
f 52/7/51 55/8/51 54/10/51
f 2/12/2 1/11/1 11/11/11
f 2/12/2 11/11/11 12/12/12
f 12/12/12 13/13/13 3/13/3
f 3/13/3 2/12/2 12/12/12
f 13/13/13 14/14/14 4/14/4
f 4/14/4 3/13/3 13/13/13
f 14/14/14 15/15/15 5/15/5
f 5/15/5 4/14/4 14/14/14
f 6/16/6 15/15/15 16/16/16
f 6/16/6 5/15/5 15/15/15
f 7/17/7 16/16/16 17/17/17
f 7/17/7 6/16/6 16/16/16
f 17/17/17 18/18/18 8/18/8
f 8/18/8 7/17/7 17/17/17
f 10/20/10 9/19/9 19/19/19
f 20/20/20 1/11/1 10/20/10
f 20/20/20 11/11/11 1/11/1
f 19/19/19 20/20/20 10/20/10
f 9/19/9 18/18/18 19/19/19
f 9/19/9 8/18/8 18/18/18
f 62/23/52 63/22/52 61/21/52
f 63/22/52 64/25/52 61/24/52
f 64/25/52 65/27/52 61/26/52
f 65/27/52 66/29/52 61/28/52
f 66/29/52 67/31/52 61/30/52
f 67/31/52 68/33/52 61/32/52
f 68/33/52 69/35/52 61/34/52
f 69/35/52 70/37/52 61/36/52
f 70/37/52 71/39/52 61/38/52
f 71/39/52 62/41/52 61/40/52
f 73/44/51 72/43/51 82/42/51
f 74/46/51 73/44/51 82/45/51
f 75/48/51 74/46/51 82/47/51
f 76/50/51 75/48/51 82/49/51
f 77/52/51 76/50/51 82/51/51
f 78/54/51 77/52/51 82/53/51
f 79/56/51 78/54/51 82/55/51
f 80/58/51 79/56/51 82/57/51
f 81/60/51 80/58/51 82/59/51
f 72/62/51 81/60/51 82/61/51
f 21/64/21 22/63/22 12/12/53
f 11/11/54 21/64/21 12/12/53
f 22/63/22 23/65/23 13/13/55
f 12/12/53 22/63/22 13/13/55
f 23/65/23 24/66/24 14/14/56
f 13/13/55 23/65/23 14/14/56
f 24/66/24 25/67/25 15/15/57
f 14/14/56 24/66/24 15/15/57
f 25/67/25 26/68/26 16/16/58
f 15/15/57 25/67/25 16/16/58
f 26/68/26 27/69/27 17/17/59
f 16/16/58 26/68/26 17/17/59
f 27/69/27 28/70/28 18/18/60
f 17/17/59 27/69/27 18/18/60
f 28/70/28 29/71/29 19/19/61
f 18/18/60 28/70/28 19/19/61
f 29/71/29 30/72/30 20/20/62
f 19/19/61 29/71/29 20/20/62
f 30/72/30 21/74/21 11/73/54
f 20/20/62 30/72/30 11/73/54
f 31/76/31 32/75/32 22/63/22
f 21/64/21 31/76/31 22/63/22
f 32/75/32 33/77/33 23/65/23
f 22/63/22 32/75/32 23/65/23
f 33/77/33 34/78/34 24/66/24
f 23/65/23 33/77/33 24/66/24
f 34/78/34 35/79/35 25/67/25
f 24/66/24 34/78/34 25/67/25
f 35/79/35 36/80/36 26/68/26
f 25/67/25 35/79/35 26/68/26
f 37/81/37 27/69/27 26/68/26
f 36/80/36 37/81/37 26/68/26
f 37/81/37 38/82/38 28/70/28
f 27/69/27 37/81/37 28/70/28
f 38/82/38 39/83/39 29/71/29
f 28/70/28 38/82/38 29/71/29
f 39/83/39 40/84/40 30/72/30
f 29/71/29 39/83/39 30/72/30
f 40/84/40 31/85/31 21/74/21
f 30/72/30 40/84/40 21/74/21
f 41/87/41 42/86/42 32/75/32
f 31/76/31 41/87/41 32/75/32
f 42/86/42 43/88/43 33/77/33
f 32/75/32 42/86/42 33/77/33
f 43/88/43 44/89/44 34/78/34
f 33/77/33 43/88/43 34/78/34
f 44/89/44 45/90/45 35/79/35
f 34/78/34 44/89/44 35/79/35
f 45/90/45 46/91/46 36/80/36
f 35/79/35 45/90/45 36/80/36
f 46/91/46 47/92/47 37/81/37
f 36/80/36 46/91/46 37/81/37
f 48/93/48 38/82/38 37/81/37
f 47/92/47 48/93/48 37/81/37
f 48/93/48 49/94/49 39/83/39
f 38/82/38 48/93/48 39/83/39
f 49/94/49 50/95/50 40/84/40
f 39/83/39 49/94/49 40/84/40
f 50/95/50 41/96/41 31/85/31
f 40/84/40 50/95/50 31/85/31
f 51/5/64 52/7/63 42/86/42
f 41/87/41 51/5/64 42/86/42
f 52/7/63 53/9/65 43/88/43
f 42/86/42 52/7/63 43/88/43
f 53/9/65 54/10/66 44/89/44
f 43/88/43 53/9/65 44/89/44
f 54/10/66 55/8/67 45/90/45
f 44/89/44 54/10/66 45/90/45
f 55/8/67 56/6/68 46/91/46
f 45/90/45 55/8/67 46/91/46
f 56/6/68 57/4/69 47/92/47
f 46/91/46 56/6/68 47/92/47
f 58/1/70 48/93/48 47/92/47
f 57/4/69 58/1/70 47/92/47
f 58/1/70 59/2/71 49/94/49
f 48/93/48 58/1/70 49/94/49
f 59/2/71 60/3/72 50/95/50
f 49/94/49 59/2/71 50/95/50
f 60/3/72 51/97/64 41/96/41
f 50/95/50 60/3/72 41/96/41
f 72/43/75 73/44/74 63/22/73
f 62/23/76 72/43/75 63/22/73
f 73/44/74 74/46/78 64/25/77
f 63/22/73 73/44/74 64/25/77
f 74/46/78 75/48/80 65/27/79
f 64/25/77 74/46/78 65/27/79
f 75/48/80 76/50/82 66/29/81
f 65/27/79 75/48/80 66/29/81
f 76/50/82 77/52/84 67/31/83
f 66/29/81 76/50/82 67/31/83
f 77/52/84 78/54/86 68/33/85
f 67/31/83 77/52/84 68/33/85
f 78/54/86 79/56/88 69/35/87
f 68/33/85 78/54/86 69/35/87
f 79/56/88 80/58/90 70/37/89
f 69/35/87 79/56/88 70/37/89
f 80/58/90 81/60/92 71/39/91
f 70/37/89 80/58/90 71/39/91
f 81/60/92 72/62/75 62/41/76
f 71/39/91 81/60/92 62/41/76
# 148 elements

