# Created by Metasequoia

v -0.021459 2.233625 -0.025831
v -0.012499 2.226149 -0.025831
v -0.011804 2.239706 -0.025831
v 0.021459 2.227914 -0.025831
v -0.011804 2.239706 -0.316075
v 0.021459 2.227914 -0.316075
v -0.021459 2.233625 -0.316075
v -0.012499 2.226149 -0.316075
# 8 vertices

vt 1.00000 1.00000
vt 1.00000 0.00000
vt 0.00000 0.00000
vt 0.00000 1.00000
# 4 texture vertices

vn 0.00000 0.00000 1.00000
vn -0.11046 0.99388 0.00000
vn 0.33413 0.94253 0.00000
vn 0.00000 0.00000 -1.00000
vn 0.33413 0.94253 0.00000
vn -0.64066 -0.76783 0.00000
vn -0.31619 -0.94870 0.00000
vn -0.31619 -0.94870 0.00000
vn -0.53293 0.84616 0.00000
vn -0.53293 0.84616 0.00000
vn 0.05191 -0.99865 0.00000
vn 0.05191 -0.99865 0.00000
# 12 normal vertices

f 2/3/1 4/2/1 3/1/1
f 1/4/1 2/3/1 3/1/1
f 4/3/5 6/2/3 5/1/2
f 3/4/2 4/3/5 5/1/2
f 6/3/4 8/2/4 7/1/4
f 5/4/4 6/3/4 7/1/4
f 8/3/8 2/2/7 1/1/6
f 7/4/6 8/3/8 1/1/6
f 1/3/9 3/2/2 5/1/2
f 7/4/10 1/3/9 5/1/2
f 8/3/8 6/2/12 4/1/11
f 2/4/7 8/3/8 4/1/11
# 12 elements

